<?xml version="1.0" standalone="no"?>
<!DOCTYPE svg PUBLIC "-//W3C//DTD SVG 1.1//EN" "http://www.w3.org/Graphics/SVG/1.1/DTD/svg11.dtd" >
<svg xmlns="http://www.w3.org/2000/svg">
<metadata></metadata>
<defs>
<font id="gotham_narrow_ssmblack_italic" horiz-adv-x="1150" >
<font-face units-per-em="2048" ascent="1638" descent="-410" />
<missing-glyph horiz-adv-x="491" />
<glyph horiz-adv-x="0" />
<glyph horiz-adv-x="682" />
<glyph unicode=" "  horiz-adv-x="491" />
<glyph unicode="&#x09;" horiz-adv-x="491" />
<glyph unicode="&#xa0;" horiz-adv-x="491" />
<glyph unicode="!" horiz-adv-x="677" d="M2 0l90 356h387l-88 -356h-389zM221 494l96 882l27 115h430l-26 -115l-334 -882h-193z" />
<glyph unicode="&#x22;" horiz-adv-x="1062" d="M168 770l168 721h393l-4 -12l-369 -709h-188zM659 770l166 721h396l-2 -12l-371 -709h-189z" />
<glyph unicode="#" horiz-adv-x="1329" d="M18 297l70 315h174l82 273h-166l72 315h192l90 291h285l-88 -291h225l93 291h284l-90 -291h148l-68 -315h-178l-82 -273h168l-70 -315h-194l-93 -297h-286l92 297h-227l-91 -297h-286l92 297h-148zM541 606h239l86 285h-239z" />
<glyph unicode="$" horiz-adv-x="1239" d="M-25 238l228 249q190 -175 395 -178h2q76 0 123 37t45 96q0 46 -42 79.5t-163 84.5h-2q-85 40 -143 76.5t-108.5 85.5t-75 111t-23.5 139q0 101 39.5 188.5t111 150.5t176.5 99t230 37l35 129h223l-43 -158q196 -54 320 -172l-218 -260q-70 64 -159.5 106.5t-177.5 43.5 h-3q-72 1 -115.5 -33t-41.5 -82q0 -45 43 -84.5t157 -91.5h3q112 -52 185.5 -105t120.5 -130.5t46 -172.5q0 -213 -154.5 -347.5t-400.5 -137.5l-58 -209h-223l64 231q-241 54 -396 218z" />
<glyph unicode="%" horiz-adv-x="1744" d="M135 0l709 799l592 692h254l-707 -799l-594 -692h-254zM174 1047q0 100 35.5 196t101.5 160q106 106 252 106q142 0 224.5 -89t82.5 -242q0 -99 -35.5 -195t-101.5 -162q-104 -104 -254 -104q-141 0 -223 89t-82 241zM399 1053q0 -63 26 -97t71 -34q43 0 75 32 q34 34 54 96t20 124t-26 96.5t-68 34.5q-43 0 -78 -35q-34 -33 -54 -94.5t-20 -122.5zM954 313q0 98 36 194.5t102 162.5q104 104 254 104q141 0 223 -89t82 -241q0 -100 -36 -196t-102 -160q-106 -106 -251 -106q-142 0 -225 89.5t-83 241.5zM1180 317q0 -63 26 -97t70 -34 q39 0 76 33q34 34 53.5 96t19.5 123q0 64 -25.5 97.5t-70.5 33.5q-40 0 -76 -32q-34 -34 -53.5 -96t-19.5 -124z" />
<glyph unicode="&#x26;" horiz-adv-x="1357" d="M39 371q0 315 377 475q-70 143 -70 268q0 168 119 286t317 118q177 0 288.5 -103t111.5 -254q0 -142 -87 -244t-261 -176l118 -196q66 87 123 190l232 -143q-89 -166 -195 -289l109 -170l-265 -164l-82 133q-181 -125 -376 -125q-211 0 -335 107.5t-124 286.5zM393 408 q0 -60 39.5 -99t112.5 -39q85 0 180 62l-176 297q-156 -93 -156 -221zM655 1104q0 -73 45 -160q89 41 131.5 86.5t42.5 108.5q0 49 -25 79.5t-75 30.5q-52 0 -85.5 -42t-33.5 -103z" />
<glyph unicode="'" horiz-adv-x="571" d="M168 770l168 721h397l-2 -12l-371 -709h-192z" />
<glyph unicode="(" horiz-adv-x="874" d="M84 444q0 468 319 787q190 190 471 285l109 -261q-174 -79 -291 -196q-252 -252 -252 -606q0 -154 54.5 -278.5t171.5 -262.5l-213 -213q-182 156 -275.5 336t-93.5 409z" />
<glyph unicode=")" horiz-adv-x="874" d="M-96 -35q176 79 291 195q251 251 251 606q0 155 -54.5 279.5t-172.5 261.5l215 213q183 -156 276 -335.5t93 -410.5q0 -466 -320 -786q-190 -187 -473 -285z" />
<glyph unicode="*" horiz-adv-x="872" d="M193 1128l262 27l-219 150l147 149l152 -217l14 268l203 -49l-111 -246l233 121l60 -203l-262 -26l221 -150l-152 -149l-149 217l-14 -268l-203 51l110 244l-233 -121z" />
<glyph unicode="+" horiz-adv-x="1232" d="M121 584l84 331h325l82 328h338l-82 -328h326l-82 -331h-328l-77 -328h-340l82 328h-328z" />
<glyph unicode="," horiz-adv-x="634" d="M-127 -190q122 12 185 59.5t81 132.5h-155l96 387h389l-84 -334q-49 -200 -166 -293t-328 -102z" />
<glyph unicode="-" horiz-adv-x="837" d="M78 498l84 333h641l-84 -333h-641z" />
<glyph unicode="." horiz-adv-x="634" d="M-18 0l96 387h391l-96 -387h-391z" />
<glyph unicode="/" horiz-adv-x="1019" d="M-250 -252l1243 1931h322l-1245 -1931h-320z" />
<glyph unicode="0" horiz-adv-x="1382" d="M106 545q0 207 74 427t211 357q186 189 447 189q236 0 376 -155t140 -419q0 -207 -73.5 -426.5t-211.5 -357.5q-192 -189 -446 -189q-235 0 -376 155.5t-141 418.5zM483 553q0 -126 45 -185t123 -59t142 64q80 80 131 251t51 314q0 126 -44.5 185t-121.5 59 q-78 0 -141 -66q-80 -79 -132.5 -250.5t-52.5 -312.5z" />
<glyph unicode="1" horiz-adv-x="862" d="M170 0l270 1116l-219 -53l8 319l408 117h272l-366 -1499h-373z" />
<glyph unicode="2" horiz-adv-x="1196" d="M-51 0l78 303l620 494q99 80 139.5 139t40.5 119q0 59 -35.5 91t-95.5 32q-64 0 -131.5 -38t-152.5 -116l-201 250q225 239 524 239q218 0 346.5 -113t128.5 -290q0 -147 -74.5 -263.5t-261.5 -252.5l-339 -272h514l-82 -322h-1018z" />
<glyph unicode="3" d="M-45 199l242 247q124 -141 272 -141q91 0 148 55.5t57 131.5q0 157 -232 157h-92l4 215l359 310h-465l82 317h934l-74 -283l-410 -336q127 -45 198 -138t71 -224q0 -106 -39.5 -203t-114.5 -172q-74 -74 -185.5 -118t-246.5 -44q-158 0 -288 58.5t-220 167.5z" />
<glyph unicode="4" horiz-adv-x="1286" d="M31 569l874 932h389l-221 -919h162l-76 -293h-158l-69 -289h-361l70 289h-588zM412 582h303l112 454z" />
<glyph unicode="5" horiz-adv-x="1171" d="M-33 193l223 256q145 -142 293 -142q103 0 167.5 65.5t64.5 157.5q0 69 -49.5 113.5t-141.5 44.5q-77 0 -157 -41l-187 131l213 713h850l-82 -322h-540l-62 -217q67 15 125 15q186 0 298 -106.5t112 -293.5q0 -120 -42.5 -228t-123.5 -187q-180 -177 -453 -177 q-152 0 -285.5 60.5t-222.5 157.5z" />
<glyph unicode="6" horiz-adv-x="1245" d="M100 489q0 96 18 205t52.5 221.5t93.5 219.5t133 182q202 199 484 199q238 0 411 -140l-184 -280q-51 42 -116.5 71t-131.5 29q-122 0 -213 -88q-83 -86 -129 -223q48 39 123 63.5t150 24.5q78 0 145 -23.5t119 -69.5t82 -120t30 -168q0 -126 -48.5 -247t-133.5 -206 q-77 -77 -179.5 -121.5t-215.5 -44.5q-225 0 -350 125q-140 140 -140 391zM446 436q0 -79 43 -125q39 -39 103 -39q73 0 127 54q39 39 59.5 98t20.5 117q0 76 -39 116.5t-105 40.5q-73 0 -129 -53q-37 -37 -58.5 -93t-21.5 -116z" />
<glyph unicode="7" horiz-adv-x="1161" d="M-6 0l788 1165h-561l82 326h981l-74 -283l-794 -1208h-422z" />
<glyph unicode="8" horiz-adv-x="1261" d="M55 387q-1 163 87 265t233 149q-139 109 -139 274q0 82 34.5 159.5t98.5 140t165.5 100.5t225.5 38q215 0 345 -108.5t130 -280.5q0 -145 -75 -241t-206 -144q185 -104 185 -297q0 -94 -40 -178t-112 -148t-180.5 -101.5t-237.5 -37.5q-222 0 -368 112.5t-146 297.5z M420 428q0 -74 47 -119t119 -45q82 0 137 59t57 140q1 76 -46 120t-122 44q-80 0 -135 -59.5t-57 -139.5zM569 1040q0 -65 39 -107t107 -42q71 0 121.5 55.5t52.5 128.5q0 66 -38.5 108t-109.5 42t-120.5 -56t-51.5 -129z" />
<glyph unicode="9" horiz-adv-x="1245" d="M14 129l185 283q135 -115 272 -115q123 0 213 90q86 89 121 205q-115 -88 -270 -88q-77 0 -143.5 23.5t-118.5 69.5t-82 121.5t-31 172.5q0 135 47.5 256.5t132.5 206.5q164 164 399 164q226 0 353 -127q137 -137 137 -410q0 -127 -31 -269t-101.5 -290.5t-168.5 -247.5 q-199 -199 -475 -199q-249 0 -439 154zM528 938q3 -80 42 -120t102 -40q75 0 131 56q35 34 56.5 94t21.5 125q0 89 -43 129q-39 39 -101 39q-71 0 -127 -56q-36 -36 -59 -100t-23 -127z" />
<glyph unicode=":" horiz-adv-x="641" d="M-14 0l98 387h387l-96 -387h-389zM170 770l98 387h389l-96 -387h-391z" />
<glyph unicode=";" horiz-adv-x="641" d="M-125 -195q123 13 187 61t79 134h-155l98 387h387l-82 -334q-51 -201 -167.5 -293.5t-327.5 -101.5zM170 770l98 387h389l-96 -387h-391z" />
<glyph unicode="&#x3c;" horiz-adv-x="1232" d="M137 580l88 340l1024 393l-94 -365l-643 -215l541 -211l-82 -336z" />
<glyph unicode="=" horiz-adv-x="1232" d="M82 328l82 323h948l-82 -323h-948zM211 848l82 323h950l-84 -323h-948z" />
<glyph unicode="&#x3e;" horiz-adv-x="1232" d="M63 184l95 367l643 213l-541 213l82 336l836 -393l-88 -340z" />
<glyph unicode="?" horiz-adv-x="1058" d="M133 0l88 356h389l-90 -356h-387zM213 1356q203 153 455 153q203 0 323.5 -105.5t120.5 -268.5q0 -369 -479 -469l-66 -172h-239l39 364l16 16q171 20 257.5 70.5t86.5 124.5q0 48 -30.5 76.5t-86.5 28.5q-107 0 -245 -99z" />
<glyph unicode="@" horiz-adv-x="1863" d="M98 444q0 167 46 327.5t133 295t203 237t265.5 160.5t311.5 58q170 0 311.5 -54t235 -147t145 -217.5t51.5 -265.5q0 -161 -40 -296.5t-108 -225.5t-157.5 -140.5t-187.5 -50.5q-101 0 -173.5 49t-101.5 127q-144 -174 -307 -174q-122 0 -201.5 88t-79.5 240 q0 164 68 314.5t182 242.5t240 92q158 0 227 -148l39 131l275 -71l-160 -537q-27 -92 -27 -133q0 -51 30 -77.5t81 -26.5q54 0 110 46t101 124t73.5 191t28.5 237t-45 232.5t-127.5 189.5t-208 127.5t-278.5 46.5q-123 0 -238.5 -38t-210.5 -105.5t-174.5 -161.5 t-133.5 -203t-84 -233.5t-30 -250.5q0 -153 51 -280.5t142 -213.5t217 -133.5t274 -47.5q203 0 400 96l34 -74q-213 -104 -436 -104q-222 0 -395.5 91.5t-272 264.5t-98.5 401zM750 514q0 -143 112 -143q54 0 108.5 50.5t89 131t34.5 162.5q0 64 -29 101.5t-84 37.5 q-56 0 -110 -52t-87.5 -131.5t-33.5 -156.5z" />
<glyph unicode="A" horiz-adv-x="1456" d="M-119 0l889 1501h381l156 -1501h-389l-21 287h-457l-155 -287h-404zM623 594h249l-22 446z" />
<glyph unicode="B" horiz-adv-x="1349" d="M-8 0l366 1491h496q133 0 232.5 -27.5t157 -77.5t85 -112.5t27.5 -138.5q0 -147 -84 -245t-228 -138q94 -40 147.5 -114t53.5 -179q0 -214 -167 -336.5t-474 -122.5h-612zM440 317h211q101 0 160 46t59 126q0 57 -41 89t-122 32h-201zM580 893h184q105 0 161 43.5 t56 122.5q0 54 -41 84.5t-125 30.5h-172z" />
<glyph unicode="C" horiz-adv-x="1329" d="M109 598q0 191 70 379t200 319q223 220 530 220q166 0 299 -75t213 -206l-293 -229q-56 82 -111.5 121.5t-133.5 39.5q-120 0 -217 -100q-75 -74 -120.5 -197.5t-45.5 -248.5q0 -136 67 -216.5t176 -80.5q120 0 252 114l211 -258q-205 -205 -483 -205q-279 0 -446.5 168 t-167.5 455z" />
<glyph unicode="D" horiz-adv-x="1443" d="M-8 0l366 1491h396q338 0 510 -168q153 -150 153 -432q0 -171 -66.5 -349t-193.5 -304q-238 -238 -674 -238h-491zM455 338h80q219 0 344 125q71 71 111 185t40 218q0 141 -72 213q-74 74 -229 74h-80z" />
<glyph unicode="E" horiz-adv-x="1251" d="M-8 0l366 1491h1006l-84 -330h-633l-57 -254h565l-80 -313h-565l-61 -264h643l-84 -330h-1016z" />
<glyph unicode="F" horiz-adv-x="1214" d="M-8 0l366 1491h1004l-86 -338h-627l-63 -272h563l-84 -326h-561l-133 -555h-379z" />
<glyph unicode="G" horiz-adv-x="1433" d="M104 588q0 191 71.5 377.5t199.5 314.5q239 236 579 236q321 0 519 -205l-252 -264q-134 127 -291 127q-156 0 -273 -117q-77 -77 -121 -203.5t-44 -249.5q0 -141 76 -219t194 -78q74 0 137 25l57 239h-227l76 297h584l-197 -776q-209 -117 -461 -117q-122 0 -232 37.5 t-199.5 110.5t-142.5 193t-53 272z" />
<glyph unicode="H" horiz-adv-x="1435" d="M-8 0l366 1491h377l-139 -569h414l137 569h377l-363 -1491h-379l142 578h-414l-139 -578h-379z" />
<glyph unicode="I" horiz-adv-x="665" d="M4 0l365 1491h376l-364 -1491h-377z" />
<glyph unicode="J" horiz-adv-x="1062" d="M-66 199l244 243q97 -123 184 -123q63 0 109 46q54 54 92 210l219 916h379l-233 -977q-36 -146 -80.5 -239.5t-112.5 -161.5q-139 -136 -354 -136q-148 0 -262 59.5t-185 162.5z" />
<glyph unicode="K" horiz-adv-x="1368" d="M-8 0l366 1491h377l-141 -588l502 588h465l-603 -649l265 -842h-406l-158 567l-202 -211l-86 -356h-379z" />
<glyph unicode="L" horiz-adv-x="1159" d="M-8 0l366 1491h377l-278 -1153h575l-86 -338h-954z" />
<glyph unicode="M" horiz-adv-x="1638" d="M-8 0l366 1491h383l148 -571l418 571h419l-362 -1491h-377l207 872l-446 -581h-9l-166 577l-208 -868h-373z" />
<glyph unicode="N" horiz-adv-x="1476" d="M-8 0l366 1491h353l284 -829l199 829h373l-365 -1491h-334l-299 862l-202 -862h-375z" />
<glyph unicode="O" horiz-adv-x="1517" d="M109 588q0 192 72.5 389t203.5 328q213 213 516 213q266 0 427 -168.5t161 -446.5q0 -192 -72.5 -388.5t-204.5 -326.5q-212 -215 -514 -215q-267 0 -428 168.5t-161 446.5zM492 614q0 -144 61.5 -221.5t179.5 -77.5q112 0 203 91q76 78 123 216t47 255 q0 142 -62.5 220.5t-177.5 78.5q-114 0 -202 -91q-78 -78 -125 -216t-47 -255z" />
<glyph unicode="P" horiz-adv-x="1290" d="M-8 0l366 1491h394q163 0 272.5 -33.5t183.5 -107.5q117 -117 117 -308q0 -255 -162 -417q-92 -92 -226 -141.5t-298 -49.5h-164l-104 -434h-379zM553 743h96q146 0 219 76q70 70 70 182q0 74 -43 117q-47 47 -156 47h-88z" />
<glyph unicode="Q" horiz-adv-x="1517" d="M109 588q0 192 72.5 389t203.5 328q213 213 516 213q266 0 427 -168.5t161 -446.5q0 -170 -59.5 -348t-167.5 -311l102 -156l-287 -174l-71 127q-145 -68 -308 -68q-267 0 -428 168.5t-161 446.5zM489 610q0 -144 61 -221.5t181 -77.5q49 0 92 15l-141 215l285 176 l80 -137q59 148 59 294q0 145 -61 223.5t-179 78.5q-116 0 -204 -91q-78 -78 -125.5 -217.5t-47.5 -257.5z" />
<glyph unicode="R" horiz-adv-x="1370" d="M-8 0l366 1491h449q322 0 465 -143q112 -112 112 -304q0 -239 -141 -380q-101 -101 -252 -150l191 -514h-414l-162 457h-127l-108 -457h-379zM559 764h150q148 0 225 74q61 64 61 166q0 67 -43 110q-44 47 -159 47h-142z" />
<glyph unicode="S" horiz-adv-x="1212" d="M-31 233l240 263q187 -193 362 -193q60 0 98 31t38 80q0 42 -38.5 80.5t-154.5 109.5q-157 96 -232 193t-75 227q0 199 133 332q74 75 180 117.5t232 42.5q300 0 520 -213l-232 -267q-161 154 -309 154q-61 0 -96 -31.5t-35 -75.5q0 -43 37.5 -80.5t157.5 -111.5 q100 -62 162 -117t102.5 -133t40.5 -172q0 -200 -137 -340q-74 -74 -182 -114t-232 -40q-175 0 -324 67.5t-256 190.5z" />
<glyph unicode="T" horiz-adv-x="1196" d="M178 1151l88 340h1110l-86 -340h-366l-279 -1151h-377l277 1151h-367z" />
<glyph unicode="U" horiz-adv-x="1437" d="M119 432q0 106 35 240l196 819h379l-205 -848q-22 -90 -22 -149q0 -83 47 -130t129 -47q98 0 158 60q68 68 104 213l217 901h377l-227 -946q-69 -274 -203 -406q-164 -164 -469 -164q-243 0 -379.5 120t-136.5 337z" />
<glyph unicode="V" horiz-adv-x="1392" d="M240 1491h405l35 -948l491 948h418l-864 -1501h-354z" />
<glyph unicode="W" horiz-adv-x="2086" d="M252 1491h389l-8 -897l452 901h326l31 -901l418 897h411l-782 -1501h-350l-41 856l-447 -856h-350z" />
<glyph unicode="X" horiz-adv-x="1335" d="M-121 0l615 780l-234 711h410l104 -428l295 428h449l-586 -743l248 -748h-410l-121 471l-323 -471h-447z" />
<glyph unicode="Y" horiz-adv-x="1269" d="M199 1491h403l98 -557l367 557h440l-702 -940l-135 -551h-377l139 582z" />
<glyph unicode="Z" horiz-adv-x="1277" d="M-47 0l72 285l806 880h-581l84 326h1075l-72 -285l-809 -880h607l-82 -326h-1100z" />
<glyph unicode="[" horiz-adv-x="907" d="M-39 -276l432 1767h637l-67 -262h-299l-304 -1243h306l-70 -262h-635z" />
<glyph unicode="\" horiz-adv-x="1019" d="M236 1679h290l340 -1931h-293z" />
<glyph unicode="]" horiz-adv-x="907" d="M-111 -276l66 262h299l305 1243h-305l68 262h634l-430 -1767h-637z" />
<glyph unicode="^" horiz-adv-x="1024" d="M211 1063l362 420h256l156 -420h-237l-86 205l-181 -205h-270z" />
<glyph unicode="_" horiz-adv-x="1230" d="M-207 -338l62 246h1202l-62 -246h-1202z" />
<glyph unicode="`" horiz-adv-x="1101" d="M498 1499l333 113l127 -369h-237z" />
<glyph unicode="a" d="M10 276q0 90 30.5 171t86.5 137q121 121 336 121q120 0 244 -46l4 17q12 58 12 86q0 112 -162 112q-126 0 -262 -57l-63 283q190 71 399 71q222 0 338.5 -87t116.5 -246q0 -76 -29 -199l-154 -639h-362l26 113q-66 -68 -132 -102t-148 -34q-129 0 -205 82.5t-76 216.5z M367 322q0 -50 25.5 -79.5t72.5 -29.5q66 0 115 55t67 135l19 80q-69 25 -123 25q-79 0 -123 -47q-53 -53 -53 -139z" />
<glyph unicode="b" horiz-adv-x="1286" d="M-27 0l375 1540h369l-121 -502q139 142 285 142t243 -117.5t97 -323.5q0 -171 -60 -340.5t-164 -273.5q-145 -145 -329 -145q-196 0 -291 167l-35 -147h-369zM446 479q0 -90 40 -140t108 -50q76 0 133 57q54 55 86.5 146.5t32.5 185.5q0 90 -38.5 141t-111.5 51 q-74 0 -133 -59q-54 -54 -85.5 -147.5t-31.5 -184.5z" />
<glyph unicode="c" horiz-adv-x="1048" d="M68 461q0 153 54.5 297t156.5 246q174 174 407 174q283 0 410 -238l-265 -195q-34 60 -69 88.5t-82 28.5q-72 0 -131 -59q-54 -54 -87.5 -145.5t-33.5 -176.5q0 -93 39.5 -142.5t103.5 -49.5q46 0 84 20.5t86 63.5l191 -223q-164 -175 -393 -175q-213 0 -342 131.5 t-129 354.5z" />
<glyph unicode="d" horiz-adv-x="1286" d="M66 420q0 170 59.5 340t163.5 274q146 146 329 146q193 0 291 -170l127 530h371l-377 -1540h-368l28 117q-140 -137 -284 -137q-146 0 -243 116.5t-97 323.5zM440 481q0 -92 38.5 -143t111.5 -51q72 0 131 59q55 55 87 148t32 184q0 90 -40.5 141t-109.5 51 q-72 0 -131 -59q-54 -54 -86.5 -145.5t-32.5 -184.5z" />
<glyph unicode="e" horiz-adv-x="1167" d="M70 475q0 149 56 292t157 243q170 170 405 170q204 0 317 -124.5t113 -322.5q0 -128 -49 -274h-659v-6q5 -90 51 -139.5t129 -49.5q104 0 223 82l145 -235q-173 -136 -399 -136q-231 0 -360 134.5t-129 365.5zM438 666h336q12 44 12 92q0 61 -32 99t-92 38 q-72 0 -134 -59q-59 -62 -90 -170z" />
<glyph unicode="f" horiz-adv-x="817" d="M31 0l207 854h-117l78 303h114l6 29q44 178 130 264q110 104 313 104q115 0 215 -28l-70 -273q-49 17 -104 17q-53 0 -80.5 -23t-40.5 -71l-4 -23h207l-78 -299h-199l-207 -854h-370z" />
<glyph unicode="g" horiz-adv-x="1280" d="M-63 -184l149 250q177 -113 350 -113q115 0 185 67q58 58 84 168l14 50q-73 -74 -145.5 -109t-157.5 -35q-148 0 -244 99t-96 278q0 153 58 308.5t159 256.5q139 142 319 142q198 0 289 -179l37 158h371l-230 -950q-34 -141 -77.5 -232t-108.5 -155q-144 -144 -436 -144 q-137 0 -276 37t-244 103zM446 539q0 -82 35.5 -124t100.5 -42q79 0 137 61q43 43 71.5 117t28.5 156t-37.5 127t-101.5 45q-71 0 -129 -58q-49 -49 -77 -129.5t-28 -152.5z" />
<glyph unicode="h" horiz-adv-x="1216" d="M-27 0l375 1540h371l-123 -504q132 144 287 144q132 0 207 -79.5t75 -219.5q0 -67 -32 -209l-162 -672h-371l156 643q16 57 16 107q0 98 -98 98q-64 0 -106.5 -46.5t-61.5 -129.5l-162 -672h-371z" />
<glyph unicode="i" horiz-adv-x="616" d="M-18 0l284 1157h369l-283 -1157h-370zM281 1253l77 295h381l-75 -295h-383z" />
<glyph unicode="j" horiz-adv-x="620" d="M-250 -305l66 250q28 -8 51 -8q60 0 92 32.5t51 110.5l260 1077h369l-270 -1118q-52 -205 -156.5 -286t-288.5 -81q-90 0 -174 23zM287 1253l73 295h383l-75 -295h-381z" />
<glyph unicode="k" horiz-adv-x="1155" d="M-27 0l377 1540h371l-178 -735l303 352h440l-450 -461l176 -696h-396l-88 440l-106 -116l-78 -324h-371z" />
<glyph unicode="l" horiz-adv-x="616" d="M-18 0l376 1540h371l-377 -1540h-370z" />
<glyph unicode="m" horiz-adv-x="1837" d="M-27 0l283 1157h369l-29 -119q135 142 287 142q94 0 159 -48t95 -135q158 183 358 183q139 0 215 -78t76 -209q0 -86 -31 -217l-164 -676h-368l157 647q15 61 15 105q0 96 -99 96q-60 0 -102 -45t-61 -125l-166 -678h-369l156 645q16 66 16 105q0 98 -98 98 q-63 0 -105 -46t-61 -130l-164 -672h-369z" />
<glyph unicode="n" horiz-adv-x="1210" d="M-27 0l283 1157h369l-29 -121q132 144 287 144q132 0 207 -79.5t75 -219.5q0 -67 -32 -209l-162 -672h-371l156 643q16 57 16 107q0 98 -98 98q-64 0 -106.5 -46.5t-61.5 -129.5l-162 -672h-371z" />
<glyph unicode="o" horiz-adv-x="1236" d="M72 475q0 150 55 293t154 242q170 170 401 170q225 0 355 -138t130 -362q0 -151 -55 -294.5t-154 -242.5q-168 -168 -401 -168q-225 0 -355 138t-130 362zM426 487q0 -98 40 -149t109 -51q71 0 121 53q53 52 85 145.5t32 180.5q0 98 -40 150t-109 52q-68 0 -121 -53 q-52 -52 -84.5 -146.5t-32.5 -181.5z" />
<glyph unicode="p" horiz-adv-x="1286" d="M-104 -319l360 1476h369l-29 -119q139 142 285 142t243 -117.5t97 -323.5q0 -171 -60 -340.5t-164 -273.5q-145 -145 -329 -145q-196 0 -291 167l-113 -466h-368zM446 479q0 -90 40 -140t108 -50q76 0 133 57q54 55 86.5 146.5t32.5 185.5q0 90 -38.5 141t-111.5 51 q-74 0 -133 -59q-54 -54 -85.5 -147.5t-31.5 -184.5z" />
<glyph unicode="q" horiz-adv-x="1286" d="M66 420q0 170 59.5 339t163.5 273q148 148 332 148q190 0 288 -170l33 147h371l-359 -1476h-370l106 436q-140 -137 -284 -137q-146 0 -243 116.5t-97 323.5zM440 481q0 -92 38.5 -143t111.5 -51q72 0 131 59q55 55 87 148t32 184q0 90 -40.5 141t-109.5 51 q-72 0 -131 -59q-54 -54 -86.5 -145.5t-32.5 -184.5z" />
<glyph unicode="r" horiz-adv-x="835" d="M-27 0l283 1157h369l-47 -196q70 113 154 169q73 48 167 47q15 0 31 -1l-103 -396h-24q-141 0 -225.5 -77.5t-128.5 -253.5l-105 -449h-371z" />
<glyph unicode="s" horiz-adv-x="976" d="M-59 176l186 230q77 -75 156.5 -116.5t148.5 -41.5q42 0 66 19.5t24 49.5q0 35 -29.5 61t-125.5 85q-124 77 -183 151.5t-59 180.5q0 161 120 272t320 111q246 0 434 -166l-178 -238q-143 133 -266 133q-36 0 -59 -18.5t-23 -48.5q0 -32 27.5 -55.5t122.5 -82.5 q129 -78 188 -156.5t59 -185.5q0 -76 -29.5 -145t-84 -122.5t-139.5 -85.5t-189 -32q-280 0 -487 201z" />
<glyph unicode="t" horiz-adv-x="825" d="M94 225q0 46 23 148l116 481h-118l75 303h117l70 283h368l-67 -283h211l-78 -303h-207l-108 -442q-9 -52 -9 -58q0 -55 72 -55q51 0 127 27l-76 -306q-93 -38 -221 -38q-142 0 -218.5 63.5t-76.5 179.5z" />
<glyph unicode="u" horiz-adv-x="1216" d="M57 276q0 73 31 207l162 674h371l-156 -643q-16 -69 -16 -106q0 -99 100 -99q62 0 104 46.5t62 127.5l164 674h368l-280 -1157h-371l29 119q-130 -142 -287 -142q-131 0 -206 80t-75 219z" />
<glyph unicode="v" horiz-adv-x="1189" d="M178 1157h377l10 -694l340 694h389l-669 -1165h-342z" />
<glyph unicode="w" horiz-adv-x="1650" d="M182 1157h363l-27 -618l293 620h307v-622l271 620h362l-590 -1165h-321l-11 618l-305 -618h-325z" />
<glyph unicode="x" horiz-adv-x="1140" d="M-100 0l477 602l-191 555h379l72 -293l190 293h414l-465 -584l197 -573h-381l-76 311l-203 -311h-413z" />
<glyph unicode="y" horiz-adv-x="1183" d="M-51 -233l151 256q66 -52 123 -52q44 0 66 37l-96 1149h372l8 -708l326 708h387l-620 -1153q-98 -180 -197 -256t-244 -76q-156 0 -276 95z" />
<glyph unicode="z" horiz-adv-x="1050" d="M-59 0l63 254l576 606h-422l75 297h881l-63 -254l-578 -606h440l-75 -297h-897z" />
<glyph unicode="{" horiz-adv-x="958" d="M63 483l66 256h51q147 0 207 60q68 71 68 239q8 240 116 348q71 69 183.5 102t285.5 32l25 -232q-168 -11 -231 -74q-41 -40 -53.5 -98.5t-14.5 -173.5q-4 -176 -80 -254q-79 -79 -244 -100q92 -18 138.5 -71.5t46.5 -127.5q0 -72 -47 -182q-45 -100 -45 -144 q0 -53 37 -82.5t143 -58.5l-101 -219q-230 33 -323.5 104t-93.5 193q0 67 49 190q49 120 49 179q0 57 -42.5 85.5t-139.5 28.5h-50z" />
<glyph unicode="|" horiz-adv-x="722" d="M18 -252l476 1931h276l-475 -1931h-277z" />
<glyph unicode="}" horiz-adv-x="958" d="M-90 -66q166 11 229 74q42 40 55 100t13 171q4 84 20 146.5t62 106.5q83 83 243 103q-93 18 -138.5 70.5t-45.5 128.5q0 67 47 182q43 95 43 143q0 52 -37 82t-141 59l98 220q230 -33 324 -104t94 -193q0 -76 -49 -191q-47 -123 -47 -178q0 -59 42 -87t138 -28h51 l-65 -256h-51q-147 0 -209 -59q-65 -71 -68 -240q-8 -244 -117 -348q-136 -136 -469 -133z" />
<glyph unicode="~" horiz-adv-x="1007" d="M96 551q53 134 132 208.5t169 74.5q86 0 162 -56q70 -47 105 -47q72 0 127 111l174 -76q-53 -134 -132 -208.5t-171 -74.5q-84 0 -160 56q-73 47 -107 47q-39 0 -68.5 -28.5t-56.5 -82.5z" />
<glyph unicode="&#xa1;" horiz-adv-x="675" d="M-18 0l26 115l334 882h193l-95 -882l-28 -115h-430zM276 1135l89 356h389l-88 -356h-390z" />
<glyph unicode="&#xa2;" horiz-adv-x="1112" d="M121 657q0 148 51.5 289.5t149.5 239.5q170 170 417 170h9l51 147h227l-68 -192q130 -61 207 -201l-243 -176q-38 62 -83 92.5t-114 30.5q-84 0 -152 -68q-54 -52 -84 -141t-30 -172q0 -112 52 -167.5t130 -55.5q100 0 201 84l170 -218q-165 -165 -400 -165h-30l-56 -166 h-227l74 215q-120 58 -186 174t-66 280z" />
<glyph unicode="&#xa3;" horiz-adv-x="1212" d="M-33 0l60 236l157 59l68 280h-146l70 281h143l39 166q53 228 174 352q145 142 377 142q128 0 234.5 -55t171.5 -144l-246 -240q-74 99 -168 99q-62 0 -108 -46t-70 -145l-31 -129h369l-72 -281h-364l-62 -262h512l-80 -313h-1028z" />
<glyph unicode="&#xa5;" horiz-adv-x="1341" d="M68 205l61 246h324l26 112h-323l63 246h240l-199 682h393l103 -508l334 508h434l-533 -682h244l-59 -246h-326l-29 -112h328l-64 -246h-325l-49 -205h-367l49 205h-325z" />
<glyph unicode="&#xa7;" horiz-adv-x="1212" d="M61 156l185 219q61 -57 140.5 -94t150.5 -37q48 0 73 17t25 46q0 32 -33 53t-141 60q-66 24 -111 44t-91.5 47.5t-73.5 56.5t-44.5 68t-17.5 85q0 61 23 110.5t62 81.5t81 52t90 32q-64 77 -64 183q0 143 119.5 240.5t325.5 97.5q146 0 268 -48t209 -131l-186 -219 q-61 57 -140.5 94t-148.5 37q-49 0 -74.5 -17.5t-25.5 -45.5q0 -31 33.5 -52.5t140.5 -60.5q66 -24 111 -44t91.5 -47.5t73.5 -56.5t44.5 -68t17.5 -85q0 -61 -22.5 -110t-61.5 -81.5t-80.5 -53t-89.5 -33.5q61 -73 61 -181q0 -143 -118 -240.5t-324 -97.5q-146 0 -268.5 48 t-209.5 131zM436 786q0 -35 30.5 -59t106.5 -57q58 -21 80 -28.5t54 -15.5t53 -8q41 0 71.5 25t30.5 66q0 33 -31.5 58t-107.5 58q-136 49 -186 49q-40 0 -70.5 -24t-30.5 -64z" />
<glyph unicode="&#xa8;" horiz-adv-x="1101" d="M354 1247l72 287h317l-73 -287h-316zM768 1247l74 287h315l-72 -287h-317z" />
<glyph unicode="&#xa9;" horiz-adv-x="1593" d="M143 614q0 191 68.5 375.5t198.5 313.5q214 217 512 217q183 0 321 -84t210.5 -229t72.5 -330q0 -191 -67 -375t-197 -314q-217 -217 -514 -217q-182 0 -320.5 84t-211.5 229.5t-73 329.5zM229 618q0 -160 60 -286.5t180 -201.5t283 -75q261 0 444 183 q121 121 182.5 291.5t61.5 344.5q1 159 -58.5 285t-179 201.5t-282.5 75.5q-262 0 -445 -183q-121 -120 -182.5 -290t-63.5 -345zM463 672q0 107 40 212t113 177q123 123 295 123q99 0 172.5 -45t116.5 -123l-168 -121q-31 46 -61.5 69t-73.5 23q-67 0 -125 -55 q-40 -41 -65 -110.5t-25 -137.5q0 -78 35.5 -122t95.5 -44q72 0 154 70l116 -142q-128 -124 -292 -124q-146 0 -237 95t-91 255z" />
<glyph unicode="&#xaa;" horiz-adv-x="776" d="M111 594l39 154h542l-39 -154h-542zM209 1012q0 98 67.5 166.5t180.5 68.5q63 0 139 -26l4 18q6 18 6 37q0 30 -21.5 46.5t-62.5 16.5q-71 0 -151 -32l-35 153q100 41 227 41q118 0 180 -49.5t62 -138.5q0 -37 -12 -99l-86 -354h-201l16 60q-75 -72 -155 -72 q-70 0 -114 45t-44 119zM406 1036q0 -28 15.5 -43.5t41.5 -15.5q34 0 62 30t40 76l8 39q-37 15 -71 15q-45 0 -70.5 -30.5t-25.5 -70.5z" />
<glyph unicode="&#xab;" horiz-adv-x="1257" d="M80 541l18 69l459 463l180 -166l-303 -364l133 -365l-252 -106zM584 551l6 20l487 492l183 -164l-312 -371l127 -352l-252 -108z" />
<glyph unicode="&#xad;" horiz-adv-x="837" d="M78 498l84 333h641l-84 -333h-641z" />
<glyph unicode="&#xae;" horiz-adv-x="751" d="M172 1073q0 92 33.5 181.5t95.5 152.5q109 109 256 109q134 0 214.5 -88t80.5 -220q0 -93 -33.5 -183.5t-95.5 -152.5q-109 -106 -254 -106q-134 0 -215.5 87.5t-81.5 219.5zM213 1075q0 -115 70 -192.5t190 -77.5q125 0 217 92q59 59 90 141.5t31 165.5q0 117 -69 194 t-189 77q-128 0 -219 -91q-58 -60 -89.5 -143t-31.5 -166zM315 946l99 402h127q164 0 164 -125q0 -96 -103 -138l49 -139h-119l-40 119h-35l-27 -119h-115zM481 1157h35q42 0 59 17t17 36q0 41 -53 41h-35z" />
<glyph unicode="&#xaf;" horiz-adv-x="1101" d="M362 1247l60 232h702l-57 -232h-705z" />
<glyph unicode="&#xb0;" horiz-adv-x="899" d="M199 1075q0 93 34 179t97 149q107 104 256 104q146 0 230.5 -90.5t84.5 -232.5q0 -92 -35 -178.5t-98 -149.5q-101 -104 -254 -104q-147 0 -231 90.5t-84 232.5zM397 1085q0 -69 33.5 -110t91.5 -41q60 0 107 47q34 34 53.5 87.5t19.5 105.5q0 69 -32.5 109t-91.5 40 q-65 0 -107 -45q-35 -34 -54.5 -87.5t-19.5 -105.5z" />
<glyph unicode="&#xb1;" horiz-adv-x="1232" d="M-6 39l72 285h981l-74 -285h-979zM176 776l76 303l332 -2l78 320h317l-80 -320l334 2l-76 -303l-334 2l-75 -319h-318l80 319z" />
<glyph unicode="&#xb4;" horiz-adv-x="1101" d="M453 1243l301 369l321 -113l-346 -256h-276z" />
<glyph unicode="&#xb5;" horiz-adv-x="1341" d="M-102 -322l360 1473h358l-153 -645q-17 -60 -17 -100q0 -53 31 -83t88 -30q134 0 176 166l166 692h361l-183 -750q-10 -48 -10 -65q0 -33 21 -47.5t65 -14.5q12 0 62 5l-68 -267q-82 -28 -174 -28q-176 0 -223 139q-87 -135 -223 -135q-158 0 -209 159h-7 q0 -172 -34 -317l-37 -152h-350z" />
<glyph unicode="&#xb6;" horiz-adv-x="1177" d="M150 893q0 252 165 414q184 184 541 184h412l-363 -1491h-366l106 455q-260 12 -383 135q-112 109 -112 303z" />
<glyph unicode="&#xb7;" horiz-adv-x="636" d="M90 471l96 387h392l-99 -387h-389z" />
<glyph unicode="&#xb8;" horiz-adv-x="1101" d="M104 -223l242 254h254l-215 -371z" />
<glyph unicode="&#xba;" horiz-adv-x="792" d="M115 594l39 154h532l-39 -154h-532zM215 1118q0 80 30 158t87 135q92 92 219 92q126 0 198 -76t72 -202q0 -79 -29.5 -156.5t-86.5 -134.5q-90 -90 -220 -90q-126 0 -198 74.5t-72 199.5zM410 1122q0 -49 22 -79.5t62 -30.5t69 32q30 27 47 79.5t17 99.5q0 49 -21.5 78.5 t-62.5 29.5q-39 0 -70 -31q-29 -29 -46 -80.5t-17 -97.5z" />
<glyph unicode="&#xbb;" horiz-adv-x="1257" d="M-4 240l309 370l-127 353l254 108l238 -483l-4 -19l-490 -493zM518 231l303 365l-133 365l252 106l234 -469l-19 -70l-457 -460z" />
<glyph unicode="&#xbf;" horiz-adv-x="1058" d="M27 356q0 369 481 469l65 172h240l-39 -364l-16 -17q-172 -20 -259 -70.5t-87 -123.5q0 -48 30 -76.5t86 -28.5q107 0 248 99l150 -281q-200 -153 -453 -153q-203 0 -324.5 105.5t-121.5 268.5zM530 1135l88 356h390l-90 -356h-388z" />
<glyph unicode="&#xc0;" horiz-adv-x="1456" d="M-119 0l889 1501h381l156 -1501h-389l-21 287h-457l-155 -287h-404zM610 1810l351 111l143 -324h-254zM623 594h249l-22 446z" />
<glyph unicode="&#xc1;" horiz-adv-x="1456" d="M-119 0l889 1501h381l156 -1501h-389l-21 287h-457l-155 -287h-404zM623 594h249l-22 446zM834 1597l296 324l336 -111l-338 -213h-294z" />
<glyph unicode="&#xc2;" horiz-adv-x="1456" d="M-119 0l889 1501h381l156 -1501h-389l-21 287h-457l-155 -287h-404zM565 1595l314 299h329l166 -299h-239l-123 109l-176 -109h-271zM623 594h249l-22 446z" />
<glyph unicode="&#xc3;" horiz-adv-x="1456" d="M-119 0l889 1501h381l156 -1501h-389l-21 287h-457l-155 -287h-404zM575 1640q55 147 120.5 217t162.5 70q79 0 189 -45q78 -35 114 -35q39 0 65.5 22t53.5 70l180 -53q-55 -147 -121 -218t-163 -71q-68 0 -189 48q-87 34 -115 34q-39 0 -64 -22t-52 -70zM623 594h249 l-22 446z" />
<glyph unicode="&#xc4;" horiz-adv-x="1456" d="M-119 0l889 1501h381l156 -1501h-389l-21 287h-457l-155 -287h-404zM618 1602l70 276h318l-70 -276h-318zM623 594h249l-22 446zM1038 1602l70 276h319l-69 -276h-320z" />
<glyph unicode="&#xc5;" horiz-adv-x="1456" d="M-119 0l854 1442q-28 48 -28 102q0 111 80.5 189.5t213.5 78.5q105 0 175.5 -61t70.5 -149q0 -116 -86 -193l146 -1409h-389l-21 287h-457l-155 -287h-404zM623 594h249l-22 446zM842 1556q0 -46 33 -76t88 -30q68 0 108.5 42.5t40.5 92.5q0 51 -33.5 81t-87.5 30 q-69 0 -109 -43.5t-40 -96.5z" />
<glyph unicode="&#xc6;" horiz-adv-x="1974" d="M-137 0l999 1491h1231l-84 -330h-598l-57 -254h532l-80 -313h-532l-64 -264h611l-84 -330h-977l67 287h-381l-180 -287h-403zM659 594h246l139 582h-26z" />
<glyph unicode="&#xc7;" horiz-adv-x="1329" d="M109 598q0 191 70 379t200 319q223 220 530 220q166 0 299 -75t213 -206l-293 -229q-56 82 -111.5 121.5t-133.5 39.5q-120 0 -217 -100q-75 -74 -120.5 -197.5t-45.5 -248.5q0 -136 67 -216.5t176 -80.5q120 0 252 114l211 -258q-205 -205 -483 -205h-8l-183 -315 l-280 117l227 237q-174 64 -272 215.5t-98 368.5z" />
<glyph unicode="&#xc8;" horiz-adv-x="1251" d="M-8 0l366 1491h1006l-84 -330h-633l-57 -254h565l-80 -313h-565l-61 -264h643l-84 -330h-1016zM504 1792l350 111l143 -324h-254z" />
<glyph unicode="&#xc9;" horiz-adv-x="1251" d="M-8 0l366 1491h1006l-84 -330h-633l-57 -254h565l-80 -313h-565l-61 -264h643l-84 -330h-1016zM725 1579l297 324l336 -111l-338 -213h-295z" />
<glyph unicode="&#xca;" horiz-adv-x="1251" d="M-8 0l366 1491h1006l-84 -330h-633l-57 -254h565l-80 -313h-565l-61 -264h643l-84 -330h-1016zM461 1583l313 299h330l166 -299h-240l-123 109l-176 -109h-270z" />
<glyph unicode="&#xcb;" horiz-adv-x="1251" d="M-8 0l366 1491h1006l-84 -330h-633l-57 -254h565l-80 -313h-565l-61 -264h643l-84 -330h-1016zM510 1583l70 277h317l-70 -277h-317zM930 1583l69 277h320l-70 -277h-319z" />
<glyph unicode="&#xcc;" horiz-adv-x="665" d="M4 0l365 1491h376l-364 -1491h-377zM201 1792l350 111l143 -324h-254z" />
<glyph unicode="&#xcd;" horiz-adv-x="665" d="M4 0l365 1491h376l-364 -1491h-377zM426 1579l297 324l336 -111l-338 -213h-295z" />
<glyph unicode="&#xce;" horiz-adv-x="665" d="M4 0l365 1491h376l-364 -1491h-377zM162 1583l313 299h330l166 -299h-240l-123 109l-176 -109h-270z" />
<glyph unicode="&#xcf;" horiz-adv-x="665" d="M4 0l365 1491h376l-364 -1491h-377zM213 1583l70 277h317l-70 -277h-317zM633 1583l69 277h320l-70 -277h-319z" />
<glyph unicode="&#xd0;" horiz-adv-x="1499" d="M41 596l80 309h155l144 586h391q339 0 510 -168q152 -152 152 -432q0 -171 -65.5 -349.5t-190.5 -303.5q-241 -238 -678 -238h-484l146 596h-160zM508 332h82q227 0 348 127q74 73 115 187.5t41 221.5q0 143 -72 215q-76 76 -234 76h-81l-62 -256h189l-78 -307h-185z" />
<glyph unicode="&#xd1;" horiz-adv-x="1476" d="M-8 0l366 1491h353l284 -829l199 829h373l-365 -1491h-334l-299 862l-202 -862h-375zM569 1622q55 147 120.5 217t162.5 70q78 0 188 -45q78 -35 115 -35q39 0 65.5 22t53.5 70l180 -53q-55 -147 -121.5 -218t-163.5 -71q-70 0 -188 47q-89 35 -115 35q-39 0 -64 -22 t-52 -70z" />
<glyph unicode="&#xd2;" horiz-adv-x="1517" d="M109 588q0 192 72.5 389t203.5 328q213 213 516 213q266 0 427 -168.5t161 -446.5q0 -192 -72.5 -388.5t-204.5 -326.5q-212 -215 -514 -215q-267 0 -428 168.5t-161 446.5zM492 614q0 -144 61.5 -221.5t179.5 -77.5q112 0 203 91q76 78 123 216t47 255 q0 142 -62.5 220.5t-177.5 78.5q-114 0 -202 -91q-78 -78 -125 -216t-47 -255zM616 1810l351 111l143 -324h-254z" />
<glyph unicode="&#xd3;" horiz-adv-x="1517" d="M109 588q0 192 72.5 389t203.5 328q213 213 516 213q266 0 427 -168.5t161 -446.5q0 -192 -72.5 -388.5t-204.5 -326.5q-212 -215 -514 -215q-267 0 -428 168.5t-161 446.5zM492 614q0 -144 61.5 -221.5t179.5 -77.5q112 0 203 91q76 78 123 216t47 255 q0 142 -62.5 220.5t-177.5 78.5q-114 0 -202 -91q-78 -78 -125 -216t-47 -255zM825 1597l297 324l336 -111l-338 -213h-295z" />
<glyph unicode="&#xd4;" horiz-adv-x="1517" d="M109 588q0 192 72.5 389t203.5 328q213 213 516 213q266 0 427 -168.5t161 -446.5q0 -192 -72.5 -388.5t-204.5 -326.5q-212 -215 -514 -215q-267 0 -428 168.5t-161 446.5zM492 614q0 -144 61.5 -221.5t179.5 -77.5q112 0 203 91q76 78 123 216t47 255 q0 142 -62.5 220.5t-177.5 78.5q-114 0 -202 -91q-78 -78 -125 -216t-47 -255zM575 1602l314 299h330l165 -299h-239l-123 108l-176 -108h-271z" />
<glyph unicode="&#xd5;" horiz-adv-x="1517" d="M109 588q0 192 72.5 389t203.5 328q213 213 516 213q266 0 427 -168.5t161 -446.5q0 -192 -72.5 -388.5t-204.5 -326.5q-212 -215 -514 -215q-267 0 -428 168.5t-161 446.5zM492 614q0 -144 61.5 -221.5t179.5 -77.5q112 0 203 91q76 78 123 216t47 255 q0 142 -62.5 220.5t-177.5 78.5q-114 0 -202 -91q-78 -78 -125 -216t-47 -255zM584 1640q55 147 120 217t162 70q79 0 189 -45q78 -35 114 -35q39 0 65.5 22t53.5 70l180 -53q-55 -147 -121 -218t-163 -71q-68 0 -189 48q-87 34 -114 34q-39 0 -64.5 -22t-52.5 -70z" />
<glyph unicode="&#xd6;" horiz-adv-x="1517" d="M109 588q0 192 72.5 389t203.5 328q213 213 516 213q266 0 427 -168.5t161 -446.5q0 -192 -72.5 -388.5t-204.5 -326.5q-212 -215 -514 -215q-267 0 -428 168.5t-161 446.5zM492 614q0 -144 61.5 -221.5t179.5 -77.5q112 0 203 91q76 78 123 216t47 255 q0 142 -62.5 220.5t-177.5 78.5q-114 0 -202 -91q-78 -78 -125 -216t-47 -255zM627 1602l69 276h318l-70 -276h-317zM1047 1602l69 276h320l-70 -276h-319z" />
<glyph unicode="&#xd7;" horiz-adv-x="1232" d="M96 494l346 274l-204 270l268 211l194 -276l342 280l189 -247l-346 -273l205 -270l-269 -213l-194 276l-340 -280z" />
<glyph unicode="&#xd8;" horiz-adv-x="1517" d="M-63 -10l251 262q-79 137 -79 336q0 192 72.5 389t203.5 328q213 213 516 213q223 0 375 -121l102 106h283l-254 -262q82 -145 82 -338q0 -192 -72.5 -388.5t-204.5 -326.5q-212 -215 -514 -215q-228 0 -379 123l-100 -106h-282zM479 610q0 -25 4 -65l539 596 q-58 49 -156 49q-117 0 -211 -94q-77 -79 -126.5 -221t-49.5 -265zM571 352q60 -51 160 -51q115 0 211 96q79 77 128.5 218.5t49.5 267.5q0 23 -4 69z" />
<glyph unicode="&#xd9;" horiz-adv-x="1437" d="M119 432q0 106 35 240l196 819h379l-205 -848q-22 -90 -22 -149q0 -83 47 -130t129 -47q98 0 158 60q68 68 104 213l217 901h377l-227 -946q-69 -274 -203 -406q-164 -164 -469 -164q-243 0 -379.5 120t-136.5 337zM580 1792l350 111l143 -324h-254z" />
<glyph unicode="&#xda;" horiz-adv-x="1437" d="M119 432q0 106 35 240l196 819h379l-205 -848q-22 -90 -22 -149q0 -83 47 -130t129 -47q98 0 158 60q68 68 104 213l217 901h377l-227 -946q-69 -274 -203 -406q-164 -164 -469 -164q-243 0 -379.5 120t-136.5 337zM805 1579l297 324l336 -111l-338 -213h-295z" />
<glyph unicode="&#xdb;" horiz-adv-x="1437" d="M119 432q0 106 35 240l196 819h379l-205 -848q-22 -90 -22 -149q0 -83 47 -130t129 -47q98 0 158 60q68 68 104 213l217 901h377l-227 -946q-69 -274 -203 -406q-164 -164 -469 -164q-243 0 -379.5 120t-136.5 337zM539 1583l313 299h330l166 -299h-240l-123 109 l-176 -109h-270z" />
<glyph unicode="&#xdc;" horiz-adv-x="1437" d="M119 432q0 106 35 240l196 819h379l-205 -848q-22 -90 -22 -149q0 -83 47 -130t129 -47q98 0 158 60q68 68 104 213l217 901h377l-227 -946q-69 -274 -203 -406q-164 -164 -469 -164q-243 0 -379.5 120t-136.5 337zM590 1583l69 277h318l-70 -277h-317zM1010 1583l69 277 h320l-70 -277h-319z" />
<glyph unicode="&#xdd;" horiz-adv-x="1269" d="M199 1491h403l98 -557l367 557h440l-702 -940l-135 -551h-377l139 582zM700 1579l297 324l336 -111l-338 -213h-295z" />
<glyph unicode="&#xde;" horiz-adv-x="1306" d="M-8 0l366 1491h377l-51 -209h18q164 0 274 -34t185 -109q115 -112 115 -305q0 -254 -162 -412q-91 -91 -224.5 -140t-295.5 -49h-168l-55 -233h-379zM504 541h98q142 0 217 75q72 72 72 183q0 70 -43 116q-50 50 -158 50h-88z" />
<glyph unicode="&#xdf;" horiz-adv-x="1234" d="M-23 0l259 1065q55 228 176 352q137 137 372 137q207 0 327 -109t120 -284q0 -151 -77 -265.5t-222 -160.5q88 -41 139 -114t51 -170q0 -102 -42.5 -190t-124 -154t-214 -96.5t-297.5 -14.5l72 276q123 0 189.5 59.5t66.5 149.5q0 63 -41 106t-129 56l55 217 q109 24 166.5 93.5t57.5 160.5q0 63 -32.5 98t-80.5 35q-122 0 -166 -188l-258 -1059h-367z" />
<glyph unicode="&#xe0;" d="M10 276q0 90 30.5 171t86.5 137q121 121 336 121q120 0 244 -46l4 17q12 58 12 86q0 112 -162 112q-126 0 -262 -57l-63 283q190 71 399 71q222 0 338.5 -87t116.5 -246q0 -76 -29 -199l-154 -639h-362l26 113q-66 -68 -132 -102t-148 -34q-129 0 -205 82.5t-76 216.5z M367 322q0 -50 25.5 -79.5t72.5 -29.5q66 0 115 55t67 135l19 80q-69 25 -123 25q-79 0 -123 -47q-53 -53 -53 -139zM387 1507l334 113l127 -369h-238z" />
<glyph unicode="&#xe1;" d="M10 276q0 90 30.5 171t86.5 137q121 121 336 121q120 0 244 -46l4 17q12 58 12 86q0 112 -162 112q-126 0 -262 -57l-63 283q190 71 399 71q222 0 338.5 -87t116.5 -246q0 -76 -29 -199l-154 -639h-362l26 113q-66 -68 -132 -102t-148 -34q-129 0 -205 82.5t-76 216.5z M367 322q0 -50 25.5 -79.5t72.5 -29.5q66 0 115 55t67 135l19 80q-69 25 -123 25q-79 0 -123 -47q-53 -53 -53 -139zM592 1251l301 369l321 -113l-346 -256h-276z" />
<glyph unicode="&#xe2;" d="M10 276q0 90 30.5 171t86.5 137q121 121 336 121q120 0 244 -46l4 17q12 58 12 86q0 112 -162 112q-126 0 -262 -57l-63 283q190 71 399 71q222 0 338.5 -87t116.5 -246q0 -76 -29 -199l-154 -639h-362l26 113q-66 -68 -132 -102t-148 -34q-129 0 -205 82.5t-76 216.5z M328 1253l323 332h310l159 -332h-229l-123 131l-184 -131h-256zM367 322q0 -50 25.5 -79.5t72.5 -29.5q66 0 115 55t67 135l19 80q-69 25 -123 25q-79 0 -123 -47q-53 -53 -53 -139z" />
<glyph unicode="&#xe3;" d="M10 276q0 90 30.5 171t86.5 137q121 121 336 121q120 0 244 -46l4 17q12 58 12 86q0 112 -162 112q-126 0 -262 -57l-63 283q190 71 399 71q222 0 338.5 -87t116.5 -246q0 -76 -29 -199l-154 -639h-362l26 113q-66 -68 -132 -102t-148 -34q-129 0 -205 82.5t-76 216.5z M336 1294q54 147 118.5 218t161.5 71q76 0 175 -45q73 -37 110 -37t61.5 22t53.5 72l180 -55q-58 -147 -122 -218t-159 -71q-84 0 -176 47q-79 37 -110 37q-37 0 -61.5 -22.5t-51.5 -73.5zM367 322q0 -50 25.5 -79.5t72.5 -29.5q66 0 115 55t67 135l19 80q-69 25 -123 25 q-79 0 -123 -47q-53 -53 -53 -139z" />
<glyph unicode="&#xe4;" d="M10 276q0 90 30.5 171t86.5 137q121 121 336 121q120 0 244 -46l4 17q12 58 12 86q0 112 -162 112q-126 0 -262 -57l-63 283q190 71 399 71q222 0 338.5 -87t116.5 -246q0 -76 -29 -199l-154 -639h-362l26 113q-66 -68 -132 -102t-148 -34q-129 0 -205 82.5t-76 216.5z M367 322q0 -50 25.5 -79.5t72.5 -29.5q66 0 115 55t67 135l19 80q-69 25 -123 25q-79 0 -123 -47q-53 -53 -53 -139zM373 1255l71 287h318l-74 -287h-315zM786 1255l74 287h316l-72 -287h-318z" />
<glyph unicode="&#xe5;" d="M10 276q0 90 30.5 171t86.5 137q121 121 336 121q120 0 244 -46l4 17q12 58 12 86q0 112 -162 112q-126 0 -262 -57l-63 283q190 71 399 71q222 0 338.5 -87t116.5 -246q0 -76 -29 -199l-154 -639h-362l26 113q-66 -68 -132 -102t-148 -34q-129 0 -205 82.5t-76 216.5z M367 322q0 -50 25.5 -79.5t72.5 -29.5q66 0 115 55t67 135l19 80q-69 25 -123 25q-79 0 -123 -47q-53 -53 -53 -139zM545 1466q0 111 77.5 195t194.5 84q102 0 164.5 -61t62.5 -154q0 -113 -77 -196t-195 -83q-102 0 -164.5 61t-62.5 154zM676 1477q0 -51 29 -82t75 -31 q59 0 97 47.5t38 110.5q0 49 -29 79.5t-75 30.5q-59 0 -97 -46t-38 -109z" />
<glyph unicode="&#xe6;" horiz-adv-x="1765" d="M10 281q0 189 117 303q121 121 336 121q120 0 244 -46l4 17q12 56 12 86q0 112 -162 112q-126 0 -262 -57l-63 283q190 71 401 71q234 0 328 -131q160 140 342 140q189 0 298 -125.5t109 -321.5q0 -128 -49 -274h-659v-6q5 -90 51 -139.5t129 -49.5q107 0 223 82 l145 -235q-173 -136 -403 -136q-130 0 -231 51t-158 152q-180 -201 -426 -201q-158 0 -242 82t-84 222zM369 324q0 -51 28 -80t84 -29q51 0 112 35t103 90q-11 74 -8 133q-76 35 -141 35q-83 0 -127 -47q-51 -51 -51 -137zM1034 666h336q12 44 12 92q0 61 -32.5 99t-92.5 38 q-71 0 -133 -59q-59 -62 -90 -170z" />
<glyph unicode="&#xe7;" horiz-adv-x="1048" d="M68 461q0 153 54.5 297t156.5 246q174 174 407 174q283 0 410 -238l-265 -195q-34 60 -69 88.5t-82 28.5q-72 0 -131 -59q-54 -54 -87.5 -145.5t-33.5 -176.5q0 -93 39.5 -142.5t103.5 -49.5q46 0 84 20.5t86 63.5l191 -223q-154 -165 -367 -175h-6l-182 -315l-281 117 l230 239q-123 54 -190.5 169.5t-67.5 275.5z" />
<glyph unicode="&#xe8;" horiz-adv-x="1167" d="M70 475q0 149 56 292t157 243q170 170 405 170q204 0 317 -124.5t113 -322.5q0 -128 -49 -274h-659v-6q5 -90 51 -139.5t129 -49.5q104 0 223 82l145 -235q-173 -136 -399 -136q-231 0 -360 134.5t-129 365.5zM408 1507l333 113l127 -369h-237zM438 666h336q12 44 12 92 q0 61 -32 99t-92 38q-72 0 -134 -59q-59 -62 -90 -170z" />
<glyph unicode="&#xe9;" horiz-adv-x="1167" d="M70 475q0 149 56 292t157 243q170 170 405 170q204 0 317 -124.5t113 -322.5q0 -128 -49 -274h-659v-6q5 -90 51 -139.5t129 -49.5q104 0 223 82l145 -235q-173 -136 -399 -136q-231 0 -360 134.5t-129 365.5zM438 666h336q12 44 12 92q0 61 -32 99t-92 38 q-72 0 -134 -59q-59 -62 -90 -170zM610 1251l301 369l322 -113l-346 -256h-277z" />
<glyph unicode="&#xea;" horiz-adv-x="1167" d="M70 475q0 149 56 292t157 243q170 170 405 170q204 0 317 -124.5t113 -322.5q0 -128 -49 -274h-659v-6q5 -90 51 -139.5t129 -49.5q104 0 223 82l145 -235q-173 -136 -399 -136q-231 0 -360 134.5t-129 365.5zM348 1253l324 332h309l160 -332h-230l-123 131l-184 -131 h-256zM438 666h336q12 44 12 92q0 61 -32 99t-92 38q-72 0 -134 -59q-59 -62 -90 -170z" />
<glyph unicode="&#xeb;" horiz-adv-x="1167" d="M70 475q0 149 56 292t157 243q170 170 405 170q204 0 317 -124.5t113 -322.5q0 -128 -49 -274h-659v-6q5 -90 51 -139.5t129 -49.5q104 0 223 82l145 -235q-173 -136 -399 -136q-231 0 -360 134.5t-129 365.5zM393 1255l72 287h317l-73 -287h-316zM438 666h336 q12 44 12 92q0 61 -32 99t-92 38q-72 0 -134 -59q-59 -62 -90 -170zM807 1255l74 287h315l-72 -287h-317z" />
<glyph unicode="&#xec;" horiz-adv-x="616" d="M-18 0l282 1157h371l-283 -1157h-370zM123 1499l334 113l127 -369h-238z" />
<glyph unicode="&#xed;" horiz-adv-x="616" d="M-18 0l282 1157h371l-283 -1157h-370zM330 1243l301 369l321 -113l-346 -256h-276z" />
<glyph unicode="&#xee;" horiz-adv-x="616" d="M-18 0l282 1157h371l-283 -1157h-370zM66 1245l323 332h309l160 -332h-229l-123 131l-184 -131h-256z" />
<glyph unicode="&#xef;" horiz-adv-x="616" d="M-18 0l282 1157h371l-283 -1157h-370zM111 1247l71 287h318l-74 -287h-315zM524 1247l74 287h315l-71 -287h-318z" />
<glyph unicode="&#xf0;" horiz-adv-x="1251" d="M74 463q0 154 55 307t150 248q141 141 323 141q69 0 122.5 -22.5t102.5 -73.5q-37 100 -104 203l-225 -56l-49 162l159 39q-39 45 -123 129h426l39 -47l215 51l47 -160l-161 -38q135 -240 135 -517q0 -200 -65 -386.5t-181 -301.5q-163 -166 -395 -166 q-220 0 -345.5 131.5t-125.5 356.5zM424 477q0 -93 37 -143.5t106 -50.5q68 0 123 55q52 52 86.5 150.5t34.5 191.5t-37 142.5t-104 49.5q-73 0 -129 -59q-51 -49 -84 -145t-33 -191z" />
<glyph unicode="&#xf1;" horiz-adv-x="1210" d="M-27 0l283 1157h369l-29 -121q132 144 287 144q132 0 207 -79.5t75 -219.5q0 -67 -32 -209l-162 -672h-371l156 643q16 57 16 107q0 98 -98 98q-64 0 -106.5 -46.5t-61.5 -129.5l-162 -672h-371zM365 1294q54 147 118.5 218t161.5 71q75 0 174 -45q73 -37 111 -37 q37 0 61 21.5t53 72.5l181 -55q-58 -147 -122 -218t-159 -71q-84 0 -176 47q-79 37 -111 37q-37 0 -60.5 -22.5t-51.5 -73.5z" />
<glyph unicode="&#xf2;" horiz-adv-x="1236" d="M72 475q0 150 55 293t154 242q170 170 401 170q225 0 355 -138t130 -362q0 -151 -55 -294.5t-154 -242.5q-168 -168 -401 -168q-225 0 -355 138t-130 362zM426 487q0 -98 40 -149t109 -51q71 0 121 53q53 52 85 145.5t32 180.5q0 98 -40 150t-109 52q-68 0 -121 -53 q-52 -52 -84.5 -146.5t-32.5 -181.5zM432 1507l334 113l127 -369h-238z" />
<glyph unicode="&#xf3;" horiz-adv-x="1236" d="M72 475q0 150 55 293t154 242q170 170 401 170q225 0 355 -138t130 -362q0 -151 -55 -294.5t-154 -242.5q-168 -168 -401 -168q-225 0 -355 138t-130 362zM426 487q0 -98 40 -149t109 -51q71 0 121 53q53 52 85 145.5t32 180.5q0 98 -40 150t-109 52q-68 0 -121 -53 q-52 -52 -84.5 -146.5t-32.5 -181.5zM621 1251l301 369l321 -113l-346 -256h-276z" />
<glyph unicode="&#xf4;" horiz-adv-x="1236" d="M72 475q0 150 55 293t154 242q170 170 401 170q225 0 355 -138t130 -362q0 -151 -55 -294.5t-154 -242.5q-168 -168 -401 -168q-225 0 -355 138t-130 362zM373 1253l323 332h310l159 -332h-229l-123 131l-184 -131h-256zM426 487q0 -98 40 -149t109 -51q71 0 121 53 q53 52 85 145.5t32 180.5q0 98 -40 150t-109 52q-68 0 -121 -53q-52 -52 -84.5 -146.5t-32.5 -181.5z" />
<glyph unicode="&#xf5;" horiz-adv-x="1236" d="M72 475q0 150 55 293t154 242q170 170 401 170q225 0 355 -138t130 -362q0 -151 -55 -294.5t-154 -242.5q-168 -168 -401 -168q-225 0 -355 138t-130 362zM381 1294q54 147 119 218t162 71q75 0 174 -45q73 -37 110 -37t61.5 22t53.5 72l180 -55q-58 -148 -121.5 -218.5 t-158.5 -70.5q-85 0 -177 47q-79 37 -110 37q-37 0 -61.5 -22.5t-51.5 -73.5zM426 487q0 -98 40 -149t109 -51q71 0 121 53q53 52 85 145.5t32 180.5q0 98 -40 150t-109 52q-68 0 -121 -53q-52 -52 -84.5 -146.5t-32.5 -181.5z" />
<glyph unicode="&#xf6;" horiz-adv-x="1236" d="M72 475q0 150 55 293t154 242q170 170 401 170q225 0 355 -138t130 -362q0 -151 -55 -294.5t-154 -242.5q-168 -168 -401 -168q-225 0 -355 138t-130 362zM416 1255l71 287h318l-74 -287h-315zM426 487q0 -98 40 -149t109 -51q71 0 121 53q53 52 85 145.5t32 180.5 q0 98 -40 150t-109 52q-68 0 -121 -53q-52 -52 -84.5 -146.5t-32.5 -181.5zM829 1255l74 287h316l-72 -287h-318z" />
<glyph unicode="&#xf7;" horiz-adv-x="1232" d="M125 598l76 303h991l-78 -303h-989zM340 162l78 315h348l-80 -315h-346zM551 1022l82 315h346l-80 -315h-348z" />
<glyph unicode="&#xf8;" horiz-adv-x="1236" d="M-86 -10l219 219q-61 113 -61 266q0 150 55 293t154 242q170 170 401 170q182 0 309 -97l78 80h256l-219 -217q61 -119 61 -266q0 -151 -55 -294.5t-154 -242.5q-168 -168 -401 -168q-184 0 -309 95l-78 -80h-256zM412 469l348 383q-39 31 -92 31q-77 0 -136 -62 q-54 -52 -87 -147.5t-33 -186.5v-18zM475 301q42 -31 96 -31q77 0 136 62q54 54 87 149t33 185v18z" />
<glyph unicode="&#xf9;" horiz-adv-x="1216" d="M57 276q0 73 31 207l162 674h371l-156 -643q-16 -69 -16 -106q0 -99 100 -99q62 0 104 46.5t62 127.5l164 674h368l-280 -1157h-371l29 119q-130 -142 -287 -142q-131 0 -206 80t-75 219zM424 1497l334 113l127 -369h-238z" />
<glyph unicode="&#xfa;" horiz-adv-x="1216" d="M57 276q0 73 31 207l162 674h371l-156 -643q-16 -69 -16 -106q0 -99 100 -99q62 0 104 46.5t62 127.5l164 674h368l-280 -1157h-371l29 119q-130 -142 -287 -142q-131 0 -206 80t-75 219zM627 1241l301 369l321 -113l-346 -256h-276z" />
<glyph unicode="&#xfb;" horiz-adv-x="1216" d="M57 276q0 73 31 207l162 674h371l-156 -643q-16 -69 -16 -106q0 -99 100 -99q62 0 104 46.5t62 127.5l164 674h368l-280 -1157h-371l29 119q-130 -142 -287 -142q-131 0 -206 80t-75 219zM362 1243l324 332h309l160 -332h-229l-123 131l-185 -131h-256z" />
<glyph unicode="&#xfc;" horiz-adv-x="1216" d="M57 276q0 73 31 207l162 674h371l-156 -643q-16 -69 -16 -106q0 -99 100 -99q62 0 104 46.5t62 127.5l164 674h368l-280 -1157h-371l29 119q-130 -142 -287 -142q-131 0 -206 80t-75 219zM406 1245l71 287h318l-74 -287h-315zM819 1245l74 287h315l-71 -287h-318z" />
<glyph unicode="&#xfd;" horiz-adv-x="1183" d="M-51 -233l151 256q66 -52 123 -52q44 0 66 37l-96 1149h372l8 -708l326 708h387l-620 -1153q-98 -180 -197 -256t-244 -76q-156 0 -276 95zM606 1241l301 369l322 -113l-346 -256h-277z" />
<glyph unicode="&#xfe;" horiz-adv-x="1286" d="M-104 -319l452 1859h371l-123 -502q139 142 285 142t243 -117.5t97 -323.5q0 -171 -60 -340.5t-164 -273.5q-145 -145 -329 -145q-196 0 -291 167l-113 -466h-368zM446 479q0 -90 40 -140t108 -50q76 0 133 57q54 55 86.5 146.5t32.5 185.5q0 90 -38.5 141t-111.5 51 q-74 0 -133 -59q-54 -54 -85.5 -147.5t-31.5 -184.5z" />
<glyph unicode="&#xff;" horiz-adv-x="1183" d="M-51 -233l151 256q66 -52 123 -52q44 0 66 37l-96 1149h372l8 -708l326 708h387l-620 -1153q-98 -180 -197 -256t-244 -76q-156 0 -276 95zM387 1245l72 287h317l-74 -287h-315zM801 1245l73 287h316l-72 -287h-317z" />
<glyph unicode="&#x152;" horiz-adv-x="1974" d="M111 600q0 170 66 348.5t192 304.5q238 238 675 238h1047l-82 -330h-600l-57 -254h532l-80 -313h-532l-62 -264h611l-84 -330h-965q-342 0 -516 174q-145 145 -145 426zM498 625q0 -144 69 -213q74 -74 230 -74h41l194 815h-41q-220 0 -342 -125q-71 -71 -111 -185 t-40 -218z" />
<glyph unicode="&#x153;" horiz-adv-x="1898" d="M72 475q0 150 55 293t154 242q170 170 399 170q242 0 360 -181q76 83 176 132t214 49q197 0 307 -125t110 -322q0 -128 -49 -274h-659v-4q5 -91 51 -141t129 -50q107 0 223 82l148 -235q-173 -136 -398 -136q-248 0 -368 172q-73 -79 -168 -125.5t-201 -46.5 q-224 0 -353.5 138t-129.5 362zM426 487q0 -98 40 -149t109 -51q71 0 121 53q53 52 85 145.5t32 180.5q0 98 -40 150t-109 52q-68 0 -121 -53q-52 -52 -84.5 -146.5t-32.5 -181.5zM1167 666h336q13 48 13 92q0 61 -32.5 99t-90.5 38q-74 0 -133 -59q-62 -62 -93 -170z" />
<glyph unicode="&#x178;" horiz-adv-x="1269" d="M199 1491h403l98 -557l367 557h440l-702 -940l-135 -551h-377l139 582zM485 1583l70 277h317l-69 -277h-318zM905 1583l70 277h319l-69 -277h-320z" />
<glyph unicode="&#x2c6;" horiz-adv-x="1101" d="M317 1245l324 332h309l160 -332h-229l-123 131l-185 -131h-256z" />
<glyph unicode="&#x2dc;" horiz-adv-x="1101" d="M324 1286q54 147 118.5 218t161.5 71q75 0 174 -45q73 -37 111 -37q37 0 61.5 22t53.5 72l180 -55q-58 -147 -122 -218t-159 -71q-84 0 -176 47q-79 37 -111 37q-37 0 -60.5 -22.5t-51.5 -73.5z" />
<glyph unicode="&#x2000;" horiz-adv-x="969" />
<glyph unicode="&#x2001;" horiz-adv-x="1939" />
<glyph unicode="&#x2002;" horiz-adv-x="969" />
<glyph unicode="&#x2003;" horiz-adv-x="1939" />
<glyph unicode="&#x2004;" horiz-adv-x="646" />
<glyph unicode="&#x2005;" horiz-adv-x="484" />
<glyph unicode="&#x2006;" horiz-adv-x="323" />
<glyph unicode="&#x2007;" horiz-adv-x="323" />
<glyph unicode="&#x2008;" horiz-adv-x="242" />
<glyph unicode="&#x2009;" horiz-adv-x="387" />
<glyph unicode="&#x200a;" horiz-adv-x="107" />
<glyph unicode="&#x2010;" horiz-adv-x="837" d="M78 498l84 333h641l-84 -333h-641z" />
<glyph unicode="&#x2011;" horiz-adv-x="837" d="M78 498l84 333h641l-84 -333h-641z" />
<glyph unicode="&#x2012;" horiz-adv-x="837" d="M78 498l84 333h641l-84 -333h-641z" />
<glyph unicode="&#x2013;" horiz-adv-x="1085" d="M78 502l82 325h889l-80 -325h-891z" />
<glyph unicode="&#x2014;" horiz-adv-x="1759" d="M78 502l82 325h1564l-82 -325h-1564z" />
<glyph unicode="&#x2018;" horiz-adv-x="634" d="M145 776l82 334q51 199 168 291.5t328 101.5l18 -147q-122 -13 -185.5 -60.5t-82.5 -132.5h158l-96 -387h-390z" />
<glyph unicode="&#x2019;" horiz-adv-x="634" d="M133 911q122 12 186 60t82 133h-157l96 387h389l-82 -334q-51 -199 -167.5 -291.5t-327.5 -101.5z" />
<glyph unicode="&#x201a;" horiz-adv-x="634" d="M-127 -195q122 13 185 61t81 134h-157l96 387h391l-84 -334q-49 -200 -166.5 -293t-327.5 -102z" />
<glyph unicode="&#x201c;" d="M147 774l82 334q51 199 166.5 291.5t323.5 101.5l18 -147q-120 -13 -181 -60t-79 -133h152l-99 -387h-383zM668 774l84 334q49 199 164.5 291.5t324.5 101.5l16 -147q-119 -13 -180.5 -60.5t-79.5 -132.5h152l-96 -387h-385z" />
<glyph unicode="&#x201d;" d="M135 911q120 12 182 59.5t80 133.5h-151l98 387h381l-82 -334q-49 -199 -165 -291.5t-324 -101.5zM655 911q120 12 182.5 59.5t80.5 133.5h-152l96 387h385l-82 -334q-53 -200 -167.5 -292t-323.5 -101z" />
<glyph unicode="&#x201e;" horiz-adv-x="1148" d="M-127 -195q119 13 180.5 61t79.5 134h-151l96 387h385l-84 -334q-49 -199 -165 -292.5t-323 -102.5zM391 -195q120 13 182 61t80 134h-151l98 387h383l-82 -334q-51 -200 -166.5 -293t-324.5 -102z" />
<glyph unicode="&#x2022;" horiz-adv-x="1005" d="M244 662q0 95 35.5 188.5t97.5 157.5q97 94 225 94q118 0 186 -70t68 -190q0 -94 -36 -187t-99 -157q-100 -97 -225 -97q-118 0 -185 70t-67 191z" />
<glyph unicode="&#x2026;" horiz-adv-x="1730" d="M-18 0l96 381h383l-96 -381h-383zM535 0l94 381h385l-96 -381h-383zM1083 0l97 381h383l-95 -381h-385z" />
<glyph unicode="&#x202f;" horiz-adv-x="387" />
<glyph unicode="&#x2039;" horiz-adv-x="737" d="M78 530l18 72l461 463l180 -164l-307 -366l131 -359l-252 -108z" />
<glyph unicode="&#x203a;" horiz-adv-x="737" d="M-6 229l307 367l-131 358l254 109l229 -463l-16 -72l-461 -462z" />
<glyph unicode="&#x205f;" horiz-adv-x="484" />
<glyph unicode="&#x20ac;" horiz-adv-x="1310" d="M45 471l55 219h131q12 74 23 119h-125l53 217h129q66 182 191 307q183 183 452 183q152 0 269 -71t188 -196l-274 -200q-44 69 -93 102t-114 33q-96 0 -164 -68q-45 -45 -70 -94h318l-56 -211h-327q-22 -80 -29 -123h330l-53 -215h-289q12 -84 58.5 -125t117.5 -41 q60 0 107.5 23t103.5 73l201 -245q-183 -183 -433 -183q-226 0 -367.5 133t-158.5 363h-174z" />
<glyph unicode="&#x2122;" horiz-adv-x="1335" d="M213 1339l41 152h496l-39 -152h-164l-121 -508h-168l119 508h-164zM684 831l160 660h172l65 -244l183 244h184l-160 -660h-164l95 398l-197 -258h-8l-74 258l-92 -398h-164z" />
<glyph unicode="&#x25fc;" horiz-adv-x="1157" d="M0 0v1157h1157v-1157h-1157z" />
<glyph unicode="&#xfb01;" horiz-adv-x="1398" d="M31 0l207 854h-117l78 303h114l6 29q44 178 130 264q110 104 313 104q115 0 215 -28l-70 -273q-49 17 -104 17q-53 0 -80.5 -23t-40.5 -71l-4 -23h207l-78 -299h-199l-207 -854h-370zM762 0l285 1157h368l-282 -1157h-371zM1061 1253l78 295h381l-76 -295h-383z" />
<glyph unicode="&#xfb02;" horiz-adv-x="1398" d="M31 0l207 854h-117l78 303h114l6 29q44 178 130 264q110 104 313 104q115 0 215 -28l-70 -273q-49 17 -104 17q-53 0 -80.5 -23t-40.5 -71l-4 -23h207l-78 -299h-199l-207 -854h-370zM762 0l377 1540h370l-376 -1540h-371z" />
<glyph unicode="&#xfb03;" horiz-adv-x="2179" d="M31 0l207 854h-117l78 303h114l6 29q44 178 130 264q110 104 313 104q115 0 215 -28l-70 -273q-49 17 -104 17q-53 0 -80.5 -23t-40.5 -71l-4 -23h207l-78 -299h-199l-207 -854h-370zM811 0l207 854h-117l78 303h115l6 29q44 179 129 264q110 104 313 104q115 0 215 -28 l-69 -273q-49 17 -105 17q-53 0 -80.5 -23t-40.5 -71l-4 -23h207l-78 -299h-198l-207 -854h-371zM1544 0l285 1157h369l-283 -1157h-371zM1843 1253l78 295h381l-76 -295h-383z" />
<glyph unicode="&#xfb04;" horiz-adv-x="2179" d="M31 0l207 854h-117l78 303h114l6 29q44 178 130 264q110 104 313 104q115 0 215 -28l-70 -273q-49 17 -104 17q-53 0 -80.5 -23t-40.5 -71l-4 -23h207l-78 -299h-199l-207 -854h-370zM811 0l207 854h-117l78 303h115l6 29q44 179 129 264q110 104 313 104q115 0 215 -28 l-69 -273q-49 17 -105 17q-53 0 -80.5 -23t-40.5 -71l-4 -23h207l-78 -299h-198l-207 -854h-371zM1544 0l377 1540h371l-377 -1540h-371z" />
</font>
</defs>
</svg>
