<?xml version="1.0" standalone="no"?>
<!DOCTYPE svg PUBLIC "-//W3C//DTD SVG 1.1//EN" "http://www.w3.org/Graphics/SVG/1.1/DTD/svg11.dtd" >
<svg xmlns="http://www.w3.org/2000/svg">
<metadata></metadata>
<defs>
<font id="gotham_narrow_ssmmedium" horiz-adv-x="1210" >
<font-face units-per-em="2048" ascent="1638" descent="-410" />
<missing-glyph horiz-adv-x="520" />
<glyph horiz-adv-x="0" />
<glyph horiz-adv-x="682" />
<glyph unicode=" "  horiz-adv-x="520" />
<glyph unicode="&#x09;" horiz-adv-x="520" />
<glyph unicode="&#xa0;" horiz-adv-x="520" />
<glyph unicode="!" horiz-adv-x="614" d="M170 1411v80h274v-80l-75 -954h-125zM176 0v276h262v-276h-262z" />
<glyph unicode="&#x22;" horiz-adv-x="946" d="M135 862l37 629h258v-12l-182 -617h-113zM551 862l35 629h258v-12l-180 -617h-113z" />
<glyph unicode="#" horiz-adv-x="1320" d="M86 350v203h201l57 391h-192v203h221l51 344h194l-49 -344h299l50 344h192l-49 -344h172v-203h-203l-55 -391h192v-203h-223l-49 -350h-195l52 350h-301l-50 -350h-194l51 350h-172zM477 549h307l58 399h-307z" />
<glyph unicode="$" horiz-adv-x="1212" d="M90 201l131 176q155 -145 318 -172v452q-210 80 -301 178.5t-91 256.5v4q0 159 105.5 266t279.5 127v135h168v-135q205 -24 365 -160l-125 -174q-131 102 -246 129v-434q213 -78 306.5 -181.5t93.5 -260.5v-5q0 -163 -108 -271t-286 -132v-213h-168v213q-258 26 -442 201 zM375 1108q0 -67 35.5 -112.5t128.5 -88.5v381q-78 -13 -122 -62t-42 -116v-2zM694 203q82 15 127 66t45 126v2q0 67 -38 114.5t-134 88.5v-397z" />
<glyph unicode="%" horiz-adv-x="1644" d="M104 1116v14q0 162 89 269.5t229 107.5q138 0 225.5 -106t87.5 -266v-15q0 -162 -89 -269.5t-228 -107.5q-138 0 -226 106.5t-88 266.5zM248 0l518 782l451 709h182l-518 -784l-453 -707h-180zM276 1122q0 -100 41 -162.5t105 -62.5q65 0 103 60.5t38 160.5v10 q0 101 -40 163.5t-105 62.5q-64 0 -103 -62.5t-39 -161.5v-8zM909 356v15q0 162 89 269.5t229 107.5q138 0 225.5 -106.5t87.5 -266.5v-15q0 -162 -88 -269t-229 -107q-138 0 -226 106t-88 266zM1081 362q0 -101 40.5 -163t105.5 -62t103 61.5t38 161.5v9q0 101 -40 163 t-105 62q-64 0 -103 -61.5t-39 -159.5v-11z" />
<glyph unicode="&#x26;" horiz-adv-x="1341" d="M86 393v6q0 274 295 428q-66 94 -96.5 171t-30.5 155v8q0 147 106 251t277 104q160 0 260 -98.5t100 -243.5v-7q0 -133 -77 -228t-222 -165l238 -285q69 122 127 277l182 -78q-82 -217 -172 -356l205 -238l-174 -123l-168 193q-181 -184 -410 -184q-190 0 -315 114.5 t-125 298.5zM324 403q0 -98 63.5 -161.5t163.5 -63.5q137 0 258 131l-303 367q-93 -49 -137.5 -118.5t-44.5 -147.5v-7zM471 1151q0 -57 24 -110t85 -132q206 93 206 248v4q0 72 -43 118t-110 46q-71 0 -116.5 -48.5t-45.5 -121.5v-4z" />
<glyph unicode="'" horiz-adv-x="530" d="M135 862l37 629h260v-12l-182 -617h-115z" />
<glyph unicode="(" horiz-adv-x="864" d="M135 612v2q0 306 138 537.5t405 370.5l92 -154q-206 -131 -304.5 -317.5t-98.5 -438.5v-2q0 -249 98.5 -435.5t304.5 -317.5l-92 -152q-268 140 -405.5 369.5t-137.5 537.5z" />
<glyph unicode=")" horiz-adv-x="864" d="M96 -143q205 133 304.5 318.5t99.5 436.5v2q0 497 -404 754l90 154q268 -141 405.5 -371.5t137.5 -538.5v-2q0 -306 -138 -536.5t-405 -368.5z" />
<glyph unicode="*" horiz-adv-x="860" d="M117 1063l229 100l-229 103l71 125l199 -152l-29 256h144l-29 -256l197 152l73 -125l-229 -103l229 -100l-73 -125l-197 149l29 -253h-144l29 253l-199 -149z" />
<glyph unicode="+" d="M133 643v213h363v367h219v-367h362v-213h-362v-364h-219v364h-363z" />
<glyph unicode="," horiz-adv-x="555" d="M82 -203q184 42 168 203h-105v276h263v-233q0 -161 -74.5 -244t-227.5 -102z" />
<glyph unicode="-" horiz-adv-x="839" d="M127 537v227h588v-227h-588z" />
<glyph unicode="." horiz-adv-x="555" d="M145 0v276h263v-276h-263z" />
<glyph unicode="/" horiz-adv-x="993" d="M-25 -254l816 1935h198l-813 -1935h-201z" />
<glyph unicode="0" horiz-adv-x="1366" d="M121 733v23q0 224 69 396.5t197 268t297 95.5q254 0 407.5 -208.5t153.5 -549.5v-23q0 -224 -69 -396.5t-197 -268t-297 -95.5q-256 0 -408.5 208t-152.5 550zM365 739q0 -251 87 -400t232 -149t231 147.5t86 397.5v17q0 250 -87.5 399t-231.5 149q-145 0 -231 -146.5 t-86 -397.5v-17z" />
<glyph unicode="1" horiz-adv-x="768" d="M66 1386l340 115h167v-1501h-233v1253l-236 -73z" />
<glyph unicode="2" horiz-adv-x="1167" d="M109 0v188l458 494q130 136 180 219.5t50 173.5q0 101 -62.5 160t-159.5 59q-86 0 -155 -46.5t-148 -147.5l-155 143q94 134 208.5 201t270.5 67q196 0 320 -114t124 -301v-6q0 -98 -35 -184t-95.5 -161t-178.5 -196l-309 -334h625v-215h-938z" />
<glyph unicode="3" horiz-adv-x="1165" d="M82 182l147 166q141 -155 324 -155q110 0 181 66.5t71 176.5v6q0 117 -92 180.5t-252 63.5h-74l-31 150l371 440h-573v215h868v-184l-383 -443q83 -13 152.5 -42.5t127.5 -78t90.5 -123.5t32.5 -169v-9q0 -206 -136.5 -336.5t-348.5 -130.5q-288 0 -475 207z" />
<glyph unicode="4" horiz-adv-x="1290" d="M82 498l711 1003h208v-977h189v-200h-189v-324h-225v324h-661zM344 524h432v619z" />
<glyph unicode="5" horiz-adv-x="1179" d="M96 164l137 176q158 -145 320 -145q122 0 197 75.5t75 198.5v4q0 119 -78 189.5t-202 70.5q-114 0 -230 -57l-139 92l41 723h782v-215h-583l-23 -369q109 37 201 37q97 0 180.5 -28.5t148 -84t101.5 -145t37 -203.5v-6q0 -227 -141.5 -364.5t-364.5 -137.5 q-260 0 -459 189z" />
<glyph unicode="6" horiz-adv-x="1253" d="M121 688v14q0 380 151 597t424 217q111 0 200.5 -34.5t178.5 -103.5l-119 -188q-129 106 -266 106q-105 0 -180.5 -69t-111 -177t-38.5 -245h2q129 145 320 145q124 0 225 -51.5t164.5 -159t63.5 -254.5v-4q0 -221 -141.5 -363.5t-352.5 -142.5q-213 0 -346 136 q-86 88 -130 222t-44 355zM371 471q0 -126 73.5 -206.5t194.5 -80.5q119 0 189.5 80t70.5 207v4q0 124 -71.5 199.5t-190.5 75.5t-192.5 -77t-73.5 -198v-4z" />
<glyph unicode="7" horiz-adv-x="1153" d="M131 1274v217h913v-178l-573 -1313h-258l573 1274h-655z" />
<glyph unicode="8" horiz-adv-x="1212" d="M102 401v9q0 252 246 362q-201 115 -201 334v8q0 173 131 285t330 112q197 0 329 -112t132 -285v-8q0 -218 -205 -334q248 -118 248 -358v-11q0 -192 -142.5 -307.5t-361.5 -115.5q-221 0 -363.5 115.5t-142.5 305.5zM336 418q0 -105 74 -173.5t198 -68.5q122 0 196.5 68 t74.5 174v4q0 108 -77.5 175t-193.5 67q-119 0 -195.5 -66.5t-76.5 -175.5v-4zM373 1092q0 -102 66.5 -168t168.5 -66q100 0 167 66t67 168v2q0 97 -66.5 159t-167.5 62q-103 0 -169 -61.5t-66 -159.5v-2z" />
<glyph unicode="9" horiz-adv-x="1253" d="M119 997v4q0 223 139 369t354 146q214 0 346 -138q85 -84 130 -219.5t45 -355.5v-15q0 -383 -154 -598t-420 -215q-212 0 -403 150l118 188q143 -118 287 -118q79 0 142 39t103.5 105.5t62.5 151.5t24 181h-2q-122 -148 -316 -148q-201 0 -328.5 126t-127.5 347z M352 1008q0 -128 72.5 -204.5t191.5 -76.5q120 0 193.5 78.5t73.5 202.5v6q0 130 -74 211.5t-197 81.5q-119 0 -189.5 -83t-70.5 -212v-4z" />
<glyph unicode=":" horiz-adv-x="575" d="M156 0v276h262v-276h-262zM156 850v276h262v-276h-262z" />
<glyph unicode=";" horiz-adv-x="575" d="M92 -203q183 41 170 203h-106v276h262v-233q0 -161 -74 -244t-225 -102zM156 850v276h262v-276h-262z" />
<glyph unicode="&#x3c;" d="M135 645v209l899 444v-233l-663 -313l663 -314v-237z" />
<glyph unicode="=" d="M147 401v220h916v-220h-916zM147 879v221h916v-221h-916z" />
<glyph unicode="&#x3e;" d="M176 201v233l664 314l-664 313v237l899 -444v-209z" />
<glyph unicode="?" horiz-adv-x="1040" d="M53 1309q188 198 439 198q207 0 331.5 -113.5t124.5 -301.5v-2q0 -92 -29.5 -166t-83 -124t-120 -83t-148.5 -51l-20 -209h-156l-35 354l11 10q171 15 258.5 82t87.5 178v4q0 93 -63 150t-167 57q-157 0 -293 -143zM336 0v276h262v-276h-262z" />
<glyph unicode="@" horiz-adv-x="1900" d="M115 547q0 192 65.5 369.5t178.5 309.5t274.5 211t343.5 79q169 0 320.5 -65t257.5 -172.5t167.5 -252t61.5 -299.5q0 -262 -111.5 -422t-279.5 -160q-108 0 -178.5 45.5t-98.5 118.5q-130 -162 -299 -162q-139 0 -232 98t-93 261q0 153 61.5 286t162.5 210t214 77 q174 0 258 -161l24 131l191 -29l-94 -535q-13 -56 -13 -110q0 -64 36.5 -100.5t103.5 -36.5q110 0 188 137t78 354q0 184 -91.5 345.5t-259.5 261.5t-374 100q-166 0 -313 -73t-248.5 -195t-160 -284.5t-58.5 -338.5q0 -229 96.5 -410.5t269.5 -283t391 -101.5 q133 0 242.5 31t220.5 96l37 -63q-232 -142 -504 -142q-176 0 -331 66t-265.5 181t-174.5 278t-64 350zM690 535q0 -105 47 -163.5t133 -58.5t158 72q50 52 82.5 133.5t32.5 165.5q0 97 -48.5 158t-133.5 61q-89 0 -158 -69q-48 -48 -80.5 -133t-32.5 -166z" />
<glyph unicode="A" horiz-adv-x="1468" d="M70 0l551 1501h227l551 -1501h-248l-127 356h-590l-125 -356h-239zM510 567h440l-219 617z" />
<glyph unicode="B" horiz-adv-x="1355" d="M180 0v1491h529q252 0 381 -129q98 -98 98 -250v-4q0 -232 -221 -338q135 -45 209.5 -129.5t74.5 -226.5v-8q0 -192 -142.5 -299t-385.5 -107h-543zM412 211h317q134 0 211.5 57.5t77.5 161.5v4q0 102 -77 159.5t-222 57.5h-307v-440zM412 854h266q128 0 201 56t73 161v2 q0 98 -67.5 152.5t-190.5 54.5h-282v-426z" />
<glyph unicode="C" horiz-adv-x="1347" d="M125 737v15q0 223 86 396.5t237.5 268t342.5 94.5q151 0 261.5 -49t204.5 -141l-145 -184q-153 153 -332 153q-177 0 -294 -149.5t-117 -390.5v-7q0 -243 118.5 -392.5t296.5 -149.5q96 0 175 39.5t161 121.5l144 -169q-105 -105 -220 -159t-270 -54q-142 0 -262 54.5 t-205.5 152.5t-133.5 239.5t-48 310.5z" />
<glyph unicode="D" horiz-adv-x="1462" d="M180 0v1491h453q209 0 369.5 -92.5t247.5 -259.5t87 -383v-19q0 -216 -87 -383.5t-247.5 -260.5t-369.5 -93h-453zM418 215h213q209 0 336 141t127 383v11q0 242 -127 384t-338 142h-211v-1061z" />
<glyph unicode="E" horiz-adv-x="1241" d="M180 0v1491h936v-215h-700v-418h622v-215h-622v-428h710v-215h-946z" />
<glyph unicode="F" horiz-adv-x="1208" d="M180 0v1491h932v-219h-694v-432h614v-219h-614v-621h-238z" />
<glyph unicode="G" horiz-adv-x="1458" d="M125 735v17q0 217 86.5 390t242 271t351.5 98q148 0 258 -41t213 -127l-141 -186q-69 64 -148 98.5t-186 34.5q-186 0 -309 -151.5t-123 -384.5v-13q0 -252 123.5 -399t322.5 -147q161 0 270 84v337h-321v209h549v-665q-233 -180 -510 -180q-302 0 -490 207t-188 548z " />
<glyph unicode="H" horiz-adv-x="1435" d="M180 0v1491h238v-631h600v631h237v-1491h-237v639h-600v-639h-238z" />
<glyph unicode="I" horiz-adv-x="622" d="M193 0v1491h237v-1491h-237z" />
<glyph unicode="J" horiz-adv-x="1040" d="M49 180l152 162q54 -70 109 -104.5t126 -34.5q94 0 149.5 65.5t55.5 192.5v1030h238v-1038q0 -234 -123 -357q-117 -114 -314 -114q-248 0 -393 198z" />
<glyph unicode="K" horiz-adv-x="1363" d="M180 0v1491h238v-748l592 748h284l-520 -643l547 -848h-283l-428 659l-192 -231v-428h-238z" />
<glyph unicode="L" horiz-adv-x="1144" d="M180 0v1491h238v-1272h645v-219h-883z" />
<glyph unicode="M" horiz-adv-x="1636" d="M180 0v1491h248l391 -698l389 698h248v-1491h-233v1071l-404 -702h-6l-401 700v-1069h-232z" />
<glyph unicode="N" horiz-adv-x="1482" d="M180 0v1491h219l672 -1014v1014h232v-1491h-201l-690 1047v-1047h-232z" />
<glyph unicode="O" horiz-adv-x="1566" d="M125 733v21q0 220 83.5 393.5t234 271t341.5 97.5q192 0 342 -97t233 -269.5t83 -391.5v-21q0 -219 -83.5 -392.5t-234.5 -271.5t-342 -98q-192 0 -342 97t-232.5 269.5t-82.5 391.5zM369 739q0 -242 116.5 -393t298.5 -151q181 0 296.5 149.5t115.5 392.5v15 q0 243 -116.5 393.5t-297.5 150.5q-183 0 -298 -149.5t-115 -392.5v-15z" />
<glyph unicode="P" horiz-adv-x="1269" d="M180 0v1491h473q246 0 390.5 -132t144.5 -360v-6q0 -159 -74 -274t-197 -171.5t-280 -58.5h-219v-489h-238zM418 702h221q145 0 228 78.5t83 208.5v2q0 137 -82 211t-229 74h-221v-574z" />
<glyph unicode="Q" horiz-adv-x="1568" d="M125 733v21q0 220 83.5 393.5t234 271t341.5 97.5q192 0 342 -97t233 -269.5t83 -391.5v-21q0 -270 -135 -477l161 -143l-145 -160l-158 149q-165 -131 -383 -131q-192 0 -342 97t-232.5 269.5t-82.5 391.5zM369 737q0 -246 117 -394t302 -148q119 0 213 63l-225 201 l146 159l211 -200q63 129 63 315v21q0 242 -116 392t-298 150q-183 0 -298 -148.5t-115 -389.5v-21z" />
<glyph unicode="R" horiz-adv-x="1361" d="M180 0v1491h537q256 0 397 -141q121 -121 121 -326v-6q0 -167 -84.5 -277.5t-228.5 -158.5l356 -582h-274l-324 532h-262v-532h-238zM418 743h272q147 0 227 72.5t80 194.5v4q0 126 -79.5 194t-223.5 68h-276v-533z" />
<glyph unicode="S" horiz-adv-x="1202" d="M74 195l145 178q195 -176 393 -176q109 0 176.5 54.5t67.5 139.5v4q0 51 -22.5 88t-87 77t-183.5 83q-114 44 -188.5 84t-131.5 92.5t-82.5 119t-25.5 153.5v4q0 182 132 298.5t337 116.5q268 0 465 -176l-135 -182q-167 141 -336 141q-102 0 -163.5 -50t-61.5 -128v-2 q0 -82 62.5 -136.5t250.5 -127.5q216 -82 311 -180.5t95 -257.5v-4q0 -192 -135.5 -310t-346.5 -118q-304 0 -536 215z" />
<glyph unicode="T" horiz-adv-x="1200" d="M86 1272v219h1028v-219h-395v-1272h-238v1272h-395z" />
<glyph unicode="U" horiz-adv-x="1425" d="M162 567v924h237v-922q0 -182 83.5 -277t232.5 -95q148 0 231.5 93.5t83.5 272.5v928h236v-916q0 -291 -149 -444.5t-406 -153.5q-255 0 -402 152t-147 438z" />
<glyph unicode="V" horiz-adv-x="1396" d="M70 1491h256l376 -1143l375 1143h250l-520 -1501h-219z" />
<glyph unicode="W" horiz-adv-x="2078" d="M80 1491h252l299 -1100l309 1104h205l311 -1104l297 1100h246l-436 -1501h-215l-310 1071l-309 -1071h-213z" />
<glyph unicode="X" horiz-adv-x="1361" d="M82 0l459 762l-439 729h271l309 -547l313 547h267l-443 -727l461 -764h-270l-332 580l-332 -580h-264z" />
<glyph unicode="Y" horiz-adv-x="1337" d="M45 1491h270l357 -653l356 653h264l-504 -893v-598h-239v594z" />
<glyph unicode="Z" horiz-adv-x="1294" d="M129 0v176l741 1102h-716v213h1015v-176l-743 -1102h743v-213h-1040z" />
<glyph unicode="[" horiz-adv-x="882" d="M193 -276v1767h567v-178h-352v-1411h352v-178h-567z" />
<glyph unicode="\" horiz-adv-x="993" d="M2 1681h201l815 -1935h-201z" />
<glyph unicode="]" horiz-adv-x="882" d="M125 -98h350v1411h-350v178h567v-1767h-567v178z" />
<glyph unicode="^" horiz-adv-x="1052" d="M168 1063l272 424h172l273 -424h-176l-185 276l-186 -276h-170z" />
<glyph unicode="_" horiz-adv-x="1216" d="M12 -154h1192v-182h-1192v182z" />
<glyph unicode="`" horiz-adv-x="1097" d="M313 1487l207 96l203 -328h-168z" />
<glyph unicode="a" horiz-adv-x="1120" d="M88 324v12q0 174 110.5 267t295.5 93q128 0 260 -47v49q0 116 -65 177t-183 61q-125 0 -273 -70l-67 185q181 88 373 88q217 0 327 -113q113 -110 113 -324v-702h-227v141q-113 -164 -316 -164q-94 0 -172.5 40t-127 120.5t-48.5 186.5zM315 336q0 -84 53 -132t138 -50 q107 0 179.5 64t72.5 161v119q-97 39 -217 39q-106 0 -166 -52t-60 -143v-6z" />
<glyph unicode="b" horiz-adv-x="1265" d="M156 0v1538h229v-596q134 207 336 207q85 0 162.5 -36.5t139.5 -105.5t99 -180t37 -249v-27q0 -138 -36.5 -249.5t-98.5 -181t-139.5 -106.5t-163.5 -37q-203 0 -336 199v-176h-229zM381 553q0 -165 81 -268t195 -103q116 0 192.5 101t76.5 270v18q0 169 -76.5 271 t-192.5 102q-114 0 -195 -103.5t-81 -267.5v-20z" />
<glyph unicode="c" horiz-adv-x="1056" d="M104 549v20q0 253 145 416.5t365 163.5q115 0 201.5 -39.5t161.5 -114.5l-129 -170q-53 55 -107.5 85t-124.5 30q-121 0 -200.5 -105t-79.5 -268v-10q0 -168 80 -270.5t207 -102.5q124 0 231 115l127 -154q-156 -170 -373 -170q-220 0 -362 161t-142 413z" />
<glyph unicode="d" horiz-adv-x="1265" d="M109 549v29q0 138 36.5 248.5t98 180t139 106t164.5 36.5q199 0 332 -199v588h233v-1538h-233v184q-131 -207 -332 -207q-87 0 -164.5 36.5t-139 106t-98 180.5t-36.5 249zM340 555q0 -169 77 -271t191 -102t195.5 103.5t81.5 267.5v20q0 165 -81.5 268t-195.5 103 q-117 0 -192.5 -100.5t-75.5 -270.5v-18z" />
<glyph unicode="e" horiz-adv-x="1146" d="M102 553v14q0 252 137 417t343 165q148 0 254.5 -78t158.5 -210.5t52 -303.5v-82h-713q15 -144 95.5 -223.5t197.5 -79.5q138 0 262 121l123 -143q-164 -175 -396 -175q-220 0 -367 159t-147 419zM332 637h489q-9 143 -71 230t-168 87q-103 0 -170.5 -85.5t-79.5 -231.5z " />
<glyph unicode="f" horiz-adv-x="729" d="M80 928v192h125v90q0 170 86 256q82 82 233 82q84 0 166 -22v-197q-68 21 -117 21q-139 0 -139 -162v-68h256v-192h-254v-928h-231v928h-125z" />
<glyph unicode="g" horiz-adv-x="1265" d="M109 612v6q0 126 35.5 229t96 168t137 99.5t161.5 34.5q202 0 340 -195v172h233v-948q0 -244 -127 -371q-133 -133 -403 -133q-230 0 -428 109l77 180q156 -94 340 -94q151 0 230.5 75t79.5 224v115q-64 -94 -146 -147.5t-196 -53.5q-86 0 -162.5 34.5t-136.5 99.5 t-95.5 167.5t-35.5 228.5zM340 614q0 -151 75.5 -241t190.5 -90q116 0 197.5 91t81.5 238v4q0 148 -81.5 239t-197.5 91q-115 0 -190.5 -90t-75.5 -240v-2z" />
<glyph unicode="h" horiz-adv-x="1187" d="M156 0v1538h229v-577q37 56 75.5 94.5t100 66t135.5 27.5q163 0 255.5 -106t92.5 -289v-754h-231v686q0 123 -53.5 188.5t-153.5 65.5q-99 0 -160 -69.5t-61 -188.5v-682h-229z" />
<glyph unicode="i" horiz-adv-x="565" d="M160 1298v230h246v-230h-246zM166 0v1126h231v-1126h-231z" />
<glyph unicode="j" horiz-adv-x="567" d="M-6 -133q36 -4 59 -4q117 0 117 137v1126h231v-1144q0 -154 -76.5 -232t-222.5 -78q-44 0 -108 11v184zM162 1298v230h248v-230h-248z" />
<glyph unicode="k" horiz-adv-x="1112" d="M156 0v1538h229v-922l397 510h275l-375 -460l387 -666h-266l-281 489l-137 -167v-322h-229z" />
<glyph unicode="l" horiz-adv-x="565" d="M166 0v1538h231v-1538h-231z" />
<glyph unicode="m" horiz-adv-x="1808" d="M156 0v1126h229v-165q57 88 128.5 138t176.5 50q102 0 177 -49t116 -135q137 184 332 184q158 0 252 -104t94 -291v-754h-229v686q0 123 -52 188.5t-147 65.5q-93 0 -151 -68t-58 -190v-682h-231v688q0 122 -51.5 187t-145.5 65q-93 0 -152 -70.5t-59 -187.5v-682h-229z " />
<glyph unicode="n" horiz-adv-x="1187" d="M156 0v1126h229v-165q37 56 75.5 94.5t100 66t135.5 27.5q163 0 255.5 -106t92.5 -289v-754h-231v686q0 123 -53.5 188.5t-153.5 65.5q-99 0 -160 -69.5t-61 -188.5v-682h-229z" />
<glyph unicode="o" horiz-adv-x="1239" d="M104 551v18q0 164 67 296.5t185.5 208t264.5 75.5q223 0 368.5 -164t145.5 -414v-18q0 -248 -147.5 -413t-369.5 -165q-223 0 -368.5 163t-145.5 413zM334 557q0 -162 81.5 -270.5t205.5 -108.5q127 0 205.5 106.5t78.5 270.5v12q0 162 -81.5 269.5t-205.5 107.5 q-127 0 -205.5 -106t-78.5 -269v-12z" />
<glyph unicode="p" horiz-adv-x="1265" d="M156 -322v1448h229v-184q134 207 336 207q85 0 162.5 -36.5t139.5 -105.5t99 -180t37 -249v-27q0 -138 -36.5 -249.5t-98.5 -181t-139.5 -106.5t-163.5 -37q-203 0 -336 199v-498h-229zM381 553q0 -165 81 -268t195 -103q116 0 192.5 101t76.5 270v18q0 169 -76.5 271 t-192.5 102q-114 0 -195 -103.5t-81 -267.5v-20z" />
<glyph unicode="q" horiz-adv-x="1265" d="M109 549v29q0 138 36.5 248.5t98 180t139 106t164.5 36.5q199 0 332 -199v176h233v-1448h-233v506q-131 -207 -332 -207q-87 0 -164.5 36.5t-139 106t-98 180.5t-36.5 249zM340 555q0 -169 77 -271t191 -102t195.5 103.5t81.5 267.5v20q0 165 -81.5 268t-195.5 103 q-117 0 -192.5 -100.5t-75.5 -270.5v-18z" />
<glyph unicode="r" horiz-adv-x="798" d="M156 0v1126h229v-223q48 117 135 182q79 59 186 59q12 0 23 -1v-250h-10q-152 0 -243 -100t-91 -289v-504h-229z" />
<glyph unicode="s" horiz-adv-x="954" d="M61 137l109 164q163 -131 313 -131q75 0 118.5 36t43.5 93v4q0 23 -11.5 44t-27.5 36t-49 33t-60 30t-77 33q-59 26 -97.5 46t-82 50.5t-68.5 62t-42 76.5t-17 99v4q0 148 104 237t266 89q94 0 189.5 -32t173.5 -89l-98 -170q-146 100 -271 100q-68 0 -108.5 -32 t-40.5 -82v-4q0 -22 12 -42.5t28 -35.5t50 -34t59.5 -31t75.5 -34q60 -27 100.5 -49t83 -52.5t67 -62.5t40.5 -76t16 -95v-5q0 -158 -107 -247.5t-274 -89.5q-106 0 -215.5 39t-202.5 118z" />
<glyph unicode="t" horiz-adv-x="790" d="M78 928v198h125v308h231v-308h256v-198h-256v-611q0 -67 31.5 -97t93.5 -30q63 0 129 29v-188q-90 -49 -194 -49q-291 0 -291 290v656h-125z" />
<glyph unicode="u" horiz-adv-x="1187" d="M145 373v753h230v-686q0 -122 54 -188t153 -66t160 69.5t61 188.5v682h231v-1126h-231v166q-119 -189 -309 -189q-163 0 -256 106.5t-93 289.5z" />
<glyph unicode="v" horiz-adv-x="1138" d="M68 1126h243l260 -831l263 831h237l-395 -1134h-213z" />
<glyph unicode="w" horiz-adv-x="1642" d="M76 1126h237l197 -774l215 778h197l213 -780l200 776h232l-320 -1134h-211l-215 768l-217 -768h-211z" />
<glyph unicode="x" horiz-adv-x="1112" d="M70 0l354 573l-340 553h250l225 -385l223 385h244l-340 -551l354 -575h-249l-238 408l-238 -408h-245z" />
<glyph unicode="y" horiz-adv-x="1140" d="M66 1126h243l273 -831l252 831h235l-383 -1142q-58 -171 -133.5 -241.5t-200.5 -70.5q-115 0 -223 60l68 178q63 -39 133 -39q49 0 81.5 28.5t59.5 98.5z" />
<glyph unicode="z" horiz-adv-x="1044" d="M104 0v158l558 776h-537v192h819v-159l-559 -774h559v-193h-840z" />
<glyph unicode="{" horiz-adv-x="946" d="M109 522v180h49q119 0 173 53.5t54 164.5q0 33 -12.5 109.5t-12.5 107.5q0 78 21.5 138t71.5 110.5t138.5 85t215.5 53.5l35 -158q-158 -34 -212.5 -89.5t-54.5 -166.5q0 -36 12.5 -108.5t12.5 -108.5q0 -222 -227 -281q227 -61 227 -280q0 -36 -12.5 -108.5 t-12.5 -108.5q0 -111 54.5 -167.5t212.5 -90.5l-35 -156q-127 19 -215.5 53.5t-138.5 85t-71.5 110.5t-21.5 138q0 32 12.5 108t12.5 107q0 111 -54 165t-173 54h-49z" />
<glyph unicode="|" horiz-adv-x="673" d="M244 -254v1935h186v-1935h-186z" />
<glyph unicode="}" horiz-adv-x="946" d="M104 -143q82 18 134.5 40t82.5 53.5t41 70t11 94.5q0 36 -12.5 108.5t-12.5 108.5q0 219 225 280q-225 61 -225 281q0 36 12.5 108.5t12.5 108.5q0 56 -11 94t-41 69.5t-82.5 53t-134.5 39.5l37 158q126 -19 214 -53.5t138 -85t71.5 -110.5t21.5 -138q0 -31 -11.5 -107.5 t-11.5 -109.5q0 -111 53 -164.5t172 -53.5h50v-180h-50q-119 0 -172 -54t-53 -165q0 -31 11.5 -107t11.5 -108q0 -78 -21.5 -138t-71.5 -110.5t-138 -85t-214 -53.5z" />
<glyph unicode="~" horiz-adv-x="985" d="M133 543q30 124 80.5 183.5t130.5 59.5q70 0 162 -47q80 -41 117 -41q38 0 61.5 24.5t44.5 80.5l125 -39q-30 -124 -81 -184t-132 -60q-70 0 -162 47q-77 41 -117 41q-37 0 -58 -23.5t-42 -80.5z" />
<glyph unicode="&#xa1;" horiz-adv-x="614" d="M170 0v80l74 954h125l75 -954v-80h-274zM176 1214v277h262v-277h-262z" />
<glyph unicode="&#xa2;" horiz-adv-x="1089" d="M113 743v19q0 246 139 407.5t352 169.5l23 164h168l-25 -182q128 -37 225 -137l-129 -166q-65 65 -131 92l-100 -733q69 1 125 30t114 85l123 -152q-157 -170 -383 -170h-2l-24 -182h-168l29 211q-152 55 -244 200.5t-92 343.5zM340 750q0 -117 38 -202.5t105 -129.5 l99 708q-108 -18 -175 -116t-67 -252v-8z" />
<glyph unicode="&#xa3;" d="M127 0v150l152 49v409h-150v201h150v221q0 246 122 365q116 116 312 116q248 0 399 -198l-168 -154q-94 129 -223 129q-83 0 -139 -53q-66 -63 -66 -209v-217h445v-201h-445v-399h590v-209h-979z" />
<glyph unicode="&#xa5;" horiz-adv-x="1298" d="M53 1491h264l334 -643l338 643h258l-426 -758h291v-174h-350v-158h350v-176h-350v-225h-227v225h-347v176h347v158h-347v174h285z" />
<glyph unicode="&#xa7;" horiz-adv-x="1224" d="M117 752v4q0 92 59.5 156t163.5 92q-113 81 -113 204v4q0 135 104.5 217t278.5 82q245 0 416 -157l-121 -148q-133 119 -293 119q-76 0 -118.5 -29.5t-42.5 -76.5v-5q0 -47 55 -83t207 -82q216 -64 306.5 -131.5t90.5 -178.5v-4q0 -92 -60 -156t-165 -92 q114 -81 114 -204v-4q0 -135 -104.5 -217t-278.5 -82q-249 0 -415 157l121 148q133 -119 290 -119q79 0 121.5 29t42.5 77v4q0 50 -55.5 85.5t-206.5 80.5q-215 63 -306 131.5t-91 178.5zM328 780q0 -49 52 -85t171 -72q124 -41 184 -41q69 0 116.5 35.5t47.5 89.5v4 q0 50 -52 86t-173 71q-124 41 -185 41q-69 0 -115 -35.5t-46 -89.5v-4z" />
<glyph unicode="&#xa8;" horiz-adv-x="1097" d="M250 1257v232h231v-232h-231zM616 1257v232h232v-232h-232z" />
<glyph unicode="&#xa9;" horiz-adv-x="1603" d="M111 731v27q0 208 90.5 382t249.5 275t352 101q194 0 352.5 -100.5t248 -273.5t89.5 -382v-25q0 -209 -90.5 -383.5t-249.5 -275.5t-352 -101t-351.5 100.5t-248.5 274t-90 381.5zM188 731q0 -189 78.5 -344.5t219 -245.5t315.5 -90q176 0 317 91t219 247t78 346v25 q0 189 -77.5 344t-218 245.5t-316.5 90.5q-131 0 -246 -53.5t-195.5 -144.5t-127 -217t-46.5 -267v-27zM461 745v13q0 183 102 299.5t258 116.5q82 0 140.5 -26t115.5 -77l-86 -110q-81 77 -172 77t-151 -76.5t-60 -201.5v-10q0 -127 60.5 -204t152.5 -77q52 0 91 20t85 62 l84 -100q-57 -59 -120 -87t-146 -28q-155 0 -254.5 113.5t-99.5 295.5z" />
<glyph unicode="&#xaa;" horiz-adv-x="774" d="M119 621v108h516v-108h-516zM127 1049v8q0 97 60 147.5t163 50.5q65 0 139 -24v22q0 59 -35.5 91t-97.5 32q-73 0 -149 -39l-41 111q100 49 209 49q121 0 184 -63q59 -56 59 -181v-385h-131v74q-64 -84 -170 -84q-80 0 -135 51.5t-55 139.5zM258 1055q0 -42 27.5 -67 t70.5 -25q58 0 95.5 33t37.5 85v60q-57 22 -112 22q-56 0 -87.5 -26.5t-31.5 -73.5v-8z" />
<glyph unicode="&#xab;" horiz-adv-x="1191" d="M100 553v16l340 463l164 -86l-250 -383l252 -383l-166 -90zM573 553v16l342 463l164 -86l-252 -383l252 -383l-164 -90z" />
<glyph unicode="&#xad;" horiz-adv-x="839" d="M127 537v227h588v-227h-588z" />
<glyph unicode="&#xae;" horiz-adv-x="806" d="M63 1133v14q0 156 98 262.5t242 106.5q146 0 243 -106.5t97 -262.5v-12q0 -155 -99 -263t-241 -108q-146 0 -243 106.5t-97 262.5zM106 1133q0 -138 84.5 -233t212.5 -95q126 0 211.5 96t85.5 234v12q0 139 -84.5 233.5t-212.5 94.5t-212.5 -95t-84.5 -233v-14zM266 950 v393h150q68 0 108.5 -32.5t40.5 -93.5v-3q0 -85 -78 -116l91 -148h-99l-76 129h-53v-129h-84zM350 1151h62q32 0 49.5 15.5t17.5 43.5v2q0 27 -18 43t-49 15h-62v-119z" />
<glyph unicode="&#xaf;" horiz-adv-x="1097" d="M231 1276v166h635v-166h-635z" />
<glyph unicode="&#xb0;" horiz-adv-x="901" d="M137 1153v10q0 144 93 242t221 98q131 0 223 -97.5t92 -242.5v-10q0 -145 -92.5 -243.5t-222.5 -98.5q-128 0 -221 99t-93 243zM281 1155q0 -90 48 -148.5t122 -58.5q75 0 123.5 58t48.5 149v6q0 91 -48.5 150t-123.5 59q-74 0 -122 -59t-48 -150v-6z" />
<glyph unicode="&#xb1;" d="M143 23v198h924v-198h-924zM143 752v209h357v356h213l-2 -356h356v-209h-356l2 -357h-213v357h-357z" />
<glyph unicode="&#xb2;" horiz-adv-x="778" d="M113 924v123l264 258q72 69 100.5 109.5t28.5 84.5q0 51 -34 81t-87 30q-49 0 -91 -27.5t-89 -81.5l-92 88q64 79 128.5 117.5t155.5 38.5q114 0 185 -64.5t71 -167.5q0 -74 -33 -132t-116 -136l-199 -190h352v-131h-544z" />
<glyph unicode="&#xb3;" horiz-adv-x="778" d="M94 1022l80 106q92 -92 201 -92q56 0 95.5 34.5t39.5 88.5q0 59 -48.5 90t-133.5 31h-62l-18 92l217 223h-328v131h506v-112l-223 -225q105 -11 170 -68t65 -158q0 -115 -78 -186.5t-202 -71.5q-160 0 -281 117z" />
<glyph unicode="&#xb4;" horiz-adv-x="1097" d="M369 1255l202 328l207 -96l-241 -232h-168z" />
<glyph unicode="&#xb5;" horiz-adv-x="1275" d="M156 -322v1448h229v-686q0 -117 59.5 -186.5t157.5 -69.5q99 0 159 70t60 186v686h230v-821q0 -65 27 -94t83 -29q39 0 66 8v-184q-74 -20 -140 -20q-181 0 -231 149q-86 -151 -242 -151q-82 0 -151.5 43.5t-104.5 126.5h-4q27 -138 27 -260v-216h-225z" />
<glyph unicode="&#xb6;" horiz-adv-x="1077" d="M88 1004v4q0 228 149.5 355.5t393.5 127.5h270v-1491h-237v518h-27q-117 2 -216.5 34t-174 91.5t-116.5 152t-42 208.5z" />
<glyph unicode="&#xb7;" horiz-adv-x="563" d="M150 512v276h262v-276h-262z" />
<glyph unicode="&#xb8;" horiz-adv-x="1097" d="M319 -238l185 273h164l-144 -357z" />
<glyph unicode="&#xb9;" horiz-adv-x="636" d="M104 1645l220 92h112v-813h-145v657l-158 -63z" />
<glyph unicode="&#xba;" horiz-adv-x="774" d="M106 1171v13q0 137 80 227t203 90q121 0 201 -89t80 -224v-14q0 -136 -80.5 -226t-202.5 -90q-123 0 -202 89t-79 224zM117 621v108h540v-108h-540zM242 1176q0 -85 41 -142t106 -57q64 0 103.5 56.5t39.5 140.5v10q0 84 -40.5 139t-104.5 55q-66 0 -105.5 -53.5 t-39.5 -138.5v-10z" />
<glyph unicode="&#xbb;" horiz-adv-x="1191" d="M113 176l252 383l-252 383l161 90l344 -463v-16l-344 -463zM584 942l166 90l342 -463v-16l-342 -463l-164 86l254 383z" />
<glyph unicode="&#xbc;" horiz-adv-x="1611" d="M119 1411l219 90h113v-813h-146v658l-158 -64zM268 0l469 774l420 717h137l-469 -774l-419 -717h-138zM893 297l346 514h162v-526h98v-119h-98v-170h-133v170h-361zM1024 283h246v364h-4z" />
<glyph unicode="&#xbd;" horiz-adv-x="1611" d="M119 1411l219 90h113v-813h-146v658l-158 -64zM242 0l469 774l419 717h138l-469 -774l-420 -717h-137zM936 0v123l264 258q72 69 100.5 109.5t28.5 84.5q0 51 -34 81t-87 30q-49 0 -91 -27t-89 -81l-92 88q64 78 129 116.5t156 38.5q114 0 185 -64t71 -167 q0 -74 -33 -132t-117 -136l-199 -191h353v-131h-545z" />
<glyph unicode="&#xbe;" horiz-adv-x="1751" d="M106 786l80 107q96 -92 201 -92q56 0 95.5 34t39.5 89q0 59 -48.5 89.5t-133.5 30.5h-61l-19 95l217 221h-327v131h505v-111l-223 -227q105 -11 170.5 -68t65.5 -159q0 -114 -78.5 -185t-202.5 -71q-165 0 -281 116zM401 0l469 774l420 717h137l-469 -774l-419 -717h-138 zM1036 297l346 514h162v-526h98v-119h-98v-170h-133v170h-360zM1167 283h246v364h-4z" />
<glyph unicode="&#xbf;" horiz-adv-x="1040" d="M90 399v2q0 92 30 166t83.5 124t120 83t147.5 51l23 209h155l35 -354l-10 -10q-171 -15 -258.5 -82t-87.5 -178v-4q0 -93 62.5 -150t166.5 -57q157 0 293 143l137 -160q-191 -198 -440 -198q-206 0 -331.5 114t-125.5 301zM442 1214v277h260v-277h-260z" />
<glyph unicode="&#xc0;" horiz-adv-x="1468" d="M70 0l551 1501h227l551 -1501h-248l-127 356h-590l-125 -356h-239zM403 1810l209 95l215 -289h-178zM510 567h440l-219 617z" />
<glyph unicode="&#xc1;" horiz-adv-x="1468" d="M70 0l551 1501h227l551 -1501h-248l-127 356h-590l-125 -356h-239zM510 567h440l-219 617zM635 1616l215 289l211 -95l-246 -194h-180z" />
<glyph unicode="&#xc2;" horiz-adv-x="1468" d="M70 0l551 1501h227l551 -1501h-248l-127 356h-590l-125 -356h-239zM399 1612l226 268h213l225 -268h-191l-143 119l-143 -119h-187zM510 567h440l-219 617z" />
<glyph unicode="&#xc3;" horiz-adv-x="1468" d="M70 0l551 1501h227l551 -1501h-248l-127 356h-590l-125 -356h-239zM381 1638q32 123 80 181.5t127 58.5q70 0 170 -47q10 -4 31 -11.5t31 -11t24 -7t24 -3.5q36 0 57.5 21.5t43.5 72.5l133 -37q-32 -123 -80 -181t-129 -58q-62 0 -166 45q-88 35 -115 35q-35 0 -56 -21 t-42 -73zM510 567h440l-219 617z" />
<glyph unicode="&#xc4;" horiz-adv-x="1468" d="M70 0l551 1501h227l551 -1501h-248l-127 356h-590l-125 -356h-239zM422 1620v221h235v-221h-235zM510 567h440l-219 617zM809 1620v221h235v-221h-235z" />
<glyph unicode="&#xc5;" horiz-adv-x="1468" d="M70 0l516 1417q-82 62 -82 162q0 90 67.5 149.5t161.5 59.5q97 0 163.5 -59t66.5 -150q0 -101 -84 -162l520 -1417h-248l-127 356h-590l-125 -356h-239zM510 567h440l-219 617zM610 1579q0 -48 35 -80.5t88 -32.5q54 0 89.5 32.5t35.5 80.5q0 50 -35.5 82.5t-89.5 32.5 t-88.5 -32.5t-34.5 -82.5z" />
<glyph unicode="&#xc6;" horiz-adv-x="1935" d="M37 0l706 1491h1067v-215h-667v-418h590v-215h-590v-428h676v-215h-914v356h-461l-168 -356h-239zM543 567h362v709h-37z" />
<glyph unicode="&#xc7;" horiz-adv-x="1347" d="M125 737v15q0 223 86 396.5t237.5 268t342.5 94.5q151 0 261.5 -49t204.5 -141l-145 -184q-153 153 -332 153q-177 0 -294 -149.5t-117 -390.5v-7q0 -243 118.5 -392.5t296.5 -149.5q96 0 175 39.5t161 121.5l144 -169q-98 -98 -205 -151.5t-246 -59.5l-121 -304l-205 84 l156 232q-236 45 -377 244.5t-141 498.5z" />
<glyph unicode="&#xc8;" horiz-adv-x="1241" d="M180 0v1491h936v-215h-700v-418h622v-215h-622v-428h710v-215h-946zM324 1796l208 94l216 -288h-179z" />
<glyph unicode="&#xc9;" horiz-adv-x="1241" d="M180 0v1491h936v-215h-700v-418h622v-215h-622v-428h710v-215h-946zM553 1602l215 288l211 -94l-246 -194h-180z" />
<glyph unicode="&#xca;" horiz-adv-x="1241" d="M180 0v1491h936v-215h-700v-418h622v-215h-622v-428h710v-215h-946zM319 1604l226 268h213l225 -268h-190l-144 118l-143 -118h-187z" />
<glyph unicode="&#xcb;" horiz-adv-x="1241" d="M180 0v1491h936v-215h-700v-418h622v-215h-622v-428h710v-215h-946zM340 1606v221h235v-221h-235zM727 1606v221h236v-221h-236z" />
<glyph unicode="&#xcc;" horiz-adv-x="622" d="M-16 1796l209 94l215 -288h-179zM193 0v1491h237v-1491h-237z" />
<glyph unicode="&#xcd;" horiz-adv-x="622" d="M193 0v1491h237v-1491h-237zM215 1602l215 288l211 -94l-246 -194h-180z" />
<glyph unicode="&#xce;" horiz-adv-x="622" d="M-20 1604l225 268h213l225 -268h-190l-144 118l-143 -118h-186zM193 0v1491h237v-1491h-237z" />
<glyph unicode="&#xcf;" horiz-adv-x="622" d="M2 1606v221h236v-221h-236zM193 0v1491h237v-1491h-237zM389 1606v221h236v-221h-236z" />
<glyph unicode="&#xd0;" horiz-adv-x="1511" d="M90 643v213h139v635h451q209 0 370.5 -92.5t250 -259.5t88.5 -383v-19q0 -216 -88.5 -383.5t-250 -260.5t-370.5 -93h-451v643h-139zM467 215h213q211 0 337 140.5t126 383.5v11q0 242 -126.5 384t-336.5 142h-213v-420h307v-213h-307v-428z" />
<glyph unicode="&#xd1;" horiz-adv-x="1482" d="M180 0v1491h219l672 -1014v1014h232v-1491h-201l-690 1047v-1047h-232zM387 1620q32 123 80 181.5t127 58.5q68 0 170 -48q7 -3 30.5 -11.5t32 -11t23 -6t24.5 -3.5q36 0 57.5 21.5t43.5 72.5l133 -37q-32 -123 -80 -181.5t-129 -58.5q-62 0 -166 45q-87 35 -115 35 q-35 0 -56 -21t-42 -73z" />
<glyph unicode="&#xd2;" horiz-adv-x="1566" d="M125 733v21q0 220 83.5 393.5t234 271t341.5 97.5q192 0 342 -97t233 -269.5t83 -391.5v-21q0 -219 -83.5 -392.5t-234.5 -271.5t-342 -98q-192 0 -342 97t-232.5 269.5t-82.5 391.5zM369 739q0 -242 116.5 -393t298.5 -151q181 0 296.5 149.5t115.5 392.5v15 q0 243 -116.5 393.5t-297.5 150.5q-183 0 -298 -149.5t-115 -392.5v-15zM453 1810l209 95l215 -289h-179z" />
<glyph unicode="&#xd3;" horiz-adv-x="1566" d="M125 733v21q0 220 83.5 393.5t234 271t341.5 97.5q192 0 342 -97t233 -269.5t83 -391.5v-21q0 -219 -83.5 -392.5t-234.5 -271.5t-342 -98q-192 0 -342 97t-232.5 269.5t-82.5 391.5zM369 739q0 -242 116.5 -393t298.5 -151q181 0 296.5 149.5t115.5 392.5v15 q0 243 -116.5 393.5t-297.5 150.5q-183 0 -298 -149.5t-115 -392.5v-15zM686 1616l215 289l211 -95l-246 -194h-180z" />
<glyph unicode="&#xd4;" horiz-adv-x="1566" d="M125 733v21q0 220 83.5 393.5t234 271t341.5 97.5q192 0 342 -97t233 -269.5t83 -391.5v-21q0 -219 -83.5 -392.5t-234.5 -271.5t-342 -98q-192 0 -342 97t-232.5 269.5t-82.5 391.5zM369 739q0 -242 116.5 -393t298.5 -151q181 0 296.5 149.5t115.5 392.5v15 q0 243 -116.5 393.5t-297.5 150.5q-183 0 -298 -149.5t-115 -392.5v-15zM451 1618l225 268h213l225 -268h-190l-144 119l-143 -119h-186z" />
<glyph unicode="&#xd5;" horiz-adv-x="1566" d="M125 733v21q0 220 83.5 393.5t234 271t341.5 97.5q192 0 342 -97t233 -269.5t83 -391.5v-21q0 -219 -83.5 -392.5t-234.5 -271.5t-342 -98q-192 0 -342 97t-232.5 269.5t-82.5 391.5zM369 739q0 -242 116.5 -393t298.5 -151q181 0 296.5 149.5t115.5 392.5v15 q0 243 -116.5 393.5t-297.5 150.5q-183 0 -298 -149.5t-115 -392.5v-15zM428 1638q32 123 80 181.5t127 58.5q70 0 170 -47q10 -4 31 -11.5t31 -11t24 -7t24 -3.5q36 0 57.5 21.5t43.5 72.5l133 -37q-32 -123 -80 -181t-129 -58q-62 0 -166 45q-88 35 -115 35q-35 0 -56 -21 t-42 -73z" />
<glyph unicode="&#xd6;" horiz-adv-x="1566" d="M125 733v21q0 220 83.5 393.5t234 271t341.5 97.5q192 0 342 -97t233 -269.5t83 -391.5v-21q0 -219 -83.5 -392.5t-234.5 -271.5t-342 -98q-192 0 -342 97t-232.5 269.5t-82.5 391.5zM369 739q0 -242 116.5 -393t298.5 -151q181 0 296.5 149.5t115.5 392.5v15 q0 243 -116.5 393.5t-297.5 150.5q-183 0 -298 -149.5t-115 -392.5v-15zM471 1620v221h236v-221h-236zM858 1620v221h236v-221h-236z" />
<glyph unicode="&#xd7;" d="M152 434l313 314l-313 315l153 145l301 -313l303 313l150 -141l-314 -315l314 -316l-154 -145l-301 315l-301 -315z" />
<glyph unicode="&#xd8;" horiz-adv-x="1566" d="M115 -12l168 231q-158 207 -158 514v21q0 219 83.5 392.5t234 271.5t341.5 98q211 0 371 -119l84 106h213l-172 -229q162 -211 162 -516v-21q0 -219 -83.5 -392.5t-234.5 -271.5t-342 -98q-209 0 -372 119l-82 -106h-213zM367 739q0 -187 67 -321l590 794 q-105 91 -242 91q-184 0 -299.5 -151t-115.5 -396v-17zM541 279q105 -91 243 -91q184 0 300 151t116 396v17q0 186 -70 323z" />
<glyph unicode="&#xd9;" horiz-adv-x="1425" d="M162 567v924h237v-922q0 -182 83.5 -277t232.5 -95q148 0 231.5 93.5t83.5 272.5v928h236v-916q0 -291 -149 -444.5t-406 -153.5q-255 0 -402 152t-147 438zM383 1792l209 94l215 -289h-178z" />
<glyph unicode="&#xda;" horiz-adv-x="1425" d="M162 567v924h237v-922q0 -182 83.5 -277t232.5 -95q148 0 231.5 93.5t83.5 272.5v928h236v-916q0 -291 -149 -444.5t-406 -153.5q-255 0 -402 152t-147 438zM614 1597l215 289l211 -94l-245 -195h-181z" />
<glyph unicode="&#xdb;" horiz-adv-x="1425" d="M162 567v924h237v-922q0 -182 83.5 -277t232.5 -95q148 0 231.5 93.5t83.5 272.5v928h236v-916q0 -291 -149 -444.5t-406 -153.5q-255 0 -402 152t-147 438zM381 1599l225 269h213l225 -269h-190l-143 119l-144 -119h-186z" />
<glyph unicode="&#xdc;" horiz-adv-x="1425" d="M162 567v924h237v-922q0 -182 83.5 -277t232.5 -95q148 0 231.5 93.5t83.5 272.5v928h236v-916q0 -291 -149 -444.5t-406 -153.5q-255 0 -402 152t-147 438zM401 1602v221h236v-221h-236zM788 1602v221h236v-221h-236z" />
<glyph unicode="&#xdd;" horiz-adv-x="1337" d="M45 1491h270l357 -653l356 653h264l-504 -893v-598h-239v594zM571 1597l215 289l211 -94l-245 -195h-181z" />
<glyph unicode="&#xde;" horiz-adv-x="1277" d="M180 0v1491h238v-231h235q246 0 390.5 -132.5t144.5 -361.5v-4q0 -160 -74 -276.5t-197 -173t-280 -56.5h-219v-256h-238zM418 469h221q144 0 227.5 79t83.5 208v4q0 137 -81.5 209.5t-229.5 72.5h-221v-573z" />
<glyph unicode="&#xdf;" horiz-adv-x="1196" d="M156 0v1073q0 220 121 348.5t331 128.5q189 0 300.5 -108.5t111.5 -272.5v-8q0 -239 -225 -362q63 -23 114.5 -54.5t93.5 -76.5t65.5 -107.5t23.5 -136.5v-8q0 -199 -139 -311t-384 -109v182q142 8 218.5 70t76.5 174v4q0 104 -78.5 169.5t-216.5 86.5v160 q222 109 222 301v2q0 95 -53 151t-140 56q-97 0 -155 -73t-58 -198v-1081h-229z" />
<glyph unicode="&#xe0;" horiz-adv-x="1120" d="M88 324v12q0 174 110.5 267t295.5 93q128 0 260 -47v49q0 116 -65 177t-183 61q-125 0 -273 -70l-67 185q181 88 373 88q217 0 327 -113q113 -110 113 -324v-702h-227v141q-113 -164 -316 -164q-94 0 -172.5 40t-127 120.5t-48.5 186.5zM244 1487l207 96l202 -328h-168z M315 336q0 -84 53 -132t138 -50q107 0 179.5 64t72.5 161v119q-97 39 -217 39q-106 0 -166 -52t-60 -143v-6z" />
<glyph unicode="&#xe1;" horiz-adv-x="1120" d="M88 324v12q0 174 110.5 267t295.5 93q128 0 260 -47v49q0 116 -65 177t-183 61q-125 0 -273 -70l-67 185q181 88 373 88q217 0 327 -113q113 -110 113 -324v-702h-227v141q-113 -164 -316 -164q-94 0 -172.5 40t-127 120.5t-48.5 186.5zM315 336q0 -84 53 -132t138 -50 q107 0 179.5 64t72.5 161v119q-97 39 -217 39q-106 0 -166 -52t-60 -143v-6zM467 1255l203 328l207 -96l-242 -232h-168z" />
<glyph unicode="&#xe2;" horiz-adv-x="1120" d="M88 324v12q0 174 110.5 267t295.5 93q128 0 260 -47v49q0 116 -65 177t-183 61q-125 0 -273 -70l-67 185q181 88 373 88q217 0 327 -113q113 -110 113 -324v-702h-227v141q-113 -164 -316 -164q-94 0 -172.5 40t-127 120.5t-48.5 186.5zM242 1255l217 299h205l217 -299 h-176l-146 142l-145 -142h-172zM315 336q0 -84 53 -132t138 -50q107 0 179.5 64t72.5 161v119q-97 39 -217 39q-106 0 -166 -52t-60 -143v-6z" />
<glyph unicode="&#xe3;" horiz-adv-x="1120" d="M88 324v12q0 174 110.5 267t295.5 93q128 0 260 -47v49q0 116 -65 177t-183 61q-125 0 -273 -70l-67 185q181 88 373 88q217 0 327 -113q113 -110 113 -324v-702h-227v141q-113 -164 -316 -164q-94 0 -172.5 40t-127 120.5t-48.5 186.5zM215 1276q32 128 78 186t127 58 q58 0 158 -47q88 -39 114 -39q37 0 57.5 22t41.5 78l129 -37q-32 -128 -78 -186t-127 -58q-66 0 -158 47q-88 39 -115 39q-36 0 -56 -22t-42 -78zM315 336q0 -84 53 -132t138 -50q107 0 179.5 64t72.5 161v119q-97 39 -217 39q-106 0 -166 -52t-60 -143v-6z" />
<glyph unicode="&#xe4;" horiz-adv-x="1120" d="M88 324v12q0 174 110.5 267t295.5 93q128 0 260 -47v49q0 116 -65 177t-183 61q-125 0 -273 -70l-67 185q181 88 373 88q217 0 327 -113q113 -110 113 -324v-702h-227v141q-113 -164 -316 -164q-94 0 -172.5 40t-127 120.5t-48.5 186.5zM262 1257v232h232v-232h-232z M315 336q0 -84 53 -132t138 -50q107 0 179.5 64t72.5 161v119q-97 39 -217 39q-106 0 -166 -52t-60 -143v-6zM629 1257v232h231v-232h-231z" />
<glyph unicode="&#xe5;" horiz-adv-x="1120" d="M88 324v12q0 174 110.5 267t295.5 93q128 0 260 -47v49q0 116 -65 177t-183 61q-125 0 -273 -70l-67 185q181 88 373 88q217 0 327 -113q113 -110 113 -324v-702h-227v141q-113 -164 -316 -164q-94 0 -172.5 40t-127 120.5t-48.5 186.5zM315 336q0 -84 53 -132t138 -50 q107 0 179.5 64t72.5 161v119q-97 39 -217 39q-106 0 -166 -52t-60 -143v-6zM336 1468q0 92 65.5 157t159.5 65t159.5 -64.5t65.5 -157.5q0 -92 -65.5 -156.5t-159.5 -64.5t-159.5 64.5t-65.5 156.5zM434 1468q0 -54 37.5 -92.5t89.5 -38.5t89.5 38.5t37.5 92.5t-37.5 92.5 t-89.5 38.5t-89.5 -38.5t-37.5 -92.5z" />
<glyph unicode="&#xe6;" horiz-adv-x="1785" d="M88 328v8q0 174 109.5 267t294.5 93q124 0 256 -47v49q0 115 -63.5 176.5t-180.5 61.5q-123 0 -271 -72l-67 189q180 86 366 86q260 0 351 -174q62 87 149.5 135.5t192.5 48.5q145 0 251 -78.5t159 -211t53 -302.5q0 -49 -2 -82h-713q15 -144 94.5 -223.5t198.5 -79.5 q144 0 262 121l123 -143q-167 -175 -396 -175q-122 0 -224.5 54t-168.5 153q-178 -205 -403 -205q-161 0 -266 95t-105 256zM315 336q0 -83 53.5 -131.5t135.5 -48.5q161 0 282 163q-28 84 -34 179q-100 39 -213 39q-105 0 -164.5 -51.5t-59.5 -141.5v-8zM971 637h489 q-8 142 -70.5 229.5t-168.5 87.5q-103 0 -170.5 -85t-79.5 -232z" />
<glyph unicode="&#xe7;" horiz-adv-x="1056" d="M104 549v20q0 253 145 416.5t365 163.5q115 0 201.5 -39.5t161.5 -114.5l-129 -170q-53 55 -107.5 85t-124.5 30q-121 0 -200.5 -105t-79.5 -268v-10q0 -168 80 -270.5t207 -102.5q124 0 231 115l127 -154q-144 -158 -338 -168l-119 -299l-205 84l156 232 q-167 45 -269 195t-102 360z" />
<glyph unicode="&#xe8;" horiz-adv-x="1146" d="M102 553v14q0 252 137 417t343 165q148 0 254.5 -78t158.5 -210.5t52 -303.5v-82h-713q15 -144 95.5 -223.5t197.5 -79.5q138 0 262 121l123 -143q-164 -175 -396 -175q-220 0 -367 159t-147 419zM262 1487l207 96l203 -328h-168zM332 637h489q-9 143 -71 230t-168 87 q-103 0 -170.5 -85.5t-79.5 -231.5z" />
<glyph unicode="&#xe9;" horiz-adv-x="1146" d="M102 553v14q0 252 137 417t343 165q148 0 254.5 -78t158.5 -210.5t52 -303.5v-82h-713q15 -144 95.5 -223.5t197.5 -79.5q138 0 262 121l123 -143q-164 -175 -396 -175q-220 0 -367 159t-147 419zM332 637h489q-9 143 -71 230t-168 87q-103 0 -170.5 -85.5t-79.5 -231.5z M485 1255l203 328l207 -96l-242 -232h-168z" />
<glyph unicode="&#xea;" horiz-adv-x="1146" d="M102 553v14q0 252 137 417t343 165q148 0 254.5 -78t158.5 -210.5t52 -303.5v-82h-713q15 -144 95.5 -223.5t197.5 -79.5q138 0 262 121l123 -143q-164 -175 -396 -175q-220 0 -367 159t-147 419zM258 1255l217 299h205l217 -299h-176l-146 142l-145 -142h-172zM332 637 h489q-9 143 -71 230t-168 87q-103 0 -170.5 -85.5t-79.5 -231.5z" />
<glyph unicode="&#xeb;" horiz-adv-x="1146" d="M102 553v14q0 252 137 417t343 165q148 0 254.5 -78t158.5 -210.5t52 -303.5v-82h-713q15 -144 95.5 -223.5t197.5 -79.5q138 0 262 121l123 -143q-164 -175 -396 -175q-220 0 -367 159t-147 419zM279 1257v232h231v-232h-231zM332 637h489q-9 143 -71 230t-168 87 q-103 0 -170.5 -85.5t-79.5 -231.5zM645 1257v232h232v-232h-232z" />
<glyph unicode="&#xec;" horiz-adv-x="565" d="M-35 1487l207 96l203 -328h-168zM166 0v1126h231v-1126h-231z" />
<glyph unicode="&#xed;" horiz-adv-x="565" d="M166 0v1126h231v-1126h-231zM193 1255l202 328l207 -96l-242 -232h-167z" />
<glyph unicode="&#xee;" horiz-adv-x="565" d="M-35 1255l217 299h205l217 -299h-176l-145 142l-146 -142h-172zM166 0v1126h231v-1126h-231z" />
<glyph unicode="&#xef;" horiz-adv-x="565" d="M-14 1257v232h231v-232h-231zM166 0v1126h231v-1126h-231zM352 1257v232h232v-232h-232z" />
<glyph unicode="&#xf0;" horiz-adv-x="1239" d="M104 559v21q0 158 62 284.5t162 194t217 67.5q78 0 139.5 -26t122.5 -76q-61 119 -189 260l-221 -76l-55 131l168 58q-59 57 -162 141h297q49 -46 72 -70l211 74l51 -131l-156 -55q310 -357 310 -735v-19q0 -282 -142.5 -454.5t-376.5 -172.5q-219 0 -364.5 165 t-145.5 419zM334 555q0 -161 80 -269t204 -108q128 0 206.5 105.5t78.5 269.5v12q0 164 -81.5 267.5t-209.5 103.5q-126 0 -202 -104t-76 -267v-10z" />
<glyph unicode="&#xf1;" horiz-adv-x="1187" d="M156 0v1126h229v-165q37 56 75.5 94.5t100 66t135.5 27.5q163 0 255.5 -106t92.5 -289v-754h-231v686q0 123 -53.5 188.5t-153.5 65.5q-99 0 -160 -69.5t-61 -188.5v-682h-229zM254 1276q32 128 78 186t127 58q57 0 157 -47q88 -39 115 -39q36 0 56 22t42 78l129 -37 q-32 -128 -78 -186t-126 -58q-66 0 -158 47q-88 39 -115 39q-36 0 -56 -22t-42 -78z" />
<glyph unicode="&#xf2;" horiz-adv-x="1239" d="M104 551v18q0 164 67 296.5t185.5 208t264.5 75.5q223 0 368.5 -164t145.5 -414v-18q0 -248 -147.5 -413t-369.5 -165q-223 0 -368.5 163t-145.5 413zM303 1487l207 96l203 -328h-168zM334 557q0 -162 81.5 -270.5t205.5 -108.5q127 0 205.5 106.5t78.5 270.5v12 q0 162 -81.5 269.5t-205.5 107.5q-127 0 -205.5 -106t-78.5 -269v-12z" />
<glyph unicode="&#xf3;" horiz-adv-x="1239" d="M104 551v18q0 164 67 296.5t185.5 208t264.5 75.5q223 0 368.5 -164t145.5 -414v-18q0 -248 -147.5 -413t-369.5 -165q-223 0 -368.5 163t-145.5 413zM334 557q0 -162 81.5 -270.5t205.5 -108.5q127 0 205.5 106.5t78.5 270.5v12q0 162 -81.5 269.5t-205.5 107.5 q-127 0 -205.5 -106t-78.5 -269v-12zM524 1255l203 328l207 -96l-242 -232h-168z" />
<glyph unicode="&#xf4;" horiz-adv-x="1239" d="M104 551v18q0 164 67 296.5t185.5 208t264.5 75.5q223 0 368.5 -164t145.5 -414v-18q0 -248 -147.5 -413t-369.5 -165q-223 0 -368.5 163t-145.5 413zM299 1255l217 299h205l217 -299h-176l-146 142l-145 -142h-172zM334 557q0 -162 81.5 -270.5t205.5 -108.5 q127 0 205.5 106.5t78.5 270.5v12q0 162 -81.5 269.5t-205.5 107.5q-127 0 -205.5 -106t-78.5 -269v-12z" />
<glyph unicode="&#xf5;" horiz-adv-x="1239" d="M104 551v18q0 164 67 296.5t185.5 208t264.5 75.5q223 0 368.5 -164t145.5 -414v-18q0 -248 -147.5 -413t-369.5 -165q-223 0 -368.5 163t-145.5 413zM274 1276q32 128 78 186t127 58q58 0 158 -47q88 -39 115 -39q36 0 56 22t42 78l129 -37q-32 -128 -78 -186t-127 -58 q-66 0 -158 47q-88 39 -114 39q-37 0 -57.5 -22t-41.5 -78zM334 557q0 -162 81.5 -270.5t205.5 -108.5q127 0 205.5 106.5t78.5 270.5v12q0 162 -81.5 269.5t-205.5 107.5q-127 0 -205.5 -106t-78.5 -269v-12z" />
<glyph unicode="&#xf6;" horiz-adv-x="1239" d="M104 551v18q0 164 67 296.5t185.5 208t264.5 75.5q223 0 368.5 -164t145.5 -414v-18q0 -248 -147.5 -413t-369.5 -165q-223 0 -368.5 163t-145.5 413zM319 1257v232h232v-232h-232zM334 557q0 -162 81.5 -270.5t205.5 -108.5q127 0 205.5 106.5t78.5 270.5v12 q0 162 -81.5 269.5t-205.5 107.5q-127 0 -205.5 -106t-78.5 -269v-12zM686 1257v232h232v-232h-232z" />
<glyph unicode="&#xf7;" d="M135 647v205h940v-205h-940zM479 219v250h252v-250h-252zM479 1030v250h252v-250h-252z" />
<glyph unicode="&#xf8;" horiz-adv-x="1239" d="M78 -12l143 184q-117 158 -117 379v18q0 249 148 414.5t369 165.5q156 0 284 -88l62 76h194l-145 -187q119 -161 119 -379v-18q0 -164 -67 -296t-185.5 -207t-264.5 -75q-160 0 -284 88l-62 -75h-194zM328 557q0 -112 39 -201l415 535q-75 59 -164 59 q-131 0 -210.5 -107.5t-79.5 -273.5v-12zM459 231q69 -57 162 -57q130 0 211 108t81 273v10q0 114 -41 201z" />
<glyph unicode="&#xf9;" horiz-adv-x="1187" d="M145 373v753h230v-686q0 -122 54 -188t153 -66t160 69.5t61 188.5v682h231v-1126h-231v166q-119 -189 -309 -189q-163 0 -256 106.5t-93 289.5zM272 1487l207 96l203 -328h-168z" />
<glyph unicode="&#xfa;" horiz-adv-x="1187" d="M145 373v753h230v-686q0 -122 54 -188t153 -66t160 69.5t61 188.5v682h231v-1126h-231v166q-119 -189 -309 -189q-163 0 -256 106.5t-93 289.5zM494 1255l202 328l207 -96l-241 -232h-168z" />
<glyph unicode="&#xfb;" horiz-adv-x="1187" d="M145 373v753h230v-686q0 -122 54 -188t153 -66t160 69.5t61 188.5v682h231v-1126h-231v166q-119 -189 -309 -189q-163 0 -256 106.5t-93 289.5zM268 1255l217 299h205l217 -299h-176l-145 142l-146 -142h-172z" />
<glyph unicode="&#xfc;" horiz-adv-x="1187" d="M145 373v753h230v-686q0 -122 54 -188t153 -66t160 69.5t61 188.5v682h231v-1126h-231v166q-119 -189 -309 -189q-163 0 -256 106.5t-93 289.5zM289 1257v232h231v-232h-231zM655 1257v232h232v-232h-232z" />
<glyph unicode="&#xfd;" horiz-adv-x="1140" d="M66 1126h243l273 -831l252 831h235l-383 -1142q-58 -171 -133.5 -241.5t-200.5 -70.5q-115 0 -223 60l68 178q63 -39 133 -39q49 0 81.5 28.5t59.5 98.5zM479 1255l203 328l207 -96l-242 -232h-168z" />
<glyph unicode="&#xfe;" horiz-adv-x="1265" d="M156 -322v1860h229v-596q134 207 334 207q86 0 164 -37t140 -106.5t99 -180t37 -247.5v-27q0 -137 -36.5 -248.5t-98.5 -181.5t-140.5 -107t-164.5 -37q-201 0 -334 199v-498h-229zM381 553q0 -165 81 -268t195 -103q115 0 192 101.5t77 269.5v18q0 167 -77.5 270 t-191.5 103t-195 -103.5t-81 -267.5v-20z" />
<glyph unicode="&#xff;" horiz-adv-x="1140" d="M66 1126h243l273 -831l252 831h235l-383 -1142q-58 -171 -133.5 -241.5t-200.5 -70.5q-115 0 -223 60l68 178q63 -39 133 -39q49 0 81.5 28.5t59.5 98.5zM272 1257v232h232v-232h-232zM639 1257v232h231v-232h-231z" />
<glyph unicode="&#x152;" horiz-adv-x="2031" d="M125 735v19q0 216 88 383.5t249 260.5t369 93h1076v-215h-670v-418h592v-215h-592v-428h678v-215h-1084q-209 0 -369.5 92.5t-248.5 259.5t-88 383zM369 741q0 -241 126.5 -383.5t335.5 -142.5h170v1061h-170q-211 0 -336.5 -140.5t-125.5 -383.5v-11z" />
<glyph unicode="&#x153;" horiz-adv-x="1943" d="M104 551v18q0 248 147.5 414t364.5 166q123 0 224 -61t164 -166q62 107 159 167t215 60q147 0 254 -78.5t159 -211t52 -302.5q0 -49 -2 -82h-711q17 -145 95.5 -224t195.5 -79q147 0 265 121l120 -143q-167 -175 -393 -175q-128 0 -235.5 61.5t-173.5 170.5 q-63 -107 -166.5 -169.5t-227.5 -62.5q-214 0 -360 164t-146 412zM334 557q0 -162 80 -270.5t202 -108.5q126 0 202.5 106.5t76.5 270.5v12q0 162 -79.5 269.5t-201.5 107.5q-126 0 -203 -106.5t-77 -268.5v-12zM1126 637h492q-9 142 -72.5 229.5t-169.5 87.5 q-102 0 -169.5 -85t-80.5 -232z" />
<glyph unicode="&#x178;" horiz-adv-x="1337" d="M45 1491h270l357 -653l356 653h264l-504 -893v-598h-239v594zM358 1602v221h236v-221h-236zM745 1602v221h236v-221h-236z" />
<glyph unicode="&#x2c6;" horiz-adv-x="1097" d="M229 1255l217 299h205l217 -299h-176l-145 142l-146 -142h-172z" />
<glyph unicode="&#x2dc;" horiz-adv-x="1097" d="M197 1276q32 128 78 186t126 58q58 0 158 -47q88 -39 115 -39q36 0 56 22t42 78l129 -37q-32 -128 -78 -186t-127 -58q-65 0 -157 47q-88 39 -115 39q-36 0 -56 -22t-42 -78z" />
<glyph unicode="&#x2000;" horiz-adv-x="952" />
<glyph unicode="&#x2001;" horiz-adv-x="1905" />
<glyph unicode="&#x2002;" horiz-adv-x="952" />
<glyph unicode="&#x2003;" horiz-adv-x="1905" />
<glyph unicode="&#x2004;" horiz-adv-x="635" />
<glyph unicode="&#x2005;" horiz-adv-x="476" />
<glyph unicode="&#x2006;" horiz-adv-x="317" />
<glyph unicode="&#x2007;" horiz-adv-x="317" />
<glyph unicode="&#x2008;" horiz-adv-x="238" />
<glyph unicode="&#x2009;" horiz-adv-x="381" />
<glyph unicode="&#x200a;" horiz-adv-x="105" />
<glyph unicode="&#x2010;" horiz-adv-x="839" d="M127 537v227h588v-227h-588z" />
<glyph unicode="&#x2011;" horiz-adv-x="839" d="M127 537v227h588v-227h-588z" />
<glyph unicode="&#x2012;" horiz-adv-x="839" d="M127 537v227h588v-227h-588z" />
<glyph unicode="&#x2013;" horiz-adv-x="1099" d="M127 539v223h844v-223h-844z" />
<glyph unicode="&#x2014;" horiz-adv-x="1781" d="M127 539v223h1528v-223h-1528z" />
<glyph unicode="&#x2018;" horiz-adv-x="557" d="M137 922v233q0 160 74.5 242.5t226.5 103.5l27 -100q-186 -45 -170 -203h106v-276h-264z" />
<glyph unicode="&#x2019;" horiz-adv-x="557" d="M92 1012q183 41 170 202h-106v277h264v-234q0 -160 -75 -243.5t-228 -102.5z" />
<glyph unicode="&#x201a;" horiz-adv-x="567" d="M84 -203q192 41 176 203h-106v276h264v-233q0 -160 -75.5 -242.5t-231.5 -103.5z" />
<glyph unicode="&#x201c;" horiz-adv-x="1005" d="M137 922v233q0 160 74.5 242.5t226.5 103.5l27 -100q-186 -45 -170 -203h106v-276h-264zM586 922v233q0 160 74.5 242.5t228.5 103.5l24 -100q-186 -45 -170 -203h107v-276h-264z" />
<glyph unicode="&#x201d;" horiz-adv-x="1005" d="M92 1012q183 41 170 202h-106v277h264v-234q0 -160 -75 -243.5t-228 -102.5zM541 1012q183 41 170 202h-107v277h264v-234q0 -160 -75 -243.5t-228 -102.5z" />
<glyph unicode="&#x201e;" horiz-adv-x="1019" d="M84 -203q192 41 176 203h-106v276h264v-233q0 -160 -75.5 -242.5t-231.5 -103.5zM537 -203q192 42 176 203h-107v276h264v-233q0 -160 -75.5 -242.5t-231.5 -103.5z" />
<glyph unicode="&#x2022;" horiz-adv-x="978" d="M215 743v15q0 126 79 207.5t195 81.5q115 0 195 -82t80 -207v-15q0 -124 -80 -206t-195 -82q-117 0 -195.5 81.5t-78.5 206.5z" />
<glyph unicode="&#x2026;" horiz-adv-x="1611" d="M150 0v270h258v-270h-258zM676 0v270h258v-270h-258zM1204 0v270h258v-270h-258z" />
<glyph unicode="&#x202f;" horiz-adv-x="381" />
<glyph unicode="&#x2039;" horiz-adv-x="718" d="M100 553v16l340 463l164 -86l-250 -383l252 -383l-166 -90z" />
<glyph unicode="&#x203a;" horiz-adv-x="718" d="M113 176l252 383l-252 383l161 90l344 -463v-16l-344 -463z" />
<glyph unicode="&#x205f;" horiz-adv-x="476" />
<glyph unicode="&#x20ac;" horiz-adv-x="1343" d="M102 489v168h152q-2 25 -2 78v17q0 30 4 92h-154v170h179q55 230 199 366.5t347 135.5q142 0 240 -56t182 -164l-159 -149q-56 74 -117.5 112.5t-147.5 38.5q-104 0 -183.5 -75t-117.5 -209h408v-170h-436q-4 -62 -4 -90v-15q0 -55 2 -82h438v-168h-412 q38 -144 120.5 -221t193.5 -75q83 0 144.5 40.5t121.5 118.5l151 -141q-84 -114 -185.5 -175t-236.5 -61q-210 0 -355.5 137.5t-197.5 376.5h-174z" />
<glyph unicode="&#x2122;" horiz-adv-x="1327" d="M61 1380v111h459v-111h-170v-549h-119v549h-170zM643 831v660h127l166 -299l168 299h125v-660h-115v465l-174 -313h-10l-172 313v-465h-115z" />
<glyph unicode="&#x25fc;" horiz-adv-x="1126" d="M0 0v1126h1126v-1126h-1126z" />
<glyph unicode="&#xfb01;" horiz-adv-x="1265" d="M80 928v192h125v90q0 170 86 256q82 82 233 82q84 0 166 -22v-197q-68 21 -117 21q-139 0 -139 -162v-68h256v-192h-254v-928h-231v928h-125zM860 1298v230h246v-230h-246zM866 0v1126h232v-1126h-232z" />
<glyph unicode="&#xfb02;" horiz-adv-x="1265" d="M80 928v192h125v90q0 170 86 256q82 82 233 82q84 0 166 -22v-197q-68 21 -117 21q-139 0 -139 -162v-68h256v-192h-254v-928h-231v928h-125zM866 0v1538h232v-1538h-232z" />
<glyph unicode="&#xfb03;" horiz-adv-x="1964" d="M80 928v192h125v90q0 170 86 256q82 82 233 82q84 0 166 -22v-197q-68 21 -117 21q-139 0 -139 -162v-68h256v-192h-254v-928h-231v928h-125zM778 928v192h125v90q0 170 86 256q82 82 234 82q83 0 166 -22v-197q-68 21 -117 21q-139 0 -139 -162v-68h256v-192h-254v-928 h-232v928h-125zM1559 1298v230h245v-230h-245zM1565 0v1126h231v-1126h-231z" />
<glyph unicode="&#xfb04;" horiz-adv-x="1964" d="M80 928v192h125v90q0 170 86 256q82 82 233 82q84 0 166 -22v-197q-68 21 -117 21q-139 0 -139 -162v-68h256v-192h-254v-928h-231v928h-125zM778 928v192h125v90q0 170 86 256q82 82 234 82q83 0 166 -22v-197q-68 21 -117 21q-139 0 -139 -162v-68h256v-192h-254v-928 h-232v928h-125zM1565 0v1538h231v-1538h-231z" />
</font>
</defs>
</svg>
