<?xml version="1.0" standalone="no"?>
<!DOCTYPE svg PUBLIC "-//W3C//DTD SVG 1.1//EN" "http://www.w3.org/Graphics/SVG/1.1/DTD/svg11.dtd" >
<svg xmlns="http://www.w3.org/2000/svg">
<metadata></metadata>
<defs>
<font id="gotham_narrow_ssmxLtIt" horiz-adv-x="1169" >
<font-face units-per-em="2048" ascent="1638" descent="-410" />
<missing-glyph horiz-adv-x="546" />
<glyph horiz-adv-x="0" />
<glyph horiz-adv-x="682" />
<glyph unicode=" "  horiz-adv-x="546" />
<glyph unicode="&#x09;" horiz-adv-x="546" />
<glyph unicode="&#xa0;" horiz-adv-x="546" />
<glyph unicode="!" horiz-adv-x="505" d="M61 0l39 158h117l-39 -158h-117zM193 389l202 936l41 166h96l-38 -166l-256 -936h-45z" />
<glyph unicode="&#x22;" horiz-adv-x="751" d="M223 958l170 533h105l-2 -12l-228 -521h-45zM535 958l170 533h104l-2 -12l-227 -521h-45z" />
<glyph unicode="#" horiz-adv-x="1286" d="M92 406l17 79h227l160 527h-240l20 80h244l119 399h80l-121 -399h393l121 399h80l-121 -399h221l-18 -80h-227l-160 -527h239l-16 -79h-246l-123 -406h-77l122 406h-395l-121 -406h-80l123 406h-221zM416 485h393l160 527h-396z" />
<glyph unicode="$" horiz-adv-x="1177" d="M18 233l64 58q137 -172 356 -207l160 653q-169 83 -245.5 170t-76.5 203q0 159 125.5 271t323.5 112q39 0 59 -2l33 129h78l-35 -141q187 -39 322 -174l-60 -62q-122 126 -286 160l-150 -612q167 -86 242.5 -173.5t75.5 -211.5q0 -169 -129 -289.5t-343 -120.5 q-7 0 -21.5 1t-21.5 1l-51 -207h-78l54 213q-247 44 -396 229zM367 1114q0 -90 59 -157.5t195 -135.5l145 592q-8 0 -23.5 1t-23.5 1h-2q-158 0 -255 -88.5t-95 -212.5zM510 76h37q172 0 271 97.5t97 232.5q0 93 -57 163t-192 138z" />
<glyph unicode="%" horiz-adv-x="1579" d="M139 0l672 766l633 725h94l-670 -766l-632 -725h-97zM213 1051q0 102 38 197.5t103 158.5q95 98 221 98q113 0 184.5 -82t71.5 -213q0 -101 -38 -197t-103 -161q-98 -98 -221 -98q-114 0 -185 82.5t-71 214.5zM295 1055q0 -103 47.5 -164.5t130.5 -61.5q88 0 158 70 q53 56 85 138.5t32 168.5q0 103 -48 164.5t-131 61.5q-82 0 -155 -70q-55 -56 -87 -138t-32 -169zM848 281q0 101 37 197t100 161q105 98 225 98q113 0 183.5 -82.5t70.5 -214.5q0 -102 -37.5 -197t-101.5 -159q-98 -98 -223 -98q-113 0 -183.5 81.5t-70.5 213.5zM930 285 q0 -103 47.5 -164.5t130.5 -61.5t156 70q54 56 86 138t32 169q0 104 -48 165t-132 61q-83 0 -153 -70q-56 -56 -87.5 -137.5t-31.5 -169.5z" />
<glyph unicode="&#x26;" horiz-adv-x="1320" d="M78 336q0 354 471 514q-100 186 -100 309q0 150 101 252t249 102q137 0 220 -79.5t83 -200.5q0 -138 -107.5 -242.5t-332.5 -181.5l276 -463q106 139 213 354l70 -36q-137 -251 -240 -381l162 -265l-68 -43l-149 246q-111 -119 -224 -179t-249 -60q-162 0 -268.5 97.5 t-106.5 256.5zM168 348q0 -130 80.5 -209.5t212.5 -79.5q216 0 424 224l-297 503q-205 -68 -312.5 -178.5t-107.5 -259.5zM537 1161q0 -123 88 -289q391 124 391 357q0 91 -60.5 150t-160.5 59q-109 0 -183.5 -81t-74.5 -196z" />
<glyph unicode="'" horiz-adv-x="432" d="M223 958l170 533h105l-2 -12l-228 -521h-45z" />
<glyph unicode="(" horiz-adv-x="813" d="M182 436q0 234 86.5 441t247.5 370q177 174 424 277l29 -62q-233 -102 -385 -254q-154 -154 -234 -356t-80 -414q0 -214 76 -376t211 -300l-49 -49q-326 311 -326 723z" />
<glyph unicode=")" horiz-adv-x="813" d="M-125 -225q233 102 385 254q155 154 234 355.5t79 414.5q0 147 -40 276t-99.5 220t-146.5 180l49 49q326 -311 326 -723q0 -234 -86.5 -441t-247.5 -370q-177 -174 -424 -277z" />
<glyph unicode="*" horiz-adv-x="858" d="M283 1139l260 59l-205 172l55 53l174 -196l49 266l72 -16l-82 -258l244 92l22 -72l-258 -59l203 -172l-55 -54l-172 195l-49 -266l-72 16l82 260l-246 -92z" />
<glyph unicode="+" d="M184 711l19 80h401l101 405h83l-102 -405h399l-18 -80h-401l-101 -408h-82l101 408h-400z" />
<glyph unicode="," horiz-adv-x="442" d="M-59 -158q63 23 95.5 60.5t43.5 97.5h-51l41 158h116l-34 -142q-24 -98 -67.5 -145t-129.5 -74z" />
<glyph unicode="-" horiz-adv-x="811" d="M162 588l22 88h504l-20 -88h-506z" />
<glyph unicode="." horiz-adv-x="444" d="M31 0l39 158h116l-39 -158h-116z" />
<glyph unicode="/" horiz-adv-x="944" d="M-193 -252l1305 1931h90l-1306 -1931h-89z" />
<glyph unicode="0" horiz-adv-x="1331" d="M170 489q0 231 83.5 475t225.5 386q160 163 363 163q200 0 307.5 -138t107.5 -376q0 -230 -82.5 -473t-224.5 -385q-164 -164 -366 -164q-199 0 -306.5 138t-107.5 374zM260 492q0 -200 84 -317.5t244 -117.5q157 0 293 133q129 131 207.5 362t78.5 447q0 199 -84 317 t-243 118q-156 0 -293 -134q-129 -131 -208 -362t-79 -446z" />
<glyph unicode="1" horiz-adv-x="657" d="M193 0l339 1393l-268 -101l2 88l309 119h72l-366 -1499h-88z" />
<glyph unicode="2" horiz-adv-x="1110" d="M-20 0l14 63l739 689q138 133 197 227t59 195q0 112 -78.5 182.5t-214.5 70.5q-190 0 -360 -184l-60 57q191 211 426 211q170 0 274.5 -94.5t104.5 -238.5q0 -84 -35.5 -164t-92.5 -149t-156 -163l-666 -618h752l-21 -84h-882z" />
<glyph unicode="3" horiz-adv-x="1116" d="M12 209l68 49q126 -199 369 -199q181 0 298 111t117 279q0 81 -34 141t-92 93.5t-124.5 49.5t-142.5 17h-31l-10 49l598 608h-694l22 84h815l-14 -61l-602 -615q181 -16 291 -109.5t110 -252.5q0 -92 -35 -177t-100 -149q-67 -69 -165 -109.5t-214 -40.5 q-144 0 -253.5 61.5t-176.5 170.5z" />
<glyph unicode="4" horiz-adv-x="1206" d="M66 432l995 1069h78l-256 -1061h202l-16 -75h-205l-92 -365h-82l90 365h-708zM176 440h623l219 910z" />
<glyph unicode="5" horiz-adv-x="1132" d="M35 195l67 53q135 -193 363 -193q127 0 228 65t153.5 167t52.5 219q0 152 -90 230.5t-234 78.5q-142 0 -280 -72l-55 41l213 707h684l-23 -84h-606l-172 -565q48 22 118.5 37.5t125.5 15.5q186 0 298.5 -101.5t112.5 -287.5q0 -106 -39.5 -205.5t-111.5 -169.5 q-157 -154 -379 -154q-141 0 -249.5 60t-176.5 158z" />
<glyph unicode="6" horiz-adv-x="1208" d="M166 463q0 230 84.5 482t228.5 396q172 172 387 172q212 0 357 -161l-62 -60q-126 140 -301 140q-172 0 -317 -142q-101 -103 -171 -262.5t-98 -345.5q64 108 169.5 175t238.5 67q185 0 294 -113.5t109 -286.5q0 -114 -42 -222t-119 -185q-140 -140 -342 -140 q-86 0 -160 30t-127 83q-129 126 -129 373zM262 406q0 -166 92 -261q93 -90 236 -90q154 0 268 111q66 66 101.5 162t35.5 194q0 142 -85 231t-238 89q-168 0 -285 -117q-61 -61 -93 -146t-32 -173z" />
<glyph unicode="7" horiz-adv-x="1073" d="M137 0l899 1407h-735l21 84h833l-16 -68l-903 -1423h-99z" />
<glyph unicode="8" horiz-adv-x="1196" d="M90 352q0 164 112.5 284t295.5 152q-90 38 -144.5 120t-54.5 188q0 82 34 158t93.5 132.5t145.5 90.5t184 34q179 0 293 -98t114 -258q0 -150 -97.5 -260t-252.5 -143q103 -43 169.5 -134t66.5 -206q0 -179 -142 -305.5t-360 -126.5q-203 0 -329 104.5t-128 267.5z M178 362q0 -137 102.5 -220t270.5 -83q183 0 295 103.5t112 255.5q0 134 -99.5 223.5t-264.5 89.5q-181 0 -298.5 -110.5t-117.5 -258.5zM387 1090q0 -120 85.5 -203.5t223.5 -83.5q168 0 273.5 104t105.5 244q0 125 -89.5 203t-231.5 78q-162 0 -264.5 -101t-102.5 -241z " />
<glyph unicode="9" horiz-adv-x="1206" d="M68 152l59 61q138 -154 317 -154q171 0 316 142q103 103 172 259.5t96 338.5q-62 -108 -167.5 -177t-242.5 -69q-186 0 -293.5 114t-107.5 291q0 117 43 226.5t121 187.5q141 141 342 141q175 0 287 -112q127 -127 127 -373q0 -231 -84 -482.5t-228 -395.5 q-173 -173 -387 -173q-215 0 -370 175zM307 961q0 -147 84.5 -236.5t239.5 -89.5q166 0 280 117q64 65 97.5 151.5t33.5 179.5q0 169 -94 263q-90 90 -231 90q-160 0 -268 -111q-66 -66 -103 -164t-39 -200z" />
<glyph unicode=":" horiz-adv-x="460" d="M39 0l39 158h117l-37 -158h-119zM266 928l39 157h117l-39 -157h-117z" />
<glyph unicode=";" horiz-adv-x="460" d="M-37 -135q59 23 85 53.5t34 81.5l-39 16l47 142l100 -15q-1 -3 -6.5 -23t-11.5 -39.5t-12.5 -41.5t-12 -36t-8.5 -15q-21 -84 -58.5 -122.5t-115.5 -64.5q3 5 2 16t-3 27t-1 21zM264 928l39 157h117l-37 -157h-119z" />
<glyph unicode="&#x3c;" horiz-adv-x="1173" d="M182 717l17 65l952 453l-23 -102l-837 -390l641 -393l-19 -84z" />
<glyph unicode="=" d="M158 496l20 84h828l-21 -84h-827zM264 920l21 86h827l-22 -86h-826z" />
<glyph unicode="&#x3e;" horiz-adv-x="1173" d="M117 264l24 103l838 391l-643 391l22 84l732 -451l-17 -65z" />
<glyph unicode="?" horiz-adv-x="1013" d="M229 1337q189 170 410 170q173 0 277 -98t104 -252q0 -97 -39.5 -178t-110 -138.5t-159.5 -96t-195 -58.5l-92 -297h-51l63 354l13 13q218 27 350.5 131.5t132.5 267.5q0 127 -84 198.5t-215 71.5q-186 0 -354 -149zM248 0l37 158h116l-36 -158h-117z" />
<glyph unicode="@" horiz-adv-x="1890" d="M141 428q0 169 48.5 332t137.5 298t206.5 237.5t263.5 160t301 57.5q132 0 245 -35t196.5 -98.5t142.5 -149.5t88.5 -190t29.5 -219q0 -113 -24 -217.5t-65.5 -184t-94.5 -139.5t-112.5 -91t-117.5 -31q-106 0 -157 64.5t-49 164.5q-70 -106 -162 -168.5t-197 -62.5 q-124 0 -201 84.5t-77 228.5t64.5 281.5t174.5 225t232 87.5q115 0 183.5 -66.5t90.5 -171.5l62 207l77 -20l-149 -504q-25 -88 -25 -135q0 -68 36.5 -109t105.5 -41q59 0 120 45.5t110.5 122t81.5 190t32 238.5q0 133 -43 248.5t-123 202t-203 136.5t-274 50 q-145 0 -282.5 -55.5t-246.5 -154t-192 -226.5t-127.5 -281t-44.5 -309q0 -320 189.5 -508t502.5 -188q223 0 416 102l26 -53q-216 -107 -442 -107t-396 89.5t-264 260.5t-94 402zM633 475q0 -113 55.5 -177.5t151.5 -64.5q74 0 148.5 45.5t130.5 115.5t91 158.5t35 170.5 q0 117 -60.5 188.5t-170.5 71.5q-98 0 -187.5 -77t-141.5 -195t-52 -236z" />
<glyph unicode="A" horiz-adv-x="1429" d="M-37 0l950 1501h88l216 -1501h-89l-57 426h-743l-269 -426h-96zM379 506h680l-123 885z" />
<glyph unicode="B" horiz-adv-x="1345" d="M82 0l364 1491h422q193 0 306.5 -89.5t113.5 -242.5q0 -87 -32.5 -160t-88 -122t-122.5 -80t-144 -45q127 -32 202 -111t75 -199q0 -204 -162 -323t-428 -119h-506zM188 82h404q235 0 366.5 96.5t131.5 263.5q0 126 -103 198.5t-274 72.5h-371zM362 793h349q223 0 355 99 t132 259q0 124 -89.5 191t-248.5 67h-348z" />
<glyph unicode="C" horiz-adv-x="1337" d="M186 545q0 207 78 413.5t215 344.5q210 210 479 210q148 0 258 -67.5t175 -181.5l-74 -47q-130 217 -365 217q-114 0 -218.5 -49.5t-186.5 -131.5q-124 -124 -197.5 -316.5t-73.5 -389.5q0 -224 117.5 -357t306.5 -133q117 0 210 44.5t184 129.5l57 -59 q-97 -92 -207.5 -143.5t-249.5 -51.5q-106 0 -198.5 39t-161.5 110.5t-108.5 179.5t-39.5 239z" />
<glyph unicode="D" horiz-adv-x="1435" d="M82 0l364 1491h263q151 0 276 -43t207 -127q154 -151 154 -426q0 -176 -64.5 -351.5t-187.5 -297.5q-117 -118 -280 -182t-357 -64h-375zM188 82h281q342 0 561 219q109 109 167 269.5t58 320.5q0 245 -131 373q-142 145 -417 145h-195z" />
<glyph unicode="E" horiz-adv-x="1218" d="M82 0l364 1491h875l-18 -82h-789l-152 -616h711l-18 -82h-713l-154 -629h799l-20 -82h-885z" />
<glyph unicode="F" horiz-adv-x="1198" d="M82 0l364 1491h867l-21 -82h-778l-156 -639h703l-21 -80h-702l-168 -690h-88z" />
<glyph unicode="G" horiz-adv-x="1454" d="M190 569q0 200 76 392.5t211 326.5q225 225 518 225q277 0 439 -215l-68 -51q-139 187 -379 187q-246 0 -446 -197q-121 -122 -190.5 -302t-69.5 -364q0 -235 125.5 -374.5t336.5 -139.5q190 0 340 97l134 526h-420l20 84h504l-166 -660q-197 -127 -418 -127 q-245 0 -396 162t-151 430z" />
<glyph unicode="H" horiz-adv-x="1427" d="M82 0l364 1491h89l-173 -700h824l172 700h88l-365 -1491h-88l172 711h-823l-172 -711h-88z" />
<glyph unicode="I" horiz-adv-x="542" d="M96 0l365 1491h88l-365 -1491h-88z" />
<glyph unicode="J" horiz-adv-x="991" d="M-6 242l78 30q74 -211 266 -211q127 0 213 89q83 83 129 266l260 1075h88l-264 -1092q-54 -205 -156 -307q-107 -110 -270 -110q-131 0 -218.5 70t-125.5 190z" />
<glyph unicode="K" horiz-adv-x="1327" d="M82 0l364 1491h89l-236 -952l1030 952h119l-719 -657l383 -834h-98l-355 774l-391 -360l-98 -414h-88z" />
<glyph unicode="L" horiz-adv-x="1105" d="M82 0l364 1491h89l-347 -1409h730l-19 -82h-817z" />
<glyph unicode="M" horiz-adv-x="1630" d="M82 0l364 1491h78l299 -889l729 889h97l-365 -1491h-88l324 1325l-725 -881h-9l-297 881l-325 -1325h-82z" />
<glyph unicode="N" horiz-adv-x="1474" d="M82 0l364 1491h82l555 -1331l326 1331h84l-365 -1491h-67l-565 1354l-330 -1354h-84z" />
<glyph unicode="O" horiz-adv-x="1550" d="M190 563q0 204 78 411t213 339q200 200 457 200q235 0 377.5 -162t142.5 -423q0 -204 -77.5 -411.5t-211.5 -340.5q-201 -201 -458 -201q-234 0 -377.5 163t-143.5 425zM281 563q0 -226 118.5 -366t313.5 -140q219 0 391 172q123 123 194.5 316.5t71.5 380.5 q0 227 -119 367.5t-315 140.5q-220 0 -389 -174q-123 -123 -194.5 -316.5t-71.5 -380.5z" />
<glyph unicode="P" horiz-adv-x="1259" d="M82 0l364 1491h353q256 0 377 -121q100 -100 100 -268q0 -217 -141 -361q-181 -178 -529 -178h-299l-137 -563h-88zM326 641h282q306 0 461 152q119 122 119 309q0 131 -80 211q-96 96 -311 96h-283z" />
<glyph unicode="Q" horiz-adv-x="1552" d="M190 563q0 204 78 411t213 339q200 200 457 200q235 0 377.5 -162t142.5 -423q0 -203 -79 -412t-214 -344l135 -160l-63 -53l-129 160q-184 -144 -397 -144q-234 0 -377.5 163t-143.5 425zM281 563q0 -226 118.5 -366t313.5 -140q190 0 340 125l-211 258l63 54l209 -256 q117 123 186.5 314t69.5 374q0 227 -119 367.5t-315 140.5q-220 0 -389 -174q-123 -123 -194.5 -316.5t-71.5 -380.5z" />
<glyph unicode="R" horiz-adv-x="1347" d="M82 0l364 1491h410q242 0 363 -121q94 -94 94 -250q0 -196 -131 -327q-125 -125 -373 -160l281 -633h-99l-272 625q-25 -2 -74 -2h-323l-152 -623h-88zM340 700h340q293 0 436 140q111 111 111 278q0 121 -72 193q-98 98 -307 98h-334z" />
<glyph unicode="S" horiz-adv-x="1196" d="M47 244l70 53q179 -238 444 -238q157 0 262 94t105 224q0 101 -65.5 175.5t-217.5 166.5q-89 55 -146.5 98t-102.5 92t-65 101t-20 114q0 144 107 254q133 133 338 133q136 0 250.5 -60.5t193.5 -154.5l-65 -59q-75 90 -173.5 142.5t-211.5 52.5q-155 0 -252 -90.5 t-97 -211.5q0 -95 67 -166.5t224 -166.5q170 -103 247 -195t77 -217q0 -160 -115 -272q-133 -133 -346 -133q-160 0 -289.5 71t-218.5 193z" />
<glyph unicode="T" horiz-adv-x="1126" d="M287 1409l20 82h965l-21 -82h-438l-346 -1409h-88l344 1409h-436z" />
<glyph unicode="U" horiz-adv-x="1421" d="M184 391q0 88 33 227l209 873h88l-219 -905q-23 -103 -23 -189q0 -158 98 -248t277 -90q182 0 309 127q132 135 189 373l225 932h88l-229 -950q-68 -267 -207 -406q-158 -158 -383 -158q-213 0 -334 111.5t-121 302.5z" />
<glyph unicode="V" horiz-adv-x="1349" d="M311 1491h90l156 -1378l832 1378h100l-918 -1501h-79z" />
<glyph unicode="W" horiz-adv-x="2013" d="M324 1491h88l67 -1350l713 1354h70l59 -1354l721 1350h96l-813 -1501h-74l-61 1333l-709 -1333h-73z" />
<glyph unicode="X" horiz-adv-x="1286" d="M-29 0l674 772l-315 719h94l283 -660l575 660h107l-644 -733l330 -758h-92l-301 698l-606 -698h-105z" />
<glyph unicode="Y" horiz-adv-x="1253" d="M279 1491h92l282 -793l670 793h113l-758 -885l-148 -606h-88l152 623z" />
<glyph unicode="Z" horiz-adv-x="1232" d="M-10 0l10 51l1184 1362h-826l21 78h946l-10 -53l-1186 -1360h862l-20 -78h-981z" />
<glyph unicode="[" horiz-adv-x="833" d="M45 -276l432 1767h484l-17 -66h-403l-400 -1636h404l-17 -65h-483z" />
<glyph unicode="\" horiz-adv-x="935" d="M315 1679h74l361 -1931h-76z" />
<glyph unicode="]" horiz-adv-x="833" d="M-102 -276l16 65h403l400 1636h-404l17 66h483l-432 -1767h-483z" />
<glyph unicode="^" horiz-adv-x="980" d="M303 1077l377 410h70l176 -410h-76l-148 326l-311 -326h-88z" />
<glyph unicode="_" horiz-adv-x="1202" d="M-197 -334l19 76h1163l-16 -76h-1166z" />
<glyph unicode="`" horiz-adv-x="1112" d="M633 1470l98 52l121 -269h-55z" />
<glyph unicode="a" horiz-adv-x="1095" d="M59 272q0 172 111 283q119 119 328 119q162 0 354 -62l10 43q19 84 19 140q0 111 -75 172t-212 61q-134 0 -266 -53l-23 76q145 57 293 57q171 0 268 -80.5t97 -222.5q0 -63 -23 -160l-156 -645h-82l48 190q-150 -213 -383 -213q-130 0 -219 78t-89 217zM145 281 q0 -106 66 -168t172 -62q145 0 264 104t158 259l31 127q-158 59 -344 59q-162 0 -259 -94q-88 -88 -88 -225z" />
<glyph unicode="b" horiz-adv-x="1234" d="M59 0l377 1538h84l-166 -670q71 105 174.5 176.5t227.5 71.5q162 0 263 -118.5t101 -311.5q0 -158 -58 -310.5t-159 -256.5q-148 -142 -328 -142q-77 0 -140.5 26t-107 71t-71.5 97.5t-43 113.5l-70 -285h-84zM258 420q0 -158 87.5 -262.5t227.5 -104.5q152 0 269 117 q88 89 138 227.5t50 280.5q0 162 -78 261t-209 99q-159 0 -292 -133q-88 -89 -140.5 -221.5t-52.5 -263.5z" />
<glyph unicode="c" horiz-adv-x="1036" d="M109 414q0 153 57 298t156 244q158 158 354 158q121 0 207.5 -55.5t134.5 -140.5l-68 -50q-103 168 -278 168q-156 0 -285 -129q-87 -87 -138.5 -220t-51.5 -265q0 -174 91 -269.5t222 -95.5q149 0 281 119l51 -59q-151 -137 -336 -137q-80 0 -151 29t-126.5 82.5 t-87.5 137t-32 185.5z" />
<glyph unicode="d" horiz-adv-x="1234" d="M117 406q0 159 58 312t159 253q145 145 325 145q77 0 141 -26t107.5 -71t71.5 -97.5t43 -112.5l180 729h82l-375 -1538h-82l54 221q-71 -104 -174 -174t-228 -70q-161 0 -261.5 118.5t-100.5 310.5zM205 414q0 -162 78 -261.5t209 -99.5q160 0 292 135q89 86 142 219 t53 265q0 156 -88 261t-227 105q-152 0 -271 -116q-88 -89 -138 -227.5t-50 -280.5z" />
<glyph unicode="e" horiz-adv-x="1116" d="M111 414q0 153 59 301.5t158 247.5q150 153 340 153q164 0 254 -109t90 -280q0 -108 -33 -211h-776q-6 -49 -6 -98q0 -169 89 -265t238 -96q160 0 307 115l43 -61q-165 -131 -352 -131q-185 0 -298 116.5t-113 317.5zM217 592h694q17 66 17 133q0 138 -66.5 225.5 t-197.5 87.5q-150 0 -273 -120q-124 -124 -174 -326z" />
<glyph unicode="f" horiz-adv-x="692" d="M113 0l247 1016h-145l21 76h143l39 153q21 81 45.5 132t64.5 89q74 74 193 74q93 0 170 -41l-21 -74q-75 37 -151 37q-81 0 -136 -52.5t-83 -170.5l-37 -147h321l-18 -76h-322l-247 -1016h-84z" />
<glyph unicode="g" horiz-adv-x="1232" d="M8 -168l51 64q75 -65 177 -102.5t204 -37.5q185 0 287 105q85 85 129 264l45 176q-76 -101 -178.5 -165t-224.5 -64q-156 0 -262.5 109.5t-106.5 291.5q0 135 52 268t143 224q151 151 344 151q77 0 140 -26t105 -70.5t68.5 -93.5t42.5 -105l68 271h82l-238 -979 q-51 -207 -150 -303q-132 -132 -350 -132q-113 0 -227.5 41t-200.5 113zM215 475q0 -149 85 -237t214 -88q84 0 162.5 35.5t140.5 97.5q73 73 119.5 182.5t46.5 224.5q0 143 -86.5 244.5t-230.5 101.5q-158 0 -279 -121q-79 -79 -125.5 -198.5t-46.5 -241.5z" />
<glyph unicode="h" d="M59 0l377 1538h84l-162 -653q153 231 373 231q139 0 222 -82.5t83 -224.5q0 -63 -26 -180l-150 -629h-84l154 633q22 99 22 170q0 113 -63 175t-180 62q-133 0 -249.5 -109t-158.5 -278l-158 -653h-84z" />
<glyph unicode="i" horiz-adv-x="497" d="M74 0l266 1092h82l-264 -1092h-84zM397 1368l35 137h103l-35 -137h-103z" />
<glyph unicode="j" horiz-adv-x="499" d="M-215 -309l20 76q62 -15 86 -15q124 0 164 166l289 1174h82l-293 -1190q-25 -111 -86 -170.5t-153 -59.5q-42 0 -109 19zM401 1368l35 137h101l-33 -137h-103z" />
<glyph unicode="k" horiz-adv-x="1052" d="M59 0l377 1538h84l-276 -1126l731 680h110l-516 -471l267 -621h-93l-239 561l-289 -264l-72 -297h-84z" />
<glyph unicode="l" horiz-adv-x="495" d="M74 0l377 1538h81l-374 -1538h-84z" />
<glyph unicode="m" horiz-adv-x="1796" d="M59 0l267 1092h82l-50 -205q150 229 351 229q119 0 191 -72.5t85 -187.5q68 120 168.5 190t224.5 70q128 0 208.5 -82.5t80.5 -220.5q0 -62 -29 -184l-151 -629h-82l154 633q22 104 22 174q0 109 -59.5 171t-163.5 62q-122 0 -233.5 -110.5t-149.5 -272.5l-158 -657h-84 l154 635q22 87 22 172q0 108 -60 170.5t-163 62.5q-124 0 -233.5 -112t-151.5 -277l-158 -651h-84z" />
<glyph unicode="n" d="M59 0l267 1092h82l-50 -207q153 231 373 231q139 0 222 -82.5t83 -224.5q0 -63 -26 -180l-150 -629h-84l154 633q22 99 22 170q0 113 -63 175t-180 62q-133 0 -249.5 -109t-158.5 -278l-158 -653h-84z" />
<glyph unicode="o" horiz-adv-x="1193" d="M111 424q0 151 56 293t155 241q158 158 358 158q180 0 290.5 -123.5t110.5 -322.5q0 -153 -56 -295.5t-155 -241.5q-156 -156 -358 -156q-180 0 -290.5 123.5t-110.5 323.5zM199 428q0 -172 87 -272.5t234 -100.5q158 0 287 129q86 86 136 216.5t50 263.5 q0 172 -86.5 272t-232.5 100q-160 0 -289 -129q-86 -86 -136 -215.5t-50 -263.5z" />
<glyph unicode="p" horiz-adv-x="1234" d="M-16 -319l342 1411h82l-54 -224q71 105 174.5 176.5t227.5 71.5q162 0 263 -118.5t101 -311.5q0 -158 -58 -310.5t-159 -256.5q-148 -142 -328 -142q-77 0 -140.5 26t-107 71t-71.5 97.5t-43 113.5l-147 -604h-82zM258 420q0 -158 87.5 -262.5t227.5 -104.5 q152 0 269 117q88 89 138 227.5t50 280.5q0 162 -78 261t-209 99q-159 0 -292 -133q-88 -89 -140.5 -221.5t-52.5 -263.5z" />
<glyph unicode="q" horiz-adv-x="1234" d="M117 406q0 159 58 312t159 253q145 145 325 145q77 0 141 -26t107.5 -71t71.5 -97.5t43 -112.5l70 283h84l-345 -1411h-83l133 540q-71 -104 -174 -174t-228 -70q-161 0 -261.5 118.5t-100.5 310.5zM205 414q0 -162 78 -261.5t209 -99.5q160 0 292 135q89 86 142 219 t53 265q0 156 -88 261t-227 105q-152 0 -271 -116q-88 -89 -138 -227.5t-50 -280.5z" />
<glyph unicode="r" horiz-adv-x="743" d="M59 0l267 1092h82l-66 -267q91 137 210 213q109 70 232 71q11 0 23 -1l-23 -88h-8q-159 0 -301.5 -123.5t-193.5 -329.5l-138 -567h-84z" />
<glyph unicode="s" horiz-adv-x="940" d="M14 172l66 57q152 -172 330 -172q106 0 181 64t75 153q0 68 -46.5 122.5t-162.5 121.5q-137 77 -194.5 143t-57.5 160q0 121 94.5 205t243.5 84q97 0 188 -44.5t156 -117.5l-62 -59q-135 147 -286 147q-111 0 -179.5 -61.5t-68.5 -145.5q0 -65 46.5 -118t166.5 -121 q134 -76 192 -146t58 -161q0 -125 -101.5 -213t-249.5 -88q-112 0 -213 50.5t-176 139.5z" />
<glyph unicode="t" horiz-adv-x="751" d="M164 170q0 32 14 109l178 737h-141l18 76h142l84 342h84l-84 -342h313l-18 -76h-314l-180 -750q-12 -47 -12 -86q0 -59 38.5 -89t110.5 -30q61 0 131 31l-18 -82q-57 -24 -131 -24q-98 0 -156.5 46.5t-58.5 137.5z" />
<glyph unicode="u" d="M133 285q0 55 27 180l151 627h82l-153 -631q-23 -103 -23 -170q0 -113 63.5 -175.5t178.5 -62.5q135 0 251.5 109t157.5 276l158 654h84l-266 -1092h-84l51 207q-155 -230 -373 -230q-139 0 -222 82.5t-83 225.5z" />
<glyph unicode="v" horiz-adv-x="1077" d="M209 1092h88l117 -983l598 983h94l-680 -1100h-70z" />
<glyph unicode="w" horiz-adv-x="1593" d="M225 1092h82l49 -969l525 973h69l47 -973l521 969h90l-604 -1100h-74l-49 954l-516 -954h-72z" />
<glyph unicode="x" horiz-adv-x="1056" d="M-35 0l522 565l-233 527h88l201 -467l428 467h104l-495 -533l245 -559h-90l-213 500l-454 -500h-103z" />
<glyph unicode="y" horiz-adv-x="1091" d="M-117 -260l45 67q69 -55 150 -55q69 0 136 55.5t157 198.5l-168 1086h88l145 -986l586 986h96l-669 -1106q-108 -176 -194 -244t-183 -68q-108 0 -189 66z" />
<glyph unicode="z" horiz-adv-x="989" d="M-20 0l8 49l880 971h-624l16 72h746l-11 -50l-880 -968h653l-18 -74h-770z" />
<glyph unicode="{" horiz-adv-x="905" d="M131 580l16 65h46q149 0 227 78q98 101 106 328q9 116 34.5 198t90.5 146q116 116 363 127l-2 -66q-203 -8 -295 -104q-54 -54 -76 -130t-29 -184q-8 -76 -16.5 -125.5t-34.5 -113t-67 -105.5q-68 -68 -185 -86q148 -42 148 -176q0 -67 -39 -164q-60 -161 -60 -245 q0 -99 56.5 -163t185.5 -98l-20 -59q-306 71 -306 317q0 55 14 107.5t48 148.5q41 103 41 160q0 65 -48.5 104.5t-154.5 39.5h-43z" />
<glyph unicode="|" horiz-adv-x="593" d="M66 -252l473 1931h73l-473 -1931h-73z" />
<glyph unicode="}" horiz-adv-x="905" d="M-78 -231q204 8 297 104q54 54 76 130t29 183q8 76 16.5 125.5t34.5 113t67 105.5q68 68 185 86q-150 43 -150 177q0 61 41 163q60 161 60 246q0 99 -56 162.5t-186 97.5l20 60q306 -71 306 -318q0 -55 -14 -107.5t-48 -148.5q-41 -103 -41 -160q0 -65 48.5 -104 t152.5 -39h45l-17 -65h-45q-149 0 -227 -78q-98 -101 -106 -328q-9 -116 -34.5 -198t-90.5 -146q-116 -116 -363 -127v66z" />
<glyph unicode="~" horiz-adv-x="907" d="M186 553q42 96 85 140t100 44q37 0 65 -16.5t60 -52.5q51 -49 68 -56q13 -6 26 -6q30 0 58 30.5t59 94.5l59 -22q-41 -96 -84 -140.5t-100 -44.5q-35 0 -63.5 17.5t-61.5 52.5q-34 34 -53.5 47.5t-41.5 13.5q-30 0 -56 -29t-60 -94z" />
<glyph unicode="&#xa1;" horiz-adv-x="505" d="M68 0l41 166l256 936h45l-205 -936l-39 -166h-98zM385 1333l37 158h117l-37 -158h-117z" />
<glyph unicode="&#xa2;" horiz-adv-x="1054" d="M166 618q0 154 55.5 301.5t151.5 243.5q155 158 360 158q7 0 20.5 -1t20.5 -1l62 182h79l-67 -194q157 -40 248 -189l-66 -47q-85 130 -211 160l-317 -965q34 -6 73 -6q159 0 295 119l50 -57q-157 -140 -351 -140q-51 0 -90 8l-69 -202h-80l78 225q-112 47 -177 152.5 t-65 252.5zM254 623q0 -124 48 -210.5t134 -125.5l314 954h-19q-166 0 -293 -127q-87 -85 -135.5 -219t-48.5 -272z" />
<glyph unicode="&#xa3;" horiz-adv-x="1161" d="M8 0l10 45l168 33l144 594h-164l20 78h164l74 311q57 222 160 325q121 121 288 121q124 0 209 -57t133 -145l-71 -45q-97 167 -273 167q-134 0 -221 -90q-92 -92 -141 -293l-72 -294h527l-21 -78h-524l-144 -592h670l-18 -80h-918z" />
<glyph unicode="&#xa5;" horiz-adv-x="1294" d="M158 276l18 76h373l55 234h-371l21 76h342l-293 829h94l277 -803l669 803h111l-704 -829h335l-16 -76h-377l-57 -234h375l-19 -76h-375l-65 -276h-88l67 276h-372z" />
<glyph unicode="&#xa7;" horiz-adv-x="1200" d="M139 133l54 64q69 -63 160.5 -101.5t193.5 -38.5q105 0 171 48t66 122q0 71 -62 124.5t-206 117.5q-173 77 -252.5 146.5t-79.5 158.5q0 121 109 194.5t295 69.5q-164 90 -164 219q0 109 93.5 180.5t240.5 71.5q115 0 220 -41.5t179 -109.5l-53 -64q-71 63 -162.5 101.5 t-191.5 38.5q-105 0 -171.5 -48t-66.5 -122q0 -71 62 -124.5t206 -117.5q173 -77 252.5 -146.5t79.5 -158.5q0 -121 -108.5 -194.5t-294.5 -69.5q161 -90 161 -220q0 -110 -92 -180.5t-239 -70.5q-116 0 -222 42t-178 109zM272 782q0 -63 46.5 -111t154.5 -98 q128 -59 262 -59q127 0 208 55t81 140q0 64 -47 111.5t-156 97.5q-125 59 -260 59q-128 0 -208.5 -55t-80.5 -140z" />
<glyph unicode="&#xa8;" horiz-adv-x="1112" d="M522 1268l37 141h113l-35 -141h-115zM807 1268l35 141h110l-32 -141h-113z" />
<glyph unicode="&#xa9;" horiz-adv-x="1609" d="M162 621q0 188 68 369.5t194 307.5q218 218 514 218q184 0 323.5 -86.5t212 -232t72.5 -327.5q0 -187 -68.5 -368.5t-195.5 -308.5q-215 -218 -512 -218q-185 0 -324.5 86.5t-211.5 232t-72 327.5zM217 618q0 -121 37 -227t105.5 -187.5t175.5 -129t239 -47.5 q269 0 465 196q121 121 185.5 296t64.5 353q0 121 -37 227.5t-105.5 188t-175.5 129t-239 47.5q-272 0 -465 -196q-121 -119 -184.5 -294t-65.5 -356zM530 647q0 112 42 223t116 183q107 110 248 110q79 0 139 -36t96 -97l-61 -41q-67 105 -176 105t-193 -84 q-63 -63 -100 -160.5t-37 -198.5q0 -113 55.5 -176t145.5 -63q58 0 104 23t95 67l40 -53q-109 -105 -243 -105q-119 0 -195 81t-76 222z" />
<glyph unicode="&#xaa;" horiz-adv-x="790" d="M158 657l14 64h465l-14 -64h-465zM250 1028q0 97 68 162t176 65q78 0 184 -32l6 22q10 38 10 72q0 55 -38.5 85t-112.5 30q-66 0 -148 -29l-16 59q91 37 174 37q98 0 153.5 -46t57.5 -128q0 -18 -12 -88l-86 -354h-70l25 100q-91 -113 -209 -113q-69 0 -115.5 42.5 t-46.5 115.5zM322 1034q-1 -51 28 -78.5t78 -27.5q75 0 140.5 56t86.5 134l13 53q-101 29 -172 29q-80 0 -127 -48.5t-47 -117.5z" />
<glyph unicode="&#xab;" horiz-adv-x="995" d="M104 535l5 16l428 442l57 -47l-389 -414l178 -405l-66 -35zM469 535l4 16l428 442l57 -47l-389 -414l181 -405l-68 -35z" />
<glyph unicode="&#xad;" horiz-adv-x="811" d="M162 588l22 88h504l-20 -88h-506z" />
<glyph unicode="&#xae;" horiz-adv-x="862" d="M236 1075q0 93 33 182t96 152q107 107 256 107q136 0 216.5 -88.5t80.5 -221.5q0 -94 -34 -183t-98 -153q-106 -106 -254 -106q-136 0 -216 89t-80 222zM274 1075q0 -116 69.5 -195t193.5 -79q127 0 221 94q59 58 91 141t32 166q0 118 -70.5 198.5t-194.5 80.5 q-126 0 -221 -95q-59 -59 -90 -142.5t-31 -168.5zM410 956l94 383h100q70 0 103.5 -29.5t33.5 -78.5q0 -46 -28 -81t-84 -46l59 -148h-51l-57 144h-86l-35 -144h-49zM506 1143h67q73 0 97 28q22 19 22 58q0 65 -88 65h-63z" />
<glyph unicode="&#xaf;" horiz-adv-x="1112" d="M473 1298l21 78h534l-20 -78h-535z" />
<glyph unicode="&#xb0;" horiz-adv-x="772" d="M219 1126q0 82 31 158t84 129q90 90 209 90q102 0 167.5 -70.5t65.5 -183.5q0 -84 -29.5 -158.5t-82.5 -127.5q-93 -93 -209 -93q-104 0 -170 70.5t-66 185.5zM295 1130q0 -87 46 -137.5t120 -50.5q84 0 147 66q42 42 68 105.5t26 131.5q0 86 -46 136.5t-121 50.5 q-82 0 -148 -62q-42 -43 -67 -108t-25 -132z" />
<glyph unicode="&#xb1;" d="M37 68l20 79h858l-16 -79h-862zM207 754l18 80h389l97 387h82l-97 -387h391l-18 -80h-389l-98 -387h-82l96 387h-389z" />
<glyph unicode="&#xb4;" horiz-adv-x="1112" d="M567 1253l238 269l98 -52l-258 -217h-78z" />
<glyph unicode="&#xb5;" horiz-adv-x="1263" d="M-18 -319l346 1411h82l-148 -611q-20 -73 -20 -151q0 -129 70.5 -202t193.5 -73q134 0 233.5 88t137.5 244l172 705h81l-200 -824q-15 -73 -15 -108q0 -94 105 -94q46 0 82 8l-19 -76q-37 -12 -79 -12q-85 0 -130.5 46t-42.5 132q-123 -187 -329 -187q-125 0 -207.5 68.5 t-104.5 192.5h-2q-23 -149 -59 -295l-63 -262h-84z" />
<glyph unicode="&#xb6;" horiz-adv-x="958" d="M213 954q0 223 145 365q80 83 206.5 127.5t287.5 44.5h123l-363 -1491h-90l137 563q-231 10 -346 125q-100 100 -100 266z" />
<glyph unicode="&#xb7;" horiz-adv-x="446" d="M164 547l39 160h119l-39 -160h-119z" />
<glyph unicode="&#xb8;" horiz-adv-x="1112" d="M215 -240l231 258h70l-217 -301z" />
<glyph unicode="&#xba;" horiz-adv-x="792" d="M162 657l14 64h502l-16 -64h-500zM264 1120q0 80 30.5 159t84.5 132q87 90 205 90q103 0 167 -70t64 -184q0 -81 -30.5 -159.5t-84.5 -131.5q-87 -90 -204 -90q-103 0 -167.5 70t-64.5 184zM336 1120q0 -85 45.5 -136.5t120.5 -51.5q81 0 147 63q43 43 68.5 112.5 t25.5 139.5q0 85 -45 137t-120 52q-81 0 -148 -64q-43 -44 -68.5 -113.5t-25.5 -138.5z" />
<glyph unicode="&#xbb;" horiz-adv-x="995" d="M31 137l389 414l-180 405l67 35l213 -442l-4 -17l-428 -442zM395 137l389 414l-178 405l66 35l213 -442l-4 -17l-428 -442z" />
<glyph unicode="&#xbf;" horiz-adv-x="1013" d="M88 334q0 97 39.5 178t110 138.5t159.5 96t195 58.5l92 297h51l-63 -354l-13 -13q-218 -27 -350.5 -131.5t-132.5 -267.5q0 -127 84 -198.5t215 -71.5q186 0 354 149l50 -61q-189 -170 -410 -170q-173 0 -277 98t-104 252zM707 1333l36 158h117l-37 -158h-116z" />
<glyph unicode="&#xc0;" horiz-adv-x="1429" d="M-37 0l950 1501h88l216 -1501h-89l-57 426h-743l-269 -426h-96zM379 506h680l-123 885zM764 1812l96 48l139 -234h-63z" />
<glyph unicode="&#xc1;" horiz-adv-x="1429" d="M-37 0l950 1501h88l216 -1501h-89l-57 426h-743l-269 -426h-96zM379 506h680l-123 885zM938 1626l236 234l98 -48l-252 -186h-82z" />
<glyph unicode="&#xc2;" horiz-adv-x="1429" d="M-37 0l950 1501h88l216 -1501h-89l-57 426h-743l-269 -426h-96zM379 506h680l-123 885zM741 1628l252 217h78l146 -217h-80l-119 137l-187 -137h-90z" />
<glyph unicode="&#xc3;" horiz-adv-x="1429" d="M-37 0l950 1501h88l216 -1501h-89l-57 426h-743l-269 -426h-96zM379 506h680l-123 885zM721 1642q38 85 81 124.5t97 39.5q39 0 123 -45q71 -43 106 -43q34 0 59 20.5t56 73.5l60 -16q-40 -85 -82 -123.5t-95 -38.5q-45 0 -125 45q-74 43 -106 43q-34 0 -60 -21.5 t-55 -74.5z" />
<glyph unicode="&#xc4;" horiz-adv-x="1429" d="M-37 0l950 1501h88l216 -1501h-89l-57 426h-743l-269 -426h-96zM379 506h680l-123 885zM782 1640l33 140h123l-35 -140h-121zM1087 1640l35 140h121l-35 -140h-121z" />
<glyph unicode="&#xc5;" horiz-adv-x="1429" d="M-37 0l905 1430q-46 20 -71 59t-25 90q0 86 68 144.5t161 58.5q82 0 133.5 -47t51.5 -117q0 -72 -50 -126.5t-124 -72.5l205 -1419h-89l-57 426h-743l-269 -426h-96zM379 506h680l-123 883zM838 1581q0 -50 33.5 -80.5t91.5 -30.5q64 0 109.5 41.5t45.5 100.5 q0 51 -33 84t-90 33q-64 0 -110.5 -43t-46.5 -105z" />
<glyph unicode="&#xc6;" horiz-adv-x="1927" d="M-66 0l1127 1491h954l-20 -82h-770l-152 -616h694l-18 -82h-696l-154 -629h782l-20 -82h-868l104 426h-541l-319 -426h-103zM416 506h497l224 905h-39z" />
<glyph unicode="&#xc7;" horiz-adv-x="1339" d="M186 545q0 207 78 413.5t215 344.5q210 210 479 210q148 0 258 -67.5t175 -181.5l-74 -47q-130 217 -365 217q-114 0 -218.5 -49.5t-186.5 -131.5q-124 -124 -197.5 -316.5t-73.5 -389.5q0 -224 117.5 -357t306.5 -133q117 0 210 44.5t184 129.5l57 -59 q-97 -92 -207.5 -143.5t-249.5 -51.5h-24l-187 -260l-84 43l201 226q-185 32 -299.5 179.5t-114.5 379.5z" />
<glyph unicode="&#xc8;" horiz-adv-x="1218" d="M82 0l364 1491h875l-18 -82h-789l-152 -616h711l-18 -82h-713l-154 -629h799l-20 -82h-885zM676 1798l96 47l139 -233h-63z" />
<glyph unicode="&#xc9;" horiz-adv-x="1218" d="M82 0l364 1491h875l-18 -82h-789l-152 -616h711l-18 -82h-713l-154 -629h799l-20 -82h-885zM848 1612l235 233l99 -47l-252 -186h-82z" />
<glyph unicode="&#xca;" horiz-adv-x="1218" d="M82 0l364 1491h875l-18 -82h-789l-152 -616h711l-18 -82h-713l-154 -629h799l-20 -82h-885zM651 1616l252 217h78l145 -217h-79l-119 137l-187 -137h-90z" />
<glyph unicode="&#xcb;" horiz-adv-x="1218" d="M82 0l364 1491h875l-18 -82h-789l-152 -616h711l-18 -82h-713l-154 -629h799l-20 -82h-885zM688 1626l33 139h123l-35 -139h-121zM993 1626l35 139h121l-35 -139h-121z" />
<glyph unicode="&#xcc;" horiz-adv-x="542" d="M96 0l365 1491h88l-365 -1491h-88zM309 1798l97 47l139 -233h-64z" />
<glyph unicode="&#xcd;" horiz-adv-x="542" d="M96 0l365 1491h88l-365 -1491h-88zM483 1612l236 233l98 -47l-252 -186h-82z" />
<glyph unicode="&#xce;" horiz-adv-x="542" d="M96 0l365 1491h88l-365 -1491h-88zM287 1616l252 217h77l146 -217h-80l-119 137l-186 -137h-90z" />
<glyph unicode="&#xcf;" horiz-adv-x="542" d="M96 0l365 1491h88l-365 -1491h-88zM326 1626l32 139h123l-35 -139h-120zM631 1626l35 139h120l-34 -139h-121z" />
<glyph unicode="&#xd0;" horiz-adv-x="1468" d="M117 0l172 709h-146l21 82h145l172 700h262q151 0 276.5 -43t209.5 -127q151 -151 151 -426q0 -175 -64 -351t-186 -298q-246 -246 -638 -246h-375zM225 82h279q345 0 561 219q110 110 168.5 270t58.5 320q0 243 -133 373q-142 145 -418 145h-192l-152 -618h410l-21 -82 h-409z" />
<glyph unicode="&#xd1;" horiz-adv-x="1474" d="M82 0l364 1491h82l555 -1331l326 1331h84l-365 -1491h-67l-565 1354l-330 -1354h-84zM725 1618q38 85 81 124.5t97 39.5q39 0 123 -45q71 -43 107 -43q34 0 58.5 20.5t55.5 73.5l60 -16q-40 -85 -82 -123.5t-95 -38.5q-44 0 -124 45q-74 43 -107 43q-34 0 -60 -21.5 t-55 -74.5z" />
<glyph unicode="&#xd2;" horiz-adv-x="1550" d="M190 563q0 204 78 411t213 339q200 200 457 200q235 0 377.5 -162t142.5 -423q0 -204 -77.5 -411.5t-211.5 -340.5q-201 -201 -458 -201q-234 0 -377.5 163t-143.5 425zM281 563q0 -226 118.5 -366t313.5 -140q219 0 391 172q123 123 194.5 316.5t71.5 380.5 q0 227 -119 367.5t-315 140.5q-220 0 -389 -174q-123 -123 -194.5 -316.5t-71.5 -380.5zM795 1812l96 48l139 -234h-63z" />
<glyph unicode="&#xd3;" horiz-adv-x="1550" d="M190 563q0 204 78 411t213 339q200 200 457 200q235 0 377.5 -162t142.5 -423q0 -204 -77.5 -411.5t-211.5 -340.5q-201 -201 -458 -201q-234 0 -377.5 163t-143.5 425zM281 563q0 -226 118.5 -366t313.5 -140q219 0 391 172q123 123 194.5 316.5t71.5 380.5 q0 227 -119 367.5t-315 140.5q-220 0 -389 -174q-123 -123 -194.5 -316.5t-71.5 -380.5zM969 1626l235 234l99 -48l-252 -186h-82z" />
<glyph unicode="&#xd4;" horiz-adv-x="1550" d="M190 563q0 204 78 411t213 339q200 200 457 200q235 0 377.5 -162t142.5 -423q0 -204 -77.5 -411.5t-211.5 -340.5q-201 -201 -458 -201q-234 0 -377.5 163t-143.5 425zM281 563q0 -226 118.5 -366t313.5 -140q219 0 391 172q123 123 194.5 316.5t71.5 380.5 q0 227 -119 367.5t-315 140.5q-220 0 -389 -174q-123 -123 -194.5 -316.5t-71.5 -380.5zM772 1630l252 217h78l145 -217h-80l-118 137l-187 -137h-90z" />
<glyph unicode="&#xd5;" horiz-adv-x="1550" d="M190 563q0 204 78 411t213 339q200 200 457 200q235 0 377.5 -162t142.5 -423q0 -204 -77.5 -411.5t-211.5 -340.5q-201 -201 -458 -201q-234 0 -377.5 163t-143.5 425zM281 563q0 -226 118.5 -366t313.5 -140q219 0 391 172q123 123 194.5 316.5t71.5 380.5 q0 227 -119 367.5t-315 140.5q-220 0 -389 -174q-123 -123 -194.5 -316.5t-71.5 -380.5zM752 1642q38 85 81 124.5t97 39.5q39 0 123 -45q71 -43 106 -43q34 0 59 20.5t56 73.5l59 -16q-40 -85 -82 -123.5t-94 -38.5q-45 0 -125 45q-74 43 -106 43q-34 0 -60 -21.5 t-55 -74.5z" />
<glyph unicode="&#xd6;" horiz-adv-x="1550" d="M190 563q0 204 78 411t213 339q200 200 457 200q235 0 377.5 -162t142.5 -423q0 -204 -77.5 -411.5t-211.5 -340.5q-201 -201 -458 -201q-234 0 -377.5 163t-143.5 425zM281 563q0 -226 118.5 -366t313.5 -140q219 0 391 172q123 123 194.5 316.5t71.5 380.5 q0 227 -119 367.5t-315 140.5q-220 0 -389 -174q-123 -123 -194.5 -316.5t-71.5 -380.5zM811 1640l33 140h123l-35 -140h-121zM1116 1640l35 140h121l-35 -140h-121z" />
<glyph unicode="&#xd7;" d="M158 412l422 346l-248 336l67 53l244 -340l420 342l47 -62l-422 -342l248 -337l-68 -54l-243 340l-420 -342z" />
<glyph unicode="&#xd8;" horiz-adv-x="1550" d="M8 -12l256 250q-74 142 -74 325q0 203 78 410.5t211 339.5q96 96 213.5 148t245.5 52q127 0 230 -51t173 -145l195 186h106l-260 -254q76 -140 76 -321q0 -203 -78 -411t-211 -341q-201 -201 -458 -201q-127 0 -230.5 50.5t-173.5 142.5l-192 -180h-107zM281 563 q0 -150 49 -260l950 952q-56 86 -144.5 132.5t-199.5 46.5q-220 0 -391 -174q-121 -121 -192.5 -315.5t-71.5 -381.5zM371 231q116 -174 342 -174q221 0 393 172q120 122 192 316.5t72 380.5q0 144 -51 258z" />
<glyph unicode="&#xd9;" horiz-adv-x="1421" d="M184 391q0 88 33 227l209 873h88l-219 -905q-23 -103 -23 -189q0 -158 98 -248t277 -90q182 0 309 127q132 135 189 373l225 932h88l-229 -950q-68 -267 -207 -406q-158 -158 -383 -158q-213 0 -334 111.5t-121 302.5zM725 1788l96 47l140 -233h-64z" />
<glyph unicode="&#xda;" horiz-adv-x="1421" d="M184 391q0 88 33 227l209 873h88l-219 -905q-23 -103 -23 -189q0 -158 98 -248t277 -90q182 0 309 127q132 135 189 373l225 932h88l-229 -950q-68 -267 -207 -406q-158 -158 -383 -158q-213 0 -334 111.5t-121 302.5zM901 1602l236 233l98 -47l-252 -186h-82z" />
<glyph unicode="&#xdb;" horiz-adv-x="1421" d="M184 391q0 88 33 227l209 873h88l-219 -905q-23 -103 -23 -189q0 -158 98 -248t277 -90q182 0 309 127q132 135 189 373l225 932h88l-229 -950q-68 -267 -207 -406q-158 -158 -383 -158q-213 0 -334 111.5t-121 302.5zM705 1606l251 217h78l146 -217h-80l-119 137 l-186 -137h-90z" />
<glyph unicode="&#xdc;" horiz-adv-x="1421" d="M184 391q0 88 33 227l209 873h88l-219 -905q-23 -103 -23 -189q0 -158 98 -248t277 -90q182 0 309 127q132 135 189 373l225 932h88l-229 -950q-68 -267 -207 -406q-158 -158 -383 -158q-213 0 -334 111.5t-121 302.5zM743 1616l33 139h123l-35 -139h-121zM1049 1616 l34 139h121l-35 -139h-120z" />
<glyph unicode="&#xdd;" horiz-adv-x="1253" d="M279 1491h92l282 -793l670 793h113l-758 -885l-148 -606h-88l152 623zM807 1602l235 233l99 -47l-252 -186h-82z" />
<glyph unicode="&#xde;" horiz-adv-x="1265" d="M82 0l364 1491h86l-67 -272h268q254 0 375 -121q100 -95 100 -269q0 -220 -141 -358q-178 -178 -528 -178h-297l-72 -293h-88zM260 373h281q308 0 463 149q116 119 116 307q0 133 -78 211q-96 99 -313 99h-283z" />
<glyph unicode="&#xdf;" horiz-adv-x="1157" d="M59 0l271 1104q50 214 162 323q121 121 286 121q148 0 244 -89.5t96 -229.5q0 -87 -31 -161.5t-87.5 -130t-130 -96t-164.5 -65.5q299 -94 299 -346q0 -125 -70.5 -224t-210.5 -156.5t-328 -53.5l19 74q244 -1 372.5 101t128.5 259q0 237 -337 311l16 72 q213 44 324.5 151t111.5 263q0 108 -69 177t-187 69q-133 0 -227.5 -102.5t-140.5 -291.5l-263 -1079h-84z" />
<glyph unicode="&#xe0;" horiz-adv-x="1095" d="M59 272q0 172 111 283q119 119 328 119q162 0 354 -62l10 43q19 84 19 140q0 111 -75 172t-212 61q-134 0 -266 -53l-23 76q145 57 293 57q171 0 268 -80.5t97 -222.5q0 -63 -23 -160l-156 -645h-82l48 190q-150 -213 -383 -213q-130 0 -219 78t-89 217zM145 281 q0 -106 66 -168t172 -62q145 0 264 104t158 259l31 127q-158 59 -344 59q-162 0 -259 -94q-88 -88 -88 -225zM479 1473l99 51l120 -269h-55z" />
<glyph unicode="&#xe1;" horiz-adv-x="1095" d="M59 272q0 172 111 283q119 119 328 119q162 0 354 -62l10 43q19 84 19 140q0 111 -75 172t-212 61q-134 0 -266 -53l-23 76q145 57 293 57q171 0 268 -80.5t97 -222.5q0 -63 -23 -160l-156 -645h-82l48 190q-150 -213 -383 -213q-130 0 -219 78t-89 217zM145 281 q0 -106 66 -168t172 -62q145 0 264 104t158 259l31 127q-158 59 -344 59q-162 0 -259 -94q-88 -88 -88 -225zM639 1255l238 269l98 -51l-258 -218h-78z" />
<glyph unicode="&#xe2;" horiz-adv-x="1095" d="M59 272q0 172 111 283q119 119 328 119q162 0 354 -62l10 43q19 84 19 140q0 111 -75 172t-212 61q-134 0 -266 -53l-23 76q145 57 293 57q171 0 268 -80.5t97 -222.5q0 -63 -23 -160l-156 -645h-82l48 190q-150 -213 -383 -213q-130 0 -219 78t-89 217zM145 281 q0 -106 66 -168t172 -62q145 0 264 104t158 259l31 127q-158 59 -344 59q-162 0 -259 -94q-88 -88 -88 -225zM459 1260l256 256h63l131 -256h-71l-107 163l-192 -163h-80z" />
<glyph unicode="&#xe3;" horiz-adv-x="1095" d="M59 272q0 172 111 283q119 119 328 119q162 0 354 -62l10 43q19 84 19 140q0 111 -75 172t-212 61q-134 0 -266 -53l-23 76q145 57 293 57q171 0 268 -80.5t97 -222.5q0 -63 -23 -160l-156 -645h-82l48 190q-150 -213 -383 -213q-130 0 -219 78t-89 217zM145 281 q0 -106 66 -168t172 -62q145 0 264 104t158 259l31 127q-158 59 -344 59q-162 0 -259 -94q-88 -88 -88 -225zM428 1270q38 95 80 136.5t98 41.5q28 0 54 -12.5t69 -40.5q63 -47 102 -47q32 0 58 24.5t55 83.5l60 -14q-41 -95 -83 -136.5t-98 -41.5q-49 0 -121 51 q-66 49 -104 49q-62 0 -113 -111z" />
<glyph unicode="&#xe4;" horiz-adv-x="1095" d="M59 272q0 172 111 283q119 119 328 119q162 0 354 -62l10 43q19 84 19 140q0 111 -75 172t-212 61q-134 0 -266 -53l-23 76q145 57 293 57q171 0 268 -80.5t97 -222.5q0 -63 -23 -160l-156 -645h-82l48 190q-150 -213 -383 -213q-130 0 -219 78t-89 217zM145 281 q0 -106 66 -168t172 -62q145 0 264 104t158 259l31 127q-158 59 -344 59q-162 0 -259 -94q-88 -88 -88 -225zM496 1270l36 141h113l-35 -141h-114zM780 1270l35 141h111l-33 -141h-113z" />
<glyph unicode="&#xe5;" horiz-adv-x="1095" d="M59 272q0 172 111 283q119 119 328 119q162 0 354 -62l10 43q19 84 19 140q0 111 -75 172t-212 61q-134 0 -266 -53l-23 76q145 57 293 57q171 0 268 -80.5t97 -222.5q0 -63 -23 -160l-156 -645h-82l48 190q-150 -213 -383 -213q-130 0 -219 78t-89 217zM145 281 q0 -106 66 -168t172 -62q145 0 264 104t158 259l31 127q-158 59 -344 59q-162 0 -259 -94q-88 -88 -88 -225zM537 1434q0 86 65.5 147t153.5 61q81 0 133.5 -50.5t52.5 -127.5q0 -86 -66 -147.5t-155 -61.5q-81 0 -132.5 51.5t-51.5 127.5zM596 1436q0 -55 35 -91t94 -36 q64 0 110 45t46 108q0 54 -34.5 90.5t-92.5 36.5q-64 0 -111 -45.5t-47 -107.5z" />
<glyph unicode="&#xe6;" horiz-adv-x="1822" d="M59 274q0 170 111 281q119 119 330 119q160 0 352 -62l10 43q19 84 19 140q0 111 -75 172t-212 61q-134 0 -266 -53l-23 76q145 57 293 57q155 0 249.5 -67.5t106.5 -190.5q74 119 184.5 192.5t235.5 73.5q166 0 255 -108.5t89 -280.5q0 -103 -30 -211h-777 q-6 -50 -6 -98q0 -168 89 -264.5t237 -96.5q160 0 307 115l45 -61q-165 -131 -350 -131q-145 0 -244 71t-139 201q-205 -275 -475 -275q-135 0 -225.5 79t-90.5 218zM145 281q0 -105 68 -167.5t174 -62.5q241 0 444 287q-12 102 7 201q-160 61 -346 61q-162 0 -259 -94 q-88 -88 -88 -225zM926 592h694q16 78 16 133q0 138 -66.5 225.5t-199.5 87.5q-149 0 -272 -120q-121 -121 -172 -326z" />
<glyph unicode="&#xe7;" horiz-adv-x="1036" d="M109 414q0 153 57 298t156 244q158 158 354 158q121 0 207.5 -55.5t134.5 -140.5l-68 -50q-103 168 -278 168q-156 0 -285 -129q-87 -87 -138.5 -220t-51.5 -265q0 -174 91 -269.5t222 -95.5q149 0 281 119l51 -59q-151 -137 -336 -137h-14l-189 -263l-84 43l203 228 q-137 28 -225 139t-88 287z" />
<glyph unicode="&#xe8;" horiz-adv-x="1116" d="M111 414q0 153 59 301.5t158 247.5q150 153 340 153q164 0 254 -109t90 -280q0 -108 -33 -211h-776q-6 -49 -6 -98q0 -169 89 -265t238 -96q160 0 307 115l43 -61q-165 -131 -352 -131q-185 0 -298 116.5t-113 317.5zM217 592h694q17 66 17 133q0 138 -66.5 225.5 t-197.5 87.5q-150 0 -273 -120q-124 -124 -174 -326zM524 1473l99 51l120 -269h-55z" />
<glyph unicode="&#xe9;" horiz-adv-x="1116" d="M111 414q0 153 59 301.5t158 247.5q150 153 340 153q164 0 254 -109t90 -280q0 -108 -33 -211h-776q-6 -49 -6 -98q0 -169 89 -265t238 -96q160 0 307 115l43 -61q-165 -131 -352 -131q-185 0 -298 116.5t-113 317.5zM217 592h694q17 66 17 133q0 138 -66.5 225.5 t-197.5 87.5q-150 0 -273 -120q-124 -124 -174 -326zM682 1255l238 269l98 -51l-258 -218h-78z" />
<glyph unicode="&#xea;" horiz-adv-x="1116" d="M111 414q0 153 59 301.5t158 247.5q150 153 340 153q164 0 254 -109t90 -280q0 -108 -33 -211h-776q-6 -49 -6 -98q0 -169 89 -265t238 -96q160 0 307 115l43 -61q-165 -131 -352 -131q-185 0 -298 116.5t-113 317.5zM217 592h694q17 66 17 133q0 138 -66.5 225.5 t-197.5 87.5q-150 0 -273 -120q-124 -124 -174 -326zM502 1260l256 256h63l131 -256h-71l-107 163l-192 -163h-80z" />
<glyph unicode="&#xeb;" horiz-adv-x="1116" d="M111 414q0 153 59 301.5t158 247.5q150 153 340 153q164 0 254 -109t90 -280q0 -108 -33 -211h-776q-6 -49 -6 -98q0 -169 89 -265t238 -96q160 0 307 115l43 -61q-165 -131 -352 -131q-185 0 -298 116.5t-113 317.5zM217 592h694q17 66 17 133q0 138 -66.5 225.5 t-197.5 87.5q-150 0 -273 -120q-124 -124 -174 -326zM539 1270l36 141h113l-35 -141h-114zM823 1270l35 141h111l-33 -141h-113z" />
<glyph unicode="&#xec;" horiz-adv-x="497" d="M74 0l264 1092h84l-264 -1092h-84zM213 1470l98 52l121 -269h-55z" />
<glyph unicode="&#xed;" horiz-adv-x="497" d="M74 0l264 1092h84l-264 -1092h-84zM375 1253l237 269l99 -52l-258 -217h-78z" />
<glyph unicode="&#xee;" horiz-adv-x="497" d="M74 0l264 1092h84l-264 -1092h-84zM190 1257l256 256h64l131 -256h-72l-106 164l-193 -164h-80z" />
<glyph unicode="&#xef;" horiz-adv-x="497" d="M74 0l264 1092h84l-264 -1092h-84zM229 1268l37 141h113l-35 -141h-115zM514 1268l35 141h110l-32 -141h-113z" />
<glyph unicode="&#xf0;" horiz-adv-x="1177" d="M113 426q0 154 54.5 295.5t147.5 234.5q145 148 336 148q221 0 338 -215q-48 218 -205 457l-264 -119l-31 65l254 113q-27 39 -100 133h102q47 -63 72 -100l211 96l31 -64l-203 -92q219 -346 219 -663q0 -186 -57.5 -336.5t-157.5 -249.5q-70 -72 -161 -112t-189 -40 q-181 0 -289 124.5t-108 324.5zM201 428q0 -171 83.5 -272t231.5 -101q162 0 289 127q80 83 130 213t50 262q0 162 -92 265.5t-242 103.5q-156 0 -270 -117q-82 -81 -131 -213t-49 -268z" />
<glyph unicode="&#xf1;" d="M59 0l267 1092h82l-50 -207q153 231 373 231q139 0 222 -82.5t83 -224.5q0 -63 -26 -180l-150 -629h-84l154 633q22 99 22 170q0 113 -63 175t-180 62q-133 0 -249.5 -109t-158.5 -278l-158 -653h-84zM487 1270q38 95 80.5 136.5t98.5 41.5q19 0 41.5 -8.5t36.5 -16.5 t44 -28q63 -47 103 -47q32 0 58 24.5t55 83.5l59 -14q-41 -95 -83 -136.5t-97 -41.5q-49 0 -121 51q-66 49 -105 49q-61 0 -112 -111z" />
<glyph unicode="&#xf2;" horiz-adv-x="1193" d="M111 424q0 151 56 293t155 241q158 158 358 158q180 0 290.5 -123.5t110.5 -322.5q0 -153 -56 -295.5t-155 -241.5q-156 -156 -358 -156q-180 0 -290.5 123.5t-110.5 323.5zM199 428q0 -172 87 -272.5t234 -100.5q158 0 287 129q86 86 136 216.5t50 263.5 q0 172 -86.5 272t-232.5 100q-160 0 -289 -129q-86 -86 -136 -215.5t-50 -263.5zM551 1473l98 51l121 -269h-55z" />
<glyph unicode="&#xf3;" horiz-adv-x="1193" d="M111 424q0 151 56 293t155 241q158 158 358 158q180 0 290.5 -123.5t110.5 -322.5q0 -153 -56 -295.5t-155 -241.5q-156 -156 -358 -156q-180 0 -290.5 123.5t-110.5 323.5zM199 428q0 -172 87 -272.5t234 -100.5q158 0 287 129q86 86 136 216.5t50 263.5 q0 172 -86.5 272t-232.5 100q-160 0 -289 -129q-86 -86 -136 -215.5t-50 -263.5zM709 1255l237 269l98 -51l-258 -218h-77z" />
<glyph unicode="&#xf4;" horiz-adv-x="1193" d="M111 424q0 151 56 293t155 241q158 158 358 158q180 0 290.5 -123.5t110.5 -322.5q0 -153 -56 -295.5t-155 -241.5q-156 -156 -358 -156q-180 0 -290.5 123.5t-110.5 323.5zM199 428q0 -172 87 -272.5t234 -100.5q158 0 287 129q86 86 136 216.5t50 263.5 q0 172 -86.5 272t-232.5 100q-160 0 -289 -129q-86 -86 -136 -215.5t-50 -263.5zM526 1260l256 256h64l131 -256h-72l-106 163l-193 -163h-80z" />
<glyph unicode="&#xf5;" horiz-adv-x="1193" d="M111 424q0 151 56 293t155 241q158 158 358 158q180 0 290.5 -123.5t110.5 -322.5q0 -153 -56 -295.5t-155 -241.5q-156 -156 -358 -156q-180 0 -290.5 123.5t-110.5 323.5zM199 428q0 -172 87 -272.5t234 -100.5q158 0 287 129q86 86 136 216.5t50 263.5 q0 172 -86.5 272t-232.5 100q-160 0 -289 -129q-86 -86 -136 -215.5t-50 -263.5zM496 1270q38 95 80 136.5t98 41.5q28 0 54 -12.5t69 -40.5q63 -47 102 -47q32 0 58 24.5t55 83.5l59 -14q-41 -95 -83 -136.5t-97 -41.5q-49 0 -121 51q-66 49 -104 49q-62 0 -113 -111z" />
<glyph unicode="&#xf6;" horiz-adv-x="1193" d="M111 424q0 151 56 293t155 241q158 158 358 158q180 0 290.5 -123.5t110.5 -322.5q0 -153 -56 -295.5t-155 -241.5q-156 -156 -358 -156q-180 0 -290.5 123.5t-110.5 323.5zM199 428q0 -172 87 -272.5t234 -100.5q158 0 287 129q86 86 136 216.5t50 263.5 q0 172 -86.5 272t-232.5 100q-160 0 -289 -129q-86 -86 -136 -215.5t-50 -263.5zM563 1270l37 141h113l-35 -141h-115zM848 1270l35 141h110l-32 -141h-113z" />
<glyph unicode="&#xf7;" d="M184 709l19 82h884l-20 -82h-883zM459 297l39 156h129l-39 -156h-129zM645 1047l39 155h129l-41 -155h-127z" />
<glyph unicode="&#xf8;" horiz-adv-x="1193" d="M-29 -12l197 188q-57 105 -57 248q0 151 56 293t155 241q158 158 358 158q189 0 301 -137l135 125h105l-197 -189q57 -108 57 -245q0 -153 -56 -295.5t-155 -241.5q-156 -156 -358 -156q-193 0 -303 138l-133 -127h-105zM199 428q0 -112 34 -190l689 682 q-85 118 -248 118q-158 0 -289 -131q-87 -85 -136.5 -214.5t-49.5 -264.5zM268 174q87 -119 252 -119q158 0 287 129q87 85 136.5 215t49.5 265q0 109 -35 190z" />
<glyph unicode="&#xf9;" d="M133 285q0 55 27 180l151 627h82l-153 -631q-23 -103 -23 -170q0 -113 63.5 -175.5t178.5 -62.5q135 0 251.5 109t157.5 276l158 654h84l-266 -1092h-84l51 207q-155 -230 -373 -230q-139 0 -222 82.5t-83 225.5zM528 1466l99 52l121 -269h-56z" />
<glyph unicode="&#xfa;" d="M133 285q0 55 27 180l151 627h82l-153 -631q-23 -103 -23 -170q0 -113 63.5 -175.5t178.5 -62.5q135 0 251.5 109t157.5 276l158 654h84l-266 -1092h-84l51 207q-155 -230 -373 -230q-139 0 -222 82.5t-83 225.5zM686 1249l238 269l98 -52l-258 -217h-78z" />
<glyph unicode="&#xfb;" d="M133 285q0 55 27 180l151 627h82l-153 -631q-23 -103 -23 -170q0 -113 63.5 -175.5t178.5 -62.5q135 0 251.5 109t157.5 276l158 654h84l-266 -1092h-84l51 207q-155 -230 -373 -230q-139 0 -222 82.5t-83 225.5zM506 1253l256 256h63l131 -256h-71l-107 164l-192 -164 h-80z" />
<glyph unicode="&#xfc;" d="M133 285q0 55 27 180l151 627h82l-153 -631q-23 -103 -23 -170q0 -113 63.5 -175.5t178.5 -62.5q135 0 251.5 109t157.5 276l158 654h84l-266 -1092h-84l51 207q-155 -230 -373 -230q-139 0 -222 82.5t-83 225.5zM541 1264l37 141h112l-35 -141h-114zM825 1264l35 141 h111l-33 -141h-113z" />
<glyph unicode="&#xfd;" horiz-adv-x="1091" d="M-117 -260l45 67q69 -55 150 -55q69 0 136 55.5t157 198.5l-168 1086h88l145 -986l586 986h96l-669 -1106q-108 -176 -194 -244t-183 -68q-108 0 -189 66zM623 1249l237 269l98 -52l-258 -217h-77z" />
<glyph unicode="&#xfe;" horiz-adv-x="1234" d="M-16 -319l452 1857h84l-166 -670q71 105 174.5 176.5t227.5 71.5q162 0 263 -118.5t101 -311.5q0 -158 -58 -310.5t-159 -256.5q-148 -142 -328 -142q-77 0 -140.5 26t-107 71t-71.5 97.5t-43 113.5l-147 -604h-82zM258 420q0 -158 87.5 -262.5t227.5 -104.5 q152 0 269 117q88 89 138 227.5t50 280.5q0 162 -78 261t-209 99q-159 0 -292 -133q-88 -89 -140.5 -221.5t-52.5 -263.5z" />
<glyph unicode="&#xff;" horiz-adv-x="1091" d="M-117 -260l45 67q69 -55 150 -55q69 0 136 55.5t157 198.5l-168 1086h88l145 -986l586 986h96l-669 -1106q-108 -176 -194 -244t-183 -68q-108 0 -189 66zM481 1264l37 141h113l-35 -141h-115zM766 1264l35 141h110l-32 -141h-113z" />
<glyph unicode="&#x152;" horiz-adv-x="2111" d="M188 596q0 175 65 351t187 298q117 118 280 182t357 64h1121l-21 -82h-768l-152 -616h695l-21 -82h-694l-154 -629h781l-21 -82h-1018q-151 0 -276 43t-207 127q-154 154 -154 426zM279 600q0 -239 131 -373q145 -145 417 -145h168l324 1327h-254q-343 0 -559 -219 q-110 -110 -168.5 -270t-58.5 -320z" />
<glyph unicode="&#x153;" horiz-adv-x="1968" d="M111 424q0 150 56 292t155 242q158 158 358 158q154 0 253.5 -94t125.5 -248q69 146 188 244t273 98q166 0 255 -108.5t89 -280.5q0 -87 -31 -211h-776q-6 -50 -6 -98q0 -169 88 -265t237 -96q163 0 312 117l34 -68q-157 -126 -344 -126q-159 0 -265 87.5t-132 243.5 q-70 -144 -193.5 -239t-277.5 -95q-178 0 -288.5 123.5t-110.5 323.5zM199 428q0 -173 86 -273t233 -100q160 0 289 129q86 87 136 217t50 263q0 173 -86.5 272.5t-232.5 99.5q-160 0 -289 -129q-86 -86 -136 -215.5t-50 -263.5zM1071 592h694q15 73 15 133 q0 138 -66.5 225.5t-197.5 87.5q-148 0 -275 -120q-123 -123 -170 -326z" />
<glyph unicode="&#x178;" horiz-adv-x="1253" d="M279 1491h92l282 -793l670 793h113l-758 -885l-148 -606h-88l152 623zM649 1616l33 139h123l-35 -139h-121zM954 1616l35 139h121l-35 -139h-121z" />
<glyph unicode="&#x2c6;" horiz-adv-x="1112" d="M506 1257l256 256h63l131 -256h-71l-107 164l-192 -164h-80z" />
<glyph unicode="&#x2dc;" horiz-adv-x="1112" d="M465 1268q38 95 80 136.5t98 41.5q28 0 54 -12.5t69 -40.5q63 -47 102 -47q32 0 58 24.5t55 83.5l59 -14q-41 -95 -83 -136.5t-97 -41.5q-49 0 -121 51q-66 49 -104 49q-62 0 -113 -111z" />
<glyph unicode="&#x2000;" horiz-adv-x="930" />
<glyph unicode="&#x2001;" horiz-adv-x="1860" />
<glyph unicode="&#x2002;" horiz-adv-x="930" />
<glyph unicode="&#x2003;" horiz-adv-x="1860" />
<glyph unicode="&#x2004;" horiz-adv-x="620" />
<glyph unicode="&#x2005;" horiz-adv-x="465" />
<glyph unicode="&#x2006;" horiz-adv-x="310" />
<glyph unicode="&#x2007;" horiz-adv-x="310" />
<glyph unicode="&#x2008;" horiz-adv-x="232" />
<glyph unicode="&#x2009;" horiz-adv-x="372" />
<glyph unicode="&#x200a;" horiz-adv-x="103" />
<glyph unicode="&#x2010;" horiz-adv-x="811" d="M162 588l22 88h504l-20 -88h-506z" />
<glyph unicode="&#x2011;" horiz-adv-x="811" d="M162 588l22 88h504l-20 -88h-506z" />
<glyph unicode="&#x2012;" horiz-adv-x="811" d="M162 588l22 88h504l-20 -88h-506z" />
<glyph unicode="&#x2013;" horiz-adv-x="1085" d="M162 590l20 84h783l-21 -84h-782z" />
<glyph unicode="&#x2014;" horiz-adv-x="1742" d="M162 590l20 84h1438l-21 -84h-1437z" />
<glyph unicode="&#x2018;" horiz-adv-x="442" d="M301 1135l33 141q26 99 68.5 146t127.5 73l15 -43q-63 -24 -95 -61.5t-44 -98.5h51l-39 -157h-117z" />
<glyph unicode="&#x2019;" horiz-adv-x="442" d="M262 1176q64 23 96 60t43 97h-51l39 158h119l-35 -141q-24 -98 -67.5 -145.5t-129.5 -74.5z" />
<glyph unicode="&#x201a;" horiz-adv-x="442" d="M-59 -158q63 23 95.5 60.5t43.5 97.5h-51l41 158h116l-34 -142q-24 -98 -67.5 -145t-129.5 -74z" />
<glyph unicode="&#x201c;" horiz-adv-x="745" d="M301 1135l33 141q24 98 67 145t129 74l13 -43q-64 -24 -95 -61.5t-42 -98.5h51l-39 -157h-117zM600 1135l35 141q24 98 67 145t129 74l15 -43q-63 -24 -95 -61.5t-44 -98.5h51l-39 -157h-119z" />
<glyph unicode="&#x201d;" horiz-adv-x="745" d="M260 1176q65 23 96.5 59.5t42.5 97.5h-49l39 158h117l-33 -141q-26 -98 -69 -145.5t-128 -74.5zM563 1176q63 23 95 59.5t44 97.5h-51l39 158h117l-33 -141q-26 -99 -68.5 -146.5t-127.5 -73.5z" />
<glyph unicode="&#x201e;" horiz-adv-x="745" d="M-59 -158q63 23 95.5 60.5t43.5 97.5h-51l41 158h116l-34 -142q-24 -98 -67.5 -145t-129.5 -74zM244 -158q64 23 96 61t41 97h-49l39 158h118l-34 -142q-26 -99 -68.5 -145.5t-128.5 -73.5z" />
<glyph unicode="&#x2022;" horiz-adv-x="921" d="M274 702q0 65 23.5 124.5t64.5 101.5q76 73 173 73q85 0 138.5 -54.5t53.5 -145.5q0 -66 -24.5 -125.5t-65.5 -100.5q-73 -73 -172 -73q-86 0 -138.5 53.5t-52.5 146.5z" />
<glyph unicode="&#x2026;" horiz-adv-x="1243" d="M31 0l39 160h118l-41 -160h-116zM430 0l37 160h121l-39 -160h-119zM829 0l39 160h119l-39 -160h-119z" />
<glyph unicode="&#x202f;" horiz-adv-x="372" />
<glyph unicode="&#x2039;" horiz-adv-x="630" d="M104 535l5 16l428 442l57 -47l-389 -414l178 -405l-66 -35z" />
<glyph unicode="&#x203a;" horiz-adv-x="630" d="M31 137l389 416l-178 405l65 35l213 -444l-4 -14l-428 -443z" />
<glyph unicode="&#x205f;" horiz-adv-x="465" />
<glyph unicode="&#x20ac;" horiz-adv-x="1298" d="M94 535l19 79h159q10 155 47 281h-139l19 78h143q80 227 221 368q170 170 393 170q142 0 240.5 -71.5t149.5 -188.5l-72 -39q-107 220 -330 220q-175 0 -317 -142q-121 -121 -193 -317h567l-20 -78h-571q-40 -121 -50 -281h553l-20 -79h-535q0 -218 95.5 -347.5 t265.5 -128.5q99 0 180.5 41.5t161.5 124.5l55 -57q-89 -93 -186.5 -140.5t-216.5 -47.5q-200 0 -322 149t-121 406h-176z" />
<glyph unicode="&#x2122;" horiz-adv-x="1296" d="M266 1432l17 59h430l-17 -59h-186l-152 -601h-59l154 601h-187zM674 831l168 660h57l123 -383l307 383h72l-166 -660h-59l139 549l-311 -383h-9l-121 383l-141 -549h-59z" />
<glyph unicode="&#x25fc;" horiz-adv-x="1095" d="M0 0v1096h1096v-1096h-1096z" />
<glyph unicode="&#xfb01;" horiz-adv-x="1142" d="M113 0l247 1016h-145l21 76h143l39 153q21 81 45.5 132t64.5 89q74 74 193 74q93 0 170 -41l-21 -74q-75 37 -151 37q-81 0 -136 -52.5t-83 -170.5l-37 -147h321l-18 -76h-322l-247 -1016h-84zM717 0l266 1092h82l-264 -1092h-84zM1040 1368l35 137h103l-35 -137h-103z " />
<glyph unicode="&#xfb02;" horiz-adv-x="1142" d="M113 0l247 1016h-145l21 76h143l39 153q21 81 45.5 132t64.5 89q74 74 193 74q93 0 170 -41l-21 -74q-75 37 -151 37q-81 0 -136 -52.5t-83 -170.5l-37 -147h321l-18 -76h-322l-247 -1016h-84zM717 0l377 1538h82l-375 -1538h-84z" />
<glyph unicode="&#xfb03;" horiz-adv-x="1787" d="M113 0l247 1016h-145l21 76h143l39 153q21 81 45.5 132t64.5 89q74 74 193 74q93 0 170 -41l-21 -74q-75 37 -151 37q-81 0 -136 -52.5t-83 -170.5l-37 -147h321l-18 -76h-322l-247 -1016h-84zM758 0l248 1016h-146l21 76h143l39 153q39 152 111 221q74 74 192 74 q93 0 170 -41l-20 -74q-75 37 -152 37q-81 0 -136 -52.5t-83 -170.5l-37 -147h322l-19 -76h-321l-248 -1016h-84zM1366 0l266 1092h82l-264 -1092h-84zM1690 1368l34 137h103l-35 -137h-102z" />
<glyph unicode="&#xfb04;" horiz-adv-x="1787" d="M113 0l247 1016h-145l21 76h143l39 153q21 81 45.5 132t64.5 89q74 74 193 74q93 0 170 -41l-21 -74q-75 37 -151 37q-81 0 -136 -52.5t-83 -170.5l-37 -147h321l-18 -76h-322l-247 -1016h-84zM758 0l248 1016h-146l21 76h143l39 153q39 152 111 221q74 74 192 74 q93 0 170 -41l-20 -74q-75 37 -152 37q-81 0 -136 -52.5t-83 -170.5l-37 -147h322l-19 -76h-321l-248 -1016h-84zM1366 0l377 1538h82l-375 -1538h-84z" />
</font>
</defs>
</svg>
