<?xml version="1.0" standalone="no"?>
<!DOCTYPE svg PUBLIC "-//W3C//DTD SVG 1.1//EN" "http://www.w3.org/Graphics/SVG/1.1/DTD/svg11.dtd" >
<svg xmlns="http://www.w3.org/2000/svg">
<metadata></metadata>
<defs>
<font id="gotham_ssmextra_light_italic" horiz-adv-x="1419" >
<font-face units-per-em="2048" ascent="1638" descent="-410" />
<missing-glyph horiz-adv-x="655" />
<glyph horiz-adv-x="2048" />
<glyph horiz-adv-x="2048" />
<glyph unicode="&#xd;" horiz-adv-x="2048" />
<glyph unicode=" "  horiz-adv-x="655" />
<glyph unicode="&#x09;" horiz-adv-x="655" />
<glyph unicode="&#xa0;" horiz-adv-x="655" />
<glyph unicode="!" horiz-adv-x="526" d="M57 0l43 160h123l-45 -160h-121zM199 389l223 928l47 174h100l-47 -174l-274 -928h-49z" />
<glyph unicode="&#x22;" horiz-adv-x="833" d="M225 950l203 541h111v-8l-265 -533h-49zM575 950l203 541h111v-8l-264 -533h-50z" />
<glyph unicode="#" horiz-adv-x="1462" d="M102 408l21 81h260l184 523h-280l20 82h287l139 397h84l-139 -397h463l137 397h86l-139 -397h252l-21 -82h-260l-182 -523h278l-20 -81h-287l-141 -408h-84l141 408h-463l-141 -408h-84l141 408h-252zM469 489h461l182 523h-463z" />
<glyph unicode="$" horiz-adv-x="1347" d="M27 262l67 60q156 -192 422 -232l172 639q-101 37 -169 72t-118.5 79t-74 98t-23.5 122q0 163 139.5 277t356.5 114q34 0 92 -4l35 127h86l-39 -139q212 -43 366 -193l-63 -61q-134 134 -332 174l-162 -607q193 -70 284 -155.5t91 -220.5q0 -173 -145 -292.5t-385 -119.5 q-40 0 -58 2l-55 -211h-84l57 219q-141 23 -258.5 88.5t-201.5 163.5zM397 1108q0 -102 73 -165.5t241 -127.5l159 590q-54 4 -79 4q-176 0 -285 -88.5t-109 -212.5zM592 82h51q192 0 307 94.5t115 226.5q0 102 -71 170.5t-234 131.5z" />
<glyph unicode="%" horiz-adv-x="1779" d="M160 0l1462 1491h107l-1463 -1491h-106zM219 1044q0 99 39 190.5t107 158.5q114 114 258 114q127 0 208.5 -88t81.5 -219q0 -99 -38.5 -190t-106.5 -158q-115 -115 -258 -115q-127 0 -209 88t-82 219zM307 1053q0 -107 56 -173.5t153 -66.5q103 0 189 86q56 56 88 134 t32 159q0 107 -56 173.5t-153 66.5q-102 0 -188 -86q-57 -55 -89 -133t-32 -160zM975 291q0 99 38 190t105 158q115 115 260 115q127 0 208 -88.5t81 -219.5q0 -99 -38 -190t-105 -158q-114 -114 -260 -114q-127 0 -208 88t-81 219zM1061 299q0 -107 56 -173.5t153 -66.5 q104 0 190 86q56 56 88.5 134t32.5 159q0 107 -56 173.5t-153 66.5q-101 0 -190 -86q-56 -56 -88.5 -134t-32.5 -159z" />
<glyph unicode="&#x26;" horiz-adv-x="1488" d="M82 350q0 188 141 314t393 190q-108 164 -108 291q0 159 114.5 265t276.5 106q152 0 246 -83.5t94 -215.5q0 -137 -118 -240.5t-373 -173.5l319 -449q132 150 254 363l70 -41q-141 -233 -277 -383l195 -275l-68 -45l-186 263q-131 -130 -261.5 -193t-289.5 -63 q-179 0 -300.5 99.5t-121.5 270.5zM176 358q0 -137 94 -218t244 -81q255 0 496 238l-348 494q-234 -58 -360 -168t-126 -265zM598 1149q0 -126 104 -281q447 118 447 344q0 100 -69.5 163t-182.5 63q-123 0 -211 -83.5t-88 -205.5z" />
<glyph unicode="'" horiz-adv-x="483" d="M225 950l203 541h111v-8l-265 -533h-49z" />
<glyph unicode="(" horiz-adv-x="919" d="M219 465q0 199 80 387.5t238 345.5q205 208 526 334l31 -68q-303 -123 -490 -313q-148 -148 -220.5 -323.5t-72.5 -360.5q0 -117 25.5 -221t74 -191t103.5 -156t129 -139l-51 -51q-373 318 -373 756z" />
<glyph unicode=")" horiz-adv-x="919" d="M-133 -225q300 122 489 311q148 149 220.5 325t72.5 361q0 117 -25.5 221t-74 190.5t-103.5 155t-129 138.5l52 53q372 -317 372 -758q0 -198 -79.5 -386.5t-237.5 -346.5q-207 -207 -526 -332z" />
<glyph unicode="*" horiz-adv-x="946" d="M315 1135l281 55l-217 186l57 56l185 -211l57 272l74 -18l-90 -267l266 90l22 -73l-280 -56l215 -186l-58 -53l-184 211l-55 -275l-76 19l90 266l-266 -90z" />
<glyph unicode="+" horiz-adv-x="1337" d="M205 709l22 82h465l125 469h88l-127 -469h465l-22 -82h-465l-125 -467h-88l127 467h-465z" />
<glyph unicode="," horiz-adv-x="477" d="M-61 -166q122 43 147 166h-53l43 160h123l-39 -140q-29 -105 -74.5 -154.5t-134.5 -74.5z" />
<glyph unicode="-" horiz-adv-x="886" d="M174 584l27 98h557l-25 -98h-559z" />
<glyph unicode="." horiz-adv-x="477" d="M33 0l43 160h123l-43 -160h-123z" />
<glyph unicode="/" horiz-adv-x="1087" d="M-227 -272l1525 1972h97l-1528 -1972h-94z" />
<glyph unicode="0" horiz-adv-x="1538" d="M193 535q0 219 82.5 428t224.5 350q203 203 456 203q160 0 274 -73.5t169 -198.5t55 -288q0 -219 -82.5 -428t-224.5 -350q-203 -203 -457 -203q-160 0 -273.5 73.5t-168.5 198.5t-55 288zM287 535q0 -136 44 -242t138 -171t227 -65q205 0 377 172q131 131 209 327 t78 400q0 136 -44.5 242t-138.5 171t-227 65q-205 0 -377 -172q-131 -131 -208.5 -327t-77.5 -400z" />
<glyph unicode="1" horiz-adv-x="727" d="M219 0l373 1397l-313 -107l-5 82l365 129h72l-402 -1501h-90z" />
<glyph unicode="2" horiz-adv-x="1261" d="M-27 0l15 66l880 702q143 113 206 200.5t63 188.5q0 118 -90 195.5t-246 77.5q-235 0 -434 -220l-64 56q227 245 500 245q193 0 310.5 -99t117.5 -253q0 -122 -72.5 -222.5t-234.5 -229.5l-781 -619h883l-22 -88h-1031z" />
<glyph unicode="3" horiz-adv-x="1286" d="M25 262l75 41q129 -246 437 -246q205 0 342 109t137 280q0 141 -115 218t-323 77h-60l-18 47l686 617h-813l26 86h944l-18 -66l-678 -610q206 -6 334.5 -101t128.5 -261q0 -179 -127 -306q-82 -82 -200 -127t-251 -45q-184 0 -313 76t-194 211z" />
<glyph unicode="4" horiz-adv-x="1384" d="M68 438l1151 1063h81l-280 -1048h244l-21 -80h-244l-100 -373h-90l100 373h-827zM197 453h735l242 903z" />
<glyph unicode="5" horiz-adv-x="1294" d="M47 242l76 47q150 -234 430 -234q108 0 201.5 35.5t157.5 94.5t100.5 137t36.5 163q0 156 -104.5 243t-272.5 87q-173 0 -350 -92l-58 45l238 723h796l-24 -88h-715l-192 -576q60 30 147.5 51t159.5 21q213 0 341 -110t128 -300q0 -195 -144 -342q-81 -81 -197.5 -126.5 t-254.5 -45.5q-176 0 -301 73.5t-199 193.5z" />
<glyph unicode="6" horiz-adv-x="1380" d="M190 498q0 245 83 457.5t223 353.5q207 207 473 207q263 0 428 -199l-68 -57q-154 174 -366 174q-219 0 -398 -179q-113 -113 -186 -275.5t-88 -330.5q66 116 192.5 195.5t290.5 79.5q110 0 201 -35t149.5 -94.5t90.5 -136t32 -160.5q0 -208 -149 -357 q-166 -166 -418 -166q-104 0 -195 36t-155 100q-140 137 -140 387zM291 428q0 -160 104 -264q112 -109 291 -109q99 0 186.5 37t153.5 101q127 127 127 305q0 66 -24 126t-70 108.5t-121 77t-170 28.5q-214 0 -356 -142q-58 -57 -89.5 -127t-31.5 -141z" />
<glyph unicode="7" horiz-adv-x="1228" d="M166 0l1026 1403h-875l25 88h983l-18 -66l-1035 -1425h-106z" />
<glyph unicode="8" horiz-adv-x="1384" d="M102 367q0 168 131 280t336 141q-106 37 -172.5 121t-66.5 197q0 114 69 207t189.5 145.5t267.5 52.5q137 0 247 -46.5t173 -130.5t63 -191q0 -152 -112.5 -258.5t-284.5 -136.5q119 -37 200 -129.5t81 -212.5q0 -186 -164 -306t-416 -120q-240 0 -390.5 110t-150.5 277z M197 377q0 -141 124 -228.5t326 -87.5q217 0 349 97t132 250q0 133 -123 227t-319 94q-216 0 -352.5 -104t-136.5 -248zM424 1102q0 -128 107 -214.5t270 -86.5q201 0 322.5 99t121.5 237q0 128 -110.5 210.5t-280.5 82.5q-190 0 -310 -93.5t-120 -234.5z" />
<glyph unicode="9" horiz-adv-x="1380" d="M80 188l65 58q159 -189 379 -189t396 179q115 112 187 271t87 329q-30 -54 -74 -102t-103.5 -90t-139.5 -66.5t-168 -24.5q-110 0 -201 35.5t-149.5 95.5t-90 137.5t-30.5 163.5q0 103 40 197.5t113 165.5q168 168 416 168q104 0 195 -36t155 -100q139 -136 139 -387 q0 -244 -83.5 -457t-223.5 -354q-207 -207 -471 -207q-132 0 -245 55.5t-193 157.5zM332 985q-1 -68 22.5 -129t70 -110.5t123 -79t173.5 -29.5q103 0 193 38t157 105q57 57 90 132t33 151q0 157 -102 262q-111 111 -291 111q-99 0 -186 -36.5t-150 -99.5 q-130 -130 -133 -315z" />
<glyph unicode=":" horiz-adv-x="495" d="M43 0l43 160h121l-43 -160h-121zM289 920l43 159h121l-43 -159h-121z" />
<glyph unicode=";" horiz-adv-x="495" d="M-53 -166q122 43 147 166h-51l43 160h121l-37 -140q-31 -105 -77 -154.5t-134 -74.5zM289 920l43 159h121l-43 -159h-121z" />
<glyph unicode="&#x3c;" horiz-adv-x="1337" d="M190 717l19 65l1122 510l-26 -102l-994 -447l754 -448l-25 -88z" />
<glyph unicode="=" horiz-adv-x="1337" d="M174 463l25 88h942l-25 -88h-942zM305 948l23 88h942l-23 -88h-942z" />
<glyph unicode="&#x3e;" horiz-adv-x="1337" d="M115 207l26 104l994 447l-754 446l25 88l849 -510l-18 -65z" />
<glyph unicode="?" horiz-adv-x="1144" d="M229 1294q219 215 490 215q195 0 311.5 -104t116.5 -264q0 -103 -45.5 -187t-125.5 -141t-180 -93t-218 -52l-93 -279h-55l68 342l12 10q157 13 277.5 60.5t193 135t72.5 202.5q0 132 -94.5 210t-245.5 78q-124 0 -234 -54t-192 -138zM293 0l43 160h121l-43 -160h-121z " />
<glyph unicode="@" horiz-adv-x="2097" d="M158 475q0 168 53.5 326.5t151 286.5t226 225t285.5 150t322 53q187 0 342 -59t256.5 -161t157 -236t55.5 -286q0 -119 -27.5 -222t-71.5 -173.5t-101 -121t-115.5 -74t-114.5 -23.5q-116 0 -174.5 63t-65.5 164q-73 -107 -175 -168t-222 -61q-144 0 -237 96t-93 252 q0 142 70.5 269.5t186.5 203.5t245 76q137 0 219 -70.5t109 -177.5l67 219l82 -22l-149 -484q-21 -79 -21 -125q0 -77 42 -122.5t122 -45.5q58 0 118.5 33.5t115.5 97t90 172t35 242.5q0 140 -51.5 264.5t-145.5 218.5t-236 148.5t-313 54.5q-193 0 -372.5 -79t-311 -210.5 t-210.5 -314t-79 -379.5q0 -221 96.5 -392.5t279 -268.5t425.5 -97q245 0 453 99l26 -56q-215 -102 -479 -102q-196 0 -358.5 60t-273.5 167t-172.5 258.5t-61.5 331.5zM707 510q0 -125 68 -197.5t181 -72.5q83 0 165 40t142 102.5t97 143t37 158.5q0 130 -75 209.5 t-206 79.5q-112 0 -207 -65t-148.5 -171.5t-53.5 -226.5z" />
<glyph unicode="A" horiz-adv-x="1650" d="M-53 0l1104 1501h88l297 -1501h-95l-79 426h-900l-311 -426h-104zM422 510h821l-170 889z" />
<glyph unicode="B" horiz-adv-x="1560" d="M92 0l400 1491h550q201 0 323 -89.5t122 -246.5q0 -164 -115.5 -269.5t-288.5 -133.5q135 -33 215 -111.5t80 -202.5q0 -193 -165 -315.5t-451 -122.5h-670zM205 84h563q243 0 380.5 96.5t137.5 259.5q0 130 -113 200.5t-296 70.5h-504zM397 795h482q236 0 375 96 t139 256q0 125 -97 192.5t-264 67.5h-471z" />
<glyph unicode="C" horiz-adv-x="1595" d="M211 575q0 190 76.5 368t210.5 314q122 122 277.5 190.5t324.5 68.5q191 0 331.5 -87.5t210.5 -234.5l-77 -41q-154 281 -469 281q-149 0 -284.5 -60.5t-242.5 -165.5q-124 -124 -194 -289t-70 -339q0 -238 146 -380.5t372 -142.5q163 0 287.5 59.5t235.5 170.5l61 -56 q-251 -258 -592 -258q-123 0 -232.5 42t-192.5 118t-131 190.5t-48 251.5z" />
<glyph unicode="D" horiz-adv-x="1665" d="M92 0l400 1491h323q181 0 333.5 -51.5t252.5 -149.5q164 -164 164 -426q0 -169 -60.5 -317.5t-173.5 -261.5q-135 -135 -332.5 -210t-425.5 -75h-481zM205 84h381q205 0 378.5 67t299.5 193q99 99 152.5 231t53.5 283q0 235 -141 373q-176 176 -514 176h-254z" />
<glyph unicode="E" d="M92 0l400 1491h1048l-24 -84h-955l-166 -614h862l-22 -84h-862l-168 -625h966l-22 -84h-1057z" />
<glyph unicode="F" horiz-adv-x="1409" d="M92 0l400 1491h1044l-23 -84h-952l-172 -637h858l-22 -84h-858l-185 -686h-90z" />
<glyph unicode="G" horiz-adv-x="1697" d="M217 600q0 180 73.5 350.5t203.5 300.5q124 124 285.5 194.5t344.5 70.5q362 0 541 -273l-74 -47q-75 112 -185.5 175t-289.5 63q-159 0 -300.5 -62t-252.5 -172q-119 -119 -185.5 -276t-66.5 -322q0 -249 149.5 -398t397.5 -149q250 0 447 129l141 496h-504l23 86h596 l-181 -633q-250 -160 -526 -160q-282 0 -459.5 173.5t-177.5 453.5z" />
<glyph unicode="H" horiz-adv-x="1636" d="M92 0l400 1491h92l-189 -698h981l187 698h92l-400 -1491h-92l191 709h-981l-191 -709h-90z" />
<glyph unicode="I" horiz-adv-x="593" d="M106 0l400 1491h92l-401 -1491h-91z" />
<glyph unicode="J" horiz-adv-x="1179" d="M4 317l82 29q83 -285 334 -285q166 0 276 113q104 104 168 330l264 987h93l-271 -1002q-63 -243 -192 -372q-67 -67 -154.5 -103.5t-181.5 -36.5q-170 0 -275 94.5t-143 245.5z" />
<glyph unicode="K" horiz-adv-x="1542" d="M92 0l400 1491h92l-265 -981l1225 981h135l-823 -655l449 -836h-107l-418 782l-493 -395l-105 -387h-90z" />
<glyph unicode="L" horiz-adv-x="1296" d="M92 0l400 1491h92l-379 -1407h889l-23 -84h-979z" />
<glyph unicode="M" horiz-adv-x="1873" d="M92 0l400 1491h77l373 -893l852 893h98l-401 -1491h-90l356 1329l-842 -876h-6l-372 876l-357 -1329h-88z" />
<glyph unicode="N" horiz-adv-x="1699" d="M92 0l400 1491h83l697 -1341l360 1341h88l-401 -1491h-70l-704 1362l-365 -1362h-88z" />
<glyph unicode="O" horiz-adv-x="1824" d="M219 614q0 182 73.5 353t201.5 299q117 118 266 184t313 66q186 0 333.5 -85t228.5 -231.5t81 -325.5q0 -181 -73 -352t-201 -299q-117 -117 -267 -183.5t-313 -66.5q-186 0 -333.5 85.5t-228.5 231.5t-81 324zM313 616q0 -157 68 -284.5t194 -202t287 -74.5 q145 0 276 58t234 161q118 120 184 276.5t66 323.5q0 156 -68 283.5t-194.5 202t-286.5 74.5q-145 0 -276 -58.5t-234 -161.5q-118 -118 -184 -275t-66 -323z" />
<glyph unicode="P" horiz-adv-x="1443" d="M92 0l400 1491h460q279 0 414 -135q100 -95 100 -264q0 -201 -133 -334q-91 -93 -243 -142t-349 -49h-405l-154 -567h-90zM358 649h387q359 0 521 162q110 110 110 276q0 129 -80 209q-111 111 -346 111h-389z" />
<glyph unicode="Q" horiz-adv-x="1824" d="M219 614q0 182 73.5 353t201.5 299q117 118 266 184t313 66q186 0 333.5 -85t228.5 -231.5t81 -325.5q0 -187 -81 -370t-232 -318l156 -172l-66 -55l-154 176q-219 -162 -477 -162q-186 0 -333.5 85.5t-228.5 231.5t-81 324zM313 616q0 -157 68 -284.5t194 -202 t287 -74.5q229 0 420 144l-256 286l68 58l249 -293q134 121 206.5 286.5t72.5 337.5q0 156 -68 283.5t-194.5 202t-286.5 74.5q-145 0 -276 -58.5t-234 -161.5q-118 -118 -184 -275t-66 -323z" />
<glyph unicode="R" horiz-adv-x="1554" d="M92 0l400 1491h534q269 0 397 -131q95 -92 95 -244q0 -177 -127 -307q-147 -144 -449 -176l332 -633h-107l-323 627h-492l-170 -627h-90zM373 711h467q336 0 483 151q104 101 104 248q0 119 -71 190q-107 107 -334 107h-461z" />
<glyph unicode="S" horiz-adv-x="1388" d="M59 262l70 51q195 -252 533 -252q195 0 319.5 99t124.5 239q0 109 -80.5 177.5t-267.5 140.5q-222 86 -320 169.5t-98 217.5q0 145 109 254q153 153 421 153q159 0 292.5 -60.5t221.5 -162.5l-69 -57q-177 199 -453 199q-193 0 -310.5 -94.5t-117.5 -223.5q0 -45 17 -83 t45 -67.5t76 -58.5t99 -52t126 -52q104 -39 174 -75.5t123.5 -82.5t78.5 -103t25 -130q0 -156 -117 -273q-155 -155 -428 -155q-192 0 -345 74.5t-249 207.5z" />
<glyph unicode="T" horiz-adv-x="1316" d="M311 1407l23 84h1143l-23 -84h-526l-379 -1407h-90l377 1407h-525z" />
<glyph unicode="U" horiz-adv-x="1636" d="M219 449q0 102 33 237l215 805h92l-225 -842q-25 -105 -25 -194q0 -183 118 -289.5t333 -106.5q219 0 381 158q143 147 217 418l229 856h90l-235 -875q-74 -287 -238 -454q-188 -185 -450 -185q-251 0 -393 127.5t-142 344.5z" />
<glyph unicode="V" horiz-adv-x="1550" d="M326 1491h94l219 -1393l969 1393h106l-1059 -1501h-80z" />
<glyph unicode="W" horiz-adv-x="2299" d="M340 1491h94l113 -1360l807 1364h73l84 -1364l834 1360h102l-931 -1501h-76l-90 1335l-801 -1335h-76z" />
<glyph unicode="X" horiz-adv-x="1488" d="M-35 0l785 768l-402 723h98l369 -670l678 670h117l-752 -739l412 -752h-99l-378 700l-709 -700h-119z" />
<glyph unicode="Y" horiz-adv-x="1447" d="M295 1491h100l353 -809l788 809h123l-889 -901l-158 -590h-90l164 610z" />
<glyph unicode="Z" horiz-adv-x="1441" d="M-18 0l14 51l1384 1358h-985l23 82h1128l-14 -51l-1385 -1358h1024l-22 -82h-1167z" />
<glyph unicode="[" horiz-adv-x="931" d="M41 -276l475 1767h576l-21 -68h-491l-439 -1632h494l-19 -67h-575z" />
<glyph unicode="\" horiz-adv-x="1075" d="M334 1700h80l471 -1972h-80z" />
<glyph unicode="]" horiz-adv-x="931" d="M-125 -276l19 67h493l436 1632h-491l18 68h576l-475 -1767h-576z" />
<glyph unicode="^" horiz-adv-x="1093" d="M305 1051l455 446h71l218 -446h-80l-185 366l-383 -366h-96z" />
<glyph unicode="_" horiz-adv-x="1273" d="M-227 -334l22 78h1256l-21 -78h-1257z" />
<glyph unicode="`" horiz-adv-x="1093" d="M645 1485l109 53l112 -270h-59z" />
<glyph unicode="a" horiz-adv-x="1241" d="M66 274q0 152 102 254q134 134 383 134q208 0 428 -62l10 35q17 63 17 115q0 128 -90 197t-254 69q-154 0 -310 -58l-18 80q168 60 336 60q195 0 307.5 -89t112.5 -249q0 -53 -21 -142l-166 -618h-84l55 207q-177 -232 -458 -232q-91 0 -169 32.5t-129.5 102.5t-51.5 164 zM158 287q0 -108 77 -171t197 -63q173 0 316.5 107.5t187.5 273.5l25 94q-199 56 -422 56q-198 0 -303 -105q-78 -81 -78 -192z" />
<glyph unicode="b" d="M68 0l417 1554h86l-190 -704q81 108 202 182t267 74q190 0 314 -129.5t124 -327.5q0 -145 -54.5 -276t-150.5 -226q-174 -174 -405 -174q-92 0 -169.5 28t-130.5 76t-88 104.5t-54 121.5l-82 -303h-86zM283 453q0 -170 109.5 -284t283.5 -114q198 0 342 144 q85 85 131.5 200t46.5 238q0 171 -99 279t-255 108q-103 0 -200.5 -44.5t-176.5 -123.5q-85 -84 -133.5 -190.5t-48.5 -212.5z" />
<glyph unicode="c" horiz-adv-x="1220" d="M119 440q0 134 54 258.5t149 219.5q88 88 200 138t234 50q153 0 261 -74t163 -186l-74 -41q-126 219 -356 219q-99 0 -193.5 -42.5t-167.5 -117.5q-81 -81 -128.5 -191t-47.5 -227q0 -121 55.5 -212t141 -135t186.5 -44q188 0 360 158l60 -55q-195 -183 -424 -183 q-90 0 -174.5 31.5t-151 89t-107 147t-40.5 197.5z" />
<glyph unicode="d" d="M129 430q0 144 54 274.5t149 227.5q174 174 405 174q93 0 171 -28t131.5 -76t89 -104.5t53.5 -121.5l209 778h86l-416 -1554h-86l61 227q-81 -108 -202.5 -181t-268.5 -73q-190 0 -313 129.5t-123 327.5zM221 440q0 -170 98.5 -277.5t255.5 -107.5q103 0 200.5 44.5 t176.5 123.5q85 85 134 191.5t49 212.5q0 169 -110 283t-284 114q-99 0 -187 -38t-155 -105q-86 -86 -132 -201.5t-46 -239.5z" />
<glyph unicode="e" horiz-adv-x="1271" d="M121 426q0 137 56 269t153 229q182 182 418 182q99 0 178 -33.5t129 -91.5t76 -132.5t26 -160.5q0 -89 -27 -178h-913q-4 -54 -4 -80q0 -168 102.5 -271.5t270.5 -103.5q210 0 387 146l49 -60q-195 -166 -436 -166q-206 0 -335.5 126t-129.5 325zM233 588h826 q10 38 10 94q0 96 -34 172t-109 124t-181 48q-196 0 -348 -152q-120 -120 -164 -286z" />
<glyph unicode="f" horiz-adv-x="776" d="M125 0l270 1001h-162l21 78h162l43 162q41 150 119 225q88 88 225 88q117 0 207 -49l-23 -78q-95 50 -188 50q-191 0 -256 -250l-41 -148h391l-21 -78h-391l-268 -1001h-88z" />
<glyph unicode="g" horiz-adv-x="1417" d="M8 -143l64 63q87 -85 203 -133.5t247 -48.5q217 0 342 125q96 99 152 293l43 155q-196 -231 -467 -231q-88 0 -169 30t-144 83t-100.5 133t-37.5 174q0 248 176 424q87 86 200 134t233 48q93 0 169.5 -27t127.5 -74t84 -100t53 -114l78 288h86l-252 -944 q-57 -212 -170 -325q-154 -154 -408 -154q-143 0 -278.5 54t-231.5 147zM233 506q0 -105 53 -184.5t137.5 -119.5t184.5 -40q109 0 208 44t175 120q71 71 111.5 157.5t40.5 171.5q0 94 -47 177t-139 136.5t-209 53.5q-102 0 -196 -39.5t-165 -110.5q-72 -72 -113 -166.5 t-41 -199.5z" />
<glyph unicode="h" horiz-adv-x="1323" d="M68 0l417 1554h86l-188 -698q181 250 428 250q166 0 262 -94.5t96 -251.5q0 -70 -24 -164l-158 -596h-86l160 602q20 78 20 150q0 127 -75.5 200.5t-214.5 73.5q-151 0 -288.5 -117.5t-187.5 -302.5l-161 -606h-86z" />
<glyph unicode="i" horiz-adv-x="542" d="M82 0l291 1079h86l-291 -1079h-86zM438 1370l37 135h111l-37 -135h-111z" />
<glyph unicode="j" horiz-adv-x="540" d="M-240 -330l23 78q50 -16 92 -16q132 0 178 162l320 1185h86l-322 -1194q-30 -115 -97.5 -175t-158.5 -60q-62 0 -121 20zM438 1370l37 135h111l-37 -135h-111z" />
<glyph unicode="k" horiz-adv-x="1210" d="M68 0l417 1554h86l-313 -1167l866 692h125l-604 -479l328 -600h-101l-299 547l-348 -275l-71 -272h-86z" />
<glyph unicode="l" horiz-adv-x="540" d="M82 0l418 1554h86l-418 -1554h-86z" />
<glyph unicode="m" horiz-adv-x="2035" d="M68 0l288 1079h86l-59 -223q84 117 177.5 183.5t219.5 66.5q142 0 224.5 -82t95.5 -205q75 130 190.5 208.5t261.5 78.5q150 0 242 -95t92 -245q0 -52 -28 -170l-158 -596h-86l160 602q22 80 22 156q0 123 -70.5 195.5t-195.5 72.5q-139 0 -267.5 -122t-175.5 -302 l-159 -602h-86l159 602q23 84 23 156q0 123 -70.5 195.5t-195.5 72.5q-138 0 -267 -122t-176 -302l-161 -602h-86z" />
<glyph unicode="n" horiz-adv-x="1327" d="M68 0l288 1079h86l-59 -223q181 250 428 250q166 0 262 -94.5t96 -251.5q0 -70 -24 -164l-158 -596h-86l160 602q20 78 20 150q0 127 -75.5 200.5t-214.5 73.5q-151 0 -288.5 -117.5t-187.5 -302.5l-161 -606h-86z" />
<glyph unicode="o" horiz-adv-x="1368" d="M121 455q0 127 52 247t146 213q87 89 202 140t241 51q214 0 348.5 -135t134.5 -344q0 -129 -51 -249t-145 -214q-88 -88 -203 -138.5t-240 -50.5q-214 0 -349.5 135t-135.5 345zM215 459q0 -184 110 -294t289 -110q103 0 198 43t169 117q80 81 126 188t46 220 q0 182 -110 291.5t-289 109.5q-103 0 -198 -43t-169 -117q-81 -81 -126.5 -187t-45.5 -218z" />
<glyph unicode="p" d="M-25 -340l381 1419h86l-61 -229q81 108 202 182t267 74q190 0 314 -129.5t124 -327.5q0 -145 -54.5 -276t-150.5 -226q-174 -174 -405 -174q-92 0 -169.5 28t-130.5 76t-88 104.5t-54 121.5l-173 -643h-88zM283 453q0 -170 109.5 -284t283.5 -114q198 0 342 144 q85 85 131.5 200t46.5 238q0 171 -99 279t-255 108q-103 0 -200.5 -44.5t-176.5 -123.5q-85 -84 -133.5 -190.5t-48.5 -212.5z" />
<glyph unicode="q" d="M129 430q0 144 54 274.5t149 227.5q174 174 405 174q93 0 171 -28t131.5 -76t89 -104.5t53.5 -121.5l80 303h88l-381 -1419h-86l153 567q-81 -108 -202.5 -181t-268.5 -73q-190 0 -313 129.5t-123 327.5zM221 440q0 -170 98.5 -277.5t255.5 -107.5q103 0 200.5 44.5 t176.5 123.5q85 85 134 191.5t49 212.5q0 169 -110 283t-284 114q-99 0 -187 -38t-155 -105q-86 -86 -132 -201.5t-46 -239.5z" />
<glyph unicode="r" horiz-adv-x="835" d="M68 0l288 1079h86l-84 -315q110 162 252 252q134 84 279 84h20l-22 -94h-8q-118 0 -238.5 -63.5t-219.5 -187.5t-140 -282l-127 -473h-86z" />
<glyph unicode="s" horiz-adv-x="1079" d="M18 160l62 61q173 -164 401 -164q124 0 212.5 66t88.5 158q0 75 -55 125t-195 104q-158 58 -231.5 122t-73.5 165q0 127 110 216t288 89q103 0 208.5 -40t178.5 -104l-56 -63q-69 57 -160.5 92t-179.5 35q-137 0 -217 -63.5t-80 -149.5q0 -70 56 -117t200 -104 q159 -62 229 -127.5t70 -165.5q0 -132 -116.5 -225t-286.5 -93q-125 0 -245 47.5t-208 135.5z" />
<glyph unicode="t" horiz-adv-x="856" d="M190 190q0 47 15 105l188 706h-160l21 78h162l94 355h86l-94 -355h381l-23 -78h-379l-190 -706q-12 -47 -12 -96q0 -138 182 -138q70 0 155 33l-22 -86q-72 -26 -152 -26q-115 0 -183.5 53t-68.5 155z" />
<glyph unicode="u" horiz-adv-x="1323" d="M154 319q0 70 24 164l158 596h88l-162 -602q-20 -78 -20 -147q0 -128 77 -202.5t216 -74.5q150 0 286.5 118t186.5 304l161 604h86l-288 -1079h-86l59 223q-84 -114 -187 -181t-241 -67q-166 0 -262 93.5t-96 250.5z" />
<glyph unicode="v" horiz-adv-x="1216" d="M213 1079h94l160 -981l682 981h104l-774 -1087h-71z" />
<glyph unicode="w" horiz-adv-x="1802" d="M231 1079h88l80 -962l590 968h70l74 -968l591 962h97l-682 -1087h-74l-76 952l-586 -952h-71z" />
<glyph unicode="x" horiz-adv-x="1198" d="M-47 0l602 557l-289 522h99l249 -467l496 467h117l-574 -530l303 -549h-98l-264 496l-526 -496h-115z" />
<glyph unicode="y" horiz-adv-x="1241" d="M-160 -279l47 68q86 -59 185 -59q87 0 171 59t189 209l-225 1081h92l199 -989l671 989h105l-768 -1110q-124 -179 -225.5 -248t-217.5 -69q-125 0 -223 69z" />
<glyph unicode="z" horiz-adv-x="1153" d="M-31 0l13 49l1032 955h-748l21 75h889l-15 -49l-1032 -952h782l-20 -78h-922z" />
<glyph unicode="{" horiz-adv-x="1026" d="M147 575l19 70h57q153 0 230 80q85 83 131 322q24 110 56 188.5t91 138.5q134 134 416 148l-6 -68q-232 -14 -340 -125q-87 -84 -129 -285q-12 -56 -17 -77.5t-19.5 -72.5t-26.5 -79t-33 -64t-46 -61q-69 -66 -186 -84q145 -39 145 -168q0 -55 -22 -135 q-45 -145 -45 -244q0 -114 62 -188t204 -113l-24 -59q-171 39 -250.5 131.5t-79.5 222.5q0 56 10 107t37 147q22 80 22 131q0 137 -198 137h-58z" />
<glyph unicode="|" horiz-adv-x="618" d="M53 -272l529 1972h77l-530 -1972h-76z" />
<glyph unicode="}" horiz-adv-x="1026" d="M-86 -299l6 68q231 14 342 122q83 85 129 287q13 61 17 78.5t19 71t26.5 79.5t32.5 62t46 61q65 67 185 86q-146 39 -146 168q0 56 25 136q45 166 45 243q0 114 -63 188t-205 113l26 60q170 -40 250 -132.5t80 -222.5q0 -38 -6.5 -79.5t-13.5 -70t-27 -104.5 q-25 -80 -25 -131q0 -137 199 -137h59l-20 -69h-57q-153 0 -230 -80q-36 -36 -64.5 -101t-40.5 -109.5t-26 -111.5q-22 -109 -54.5 -188.5t-92.5 -139.5q-133 -133 -416 -147z" />
<glyph unicode="~" horiz-adv-x="995" d="M201 553q48 103 97 150t112 47q40 0 70 -18.5t69 -57.5q39 -37 60.5 -51.5t45.5 -14.5q34 0 64.5 31t68.5 102l64 -26q-46 -102 -95.5 -149.5t-111.5 -47.5q-40 0 -70 18.5t-71 57.5q-29 28 -41 38.5t-30 20t-36 9.5q-34 0 -63.5 -31.5t-69.5 -104.5z" />
<glyph unicode="&#xa1;" horiz-adv-x="526" d="M68 0l47 174l276 928h47l-223 -928l-47 -174h-100zM416 1331l43 160h121l-43 -160h-121z" />
<glyph unicode="&#xa2;" horiz-adv-x="1218" d="M178 649q0 136 54 261t149 220q90 90 203.5 139.5t238.5 49.5q24 0 64 -4l76 188h88l-82 -203q104 -28 176 -91t112 -146l-71 -41q-45 77 -103 129.5t-147 75.5l-375 -951q41 -8 94 -8q211 0 381 160l58 -57q-195 -183 -445 -183q-54 0 -114 13l-84 -213h-86l94 237 q-128 52 -204.5 164.5t-76.5 259.5zM272 651q0 -123 59 -216t161 -136l366 938q-6 0 -20 1t-21 1q-208 0 -368 -160q-83 -83 -130 -194.5t-47 -233.5z" />
<glyph unicode="&#xa3;" horiz-adv-x="1341" d="M6 0l12 45l195 35l156 579h-187l23 84h186l76 277q63 233 176 346q144 141 338 141q136 0 234 -63t157 -172l-76 -45q-58 97 -133 147.5t-186 50.5q-154 0 -264 -110q-104 -104 -160 -311l-72 -261h637l-22 -84h-637l-154 -577h797l-23 -82h-1073z" />
<glyph unicode="&#xa5;" horiz-adv-x="1511" d="M180 262l23 80h444l64 244h-445l23 80h407l-364 825h102l350 -809l785 809h121l-811 -825h397l-23 -80h-450l-64 -244h449l-21 -80h-450l-70 -262h-92l70 262h-445z" />
<glyph unicode="&#xa7;" horiz-adv-x="1359" d="M158 152l59 65q71 -68 182 -113t240 -45q118 0 194 49t76 128q0 73 -75.5 125.5t-237.5 109.5q-98 34 -163 63t-119 65.5t-79.5 80t-25.5 96.5q0 121 120.5 195t309.5 69q-85 38 -129.5 93t-44.5 120q0 116 106.5 187t268.5 71q141 0 267 -49.5t202 -122.5l-60 -65 q-71 67 -182.5 112.5t-239.5 45.5q-118 0 -195 -49t-77 -128q0 -73 75.5 -125t237.5 -110q99 -34 164.5 -63t119.5 -65.5t79.5 -80t25.5 -96.5q0 -121 -120.5 -195t-311.5 -69q176 -77 176 -213q0 -116 -106.5 -187t-267.5 -71q-142 0 -268.5 49.5t-200.5 122.5zM301 784 q0 -67 66 -118.5t229 -106.5q122 -45 248 -45q143 0 232 57t89 136q0 67 -66 118.5t-229 106.5q-125 45 -247 45q-143 0 -232.5 -57t-89.5 -136z" />
<glyph unicode="&#xa8;" horiz-adv-x="1093" d="M500 1280l41 152h127l-41 -152h-127zM825 1280l41 152h127l-41 -152h-127z" />
<glyph unicode="&#xa9;" horiz-adv-x="1796" d="M186 653q0 171 66.5 333.5t187.5 283.5q246 246 594 246q153 0 282 -52t216.5 -143t136.5 -215.5t49 -267.5q0 -171 -66.5 -333.5t-187.5 -283.5q-246 -246 -594 -246q-153 0 -282 52t-216.5 143t-136.5 215.5t-49 267.5zM246 651q0 -128 43 -241t121.5 -198.5 t199.5 -135t267 -49.5q315 0 542 227q115 115 177.5 266t62.5 320q0 128 -43 241t-121.5 198.5t-199.5 135t-267 49.5q-316 0 -543 -227q-115 -115 -177 -266t-62 -320zM578 668q0 101 38 194t109 164q135 135 309 135q101 0 176 -46t115 -124l-68 -35q-74 134 -223 134 q-146 0 -252 -109q-127 -127 -127 -309q0 -117 69 -183.5t173 -66.5q78 0 137.5 30.5t114.5 84.5l51 -50q-135 -135 -307 -135q-135 0 -225 85.5t-90 230.5z" />
<glyph unicode="&#xaa;" horiz-adv-x="878" d="M158 641l16 68h522l-18 -68h-520zM262 1036q0 100 77 160.5t200 60.5q102 0 217 -34l4 16q10 30 10 61q0 64 -46 98t-132 34q-80 0 -168 -31l-12 61q102 37 192 37q110 0 174 -50t64 -138q0 -21 -13 -80l-92 -342h-71l30 115q-98 -127 -250 -127q-77 0 -130.5 43.5 t-53.5 115.5zM338 1042q0 -50 35 -79t90 -29q90 0 167.5 59t102.5 144l10 34q-107 29 -206 29q-90 0 -144.5 -43t-54.5 -115z" />
<glyph unicode="&#xab;" horiz-adv-x="1091" d="M109 535l4 16l467 442l61 -49l-426 -414l195 -399l-70 -39zM520 535l4 16l469 442l62 -49l-426 -414l194 -399l-69 -39z" />
<glyph unicode="&#xad;" horiz-adv-x="886" d="M174 584l27 98h557l-25 -98h-559z" />
<glyph unicode="&#xae;" horiz-adv-x="915" d="M248 1094q0 177 123 297q117 120 286 120q148 0 239 -93t91 -232q0 -176 -121 -297q-120 -123 -286 -123q-148 0 -240 94.5t-92 233.5zM289 1096q0 -125 79 -208t214 -83q148 0 252 104q114 114 114 275q0 124 -80 207.5t-215 83.5q-145 0 -252 -107q-112 -112 -112 -272 zM430 961l100 372h136q70 0 102.5 -30.5t32.5 -75.5q0 -46 -32 -81t-93 -44l65 -141h-55l-63 139h-101l-37 -139h-55zM535 1145h92q69 0 98 29q20 17 20 51q0 59 -86 59h-88z" />
<glyph unicode="&#xaf;" horiz-adv-x="1093" d="M446 1323l23 82h618l-22 -82h-619z" />
<glyph unicode="&#xb0;" horiz-adv-x="849" d="M225 1143q0 71 29 137t80 117q99 104 241 104q116 0 191.5 -75.5t75.5 -188.5q0 -71 -29 -137t-80 -117q-104 -104 -241 -104q-116 0 -191.5 75.5t-75.5 188.5zM305 1149q0 -87 54 -142t139 -55q102 0 178 76q84 84 84 203q0 88 -53 142t-138 54q-104 0 -178 -77 q-86 -83 -86 -201z" />
<glyph unicode="&#xb1;" horiz-adv-x="1337" d="M35 0l20 84h983l-22 -84h-981zM240 772l20 84h449l116 438h88l-116 -438h448l-22 -84h-449l-119 -438h-86l119 438h-448z" />
<glyph unicode="&#xb2;" horiz-adv-x="860" d="M240 907l14 62l467 350q82 60 121 111t39 112q0 66 -48 105t-126 39q-127 0 -242 -125l-47 38q131 152 297 152q105 0 170 -56.5t67 -146.5q0 -73 -45 -136t-143 -136l-404 -301h478l-19 -68h-579z" />
<glyph unicode="&#xb3;" horiz-adv-x="860" d="M268 1042l60 33q73 -125 225 -125q104 0 176 56t72 141q0 77 -56.5 117.5t-156.5 40.5h-43l-21 41l373 317h-438l18 66h535l-17 -58l-368 -311q108 -3 177.5 -56t69.5 -149q0 -113 -95.5 -190.5t-225.5 -77.5q-101 0 -173.5 40.5t-111.5 114.5z" />
<glyph unicode="&#xb4;" horiz-adv-x="1093" d="M559 1268l260 270l107 -53l-281 -217h-86z" />
<glyph unicode="&#xb5;" horiz-adv-x="1433" d="M-25 -340l381 1419h86l-149 -559q-23 -87 -23 -153q0 -144 83 -228t229 -84q155 0 273.5 97.5t164.5 273.5l176 653h86l-213 -796q-16 -56 -16 -109q0 -111 123 -111q46 0 90 13l-21 -80q-37 -12 -84 -12q-98 0 -150 49.5t-48 144.5q-140 -203 -388 -203 q-146 0 -241.5 77.5t-120.5 213.5h-2q-29 -158 -72 -321l-76 -285h-88z" />
<glyph unicode="&#xb6;" horiz-adv-x="1046" d="M238 961q0 211 135 346q184 184 551 184h141l-401 -1491h-93l152 569q-261 10 -387 136q-98 98 -98 256z" />
<glyph unicode="&#xb7;" horiz-adv-x="477" d="M180 551l43 160h121l-43 -160h-121z" />
<glyph unicode="&#xb8;" horiz-adv-x="1093" d="M172 -264l264 282h76l-256 -329z" />
<glyph unicode="&#xb9;" horiz-adv-x="700" d="M444 1659l252 86h60l-224 -838h-71l203 758l-218 -74z" />
<glyph unicode="&#xba;" horiz-adv-x="878" d="M160 641l18 68h576l-17 -68h-577zM279 1143q0 146 108 254q109 104 248 104q121 0 196.5 -76t75.5 -194q0 -145 -106 -254q-107 -107 -250 -107q-120 0 -196 77.5t-76 195.5zM354 1147q0 -94 56.5 -151.5t146.5 -57.5q106 0 188 82q86 86 86 207q0 93 -56 151t-146 58 q-108 0 -187 -82q-40 -39 -64 -94t-24 -113z" />
<glyph unicode="&#xbb;" horiz-adv-x="1091" d="M35 139l426 414l-195 399l70 39l233 -442l-4 -17l-469 -440zM449 139l425 414l-194 399l70 39l231 -442l-4 -17l-467 -440z" />
<glyph unicode="&#xbc;" horiz-adv-x="1775" d="M113 0l723 758l688 733h90l-725 -758l-688 -733h-88zM322 1419l251 86h62l-225 -835h-72l203 757l-217 -73zM903 258l572 578h88l-154 -580h121l-17 -61h-122l-52 -199h-67l53 199h-414zM989 256h352l132 487h-3z" />
<glyph unicode="&#xbd;" horiz-adv-x="1775" d="M92 0l723 758l688 733h90l-725 -758l-688 -733h-88zM322 1419l251 86h62l-225 -835h-72l203 757l-217 -73zM874 0l15 61l467 351q82 60 121 111t39 112q0 65 -48 104t-127 39q-126 0 -241 -125l-47 39q131 152 297 152q105 0 170 -56.5t67 -146.5q0 -73 -45 -136 t-143 -136l-404 -301h478l-19 -68h-580z" />
<glyph unicode="&#xbe;" horiz-adv-x="1935" d="M154 803l59 35q73 -125 225 -125q104 0 176 55.5t72 140.5q0 77 -56.5 116.5t-156.5 39.5h-43l-20 43l372 315h-438l18 68h535l-16 -59l-369 -310q109 -3 178.5 -55.5t69.5 -148.5q0 -114 -96 -192.5t-226 -78.5q-100 0 -172 41.5t-112 114.5zM262 0l723 758l688 733h90 l-725 -758l-688 -733h-88zM1063 258l571 578h88l-153 -580h121l-17 -61h-123l-51 -199h-67l53 199h-414zM1149 256h352l131 487h-2z" />
<glyph unicode="&#xbf;" horiz-adv-x="1144" d="M109 350q0 103 45.5 187t125 141t179.5 93t217 52l94 279h53l-65 -342l-13 -10q-157 -13 -277 -60.5t-192.5 -135t-72.5 -202.5q0 -132 94.5 -210.5t245.5 -78.5q124 0 232.5 54t193.5 139l57 -59q-219 -215 -491 -215q-195 0 -310.5 103.5t-115.5 264.5zM797 1331 l45 160h121l-43 -160h-123z" />
<glyph unicode="&#xc0;" horiz-adv-x="1650" d="M-53 0l1104 1501h88l297 -1501h-95l-79 426h-900l-311 -426h-104zM422 510h821l-170 889zM895 1837l102 49l140 -237h-66z" />
<glyph unicode="&#xc1;" horiz-adv-x="1650" d="M-53 0l1104 1501h88l297 -1501h-95l-79 426h-900l-311 -426h-104zM422 510h821l-170 889zM1081 1649l267 237l102 -49l-276 -188h-93z" />
<glyph unicode="&#xc2;" horiz-adv-x="1650" d="M-53 0l1104 1501h88l297 -1501h-95l-79 426h-900l-311 -426h-104zM422 510h821l-170 889zM860 1645l281 221h80l161 -221h-86l-131 137l-207 -137h-98z" />
<glyph unicode="&#xc3;" horiz-adv-x="1650" d="M-53 0l1104 1501h88l297 -1501h-95l-79 426h-900l-311 -426h-104zM422 510h821l-170 889zM840 1655q42 95 89 136.5t107 41.5q49 0 133 -45q88 -45 123 -45q38 0 67 23t64 83l62 -18q-43 -93 -91 -134.5t-108 -41.5q-36 0 -133 45q-88 45 -123 45q-38 0 -66.5 -23.5 t-62.5 -83.5z" />
<glyph unicode="&#xc4;" horiz-adv-x="1650" d="M-53 0l1104 1501h88l297 -1501h-95l-79 426h-900l-311 -426h-104zM422 510h821l-170 889zM899 1661l39 143h135l-41 -143h-133zM1249 1661l41 143h133l-41 -143h-133z" />
<glyph unicode="&#xc5;" horiz-adv-x="1650" d="M-53 0l1052 1432q-50 20 -77 60.5t-27 94.5q0 94 77 157.5t177 63.5q89 0 144 -48.5t55 -123.5q0 -79 -56.5 -139t-138.5 -78l283 -1419h-95l-79 426h-900l-311 -426h-104zM422 510h821l-170 889zM965 1593q0 -55 37 -87.5t100 -32.5q69 0 122.5 45t53.5 112 q0 53 -36.5 87t-100.5 34q-69 0 -122.5 -45.5t-53.5 -112.5z" />
<glyph unicode="&#xc6;" horiz-adv-x="2250" d="M-70 0l1317 1491h1125l-23 -84h-932l-164 -614h836l-23 -84h-835l-168 -625h942l-23 -84h-1034l115 426h-647l-375 -426h-111zM489 510h596l242 899h-49z" />
<glyph unicode="&#xc7;" horiz-adv-x="1595" d="M211 575q0 190 76.5 368t210.5 314q122 122 277.5 190.5t324.5 68.5q191 0 331.5 -87.5t210.5 -234.5l-77 -41q-154 281 -469 281q-149 0 -284.5 -60.5t-242.5 -165.5q-124 -124 -194 -289t-70 -339q0 -238 146 -380.5t372 -142.5q163 0 287.5 59.5t235.5 170.5l61 -56 q-251 -258 -592 -258h-10l-221 -284l-84 47l227 244q-146 19 -261.5 93.5t-185 205t-69.5 296.5z" />
<glyph unicode="&#xc8;" d="M92 0l400 1491h1048l-24 -84h-955l-166 -614h862l-22 -84h-862l-168 -625h966l-22 -84h-1057zM799 1819l102 49l139 -238h-65z" />
<glyph unicode="&#xc9;" d="M92 0l400 1491h1048l-24 -84h-955l-166 -614h862l-22 -84h-862l-168 -625h966l-22 -84h-1057zM985 1630l266 238l103 -49l-277 -189h-92z" />
<glyph unicode="&#xca;" d="M92 0l400 1491h1048l-24 -84h-955l-166 -614h862l-22 -84h-862l-168 -625h966l-22 -84h-1057zM764 1630l280 221h80l162 -221h-86l-131 137l-207 -137h-98z" />
<glyph unicode="&#xcb;" d="M92 0l400 1491h1048l-24 -84h-955l-166 -614h862l-22 -84h-862l-168 -625h966l-22 -84h-1057zM801 1642l39 144h135l-41 -144h-133zM1151 1642l41 144h133l-41 -144h-133z" />
<glyph unicode="&#xcc;" horiz-adv-x="593" d="M106 0l400 1491h92l-401 -1491h-91zM346 1819l103 49l139 -238h-66z" />
<glyph unicode="&#xcd;" horiz-adv-x="593" d="M106 0l400 1491h92l-401 -1491h-91zM532 1630l267 238l102 -49l-276 -189h-93z" />
<glyph unicode="&#xce;" horiz-adv-x="593" d="M106 0l400 1491h92l-401 -1491h-91zM313 1630l281 221h80l162 -221h-86l-132 137l-206 -137h-99z" />
<glyph unicode="&#xcf;" horiz-adv-x="593" d="M106 0l400 1491h92l-401 -1491h-91zM350 1642l39 144h135l-41 -144h-133zM700 1642l41 144h133l-40 -144h-134z" />
<glyph unicode="&#xd0;" horiz-adv-x="1730" d="M156 0l188 707h-160l23 86h160l188 698h324q182 0 334.5 -51.5t250.5 -149.5q164 -164 164 -426q0 -169 -60 -317t-171 -262q-137 -135 -334 -210t-426 -75h-481zM270 84h379q205 0 378.5 67t299.5 193q99 99 153 231t54 283q0 235 -141 373q-173 176 -514 176h-254 l-166 -614h506l-23 -86h-506z" />
<glyph unicode="&#xd1;" horiz-adv-x="1699" d="M92 0l400 1491h83l697 -1341l360 1341h88l-401 -1491h-70l-704 1362l-365 -1362h-88zM844 1626q42 95 89 136.5t107 41.5q50 0 134 -45q88 -45 122 -45q38 0 67 23.5t64 83.5l62 -19q-43 -93 -91 -134.5t-108 -41.5q-36 0 -133 45q-88 45 -123 45q-39 0 -67 -23t-62 -83z " />
<glyph unicode="&#xd2;" horiz-adv-x="1824" d="M219 614q0 182 73.5 353t201.5 299q117 118 266 184t313 66q186 0 333.5 -85t228.5 -231.5t81 -325.5q0 -181 -73 -352t-201 -299q-117 -117 -267 -183.5t-313 -66.5q-186 0 -333.5 85.5t-228.5 231.5t-81 324zM313 616q0 -157 68 -284.5t194 -202t287 -74.5 q145 0 276 58t234 161q118 120 184 276.5t66 323.5q0 156 -68 283.5t-194.5 202t-286.5 74.5q-145 0 -276 -58.5t-234 -161.5q-118 -118 -184 -275t-66 -323zM942 1837l102 49l140 -237h-66z" />
<glyph unicode="&#xd3;" horiz-adv-x="1824" d="M219 614q0 182 73.5 353t201.5 299q117 118 266 184t313 66q186 0 333.5 -85t228.5 -231.5t81 -325.5q0 -181 -73 -352t-201 -299q-117 -117 -267 -183.5t-313 -66.5q-186 0 -333.5 85.5t-228.5 231.5t-81 324zM313 616q0 -157 68 -284.5t194 -202t287 -74.5 q145 0 276 58t234 161q118 120 184 276.5t66 323.5q0 156 -68 283.5t-194.5 202t-286.5 74.5q-145 0 -276 -58.5t-234 -161.5q-118 -118 -184 -275t-66 -323zM1128 1649l267 237l102 -49l-276 -188h-93z" />
<glyph unicode="&#xd4;" horiz-adv-x="1824" d="M219 614q0 182 73.5 353t201.5 299q117 118 266 184t313 66q186 0 333.5 -85t228.5 -231.5t81 -325.5q0 -181 -73 -352t-201 -299q-117 -117 -267 -183.5t-313 -66.5q-186 0 -333.5 85.5t-228.5 231.5t-81 324zM313 616q0 -157 68 -284.5t194 -202t287 -74.5 q145 0 276 58t234 161q118 120 184 276.5t66 323.5q0 156 -68 283.5t-194.5 202t-286.5 74.5q-145 0 -276 -58.5t-234 -161.5q-118 -118 -184 -275t-66 -323zM909 1649l281 221h80l162 -221h-86l-132 137l-206 -137h-99z" />
<glyph unicode="&#xd5;" horiz-adv-x="1824" d="M219 614q0 182 73.5 353t201.5 299q117 118 266 184t313 66q186 0 333.5 -85t228.5 -231.5t81 -325.5q0 -181 -73 -352t-201 -299q-117 -117 -267 -183.5t-313 -66.5q-186 0 -333.5 85.5t-228.5 231.5t-81 324zM313 616q0 -157 68 -284.5t194 -202t287 -74.5 q145 0 276 58t234 161q118 120 184 276.5t66 323.5q0 156 -68 283.5t-194.5 202t-286.5 74.5q-145 0 -276 -58.5t-234 -161.5q-118 -118 -184 -275t-66 -323zM887 1655q42 95 89 136.5t107 41.5q50 0 134 -45q88 -45 122 -45q38 0 67 23t64 83l62 -18q-43 -93 -91 -134.5 t-108 -41.5q-36 0 -133 45q-88 45 -123 45q-38 0 -66.5 -23.5t-62.5 -83.5z" />
<glyph unicode="&#xd6;" horiz-adv-x="1824" d="M219 614q0 182 73.5 353t201.5 299q117 118 266 184t313 66q186 0 333.5 -85t228.5 -231.5t81 -325.5q0 -181 -73 -352t-201 -299q-117 -117 -267 -183.5t-313 -66.5q-186 0 -333.5 85.5t-228.5 231.5t-81 324zM313 616q0 -157 68 -284.5t194 -202t287 -74.5 q145 0 276 58t234 161q118 120 184 276.5t66 323.5q0 156 -68 283.5t-194.5 202t-286.5 74.5q-145 0 -276 -58.5t-234 -161.5q-118 -118 -184 -275t-66 -323zM946 1661l39 143h135l-41 -143h-133zM1296 1661l41 143h133l-40 -143h-134z" />
<glyph unicode="&#xd7;" horiz-adv-x="1337" d="M164 360l502 398l-289 389l72 55l286 -395l500 399l47 -67l-502 -394l289 -391l-72 -55l-284 395l-500 -397z" />
<glyph unicode="&#xd8;" horiz-adv-x="1824" d="M2 -12l320 266q-103 159 -103 360q0 182 73.5 353t201.5 299q117 118 266 184t313 66q152 0 279.5 -58.5t214.5 -161.5l245 205h121l-319 -266q102 -158 102 -361q0 -181 -73 -352t-201 -299q-117 -117 -267 -183.5t-313 -66.5q-152 0 -279 58t-214 162l-246 -205h-121z M313 616q0 -170 78 -305l1108 930q-72 91 -181.5 142t-244.5 51q-145 0 -276 -58.5t-234 -161.5q-118 -118 -184 -275t-66 -323zM434 248q74 -91 183.5 -142t244.5 -51q145 0 276 58t234 161q118 120 184 276.5t66 323.5q0 165 -78 302z" />
<glyph unicode="&#xd9;" horiz-adv-x="1636" d="M219 449q0 102 33 237l215 805h92l-225 -842q-25 -105 -25 -194q0 -183 118 -289.5t333 -106.5q219 0 381 158q143 147 217 418l229 856h90l-235 -875q-74 -287 -238 -454q-188 -185 -450 -185q-251 0 -393 127.5t-142 344.5zM846 1808l102 50l139 -238h-65z" />
<glyph unicode="&#xda;" horiz-adv-x="1636" d="M219 449q0 102 33 237l215 805h92l-225 -842q-25 -105 -25 -194q0 -183 118 -289.5t333 -106.5q219 0 381 158q143 147 217 418l229 856h90l-235 -875q-74 -287 -238 -454q-188 -185 -450 -185q-251 0 -393 127.5t-142 344.5zM1032 1620l266 238l103 -50l-277 -188h-92z " />
<glyph unicode="&#xdb;" horiz-adv-x="1636" d="M219 449q0 102 33 237l215 805h92l-225 -842q-25 -105 -25 -194q0 -183 118 -289.5t333 -106.5q219 0 381 158q143 147 217 418l229 856h90l-235 -875q-74 -287 -238 -454q-188 -185 -450 -185q-251 0 -393 127.5t-142 344.5zM813 1620l281 221h80l161 -221h-86l-131 137 l-207 -137h-98z" />
<glyph unicode="&#xdc;" horiz-adv-x="1636" d="M219 449q0 102 33 237l215 805h92l-225 -842q-25 -105 -25 -194q0 -183 118 -289.5t333 -106.5q219 0 381 158q143 147 217 418l229 856h90l-235 -875q-74 -287 -238 -454q-188 -185 -450 -185q-251 0 -393 127.5t-142 344.5zM850 1632l39 144h135l-41 -144h-133z M1200 1632l41 144h133l-41 -144h-133z" />
<glyph unicode="&#xdd;" horiz-adv-x="1447" d="M295 1491h100l353 -809l788 809h123l-889 -901l-158 -590h-90l164 610zM928 1620l266 238l102 -50l-276 -188h-92z" />
<glyph unicode="&#xde;" horiz-adv-x="1452" d="M92 0l400 1491h90l-74 -277h371q280 0 413 -133q101 -101 101 -266q0 -201 -131 -332q-93 -93 -245 -142.5t-349 -49.5h-406l-80 -291h-90zM285 373h387q359 0 520 164q111 111 111 274q0 131 -80 211q-108 108 -346 108h-390z" />
<glyph unicode="&#xdf;" horiz-adv-x="1318" d="M68 0l288 1075q59 223 183 350q147 144 338 144q169 0 278 -95.5t109 -244.5q0 -332 -455 -449q73 -19 131.5 -47.5t107 -70.5t75 -101.5t26.5 -132.5q0 -191 -184.5 -313t-495.5 -119l23 78q138 1 247.5 29.5t178 77.5t104 112.5t35.5 136.5q0 240 -389 311l20 78 q243 53 362 152.5t119 255.5q0 114 -79.5 188t-217.5 74q-155 0 -269 -117.5t-169 -322.5l-280 -1049h-86z" />
<glyph unicode="&#xe0;" horiz-adv-x="1241" d="M66 274q0 152 102 254q134 134 383 134q208 0 428 -62l10 35q17 63 17 115q0 128 -90 197t-254 69q-154 0 -310 -58l-18 80q168 60 336 60q195 0 307.5 -89t112.5 -249q0 -53 -21 -142l-166 -618h-84l55 207q-177 -232 -458 -232q-91 0 -169 32.5t-129.5 102.5t-51.5 164 zM158 287q0 -108 77 -171t197 -63q173 0 316.5 107.5t187.5 273.5l25 94q-199 56 -422 56q-198 0 -303 -105q-78 -81 -78 -192zM563 1485l109 53l112 -270h-59z" />
<glyph unicode="&#xe1;" horiz-adv-x="1241" d="M66 274q0 152 102 254q134 134 383 134q208 0 428 -62l10 35q17 63 17 115q0 128 -90 197t-254 69q-154 0 -310 -58l-18 80q168 60 336 60q195 0 307.5 -89t112.5 -249q0 -53 -21 -142l-166 -618h-84l55 207q-177 -232 -458 -232q-91 0 -169 32.5t-129.5 102.5t-51.5 164 zM158 287q0 -108 77 -171t197 -63q173 0 316.5 107.5t187.5 273.5l25 94q-199 56 -422 56q-198 0 -303 -105q-78 -81 -78 -192zM727 1268l260 270l107 -53l-281 -217h-86z" />
<glyph unicode="&#xe2;" horiz-adv-x="1241" d="M66 274q0 152 102 254q134 134 383 134q208 0 428 -62l10 35q17 63 17 115q0 128 -90 197t-254 69q-154 0 -310 -58l-18 80q168 60 336 60q195 0 307.5 -89t112.5 -249q0 -53 -21 -142l-166 -618h-84l55 207q-177 -232 -458 -232q-91 0 -169 32.5t-129.5 102.5t-51.5 164 zM158 287q0 -108 77 -171t197 -63q173 0 316.5 107.5t187.5 273.5l25 94q-199 56 -422 56q-198 0 -303 -105q-78 -81 -78 -192zM518 1268l287 254h67l148 -254h-76l-123 155l-217 -155h-86z" />
<glyph unicode="&#xe3;" horiz-adv-x="1241" d="M66 274q0 152 102 254q134 134 383 134q208 0 428 -62l10 35q17 63 17 115q0 128 -90 197t-254 69q-154 0 -310 -58l-18 80q168 60 336 60q195 0 307.5 -89t112.5 -249q0 -53 -21 -142l-166 -618h-84l55 207q-177 -232 -458 -232q-91 0 -169 32.5t-129.5 102.5t-51.5 164 zM158 287q0 -108 77 -171t197 -63q173 0 316.5 107.5t187.5 273.5l25 94q-199 56 -422 56q-198 0 -303 -105q-78 -81 -78 -192zM477 1274q46 104 92.5 146t108.5 42q21 0 46.5 -8t41.5 -16.5t49 -26.5q88 -47 121 -47q39 0 68.5 25t62.5 90l61 -15q-44 -105 -91 -147.5 t-109 -42.5q-21 0 -46.5 8t-41.5 16.5t-49 26.5q-77 47 -121 47q-39 0 -68.5 -25t-62.5 -90z" />
<glyph unicode="&#xe4;" horiz-adv-x="1241" d="M66 274q0 152 102 254q134 134 383 134q208 0 428 -62l10 35q17 63 17 115q0 128 -90 197t-254 69q-154 0 -310 -58l-18 80q168 60 336 60q195 0 307.5 -89t112.5 -249q0 -53 -21 -142l-166 -618h-84l55 207q-177 -232 -458 -232q-91 0 -169 32.5t-129.5 102.5t-51.5 164 zM158 287q0 -108 77 -171t197 -63q173 0 316.5 107.5t187.5 273.5l25 94q-199 56 -422 56q-198 0 -303 -105q-78 -81 -78 -192zM555 1280l41 152h127l-41 -152h-127zM881 1280l41 152h127l-41 -152h-127z" />
<glyph unicode="&#xe5;" horiz-adv-x="1241" d="M66 274q0 152 102 254q134 134 383 134q208 0 428 -62l10 35q17 63 17 115q0 128 -90 197t-254 69q-154 0 -310 -58l-18 80q168 60 336 60q195 0 307.5 -89t112.5 -249q0 -53 -21 -142l-166 -618h-84l55 207q-177 -232 -458 -232q-91 0 -169 32.5t-129.5 102.5t-51.5 164 zM158 287q0 -108 77 -171t197 -63q173 0 316.5 107.5t187.5 273.5l25 94q-199 56 -422 56q-198 0 -303 -105q-78 -81 -78 -192zM610 1454q0 92 74.5 159.5t169.5 67.5q90 0 147.5 -54t57.5 -138q0 -92 -74 -158.5t-170 -66.5q-90 0 -147.5 54t-57.5 136zM676 1456 q0 -59 38.5 -97t104.5 -38q69 0 121.5 49t52.5 117q0 60 -38 97.5t-103 37.5q-70 0 -123 -48.5t-53 -117.5z" />
<glyph unicode="&#xe6;" horiz-adv-x="2101" d="M66 274q0 152 102 254q134 134 383 134q208 0 428 -62l10 35q17 63 17 115q0 128 -90 197t-254 69q-154 0 -310 -58l-18 80q168 60 336 60q176 0 284.5 -73.5t128.5 -207.5q87 131 216 210t278 79q131 0 226 -58.5t139.5 -151.5t44.5 -208q0 -89 -27 -178h-913 q-5 -67 -5 -80q0 -170 104.5 -272.5t276.5 -102.5q114 0 203.5 37.5t175.5 108.5l49 -60q-196 -166 -424 -166q-164 0 -278 73.5t-162 201.5q-115 -129 -258 -202t-303 -73q-95 0 -175 32.5t-132.5 102.5t-52.5 164zM158 287q0 -108 79 -171t203 -63q145 0 279.5 73 t245.5 206q-15 94 0 196q-201 56 -426 56q-198 0 -303 -105q-78 -81 -78 -192zM1063 588h825q10 38 10 94q0 96 -33.5 172t-108.5 124t-181 48q-199 0 -348 -152q-120 -120 -164 -286z" />
<glyph unicode="&#xe7;" horiz-adv-x="1220" d="M119 440q0 134 54 258.5t149 219.5q88 88 200 138t234 50q153 0 261 -74t163 -186l-74 -41q-126 219 -356 219q-99 0 -193.5 -42.5t-167.5 -117.5q-81 -81 -128.5 -191t-47.5 -227q0 -121 55.5 -212t141 -135t186.5 -44q188 0 360 158l60 -55q-195 -183 -424 -183h-12 l-222 -286l-84 47l232 248q-164 28 -275.5 148.5t-111.5 307.5z" />
<glyph unicode="&#xe8;" horiz-adv-x="1271" d="M121 426q0 137 56 269t153 229q182 182 418 182q99 0 178 -33.5t129 -91.5t76 -132.5t26 -160.5q0 -89 -27 -178h-913q-4 -54 -4 -80q0 -168 102.5 -271.5t270.5 -103.5q210 0 387 146l49 -60q-195 -166 -436 -166q-206 0 -335.5 126t-129.5 325zM233 588h826 q10 38 10 94q0 96 -34 172t-109 124t-181 48q-196 0 -348 -152q-120 -120 -164 -286zM618 1485l109 53l113 -270h-60z" />
<glyph unicode="&#xe9;" horiz-adv-x="1271" d="M121 426q0 137 56 269t153 229q182 182 418 182q99 0 178 -33.5t129 -91.5t76 -132.5t26 -160.5q0 -89 -27 -178h-913q-4 -54 -4 -80q0 -168 102.5 -271.5t270.5 -103.5q210 0 387 146l49 -60q-195 -166 -436 -166q-206 0 -335.5 126t-129.5 325zM233 588h826 q10 38 10 94q0 96 -34 172t-109 124t-181 48q-196 0 -348 -152q-120 -120 -164 -286zM782 1268l260 270l107 -53l-281 -217h-86z" />
<glyph unicode="&#xea;" horiz-adv-x="1271" d="M121 426q0 137 56 269t153 229q182 182 418 182q99 0 178 -33.5t129 -91.5t76 -132.5t26 -160.5q0 -89 -27 -178h-913q-4 -54 -4 -80q0 -168 102.5 -271.5t270.5 -103.5q210 0 387 146l49 -60q-195 -166 -436 -166q-206 0 -335.5 126t-129.5 325zM233 588h826 q10 38 10 94q0 96 -34 172t-109 124t-181 48q-196 0 -348 -152q-120 -120 -164 -286zM573 1268l287 254h68l147 -254h-76l-122 155l-218 -155h-86z" />
<glyph unicode="&#xeb;" horiz-adv-x="1271" d="M121 426q0 137 56 269t153 229q182 182 418 182q99 0 178 -33.5t129 -91.5t76 -132.5t26 -160.5q0 -89 -27 -178h-913q-4 -54 -4 -80q0 -168 102.5 -271.5t270.5 -103.5q210 0 387 146l49 -60q-195 -166 -436 -166q-206 0 -335.5 126t-129.5 325zM233 588h826 q10 38 10 94q0 96 -34 172t-109 124t-181 48q-196 0 -348 -152q-120 -120 -164 -286zM610 1280l41 152h127l-41 -152h-127zM936 1280l41 152h127l-41 -152h-127z" />
<glyph unicode="&#xec;" horiz-adv-x="542" d="M82 0l291 1079h86l-291 -1079h-86zM250 1485l108 53l113 -270h-59z" />
<glyph unicode="&#xed;" horiz-adv-x="542" d="M82 0l291 1079h86l-291 -1079h-86zM412 1268l260 270l106 -53l-280 -217h-86z" />
<glyph unicode="&#xee;" horiz-adv-x="542" d="M82 0l291 1079h86l-291 -1079h-86zM205 1268l287 254h67l148 -254h-76l-123 155l-217 -155h-86z" />
<glyph unicode="&#xef;" horiz-adv-x="542" d="M82 0l291 1079h86l-291 -1079h-86zM242 1280l41 152h127l-41 -152h-127zM567 1280l41 152h127l-41 -152h-127z" />
<glyph unicode="&#xf0;" horiz-adv-x="1349" d="M121 461q0 127 50 243.5t138 206.5q85 82 191.5 129t222.5 47q143 0 248.5 -66.5t173.5 -180.5q-57 233 -262 522l-303 -139l-35 69l289 133q-33 43 -107 129h113q40 -50 71 -94l242 111l35 -70l-230 -104q277 -400 277 -740q0 -304 -197 -501q-85 -85 -197.5 -133 t-240.5 -48q-216 0 -347.5 137.5t-131.5 348.5zM215 467q0 -186 105.5 -299t287.5 -113q103 0 198.5 42.5t170.5 117.5q77 77 120.5 178t43.5 209q0 175 -115 290.5t-301 115.5q-200 0 -346 -146q-77 -77 -120.5 -180.5t-43.5 -214.5z" />
<glyph unicode="&#xf1;" horiz-adv-x="1327" d="M68 0l288 1079h86l-59 -223q181 250 428 250q166 0 262 -94.5t96 -251.5q0 -70 -24 -164l-158 -596h-86l160 602q20 78 20 150q0 127 -75.5 200.5t-214.5 73.5q-151 0 -288.5 -117.5t-187.5 -302.5l-161 -606h-86zM551 1274q46 104 92.5 146t108.5 42q21 0 46.5 -8 t41.5 -16.5t49 -26.5q88 -47 121 -47q39 0 68.5 25t62.5 90l61 -15q-44 -105 -91 -147.5t-110 -42.5q-21 0 -46.5 8t-41.5 16.5t-49 26.5q-77 47 -121 47q-39 0 -68.5 -25t-62.5 -90z" />
<glyph unicode="&#xf2;" horiz-adv-x="1368" d="M121 455q0 127 52 247t146 213q87 89 202 140t241 51q214 0 348.5 -135t134.5 -344q0 -129 -51 -249t-145 -214q-88 -88 -203 -138.5t-240 -50.5q-214 0 -349.5 135t-135.5 345zM215 459q0 -184 110 -294t289 -110q103 0 198 43t169 117q80 81 126 188t46 220 q0 182 -110 291.5t-289 109.5q-103 0 -198 -43t-169 -117q-81 -81 -126.5 -187t-45.5 -218zM651 1485l109 53l112 -270h-59z" />
<glyph unicode="&#xf3;" horiz-adv-x="1368" d="M121 455q0 127 52 247t146 213q87 89 202 140t241 51q214 0 348.5 -135t134.5 -344q0 -129 -51 -249t-145 -214q-88 -88 -203 -138.5t-240 -50.5q-214 0 -349.5 135t-135.5 345zM215 459q0 -184 110 -294t289 -110q103 0 198 43t169 117q80 81 126 188t46 220 q0 182 -110 291.5t-289 109.5q-103 0 -198 -43t-169 -117q-81 -81 -126.5 -187t-45.5 -218zM813 1268l260 270l107 -53l-281 -217h-86z" />
<glyph unicode="&#xf4;" horiz-adv-x="1368" d="M121 455q0 127 52 247t146 213q87 89 202 140t241 51q214 0 348.5 -135t134.5 -344q0 -129 -51 -249t-145 -214q-88 -88 -203 -138.5t-240 -50.5q-214 0 -349.5 135t-135.5 345zM215 459q0 -184 110 -294t289 -110q103 0 198 43t169 117q80 81 126 188t46 220 q0 182 -110 291.5t-289 109.5q-103 0 -198 -43t-169 -117q-81 -81 -126.5 -187t-45.5 -218zM604 1268l287 254h67l148 -254h-76l-123 155l-217 -155h-86z" />
<glyph unicode="&#xf5;" horiz-adv-x="1368" d="M121 455q0 127 52 247t146 213q87 89 202 140t241 51q214 0 348.5 -135t134.5 -344q0 -129 -51 -249t-145 -214q-88 -88 -203 -138.5t-240 -50.5q-214 0 -349.5 135t-135.5 345zM215 459q0 -184 110 -294t289 -110q103 0 198 43t169 117q80 81 126 188t46 220 q0 182 -110 291.5t-289 109.5q-103 0 -198 -43t-169 -117q-81 -81 -126.5 -187t-45.5 -218zM565 1274q46 104 92.5 146t108.5 42q21 0 46.5 -8t41.5 -16.5t49 -26.5q88 -47 121 -47q39 0 68.5 25t62.5 90l62 -15q-44 -105 -91 -147.5t-110 -42.5q-21 0 -46.5 8t-41.5 16.5 t-49 26.5q-77 47 -121 47q-39 0 -68.5 -25t-62.5 -90z" />
<glyph unicode="&#xf6;" horiz-adv-x="1368" d="M121 455q0 127 52 247t146 213q87 89 202 140t241 51q214 0 348.5 -135t134.5 -344q0 -129 -51 -249t-145 -214q-88 -88 -203 -138.5t-240 -50.5q-214 0 -349.5 135t-135.5 345zM215 459q0 -184 110 -294t289 -110q103 0 198 43t169 117q80 81 126 188t46 220 q0 182 -110 291.5t-289 109.5q-103 0 -198 -43t-169 -117q-81 -81 -126.5 -187t-45.5 -218zM643 1280l41 152h127l-41 -152h-127zM969 1280l41 152h127l-41 -152h-127z" />
<glyph unicode="&#xf7;" horiz-adv-x="1337" d="M207 709l22 82h1014l-22 -82h-1014zM518 246l45 166h142l-43 -166h-144zM743 1090l45 165h144l-45 -165h-144z" />
<glyph unicode="&#xf8;" horiz-adv-x="1368" d="M-47 -12l242 196q-74 120 -74 271q0 127 52 247t146 213q87 89 202 140t241 51q228 0 366 -154l170 140h117l-244 -199q74 -120 74 -266q0 -129 -51 -249t-145 -214q-88 -88 -203 -138.5t-240 -50.5q-230 0 -366 152l-170 -139h-117zM215 459q0 -129 49 -217l797 655 q-112 127 -307 127q-103 0 -198 -43t-169 -117q-81 -81 -126.5 -187t-45.5 -218zM305 180q107 -125 309 -125q103 0 198 43t169 117q80 81 126 188t46 220q0 122 -51 213z" />
<glyph unicode="&#xf9;" horiz-adv-x="1323" d="M154 319q0 70 24 164l158 596h88l-162 -602q-20 -78 -20 -147q0 -128 77 -202.5t216 -74.5q150 0 286.5 118t186.5 304l161 604h86l-288 -1079h-86l59 223q-84 -114 -187 -181t-241 -67q-166 0 -262 93.5t-96 250.5zM614 1481l109 53l113 -270h-60z" />
<glyph unicode="&#xfa;" horiz-adv-x="1323" d="M154 319q0 70 24 164l158 596h88l-162 -602q-20 -78 -20 -147q0 -128 77 -202.5t216 -74.5q150 0 286.5 118t186.5 304l161 604h86l-288 -1079h-86l59 223q-84 -114 -187 -181t-241 -67q-166 0 -262 93.5t-96 250.5zM776 1264l260 270l107 -53l-281 -217h-86z" />
<glyph unicode="&#xfb;" horiz-adv-x="1323" d="M154 319q0 70 24 164l158 596h88l-162 -602q-20 -78 -20 -147q0 -128 77 -202.5t216 -74.5q150 0 286.5 118t186.5 304l161 604h86l-288 -1079h-86l59 223q-84 -114 -187 -181t-241 -67q-166 0 -262 93.5t-96 250.5zM569 1264l287 254h68l147 -254h-76l-123 155 l-217 -155h-86z" />
<glyph unicode="&#xfc;" horiz-adv-x="1323" d="M154 319q0 70 24 164l158 596h88l-162 -602q-20 -78 -20 -147q0 -128 77 -202.5t216 -74.5q150 0 286.5 118t186.5 304l161 604h86l-288 -1079h-86l59 223q-84 -114 -187 -181t-241 -67q-166 0 -262 93.5t-96 250.5zM606 1276l41 151h127l-41 -151h-127zM932 1276l41 151 h127l-41 -151h-127z" />
<glyph unicode="&#xfd;" horiz-adv-x="1241" d="M-160 -279l47 68q86 -59 185 -59q87 0 171 59t189 209l-225 1081h92l199 -989l671 989h105l-768 -1110q-124 -179 -225.5 -248t-217.5 -69q-125 0 -223 69zM709 1264l260 270l106 -53l-280 -217h-86z" />
<glyph unicode="&#xfe;" d="M-25 -340l510 1894h86l-190 -704q81 108 202 182t267 74q190 0 314 -129.5t124 -327.5q0 -145 -54.5 -276t-150.5 -226q-174 -174 -405 -174q-92 0 -169.5 28t-130.5 76t-88 104.5t-54 121.5l-173 -643h-88zM283 453q0 -170 109.5 -284t283.5 -114q198 0 342 144 q85 85 131.5 200t46.5 238q0 171 -99 279t-255 108q-103 0 -200.5 -44.5t-176.5 -123.5q-85 -84 -133.5 -190.5t-48.5 -212.5z" />
<glyph unicode="&#xff;" horiz-adv-x="1241" d="M-160 -279l47 68q86 -59 185 -59q87 0 171 59t189 209l-225 1081h92l199 -989l671 989h105l-768 -1110q-124 -179 -225.5 -248t-217.5 -69q-125 0 -223 69zM537 1276l41 151h127l-41 -151h-127zM862 1276l41 151h127l-41 -151h-127z" />
<glyph unicode="&#x152;" horiz-adv-x="2469" d="M211 627q0 169 60 317.5t173 261.5q135 135 332.5 210t425.5 75h1389l-23 -84h-930l-165 -614h835l-22 -84h-836l-168 -625h942l-22 -84h-1241q-181 0 -333.5 51.5t-252.5 149.5q-164 164 -164 426zM305 633q0 -232 144 -373q85 -87 217 -131.5t295 -44.5h231l354 1323 h-356q-205 0 -378.5 -67t-299.5 -193q-99 -99 -153 -231t-54 -283z" />
<glyph unicode="&#x153;" horiz-adv-x="2279" d="M121 455q0 127 52 247t146 213q87 89 202 140t241 51q183 0 304.5 -103.5t150.5 -263.5q80 161 217.5 264t318.5 103q132 0 227.5 -58.5t140 -151.5t44.5 -208q0 -89 -27 -178h-913q-4 -54 -4 -80q0 -170 104.5 -272.5t276.5 -102.5q113 0 202.5 37.5t175.5 108.5l50 -60 q-196 -166 -424 -166q-181 0 -303 94.5t-152 252.5q-83 -151 -226.5 -249t-324.5 -98q-210 0 -344.5 135t-134.5 345zM215 459q0 -184 108.5 -294t288.5 -110q102 0 198 43.5t169 116.5q81 84 127.5 189t46.5 217q0 183 -109.5 293t-289.5 110q-103 0 -198 -43t-169 -117 q-81 -81 -126.5 -187t-45.5 -218zM1241 588h825q9 52 9 94q0 96 -33.5 172t-108 124t-180.5 48q-199 0 -348 -152q-119 -116 -164 -286z" />
<glyph unicode="&#x178;" horiz-adv-x="1447" d="M295 1491h100l353 -809l788 809h123l-889 -901l-158 -590h-90l164 610zM745 1632l39 144h136l-41 -144h-134zM1096 1632l41 144h133l-41 -144h-133z" />
<glyph unicode="&#x2c6;" horiz-adv-x="1093" d="M492 1268l286 254h68l147 -254h-75l-123 155l-217 -155h-86z" />
<glyph unicode="&#x2dc;" horiz-adv-x="1093" d="M438 1274q46 104 92.5 146t108.5 42q21 0 46.5 -8t41.5 -16.5t49 -26.5q88 -47 121 -47q39 0 68.5 25t62.5 90l62 -15q-44 -105 -91 -147.5t-110 -42.5q-21 0 -46.5 8t-41.5 16.5t-49 26.5q-77 47 -121 47q-39 0 -68.5 -25t-62.5 -90z" />
<glyph unicode="&#x2000;" horiz-adv-x="943" />
<glyph unicode="&#x2001;" horiz-adv-x="1886" />
<glyph unicode="&#x2002;" horiz-adv-x="943" />
<glyph unicode="&#x2003;" horiz-adv-x="1886" />
<glyph unicode="&#x2004;" horiz-adv-x="628" />
<glyph unicode="&#x2005;" horiz-adv-x="471" />
<glyph unicode="&#x2006;" horiz-adv-x="314" />
<glyph unicode="&#x2007;" horiz-adv-x="314" />
<glyph unicode="&#x2008;" horiz-adv-x="235" />
<glyph unicode="&#x2009;" horiz-adv-x="377" />
<glyph unicode="&#x200a;" horiz-adv-x="104" />
<glyph unicode="&#x2010;" horiz-adv-x="886" d="M174 584l27 98h557l-25 -98h-559z" />
<glyph unicode="&#x2011;" horiz-adv-x="886" d="M174 584l27 98h557l-25 -98h-559z" />
<glyph unicode="&#x2012;" horiz-adv-x="886" d="M174 584l27 98h557l-25 -98h-559z" />
<glyph unicode="&#x2013;" horiz-adv-x="1159" d="M174 588l25 90h833l-24 -90h-834z" />
<glyph unicode="&#x2014;" horiz-adv-x="1939" d="M174 588l25 90h1611l-24 -90h-1612z" />
<glyph unicode="&#x2018;" horiz-adv-x="477" d="M328 1128l37 142q29 103 75 152.5t135 74.5l13 -43q-123 -41 -148 -166h52l-43 -160h-121z" />
<glyph unicode="&#x2019;" horiz-adv-x="477" d="M287 1165q122 43 147 166h-51l43 160h121l-37 -139q-29 -105 -75.5 -155t-135.5 -75z" />
<glyph unicode="&#x201a;" horiz-adv-x="477" d="M-61 -166q122 43 147 166h-53l43 160h123l-39 -140q-29 -105 -74.5 -154.5t-134.5 -74.5z" />
<glyph unicode="&#x201c;" horiz-adv-x="802" d="M326 1128l36 142q29 103 75.5 152.5t135.5 74.5l13 -43q-123 -41 -148 -166h54l-46 -160h-120zM651 1128l39 142q27 103 73.5 152.5t135.5 74.5l12 -43q-122 -40 -147 -166h53l-43 -160h-123z" />
<glyph unicode="&#x201d;" horiz-adv-x="802" d="M285 1165q122 43 147 166h-51l43 160h121l-37 -139q-29 -104 -75.5 -154.5t-133.5 -75.5zM610 1165q123 42 148 166h-51l43 160h120l-36 -139q-29 -105 -75 -155t-134 -75z" />
<glyph unicode="&#x201e;" horiz-adv-x="804" d="M-61 -166q122 43 147 166h-53l43 160h123l-39 -140q-29 -105 -74.5 -154.5t-134.5 -74.5zM264 -166q123 42 148 166h-52l43 160h121l-37 -140q-29 -105 -74.5 -154.5t-133.5 -74.5z" />
<glyph unicode="&#x2022;" horiz-adv-x="1005" d="M291 707q0 129 92 221q86 86 199 86q94 0 153.5 -60.5t59.5 -160.5q0 -63 -25.5 -121t-67.5 -99q-85 -88 -198 -88q-93 0 -153 61t-60 161z" />
<glyph unicode="&#x2026;" horiz-adv-x="1355" d="M33 0l43 160h123l-43 -160h-123zM473 0l43 160h121l-43 -160h-121zM911 0l43 160h123l-45 -160h-121z" />
<glyph unicode="&#x202f;" horiz-adv-x="377" />
<glyph unicode="&#x2039;" horiz-adv-x="679" d="M109 535l4 16l467 442l61 -49l-426 -414l195 -399l-70 -39z" />
<glyph unicode="&#x203a;" horiz-adv-x="679" d="M35 141l426 414l-195 399l70 39l233 -444l-4 -14l-469 -443z" />
<glyph unicode="&#x205f;" horiz-adv-x="471" />
<glyph unicode="&#x20ac;" horiz-adv-x="1501" d="M104 530l23 86h176q6 142 47 279h-149l22 84h156q80 200 213 330q204 207 479 207q177 0 296.5 -94.5t168.5 -243.5l-80 -31q-114 287 -399 287q-221 0 -398 -177q-115 -115 -184 -278h662l-23 -84h-670q-43 -130 -49 -279h645l-22 -86h-623q8 -215 121 -344t301 -129 q130 0 234.5 53.5t201.5 161.5l64 -53q-213 -244 -502 -244q-219 0 -362 150t-150 405h-199z" />
<glyph unicode="&#x2122;" horiz-adv-x="1476" d="M287 1432l18 59h504l-18 -59h-222l-170 -596h-61l170 596h-221zM768 836l188 655h56l155 -393l369 393h70l-187 -655h-61l155 544l-364 -383h-8l-154 383l-156 -544h-63z" />
<glyph unicode="&#xfb01;" horiz-adv-x="1290" d="M125 0l270 1001h-162l21 78h162l43 162q41 150 119 225q88 88 225 88q117 0 207 -49l-23 -78q-95 50 -188 50q-191 0 -256 -250l-41 -148h391l-21 -78h-391l-268 -1001h-88zM829 0l291 1079h86l-291 -1079h-86zM1186 1370l37 135h110l-37 -135h-110z" />
<glyph unicode="&#xfb02;" horiz-adv-x="1288" d="M125 0l270 1001h-162l21 78h162l43 162q41 150 119 225q88 88 225 88q117 0 207 -49l-23 -78q-95 50 -188 50q-191 0 -256 -250l-41 -148h391l-21 -78h-391l-268 -1001h-88zM829 0l418 1554h86l-418 -1554h-86z" />
<glyph unicode="&#xfb03;" horiz-adv-x="2037" d="M125 0l270 1001h-162l21 78h162l43 162q41 150 119 225q88 88 225 88q117 0 207 -49l-23 -78q-95 50 -188 50q-191 0 -256 -250l-41 -148h391l-21 -78h-391l-268 -1001h-88zM872 0l271 1001h-162l20 78h162l43 162q41 150 119 225q88 88 225 88q117 0 207 -49l-22 -78 q-95 50 -189 50q-191 0 -256 -250l-41 -148h391l-20 -78h-391l-268 -1001h-89zM1577 0l291 1079h86l-291 -1079h-86zM1933 1370l37 135h111l-37 -135h-111z" />
<glyph unicode="&#xfb04;" horiz-adv-x="2035" d="M125 0l270 1001h-162l21 78h162l43 162q41 150 119 225q88 88 225 88q117 0 207 -49l-23 -78q-95 50 -188 50q-191 0 -256 -250l-41 -148h391l-21 -78h-391l-268 -1001h-88zM872 0l271 1001h-162l20 78h162l43 162q41 150 119 225q88 88 225 88q117 0 207 -49l-22 -78 q-95 50 -189 50q-191 0 -256 -250l-41 -148h391l-20 -78h-391l-268 -1001h-89zM1577 0l418 1554h86l-418 -1554h-86z" />
</font>
</defs>
</svg>
