<?xml version="1.0" standalone="no"?>
<!DOCTYPE svg PUBLIC "-//W3C//DTD SVG 1.1//EN" "http://www.w3.org/Graphics/SVG/1.1/DTD/svg11.dtd" >
<svg xmlns="http://www.w3.org/2000/svg">
<metadata></metadata>
<defs>
<font id="gotham_narrow_ssmlight_italic" horiz-adv-x="1550" >
<font-face units-per-em="2048" ascent="1638" descent="-410" />
<missing-glyph horiz-adv-x="542" />
<glyph horiz-adv-x="0" />
<glyph horiz-adv-x="682" />
<glyph unicode=" "  horiz-adv-x="542" />
<glyph unicode="&#x09;" horiz-adv-x="542" />
<glyph unicode="&#xa0;" horiz-adv-x="542" />
<glyph unicode="!" horiz-adv-x="561" d="M63 0l48 203h168l-50 -203h-166zM209 408l190 950l33 133h158l-33 -133l-276 -950h-72z" />
<glyph unicode="&#x22;" horiz-adv-x="835" d="M221 938l164 553h160v-12l-252 -541h-72zM575 938l164 553h160v-12l-252 -541h-72z" />
<glyph unicode="#" horiz-adv-x="1300" d="M72 385l28 121h222l147 483h-231l30 121h236l117 381h120l-114 -381h356l117 381h121l-115 -381h213l-29 -121h-221l-147 -483h231l-29 -121h-237l-117 -385h-123l119 385h-358l-117 -385h-121l117 385h-215zM444 506h357l147 483h-358z" />
<glyph unicode="$" horiz-adv-x="1181" d="M2 236l100 90q141 -163 334 -199l146 588q-170 85 -244 173t-74 206q0 170 131 284.5t332 114.5q33 0 49 -2l33 129h113l-37 -143q179 -40 321 -179l-94 -96q-120 120 -264 156l-137 -551q161 -80 236 -171.5t75 -213.5q0 -184 -136 -305t-354 -121q-4 0 -12 1t-12 1 l-53 -207h-113l55 217q-119 22 -221.5 81.5t-173.5 146.5zM406 1106q0 -74 46.5 -134t163.5 -122l132 520q-5 0 -15 1t-14 1h-2q-138 0 -225.5 -78t-85.5 -188zM537 119h16q151 0 241.5 85.5t88.5 209.5q0 76 -46 136t-161 122z" />
<glyph unicode="%" horiz-adv-x="1595" d="M131 0l678 772l621 719h131l-676 -772l-621 -719h-133zM203 1055q0 102 36.5 195t100.5 155q100 100 227 100q118 0 192.5 -83.5t74.5 -217.5q0 -99 -37.5 -192.5t-100.5 -157.5q-100 -100 -229 -100q-117 0 -190.5 83t-73.5 218zM317 1061q0 -96 41.5 -149.5 t116.5 -53.5t137 62q49 49 77 123.5t28 156.5q0 95 -41.5 149t-114.5 54q-75 0 -137 -62q-51 -51 -79 -125.5t-28 -154.5zM860 287q0 101 35.5 194t97.5 156q108 100 232 100q117 0 189.5 -83t72.5 -218q0 -102 -35.5 -195t-97.5 -155q-103 -100 -232 -100q-117 0 -189.5 83 t-72.5 218zM973 291q0 -95 42.5 -149t117.5 -54q68 0 137 62q48 52 76 126.5t28 153.5q0 95 -42.5 149t-117.5 54q-73 0 -135 -62q-50 -50 -78 -124t-28 -156z" />
<glyph unicode="&#x26;" horiz-adv-x="1329" d="M72 342q0 348 448 510q-92 173 -92 299q0 152 104.5 257t260.5 105q146 0 233.5 -83.5t87.5 -212.5q0 -135 -99.5 -239t-324.5 -183l246 -410q107 142 194 326l103 -60q-126 -230 -232 -360l156 -252l-106 -64l-138 222q-106 -109 -213 -162t-241 -53q-171 0 -279 98.5 t-108 261.5zM209 360q0 -117 70.5 -188.5t193.5 -71.5q193 0 379 189l-277 467q-185 -61 -275.5 -164t-90.5 -232zM557 1151q0 -112 82 -264q346 113 346 321q0 85 -54 138t-147 53q-96 0 -161.5 -73.5t-65.5 -174.5z" />
<glyph unicode="'" horiz-adv-x="475" d="M221 938l164 553h160v-12l-252 -541h-72z" />
<glyph unicode="(" horiz-adv-x="833" d="M172 432q0 236 85.5 442t246.5 369q177 177 430 283l45 -94q-220 -104 -369 -250q-151 -153 -227 -348t-76 -398q0 -204 71.5 -359t201.5 -294l-78 -78q-100 96 -169.5 196.5t-115 238.5t-45.5 292z" />
<glyph unicode=")" horiz-adv-x="833" d="M-115 -197q231 111 367 250q152 151 227.5 346t75.5 398t-70.5 358.5t-199.5 294.5l77 78q330 -316 330 -727q0 -236 -85.5 -442t-246.5 -367q-175 -175 -430 -283z" />
<glyph unicode="*" horiz-adv-x="856" d="M266 1143l254 53l-201 166l70 70l168 -193l43 258l94 -22l-82 -250l236 94l29 -96l-252 -54l200 -163l-73 -72l-164 194l-43 -260l-94 25l81 248l-237 -92z" />
<glyph unicode="+" horiz-adv-x="1183" d="M172 686l33 127h389l94 387h131l-98 -387h389l-33 -127h-387l-96 -387h-129l96 387h-389z" />
<glyph unicode="," horiz-adv-x="507" d="M-74 -176q83 26 125 68t53 108h-69l51 203h168l-43 -174q-32 -125 -90.5 -184t-175.5 -87z" />
<glyph unicode="-" horiz-adv-x="821" d="M147 567l35 138h531l-33 -138h-533z" />
<glyph unicode="." horiz-adv-x="507" d="M35 0l51 203h168l-49 -203h-170z" />
<glyph unicode="/" horiz-adv-x="958" d="M-209 -254l1294 1935h136l-1299 -1935h-131z" />
<glyph unicode="0" horiz-adv-x="1339" d="M160 502q0 229 81.5 466.5t221.5 377.5q162 167 377 167q205 0 318.5 -141t113.5 -385q0 -228 -81.5 -465t-221.5 -377q-168 -168 -379 -168q-203 0 -316.5 141.5t-113.5 383.5zM301 504q0 -188 76.5 -295t220.5 -107q138 0 262 121q121 122 195.5 341.5t74.5 422.5 q0 187 -76.5 294.5t-219.5 107.5q-139 0 -263 -121q-121 -122 -195.5 -341.5t-74.5 -422.5z" />
<glyph unicode="1" horiz-adv-x="698" d="M186 0l328 1339l-262 -88l4 131l330 117h106l-366 -1499h-140z" />
<glyph unicode="2" horiz-adv-x="1132" d="M-27 0l27 104l715 654q130 124 188 213.5t58 183.5q0 104 -69.5 165.5t-189.5 61.5q-175 0 -346 -174l-90 88q198 215 445 215q177 0 286 -97t109 -249q0 -88 -37 -170t-95.5 -150t-158.5 -159l-608 -557h706l-32 -129h-908z" />
<glyph unicode="3" horiz-adv-x="1138" d="M12 209l105 84q123 -191 346 -191q162 0 266.5 101t104.5 254q0 61 -21 108.5t-56 78t-82.5 51t-98 28.5t-105.5 8h-39l-10 80l551 551h-651l34 129h838l-25 -100l-561 -562q164 -22 266.5 -115t102.5 -251q0 -93 -35 -181t-104 -155q-67 -67 -166 -108.5t-217 -41.5 q-145 0 -258 60.5t-185 171.5z" />
<glyph unicode="4" horiz-adv-x="1222" d="M63 461l971 1040h127l-250 -1032h199l-29 -117h-196l-88 -352h-131l86 352h-680zM225 469h555l199 813z" />
<glyph unicode="5" horiz-adv-x="1146" d="M25 195l100 88q140 -183 344 -183q119 0 212 60t140 152.5t47 197.5q0 136 -82 208.5t-215 72.5q-135 0 -256 -66l-79 63l208 703h713l-35 -129h-590l-149 -496q39 19 103 32t112 13q187 0 300.5 -104t113.5 -291q0 -108 -40.5 -208t-113.5 -173q-161 -158 -395 -158 q-143 0 -253.5 59t-184.5 159z" />
<glyph unicode="6" horiz-adv-x="1218" d="M158 481q0 142 34 298.5t105.5 308.5t165.5 247q178 178 403 178q220 0 369 -159l-90 -99q-124 131 -289 131q-161 0 -295 -131q-87 -88 -150.5 -228.5t-88.5 -295.5q63 91 159.5 146t214.5 55q184 0 294 -113.5t110 -290.5q0 -115 -42.5 -222.5t-117.5 -184.5 q-147 -144 -352 -144q-182 0 -297 115q-133 133 -133 389zM301 412q0 -152 82 -234t213 -82q139 0 240 101q60 60 91 146t31 177q0 128 -75 209.5t-213 81.5q-151 0 -252 -104q-55 -56 -86 -135.5t-31 -159.5z" />
<glyph unicode="7" horiz-adv-x="1107" d="M125 0l874 1362h-702l33 129h858l-27 -107l-880 -1384h-156z" />
<glyph unicode="8" horiz-adv-x="1208" d="M84 358q-1 166 106.5 282.5t280.5 152.5q-83 40 -133.5 118.5t-50.5 180.5q0 172 132.5 295.5t336.5 123.5q186 0 303 -100.5t117 -265.5q0 -148 -93.5 -255.5t-238.5 -144.5q96 -44 157.5 -129.5t61.5 -199.5q0 -118 -64.5 -217t-183 -159t-266.5 -60q-205 0 -334 107 t-131 271zM221 375q0 -125 92 -201t242 -76q163 0 266 95t103 233q0 122 -90.5 201.5t-241.5 79.5q-163 0 -267 -99.5t-104 -232.5zM422 1081q-2 -110 75.5 -185t204.5 -75q103 0 182 47.5t117.5 118t38.5 148.5q0 114 -78.5 185t-209.5 71q-147 0 -238.5 -91.5 t-91.5 -218.5z" />
<glyph unicode="9" horiz-adv-x="1218" d="M63 150l89 98q137 -144 307 -144q158 0 293 132q87 89 150 226.5t85 285.5q-63 -92 -158.5 -149.5t-218.5 -57.5q-183 0 -291 115t-110 298q0 120 44 229t124 187q143 143 348 143q183 0 297 -114q133 -133 133 -393q0 -220 -82.5 -464t-224.5 -386q-179 -179 -399 -179 q-224 0 -386 173zM350 963q0 -135 75 -217t216 -82q151 0 250 104q56 58 88.5 139.5t32.5 169.5q0 152 -84 236q-79 82 -209 82q-141 0 -242 -101q-59 -60 -92 -148.5t-35 -182.5z" />
<glyph unicode=":" horiz-adv-x="526" d="M45 0l51 203h166l-49 -203h-168zM264 903l51 203h166l-49 -203h-168z" />
<glyph unicode=";" horiz-adv-x="526" d="M-66 -176q84 26 126 68.5t53 107.5h-68l51 203h166l-43 -174q-30 -124 -89.5 -183.5t-176.5 -87.5zM264 903l51 203h166l-49 -203h-168z" />
<glyph unicode="&#x3c;" horiz-adv-x="1183" d="M174 692l31 117l962 446l-37 -153l-796 -361l614 -364l-30 -129z" />
<glyph unicode="=" horiz-adv-x="1183" d="M143 469l33 129h856l-33 -129h-856zM252 901l31 131h856l-33 -131h-854z" />
<glyph unicode="&#x3e;" horiz-adv-x="1183" d="M111 246l39 151l794 363l-614 362l32 131l744 -444l-31 -117z" />
<glyph unicode="?" horiz-adv-x="1030" d="M225 1337q192 170 420 170q177 0 284 -99.5t107 -254.5q0 -128 -67.5 -228.5t-178 -160.5t-255.5 -86l-84 -270h-89l58 358l16 12q211 23 335 121t124 246q0 112 -73.5 173.5t-186.5 61.5q-174 0 -334 -141zM227 0l47 203h168l-49 -203h-166z" />
<glyph unicode="@" horiz-adv-x="1902" d="M133 442q0 206 75 401.5t202 344t306.5 238.5t377.5 90q170 0 308.5 -54.5t229.5 -149.5t140 -222.5t49 -274.5q0 -141 -38 -266.5t-99.5 -210.5t-138 -134.5t-154.5 -49.5q-102 0 -161 57.5t-67 150.5q-159 -212 -350 -212q-124 0 -204.5 85t-80.5 232q0 113 41 224 t107 195.5t156 136.5t182 52q107 0 173 -58.5t93 -152.5l57 187l113 -31l-156 -522q-22 -77 -22 -125q0 -65 35.5 -103.5t101.5 -38.5q58 0 118 44.5t109 120t80 186.5t31 233q0 179 -75 320.5t-225.5 226t-354.5 84.5q-123 0 -240 -39t-213.5 -108t-178 -164.5t-137.5 -206 t-87 -235.5t-31 -251q0 -162 52.5 -294t145.5 -220.5t222 -136t282 -47.5q210 0 408 98l31 -61q-228 -105 -439 -105q-229 0 -403 90t-272.5 264.5t-98.5 411.5zM664 479q0 -105 49 -162t135 -57q88 0 177.5 67.5t147.5 177t58 220.5q0 106 -57 172t-154 66 q-90 0 -173.5 -72.5t-133 -185t-49.5 -226.5z" />
<glyph unicode="A" horiz-adv-x="1431" d="M-51 0l940 1501h137l205 -1501h-139l-52 406h-690l-252 -406h-149zM428 528h594l-100 803z" />
<glyph unicode="B" horiz-adv-x="1341" d="M70 0l364 1491h438q199 0 312.5 -90t113.5 -246q0 -162 -104 -266t-262 -137q116 -34 186 -112t70 -196q0 -207 -165.5 -325.5t-428.5 -118.5h-524zM240 125h366q206 0 325.5 86t119.5 238q0 115 -91 178t-245 63h-340zM406 813h311q200 0 321 89.5t121 234.5 q0 111 -78.5 170t-218.5 59h-323z" />
<glyph unicode="C" horiz-adv-x="1341" d="M176 557q0 202 77 404t212 339q211 211 485 211q151 0 263 -67t182 -182l-111 -82q-66 102 -147 154t-197 52q-104 0 -200 -45t-169 -120q-114 -114 -183 -294.5t-69 -367.5q0 -208 107 -331.5t285 -123.5q106 0 191 40.5t175 121.5l84 -92q-200 -197 -454 -197 q-232 0 -381.5 156.5t-149.5 423.5z" />
<glyph unicode="D" horiz-adv-x="1441" d="M70 0l364 1491h291q154 0 277.5 -44t203.5 -126q156 -153 156 -430q0 -174 -64.5 -348t-189.5 -297q-246 -246 -643 -246h-395zM238 127h247q318 0 523 205q103 103 157 252.5t54 298.5q0 229 -121 350q-134 131 -383 131h-174z" />
<glyph unicode="E" horiz-adv-x="1216" d="M70 0l364 1491h893l-31 -127h-753l-135 -549h677l-30 -127h-680l-135 -561h766l-33 -127h-903z" />
<glyph unicode="F" horiz-adv-x="1212" d="M70 0l364 1491h891l-31 -127h-751l-140 -571h674l-33 -127h-673l-162 -666h-139z" />
<glyph unicode="G" horiz-adv-x="1458" d="M178 573q0 199 75 389.5t210 323.5q225 225 528 225q287 0 451 -213l-103 -88q-64 83 -149.5 129.5t-212.5 46.5q-231 0 -412 -184q-114 -113 -180 -282.5t-66 -341.5q0 -219 118.5 -347.5t312.5 -128.5q174 0 305 82l116 475h-387l33 125h520l-174 -682 q-197 -125 -424 -125q-246 0 -403.5 162t-157.5 434z" />
<glyph unicode="H" horiz-adv-x="1429" d="M70 0l364 1491h139l-165 -678h743l166 678h137l-362 -1491h-140l166 686h-741l-168 -686h-139z" />
<glyph unicode="I" horiz-adv-x="575" d="M86 0l363 1491h139l-363 -1491h-139z" />
<glyph unicode="J" horiz-adv-x="1011" d="M-16 240l112 65q40 -100 100.5 -148t149.5 -48q119 0 195 79q79 76 125 258l252 1045h139l-260 -1073q-51 -213 -160 -322q-114 -114 -289 -114q-137 0 -228 68.5t-136 189.5z" />
<glyph unicode="K" horiz-adv-x="1339" d="M70 0l364 1491h139l-219 -893l942 893h185l-709 -660l371 -831h-154l-325 735l-359 -336l-96 -399h-139z" />
<glyph unicode="L" horiz-adv-x="1120" d="M70 0l364 1491h139l-331 -1364h700l-31 -127h-841z" />
<glyph unicode="M" horiz-adv-x="1636" d="M70 0l364 1491h131l271 -836l671 836h154l-365 -1491h-137l303 1245l-674 -829h-8l-272 827l-305 -1243h-133z" />
<glyph unicode="N" horiz-adv-x="1476" d="M70 0l364 1491h131l502 -1243l303 1243h133l-364 -1491h-111l-514 1274l-309 -1274h-135z" />
<glyph unicode="O" d="M180 563q0 202 77 409t210 339q202 202 471 202q241 0 384.5 -162.5t143.5 -424.5q0 -202 -76.5 -408.5t-209.5 -339.5q-203 -203 -471 -203q-240 0 -384.5 163.5t-144.5 424.5zM319 569q0 -209 108.5 -338t289.5 -129q198 0 358 160q115 113 183.5 299t68.5 359 q0 211 -107.5 338.5t-289.5 127.5q-203 0 -359 -159q-115 -115 -183.5 -299.5t-68.5 -358.5z" />
<glyph unicode="P" horiz-adv-x="1263" d="M70 0l364 1491h363q260 0 385 -125q104 -104 104 -276q0 -224 -145 -369q-183 -180 -535 -180h-264l-133 -541h-139zM371 662h241q285 0 424 139q109 109 109 286q0 120 -74 191q-83 86 -280 86h-248z" />
<glyph unicode="Q" d="M180 563q0 202 77 409t210 339q202 202 471 202q241 0 384.5 -162.5t143.5 -424.5q0 -198 -74.5 -401.5t-203.5 -336.5l133 -161l-109 -82l-120 159q-170 -129 -383 -129q-240 0 -384.5 163.5t-144.5 424.5zM319 569q0 -209 108.5 -338t289.5 -129q167 0 297 103 l-199 248l107 82l184 -244q101 119 161 294t60 335q0 211 -107.5 338.5t-289.5 127.5q-203 0 -359 -159q-115 -115 -183.5 -299.5t-68.5 -358.5z" />
<glyph unicode="R" horiz-adv-x="1349" d="M70 0l364 1491h422q248 0 373 -125q96 -101 96 -256q0 -205 -135 -340q-118 -118 -350 -162l266 -608h-154l-256 592h-344l-143 -592h-139zM385 715h303q263 0 395 129q103 106 103 258q0 111 -66 174q-85 88 -274 88h-303z" />
<glyph unicode="S" horiz-adv-x="1193" d="M37 244l108 88q173 -230 418 -230q135 0 229.5 82t94.5 199q0 83 -57.5 152t-198.5 157q-181 112 -256.5 205t-75.5 211q0 154 109 266q134 137 346 137q142 0 258 -60.5t198 -158.5l-102 -92q-161 189 -360 189q-137 0 -222.5 -79.5t-85.5 -185.5q0 -85 59.5 -151.5 t211.5 -159.5q169 -104 243 -198t74 -216q0 -163 -119 -282q-63 -64 -155 -100.5t-199 -36.5q-164 0 -296 70.5t-222 193.5z" />
<glyph unicode="T" horiz-adv-x="1142" d="M270 1362l33 129h989l-32 -129h-426l-332 -1362h-140l332 1362h-424z" />
<glyph unicode="U" horiz-adv-x="1425" d="M178 397q0 100 31 224l209 870h139l-221 -913q-21 -89 -21 -168q0 -139 87.5 -222.5t250.5 -83.5q161 0 279 115q123 123 174 340l225 932h137l-229 -956q-67 -260 -207 -400q-158 -158 -391 -158q-220 0 -341.5 114.5t-121.5 305.5z" />
<glyph unicode="V" horiz-adv-x="1353" d="M297 1491h143l135 -1307l771 1307h155l-907 -1501h-125z" />
<glyph unicode="W" horiz-adv-x="2037" d="M309 1491h142l57 -1272l670 1276h114l54 -1276l671 1272h156l-817 -1501h-121l-57 1245l-664 -1245h-121z" />
<glyph unicode="X" horiz-adv-x="1298" d="M-39 0l662 778l-301 713h149l250 -617l522 617h170l-633 -735l316 -756h-148l-268 659l-553 -659h-166z" />
<glyph unicode="Y" horiz-adv-x="1251" d="M258 1491h150l251 -754l619 754h174l-756 -897l-143 -594h-139l149 614z" />
<glyph unicode="Z" horiz-adv-x="1241" d="M-18 0l20 90l1120 1280h-784l31 121h968l-18 -90l-1120 -1280h821l-31 -121h-1007z" />
<glyph unicode="[" horiz-adv-x="854" d="M39 -276l432 1767h510l-27 -105h-385l-379 -1558h383l-24 -104h-510z" />
<glyph unicode="\" horiz-adv-x="958" d="M299 1681h113l358 -1935h-115z" />
<glyph unicode="]" horiz-adv-x="854" d="M-104 -276l26 104h385l379 1558h-383l27 105h508l-430 -1767h-512z" />
<glyph unicode="^" horiz-adv-x="976" d="M272 1075l377 410h107l174 -410h-111l-135 299l-281 -299h-131z" />
<glyph unicode="_" horiz-adv-x="1222" d="M-201 -340l27 113h1190l-27 -113h-1190z" />
<glyph unicode="`" horiz-adv-x="1105" d="M604 1475l141 71l125 -291h-92z" />
<glyph unicode="a" horiz-adv-x="1101" d="M49 279q0 172 115 284q120 123 332 123q158 0 329 -59l9 35q16 78 16 129q0 99 -65.5 153.5t-194.5 54.5q-132 0 -264 -57l-33 115q149 63 311 63q178 0 277.5 -82.5t99.5 -224.5q0 -61 -27 -172l-151 -641h-131l41 166q-153 -189 -357 -189q-131 0 -219 81t-88 221z M186 291q0 -94 56.5 -149.5t152.5 -55.5q129 0 236.5 93t142.5 233l29 118q-141 52 -305 52q-146 0 -232 -86q-80 -77 -80 -205z" />
<glyph unicode="b" horiz-adv-x="1243" d="M47 0l377 1538h133l-154 -625q163 215 369 215q159 0 261 -119.5t102 -318.5q0 -160 -58 -312.5t-159 -256.5q-147 -144 -330 -144q-134 0 -221.5 75.5t-126.5 193.5l-60 -246h-133zM293 430q0 -148 79.5 -241t205.5 -93q135 0 241 103q81 84 128.5 213.5t47.5 265.5 q0 153 -69.5 242.5t-190.5 89.5q-143 0 -264 -121q-81 -81 -129.5 -207t-48.5 -252z" />
<glyph unicode="c" horiz-adv-x="1038" d="M102 422q0 153 58 299.5t157 245.5q162 159 363 159q124 0 211.5 -55t140.5 -143l-106 -78q-44 74 -103.5 116t-148.5 42q-139 0 -256 -117q-81 -81 -129.5 -208.5t-48.5 -250.5q0 -159 81 -246.5t199 -87.5q135 0 258 113l76 -90q-152 -141 -342 -141q-175 0 -292.5 118 t-117.5 324z" />
<glyph unicode="d" horiz-adv-x="1243" d="M113 414q0 162 57 315t158 254q145 145 329 145q133 0 220.5 -75.5t126.5 -192.5l165 678h134l-377 -1538h-131l47 188q-170 -211 -371 -211q-159 0 -258.5 119t-99.5 318zM250 428q0 -153 68.5 -242.5t189.5 -89.5q142 0 266 121q81 79 129.5 206t48.5 253 q0 147 -79 240.5t-205 93.5q-137 0 -242 -105q-82 -84 -129 -213t-47 -264z" />
<glyph unicode="e" horiz-adv-x="1122" d="M104 426q0 152 59.5 300t158.5 247q155 155 350 155q166 0 261 -110t95 -285q0 -108 -37 -229h-749q-4 -25 -4 -74q0 -155 80 -244.5t212 -89.5q85 0 152 28t139 83l64 -96q-167 -131 -359 -131q-190 0 -306 120.5t-116 325.5zM260 610h625q14 52 14 123 q0 124 -59.5 201.5t-175.5 77.5q-134 0 -248 -111q-109 -109 -156 -291z" />
<glyph unicode="f" horiz-adv-x="722" d="M104 0l240 987h-139l31 119h139l31 129q21 82 47 135t69 94q81 78 213 78q100 0 176 -37l-28 -116q-78 34 -148 34q-77 0 -125.5 -48.5t-74.5 -151.5l-31 -117h307l-31 -119h-303l-239 -987h-134z" />
<glyph unicode="g" horiz-adv-x="1241" d="M-4 -168l76 98q79 -64 176.5 -100.5t195.5 -36.5q171 0 263 98q78 78 120 240l37 148q-169 -203 -375 -203q-156 0 -262 108t-106 293q0 137 52.5 271.5t145.5 226.5q153 153 345 153q248 0 340 -264l61 242h131l-238 -985q-52 -207 -153 -311q-137 -134 -363 -134 q-116 0 -235 41.5t-211 114.5zM260 487q0 -140 75.5 -217t190.5 -77q74 0 146.5 32t128.5 88q66 66 110.5 168.5t44.5 216.5q0 131 -78.5 221.5t-207.5 90.5q-141 0 -254 -113q-72 -72 -114 -184.5t-42 -225.5z" />
<glyph unicode="h" horiz-adv-x="1173" d="M47 0l377 1538h133l-149 -610q152 200 346 200q135 0 217 -82.5t82 -222.5q0 -60 -27 -178l-154 -645h-133l158 653q21 86 21 148q0 98 -57 152.5t-159 54.5q-118 0 -220.5 -98t-139.5 -246l-162 -664h-133z" />
<glyph unicode="i" horiz-adv-x="526" d="M61 0l273 1106h129l-268 -1106h-134zM383 1350l41 166h151l-43 -166h-149z" />
<glyph unicode="j" horiz-adv-x="530" d="M-217 -307l31 112q58 -14 86 -14q116 0 155 162l283 1153h131l-289 -1178q-30 -123 -98 -188.5t-172 -65.5q-62 0 -127 19zM387 1350l41 166h152l-41 -166h-152z" />
<glyph unicode="k" horiz-adv-x="1073" d="M47 0l377 1538h133l-258 -1053l653 621h176l-510 -467l252 -639h-145l-213 543l-256 -234l-76 -309h-133z" />
<glyph unicode="l" horiz-adv-x="526" d="M61 0l379 1538h129l-374 -1538h-134z" />
<glyph unicode="m" horiz-adv-x="1806" d="M47 0l270 1106h132l-41 -178q73 97 151 148.5t180 51.5q111 0 181 -65.5t90 -167.5q150 233 387 233q130 0 211.5 -83t81.5 -220q0 -62 -27 -180l-156 -645h-131l158 653q16 79 16 148q0 98 -52.5 152.5t-145.5 54.5q-109 0 -209.5 -97t-134.5 -237l-162 -674h-133 l157 653q19 77 19 148q0 96 -54 151.5t-147 55.5q-112 0 -210.5 -98.5t-135.5 -245.5l-162 -664h-133z" />
<glyph unicode="n" horiz-adv-x="1173" d="M47 0l270 1106h132l-41 -178q152 200 346 200q135 0 217 -82.5t82 -222.5q0 -60 -27 -178l-154 -645h-133l158 653q21 86 21 148q0 98 -57 152.5t-159 54.5q-118 0 -220.5 -98t-139.5 -246l-162 -664h-133z" />
<glyph unicode="o" horiz-adv-x="1204" d="M106 434q0 153 56 294.5t153 240.5q159 159 367 159q186 0 300 -126t114 -332q0 -153 -56 -294.5t-153 -238.5q-160 -160 -367 -160q-187 0 -300.5 126.5t-113.5 330.5zM242 440q0 -163 77.5 -253.5t208.5 -90.5q141 0 258 117q79 81 127 205t48 246q0 163 -78.5 253.5 t-208.5 90.5q-144 0 -258 -117q-80 -82 -127 -204.5t-47 -246.5z" />
<glyph unicode="p" horiz-adv-x="1243" d="M-29 -319l346 1425h132l-46 -193q163 215 369 215q159 0 261 -119.5t102 -318.5q0 -160 -58 -312.5t-159 -256.5q-147 -144 -330 -144q-134 0 -221.5 75.5t-126.5 193.5l-138 -565h-131zM293 430q0 -148 79.5 -241t205.5 -93q135 0 241 103q81 84 128.5 213.5t47.5 265.5 q0 153 -69.5 242.5t-190.5 89.5q-143 0 -264 -121q-81 -81 -129.5 -207t-48.5 -252z" />
<glyph unicode="q" horiz-adv-x="1243" d="M113 414q0 162 57 314.5t158 252.5q144 147 329 147q133 0 220.5 -75.5t126.5 -192.5l59 246h133l-346 -1425h-133l125 507q-170 -211 -371 -211q-159 0 -258.5 119t-99.5 318zM250 428q0 -153 68.5 -242.5t189.5 -89.5q142 0 266 121q81 79 129.5 206t48.5 253 q0 147 -79 240.5t-205 93.5q-137 0 -242 -105q-82 -84 -129 -213t-47 -264z" />
<glyph unicode="r" horiz-adv-x="776" d="M47 0l270 1106h132l-60 -248q186 263 421 263q15 0 30 -1l-37 -139h-8q-166 0 -299.5 -115t-184.5 -325l-131 -541h-133z" />
<glyph unicode="s" horiz-adv-x="942" d="M0 174l92 90q150 -170 320 -170q90 0 157.5 55t67.5 136q0 58 -42.5 107.5t-154.5 113.5q-135 78 -192.5 147t-57.5 164q0 128 100 217.5t257 89.5q100 0 195 -45.5t163 -117.5l-86 -95q-140 146 -280 146q-95 0 -155 -54.5t-60 -128.5q0 -57 41 -104t159 -115 q135 -79 191.5 -150.5t56.5 -162.5q0 -133 -107.5 -225t-261.5 -92q-117 0 -220.5 51t-182.5 143z" />
<glyph unicode="t" horiz-adv-x="770" d="M154 180q0 27 16 115l168 692h-137l28 119h138l79 328h134l-80 -328h293l-29 -119h-295l-168 -708q-10 -42 -10 -72q0 -50 34.5 -76.5t98.5 -26.5q56 0 133 31l-29 -121q-66 -28 -145 -28q-103 0 -166 49.5t-63 144.5z" />
<glyph unicode="u" horiz-adv-x="1173" d="M123 285q0 74 24 176l156 645h131l-158 -651q-18 -89 -18 -148q0 -100 56.5 -155.5t156.5 -55.5q119 0 223.5 99t139.5 245l159 666h133l-268 -1106h-133l43 176q-154 -199 -346 -199q-136 0 -217.5 82.5t-81.5 225.5z" />
<glyph unicode="v" horiz-adv-x="1087" d="M199 1106h139l96 -938l549 938h147l-677 -1114h-115z" />
<glyph unicode="w" horiz-adv-x="1617" d="M215 1106h133l37 -918l487 920h113l41 -920l481 918h140l-609 -1114h-118l-43 901l-484 -901h-114z" />
<glyph unicode="x" horiz-adv-x="1079" d="M-41 0l514 573l-223 533h139l176 -438l379 438h162l-488 -543l238 -563h-143l-187 469l-407 -469h-160z" />
<glyph unicode="y" horiz-adv-x="1097" d="M-111 -254l70 102q66 -55 143 -55q62 0 119 47t129 162l-155 1104h139l117 -942l536 942h150l-666 -1133q-96 -163 -184 -231t-193 -68q-112 0 -205 72z" />
<glyph unicode="z" horiz-adv-x="1015" d="M-18 0l16 84l825 909h-587l26 113h768l-16 -86l-828 -905h617l-31 -115h-790z" />
<glyph unicode="{" horiz-adv-x="925" d="M123 563l24 101h48q154 0 227 73q96 99 100 312q7 114 32.5 196t92.5 148q117 120 379 131l2 -99q-195 -8 -285 -98q-50 -50 -69.5 -120t-24.5 -177q-10 -111 -33 -194t-81 -142q-69 -69 -193 -90q154 -45 154 -182q0 -67 -39 -164q-60 -156 -60 -229q0 -88 52.5 -146.5 t177.5 -93.5l-35 -88q-324 72 -324 317q0 48 14 98t50 152q39 98 39 152q0 143 -203 143h-45z" />
<glyph unicode="|" horiz-adv-x="626" d="M59 -254l473 1935h115l-475 -1935h-113z" />
<glyph unicode="}" horiz-adv-x="925" d="M-74 -201q197 8 285 99q51 51 71 121.5t23 175.5q8 74 16 121t34 110t67 104q70 70 192 91q-153 45 -153 182q0 67 39 164q57 148 57 229q0 88 -52 146.5t-177 93.5l34 88q324 -72 324 -318q0 -49 -13.5 -102t-47.5 -148q-39 -98 -39 -151q0 -143 202 -143h46l-27 -101 h-47q-151 0 -225 -74q-101 -104 -101 -311q-7 -114 -32.5 -196t-92.5 -148q-117 -120 -381 -131z" />
<glyph unicode="~" horiz-adv-x="927" d="M170 553q48 105 96.5 155t112.5 50q41 0 70 -16t63 -52q38 -34 55 -45.5t37 -11.5q56 0 115 119l88 -35q-45 -104 -95.5 -154.5t-113.5 -50.5q-41 0 -70 16t-63 52q-35 33 -53 45t-39 12q-31 0 -56.5 -28t-58.5 -91z" />
<glyph unicode="&#xa1;" horiz-adv-x="561" d="M66 0l30 133l277 950h73l-192 -950l-31 -133h-157zM375 1288l49 203h168l-49 -203h-168z" />
<glyph unicode="&#xa2;" horiz-adv-x="1062" d="M156 625q0 154 55 300t151 242q154 160 373 160q21 0 31 -2l61 176h115l-68 -192q152 -47 238 -191l-100 -71q-81 116 -185 145l-292 -891q32 -4 49 -4q147 0 282 111l72 -91q-159 -139 -363 -139q-50 0 -73 4l-68 -194h-115l80 223q-115 50 -179 158t-64 256zM293 631 q0 -109 40 -187.5t111 -115.5l285 876q-153 0 -264 -114q-81 -79 -126.5 -205.5t-45.5 -253.5z" />
<glyph unicode="&#xa3;" horiz-adv-x="1179" d="M4 0l19 76l165 41l129 536h-159l30 119h160l70 293q54 214 157 317q125 125 306 125q129 0 216.5 -58t137.5 -146l-109 -74q-47 75 -107 113t-145 38q-120 0 -200 -80q-83 -86 -125 -258l-64 -270h502l-31 -119h-501l-127 -530h651l-31 -123h-944z" />
<glyph unicode="&#xa5;" horiz-adv-x="1300" d="M141 266l27 111h364l48 196h-365l29 109h323l-276 809h149l246 -758l617 758h170l-680 -809h321l-29 -109h-370l-49 -196h372l-28 -111h-369l-66 -266h-133l64 266h-365z" />
<glyph unicode="&#xa7;" horiz-adv-x="1210" d="M131 137l82 96q68 -61 156 -100t180 -39q94 0 153.5 41t59.5 107q0 60 -53.5 105.5t-188.5 105.5q-182 77 -265 147.5t-83 163.5q0 123 106.5 197t266.5 77q-137 82 -137 205q0 118 99 193t257 75q117 0 224.5 -43t182.5 -114l-81 -94q-68 61 -155.5 99t-180.5 38 q-94 0 -152.5 -41t-58.5 -107q0 -60 53 -105.5t188 -103.5q182 -79 264 -149.5t82 -163.5q0 -123 -105.5 -197t-264.5 -77q135 -85 135 -203q0 -119 -98.5 -193.5t-257.5 -74.5q-118 0 -225.5 42.5t-182.5 112.5zM307 780q0 -58 44.5 -102.5t142.5 -87.5q133 -55 243 -55 q111 0 184.5 50t73.5 128q0 58 -44 101.5t-142 86.5q-127 57 -244 57q-111 0 -184.5 -50t-73.5 -128z" />
<glyph unicode="&#xa8;" horiz-adv-x="1105" d="M475 1262l45 176h158l-45 -176h-158zM795 1262l45 176h153l-43 -176h-155z" />
<glyph unicode="&#xa9;" horiz-adv-x="1607" d="M158 623q0 188 68 368.5t194 306.5q215 218 514 218q186 0 326.5 -87t213 -233t72.5 -328q0 -187 -68 -367.5t-194 -307.5q-218 -218 -516 -218q-185 0 -325 87t-212.5 233t-72.5 328zM225 623q0 -119 36.5 -224t104 -185.5t172.5 -127.5t234 -47q268 0 461 190 q118 118 181 291t63 348q1 120 -35 225t-103.5 185.5t-173 127t-235.5 46.5q-269 0 -459 -190q-119 -118 -181.5 -289.5t-64.5 -349.5zM516 653q0 112 41.5 221t116.5 181q107 110 252 110q161 0 243 -133l-82 -59q-66 96 -163 96q-106 0 -179 -76q-57 -57 -90.5 -147 t-33.5 -187q0 -106 49.5 -164.5t132.5 -58.5q52 0 93 20.5t91 61.5l55 -72q-111 -104 -245 -104q-123 0 -202 83.5t-79 227.5z" />
<glyph unicode="&#xaa;" horiz-adv-x="780" d="M139 639l21 84h475l-21 -84h-475zM229 1024q0 100 69.5 166.5t178.5 66.5q72 0 174 -32l6 22q9 41 9 62q0 47 -35.5 74.5t-102.5 27.5q-56 0 -147 -31l-25 82q98 37 187 37q103 0 159 -46.5t58 -129.5q0 -19 -15 -92l-83 -352h-95l21 88q-90 -101 -195 -101 q-70 0 -117 43.5t-47 114.5zM328 1034q-1 -44 25 -69t69 -25q65 0 125.5 52.5t79.5 123.5l10 45q-85 25 -152 25q-72 0 -114.5 -44.5t-42.5 -107.5z" />
<glyph unicode="&#xab;" horiz-adv-x="1062" d="M106 537l5 16l434 453l82 -72l-369 -406l164 -393l-103 -49zM508 537l4 16l434 453l84 -72l-368 -406l163 -393l-106 -49z" />
<glyph unicode="&#xad;" horiz-adv-x="821" d="M147 567l35 138h531l-33 -138h-533z" />
<glyph unicode="&#xae;" horiz-adv-x="843" d="M223 1075q0 93 33.5 182t95.5 150q106 109 258 109q136 0 216.5 -88.5t80.5 -221.5q0 -95 -32.5 -183.5t-96.5 -152.5q-106 -106 -256 -106q-136 0 -217.5 89t-81.5 222zM264 1077q0 -116 70 -195t192 -79q125 0 219 94q59 58 91 140.5t32 164.5q0 116 -70 195.5 t-192 79.5q-125 0 -221 -93q-58 -60 -89.5 -142.5t-31.5 -164.5zM393 954l94 387h105q143 0 143 -112q0 -48 -28 -82.5t-82 -46.5l57 -146h-66l-51 138h-76l-32 -138h-64zM504 1147h59q64 0 88 24q21 21 21 54q0 59 -80 59h-55z" />
<glyph unicode="&#xaf;" horiz-adv-x="1105" d="M444 1292l31 113h576l-27 -113h-580z" />
<glyph unicode="&#xb0;" horiz-adv-x="770" d="M201 1122q0 84 31 159.5t83 127.5q97 94 222 94q109 0 178 -73.5t69 -192.5q0 -85 -30.5 -160t-83.5 -127q-97 -94 -219 -94q-111 0 -180.5 74t-69.5 192zM301 1128q0 -82 44 -130t114 -48q73 0 139 62q38 39 61 98t23 121q0 83 -42.5 130.5t-113.5 47.5q-78 0 -137 -59 q-40 -40 -64 -100t-24 -122z" />
<glyph unicode="&#xb1;" horiz-adv-x="1183" d="M33 63l30 123h879l-31 -123h-878zM203 752l30 125h375l92 370h125l-90 -370h377l-31 -125h-374l-93 -371h-129l95 371h-377z" />
<glyph unicode="&#xb2;" horiz-adv-x="778" d="M215 932l18 78l402 329q70 62 100.5 106t30.5 95q0 55 -38.5 86t-102.5 31q-92 0 -197 -101l-57 66q122 125 262 125q103 0 167 -56.5t64 -144.5q0 -68 -38.5 -128t-131.5 -136l-319 -260h393l-23 -90h-530z" />
<glyph unicode="&#xb3;" horiz-adv-x="778" d="M238 1055l69 55q80 -111 201 -111q84 0 137 48t53 120q0 70 -51 106t-145 36h-29l-12 59l307 272h-362l22 91h490l-19 -76l-315 -277q95 -11 153 -62.5t58 -139.5q0 -112 -82.5 -186.5t-204.5 -74.5q-94 0 -163.5 39.5t-106.5 100.5z" />
<glyph unicode="&#xb4;" horiz-adv-x="1105" d="M541 1255l254 291l139 -71l-272 -220h-121z" />
<glyph unicode="&#xb5;" horiz-adv-x="1269" d="M-31 -319l350 1423h127l-147 -615q-18 -77 -18 -147q0 -116 62 -181t171 -65q120 0 209.5 78.5t122.5 218.5l172 711h129l-199 -817q-14 -65 -14 -99q0 -86 100 -86q40 0 80 9l-29 -113q-41 -12 -92 -12q-86 0 -133.5 42.5t-52.5 118.5q-117 -170 -301 -170 q-111 0 -188.5 60.5t-104.5 175.5h-2q-20 -159 -53 -297l-58 -235h-131z" />
<glyph unicode="&#xb6;" horiz-adv-x="1007" d="M201 942q0 228 147 375q171 174 506 174h176l-362 -1491h-140l129 543q-237 10 -354 127q-102 102 -102 272z" />
<glyph unicode="&#xb7;" horiz-adv-x="509" d="M164 535l49 204h172l-51 -204h-170z" />
<glyph unicode="&#xb8;" horiz-adv-x="1105" d="M195 -236l233 256h107l-220 -315z" />
<glyph unicode="&#xb9;" horiz-adv-x="636" d="M387 1556v93l229 88h80l-196 -805h-97l170 696z" />
<glyph unicode="&#xba;" horiz-adv-x="784" d="M145 639l21 84h504l-23 -84h-502zM246 1120q0 81 29.5 159t84.5 132q93 90 207 90q109 0 174.5 -71.5t65.5 -188.5q0 -81 -30 -159t-85 -130q-87 -90 -207 -90q-109 0 -174 70.5t-65 187.5zM342 1120q0 -76 41.5 -124t108.5 -48q71 0 129 58q42 39 66 104.5t24 130.5 q0 76 -41.5 124t-108.5 48q-75 0 -129 -57q-40 -39 -65 -105.5t-25 -130.5z" />
<glyph unicode="&#xbb;" horiz-adv-x="1062" d="M29 156l368 405l-164 393l107 50l211 -451l-4 -16l-434 -453zM432 156l369 405l-164 393l102 50l213 -451l-4 -16l-432 -453z" />
<glyph unicode="&#xbc;" horiz-adv-x="1611" d="M92 0l647 762l604 729h107l-647 -762l-604 -729h-107zM293 1319l2 92l227 90h80l-194 -809h-97l168 701zM784 176l7 84l491 547h115l-135 -551h104l-20 -80h-103l-45 -180h-88l43 180h-369zM893 256h281l102 426h-4z" />
<glyph unicode="&#xbd;" horiz-adv-x="1611" d="M61 0l648 762l604 729h106l-647 -762l-604 -729h-107zM293 1319l2 92l227 90h80l-194 -809h-97l168 701zM758 0l18 78l402 330q70 62 100.5 105.5t30.5 94.5q0 55 -39 86t-103 31q-92 0 -196 -100l-58 65q122 125 263 125q103 0 167 -56.5t64 -144.5q0 -68 -38.5 -128 t-131.5 -136l-319 -260h393l-23 -90h-530z" />
<glyph unicode="&#xbe;" horiz-adv-x="1751" d="M143 815l70 55q81 -108 201 -108q84 0 137 48t53 120q0 68 -51 103.5t-145 35.5h-29l-14 59l309 273h-363l23 90h489l-18 -76l-318 -274q95 -11 154 -63.5t59 -141.5q0 -112 -82.5 -186t-203.5 -74q-94 0 -164 39.5t-107 99.5zM229 0l648 762l604 729h106l-647 -762 l-604 -729h-107zM928 176l6 84l491 547h115l-135 -551h104l-20 -80h-103l-45 -180h-88l43 180h-368zM1036 256h281l102 426h-4z" />
<glyph unicode="&#xbf;" horiz-adv-x="1030" d="M88 338q0 96 38.5 177.5t106.5 140t158 98.5t197 59l86 270h88l-60 -358l-14 -12q-211 -23 -335 -121t-124 -246q0 -112 73.5 -173.5t186.5 -61.5q170 0 334 141l76 -98q-192 -170 -420 -170q-177 0 -284 99.5t-107 254.5zM682 1288l49 203h166l-49 -203h-166z" />
<glyph unicode="&#xc0;" horiz-adv-x="1431" d="M-51 0l940 1501h137l205 -1501h-139l-52 406h-690l-252 -406h-149zM428 528h594l-100 803zM739 1817l142 63l143 -254h-98z" />
<glyph unicode="&#xc1;" horiz-adv-x="1431" d="M-51 0l940 1501h137l205 -1501h-139l-52 406h-690l-252 -406h-149zM428 528h594l-100 803zM918 1626l249 254l140 -63l-263 -191h-126z" />
<glyph unicode="&#xc2;" horiz-adv-x="1431" d="M-51 0l940 1501h137l205 -1501h-139l-52 406h-690l-252 -406h-149zM428 528h594l-100 803zM709 1630l264 234h127l149 -234h-121l-110 125l-176 -125h-133z" />
<glyph unicode="&#xc3;" horiz-adv-x="1431" d="M-51 0l940 1501h137l205 -1501h-139l-52 406h-690l-252 -406h-149zM428 528h594l-100 803zM694 1645q46 96 92 140t109 44q53 0 133 -41q67 -41 107 -41q34 0 57 21t53 71l90 -29q-47 -96 -92.5 -139t-107.5 -43q-54 0 -134 41q-73 39 -106 39q-34 0 -58.5 -20.5 t-54.5 -71.5z" />
<glyph unicode="&#xc4;" horiz-adv-x="1431" d="M-51 0l940 1501h137l205 -1501h-139l-52 406h-690l-252 -406h-149zM428 528h594l-100 803zM739 1632l43 172h166l-43 -172h-166zM1081 1632l43 172h164l-43 -172h-164z" />
<glyph unicode="&#xc5;" horiz-adv-x="1431" d="M-51 0l893 1423q-38 23 -60 61.5t-22 82.5q0 90 70 152.5t169 62.5q85 0 140 -49.5t55 -122.5q0 -69 -43.5 -124t-112.5 -79l193 -1407h-139l-52 406h-690l-252 -406h-149zM428 528h594l-100 803zM846 1573q0 -47 31.5 -76t83.5 -29q61 0 104 39t43 95q0 47 -31 78.5 t-84 31.5q-61 0 -104 -41t-43 -98z" />
<glyph unicode="&#xc6;" horiz-adv-x="1947" d="M-68 0l1104 1491h1004l-33 -127h-737l-133 -549h661l-33 -127h-659l-135 -561h747l-32 -127h-885l98 406h-514l-295 -406h-158zM477 528h453l205 840h-45z" />
<glyph unicode="&#xc7;" horiz-adv-x="1341" d="M176 557q0 202 77 404t212 339q211 211 485 211q151 0 263 -67t182 -182l-111 -82q-66 102 -147 154t-197 52q-104 0 -200 -45t-169 -120q-114 -114 -183 -294.5t-69 -367.5q0 -208 107 -331.5t285 -123.5q106 0 191 40.5t175 121.5l84 -92q-200 -197 -454 -197h-25 l-188 -272l-121 59l207 228q-183 39 -293.5 188t-110.5 377z" />
<glyph unicode="&#xc8;" horiz-adv-x="1216" d="M70 0l364 1491h893l-31 -127h-753l-135 -549h677l-30 -127h-680l-135 -561h766l-33 -127h-903zM647 1800l141 64l144 -254h-98z" />
<glyph unicode="&#xc9;" horiz-adv-x="1216" d="M70 0l364 1491h893l-31 -127h-753l-135 -549h677l-30 -127h-680l-135 -561h766l-33 -127h-903zM825 1610l250 254l139 -64l-262 -190h-127z" />
<glyph unicode="&#xca;" horiz-adv-x="1216" d="M70 0l364 1491h893l-31 -127h-753l-135 -549h677l-30 -127h-680l-135 -561h766l-33 -127h-903zM618 1614l265 233h127l149 -233h-121l-110 125l-176 -125h-134z" />
<glyph unicode="&#xcb;" horiz-adv-x="1216" d="M70 0l364 1491h893l-31 -127h-753l-135 -549h677l-30 -127h-680l-135 -561h766l-33 -127h-903zM645 1616l43 172h166l-43 -172h-166zM987 1616l43 172h164l-43 -172h-164z" />
<glyph unicode="&#xcc;" horiz-adv-x="575" d="M86 0l363 1491h139l-363 -1491h-139zM297 1800l141 64l144 -254h-99z" />
<glyph unicode="&#xcd;" horiz-adv-x="575" d="M86 0l363 1491h139l-363 -1491h-139zM477 1610l250 254l139 -64l-262 -190h-127z" />
<glyph unicode="&#xce;" horiz-adv-x="575" d="M86 0l363 1491h139l-363 -1491h-139zM268 1614l264 233h127l150 -233h-121l-110 125l-177 -125h-133z" />
<glyph unicode="&#xcf;" horiz-adv-x="575" d="M86 0l363 1491h139l-363 -1491h-139zM297 1616l43 172h166l-43 -172h-166zM639 1616l43 172h164l-43 -172h-164z" />
<glyph unicode="&#xd0;" horiz-adv-x="1488" d="M117 0l168 686h-152l31 127h151l166 678h287q313 0 483 -170q154 -151 154 -430q0 -174 -64 -347.5t-188 -297.5q-243 -246 -643 -246h-393zM285 127h245q319 0 521 205q104 103 159.5 252.5t55.5 298.5q0 225 -125 350q-131 131 -383 131h-172l-133 -551h372l-34 -127 h-369z" />
<glyph unicode="&#xd1;" horiz-adv-x="1476" d="M70 0l364 1491h131l502 -1243l303 1243h133l-364 -1491h-111l-514 1274l-309 -1274h-135zM698 1620q46 96 92 140t109 44q53 0 133 -41q67 -41 107 -41q33 0 56.5 21t53.5 72l90 -29q-47 -96 -92.5 -139t-107.5 -43q-53 0 -133 41q-71 38 -107 38q-34 0 -58.5 -20.5 t-54.5 -71.5z" />
<glyph unicode="&#xd2;" d="M180 563q0 202 77 409t210 339q202 202 471 202q241 0 384.5 -162.5t143.5 -424.5q0 -202 -76.5 -408.5t-209.5 -339.5q-203 -203 -471 -203q-240 0 -384.5 163.5t-144.5 424.5zM319 569q0 -209 108.5 -338t289.5 -129q198 0 358 160q115 113 183.5 299t68.5 359 q0 211 -107.5 338.5t-289.5 127.5q-203 0 -359 -159q-115 -115 -183.5 -299.5t-68.5 -358.5zM764 1817l141 63l144 -254h-99z" />
<glyph unicode="&#xd3;" d="M180 563q0 202 77 409t210 339q202 202 471 202q241 0 384.5 -162.5t143.5 -424.5q0 -202 -76.5 -408.5t-209.5 -339.5q-203 -203 -471 -203q-240 0 -384.5 163.5t-144.5 424.5zM319 569q0 -209 108.5 -338t289.5 -129q198 0 358 160q115 113 183.5 299t68.5 359 q0 211 -107.5 338.5t-289.5 127.5q-203 0 -359 -159q-115 -115 -183.5 -299.5t-68.5 -358.5zM942 1626l250 254l139 -63l-262 -191h-127z" />
<glyph unicode="&#xd4;" d="M180 563q0 202 77 409t210 339q202 202 471 202q241 0 384.5 -162.5t143.5 -424.5q0 -202 -76.5 -408.5t-209.5 -339.5q-203 -203 -471 -203q-240 0 -384.5 163.5t-144.5 424.5zM319 569q0 -209 108.5 -338t289.5 -129q198 0 358 160q115 113 183.5 299t68.5 359 q0 211 -107.5 338.5t-289.5 127.5q-203 0 -359 -159q-115 -115 -183.5 -299.5t-68.5 -358.5zM735 1630l264 234h127l150 -234h-121l-111 125l-176 -125h-133z" />
<glyph unicode="&#xd5;" d="M180 563q0 202 77 409t210 339q202 202 471 202q241 0 384.5 -162.5t143.5 -424.5q0 -202 -76.5 -408.5t-209.5 -339.5q-203 -203 -471 -203q-240 0 -384.5 163.5t-144.5 424.5zM319 569q0 -209 108.5 -338t289.5 -129q198 0 358 160q115 113 183.5 299t68.5 359 q0 211 -107.5 338.5t-289.5 127.5q-203 0 -359 -159q-115 -115 -183.5 -299.5t-68.5 -358.5zM721 1645q46 96 92 140t109 44q53 0 133 -41q67 -41 106 -41q34 0 58 21t53 71l90 -29q-47 -96 -93 -139t-108 -43q-53 0 -133 41q-73 39 -106 39q-34 0 -58.5 -20.5t-54.5 -71.5z " />
<glyph unicode="&#xd6;" d="M180 563q0 202 77 409t210 339q202 202 471 202q241 0 384.5 -162.5t143.5 -424.5q0 -202 -76.5 -408.5t-209.5 -339.5q-203 -203 -471 -203q-240 0 -384.5 163.5t-144.5 424.5zM319 569q0 -209 108.5 -338t289.5 -129q198 0 358 160q115 113 183.5 299t68.5 359 q0 211 -107.5 338.5t-289.5 127.5q-203 0 -359 -159q-115 -115 -183.5 -299.5t-68.5 -358.5zM764 1632l43 172h166l-43 -172h-166zM1106 1632l43 172h164l-43 -172h-164z" />
<glyph unicode="&#xd7;" horiz-adv-x="1183" d="M152 428l405 332l-238 323l105 80l233 -325l404 329l72 -96l-406 -330l240 -321l-105 -82l-235 326l-402 -330z" />
<glyph unicode="&#xd8;" d="M-12 -12l262 258q-70 137 -70 317q0 202 77 409t210 339q202 202 471 202q249 0 395 -176l170 166h156l-264 -260q71 -136 71 -317q0 -202 -76.5 -408.5t-209.5 -339.5q-203 -203 -471 -203q-249 0 -396 177l-170 -164h-155zM317 567q0 -130 39 -221l881 895 q-112 150 -307 150q-202 0 -361 -162q-114 -114 -183 -300.5t-69 -361.5zM410 246q111 -146 307 -146q197 0 360 160q114 114 183 300.5t69 361.5q0 118 -39 221z" />
<glyph unicode="&#xd9;" horiz-adv-x="1425" d="M178 397q0 100 31 224l209 870h139l-221 -913q-21 -89 -21 -168q0 -139 87.5 -222.5t250.5 -83.5q161 0 279 115q123 123 174 340l225 932h137l-229 -956q-67 -260 -207 -400q-158 -158 -391 -158q-220 0 -341.5 114.5t-121.5 305.5zM698 1792l142 63l143 -253h-98z" />
<glyph unicode="&#xda;" horiz-adv-x="1425" d="M178 397q0 100 31 224l209 870h139l-221 -913q-21 -89 -21 -168q0 -139 87.5 -222.5t250.5 -83.5q161 0 279 115q123 123 174 340l225 932h137l-229 -956q-67 -260 -207 -400q-158 -158 -391 -158q-220 0 -341.5 114.5t-121.5 305.5zM879 1602l249 253l140 -63l-262 -190 h-127z" />
<glyph unicode="&#xdb;" horiz-adv-x="1425" d="M178 397q0 100 31 224l209 870h139l-221 -913q-21 -89 -21 -168q0 -139 87.5 -222.5t250.5 -83.5q161 0 279 115q123 123 174 340l225 932h137l-229 -956q-67 -260 -207 -400q-158 -158 -391 -158q-220 0 -341.5 114.5t-121.5 305.5zM670 1606l264 233h127l149 -233h-120 l-111 125l-176 -125h-133z" />
<glyph unicode="&#xdc;" horiz-adv-x="1425" d="M178 397q0 100 31 224l209 870h139l-221 -913q-21 -89 -21 -168q0 -139 87.5 -222.5t250.5 -83.5q161 0 279 115q123 123 174 340l225 932h137l-229 -956q-67 -260 -207 -400q-158 -158 -391 -158q-220 0 -341.5 114.5t-121.5 305.5zM698 1608l43 172h166l-43 -172h-166z M1040 1608l43 172h164l-43 -172h-164z" />
<glyph unicode="&#xdd;" horiz-adv-x="1251" d="M258 1491h150l251 -754l619 754h174l-756 -897l-143 -594h-139l149 614zM782 1602l250 253l139 -63l-262 -190h-127z" />
<glyph unicode="&#xde;" horiz-adv-x="1271" d="M70 0l364 1491h137l-63 -260h223q262 0 387 -125q105 -102 105 -277q0 -221 -146 -370q-181 -178 -532 -178h-269l-67 -281h-139zM309 403h240q285 0 424 136q108 108 108 288q0 120 -71 191q-88 88 -283 88h-248z" />
<glyph unicode="&#xdf;" horiz-adv-x="1181" d="M47 0l270 1098q46 209 164 327q125 125 303 125q158 0 259.5 -93t101.5 -238q0 -165 -107 -280t-284 -169q278 -98 278 -336q0 -95 -41 -176t-118 -141.5t-197.5 -93t-269.5 -27.5l30 110q231 -1 346 93t115 239q0 215 -313 281l26 104q198 44 299 146.5t101 240.5 q0 98 -64 160t-170 62q-122 0 -207.5 -93t-128.5 -268l-260 -1071h-133z" />
<glyph unicode="&#xe0;" horiz-adv-x="1101" d="M49 279q0 172 115 284q120 123 332 123q158 0 329 -59l9 35q16 78 16 129q0 99 -65.5 153.5t-194.5 54.5q-132 0 -264 -57l-33 115q149 63 311 63q178 0 277.5 -82.5t99.5 -224.5q0 -61 -27 -172l-151 -641h-131l41 166q-153 -189 -357 -189q-131 0 -219 81t-88 221z M186 291q0 -94 56.5 -149.5t152.5 -55.5q129 0 236.5 93t142.5 233l29 118q-141 52 -305 52q-146 0 -232 -86q-80 -77 -80 -205zM455 1477l141 71l125 -291h-92z" />
<glyph unicode="&#xe1;" horiz-adv-x="1101" d="M49 279q0 172 115 284q120 123 332 123q158 0 329 -59l9 35q16 78 16 129q0 99 -65.5 153.5t-194.5 54.5q-132 0 -264 -57l-33 115q149 63 311 63q178 0 277.5 -82.5t99.5 -224.5q0 -61 -27 -172l-151 -641h-131l41 166q-153 -189 -357 -189q-131 0 -219 81t-88 221z M186 291q0 -94 56.5 -149.5t152.5 -55.5q129 0 236.5 93t142.5 233l29 118q-141 52 -305 52q-146 0 -232 -86q-80 -77 -80 -205zM621 1257l253 291l140 -71l-273 -220h-120z" />
<glyph unicode="&#xe2;" horiz-adv-x="1101" d="M49 279q0 172 115 284q120 123 332 123q158 0 329 -59l9 35q16 78 16 129q0 99 -65.5 153.5t-194.5 54.5q-132 0 -264 -57l-33 115q149 63 311 63q178 0 277.5 -82.5t99.5 -224.5q0 -61 -27 -172l-151 -641h-131l41 166q-153 -189 -357 -189q-131 0 -219 81t-88 221z M186 291q0 -94 56.5 -149.5t152.5 -55.5q129 0 236.5 93t142.5 233l29 118q-141 52 -305 52q-146 0 -232 -86q-80 -77 -80 -205zM430 1260l262 270h115l131 -270h-109l-98 149l-182 -149h-119z" />
<glyph unicode="&#xe3;" horiz-adv-x="1101" d="M49 279q0 172 115 284q120 123 332 123q158 0 329 -59l9 35q16 78 16 129q0 99 -65.5 153.5t-194.5 54.5q-132 0 -264 -57l-33 115q149 63 311 63q178 0 277.5 -82.5t99.5 -224.5q0 -61 -27 -172l-151 -641h-131l41 166q-153 -189 -357 -189q-131 0 -219 81t-88 221z M186 291q0 -94 56.5 -149.5t152.5 -55.5q129 0 236.5 93t142.5 233l29 118q-141 52 -305 52q-146 0 -232 -86q-80 -77 -80 -205zM403 1270q44 107 91 153.5t112 46.5q7 0 14 -0.5t15 -2.5t13.5 -3.5t14.5 -5t13 -5t15 -7t13.5 -7t15.5 -8.5t15 -8q61 -45 103 -45 q31 0 55.5 23.5t54.5 79.5l84 -25q-46 -107 -91.5 -153t-109.5 -46q-55 0 -129 50q-67 43 -102 43q-33 0 -58.5 -24.5t-52.5 -80.5z" />
<glyph unicode="&#xe4;" horiz-adv-x="1101" d="M49 279q0 172 115 284q120 123 332 123q158 0 329 -59l9 35q16 78 16 129q0 99 -65.5 153.5t-194.5 54.5q-132 0 -264 -57l-33 115q149 63 311 63q178 0 277.5 -82.5t99.5 -224.5q0 -61 -27 -172l-151 -641h-131l41 166q-153 -189 -357 -189q-131 0 -219 81t-88 221z M186 291q0 -94 56.5 -149.5t152.5 -55.5q129 0 236.5 93t142.5 233l29 118q-141 52 -305 52q-146 0 -232 -86q-80 -77 -80 -205zM457 1264l45 176h157l-45 -176h-157zM776 1264l45 176h154l-43 -176h-156z" />
<glyph unicode="&#xe5;" horiz-adv-x="1101" d="M49 279q0 172 115 284q120 123 332 123q158 0 329 -59l9 35q16 78 16 129q0 99 -65.5 153.5t-194.5 54.5q-132 0 -264 -57l-33 115q149 63 311 63q178 0 277.5 -82.5t99.5 -224.5q0 -61 -27 -172l-151 -641h-131l41 166q-153 -189 -357 -189q-131 0 -219 81t-88 221z M186 291q0 -94 56.5 -149.5t152.5 -55.5q129 0 236.5 93t142.5 233l29 118q-141 52 -305 52q-146 0 -232 -86q-80 -77 -80 -205zM530 1438q0 91 68.5 157t163.5 66q85 0 139.5 -53t54.5 -133q0 -88 -68 -154t-163 -66q-86 0 -140.5 52.5t-54.5 130.5zM606 1442 q0 -51 33.5 -85t89.5 -34q62 0 106 44.5t44 105.5q0 51 -32.5 84.5t-88.5 33.5q-63 0 -107.5 -44.5t-44.5 -104.5z" />
<glyph unicode="&#xe6;" horiz-adv-x="1804" d="M49 279q0 172 115 284q120 123 332 123q158 0 329 -59l9 35q16 82 16 129q0 99 -65.5 153.5t-194.5 54.5q-132 0 -264 -57l-33 115q149 63 311 63q146 0 237.5 -59t114.5 -166q76 106 179.5 169.5t220.5 63.5q166 0 260 -110t94 -285q0 -104 -35 -229h-751q-4 -25 -4 -74 q0 -155 80 -244.5t212 -89.5q86 0 153.5 28t139.5 83l64 -96q-167 -131 -355 -131q-140 0 -237.5 67t-140.5 189q-206 -259 -465 -259q-142 0 -232 80t-90 222zM186 291q0 -94 58.5 -149.5t158.5 -55.5q208 0 404 256q-12 94 4 184q-145 56 -313 56q-146 0 -232 -86 q-80 -77 -80 -205zM942 610h627q14 65 14 123q0 124 -59.5 201.5t-177.5 77.5q-135 0 -246 -111q-107 -104 -158 -291z" />
<glyph unicode="&#xe7;" horiz-adv-x="1038" d="M102 422q0 153 58 299.5t157 245.5q162 159 363 159q124 0 211.5 -55t140.5 -143l-106 -78q-44 74 -103.5 116t-148.5 42q-139 0 -256 -117q-81 -81 -129.5 -208.5t-48.5 -250.5q0 -159 81 -246.5t199 -87.5q135 0 258 113l76 -90q-152 -141 -342 -141h-4l-191 -275 l-120 59l206 230q-134 32 -217.5 144t-83.5 284z" />
<glyph unicode="&#xe8;" horiz-adv-x="1122" d="M104 426q0 152 59.5 300t158.5 247q155 155 350 155q166 0 261 -110t95 -285q0 -108 -37 -229h-749q-4 -25 -4 -74q0 -155 80 -244.5t212 -89.5q85 0 152 28t139 83l64 -96q-167 -131 -359 -131q-190 0 -306 120.5t-116 325.5zM260 610h625q14 52 14 123 q0 124 -59.5 201.5t-175.5 77.5q-134 0 -248 -111q-109 -109 -156 -291zM500 1477l141 71l125 -291h-92z" />
<glyph unicode="&#xe9;" horiz-adv-x="1122" d="M104 426q0 152 59.5 300t158.5 247q155 155 350 155q166 0 261 -110t95 -285q0 -108 -37 -229h-749q-4 -25 -4 -74q0 -155 80 -244.5t212 -89.5q85 0 152 28t139 83l64 -96q-167 -131 -359 -131q-190 0 -306 120.5t-116 325.5zM260 610h625q14 52 14 123 q0 124 -59.5 201.5t-175.5 77.5q-134 0 -248 -111q-109 -109 -156 -291zM664 1257l254 291l139 -71l-273 -220h-120z" />
<glyph unicode="&#xea;" horiz-adv-x="1122" d="M104 426q0 152 59.5 300t158.5 247q155 155 350 155q166 0 261 -110t95 -285q0 -108 -37 -229h-749q-4 -25 -4 -74q0 -155 80 -244.5t212 -89.5q85 0 152 28t139 83l64 -96q-167 -131 -359 -131q-190 0 -306 120.5t-116 325.5zM260 610h625q14 52 14 123 q0 124 -59.5 201.5t-175.5 77.5q-134 0 -248 -111q-109 -109 -156 -291zM475 1260l262 270h115l131 -270h-109l-98 149l-182 -149h-119z" />
<glyph unicode="&#xeb;" horiz-adv-x="1122" d="M104 426q0 152 59.5 300t158.5 247q155 155 350 155q166 0 261 -110t95 -285q0 -108 -37 -229h-749q-4 -25 -4 -74q0 -155 80 -244.5t212 -89.5q85 0 152 28t139 83l64 -96q-167 -131 -359 -131q-190 0 -306 120.5t-116 325.5zM260 610h625q14 52 14 123 q0 124 -59.5 201.5t-175.5 77.5q-134 0 -248 -111q-109 -109 -156 -291zM500 1264l45 176h157l-45 -176h-157zM819 1264l45 176h154l-43 -176h-156z" />
<glyph unicode="&#xec;" horiz-adv-x="526" d="M61 0l271 1106h131l-268 -1106h-134zM199 1475l141 71l125 -291h-92z" />
<glyph unicode="&#xed;" horiz-adv-x="526" d="M61 0l271 1106h131l-268 -1106h-134zM369 1255l254 291l139 -71l-273 -220h-120z" />
<glyph unicode="&#xee;" horiz-adv-x="526" d="M61 0l271 1106h131l-268 -1106h-134zM174 1257l262 271h115l131 -271h-109l-98 150l-182 -150h-119z" />
<glyph unicode="&#xef;" horiz-adv-x="526" d="M61 0l271 1106h131l-268 -1106h-134zM201 1262l45 176h157l-45 -176h-157zM520 1262l45 176h154l-43 -176h-156z" />
<glyph unicode="&#xf0;" horiz-adv-x="1189" d="M106 434q0 155 55 296.5t146 232.5q144 147 336 147q196 0 315 -186q-51 183 -190 397l-252 -104l-41 90l238 96q-66 90 -103 135h160q56 -81 59 -86l213 88l39 -90l-196 -82q209 -343 209 -641q0 -188 -58.5 -341t-158.5 -253q-73 -74 -167 -115t-196 -41 q-185 0 -296.5 126.5t-111.5 330.5zM242 436q0 -156 75.5 -248t206.5 -92q150 0 262 115q74 74 120 196.5t46 249.5q0 150 -82.5 244t-216.5 94q-145 0 -245 -106q-75 -73 -120.5 -198t-45.5 -255z" />
<glyph unicode="&#xf1;" horiz-adv-x="1173" d="M47 0l270 1106h132l-41 -178q152 200 346 200q135 0 217 -82.5t82 -222.5q0 -60 -27 -178l-154 -645h-133l158 653q21 86 21 148q0 98 -57 152.5t-159 54.5q-118 0 -220.5 -98t-139.5 -246l-162 -664h-133zM463 1270q44 107 91 153.5t112 46.5q7 0 14 -0.5t15 -2.5 t13.5 -3.5t14.5 -5t13 -5t15 -7t13.5 -7t15.5 -8.5t15 -8q61 -45 102 -45q31 0 56 23.5t55 79.5l84 -25q-46 -107 -91.5 -153t-109.5 -46q-55 0 -129 50q-67 43 -103 43q-33 0 -58 -24.5t-52 -80.5z" />
<glyph unicode="&#xf2;" horiz-adv-x="1204" d="M106 434q0 153 56 294.5t153 240.5q159 159 367 159q186 0 300 -126t114 -332q0 -153 -56 -294.5t-153 -238.5q-160 -160 -367 -160q-187 0 -300.5 126.5t-113.5 330.5zM242 440q0 -163 77.5 -253.5t208.5 -90.5q141 0 258 117q79 81 127 205t48 246q0 163 -78.5 253.5 t-208.5 90.5q-144 0 -258 -117q-80 -82 -127 -204.5t-47 -246.5zM526 1477l142 71l125 -291h-93z" />
<glyph unicode="&#xf3;" horiz-adv-x="1204" d="M106 434q0 153 56 294.5t153 240.5q159 159 367 159q186 0 300 -126t114 -332q0 -153 -56 -294.5t-153 -238.5q-160 -160 -367 -160q-187 0 -300.5 126.5t-113.5 330.5zM242 440q0 -163 77.5 -253.5t208.5 -90.5q141 0 258 117q79 81 127 205t48 246q0 163 -78.5 253.5 t-208.5 90.5q-144 0 -258 -117q-80 -82 -127 -204.5t-47 -246.5zM688 1257l254 291l139 -71l-272 -220h-121z" />
<glyph unicode="&#xf4;" horiz-adv-x="1204" d="M106 434q0 153 56 294.5t153 240.5q159 159 367 159q186 0 300 -126t114 -332q0 -153 -56 -294.5t-153 -238.5q-160 -160 -367 -160q-187 0 -300.5 126.5t-113.5 330.5zM242 440q0 -163 77.5 -253.5t208.5 -90.5q141 0 258 117q79 81 127 205t48 246q0 163 -78.5 253.5 t-208.5 90.5q-144 0 -258 -117q-80 -82 -127 -204.5t-47 -246.5zM500 1260l262 270h115l131 -270h-109l-98 149l-183 -149h-118z" />
<glyph unicode="&#xf5;" horiz-adv-x="1204" d="M106 434q0 153 56 294.5t153 240.5q159 159 367 159q186 0 300 -126t114 -332q0 -153 -56 -294.5t-153 -238.5q-160 -160 -367 -160q-187 0 -300.5 126.5t-113.5 330.5zM242 440q0 -163 77.5 -253.5t208.5 -90.5q141 0 258 117q79 81 127 205t48 246q0 163 -78.5 253.5 t-208.5 90.5q-144 0 -258 -117q-80 -82 -127 -204.5t-47 -246.5zM473 1270q44 107 91 153.5t112 46.5q7 0 14 -0.5t15 -2.5t13.5 -3.5t14.5 -5t13 -5t15 -7t13.5 -7t15.5 -8.5t15 -8q61 -45 102 -45q31 0 56 23.5t55 79.5l84 -25q-46 -107 -91.5 -153t-109.5 -46 q-55 0 -129 50q-67 43 -102 43q-33 0 -58.5 -24.5t-52.5 -80.5z" />
<glyph unicode="&#xf6;" horiz-adv-x="1204" d="M106 434q0 153 56 294.5t153 240.5q159 159 367 159q186 0 300 -126t114 -332q0 -153 -56 -294.5t-153 -238.5q-160 -160 -367 -160q-187 0 -300.5 126.5t-113.5 330.5zM242 440q0 -163 77.5 -253.5t208.5 -90.5q141 0 258 117q79 81 127 205t48 246q0 163 -78.5 253.5 t-208.5 90.5q-144 0 -258 -117q-80 -82 -127 -204.5t-47 -246.5zM524 1264l45 176h158l-45 -176h-158zM844 1264l45 176h153l-43 -176h-155z" />
<glyph unicode="&#xf7;" horiz-adv-x="1183" d="M174 686l29 127h909l-33 -127h-905zM436 279l49 194h179l-50 -194h-178zM621 1028l49 193h178l-49 -193h-178z" />
<glyph unicode="&#xf8;" horiz-adv-x="1204" d="M-47 -12l209 200q-56 106 -56 246q0 153 56 294.5t153 240.5q159 159 367 159q184 0 301 -127l119 115h147l-209 -201q56 -112 56 -245q0 -153 -56 -294.5t-153 -238.5q-160 -160 -367 -160q-188 0 -301 125l-121 -114h-145zM240 440q0 -95 22 -157l627 628 q-75 101 -215 101q-138 0 -260 -119q-81 -81 -127.5 -204t-46.5 -249zM309 193q76 -99 219 -99q141 0 260 119q81 81 127 203t46 248q0 81 -23 155z" />
<glyph unicode="&#xf9;" horiz-adv-x="1173" d="M123 285q0 74 24 176l156 645h131l-158 -651q-18 -89 -18 -148q0 -100 56.5 -155.5t156.5 -55.5q119 0 223.5 99t139.5 245l159 666h133l-268 -1106h-133l43 176q-154 -199 -346 -199q-136 0 -217.5 82.5t-81.5 225.5zM506 1473l141 71l125 -291h-92z" />
<glyph unicode="&#xfa;" horiz-adv-x="1173" d="M123 285q0 74 24 176l156 645h131l-158 -651q-18 -89 -18 -148q0 -100 56.5 -155.5t156.5 -55.5q119 0 223.5 99t139.5 245l159 666h133l-268 -1106h-133l43 176q-154 -199 -346 -199q-136 0 -217.5 82.5t-81.5 225.5zM670 1253l254 291l139 -71l-272 -220h-121z" />
<glyph unicode="&#xfb;" horiz-adv-x="1173" d="M123 285q0 74 24 176l156 645h131l-158 -651q-18 -89 -18 -148q0 -100 56.5 -155.5t156.5 -55.5q119 0 223.5 99t139.5 245l159 666h133l-268 -1106h-133l43 176q-154 -199 -346 -199q-136 0 -217.5 82.5t-81.5 225.5zM479 1255l262 271h115l131 -271h-108l-99 150 l-182 -150h-119z" />
<glyph unicode="&#xfc;" horiz-adv-x="1173" d="M123 285q0 74 24 176l156 645h131l-158 -651q-18 -89 -18 -148q0 -100 56.5 -155.5t156.5 -55.5q119 0 223.5 99t139.5 245l159 666h133l-268 -1106h-133l43 176q-154 -199 -346 -199q-136 0 -217.5 82.5t-81.5 225.5zM502 1260l45 176h158l-46 -176h-157zM821 1260 l45 176h154l-43 -176h-156z" />
<glyph unicode="&#xfd;" horiz-adv-x="1097" d="M-111 -254l70 102q66 -55 143 -55q62 0 119 47t129 162l-155 1104h139l117 -942l536 942h150l-666 -1133q-96 -163 -184 -231t-193 -68q-112 0 -205 72zM606 1253l254 291l139 -71l-272 -220h-121z" />
<glyph unicode="&#xfe;" horiz-adv-x="1243" d="M-29 -319l453 1857h133l-154 -625q163 215 369 215q159 0 261 -119.5t102 -318.5q0 -160 -58 -312.5t-159 -256.5q-147 -144 -330 -144q-134 0 -221.5 75.5t-126.5 193.5l-138 -565h-131zM293 430q0 -148 79.5 -241t205.5 -93q135 0 241 103q81 84 128.5 213.5 t47.5 265.5q0 153 -69.5 242.5t-190.5 89.5q-143 0 -264 -121q-81 -81 -129.5 -207t-48.5 -252z" />
<glyph unicode="&#xff;" horiz-adv-x="1097" d="M-111 -254l70 102q66 -55 143 -55q62 0 119 47t129 162l-155 1104h139l117 -942l536 942h150l-666 -1133q-96 -163 -184 -231t-193 -68q-112 0 -205 72zM442 1260l45 176h158l-45 -176h-158zM762 1260l45 176h154l-43 -176h-156z" />
<glyph unicode="&#x152;" horiz-adv-x="2084" d="M176 600q0 173 65 347t189 298q246 246 643 246h1104l-33 -127h-735l-133 -549h657l-30 -127h-658l-139 -561h747l-32 -127h-1008q-310 0 -483 170q-154 157 -154 430zM319 608q0 -226 121 -350q134 -131 383 -131h144l303 1237h-217q-319 0 -521 -205 q-103 -103 -158 -253t-55 -298z" />
<glyph unicode="&#x153;" horiz-adv-x="1947" d="M106 434q0 152 56 293.5t153 241.5q159 159 367 159q146 0 243 -83.5t132 -221.5q33 62 75 114t96.5 96.5t123.5 69.5t145 25q167 0 261.5 -110t94.5 -285q0 -108 -34 -229h-750q-4 -25 -4 -74q0 -155 80 -244.5t213 -89.5q86 0 153 28t142 85l53 -100 q-158 -129 -348 -129q-149 0 -252.5 78t-138.5 216q-73 -131 -189 -214t-260 -83q-184 0 -298 127t-114 330zM242 440q0 -163 77.5 -253.5t208.5 -90.5q141 0 258 117q79 81 127 205t48 246q0 163 -78.5 253.5t-208.5 90.5q-144 0 -258 -117q-80 -82 -127 -204.5t-47 -246.5 zM1087 610h625q12 53 12 123q0 124 -59.5 201.5t-175.5 77.5q-134 0 -248 -111q-107 -107 -154 -291z" />
<glyph unicode="&#x178;" horiz-adv-x="1251" d="M258 1491h150l251 -754l619 754h174l-756 -897l-143 -594h-139l149 614zM602 1608l43 172h166l-43 -172h-166zM944 1608l43 172h164l-43 -172h-164z" />
<glyph unicode="&#x2c6;" horiz-adv-x="1105" d="M473 1257l262 271h115l131 -271h-109l-98 150l-182 -150h-119z" />
<glyph unicode="&#x2dc;" horiz-adv-x="1105" d="M434 1268q44 107 91 153.5t112 46.5q7 0 14 -0.5t15 -2.5t13.5 -3.5t14.5 -5t13 -5t15 -7t13.5 -7t15.5 -8.5t15 -8q61 -45 102 -45q31 0 56 23.5t55 79.5l84 -25q-46 -107 -91.5 -153t-109.5 -46q-55 0 -129 50q-67 43 -102 43q-33 0 -58.5 -24.5t-52.5 -80.5z" />
<glyph unicode="&#x2000;" horiz-adv-x="940" />
<glyph unicode="&#x2001;" horiz-adv-x="1880" />
<glyph unicode="&#x2002;" horiz-adv-x="940" />
<glyph unicode="&#x2003;" horiz-adv-x="1880" />
<glyph unicode="&#x2004;" horiz-adv-x="626" />
<glyph unicode="&#x2005;" horiz-adv-x="470" />
<glyph unicode="&#x2006;" horiz-adv-x="313" />
<glyph unicode="&#x2007;" horiz-adv-x="313" />
<glyph unicode="&#x2008;" horiz-adv-x="235" />
<glyph unicode="&#x2009;" horiz-adv-x="376" />
<glyph unicode="&#x200a;" horiz-adv-x="104" />
<glyph unicode="&#x2010;" horiz-adv-x="821" d="M147 567l35 138h531l-33 -138h-533z" />
<glyph unicode="&#x2011;" horiz-adv-x="821" d="M147 567l35 138h531l-33 -138h-533z" />
<glyph unicode="&#x2012;" horiz-adv-x="821" d="M147 567l35 138h531l-33 -138h-533z" />
<glyph unicode="&#x2013;" horiz-adv-x="1081" d="M147 569l33 133h795l-33 -133h-795z" />
<glyph unicode="&#x2014;" horiz-adv-x="1744" d="M147 569l33 133h1456l-32 -133h-1457z" />
<glyph unicode="&#x2018;" horiz-adv-x="507" d="M281 1055l43 174q30 123 89.5 181.5t176.5 86.5l18 -65q-84 -26 -125.5 -67.5t-52.5 -107.5h68l-49 -202h-168z" />
<glyph unicode="&#x2019;" horiz-adv-x="507" d="M233 1112q85 26 127.5 68t51.5 108h-68l49 203h168l-43 -174q-30 -124 -89.5 -183t-176.5 -87z" />
<glyph unicode="&#x201a;" horiz-adv-x="507" d="M-74 -176q83 26 125 68t53 108h-69l51 203h168l-43 -174q-32 -125 -90.5 -184t-175.5 -87z" />
<glyph unicode="&#x201c;" horiz-adv-x="882" d="M281 1053l41 176q30 122 90 181t178 87l16 -65q-84 -26 -124.5 -67.5t-51.5 -109.5h70l-51 -202h-168zM653 1053l43 176q32 123 91 181.5t176 86.5l18 -65q-84 -26 -125 -67.5t-53 -109.5h69l-49 -202h-170z" />
<glyph unicode="&#x201d;" horiz-adv-x="882" d="M233 1112q84 26 126 68t53 108h-70l51 203h166l-41 -174q-32 -124 -91.5 -183t-176.5 -87zM608 1112q83 26 124.5 67.5t53.5 108.5h-69l49 203h170l-43 -174q-33 -125 -92 -183.5t-174 -86.5z" />
<glyph unicode="&#x201e;" horiz-adv-x="882" d="M-74 -176q83 26 125 68t53 108h-69l51 203h168l-43 -174q-32 -125 -90.5 -184t-175.5 -87zM303 -176q83 26 124 68t52 108h-69l51 203h170l-43 -174q-33 -125 -92 -184t-174 -87z" />
<glyph unicode="&#x2022;" horiz-adv-x="948" d="M268 696q0 72 26.5 136t72.5 110q80 80 184 80q91 0 148 -58.5t57 -156.5q0 -72 -27 -136.5t-72 -109.5q-83 -80 -184 -80q-92 0 -148.5 58t-56.5 157z" />
<glyph unicode="&#x2026;" horiz-adv-x="1417" d="M35 0l51 203h168l-51 -203h-168zM492 0l49 203h168l-50 -203h-167zM944 0l51 203h170l-51 -203h-170z" />
<glyph unicode="&#x202f;" horiz-adv-x="376" />
<glyph unicode="&#x2039;" horiz-adv-x="661" d="M106 537l5 16l434 453l82 -72l-369 -406l164 -393l-103 -49z" />
<glyph unicode="&#x203a;" horiz-adv-x="661" d="M29 158l368 403l-164 393l105 52l213 -451l-4 -16l-434 -453z" />
<glyph unicode="&#x205f;" horiz-adv-x="470" />
<glyph unicode="&#x20ac;" horiz-adv-x="1298" d="M78 518l28 113h152q10 135 41 246h-133l24 110h142q82 219 215 352q172 172 405 172q147 0 249 -72.5t157 -191.5l-113 -65q-53 100 -126 152t-183 52q-161 0 -287 -126q-108 -108 -170 -273h522l-28 -110h-529q-38 -122 -47 -246h516l-26 -113h-492q5 -191 90 -302.5 t238 -111.5q93 0 167.5 38.5t151.5 115.5l88 -86q-91 -94 -189.5 -143t-223.5 -49q-206 0 -332.5 143.5t-130.5 394.5h-176z" />
<glyph unicode="&#x2122;" horiz-adv-x="1316" d="M260 1411l23 80h440l-23 -80h-180l-143 -580h-82l145 580h-180zM684 831l168 660h84l111 -358l282 358h98l-165 -660h-82l129 519l-287 -365h-12l-113 365l-131 -519h-82z" />
<glyph unicode="&#x25fc;" horiz-adv-x="1105" d="M0 0v1106h1106v-1106h-1106z" />
<glyph unicode="&#xfb01;" horiz-adv-x="1208" d="M104 0l240 987h-139l31 119h139l31 129q21 82 47 135t69 94q81 78 213 78q100 0 176 -37l-28 -116q-78 34 -148 34q-77 0 -125.5 -48.5t-74.5 -151.5l-31 -117h307l-31 -119h-303l-239 -987h-134zM741 0l273 1106h129l-269 -1106h-133zM1063 1350l41 166h151l-43 -166 h-149z" />
<glyph unicode="&#xfb02;" horiz-adv-x="1208" d="M104 0l240 987h-139l31 119h139l31 129q21 82 47 135t69 94q81 78 213 78q100 0 176 -37l-28 -116q-78 34 -148 34q-77 0 -125.5 -48.5t-74.5 -151.5l-31 -117h307l-31 -119h-303l-239 -987h-134zM741 0l379 1538h129l-375 -1538h-133z" />
<glyph unicode="&#xfb03;" horiz-adv-x="1890" d="M104 0l240 987h-139l31 119h139l31 129q21 82 47 135t69 94q81 78 213 78q100 0 176 -37l-28 -116q-78 34 -148 34q-77 0 -125.5 -48.5t-74.5 -151.5l-31 -117h307l-31 -119h-303l-239 -987h-134zM786 0l240 987h-139l31 119h139l30 129q40 155 117 229q81 78 213 78 q100 0 176 -37l-28 -116q-78 34 -148 34q-77 0 -125.5 -48.5t-74.5 -151.5l-31 -117h307l-31 -119h-303l-239 -987h-134zM1425 0l273 1106h129l-268 -1106h-134zM1747 1350l41 166h151l-43 -166h-149z" />
<glyph unicode="&#xfb04;" horiz-adv-x="1890" d="M104 0l240 987h-139l31 119h139l31 129q21 82 47 135t69 94q81 78 213 78q100 0 176 -37l-28 -116q-78 34 -148 34q-77 0 -125.5 -48.5t-74.5 -151.5l-31 -117h307l-31 -119h-303l-239 -987h-134zM786 0l240 987h-139l31 119h139l30 129q40 155 117 229q81 78 213 78 q100 0 176 -37l-28 -116q-78 34 -148 34q-77 0 -125.5 -48.5t-74.5 -151.5l-31 -117h307l-31 -119h-303l-239 -987h-134zM1425 0l379 1538h129l-374 -1538h-134z" />
</font>
</defs>
</svg>
