<?xml version="1.0" standalone="no"?>
<!DOCTYPE svg PUBLIC "-//W3C//DTD SVG 1.1//EN" "http://www.w3.org/Graphics/SVG/1.1/DTD/svg11.dtd" >
<svg xmlns="http://www.w3.org/2000/svg">
<metadata></metadata>
<defs>
<font id="gotham_ssmmedium_italic" horiz-adv-x="1802" >
<font-face units-per-em="2048" ascent="1638" descent="-410" />
<missing-glyph horiz-adv-x="659" />
<glyph horiz-adv-x="0" />
<glyph horiz-adv-x="682" />
<glyph unicode=" "  horiz-adv-x="659" />
<glyph unicode="&#x09;" horiz-adv-x="659" />
<glyph unicode="&#xa0;" horiz-adv-x="659" />
<glyph unicode="!" horiz-adv-x="657" d="M41 0l76 285h274l-78 -285h-272zM233 467l177 944l22 80h291l-23 -80l-329 -944h-138z" />
<glyph unicode="&#x22;" horiz-adv-x="1056" d="M223 860l185 631h282l-2 -10l-334 -621h-131zM692 860l185 631h282l-2 -10l-334 -621h-131z" />
<glyph unicode="#" horiz-adv-x="1482" d="M51 346l58 213h219l133 381h-228l56 213h246l118 338h219l-118 -338h354l119 338h219l-119 -338h203l-55 -213h-222l-133 -381h230l-56 -213h-247l-121 -346h-219l120 346h-354l-121 -346h-219l121 346h-203zM547 559h354l133 381h-354z" />
<glyph unicode="$" horiz-adv-x="1361" d="M2 270l184 154q130 -152 326 -195l125 430q-91 34 -153 67t-112.5 78.5t-75 105.5t-24.5 137q0 125 73 227t200 159.5t282 57.5q31 0 45 -2l37 125h181l-43 -148q200 -50 342 -192l-172 -168q-109 106 -240 145l-119 -409q88 -33 149.5 -68t109 -81t70.5 -105.5 t23 -134.5q0 -132 -75 -235.5t-207 -160.5t-297 -57h-15l-61 -209h-180l67 225q-281 53 -440 254zM530 1073q0 -57 39 -96t138 -80l108 377h-4q-133 0 -207 -57.5t-74 -143.5zM674 217h2q127 5 202 61t74 148q0 57 -38 97.5t-130 80.5z" />
<glyph unicode="%" horiz-adv-x="1851" d="M141 0l719 743l721 748h225l-719 -743l-720 -748h-226zM197 1057q0 94 36 181.5t101 152.5q113 116 272 116q141 0 228.5 -90t87.5 -229q0 -93 -36.5 -181t-101.5 -153q-114 -117 -272 -117q-141 0 -228 90t-87 230zM369 1067q0 -82 40.5 -130t112.5 -48q74 0 135 61 q43 43 68 105t25 125q0 80 -41.5 128t-112.5 48q-73 0 -135 -62q-42 -41 -67 -103t-25 -124zM1026 303q0 94 36 181.5t101 152.5q117 117 275 117q140 0 227.5 -90.5t87.5 -229.5q0 -94 -36.5 -182t-102.5 -152q-113 -116 -273 -116q-140 0 -227.5 90t-87.5 229zM1198 311 q0 -80 41.5 -128t114.5 -48t135 62q42 41 67 103t25 124q0 82 -42 130t-114 48q-74 0 -135 -61q-43 -43 -67.5 -105t-24.5 -125z" />
<glyph unicode="&#x26;" horiz-adv-x="1499" d="M66 369q0 158 113 284.5t343 194.5q-86 140 -86 268q0 166 126 283t319 117q174 0 282.5 -95t108.5 -245q0 -277 -432 -412l215 -295q115 128 205 279l157 -107q-132 -206 -246 -328l164 -223l-186 -121l-139 193q-229 -182 -488 -182q-202 0 -329 104t-127 285zM305 387 q0 -90 65 -144.5t179 -54.5q168 0 346 134l-270 378q-161 -50 -240.5 -133t-79.5 -180zM662 1114q0 -94 73 -205q172 56 239.5 115.5t67.5 136.5q0 66 -46 111t-126 45q-89 0 -148.5 -60t-59.5 -143z" />
<glyph unicode="'" horiz-adv-x="587" d="M223 860l185 631h282l-2 -10l-334 -621h-131z" />
<glyph unicode="(" horiz-adv-x="956" d="M164 453q0 203 80 391t235 344q204 204 527 336l90 -185q-247 -109 -414 -276q-132 -132 -199 -287t-67 -317q0 -173 75.5 -319.5t208.5 -286.5l-153 -156q-180 150 -281.5 340t-101.5 416z" />
<glyph unicode=")" horiz-adv-x="956" d="M-113 -113q251 114 414 277q133 133 199.5 288t66.5 316q0 173 -74.5 320t-207.5 286l151 156q180 -150 281.5 -340t101.5 -414q0 -205 -79.5 -393t-235.5 -344q-201 -204 -527 -336z" />
<glyph unicode="*" horiz-adv-x="935" d="M266 1139l262 41l-206 166l104 104l166 -207l39 258l141 -35l-96 -245l248 94l39 -141l-265 -39l209 -168l-106 -103l-164 205l-41 -258l-139 37l94 244l-246 -95z" />
<glyph unicode="+" horiz-adv-x="1368" d="M176 637l60 225h413l109 410h235l-110 -410h411l-59 -225h-414l-108 -410h-236l111 410h-412z" />
<glyph unicode="," horiz-adv-x="634" d="M-102 -199q109 17 166 67t73 132h-106l75 285h275l-66 -242q-46 -173 -141 -252.5t-258 -93.5z" />
<glyph unicode="-" horiz-adv-x="894" d="M127 528l66 244h624l-65 -244h-625z" />
<glyph unicode="." horiz-adv-x="634" d="M31 0l75 285h275l-78 -285h-272z" />
<glyph unicode="/" horiz-adv-x="1126" d="M-266 -272l1476 1972h238l-1477 -1972h-237z" />
<glyph unicode="0" horiz-adv-x="1560" d="M158 573q0 202 76.5 398t214.5 334q211 211 495 211q254 0 403.5 -164t149.5 -434q0 -202 -76.5 -398t-214.5 -334q-211 -211 -495 -211q-254 0 -403.5 164t-149.5 434zM416 571q0 -170 83 -269t230 -99q154 0 283 129q104 104 165.5 265t61.5 323q0 170 -82.5 269 t-230.5 99q-155 0 -281 -129q-105 -105 -167 -266t-62 -322z" />
<glyph unicode="1" horiz-adv-x="870" d="M211 0l330 1231l-285 -74l-4 215l434 129h176l-401 -1501h-250z" />
<glyph unicode="2" horiz-adv-x="1308" d="M-45 0l53 203l797 581q121 89 176 160.5t55 151.5q0 88 -62.5 139t-170.5 51q-103 0 -194.5 -50.5t-184.5 -143.5l-158 159q235 260 549 260q216 0 348.5 -108.5t132.5 -282.5q0 -133 -77.5 -243t-260.5 -242l-561 -414h707l-60 -221h-1089z" />
<glyph unicode="3" horiz-adv-x="1308" d="M-6 260l190 135q61 -96 147 -145t212 -49q147 0 245.5 77.5t98.5 188.5q0 104 -89.5 159.5t-246.5 55.5h-82l-16 152l518 438h-647l61 219h989l-51 -188l-541 -445q164 -26 262.5 -118t98.5 -251q0 -191 -142 -333q-86 -86 -207.5 -133.5t-261.5 -47.5q-195 0 -330.5 76 t-207.5 209z" />
<glyph unicode="4" horiz-adv-x="1413" d="M53 524l1067 977h242l-256 -958h215l-55 -207h-215l-90 -336h-240l90 336h-731zM377 543h489l166 612z" />
<glyph unicode="5" horiz-adv-x="1312" d="M10 242l180 147q151 -186 375 -186q159 0 262 87.5t103 209.5q0 106 -80.5 170.5t-224.5 64.5q-124 0 -250 -63l-133 106l233 713h868l-61 -223h-641l-121 -357q107 35 201 35q210 0 338.5 -115t128.5 -307q0 -208 -152 -360q-189 -189 -491 -189q-167 0 -312 75.5 t-223 191.5z" />
<glyph unicode="6" horiz-adv-x="1388" d="M154 528q0 224 78.5 427t216.5 341q217 220 518 220q274 0 450 -181l-151 -178q-136 133 -320 133q-186 0 -323 -137q-67 -67 -119 -166t-72 -203q60 71 163.5 120.5t221.5 49.5q203 0 333 -117t130 -305q0 -104 -43 -203t-119 -175q-179 -179 -438 -179 q-116 0 -213.5 35t-161.5 101q-151 151 -151 417zM399 442q0 -104 72 -176q78 -78 211 -78q151 0 252 101q90 90 90 215q0 104 -73.5 174t-200.5 70q-80 0 -148 -28t-115 -75q-88 -88 -88 -203z" />
<glyph unicode="7" horiz-adv-x="1294" d="M82 0l954 1270h-747l61 221h1043l-52 -188l-964 -1303h-295z" />
<glyph unicode="8" horiz-adv-x="1415" d="M84 389q0 166 112.5 270t295.5 142q-91 42 -144 121.5t-53 177.5q0 78 38 151.5t106 131.5t174 93t231 35q227 0 371.5 -110.5t144.5 -282.5q0 -143 -94.5 -242.5t-251.5 -134.5q106 -41 172.5 -124.5t66.5 -200.5q0 -87 -43.5 -166.5t-121 -139t-193 -95t-250.5 -35.5 q-155 0 -283 51.5t-203 145.5t-75 212zM332 412q0 -99 89.5 -162.5t237.5 -63.5q151 0 248.5 68t98.5 176q2 96 -89 160.5t-237 64.5q-154 0 -250 -70t-98 -173zM530 1073q0 -92 78.5 -152.5t204.5 -60.5q137 0 222 68t85 162q2 93 -76 153t-210 60q-130 0 -216 -65.5 t-88 -164.5z" />
<glyph unicode="9" horiz-adv-x="1388" d="M53 172l152 178q79 -74 158.5 -111.5t177.5 -37.5q184 0 323 139q68 68 117.5 160.5t69.5 191.5q-61 -71 -162.5 -121.5t-222.5 -50.5q-203 0 -332 118t-129 312q0 111 43 211t121 178q177 177 438 177q109 0 210.5 -35.5t164.5 -98.5q76 -76 113.5 -180.5t37.5 -257.5 q0 -216 -79.5 -413.5t-219.5 -337.5q-218 -218 -506 -218q-275 0 -475 197zM459 979q0 -110 75 -180t205 -70q153 0 256 100q90 93 90 218q0 110 -69 176q-77 80 -211 80q-151 0 -250 -99q-93 -93 -96 -225z" />
<glyph unicode=":" horiz-adv-x="641" d="M35 0l76 285h274l-78 -285h-272zM258 838l78 284h272l-76 -284h-274z" />
<glyph unicode=";" horiz-adv-x="641" d="M-100 -199q211 32 239 199h-104l76 285h274l-66 -242q-46 -173 -141 -252.5t-258 -93.5zM258 838l78 284h272l-76 -284h-274z" />
<glyph unicode="&#x3c;" horiz-adv-x="1368" d="M172 639l59 221l1143 473l-67 -248l-863 -346l676 -348l-59 -225z" />
<glyph unicode="=" horiz-adv-x="1368" d="M137 371l62 229h995l-61 -229h-996zM281 899l61 229h993l-59 -229h-995z" />
<glyph unicode="&#x3e;" horiz-adv-x="1368" d="M90 166l70 250l860 346l-676 346l62 225l888 -473l-59 -221z" />
<glyph unicode="?" horiz-adv-x="1171" d="M219 1298q98 100 230.5 155.5t281.5 55.5q209 0 334 -110t125 -271q0 -192 -146.5 -313t-406.5 -160l-72 -188h-166l52 344l12 10q218 15 341.5 87.5t123.5 191.5q0 86 -61.5 134t-168.5 48q-91 0 -180 -40t-164 -107zM225 0l76 285h274l-77 -285h-273z" />
<glyph unicode="@" horiz-adv-x="2107" d="M135 496q0 202 82 390.5t220.5 328t332 223.5t406.5 84q194 0 356.5 -60t270 -161.5t166.5 -236t59 -284.5q0 -156 -42.5 -280.5t-112.5 -200t-154 -115t-173 -39.5q-107 0 -180.5 48t-101.5 133q-160 -185 -361 -185q-145 0 -242.5 97t-97.5 262q0 121 46 230t120 184.5 t169.5 120t193.5 44.5q206 0 297 -178l49 160l188 -53l-160 -508q-22 -67 -22 -119q0 -67 40 -105t109 -38q57 0 117 35t113 100t87 171.5t34 235.5q0 134 -53.5 254.5t-150 211t-243 143.5t-321.5 53q-196 0 -374.5 -77.5t-305.5 -206t-202 -302.5t-75 -360 q0 -221 101 -392t284 -265.5t420 -94.5q225 0 438 94l33 -69q-220 -103 -471 -103q-261 0 -463.5 104.5t-314 293.5t-111.5 432zM780 526q0 -98 55 -154.5t146 -56.5q83 0 162.5 51.5t130.5 139.5t51 184q0 94 -59.5 153.5t-157.5 59.5q-129 0 -228.5 -112t-99.5 -265z" />
<glyph unicode="A" horiz-adv-x="1644" d="M-94 0l1061 1501h241l256 -1501h-258l-57 362h-717l-254 -362h-272zM584 588h532l-100 620z" />
<glyph unicode="B" horiz-adv-x="1548" d="M53 0l402 1491h569q235 0 360 -98t125 -258q0 -150 -94.5 -248.5t-251.5 -132.5q236 -89 236 -305q0 -201 -169 -325t-466 -124h-711zM360 223h439q162 0 255 64t93 176q0 87 -72 134.5t-198 47.5h-404zM530 858h375q164 0 257 62t93 174q0 83 -65 128.5t-189 45.5h-362z " />
<glyph unicode="C" horiz-adv-x="1574" d="M172 608q0 180 71.5 348t200.5 295q125 125 287 195t342 70q203 0 348 -84t232 -234l-209 -141q-75 112 -167.5 169.5t-232.5 57.5q-113 0 -217 -46t-188 -130q-95 -95 -150 -224t-55 -268q0 -184 115 -296.5t297 -112.5q120 0 212 42.5t193 129.5l164 -166 q-117 -114 -254.5 -177t-318.5 -63q-142 0 -265 44.5t-213 125.5t-141 201t-51 264z" />
<glyph unicode="D" horiz-adv-x="1671" d="M53 0l402 1491h399q387 0 582 -195q161 -161 161 -432q0 -343 -239 -585q-135 -135 -331.5 -207t-442.5 -72h-531zM367 227h247q167 0 310.5 54t244.5 155q80 80 124 187t44 229q0 178 -106 281q-131 131 -395 131h-191z" />
<glyph unicode="E" horiz-adv-x="1425" d="M53 0l402 1491h1091l-61 -225h-842l-106 -404h745l-61 -223h-746l-110 -414h852l-62 -225h-1102z" />
<glyph unicode="F" horiz-adv-x="1427" d="M53 0l402 1491h1104l-62 -229h-854l-113 -420h758l-61 -230h-756l-166 -612h-252z" />
<glyph unicode="G" horiz-adv-x="1685" d="M172 614q0 174 70.5 339t197.5 292t296 199t360 72q398 0 585 -265l-188 -159q-72 92 -170.5 143t-247.5 51q-127 0 -241 -49.5t-201 -136.5q-93 -93 -146 -218t-53 -259q0 -195 121.5 -306.5t312.5 -111.5q182 0 324 80l94 323h-389l59 221h633l-200 -708 q-250 -148 -537 -148q-106 0 -205 25.5t-185.5 78.5t-151 128t-101.5 180t-37 229z" />
<glyph unicode="H" horiz-adv-x="1630" d="M53 0l402 1491h252l-168 -625h718l166 625h252l-399 -1491h-252l170 633h-717l-172 -633h-252z" />
<glyph unicode="I" horiz-adv-x="690" d="M68 0l401 1491h252l-399 -1491h-254z" />
<glyph unicode="J" horiz-adv-x="1224" d="M-47 260l184 143q56 -99 125 -145.5t164 -46.5q131 0 225 94q44 44 76 112t68 199l233 875h258l-250 -932q-42 -161 -89 -257t-122 -171q-154 -151 -409 -151q-155 0 -275.5 74t-187.5 206z" />
<glyph unicode="K" horiz-adv-x="1558" d="M53 0l402 1491h252l-207 -768l897 768h346l-762 -639l385 -852h-279l-309 702l-366 -307l-107 -395h-252z" />
<glyph unicode="L" horiz-adv-x="1335" d="M53 0l402 1491h252l-338 -1262h788l-61 -229h-1043z" />
<glyph unicode="M" horiz-adv-x="1861" d="M53 0l402 1491h250l266 -719l653 719h283l-400 -1491h-252l291 1085l-665 -714h-9l-282 710l-291 -1081h-246z" />
<glyph unicode="N" horiz-adv-x="1693" d="M53 0l402 1491h231l518 -1073l289 1073h248l-402 -1491h-209l-534 1102l-295 -1102h-248z" />
<glyph unicode="O" d="M174 627q0 174 70.5 341t195.5 292q122 121 280 188.5t339 67.5q146 0 271 -50t211.5 -137.5t135.5 -208t49 -258.5q0 -174 -70.5 -340t-195.5 -291q-122 -122 -279.5 -190t-338.5 -68q-195 0 -348 86.5t-236.5 235.5t-83.5 332zM436 641q0 -192 116.5 -314t315.5 -122 q226 0 398 172q93 92 145.5 218t52.5 255q0 191 -116.5 312.5t-315.5 121.5q-227 0 -397 -170q-93 -93 -146 -219t-53 -254z" />
<glyph unicode="P" horiz-adv-x="1454" d="M53 0l402 1491h469q303 0 448 -145q111 -111 111 -293q0 -222 -146 -365q-97 -97 -247 -148t-336 -51h-316l-133 -489h-252zM496 711h270q257 0 375 118q80 80 80 205q0 95 -58 150q-77 80 -248 80h-272z" />
<glyph unicode="Q" d="M174 627q0 174 70.5 341t195.5 292q122 121 280 188.5t339 67.5q146 0 271 -50t211.5 -137.5t135.5 -208t49 -258.5q0 -175 -71.5 -341.5t-202.5 -295.5l133 -164l-203 -139l-114 162q-198 -111 -426 -111q-195 0 -348 86.5t-236.5 235.5t-83.5 332zM436 641 q0 -192 116.5 -314t315.5 -122q142 0 262 69l-210 269l204 143l183 -266q75 91 116 203.5t41 226.5q0 191 -116.5 312.5t-315.5 121.5q-227 0 -397 -170q-93 -93 -146 -219t-53 -254z" />
<glyph unicode="R" horiz-adv-x="1558" d="M53 0l402 1491h538q306 0 449 -143q108 -108 108 -281q0 -203 -135 -338q-131 -131 -379 -178l281 -551h-287l-262 526h-322l-141 -526h-252zM508 750h346q241 0 358 114q76 79 76 183q0 86 -53 139q-78 78 -254 78h-336z" />
<glyph unicode="S" horiz-adv-x="1376" d="M12 258l189 156q95 -108 203.5 -160.5t250.5 -52.5q130 0 214.5 60t84.5 155q0 69 -59 119t-219 114q-95 37 -160.5 73t-120 83t-81.5 107.5t-27 136.5q0 174 125 299q78 78 194 120.5t254 42.5q343 0 543 -223l-176 -170q-86 86 -179 129t-208 43q-129 0 -207 -61 t-78 -144q0 -71 62.5 -118.5t232.5 -114.5q92 -36 155.5 -72t114.5 -83t76 -107.5t25 -136.5q0 -179 -129 -308q-81 -81 -197.5 -123t-253.5 -42q-210 0 -369.5 71t-259.5 207z" />
<glyph unicode="T" horiz-adv-x="1337" d="M248 1260l61 231h1207l-64 -231h-475l-338 -1260h-252l338 1260h-477z" />
<glyph unicode="U" horiz-adv-x="1642" d="M195 467q0 107 32 235l211 789h252l-221 -825q-20 -82 -20 -164q0 -134 82 -213.5t239 -79.5q167 0 285 115q110 107 168 317l227 850h252l-238 -889q-76 -283 -233 -440q-182 -185 -486 -185q-260 0 -405 131.5t-145 358.5z" />
<glyph unicode="V" horiz-adv-x="1554" d="M289 1491h268l141 -1155l762 1155h283l-1018 -1501h-223z" />
<glyph unicode="W" horiz-adv-x="2355" d="M301 1491h262l66 -1120l667 1124h213l72 -1124l666 1120h284l-923 -1501h-230l-78 1075l-653 -1075h-227z" />
<glyph unicode="X" horiz-adv-x="1505" d="M-78 0l742 772l-347 719h281l246 -541l504 541h321l-717 -750l357 -741h-281l-258 565l-524 -565h-324z" />
<glyph unicode="Y" horiz-adv-x="1419" d="M240 1491h280l234 -682l604 682h309l-844 -926l-153 -565h-252l160 594z" />
<glyph unicode="Z" horiz-adv-x="1468" d="M-31 0l49 184l1156 1086h-836l61 221h1184l-51 -184l-1155 -1086h872l-59 -221h-1221z" />
<glyph unicode="[" horiz-adv-x="985" d="M8 -276l475 1767h652l-54 -193h-413l-371 -1382h414l-52 -192h-651z" />
<glyph unicode="\" horiz-adv-x="1126" d="M283 1700h206l455 -1972h-209z" />
<glyph unicode="]" horiz-adv-x="985" d="M-125 -276l51 192h416l371 1382h-416l53 193h649l-475 -1767h-649z" />
<glyph unicode="^" horiz-adv-x="1085" d="M223 1051l443 442h176l202 -442h-172l-145 286l-297 -286h-207z" />
<glyph unicode="_" horiz-adv-x="1298" d="M-233 -340l51 193h1288l-53 -193h-1286z" />
<glyph unicode="`" horiz-adv-x="1085" d="M573 1509l232 103l129 -344h-170z" />
<glyph unicode="a" horiz-adv-x="1259" d="M37 283q0 161 106 270q138 135 385 135q178 0 355 -55l6 20q14 51 14 95q0 176 -256 176q-153 0 -307 -60l-41 199q189 74 397 74q216 0 331.5 -91t115.5 -255q0 -59 -23 -164l-168 -627h-239l39 152q-158 -175 -375 -175q-145 0 -242.5 84.5t-97.5 221.5zM285 311 q0 -70 51.5 -112.5t138.5 -42.5q118 0 220 78.5t136 195.5l15 53q-137 45 -283 45q-144 0 -221 -77q-57 -57 -57 -140z" />
<glyph unicode="b" horiz-adv-x="1441" d="M23 0l417 1554h248l-160 -587q171 178 367 178q191 0 314.5 -131t123.5 -348q0 -150 -54.5 -280.5t-150.5 -225.5q-87 -88 -195 -135.5t-224 -47.5q-261 0 -383 228l-56 -205h-247zM389 479q0 -126 82 -208.5t209 -82.5q147 0 258 111q65 65 102 156t37 192 q0 131 -75 209t-197 78q-150 0 -273 -123q-66 -66 -104.5 -152.5t-38.5 -179.5z" />
<glyph unicode="c" horiz-adv-x="1214" d="M106 473q0 136 52 259t145 216q92 92 212.5 144.5t250.5 52.5q169 0 281 -70.5t174 -183.5l-193 -133q-50 83 -114 127.5t-166 44.5q-141 0 -254 -113q-66 -66 -104 -156t-38 -186q0 -131 80 -210t195 -79q82 0 150 32.5t141 96.5l131 -161q-94 -87 -197 -133t-236 -46 q-143 0 -258.5 60t-183.5 174.5t-68 263.5z" />
<glyph unicode="d" horiz-adv-x="1441" d="M106 455q0 151 55 282t150 226q87 87 196 134.5t224 47.5q263 0 385 -227l170 636h248l-418 -1554h-246l41 154q-170 -177 -366 -177q-191 0 -315 130.5t-124 347.5zM365 473q0 -130 74.5 -207.5t197.5 -77.5q151 0 272 121q66 66 104 153t38 181q0 127 -81 209t-208 82 q-147 0 -260 -113q-64 -64 -100.5 -154.5t-36.5 -193.5z" />
<glyph unicode="e" horiz-adv-x="1296" d="M104 463q0 135 55.5 264.5t153.5 226.5q90 90 205 140.5t246 50.5q210 0 329 -122t119 -312q0 -116 -49 -236h-823v-4q0 -134 76 -214.5t217 -80.5q82 0 152 27t147 84l119 -156q-189 -156 -443 -156q-230 0 -367 132.5t-137 355.5zM367 639h600q10 33 10 80 q0 99 -57.5 161t-171.5 62q-154 0 -267 -113q-80 -80 -114 -190z" />
<glyph unicode="f" horiz-adv-x="860" d="M84 0l244 909h-144l58 213h143l21 84q40 161 129 250q109 109 296 109q134 0 220 -39l-54 -207q-81 35 -161 35q-144 0 -189 -164l-18 -68h315l-57 -213h-314l-243 -909h-246z" />
<glyph unicode="g" horiz-adv-x="1437" d="M-39 -170l137 170q196 -145 422 -145q175 0 277 102q75 75 121 233l20 72q-91 -87 -182.5 -129.5t-206.5 -42.5q-85 0 -162.5 27t-138 77t-97 128.5t-36.5 173.5q0 137 51 256t141 209q88 88 199.5 136t228.5 48q77 0 139.5 -18.5t106.5 -53.5t74 -72t55 -86l55 207h246 l-248 -929q-39 -148 -81 -231t-107 -150q-159 -156 -443 -156q-164 0 -314 45.5t-257 128.5zM371 539q0 -118 76 -183t192 -65q78 0 152.5 32.5t132.5 90.5q114 114 114 264q0 110 -76 183t-202 73q-155 0 -268 -113q-121 -121 -121 -282z" />
<glyph unicode="h" horiz-adv-x="1333" d="M23 0l417 1554h248l-156 -579q166 170 345 170q157 0 249.5 -90.5t92.5 -245.5q0 -79 -33 -195l-162 -614h-248l168 625q14 61 14 112q0 88 -52 136.5t-146 48.5q-111 0 -198.5 -80.5t-121.5 -210.5l-170 -631h-247z" />
<glyph unicode="i" horiz-adv-x="624" d="M39 0l301 1122h246l-301 -1122h-246zM379 1303l63 237h269l-66 -237h-266z" />
<glyph unicode="j" horiz-adv-x="622" d="M-254 -328l53 197q54 -12 86 -12q54 0 95 39t61 112l299 1114h246l-305 -1142q-87 -328 -373 -328q-92 0 -162 20zM379 1303l63 237h267l-64 -237h-266z" />
<glyph unicode="k" horiz-adv-x="1255" d="M23 0l417 1554h248l-250 -925l596 493h328l-571 -458l276 -664h-279l-206 502l-226 -180l-86 -322h-247z" />
<glyph unicode="l" horiz-adv-x="624" d="M39 0l418 1554h245l-417 -1554h-246z" />
<glyph unicode="m" horiz-adv-x="2041" d="M23 0l301 1122h247l-39 -147q77 81 154.5 125.5t177.5 44.5q120 0 198.5 -63t108.5 -164q77 106 184.5 166.5t239.5 60.5q152 0 243 -91t91 -245q0 -57 -35 -195l-163 -614h-246l168 625q14 61 14 112q0 88 -49 136.5t-139 48.5q-106 0 -191 -81t-119 -210l-168 -631 h-247l168 625q16 56 16 112q0 88 -49.5 136.5t-138.5 48.5q-107 0 -191.5 -80.5t-118.5 -210.5l-170 -631h-247z" />
<glyph unicode="n" horiz-adv-x="1335" d="M23 0l301 1122h247l-39 -147q166 170 345 170q157 0 249.5 -90.5t92.5 -245.5q0 -79 -33 -195l-162 -614h-248l168 625q14 61 14 112q0 88 -52 136.5t-146 48.5q-111 0 -198.5 -80.5t-121.5 -210.5l-170 -631h-247z" />
<glyph unicode="o" horiz-adv-x="1394" d="M106 485q0 129 52.5 250t146.5 215q92 92 209.5 143.5t247.5 51.5q237 0 381.5 -143.5t144.5 -368.5q0 -128 -52.5 -249t-145.5 -214q-92 -92 -209.5 -143.5t-247.5 -51.5q-238 0 -382.5 143t-144.5 367zM352 494q0 -144 80.5 -225t214.5 -81q143 0 256 113 q65 63 102 152t37 174q0 143 -80.5 223t-213.5 80q-142 0 -256 -111q-65 -65 -102.5 -153t-37.5 -172z" />
<glyph unicode="p" horiz-adv-x="1441" d="M-68 -340l392 1462h247l-43 -155q171 178 367 178q191 0 314.5 -131t123.5 -348q0 -150 -54.5 -280.5t-150.5 -225.5q-87 -88 -195 -135.5t-224 -47.5q-261 0 -383 228l-148 -545h-246zM389 479q0 -126 82 -208.5t209 -82.5q147 0 258 111q65 65 102 156t37 192 q0 131 -75 209t-197 78q-150 0 -273 -123q-66 -66 -104.5 -152.5t-38.5 -179.5z" />
<glyph unicode="q" horiz-adv-x="1441" d="M106 455q0 151 55 282t150 226q87 87 196 134.5t224 47.5q263 0 385 -227l55 204h246l-391 -1462h-248l133 494q-170 -177 -366 -177q-191 0 -315 130.5t-124 347.5zM365 473q0 -130 74.5 -207.5t197.5 -77.5q151 0 272 121q66 66 104 153t38 181q0 127 -81 209t-208 82 q-147 0 -260 -113q-64 -64 -100.5 -154.5t-36.5 -193.5z" />
<glyph unicode="r" horiz-adv-x="894" d="M23 0l301 1122h247l-69 -258q195 280 447 280q16 0 32 -1l-70 -260h-14q-178 0 -314.5 -118t-197.5 -345l-115 -420h-247z" />
<glyph unicode="s" horiz-adv-x="1081" d="M-23 174l148 154q161 -158 367 -158q80 0 134 38t54 101q0 42 -40 76t-130 70q-63 26 -106.5 46.5t-87.5 49.5t-69.5 59.5t-42 72t-16.5 91.5q0 160 120 265.5t319 105.5q122 0 237 -46t193 -112l-139 -160q-154 123 -310 123q-85 0 -132.5 -37.5t-47.5 -95.5 q0 -42 41.5 -75.5t142.5 -75.5q73 -32 122 -58.5t95 -64.5t68.5 -85t22.5 -106q0 -169 -126.5 -273t-320.5 -104q-134 0 -267.5 51.5t-228.5 147.5z" />
<glyph unicode="t" horiz-adv-x="890" d="M150 201q0 54 18 131l154 577h-144l58 213h143l84 312h248l-84 -312h305l-58 -213h-305l-147 -555q-10 -33 -10 -65q0 -43 30.5 -65.5t87.5 -22.5q84 0 164 35l-59 -216q-86 -38 -205 -38q-132 0 -206 59t-74 160z" />
<glyph unicode="u" horiz-adv-x="1333" d="M115 313q0 69 32 195l164 614h246l-166 -624q-16 -56 -16 -113q0 -87 53 -135.5t147 -48.5q109 0 196.5 80.5t123.5 210.5l168 630h248l-301 -1122h-246l39 147q-166 -170 -344 -170q-157 0 -250.5 90.5t-93.5 245.5z" />
<glyph unicode="v" horiz-adv-x="1255" d="M195 1122h256l86 -833l526 833h270l-760 -1130h-221z" />
<glyph unicode="w" horiz-adv-x="1837" d="M207 1122h252l24 -780l465 784h211l45 -786l449 782h250l-676 -1130h-221l-48 780l-469 -780h-217z" />
<glyph unicode="x" horiz-adv-x="1236" d="M-80 0l574 584l-263 538h267l166 -368l342 368h299l-547 -561l268 -561h-266l-174 391l-367 -391h-299z" />
<glyph unicode="y" horiz-adv-x="1263" d="M-111 -270l134 180q66 -49 145 -49q56 0 102 29.5t101 105.5l-168 1126h254l100 -843l506 843h272l-731 -1153q-114 -173 -219 -245t-242 -72q-143 0 -254 78z" />
<glyph unicode="z" horiz-adv-x="1198" d="M-39 0l45 170l840 750h-617l56 202h944l-45 -170l-842 -749h647l-55 -203h-973z" />
<glyph unicode="{" horiz-adv-x="1056" d="M119 516l51 191h63q79 0 131 14.5t89 50.5q68 68 102 275q19 109 48 187t93 142q139 139 453 148l12 -170q-201 -14 -291 -101q-42 -42 -62 -100.5t-34 -148.5q-8 -50 -14.5 -82.5t-20 -80.5t-34 -86.5t-48.5 -66.5q-82 -79 -223 -94q82 -17 125 -65t43 -121 q0 -59 -31 -150q-41 -125 -41 -182q0 -81 48 -132t172 -91l-80 -154q-198 40 -286.5 124.5t-88.5 213.5q0 74 43 207q31 91 31 139q0 68 -38.5 100.5t-146.5 32.5h-65z" />
<glyph unicode="|" horiz-adv-x="718" d="M37 -272l528 1972h199l-531 -1972h-196z" />
<glyph unicode="}" horiz-adv-x="1056" d="M-78 -131q202 14 291 100q42 42 62 100.5t34 149.5q8 50 14.5 82.5t20 80.5t34 86.5t48.5 66.5q82 79 223 94q-82 17 -125 65t-43 121q0 61 31 148q41 130 41 184q0 81 -47.5 132t-171.5 91l80 154q198 -40 286 -124.5t88 -213.5q0 -76 -45 -207q-28 -93 -28 -139 q0 -68 38 -100.5t146 -32.5h66l-52 -191h-63q-79 0 -130.5 -14.5t-88.5 -50.5q-70 -70 -103 -275q-19 -109 -48.5 -188t-92.5 -142q-138 -138 -453 -147z" />
<glyph unicode="~" horiz-adv-x="1069" d="M152 553q117 256 288 256q49 0 83 -15.5t77 -50.5q44 -36 64 -47.5t45 -11.5q41 0 73 31.5t68 95.5l139 -66q-117 -256 -289 -256q-49 0 -82 15.5t-77 50.5q-44 36 -64 47.5t-45 11.5q-41 0 -73 -31.5t-68 -95.5z" />
<glyph unicode="&#xa1;" horiz-adv-x="657" d="M33 0l22 80l330 946h135l-176 -946l-22 -80h-289zM365 1206l75 285h275l-78 -285h-272z" />
<glyph unicode="&#xa2;" horiz-adv-x="1247" d="M158 678q0 136 50.5 257t141.5 212q92 92 214 143t259 51q33 0 56 -2l65 164h180l-77 -198q171 -64 256 -224l-191 -127q-69 107 -156 146l-280 -715h22q168 0 314 121l135 -166q-188 -170 -442 -170q-51 0 -101 6l-74 -188h-180l90 233q-133 61 -207.5 180t-74.5 277z M403 680q0 -83 34 -148t95 -102l273 696h-2q-157 -6 -266 -118q-62 -62 -98 -148.5t-36 -179.5z" />
<glyph unicode="&#xa3;" horiz-adv-x="1376" d="M-10 0l43 158l184 51l105 389h-170l57 211h168l61 227q57 210 170 326q150 147 381 147q299 0 434 -247l-200 -136q-48 76 -105.5 114t-146.5 38q-106 0 -185 -76q-68 -68 -108 -209l-51 -184h542l-57 -211h-541l-100 -379h703l-60 -219h-1124z" />
<glyph unicode="&#xa5;" horiz-adv-x="1525" d="M135 221l49 182h412l41 160h-412l49 182h340l-301 746h275l235 -639l584 639h305l-706 -746h337l-49 -182h-413l-41 -160h413l-49 -182h-413l-60 -221h-244l60 221h-412z" />
<glyph unicode="&#xa7;" horiz-adv-x="1366" d="M127 170l156 143q64 -62 156.5 -101.5t193.5 -39.5q84 0 136 30t52 81q0 44 -54 76t-192 75q-66 20 -111.5 36t-95 37.5t-81 44t-59 51t-40 63t-12.5 75.5q0 65 30.5 117.5t80.5 85t105.5 51.5t113.5 25q-103 74 -103 184q0 137 127 224.5t318 87.5q154 0 284 -52 t205 -139l-155 -143q-64 62 -157 101.5t-194 39.5q-84 0 -136 -30t-52 -81q0 -44 54 -76t192 -75q66 -20 111.5 -36t95 -37.5t81 -44t59 -51t40 -63t12.5 -75.5q0 -53 -20.5 -98t-54 -76t-77.5 -54t-89 -35.5t-91 -17.5q105 -73 105 -182q0 -137 -127 -224t-318 -87 q-154 0 -284 52t-205 138zM412 780q0 -49 50 -82.5t167 -70.5q134 -45 225 -45q83 0 141 38.5t58 94.5q0 49 -50 82.5t-167 70.5q-134 45 -226 45q-83 0 -140.5 -38.5t-57.5 -94.5z" />
<glyph unicode="&#xa8;" horiz-adv-x="1085" d="M387 1268l68 245h252l-68 -245h-252zM805 1268l67 245h252l-67 -245h-252z" />
<glyph unicode="&#xa9;" horiz-adv-x="1787" d="M176 651q0 172 66.5 335t187.5 284q246 246 594 246q153 0 282 -52t216.5 -143t136.5 -215t49 -266q0 -172 -66.5 -335t-187.5 -284q-246 -246 -594 -246q-153 0 -282 52t-216.5 143t-136.5 215t-49 266zM258 655q0 -169 70 -304.5t209 -217.5t325 -82q313 0 527 217 q115 113 176 260t61 312q0 124 -41.5 233t-117.5 190.5t-191.5 129t-255.5 47.5q-309 0 -526 -217q-114 -113 -175 -259t-61 -309zM532 682q0 98 38.5 188.5t107.5 159.5q144 144 338 144q109 0 189 -46t126 -127l-125 -86q-81 117 -202 117t-211 -90q-48 -46 -75.5 -113.5 t-27.5 -140.5q0 -98 57 -152.5t148 -54.5q63 0 111.5 22.5t99.5 67.5l98 -102q-133 -129 -313 -129q-158 0 -258.5 92.5t-100.5 249.5z" />
<glyph unicode="&#xaa;" horiz-adv-x="851" d="M125 602l31 121h551l-33 -121h-549zM231 1024q0 105 76.5 166t196.5 61q89 0 188 -30l4 14q9 31 9 45q0 44 -34.5 69t-103.5 25q-86 0 -168 -35l-24 119q103 41 223 41t183 -50t63 -140q0 -43 -13 -90l-92 -347h-143l25 84q-93 -96 -207 -96q-80 0 -131.5 46t-51.5 118z M377 1042q0 -35 25.5 -57t68.5 -22q64 0 121 44.5t72 106.5l6 21q-78 24 -144 24t-107.5 -32.5t-41.5 -84.5z" />
<glyph unicode="&#xab;" horiz-adv-x="1294" d="M106 541l7 16l501 475l134 -125l-373 -383l160 -362l-187 -84zM633 541l4 16l504 475l133 -125l-373 -383l160 -362l-187 -84z" />
<glyph unicode="&#xad;" horiz-adv-x="894" d="M127 528l66 244h624l-65 -244h-625z" />
<glyph unicode="&#xae;" horiz-adv-x="839" d="M205 1094q0 177 123 297q117 120 286 120q148 0 239 -93t91 -232q0 -179 -121 -297q-120 -123 -286 -123q-148 0 -240 94.5t-92 233.5zM248 1098q0 -125 79 -208t214 -83q143 0 247 104q115 115 115 271q0 125 -79 208t-214 83q-142 0 -250 -105q-112 -115 -112 -270z M371 954l104 385h148q82 0 115.5 -34t33.5 -82q0 -51 -30 -87t-87 -49l58 -133h-95l-53 123h-69l-31 -123h-94zM516 1151h72q55 0 76 25q16 16 16 36q0 48 -68 48h-67z" />
<glyph unicode="&#xaf;" horiz-adv-x="1085" d="M377 1294l47 181h727l-49 -181h-725z" />
<glyph unicode="&#xb0;" horiz-adv-x="909" d="M203 1118q0 76 31 148t85 125q112 112 267 112q140 0 225.5 -85.5t85.5 -217.5q0 -155 -117 -272q-110 -113 -266 -113q-139 0 -225 85.5t-86 217.5zM348 1126q0 -79 49 -127.5t127 -48.5q89 0 152 66q76 73 76 176q0 81 -48 128.5t-126 47.5q-88 0 -154 -63 q-76 -76 -76 -179z" />
<glyph unicode="&#xb1;" horiz-adv-x="1368" d="M20 0l56 211h1030l-57 -211h-1029zM231 793l60 217h403l103 389h225l-107 -389h404l-57 -217h-404l-102 -390h-228l107 390h-404z" />
<glyph unicode="&#xb2;" horiz-adv-x="860" d="M215 899l35 129l438 315q63 46 93 83.5t30 80.5q0 46 -34.5 74.5t-92.5 28.5q-104 0 -215 -111l-92 96q137 154 315 154q125 0 200 -63t75 -164q0 -77 -44 -140.5t-159 -140.5l-303 -209h399l-37 -133h-608z" />
<glyph unicode="&#xb3;" horiz-adv-x="860" d="M242 1020l100 96q89 -102 207 -102q81 0 134.5 40.5t53.5 100.5q0 56 -48 85.5t-134 29.5h-49l-17 90l299 231h-360l37 135h559l-31 -114l-317 -240q99 -13 157 -64t58 -141q0 -125 -98 -206.5t-244 -81.5q-210 0 -307 141z" />
<glyph unicode="&#xb4;" horiz-adv-x="1085" d="M485 1268l316 344l223 -103l-324 -241h-215z" />
<glyph unicode="&#xb5;" horiz-adv-x="1441" d="M-68 -340l392 1462h247l-157 -587q-21 -86 -21 -138q0 -95 55.5 -148.5t155.5 -53.5q112 0 190 66.5t111 195.5l180 665h246l-205 -766q-14 -51 -14 -86q0 -77 107 -77q39 0 73 6l-53 -195q-61 -18 -131 -18q-95 0 -153 41.5t-76 115.5q-118 -159 -301 -159 q-105 0 -182.5 53t-108.5 156h-4q-9 -162 -47 -314l-60 -219h-244z" />
<glyph unicode="&#xb6;" horiz-adv-x="1212" d="M207 920q0 232 149 378q193 193 582 193h319l-401 -1491h-250l129 489q-287 9 -422 144q-106 106 -106 287z" />
<glyph unicode="&#xb7;" horiz-adv-x="634" d="M160 508l78 285h272l-76 -285h-274z" />
<glyph unicode="&#xb8;" horiz-adv-x="1085" d="M123 -258l266 278h186l-260 -370z" />
<glyph unicode="&#xb9;" horiz-adv-x="700" d="M399 1640l275 99h114l-225 -840h-147l180 676l-184 -66z" />
<glyph unicode="&#xba;" horiz-adv-x="868" d="M125 602l33 121h585l-32 -121h-586zM240 1141q0 146 110 256q47 48 112.5 76t137.5 28q132 0 212.5 -79t80.5 -205q0 -144 -109 -256q-105 -105 -252 -105q-132 0 -212 79.5t-80 205.5zM385 1147q0 -73 43.5 -119.5t112.5 -46.5q78 0 139 61q31 31 49.5 77t18.5 93 q0 72 -42.5 118t-111.5 46q-81 0 -139 -61q-32 -31 -51 -76.5t-19 -91.5z" />
<glyph unicode="&#xbb;" horiz-adv-x="1294" d="M16 203l373 383l-158 360l187 86l239 -463l-4 -18l-503 -475zM543 203l372 383l-157 360l184 86l242 -463l-4 -18l-504 -475z" />
<glyph unicode="&#xbc;" horiz-adv-x="1775" d="M78 0l739 774l670 717h160l-740 -774l-667 -717h-162zM291 1405l274 98h113l-223 -839h-148l180 673l-186 -63zM879 180l18 142l537 518h161l-143 -539h113l-33 -121h-115l-47 -182h-139l49 182h-401zM1036 299h277l98 367h-2z" />
<glyph unicode="&#xbd;" horiz-adv-x="1775" d="M57 0l740 774l669 717h160l-739 -774l-668 -717h-162zM291 1405l274 98h113l-223 -839h-148l180 673l-186 -63zM856 0l35 129l438 315q63 46 93 83.5t30 80.5q0 46 -34.5 74.5t-92.5 28.5q-104 0 -215 -111l-92 96q137 154 315 154q125 0 200 -63t75 -164 q0 -77 -44 -140.5t-159 -140.5l-303 -209h399l-37 -133h-608z" />
<glyph unicode="&#xbe;" horiz-adv-x="1935" d="M133 784l100 95q91 -101 207 -101q81 0 135 40.5t54 99.5q0 57 -48 86.5t-135 29.5h-49l-16 90l299 232h-361l37 135h559l-30 -115l-318 -239q98 -13 156.5 -64.5t58.5 -140.5q0 -125 -98 -208t-244 -83q-209 0 -307 143zM227 0l740 774l669 717h160l-739 -774l-668 -717 h-162zM1038 180l19 142l536 518h162l-143 -539h112l-32 -121h-115l-47 -182h-139l49 182h-402zM1196 299h277l98 367h-2z" />
<glyph unicode="&#xbf;" horiz-adv-x="1171" d="M82 362q0 192 146 313.5t405 160.5l74 190h163l-49 -346l-14 -10q-218 -15 -340.5 -87.5t-122.5 -191.5q0 -86 60.5 -134t166.5 -48q91 0 181 40.5t163 106.5l136 -163q-98 -100 -230.5 -155.5t-279.5 -55.5q-210 0 -334.5 109.5t-124.5 270.5zM696 1206l76 285h275 l-78 -285h-273z" />
<glyph unicode="&#xc0;" horiz-adv-x="1644" d="M-94 0l1061 1501h241l256 -1501h-258l-57 362h-717l-254 -362h-272zM584 588h532l-100 620zM805 1841l229 101l154 -306h-170z" />
<glyph unicode="&#xc1;" horiz-adv-x="1644" d="M-94 0l1061 1501h241l256 -1501h-258l-57 362h-717l-254 -362h-272zM584 588h532l-100 620zM1012 1636l319 306l221 -101l-323 -205h-217z" />
<glyph unicode="&#xc2;" horiz-adv-x="1644" d="M-94 0l1061 1501h241l256 -1501h-258l-57 362h-717l-254 -362h-272zM584 588h532l-100 620zM735 1630l330 283h233l179 -283h-191l-131 123l-197 -123h-223z" />
<glyph unicode="&#xc3;" horiz-adv-x="1644" d="M-94 0l1061 1501h241l256 -1501h-258l-57 362h-717l-254 -362h-272zM584 588h532l-100 620zM737 1661q59 131 120.5 192.5t150.5 61.5q68 0 172 -45q9 -4 33 -13.5t35 -13.5t27 -8t28 -4q44 0 73.5 23.5t63.5 78.5l139 -45q-59 -130 -120.5 -191t-151.5 -61 q-68 0 -172 45q-93 37 -123 37q-44 0 -72.5 -23t-62.5 -79z" />
<glyph unicode="&#xc4;" horiz-adv-x="1644" d="M-94 0l1061 1501h241l256 -1501h-258l-57 362h-717l-254 -362h-272zM584 588h532l-100 620zM782 1636l64 232h256l-64 -232h-256zM1214 1636l64 232h258l-66 -232h-256z" />
<glyph unicode="&#xc5;" horiz-adv-x="1644" d="M-94 0l1009 1427q-57 54 -57 134q0 104 78.5 177.5t202.5 73.5q96 0 160.5 -57t64.5 -139q0 -71 -36.5 -130t-100.5 -91l237 -1395h-258l-57 362h-717l-254 -362h-272zM584 588h532l-100 620zM973 1571q0 -49 33.5 -79t87.5 -30q67 0 112 43t45 101q0 48 -33 78t-88 30 q-67 0 -112 -43t-45 -100z" />
<glyph unicode="&#xc6;" horiz-adv-x="2269" d="M-98 0l1237 1491h1251l-61 -225h-805l-109 -404h711l-62 -223h-708l-113 -414h819l-61 -225h-1067l96 362h-551l-299 -362h-278zM662 588h430l182 684h-45z" />
<glyph unicode="&#xc7;" horiz-adv-x="1574" d="M172 608q0 180 71.5 348t200.5 295q125 125 287 195t342 70q203 0 348 -84t232 -234l-209 -141q-75 112 -167.5 169.5t-232.5 57.5q-113 0 -217 -46t-188 -130q-95 -95 -150 -224t-55 -268q0 -184 115 -296.5t297 -112.5q120 0 212 42.5t193 129.5l164 -166 q-117 -114 -254.5 -177t-318.5 -63h-15l-227 -323l-192 92l241 254q-217 52 -347 213t-130 399z" />
<glyph unicode="&#xc8;" horiz-adv-x="1425" d="M53 0l402 1491h1091l-61 -225h-842l-106 -404h745l-61 -223h-746l-110 -414h852l-62 -225h-1102zM707 1821l229 100l154 -305h-170z" />
<glyph unicode="&#xc9;" horiz-adv-x="1425" d="M53 0l402 1491h1091l-61 -225h-842l-106 -404h745l-61 -223h-746l-110 -414h852l-62 -225h-1102zM913 1616l320 305l221 -100l-324 -205h-217z" />
<glyph unicode="&#xca;" horiz-adv-x="1425" d="M53 0l402 1491h1091l-61 -225h-842l-106 -404h745l-61 -223h-746l-110 -414h852l-62 -225h-1102zM639 1616l330 282h233l178 -282h-190l-131 123l-197 -123h-223z" />
<glyph unicode="&#xcb;" horiz-adv-x="1425" d="M53 0l402 1491h1091l-61 -225h-842l-106 -404h745l-61 -223h-746l-110 -414h852l-62 -225h-1102zM682 1616l63 231h256l-63 -231h-256zM1114 1616l64 231h258l-66 -231h-256z" />
<glyph unicode="&#xcc;" horiz-adv-x="690" d="M68 0l401 1491h252l-399 -1491h-254zM305 1821l230 100l153 -305h-170z" />
<glyph unicode="&#xcd;" horiz-adv-x="690" d="M68 0l401 1491h252l-399 -1491h-254zM512 1616l319 305l222 -100l-324 -205h-217z" />
<glyph unicode="&#xce;" horiz-adv-x="690" d="M68 0l401 1491h252l-399 -1491h-254zM240 1616l329 282h234l178 -282h-190l-132 123l-196 -123h-223z" />
<glyph unicode="&#xcf;" horiz-adv-x="690" d="M68 0l401 1491h252l-399 -1491h-254zM283 1616l63 231h256l-63 -231h-256zM715 1616l63 231h258l-65 -231h-256z" />
<glyph unicode="&#xd0;" horiz-adv-x="1720" d="M104 0l177 659h-172l51 183h170l174 649h399q390 0 582 -195q164 -164 164 -432q0 -343 -242 -585q-279 -279 -772 -279h-531zM416 227h248q168 0 312 54t245 155q165 165 165 416q0 180 -104 281q-131 131 -397 131h-189l-114 -422h370l-51 -183h-369z" />
<glyph unicode="&#xd1;" horiz-adv-x="1693" d="M53 0l402 1491h231l518 -1073l289 1073h248l-402 -1491h-209l-534 1102l-295 -1102h-248zM741 1636q59 131 120.5 192.5t150.5 61.5q68 0 172 -45q9 -4 33 -13.5t35 -13.5t27 -8t28 -4q44 0 73.5 23.5t63.5 79.5l139 -45q-59 -130 -120.5 -191t-151.5 -61q-68 0 -172 45 q-92 37 -123 37q-43 0 -71.5 -23.5t-63.5 -79.5z" />
<glyph unicode="&#xd2;" d="M174 627q0 174 70.5 341t195.5 292q122 121 280 188.5t339 67.5q146 0 271 -50t211.5 -137.5t135.5 -208t49 -258.5q0 -174 -70.5 -340t-195.5 -291q-122 -122 -279.5 -190t-338.5 -68q-195 0 -348 86.5t-236.5 235.5t-83.5 332zM436 641q0 -192 116.5 -314t315.5 -122 q226 0 398 172q93 92 145.5 218t52.5 255q0 191 -116.5 312.5t-315.5 121.5q-227 0 -397 -170q-93 -93 -146 -219t-53 -254zM848 1841l229 101l154 -306h-170z" />
<glyph unicode="&#xd3;" d="M174 627q0 174 70.5 341t195.5 292q122 121 280 188.5t339 67.5q146 0 271 -50t211.5 -137.5t135.5 -208t49 -258.5q0 -174 -70.5 -340t-195.5 -291q-122 -122 -279.5 -190t-338.5 -68q-195 0 -348 86.5t-236.5 235.5t-83.5 332zM436 641q0 -192 116.5 -314t315.5 -122 q226 0 398 172q93 92 145.5 218t52.5 255q0 191 -116.5 312.5t-315.5 121.5q-227 0 -397 -170q-93 -93 -146 -219t-53 -254zM1042 1636l320 306l221 -101l-323 -205h-218z" />
<glyph unicode="&#xd4;" d="M174 627q0 174 70.5 341t195.5 292q122 121 280 188.5t339 67.5q146 0 271 -50t211.5 -137.5t135.5 -208t49 -258.5q0 -174 -70.5 -340t-195.5 -291q-122 -122 -279.5 -190t-338.5 -68q-195 0 -348 86.5t-236.5 235.5t-83.5 332zM436 641q0 -192 116.5 -314t315.5 -122 q226 0 398 172q93 92 145.5 218t52.5 255q0 191 -116.5 312.5t-315.5 121.5q-227 0 -397 -170q-93 -93 -146 -219t-53 -254zM780 1636l330 283h233l179 -283h-191l-131 123l-196 -123h-224z" />
<glyph unicode="&#xd5;" d="M174 627q0 174 70.5 341t195.5 292q122 121 280 188.5t339 67.5q146 0 271 -50t211.5 -137.5t135.5 -208t49 -258.5q0 -174 -70.5 -340t-195.5 -291q-122 -122 -279.5 -190t-338.5 -68q-195 0 -348 86.5t-236.5 235.5t-83.5 332zM436 641q0 -192 116.5 -314t315.5 -122 q226 0 398 172q93 92 145.5 218t52.5 255q0 191 -116.5 312.5t-315.5 121.5q-227 0 -397 -170q-93 -93 -146 -219t-53 -254zM780 1661q59 131 120.5 192.5t150.5 61.5q68 0 172 -45q9 -4 33 -13.5t35 -13.5t27 -8t28 -4q44 0 73.5 23.5t63.5 78.5l139 -45 q-59 -130 -120.5 -191t-151.5 -61q-68 0 -172 45q-93 37 -123 37q-44 0 -72.5 -23t-62.5 -79z" />
<glyph unicode="&#xd6;" d="M174 627q0 174 70.5 341t195.5 292q122 121 280 188.5t339 67.5q146 0 271 -50t211.5 -137.5t135.5 -208t49 -258.5q0 -174 -70.5 -340t-195.5 -291q-122 -122 -279.5 -190t-338.5 -68q-195 0 -348 86.5t-236.5 235.5t-83.5 332zM436 641q0 -192 116.5 -314t315.5 -122 q226 0 398 172q93 92 145.5 218t52.5 255q0 191 -116.5 312.5t-315.5 121.5q-227 0 -397 -170q-93 -93 -146 -219t-53 -254zM823 1636l64 232h256l-64 -232h-256zM1255 1636l64 232h258l-66 -232h-256z" />
<glyph unicode="&#xd7;" horiz-adv-x="1368" d="M139 414l447 348l-258 346l192 147l248 -350l444 355l129 -175l-446 -346l258 -344l-192 -149l-248 350l-447 -354z" />
<glyph unicode="&#xd8;" d="M-43 -12l315 282q-98 156 -98 357q0 174 70.5 341t195.5 292q122 121 280 188.5t339 67.5q275 0 459 -166l172 151h254l-316 -282q98 -156 98 -357q0 -174 -70.5 -340t-195.5 -291q-122 -122 -279.5 -190t-338.5 -68q-274 0 -461 166l-170 -151h-254zM428 639 q0 -114 41 -207l860 762q-117 100 -295 100q-232 0 -403 -174q-95 -95 -149 -223t-54 -258zM571 295q115 -98 295 -98q233 0 404 174q95 94 149 222t54 259q0 112 -41 205z" />
<glyph unicode="&#xd9;" horiz-adv-x="1642" d="M195 467q0 107 32 235l211 789h252l-221 -825q-20 -82 -20 -164q0 -134 82 -213.5t239 -79.5q167 0 285 115q110 107 168 317l227 850h252l-238 -889q-76 -283 -233 -440q-182 -185 -486 -185q-260 0 -405 131.5t-145 358.5zM764 1817l229 100l154 -305h-170z" />
<glyph unicode="&#xda;" horiz-adv-x="1642" d="M195 467q0 107 32 235l211 789h252l-221 -825q-20 -82 -20 -164q0 -134 82 -213.5t239 -79.5q167 0 285 115q110 107 168 317l227 850h252l-238 -889q-76 -283 -233 -440q-182 -185 -486 -185q-260 0 -405 131.5t-145 358.5zM971 1612l319 305l221 -100l-323 -205h-217z " />
<glyph unicode="&#xdb;" horiz-adv-x="1642" d="M195 467q0 107 32 235l211 789h252l-221 -825q-20 -82 -20 -164q0 -134 82 -213.5t239 -79.5q167 0 285 115q110 107 168 317l227 850h252l-238 -889q-76 -283 -233 -440q-182 -185 -486 -185q-260 0 -405 131.5t-145 358.5zM698 1612l330 282h234l178 -282h-191 l-131 123l-196 -123h-224z" />
<glyph unicode="&#xdc;" horiz-adv-x="1642" d="M195 467q0 107 32 235l211 789h252l-221 -825q-20 -82 -20 -164q0 -134 82 -213.5t239 -79.5q167 0 285 115q110 107 168 317l227 850h252l-238 -889q-76 -283 -233 -440q-182 -185 -486 -185q-260 0 -405 131.5t-145 358.5zM741 1612l64 231h256l-64 -231h-256z M1174 1612l63 231h258l-65 -231h-256z" />
<glyph unicode="&#xdd;" horiz-adv-x="1419" d="M240 1491h280l234 -682l604 682h309l-844 -926l-153 -565h-252l160 594zM846 1612l319 305l221 -100l-323 -205h-217z" />
<glyph unicode="&#xde;" horiz-adv-x="1472" d="M53 0l402 1491h250l-62 -236h219q304 0 449 -145q108 -111 108 -293q0 -221 -143 -364q-98 -98 -248 -148.5t-336 -50.5h-317l-70 -254h-252zM434 475h271q253 0 372 119q82 82 82 205q0 92 -57 149q-78 78 -250 78h-270z" />
<glyph unicode="&#xdf;" horiz-adv-x="1357" d="M25 0l286 1069q61 229 187 352q145 148 372 148q200 0 320.5 -107.5t120.5 -273.5q0 -159 -99.5 -264t-271.5 -158q262 -90 262 -313q0 -101 -45 -185.5t-131.5 -147t-224 -95.5t-312.5 -29l54 197q111 -1 194.5 19.5t132 58.5t72 85t23.5 103q0 180 -295 219l47 172 q356 83 356 315q0 88 -58 140.5t-153 52.5q-114 0 -193 -80.5t-118 -230.5l-281 -1047h-245z" />
<glyph unicode="&#xe0;" horiz-adv-x="1259" d="M37 283q0 161 106 270q138 135 385 135q178 0 355 -55l6 20q14 51 14 95q0 176 -256 176q-153 0 -307 -60l-41 199q189 74 397 74q216 0 331.5 -91t115.5 -255q0 -59 -23 -164l-168 -627h-239l39 152q-158 -175 -375 -175q-145 0 -242.5 84.5t-97.5 221.5zM285 311 q0 -70 51.5 -112.5t138.5 -42.5q118 0 220 78.5t136 195.5l15 53q-137 45 -283 45q-144 0 -221 -77q-57 -57 -57 -140zM500 1509l231 103l129 -344h-170z" />
<glyph unicode="&#xe1;" horiz-adv-x="1259" d="M37 283q0 161 106 270q138 135 385 135q178 0 355 -55l6 20q14 51 14 95q0 176 -256 176q-153 0 -307 -60l-41 199q189 74 397 74q216 0 331.5 -91t115.5 -255q0 -59 -23 -164l-168 -627h-239l39 152q-158 -175 -375 -175q-145 0 -242.5 84.5t-97.5 221.5zM285 311 q0 -70 51.5 -112.5t138.5 -42.5q118 0 220 78.5t136 195.5l15 53q-137 45 -283 45q-144 0 -221 -77q-57 -57 -57 -140zM686 1268l315 344l224 -103l-324 -241h-215z" />
<glyph unicode="&#xe2;" horiz-adv-x="1259" d="M37 283q0 161 106 270q138 135 385 135q178 0 355 -55l6 20q14 51 14 95q0 176 -256 176q-153 0 -307 -60l-41 199q189 74 397 74q216 0 331.5 -91t115.5 -255q0 -59 -23 -164l-168 -627h-239l39 152q-158 -175 -375 -175q-145 0 -242.5 84.5t-97.5 221.5zM285 311 q0 -70 51.5 -112.5t138.5 -42.5q118 0 220 78.5t136 195.5l15 53q-137 45 -283 45q-144 0 -221 -77q-57 -57 -57 -140zM422 1268l328 307h229l162 -307h-185l-122 141l-207 -141h-205z" />
<glyph unicode="&#xe3;" horiz-adv-x="1259" d="M37 283q0 161 106 270q138 135 385 135q178 0 355 -55l6 20q14 51 14 95q0 176 -256 176q-153 0 -307 -60l-41 199q189 74 397 74q216 0 331.5 -91t115.5 -255q0 -59 -23 -164l-168 -627h-239l39 152q-158 -175 -375 -175q-145 0 -242.5 84.5t-97.5 221.5zM285 311 q0 -70 51.5 -112.5t138.5 -42.5q118 0 220 78.5t136 195.5l15 53q-137 45 -283 45q-144 0 -221 -77q-57 -57 -57 -140zM410 1290q61 136 121 197t151 61q62 0 166 -45q6 -2 19.5 -8t19.5 -8.5t17 -7t17.5 -6.5t16 -4.5t17 -3.5t14.5 -1q44 0 72.5 23.5t62.5 81.5l139 -43 q-61 -136 -121 -197t-151 -61q-64 0 -168 45q-88 39 -119 39q-43 0 -72 -23.5t-65 -81.5z" />
<glyph unicode="&#xe4;" horiz-adv-x="1259" d="M37 283q0 161 106 270q138 135 385 135q178 0 355 -55l6 20q14 51 14 95q0 176 -256 176q-153 0 -307 -60l-41 199q189 74 397 74q216 0 331.5 -91t115.5 -255q0 -59 -23 -164l-168 -627h-239l39 152q-158 -175 -375 -175q-145 0 -242.5 84.5t-97.5 221.5zM285 311 q0 -70 51.5 -112.5t138.5 -42.5q118 0 220 78.5t136 195.5l15 53q-137 45 -283 45q-144 0 -221 -77q-57 -57 -57 -140zM459 1268l67 245h252l-67 -245h-252zM877 1268l67 245h252l-68 -245h-251z" />
<glyph unicode="&#xe5;" horiz-adv-x="1259" d="M37 283q0 161 106 270q138 135 385 135q178 0 355 -55l6 20q14 51 14 95q0 176 -256 176q-153 0 -307 -60l-41 199q189 74 397 74q216 0 331.5 -91t115.5 -255q0 -59 -23 -164l-168 -627h-239l39 152q-158 -175 -375 -175q-145 0 -242.5 84.5t-97.5 221.5zM285 311 q0 -70 51.5 -112.5t138.5 -42.5q118 0 220 78.5t136 195.5l15 53q-137 45 -283 45q-144 0 -221 -77q-57 -57 -57 -140zM610 1473q0 106 78 185t189 79q101 0 164 -60t63 -151q0 -105 -77.5 -183.5t-188.5 -78.5q-101 0 -164.5 60t-63.5 149zM717 1481q0 -55 34.5 -89 t88.5 -34q66 0 111.5 48.5t45.5 113.5q0 55 -34.5 88.5t-90.5 33.5q-64 0 -109.5 -49t-45.5 -112z" />
<glyph unicode="&#xe6;" horiz-adv-x="2041" d="M37 283q0 161 106 270q138 135 385 135q178 0 355 -55l6 20q14 51 14 95q0 176 -256 176q-153 0 -307 -60l-41 199q189 74 397 74q150 0 248.5 -52t138.5 -149q86 97 198 153t239 56q205 0 321.5 -122.5t116.5 -311.5q0 -121 -47 -236h-824v-4q0 -135 77 -215t220 -80 q81 0 149 27t146 84l117 -156q-80 -71 -191.5 -113.5t-242.5 -42.5q-152 0 -263 61t-171 175q-224 -234 -527 -234q-164 0 -264 83t-100 223zM285 311q0 -70 54.5 -112.5t149.5 -42.5q100 0 204 48.5t190 137.5q-11 56 -11 131q-145 55 -309 55q-144 0 -221 -77 q-57 -57 -57 -140zM1114 639h600q10 50 10 80q0 99 -57.5 161t-171.5 62q-153 0 -266 -113q-81 -81 -115 -190z" />
<glyph unicode="&#xe7;" horiz-adv-x="1214" d="M106 473q0 136 52 259t145 216q92 92 212.5 144.5t250.5 52.5q169 0 281 -70.5t174 -183.5l-193 -133q-50 83 -114 127.5t-166 44.5q-141 0 -254 -113q-66 -66 -104 -156t-38 -186q0 -131 80 -210t195 -79q82 0 150 32.5t141 96.5l131 -161q-94 -87 -194.5 -132.5 t-231.5 -46.5h-2l-228 -325l-192 92l245 258q-153 45 -246.5 170.5t-93.5 302.5z" />
<glyph unicode="&#xe8;" horiz-adv-x="1296" d="M104 463q0 135 55.5 264.5t153.5 226.5q90 90 205 140.5t246 50.5q210 0 329 -122t119 -312q0 -116 -49 -236h-823v-4q0 -134 76 -214.5t217 -80.5q82 0 152 27t147 84l119 -156q-189 -156 -443 -156q-230 0 -367 132.5t-137 355.5zM367 639h600q10 33 10 80 q0 99 -57.5 161t-171.5 62q-154 0 -267 -113q-80 -80 -114 -190zM553 1509l231 103l129 -344h-170z" />
<glyph unicode="&#xe9;" horiz-adv-x="1296" d="M104 463q0 135 55.5 264.5t153.5 226.5q90 90 205 140.5t246 50.5q210 0 329 -122t119 -312q0 -116 -49 -236h-823v-4q0 -134 76 -214.5t217 -80.5q82 0 152 27t147 84l119 -156q-189 -156 -443 -156q-230 0 -367 132.5t-137 355.5zM367 639h600q10 33 10 80 q0 99 -57.5 161t-171.5 62q-154 0 -267 -113q-80 -80 -114 -190zM737 1268l316 344l223 -103l-324 -241h-215z" />
<glyph unicode="&#xea;" horiz-adv-x="1296" d="M104 463q0 135 55.5 264.5t153.5 226.5q90 90 205 140.5t246 50.5q210 0 329 -122t119 -312q0 -116 -49 -236h-823v-4q0 -134 76 -214.5t217 -80.5q82 0 152 27t147 84l119 -156q-189 -156 -443 -156q-230 0 -367 132.5t-137 355.5zM367 639h600q10 33 10 80 q0 99 -57.5 161t-171.5 62q-154 0 -267 -113q-80 -80 -114 -190zM475 1268l328 307h229l162 -307h-184l-123 141l-207 -141h-205z" />
<glyph unicode="&#xeb;" horiz-adv-x="1296" d="M104 463q0 135 55.5 264.5t153.5 226.5q90 90 205 140.5t246 50.5q210 0 329 -122t119 -312q0 -116 -49 -236h-823v-4q0 -134 76 -214.5t217 -80.5q82 0 152 27t147 84l119 -156q-189 -156 -443 -156q-230 0 -367 132.5t-137 355.5zM367 639h600q10 33 10 80 q0 99 -57.5 161t-171.5 62q-154 0 -267 -113q-80 -80 -114 -190zM512 1268l68 245h251l-67 -245h-252zM930 1268l67 245h252l-67 -245h-252z" />
<glyph unicode="&#xec;" horiz-adv-x="624" d="M39 0l301 1122h246l-301 -1122h-246zM209 1509l231 103l129 -344h-170z" />
<glyph unicode="&#xed;" horiz-adv-x="624" d="M39 0l301 1122h246l-301 -1122h-246zM393 1268l316 344l223 -103l-324 -241h-215z" />
<glyph unicode="&#xee;" horiz-adv-x="624" d="M39 0l301 1122h246l-301 -1122h-246zM129 1268l328 307h229l162 -307h-184l-123 141l-207 -141h-205z" />
<glyph unicode="&#xef;" horiz-adv-x="624" d="M39 0l301 1122h246l-301 -1122h-246zM168 1268l68 245h251l-67 -245h-252zM586 1268l67 245h252l-67 -245h-252z" />
<glyph unicode="&#xf0;" horiz-adv-x="1390" d="M106 481q0 133 50 254.5t139 210.5q82 82 185.5 128t217.5 46q107 0 188 -42.5t150 -123.5q-56 151 -198 342l-283 -90l-47 137l233 74q-52 63 -123 137h308l49 -61l248 80l49 -135l-207 -68q221 -334 221 -647q0 -344 -217 -561q-88 -88 -205 -137.5t-252 -49.5 q-228 0 -367 139t-139 367zM348 492q0 -140 76 -223t209 -83q153 0 268 115q63 63 98 146t35 174q0 135 -81.5 219t-215.5 84q-147 0 -258 -111q-62 -60 -96.5 -144.5t-34.5 -176.5z" />
<glyph unicode="&#xf1;" horiz-adv-x="1335" d="M23 0l301 1122h247l-39 -147q166 170 345 170q157 0 249.5 -90.5t92.5 -245.5q0 -79 -33 -195l-162 -614h-248l168 625q14 61 14 112q0 88 -52 136.5t-146 48.5q-111 0 -198.5 -80.5t-121.5 -210.5l-170 -631h-247zM459 1290q61 136 121 197t151 61q62 0 166 -45 q6 -2 19.5 -8t19.5 -8.5t17 -7t17.5 -6.5t16 -4.5t17 -3.5t14.5 -1q44 0 72.5 23.5t62.5 81.5l139 -43q-61 -136 -121 -197t-151 -61q-64 0 -168 45q-88 39 -119 39q-43 0 -72 -23.5t-65 -81.5z" />
<glyph unicode="&#xf2;" horiz-adv-x="1394" d="M106 485q0 129 52.5 250t146.5 215q92 92 209.5 143.5t247.5 51.5q237 0 381.5 -143.5t144.5 -368.5q0 -128 -52.5 -249t-145.5 -214q-92 -92 -209.5 -143.5t-247.5 -51.5q-238 0 -382.5 143t-144.5 367zM352 494q0 -144 80.5 -225t214.5 -81q143 0 256 113 q65 63 102 152t37 174q0 143 -80.5 223t-213.5 80q-142 0 -256 -111q-65 -65 -102.5 -153t-37.5 -172zM584 1509l231 103l129 -344h-170z" />
<glyph unicode="&#xf3;" horiz-adv-x="1394" d="M106 485q0 129 52.5 250t146.5 215q92 92 209.5 143.5t247.5 51.5q237 0 381.5 -143.5t144.5 -368.5q0 -128 -52.5 -249t-145.5 -214q-92 -92 -209.5 -143.5t-247.5 -51.5q-238 0 -382.5 143t-144.5 367zM352 494q0 -144 80.5 -225t214.5 -81q143 0 256 113 q65 63 102 152t37 174q0 143 -80.5 223t-213.5 80q-142 0 -256 -111q-65 -65 -102.5 -153t-37.5 -172zM758 1268l315 344l223 -103l-323 -241h-215z" />
<glyph unicode="&#xf4;" horiz-adv-x="1394" d="M106 485q0 129 52.5 250t146.5 215q92 92 209.5 143.5t247.5 51.5q237 0 381.5 -143.5t144.5 -368.5q0 -128 -52.5 -249t-145.5 -214q-92 -92 -209.5 -143.5t-247.5 -51.5q-238 0 -382.5 143t-144.5 367zM352 494q0 -144 80.5 -225t214.5 -81q143 0 256 113 q65 63 102 152t37 174q0 143 -80.5 223t-213.5 80q-142 0 -256 -111q-65 -65 -102.5 -153t-37.5 -172zM504 1268l327 307h230l162 -307h-185l-123 141l-206 -141h-205z" />
<glyph unicode="&#xf5;" horiz-adv-x="1394" d="M106 485q0 129 52.5 250t146.5 215q92 92 209.5 143.5t247.5 51.5q237 0 381.5 -143.5t144.5 -368.5q0 -128 -52.5 -249t-145.5 -214q-92 -92 -209.5 -143.5t-247.5 -51.5q-238 0 -382.5 143t-144.5 367zM352 494q0 -144 80.5 -225t214.5 -81q143 0 256 113 q65 63 102 152t37 174q0 143 -80.5 223t-213.5 80q-142 0 -256 -111q-65 -65 -102.5 -153t-37.5 -172zM494 1290q61 136 121 197t151 61q62 0 166 -45q6 -2 19.5 -8t19.5 -8.5t17 -7t17.5 -6.5t16 -4.5t17 -3.5t14.5 -1q44 0 72.5 23.5t62.5 81.5l139 -43 q-61 -136 -121 -197t-151 -61q-64 0 -168 45q-88 39 -119 39q-43 0 -72 -23.5t-65 -81.5z" />
<glyph unicode="&#xf6;" horiz-adv-x="1394" d="M106 485q0 129 52.5 250t146.5 215q92 92 209.5 143.5t247.5 51.5q237 0 381.5 -143.5t144.5 -368.5q0 -128 -52.5 -249t-145.5 -214q-92 -92 -209.5 -143.5t-247.5 -51.5q-238 0 -382.5 143t-144.5 367zM352 494q0 -144 80.5 -225t214.5 -81q143 0 256 113 q65 63 102 152t37 174q0 143 -80.5 223t-213.5 80q-142 0 -256 -111q-65 -65 -102.5 -153t-37.5 -172zM543 1268l67 245h252l-67 -245h-252zM961 1268l67 245h252l-68 -245h-251z" />
<glyph unicode="&#xf7;" horiz-adv-x="1368" d="M176 643l60 213h1058l-59 -213h-1059zM444 176l70 266h277l-72 -266h-275zM680 1059l72 264h274l-70 -264h-276z" />
<glyph unicode="&#xf8;" horiz-adv-x="1394" d="M-84 -12l258 227q-68 123 -68 270q0 129 52.5 250t146.5 215q92 92 209.5 143.5t247.5 51.5q216 0 358 -123l125 111h234l-260 -230q69 -117 69 -270q0 -128 -52.5 -249t-145.5 -214q-92 -92 -209.5 -143.5t-247.5 -51.5q-218 0 -361 121l-122 -108h-234zM346 494 q0 -68 16 -127l584 512q-74 59 -192 59q-152 0 -269 -117q-65 -65 -102 -152.5t-37 -174.5zM449 240q73 -58 192 -58q154 0 268 117q66 66 103 153t37 175q0 66 -19 125z" />
<glyph unicode="&#xf9;" horiz-adv-x="1333" d="M115 313q0 69 32 195l164 614h246l-166 -624q-16 -56 -16 -113q0 -87 53 -135.5t147 -48.5q109 0 196.5 80.5t123.5 210.5l168 630h248l-301 -1122h-246l39 147q-166 -170 -344 -170q-157 0 -250.5 90.5t-93.5 245.5zM551 1509l231 103l129 -344h-170z" />
<glyph unicode="&#xfa;" horiz-adv-x="1333" d="M115 313q0 69 32 195l164 614h246l-166 -624q-16 -56 -16 -113q0 -87 53 -135.5t147 -48.5q109 0 196.5 80.5t123.5 210.5l168 630h248l-301 -1122h-246l39 147q-166 -170 -344 -170q-157 0 -250.5 90.5t-93.5 245.5zM735 1268l316 344l223 -103l-324 -241h-215z" />
<glyph unicode="&#xfb;" horiz-adv-x="1333" d="M115 313q0 69 32 195l164 614h246l-166 -624q-16 -56 -16 -113q0 -87 53 -135.5t147 -48.5q109 0 196.5 80.5t123.5 210.5l168 630h248l-301 -1122h-246l39 147q-166 -170 -344 -170q-157 0 -250.5 90.5t-93.5 245.5zM471 1268l328 307h229l162 -307h-184l-123 141 l-207 -141h-205z" />
<glyph unicode="&#xfc;" horiz-adv-x="1333" d="M115 313q0 69 32 195l164 614h246l-166 -624q-16 -56 -16 -113q0 -87 53 -135.5t147 -48.5q109 0 196.5 80.5t123.5 210.5l168 630h248l-301 -1122h-246l39 147q-166 -170 -344 -170q-157 0 -250.5 90.5t-93.5 245.5zM508 1268l67 245h252l-67 -245h-252zM926 1268 l67 245h252l-67 -245h-252z" />
<glyph unicode="&#xfd;" horiz-adv-x="1263" d="M-111 -270l134 180q66 -49 145 -49q56 0 102 29.5t101 105.5l-168 1126h254l100 -843l506 843h272l-731 -1153q-114 -173 -219 -245t-242 -72q-143 0 -254 78zM678 1268l315 344l224 -103l-324 -241h-215z" />
<glyph unicode="&#xfe;" horiz-adv-x="1441" d="M-68 -340l508 1894h248l-160 -587q171 178 367 178q191 0 314.5 -131t123.5 -348q0 -150 -54.5 -280.5t-150.5 -225.5q-87 -88 -195 -135.5t-224 -47.5q-261 0 -383 228l-146 -545h-248zM389 479q0 -126 82 -208.5t209 -82.5q147 0 258 111q65 65 102 156t37 192 q0 131 -75 209t-197 78q-150 0 -273 -123q-66 -66 -104.5 -152.5t-38.5 -179.5z" />
<glyph unicode="&#xff;" horiz-adv-x="1263" d="M-111 -270l134 180q66 -49 145 -49q56 0 102 29.5t101 105.5l-168 1126h254l100 -843l506 843h272l-731 -1153q-114 -173 -219 -245t-242 -72q-143 0 -254 78zM453 1268l67 245h252l-67 -245h-252zM870 1268l68 245h252l-68 -245h-252z" />
<glyph unicode="&#x152;" horiz-adv-x="2351" d="M172 627q0 342 240 585q282 279 774 279h1286l-62 -225h-804l-107 -404h709l-62 -223h-708l-111 -414h817l-61 -225h-1168q-386 0 -587 201q-156 159 -156 426zM434 639q0 -179 105 -281q131 -131 397 -131h139l279 1037h-199q-167 0 -310.5 -54t-244.5 -155 q-166 -166 -166 -416z" />
<glyph unicode="&#x153;" horiz-adv-x="2224" d="M106 485q0 129 52.5 250t146.5 215q92 92 209.5 143.5t247.5 51.5q163 0 276.5 -73t165.5 -195q84 122 207.5 195t282.5 73q210 0 328 -122t118 -312q0 -121 -47 -236h-823v-4q0 -135 77 -215t220 -80q81 0 149 27t146 84l116 -156q-80 -71 -191.5 -113.5t-242.5 -42.5 q-158 0 -270 66t-162 184q-84 -114 -207.5 -182t-273.5 -68q-235 0 -380 143t-145 367zM352 494q0 -144 80.5 -225t214.5 -81q143 0 256 113q65 63 102 152t37 174q0 143 -80.5 223t-213.5 80q-142 0 -256 -111q-65 -65 -102.5 -153t-37.5 -172zM1296 639h600q11 55 11 80 q0 98 -58 160.5t-172 62.5q-153 0 -266 -113q-81 -81 -115 -190z" />
<glyph unicode="&#x178;" horiz-adv-x="1419" d="M240 1491h280l234 -682l604 682h309l-844 -926l-153 -565h-252l160 594zM616 1612l64 231h256l-64 -231h-256zM1049 1612l63 231h258l-65 -231h-256z" />
<glyph unicode="&#x2c6;" horiz-adv-x="1085" d="M373 1268l327 307h230l162 -307h-185l-123 141l-206 -141h-205z" />
<glyph unicode="&#x2dc;" horiz-adv-x="1085" d="M348 1290q61 135 121.5 196.5t151.5 61.5q61 0 165 -45q6 -2 19.5 -8t19.5 -8.5t17 -7t17.5 -6.5t16 -4.5t17 -3.5t14.5 -1q44 0 72.5 23.5t62.5 81.5l140 -43q-61 -135 -121.5 -196.5t-151.5 -61.5q-64 0 -168 45q-88 39 -118 39q-44 0 -73 -23.5t-65 -81.5z" />
<glyph unicode="&#x2000;" horiz-adv-x="971" />
<glyph unicode="&#x2001;" horiz-adv-x="1942" />
<glyph unicode="&#x2002;" horiz-adv-x="971" />
<glyph unicode="&#x2003;" horiz-adv-x="1942" />
<glyph unicode="&#x2004;" horiz-adv-x="647" />
<glyph unicode="&#x2005;" horiz-adv-x="485" />
<glyph unicode="&#x2006;" horiz-adv-x="323" />
<glyph unicode="&#x2007;" horiz-adv-x="323" />
<glyph unicode="&#x2008;" horiz-adv-x="242" />
<glyph unicode="&#x2009;" horiz-adv-x="388" />
<glyph unicode="&#x200a;" horiz-adv-x="107" />
<glyph unicode="&#x2010;" horiz-adv-x="894" d="M127 528l66 244h624l-65 -244h-625z" />
<glyph unicode="&#x2011;" horiz-adv-x="894" d="M127 528l66 244h624l-65 -244h-625z" />
<glyph unicode="&#x2012;" horiz-adv-x="894" d="M127 528l66 244h624l-65 -244h-625z" />
<glyph unicode="&#x2013;" horiz-adv-x="1148" d="M127 532l61 236h883l-63 -236h-881z" />
<glyph unicode="&#x2014;" horiz-adv-x="1937" d="M127 532l61 236h1672l-64 -236h-1669z" />
<glyph unicode="&#x2018;" horiz-adv-x="634" d="M248 913l65 244q46 172 141.5 252t258.5 94l20 -106q-111 -17 -168 -66t-71 -133h104l-76 -285h-274z" />
<glyph unicode="&#x2019;" horiz-adv-x="634" d="M207 1008q211 32 239 198h-106l78 285h272l-63 -242q-46 -173 -141.5 -252.5t-260.5 -93.5z" />
<glyph unicode="&#x201a;" horiz-adv-x="634" d="M-102 -199q109 17 166 67t73 132h-106l75 285h275l-66 -242q-46 -173 -141 -252.5t-258 -93.5z" />
<glyph unicode="&#x201c;" horiz-adv-x="1120" d="M250 913l63 242q46 173 141.5 252.5t260.5 93.5l18 -104q-211 -32 -239 -199h106l-78 -285h-272zM735 913l66 242q45 173 139.5 252.5t259.5 93.5l19 -104q-212 -32 -240 -199h106l-77 -285h-273z" />
<glyph unicode="&#x201d;" horiz-adv-x="1120" d="M207 1008q111 17 168 66.5t71 131.5h-104l76 285h274l-65 -242q-46 -173 -141 -252.5t-259 -93.5zM694 1008q209 32 240 198h-107l76 285h275l-66 -242q-46 -173 -141 -252.5t-258 -93.5z" />
<glyph unicode="&#x201e;" horiz-adv-x="1120" d="M-102 -199q109 17 166 67t73 132h-106l75 285h275l-66 -242q-46 -173 -141 -252.5t-258 -93.5zM383 -199q212 32 240 199h-107l78 285h272l-63 -242q-46 -173 -141.5 -252.5t-260.5 -93.5z" />
<glyph unicode="&#x2022;" horiz-adv-x="1062" d="M285 684q0 77 30.5 150.5t83.5 128.5q98 98 226 98q108 0 172.5 -66.5t64.5 -177.5q0 -77 -30 -150.5t-84 -127.5q-97 -97 -224 -97q-110 0 -174.5 65.5t-64.5 176.5z" />
<glyph unicode="&#x2026;" horiz-adv-x="1736" d="M31 0l75 279h267l-74 -279h-268zM586 0l73 279h269l-74 -279h-268zM1141 0l73 279h269l-76 -279h-266z" />
<glyph unicode="&#x202f;" horiz-adv-x="388" />
<glyph unicode="&#x2039;" horiz-adv-x="768" d="M106 541l7 16l501 475l134 -125l-373 -383l160 -362l-187 -84z" />
<glyph unicode="&#x203a;" horiz-adv-x="768" d="M16 203l373 383l-158 360l187 86l239 -463l-4 -16l-503 -475z" />
<glyph unicode="&#x205f;" horiz-adv-x="485" />
<glyph unicode="&#x20ac;" horiz-adv-x="1527" d="M72 483l47 176h162q7 78 32 185h-147l47 176h154q72 167 190 285q211 211 508 211q138 0 243 -45t169 -120t100 -180l-213 -102q-50 111 -123 165t-197 54q-167 0 -292 -125q-70 -70 -107 -143h496l-47 -176h-512q-31 -102 -39 -185h501l-47 -176h-458q17 -133 97 -206.5 t204 -73.5q106 0 186.5 41t159.5 129l170 -148q-212 -250 -520 -250q-234 0 -384.5 136.5t-172.5 371.5h-207z" />
<glyph unicode="&#x2122;" horiz-adv-x="1503" d="M262 1380l33 111h528l-32 -111h-203l-150 -544h-123l150 544h-203zM784 836l181 655h120l117 -315l287 315h135l-180 -655h-117l129 471l-291 -320h-12l-121 320l-131 -471h-117z" />
<glyph unicode="&#x25fc;" horiz-adv-x="1126" d="M0 0v1126h1126v-1126h-1126z" />
<glyph unicode="&#xfb01;" horiz-adv-x="1464" d="M84 0l244 909h-144l58 213h143l21 84q40 161 129 250q109 109 296 109q134 0 220 -39l-54 -207q-81 35 -161 35q-144 0 -189 -164l-18 -68h315l-57 -213h-314l-243 -909h-246zM879 0l301 1122h245l-301 -1122h-245zM1219 1303l63 237h268l-65 -237h-266z" />
<glyph unicode="&#xfb02;" horiz-adv-x="1464" d="M84 0l244 909h-144l58 213h143l21 84q40 161 129 250q109 109 296 109q134 0 220 -39l-54 -207q-81 35 -161 35q-144 0 -189 -164l-18 -68h315l-57 -213h-314l-243 -909h-246zM879 0l417 1554h246l-418 -1554h-245z" />
<glyph unicode="&#xfb03;" horiz-adv-x="2301" d="M84 0l244 909h-144l58 213h143l21 84q40 161 129 250q109 109 296 109q134 0 220 -39l-54 -207q-81 35 -161 35q-144 0 -189 -164l-18 -68h315l-57 -213h-314l-243 -909h-246zM924 0l243 909h-143l57 213h144l20 84q40 161 129 250q109 109 297 109q133 0 219 -39 l-53 -207q-81 35 -162 35q-143 0 -188 -164l-19 -68h316l-58 -213h-313l-244 -909h-245zM1716 0l301 1122h246l-301 -1122h-246zM2056 1303l64 237h268l-66 -237h-266z" />
<glyph unicode="&#xfb04;" horiz-adv-x="2301" d="M84 0l244 909h-144l58 213h143l21 84q40 161 129 250q109 109 296 109q134 0 220 -39l-54 -207q-81 35 -161 35q-144 0 -189 -164l-18 -68h315l-57 -213h-314l-243 -909h-246zM924 0l243 909h-143l57 213h144l20 84q40 161 129 250q109 109 297 109q133 0 219 -39 l-53 -207q-81 35 -162 35q-143 0 -188 -164l-19 -68h316l-58 -213h-313l-244 -909h-245zM1716 0l418 1554h246l-418 -1554h-246z" />
</font>
</defs>
</svg>
