<?xml version="1.0" standalone="no"?>
<!DOCTYPE svg PUBLIC "-//W3C//DTD SVG 1.1//EN" "http://www.w3.org/Graphics/SVG/1.1/DTD/svg11.dtd" >
<svg xmlns="http://www.w3.org/2000/svg">
<metadata></metadata>
<defs>
<font id="gotham_ssmmedium" horiz-adv-x="1443" >
<font-face units-per-em="2048" ascent="1638" descent="-410" />
<missing-glyph horiz-adv-x="655" />
<glyph horiz-adv-x="0" />
<glyph horiz-adv-x="682" />
<glyph unicode=" "  horiz-adv-x="655" />
<glyph unicode="&#x09;" horiz-adv-x="655" />
<glyph unicode="&#xa0;" horiz-adv-x="655" />
<glyph unicode="!" horiz-adv-x="653" d="M182 1411v80h289v-80l-76 -944h-137zM190 0v285h273v-285h-273z" />
<glyph unicode="&#x22;" horiz-adv-x="1042" d="M137 860l51 631h281v-10l-203 -621h-129zM598 860l51 631h281v-10l-203 -621h-129z" />
<glyph unicode="#" horiz-adv-x="1507" d="M92 346v213h232l65 381h-217v213h254l57 338h219l-57 -338h354l60 338h217l-57 -338h194v-213h-231l-66 -381h219v-213h-256l-59 -346h-217l57 346h-354l-60 -346h-217l60 346h-197zM539 553h362l68 393h-363z" />
<glyph unicode="$" horiz-adv-x="1382" d="M115 217l131 186q190 -157 379 -188v434q-240 62 -347.5 160t-107.5 272v4q0 169 122.5 279t323.5 125v125h181v-129q216 -25 401 -162l-117 -190q-151 110 -293 139v-422q243 -60 352.5 -162.5t108.5 -271.5v-4q0 -173 -123.5 -283t-328.5 -129v-209h-181v213 q-277 30 -501 213zM410 1098q0 -75 45 -122t170 -85v393q-103 -10 -160 -60.5t-55 -123.5v-2zM788 207q106 10 164 60t58 130v4q0 75 -48.5 123.5t-173.5 85.5v-403z" />
<glyph unicode="%" horiz-adv-x="1820" d="M111 1122v4q0 159 99 270t253 111q153 0 250.5 -109.5t97.5 -267.5v-4q0 -158 -98.5 -269.5t-253.5 -111.5q-152 0 -250 110t-98 267zM262 0l586 791l506 700h205l-588 -793l-504 -698h-205zM295 1126q0 -93 48.5 -158t119.5 -65q74 0 119 63.5t45 155.5v4 q0 94 -47.5 159t-120.5 65t-118.5 -64t-45.5 -156v-4zM1010 360v5q0 159 98.5 269.5t253.5 110.5q153 0 250.5 -109.5t97.5 -266.5v-4q0 -159 -98.5 -270t-253.5 -111q-153 0 -250.5 109.5t-97.5 266.5zM1194 365q0 -95 47.5 -159.5t120.5 -64.5q74 0 119 63.5t45 155.5v5 q0 93 -48.5 158t-119.5 65q-74 0 -119 -63.5t-45 -155.5v-4z" />
<glyph unicode="&#x26;" horiz-adv-x="1499" d="M92 403v5q0 282 324 417q-66 84 -96.5 158.5t-30.5 155.5v4q0 156 116.5 264.5t307.5 108.5q172 0 282.5 -103t110.5 -254v-4q0 -265 -332 -387l266 -270q85 128 162 293l191 -101q-109 -216 -205 -344l239 -242l-186 -135l-203 207q-209 -196 -460 -196 q-211 0 -348.5 116.5t-137.5 306.5zM346 414q0 -100 72 -164t184 -64q148 0 293 138l-340 348q-106 -44 -157.5 -111t-51.5 -143v-4zM522 1130q0 -57 26 -106.5t93 -120.5q121 42 180.5 100t59.5 138v4q0 76 -48.5 124t-125.5 48q-82 0 -133.5 -51t-51.5 -131v-5z" />
<glyph unicode="'" horiz-adv-x="583" d="M137 860l51 631h285v-10l-205 -621h-131z" />
<glyph unicode="(" horiz-adv-x="952" d="M143 610v2q0 590 590 912l109 -166q-233 -155 -342 -332.5t-109 -415.5v-2q0 -234 110 -412.5t341 -330.5l-109 -166q-590 325 -590 911z" />
<glyph unicode=")" horiz-adv-x="952" d="M113 -135q231 155 340.5 332.5t109.5 412.5v2q0 235 -110 414t-340 332l108 166q590 -326 590 -914v-2q0 -586 -590 -909z" />
<glyph unicode="*" horiz-adv-x="931" d="M135 1051l242 106l-242 107l74 127l213 -156l-29 260h146l-29 -260l213 156l74 -127l-242 -107l242 -106l-74 -129l-213 157l29 -262h-146l29 262l-213 -157z" />
<glyph unicode="+" horiz-adv-x="1363" d="M154 637v225h411v410h234v-410h413v-225h-413v-410h-234v410h-411z" />
<glyph unicode="," horiz-adv-x="583" d="M84 -199q190 40 178 199h-106v285h272v-242q0 -168 -78.5 -250t-238.5 -96z" />
<glyph unicode="-" horiz-adv-x="884" d="M129 528v244h627v-244h-627z" />
<glyph unicode="." horiz-adv-x="583" d="M156 0v285h272v-285h-272z" />
<glyph unicode="/" horiz-adv-x="1122" d="M-43 -272l965 1972h215l-965 -1972h-215z" />
<glyph unicode="0" horiz-adv-x="1556" d="M131 741v4q0 158 47 299t130.5 245.5t206 165.5t265.5 61t264.5 -60t204.5 -163t129.5 -243.5t46.5 -299.5v-5q0 -158 -47 -299t-130.5 -245t-206 -165t-265.5 -61t-265 60t-204.5 163t-129 243.5t-46.5 299.5zM391 745q0 -149 47 -271.5t136.5 -196.5t205.5 -74 t204.5 73t134.5 194.5t46 270.5v4q0 149 -47.5 272t-137 197t-204.5 74t-203.5 -72.5t-135 -194t-46.5 -271.5v-5z" />
<glyph unicode="1" horiz-adv-x="849" d="M63 1374l398 127h176v-1501h-250v1245l-268 -76z" />
<glyph unicode="2" horiz-adv-x="1318" d="M113 0v199l516 440q159 137 220.5 224t61.5 186q0 110 -70 173.5t-177 63.5q-102 0 -181 -53.5t-170 -171.5l-178 139q75 106 146.5 170.5t172 102.5t228.5 38q217 0 352 -122t135 -320v-4q0 -86 -21.5 -156.5t-74 -140.5t-116.5 -130.5t-173 -150.5l-317 -266h719v-221 h-1073z" />
<glyph unicode="3" horiz-adv-x="1331" d="M100 236l179 163q165 -198 395 -198q116 0 191 64.5t75 168.5v4q0 112 -95 174t-257 62h-117l-43 157l412 441h-656v219h981v-188l-422 -437q72 -8 135.5 -27t121.5 -53t99.5 -79.5t66 -111.5t24.5 -146v-5q0 -206 -145 -337.5t-375 -131.5q-355 0 -570 261z" />
<glyph unicode="4" horiz-adv-x="1464" d="M86 516l832 985h215v-958h215v-207h-215v-336h-242v336h-756zM385 543h506v610z" />
<glyph unicode="5" horiz-adv-x="1339" d="M111 205l155 180q195 -182 387 -182q138 0 220.5 73t82.5 193v4q0 116 -87 186t-228 70q-131 0 -279 -70l-153 101l43 731h889v-223h-672l-25 -365q120 45 244 45q148 0 263 -51t185 -158t70 -258v-4q0 -227 -152 -364.5t-399 -137.5q-311 0 -544 230z" />
<glyph unicode="6" horiz-adv-x="1411" d="M131 700v5q0 173 41 320t119.5 257t200.5 172t276 62q136 0 243.5 -41.5t211.5 -124.5l-138 -195q-85 68 -159 100.5t-168 32.5q-76 0 -139 -30.5t-104 -80t-70 -115t-42 -133t-14 -136.5h2q151 162 365 159q108 0 202.5 -32t165 -90.5t111.5 -147.5t41 -197v-4 q0 -146 -72 -262t-198 -180t-281 -64q-258 0 -414 156q-90 90 -135 222t-45 347zM403 467q0 -118 88 -196t228 -78q139 0 222 78t83 198v4q0 117 -85.5 192.5t-223.5 75.5q-140 0 -226 -78.5t-86 -191.5v-4z" />
<glyph unicode="7" horiz-adv-x="1310" d="M154 1270v221h1042v-188l-672 -1303h-282l669 1270h-757z" />
<glyph unicode="8" horiz-adv-x="1357" d="M111 406v4q0 252 272 362q-221 120 -221 334v4q0 172 148.5 286.5t369.5 114.5q222 0 369 -114t147 -287v-4q0 -216 -221 -334q272 -119 272 -356v-4q0 -197 -159.5 -314.5t-407.5 -117.5q-247 0 -408 118t-161 308zM358 420q0 -97 87.5 -163.5t234.5 -66.5 q146 0 232.5 65.5t86.5 164.5v4q0 103 -91 167t-228 64q-139 0 -230.5 -64t-91.5 -167v-4zM406 1083q0 -98 77 -161.5t197 -63.5q119 0 195.5 62.5t76.5 160.5v6q0 90 -76.5 151.5t-195.5 61.5q-121 0 -197.5 -61t-76.5 -152v-4z" />
<glyph unicode="9" horiz-adv-x="1411" d="M135 997v4q0 109 40.5 204t112.5 163.5t175.5 108t224.5 39.5q136 0 234 -39t178 -119q88 -87 134 -222t46 -348v-4q0 -238 -75 -420.5t-220 -285.5t-340 -103q-145 0 -258.5 46.5t-216.5 132.5l135 192q89 -74 170 -108.5t176 -34.5q77 0 140.5 30.5t105.5 80t71 114 t42 130.5t14 132h-2q-146 -167 -360 -164q-237 0 -382 129t-145 342zM387 1010q0 -121 85.5 -197t225.5 -76q141 0 226.5 80.5t85.5 196.5v4q0 122 -88.5 201t-231.5 79q-139 0 -221 -81t-82 -203v-4z" />
<glyph unicode=":" horiz-adv-x="604" d="M166 0v285h272v-285h-272zM166 838v284h272v-284h-272z" />
<glyph unicode=";" horiz-adv-x="604" d="M94 -199q190 40 178 199h-106v285h272v-242q0 -169 -78 -250.5t-239 -95.5zM166 838v284h272v-284h-272z" />
<glyph unicode="&#x3c;" horiz-adv-x="1363" d="M150 639v221l1015 473v-235l-768 -346l768 -349v-237z" />
<glyph unicode="=" horiz-adv-x="1363" d="M172 371v229h1022v-229h-1022zM172 899v229h1022v-229h-1022z" />
<glyph unicode="&#x3e;" horiz-adv-x="1363" d="M199 166v235l770 347l-770 348v237l1015 -473v-221z" />
<glyph unicode="?" horiz-adv-x="1167" d="M61 1272q207 237 512 237q224 0 360 -117.5t136 -314.5v-4q0 -97 -33 -173.5t-93.5 -127t-135.5 -82t-168 -47.5l-23 -176h-163l-43 344l10 10q201 7 299 70.5t98 175.5v4q0 94 -67.5 152.5t-182.5 58.5q-194 0 -352 -172zM393 0v285h275v-285h-275z" />
<glyph unicode="@" horiz-adv-x="2103" d="M121 584q0 188 73 360t197.5 297.5t298 200t365.5 74.5q153 0 295.5 -45t256 -125t198.5 -185t131 -231t46 -256t-33.5 -233t-91 -166.5t-130.5 -96.5t-156 -33q-116 0 -196 42.5t-118 109.5q-145 -152 -331 -152q-164 0 -274.5 110.5t-110.5 289.5q0 110 41 209.5 t108 169.5t155 111.5t179 41.5q195 0 303 -159l25 129l198 -31l-92 -531q-10 -65 -10 -96q0 -70 44.5 -111.5t123.5 -41.5q121 0 201.5 114t80.5 324q0 145 -65 284t-175.5 245t-269 170.5t-333.5 64.5q-178 0 -336.5 -68t-271 -183t-177.5 -272t-65 -331q0 -234 110 -428 t309 -308t447 -114q153 0 276.5 35t249.5 108l39 -61q-266 -160 -565 -160q-200 0 -377.5 73.5t-302.5 198.5t-197.5 296t-72.5 360zM752 557q0 -110 63 -172.5t166 -62.5q110 0 193 86q49 49 77.5 116.5t28.5 141.5q0 102 -64 167.5t-163 65.5q-114 0 -199 -88 q-102 -99 -102 -254z" />
<glyph unicode="A" horiz-adv-x="1699" d="M74 0l659 1501h234l657 -1501h-264l-156 362h-717l-155 -362h-258zM580 588h532l-266 614z" />
<glyph unicode="B" horiz-adv-x="1554" d="M203 0v1491h665q256 0 387 -131q101 -101 101 -248v-4q0 -224 -215 -334q143 -48 221 -133.5t78 -228.5v-4q0 -195 -148.5 -301.5t-402.5 -106.5h-686zM449 223h442q140 0 218.5 54.5t78.5 156.5v4q0 98 -80 152.5t-236 54.5h-423v-422zM449 858h368q133 0 211 54t78 157 v4q0 91 -71 143t-199 52h-387v-410z" />
<glyph unicode="C" horiz-adv-x="1591" d="M135 741v4q0 157 57.5 299t157.5 246t244 165t309 61q193 0 329.5 -59.5t254.5 -172.5l-164 -186q-96 91 -197 138.5t-225 47.5q-142 0 -257.5 -71.5t-180 -193.5t-64.5 -269v-5q0 -148 64 -271t179.5 -195t258.5 -72q132 0 231 47.5t203 146.5l162 -163 q-127 -131 -267 -197t-337 -66q-160 0 -301 60t-241 162.5t-158 244t-58 299.5z" />
<glyph unicode="D" horiz-adv-x="1681" d="M203 0v1491h551q173 0 321 -57t251 -156t161.5 -235.5t58.5 -292.5v-5q0 -156 -58.5 -293.5t-161 -237t-251 -157t-321.5 -57.5h-551zM455 227h299q237 0 382.5 144.5t145.5 369.5v4q0 110 -38 205.5t-106 165t-167.5 109t-216.5 39.5h-299v-1037z" />
<glyph unicode="E" d="M203 0v1491h1102v-225h-852v-402h755v-225h-755v-414h862v-225h-1112z" />
<glyph unicode="F" horiz-adv-x="1413" d="M203 0v1491h1104v-229h-852v-420h757v-230h-757v-612h-252z" />
<glyph unicode="G" horiz-adv-x="1685" d="M135 741v4q0 155 57 296t157 246t244 167t308 62q187 0 319.5 -49.5t254.5 -151.5l-160 -191q-96 81 -192 120.5t-230 39.5q-138 0 -252 -72.5t-178 -195t-64 -266.5v-5q0 -236 143.5 -389t372.5 -153q106 0 202 31t167 85v289h-389v221h633v-622q-121 -104 -278.5 -168 t-342.5 -64q-229 0 -406 101t-271.5 275t-94.5 390z" />
<glyph unicode="H" horiz-adv-x="1634" d="M203 0v1491h252v-625h727v625h252v-1491h-252v633h-727v-633h-252z" />
<glyph unicode="I" horiz-adv-x="686" d="M217 0v1491h252v-1491h-252z" />
<glyph unicode="J" horiz-adv-x="1206" d="M55 221l166 170q70 -91 141 -135.5t164 -44.5q112 0 178 76.5t66 224.5v979h258v-985q0 -256 -139 -395q-131 -131 -359 -131q-300 0 -475 241z" />
<glyph unicode="K" horiz-adv-x="1560" d="M203 0v1491h252v-766l723 766h313l-623 -641l650 -850h-308l-514 676l-241 -248v-428h-252z" />
<glyph unicode="L" horiz-adv-x="1331" d="M203 0v1491h252v-1262h788v-229h-1040z" />
<glyph unicode="M" horiz-adv-x="1865" d="M203 0v1491h266l463 -719l465 719h266v-1491h-250v1085l-479 -714h-8l-477 710v-1081h-246z" />
<glyph unicode="N" horiz-adv-x="1699" d="M203 0v1491h231l815 -1051v1051h248v-1491h-211l-835 1079v-1079h-248z" />
<glyph unicode="O" horiz-adv-x="1826" d="M135 741v4q0 155 58.5 296.5t159.5 246t248 166.5t314 62q168 0 314 -61t246.5 -165t158.5 -244.5t58 -295.5v-5q0 -155 -58.5 -296.5t-160 -245.5t-248 -166t-314.5 -62t-313.5 61t-246.5 165t-158.5 244.5t-57.5 295.5zM399 745q0 -147 65.5 -269.5t184.5 -195.5 t266 -73t265 72t182.5 193.5t64.5 268.5v4q0 147 -65.5 270t-184.5 196t-266 73t-265 -72t-182.5 -193.5t-64.5 -268.5v-5z" />
<glyph unicode="P" horiz-adv-x="1439" d="M203 0v1491h583q258 0 412 -135t154 -359v-6q0 -98 -30.5 -180.5t-85 -142t-129 -101t-163 -62t-186.5 -20.5h-303v-485h-252zM455 711h311q151 0 241.5 76.5t90.5 197.5v4q0 131 -89.5 203t-242.5 72h-311v-553z" />
<glyph unicode="Q" horiz-adv-x="1826" d="M135 741v4q0 155 58.5 296.5t159.5 246t248 166.5t314 62q168 0 314 -61t246.5 -165t158.5 -244.5t58 -295.5v-5q0 -252 -154 -462l172 -148l-162 -180l-180 162q-205 -142 -457 -142q-168 0 -313.5 61t-246.5 165t-158.5 244.5t-57.5 295.5zM399 745q0 -147 65.5 -269.5 t184.5 -195.5t266 -73q145 0 267 72l-260 223l163 184l265 -240q77 132 77 295v4q0 147 -65.5 270t-184.5 196t-266 73t-265 -72t-182.5 -193.5t-64.5 -268.5v-5z" />
<glyph unicode="R" horiz-adv-x="1556" d="M203 0v1491h661q277 0 430 -150q121 -121 121 -319v-4q0 -177 -96.5 -290.5t-263.5 -158.5l409 -569h-299l-372 526h-338v-526h-252zM455 750h391q143 0 229 69.5t86 186.5v4q0 121 -83.5 187.5t-233.5 66.5h-389v-514z" />
<glyph unicode="S" horiz-adv-x="1380" d="M102 217l152 180q111 -97 225.5 -145.5t249.5 -48.5q124 0 198 53t74 141v4q0 58 -26.5 95.5t-101.5 71.5t-214 67q-129 31 -215 64t-153 84t-98 123.5t-31 172.5v4q0 189 142 308.5t364 119.5q310 0 540 -186l-137 -190q-199 153 -407 153q-116 0 -184 -51.5t-68 -130.5 v-4q0 -62 29.5 -101.5t107 -73t225.5 -67.5q247 -59 362 -158t115 -276v-4q0 -204 -146 -323t-382 -119q-357 0 -621 237z" />
<glyph unicode="T" horiz-adv-x="1388" d="M92 1260v231h1204v-231h-475v-1260h-252v1260h-477z" />
<glyph unicode="U" horiz-adv-x="1630" d="M178 633v858h252v-850q0 -209 102 -320.5t285 -111.5q180 0 280.5 107.5t100.5 314.5v860h252v-848q0 -325 -171 -495.5t-468 -170.5q-295 0 -464 169t-169 487z" />
<glyph unicode="V" horiz-adv-x="1613" d="M74 1491h278l459 -1163l459 1163h270l-622 -1501h-222z" />
<glyph unicode="W" horiz-adv-x="2392" d="M86 1491h272l365 -1120l371 1124h213l370 -1124l365 1120h262l-520 -1501h-217l-371 1087l-373 -1087h-215z" />
<glyph unicode="X" horiz-adv-x="1568" d="M90 0l543 758l-522 733h295l380 -547l383 547h289l-524 -729l545 -762h-295l-404 578l-403 -578h-287z" />
<glyph unicode="Y" horiz-adv-x="1542" d="M49 1491h297l426 -670l432 670h289l-596 -897v-594h-252v588z" />
<glyph unicode="Z" horiz-adv-x="1509" d="M145 0v184l891 1086h-860v221h1190v-184l-891 -1086h891v-221h-1221z" />
<glyph unicode="[" horiz-adv-x="980" d="M197 -276v1767h651v-193h-416v-1382h416v-192h-651z" />
<glyph unicode="\" horiz-adv-x="1122" d="M-14 1700h215l966 -1972h-215z" />
<glyph unicode="]" horiz-adv-x="980" d="M133 -84h416v1382h-416v193h651v-1767h-651v192z" />
<glyph unicode="^" horiz-adv-x="1081" d="M129 1051l324 442h176l323 -442h-192l-221 286l-222 -286h-188z" />
<glyph unicode="_" horiz-adv-x="1294" d="M4 -147h1286v-193h-1286v193z" />
<glyph unicode="`" horiz-adv-x="1081" d="M279 1509l225 103l219 -344h-186z" />
<glyph unicode="a" horiz-adv-x="1263" d="M96 324v4q0 176 126 268t339 92q164 0 307 -47v29q0 123 -73 187.5t-211 64.5q-158 0 -324 -70l-65 192q103 46 200 69.5t221 23.5q246 0 371 -125q119 -116 119 -344v-668h-240v143q-137 -166 -368 -166q-167 0 -284.5 93t-117.5 254zM338 334q0 -82 64 -129t161 -47 q133 0 221 68.5t88 176.5v82q-122 45 -264 45q-127 0 -198.5 -51t-71.5 -141v-4z" />
<glyph unicode="b" d="M172 0v1554h246v-624q149 215 389 215q100 0 193 -39.5t166.5 -111t118 -184t44.5 -247.5v-4q0 -135 -44 -247t-117.5 -184t-166.5 -111.5t-194 -39.5q-234 0 -389 201v-178h-246zM414 559q0 -161 99 -265t237 -104q139 0 234 101.5t95 267.5v4q0 163 -96 266t-233 103 q-138 0 -237 -104t-99 -265v-4z" />
<glyph unicode="c" horiz-adv-x="1232" d="M111 555v4q0 158 74.5 292t208.5 214t298 80q149 0 256.5 -50.5t192.5 -144.5l-156 -166q-68 71 -136 108.5t-159 37.5q-143 0 -238.5 -107t-95.5 -260v-4q0 -156 98 -262.5t248 -106.5q87 0 157.5 36.5t139.5 105.5l150 -146q-94 -103 -200.5 -157t-258.5 -54 q-163 0 -296.5 78.5t-208 211.5t-74.5 290z" />
<glyph unicode="d" d="M115 559v4q0 135 43.5 247t117 184t167 111.5t194.5 39.5q235 0 387 -201v610h248v-1554h-248v193q-150 -216 -387 -216q-100 0 -193 39.5t-166.5 111t-118 184t-44.5 247.5zM365 559q0 -163 96 -266t233 -103q138 0 237 104t99 265v4q0 161 -99 265t-237 104 q-139 0 -234 -101.5t-95 -267.5v-4z" />
<glyph unicode="e" horiz-adv-x="1300" d="M111 557v4q0 120 41 227t112 186t173.5 125t219.5 46q104 0 191.5 -31.5t150 -87t106.5 -131.5t65.5 -165t21.5 -187q0 -45 -2 -70h-832q20 -140 110 -217.5t220 -77.5q94 0 167.5 33.5t141.5 101.5l148 -129q-179 -209 -461 -209q-161 0 -291.5 72.5t-206 206 t-75.5 303.5zM354 637h594q-14 135 -90 220t-203 85q-120 0 -201 -84t-100 -221z" />
<glyph unicode="f" horiz-adv-x="815" d="M88 909v207h141v84q0 187 95 279q88 88 249 88q115 0 207 -29v-209q-89 27 -153 27q-152 0 -152 -176v-66h301v-205h-299v-909h-248v909h-141z" />
<glyph unicode="g" d="M115 614v4q0 121 43 222t115 166.5t163.5 102t190.5 36.5q235 0 397 -195v172h248v-895q0 -278 -144 -422q-149 -149 -456 -149q-278 0 -504 135l94 186q186 -120 404 -120q174 0 267 89t93 261v90q-77 -99 -172.5 -153t-226.5 -54q-135 0 -250.5 61t-188.5 182.5 t-73 280.5zM365 616q0 -139 94 -228t231 -89q140 0 240 89t100 226v4q0 139 -100 228.5t-240 89.5q-139 0 -232 -88t-93 -227v-5z" />
<glyph unicode="h" horiz-adv-x="1335" d="M172 0v1554h246v-608q139 199 356 199q189 0 296.5 -117t107.5 -315v-713h-248v639q0 134 -65 207.5t-183 73.5q-119 0 -191.5 -76.5t-72.5 -208.5v-635h-246z" />
<glyph unicode="i" horiz-adv-x="620" d="M176 1303v237h268v-237h-268zM186 0v1122h248v-1122h-248z" />
<glyph unicode="j" horiz-adv-x="620" d="M-8 -139q41 -6 74 -6q120 0 120 139v1128h248v-1142q0 -165 -82 -246.5t-237 -81.5q-61 0 -123 12v197zM176 1303v237h268v-237h-268z" />
<glyph unicode="k" horiz-adv-x="1253" d="M172 0v1554h246v-946l483 514h299l-448 -460l465 -662h-291l-340 489l-168 -172v-317h-246z" />
<glyph unicode="l" horiz-adv-x="620" d="M186 0v1554h248v-1554h-248z" />
<glyph unicode="m" horiz-adv-x="2039" d="M172 0v1122h246v-174q66 91 146.5 144t199.5 53t205.5 -53t132.5 -146q151 199 381 199q185 0 290 -113.5t105 -318.5v-713h-246v639q0 135 -62 208t-173 73q-110 0 -179 -75t-69 -210v-635h-248v643q0 133 -61 205t-172 72t-180.5 -78t-69.5 -209v-633h-246z" />
<glyph unicode="n" horiz-adv-x="1335" d="M172 0v1122h246v-176q139 199 356 199q189 0 296.5 -117t107.5 -315v-713h-248v639q0 134 -65 207.5t-183 73.5q-119 0 -191.5 -76.5t-72.5 -208.5v-635h-246z" />
<glyph unicode="o" horiz-adv-x="1413" d="M111 555v4q0 118 45.5 226t124 187t190.5 126t238 47q168 0 304.5 -78t213 -211.5t76.5 -292.5v-4q0 -118 -45.5 -225.5t-124 -186.5t-190.5 -125.5t-238 -46.5t-237 46t-189 124t-123 185t-45 225zM356 559q0 -153 100.5 -261t252.5 -108q155 0 251.5 106t96.5 259v4 q0 153 -100.5 262t-251.5 109q-155 0 -252 -107t-97 -260v-4z" />
<glyph unicode="p" d="M172 -340v1462h246v-192q149 215 389 215q100 0 193 -39.5t166.5 -111t118 -184t44.5 -247.5v-4q0 -135 -44 -247t-117.5 -184t-166.5 -111.5t-194 -39.5q-234 0 -389 201v-518h-246zM414 559q0 -161 99 -265t237 -104q139 0 234 101.5t95 267.5v4q0 163 -96 266 t-233 103q-138 0 -237 -104t-99 -265v-4z" />
<glyph unicode="q" d="M115 559v4q0 135 43.5 247t117 184t167 111.5t194.5 39.5q235 0 387 -201v178h248v-1462h-248v533q-150 -216 -387 -216q-100 0 -193 39.5t-166.5 111t-118 184t-44.5 247.5zM365 559q0 -163 96 -266t233 -103q138 0 237 104t99 265v4q0 161 -99 265t-237 104 q-139 0 -234 -101.5t-95 -267.5v-4z" />
<glyph unicode="r" horiz-adv-x="892" d="M172 0v1122h246v-258q58 135 160 210q94 69 224 69h21v-260h-14q-176 0 -283.5 -117t-107.5 -336v-430h-246z" />
<glyph unicode="s" horiz-adv-x="1081" d="M80 145l113 168q190 -139 370 -139q84 0 132 35t48 94v4q0 40 -37.5 71t-73 44.5t-118.5 38.5q-17 5 -25 8q-42 13 -72 22.5t-69.5 26.5t-67 34t-56.5 42t-46.5 53.5t-29 67t-11.5 82.5v4q0 155 112 247.5t283 92.5q105 0 214 -34t198 -93l-98 -176q-175 106 -318 106 q-76 0 -119.5 -32.5t-43.5 -84.5v-4q0 -28 15 -50.5t58.5 -43.5t66.5 -30t93 -32q15 -5 23 -8q59 -18 100.5 -34t92.5 -44t82 -59.5t53 -80t22 -107.5v-4q0 -168 -116.5 -259t-299.5 -91q-124 0 -249 42t-226 123z" />
<glyph unicode="t" horiz-adv-x="888" d="M82 909v213h145v312h246v-312h307v-213h-307v-563q0 -145 143 -145q80 0 160 39v-203q-99 -55 -227 -55q-322 0 -322 325v602h-145z" />
<glyph unicode="u" horiz-adv-x="1335" d="M158 410v712h248v-639q0 -133 65 -206.5t182 -73.5q119 0 192 76t73 208v635h245v-1122h-245v176q-139 -199 -355 -199q-190 0 -297.5 117t-107.5 316z" />
<glyph unicode="v" horiz-adv-x="1280" d="M66 1122h266l309 -835l313 835h260l-462 -1130h-224z" />
<glyph unicode="w" horiz-adv-x="1849" d="M78 1122h254l233 -784l256 788h209l256 -788l238 784h248l-371 -1130h-219l-256 780l-260 -780h-220z" />
<glyph unicode="x" horiz-adv-x="1249" d="M74 0l413 571l-397 551h270l267 -383l268 383h264l-399 -547l416 -575h-271l-284 406l-283 -406h-264z" />
<glyph unicode="y" horiz-adv-x="1286" d="M66 1122h264l327 -846l299 846h258l-448 -1153q-67 -173 -151.5 -245t-219.5 -72q-137 0 -262 67l84 187q78 -45 154 -45q58 0 95.5 31t72.5 108z" />
<glyph unicode="z" horiz-adv-x="1208" d="M121 0v170l657 750h-635v202h951v-170l-658 -749h658v-203h-973z" />
<glyph unicode="{" horiz-adv-x="1052" d="M121 516v191h55q132 0 187 54.5t55 180.5q0 19 -2 79.5t-2 76.5q0 87 21 150t74 118t148 93.5t238 64.5l41 -164q-98 -27 -156 -53.5t-89 -63t-40.5 -76t-9.5 -104.5q0 -21 2 -79t2 -81q0 -120 -55 -189t-166 -104q112 -35 166.5 -103t54.5 -190q0 -21 -2 -78t-2 -79 q0 -65 9.5 -104.5t40.5 -76t89 -63t156 -53.5l-41 -164q-143 26 -238 64.5t-148 93.5t-74 118t-21 150q0 16 2 76.5t2 79.5q0 126 -55 180.5t-187 54.5h-55z" />
<glyph unicode="|" horiz-adv-x="714" d="M258 -272v1972h199v-1972h-199z" />
<glyph unicode="}" horiz-adv-x="1052" d="M117 -137q98 27 156 53.5t89 63t40.5 76t9.5 104.5q0 22 -3 79t-3 78q0 121 56 190t167 103q-112 37 -167.5 105t-55.5 188q0 23 3 81t3 79q0 65 -9.5 104.5t-40.5 76t-89 63t-156 53.5l41 164q143 -26 238 -64.5t148 -93.5t74 -118t21 -150q0 -16 -2 -76.5t-2 -79.5 q0 -126 55 -180.5t187 -54.5h55v-191h-55q-132 0 -187 -54.5t-55 -180.5q0 -19 2 -79.5t2 -76.5q0 -87 -21 -150t-74 -118t-148 -93.5t-238 -64.5z" />
<glyph unicode="~" horiz-adv-x="1064" d="M137 532q35 134 88.5 197.5t145.5 63.5q57 0 176 -45q92 -39 127 -39q44 0 68.5 23t48.5 81l137 -41q-35 -134 -88.5 -197t-145.5 -63q-70 0 -174 45q-9 3 -34.5 13t-37 14t-28.5 8t-29 4q-44 0 -68 -23.5t-49 -80.5z" />
<glyph unicode="&#xa1;" horiz-adv-x="653" d="M182 0v80l76 946h137l76 -946v-80h-289zM190 1206v285h273v-285h-273z" />
<glyph unicode="&#xa2;" horiz-adv-x="1253" d="M119 752v4q0 158 75 292t209.5 213.5t296.5 79.5h19l33 162h182l-37 -190q144 -45 254 -166l-152 -162q-74 77 -153 111l-139 -709h2q163 0 301 141l143 -143q-91 -103 -201.5 -159t-259.5 -56h-20l-35 -182h-180l41 215q-168 62 -273.5 211.5t-105.5 337.5zM362 756 q0 -110 49.5 -199t135.5 -133l141 702h-2q-138 -3 -232 -109t-92 -257v-4z" />
<glyph unicode="&#xa3;" horiz-adv-x="1388" d="M143 0v158l170 51v389h-170v211h170v201q0 239 131 370t357 131q163 0 274.5 -62.5t194.5 -174.5l-193 -154q-64 82 -125.5 121t-148.5 39q-99 0 -162 -63q-74 -74 -74 -213v-195h537v-211h-537v-379h699v-219h-1123z" />
<glyph unicode="&#xa5;" horiz-adv-x="1476" d="M51 1491h293l397 -637l402 637h282l-497 -746h346v-182h-414v-160h414v-182h-414v-221h-242v221h-413v182h413v160h-413v182h342z" />
<glyph unicode="&#xa7;" horiz-adv-x="1361" d="M133 745v5q0 97 63.5 157.5t170.5 87.5q-60 37 -91.5 90t-31.5 115v4q0 141 111.5 224t303.5 83q302 0 492 -200l-141 -142q-161 154 -348 154q-85 0 -132 -30t-47 -79v-4q0 -48 60 -81.5t229 -73.5q250 -56 353.5 -125t103.5 -185v-4q0 -97 -63 -158t-171 -87 q58 -35 90.5 -89t32.5 -116v-4q0 -141 -111 -224t-305 -83q-301 0 -491 200l143 142q157 -154 348 -154q87 0 132 30t45 78v5q0 49 -62 83.5t-227 71.5q-249 56 -353 126t-104 183zM356 778q0 -47 58.5 -82.5t197.5 -70.5q145 -37 222 -37q76 0 125 34t49 87v4 q0 46 -59.5 82t-198.5 71q-145 37 -222 37q-76 0 -124 -34t-48 -87v-4z" />
<glyph unicode="&#xa8;" horiz-adv-x="1081" d="M209 1268v245h254v-245h-254zM618 1268v245h254v-245h-254z" />
<glyph unicode="&#xa9;" horiz-adv-x="1783" d="M121 741v4q0 155 60.5 297t163.5 246t247 166t303 62q212 0 389 -103.5t278 -279.5t101 -383v-5q0 -207 -102 -384t-280 -281.5t-390 -104.5q-213 0 -390.5 103.5t-278.5 279.5t-101 383zM201 741q0 -141 53 -268.5t144 -220t219.5 -147t273.5 -54.5q144 0 273 55 t220.5 148.5t145 221.5t53.5 269v5q0 141 -53 268.5t-144 220t-219 147t-272 54.5q-145 0 -274.5 -55.5t-221 -149t-145 -221.5t-53.5 -269v-4zM492 752v6q0 172 118 294t295 122q105 0 178 -32.5t138 -94.5l-99 -113q-105 98 -217 98q-109 0 -182.5 -79t-73.5 -193v-4 q0 -114 73.5 -194.5t182.5 -80.5q67 0 116 24.5t107 76.5l99 -99q-68 -71 -144 -107t-182 -36q-173 0 -291 120t-118 292z" />
<glyph unicode="&#xaa;" horiz-adv-x="847" d="M123 602v121h571v-121h-571zM129 1051v4q0 97 69.5 147.5t186.5 50.5q85 0 162 -24v10q0 64 -39 98.5t-111 34.5q-81 0 -178 -41l-39 113q116 53 236 53q135 0 205 -70q65 -65 65 -188v-367h-139v74q-75 -88 -197 -88q-93 0 -157 51.5t-64 141.5zM270 1057q0 -42 32 -66 t83 -24q70 0 117 36.5t47 92.5v41q-71 22 -137 22t-104 -26t-38 -72v-4z" />
<glyph unicode="&#xab;" horiz-adv-x="1292" d="M102 553v16l367 463l174 -90l-268 -379l268 -381l-174 -92zM631 553v16l366 463l174 -90l-268 -379l268 -381l-174 -92z" />
<glyph unicode="&#xad;" horiz-adv-x="884" d="M129 528v244h627v-244h-627z" />
<glyph unicode="&#xae;" horiz-adv-x="835" d="M47 1137v2q0 153 108.5 262.5t262.5 109.5q156 0 263 -108.5t107 -261.5v-2q0 -152 -108 -262.5t-262 -110.5q-155 0 -263 109.5t-108 261.5zM90 1137q0 -136 95 -233t233 -97t232.5 97.5t94.5 234.5v2q0 138 -94 235t-233 97q-137 0 -232.5 -98.5t-95.5 -235.5v-2z M264 954v385h180q69 0 112.5 -32.5t43.5 -94.5v-2q0 -42 -23.5 -73.5t-62.5 -42.5l98 -140h-108l-84 123h-64v-123h-92zM356 1151h82q32 0 50 15t18 40v2q0 24 -18.5 38.5t-49.5 13.5h-82v-109z" />
<glyph unicode="&#xaf;" horiz-adv-x="1081" d="M182 1294v181h717v-181h-717z" />
<glyph unicode="&#xb0;" horiz-adv-x="1015" d="M156 1157v6q0 136 106.5 238t245.5 102t245.5 -102t106.5 -238v-6q0 -136 -106.5 -238t-245.5 -102t-245.5 102t-106.5 238zM305 1157q0 -83 58.5 -144t144.5 -61t144.5 61t58.5 144v6q0 83 -58.5 144t-144.5 61t-144.5 -61t-58.5 -144v-6z" />
<glyph unicode="&#xb1;" horiz-adv-x="1363" d="M168 0v211h1030v-211h-1030zM168 793v217h403l-2 395h226v-395h403v-217h-403v-396h-226l2 396h-403z" />
<glyph unicode="&#xb2;" horiz-adv-x="860" d="M121 899v129l297 248q83 70 117 116t34 99t-38.5 86t-96.5 33q-107 0 -198 -127l-109 84q64 91 137 136.5t180 45.5q124 0 202.5 -69t78.5 -177q0 -85 -41 -149t-141 -146l-217 -176h405v-133h-610z" />
<glyph unicode="&#xb3;" horiz-adv-x="860" d="M100 1016l93 108q107 -110 233 -110q60 0 103.5 35.5t43.5 91.5q0 60 -51 92.5t-133 32.5h-86l-24 94l243 231h-368v135h557v-116l-248 -232q116 -8 189 -67t73 -166q0 -118 -83.5 -192t-217.5 -74q-190 0 -324 137z" />
<glyph unicode="&#xb4;" horiz-adv-x="1081" d="M358 1268l220 344l225 -103l-258 -241h-187z" />
<glyph unicode="&#xb5;" horiz-adv-x="1437" d="M172 -340v1462h246v-639q0 -132 70.5 -210t187.5 -78q118 0 190 78.5t72 209.5v639h246v-807q3 -63 34.5 -92.5t92.5 -29.5q47 0 71 8v-197q-67 -18 -143 -18q-108 0 -173.5 38.5t-94.5 122.5q-108 -163 -287 -163q-96 0 -176.5 46t-120.5 134h-4q2 -12 7.5 -44t7.5 -45 t6 -39.5t5.5 -43.5t3 -41t1.5 -47v-244h-242z" />
<glyph unicode="&#xb6;" horiz-adv-x="1191" d="M96 1006v4q0 223 158.5 352t417.5 129h325v-1491h-254v524h-36q-176 0 -312.5 54t-217.5 164.5t-81 263.5z" />
<glyph unicode="&#xb7;" horiz-adv-x="583" d="M156 508v285h272v-285h-272z" />
<glyph unicode="&#xb8;" horiz-adv-x="1081" d="M293 -258l199 293h184l-166 -385z" />
<glyph unicode="&#xb9;" horiz-adv-x="700" d="M115 1642l245 97h115v-840h-149v682l-170 -63z" />
<glyph unicode="&#xba;" horiz-adv-x="847" d="M102 1176v4q0 133 93.5 227t230.5 94t227 -92t90 -225v-4q0 -135 -92 -228.5t-229 -93.5t-228.5 92.5t-91.5 225.5zM117 602v121h614v-121h-614zM248 1180q0 -80 50.5 -136.5t127.5 -56.5q76 0 124 55t48 134v4q0 80 -49.5 136t-126.5 56q-76 0 -125 -55t-49 -133v-4z " />
<glyph unicode="&#xbb;" horiz-adv-x="1292" d="M121 180l268 379l-268 381l176 92l365 -463v-16l-365 -463zM651 180l267 379l-267 381l174 92l365 -463v-16l-365 -463z" />
<glyph unicode="&#xbc;" horiz-adv-x="1775" d="M115 1407l245 96h115v-839h-149v682l-170 -64zM281 0l534 774l477 717h148l-535 -774l-477 -717h-147zM1008 315l405 523h156v-541h112v-121h-112v-180h-139v180h-402zM1145 297h287v371z" />
<glyph unicode="&#xbd;" horiz-adv-x="1775" d="M115 1407l245 96h115v-839h-149v682l-170 -64zM260 0l535 774l477 717h147l-534 -774l-477 -717h-148zM1051 0v129l297 248q83 70 117 116t34 99t-38.5 86t-96.5 33q-108 0 -199 -127l-108 84q64 91 137 136.5t180 45.5q124 0 202.5 -69t78.5 -177q0 -85 -41 -149 t-141 -146l-218 -176h406v-133h-610z" />
<glyph unicode="&#xbe;" horiz-adv-x="1935" d="M104 780l93 109q108 -111 233 -111q61 0 104.5 35t43.5 92q0 60 -51.5 92.5t-133.5 32.5h-86l-24 94l243 232h-368v135h557v-119l-248 -229q115 -8 188.5 -68.5t73.5 -165.5q0 -120 -83.5 -194t-217.5 -74q-188 0 -324 139zM430 0l535 774l477 717h147l-534 -774 l-477 -717h-148zM1167 315l406 523h156v-541h112v-121h-112v-180h-140v180h-401zM1305 297h286v371z" />
<glyph unicode="&#xbf;" horiz-adv-x="1167" d="M98 414v4q0 97 33 173.5t93.5 127t135.5 82t168 47.5l23 178h166l41 -346l-10 -10q-201 -7 -299.5 -71t-98.5 -175v-4q0 -94 67.5 -152.5t182.5 -58.5q194 0 352 172l154 -162q-207 -237 -510 -237q-225 0 -361.5 117.5t-136.5 314.5zM502 1206v285h272v-285h-272z" />
<glyph unicode="&#xc0;" horiz-adv-x="1699" d="M74 0l659 1501h234l657 -1501h-264l-156 362h-717l-155 -362h-258zM487 1841l226 101l237 -306h-194zM580 588h532l-266 614z" />
<glyph unicode="&#xc1;" horiz-adv-x="1699" d="M74 0l659 1501h234l657 -1501h-264l-156 362h-717l-155 -362h-258zM580 588h532l-266 614zM750 1636l235 306l225 -101l-268 -205h-192z" />
<glyph unicode="&#xc2;" horiz-adv-x="1699" d="M74 0l659 1501h234l657 -1501h-264l-156 362h-717l-155 -362h-258zM479 1630l254 283h234l254 -283h-209l-164 123l-164 -123h-205zM580 588h532l-266 614z" />
<glyph unicode="&#xc3;" horiz-adv-x="1699" d="M74 0l659 1501h234l657 -1501h-264l-156 362h-717l-155 -362h-258zM457 1657q38 131 91 194.5t144 63.5q71 0 187 -49q91 -35 122 -35q44 0 68 23t49 79l139 -41q-36 -130 -89.5 -193t-143.5 -63q-65 0 -186 47q-91 35 -123 35q-44 0 -69 -23t-50 -79zM580 588h532 l-266 614z" />
<glyph unicode="&#xc4;" horiz-adv-x="1699" d="M74 0l659 1501h234l657 -1501h-264l-156 362h-717l-155 -362h-258zM504 1636v232h258v-232h-258zM580 588h532l-266 614zM938 1636v232h256v-232h-256z" />
<glyph unicode="&#xc5;" horiz-adv-x="1699" d="M74 0l618 1413q-94 64 -94 176q0 95 74 159t178 64q103 0 176.5 -64t73.5 -159q0 -108 -94 -176l618 -1413h-264l-156 362h-717l-155 -362h-258zM580 588h532l-266 614zM711 1589q0 -53 39 -89t100 -36q59 0 98 36t39 89t-38.5 88t-98.5 35q-61 0 -100 -35t-39 -88z" />
<glyph unicode="&#xc6;" horiz-adv-x="2242" d="M35 0l839 1491h1229v-225h-807v-402h711v-225h-711v-414h818v-225h-1067v362h-549l-203 -362h-260zM618 588h429v684h-46z" />
<glyph unicode="&#xc7;" horiz-adv-x="1591" d="M135 741v4q0 157 57.5 299t157.5 246t244 165t309 61q193 0 329.5 -59.5t254.5 -172.5l-164 -186q-96 91 -197 138.5t-225 47.5q-142 0 -257.5 -71.5t-180 -193.5t-64.5 -269v-5q0 -148 64 -271t179.5 -195t258.5 -72q132 0 231 47.5t203 146.5l162 -163 q-119 -123 -249.5 -188.5t-307.5 -72.5l-141 -327l-217 92l166 248q-177 31 -317 137t-218 266.5t-78 347.5z" />
<glyph unicode="&#xc8;" d="M203 0v1491h1102v-225h-852v-402h755v-225h-755v-414h862v-225h-1112zM395 1821l226 100l237 -305h-194z" />
<glyph unicode="&#xc9;" d="M203 0v1491h1102v-225h-852v-402h755v-225h-755v-414h862v-225h-1112zM657 1616l236 305l225 -100l-268 -205h-193z" />
<glyph unicode="&#xca;" d="M203 0v1491h1102v-225h-852v-402h755v-225h-755v-414h862v-225h-1112zM387 1616l254 282h233l254 -282h-208l-164 123l-164 -123h-205z" />
<glyph unicode="&#xcb;" d="M203 0v1491h1102v-225h-852v-402h755v-225h-755v-414h862v-225h-1112zM412 1616v231h258v-231h-258zM846 1616v231h256v-231h-256z" />
<glyph unicode="&#xcc;" horiz-adv-x="686" d="M-18 1821l225 100l237 -305h-194zM217 0v1491h252v-1491h-252z" />
<glyph unicode="&#xcd;" horiz-adv-x="686" d="M217 0v1491h252v-1491h-252zM242 1616l235 305l225 -100l-268 -205h-192z" />
<glyph unicode="&#xce;" horiz-adv-x="686" d="M-29 1616l254 282h234l254 -282h-209l-164 123l-164 -123h-205zM217 0v1491h252v-1491h-252z" />
<glyph unicode="&#xcf;" horiz-adv-x="686" d="M-2 1616v231h258v-231h-258zM217 0v1491h252v-1491h-252zM432 1616v231h256v-231h-256z" />
<glyph unicode="&#xd0;" horiz-adv-x="1744" d="M106 659v183h160v649h551q173 0 321.5 -57t251.5 -156t161.5 -235.5t58.5 -292.5v-5q0 -156 -58.5 -293.5t-161.5 -237t-251.5 -157t-321.5 -57.5h-551v659h-160zM518 227h299q237 0 384 144.5t147 369.5v4q0 224 -147.5 371.5t-383.5 147.5h-299v-422h381v-183h-381 v-432z" />
<glyph unicode="&#xd1;" horiz-adv-x="1699" d="M203 0v1491h231l815 -1051v1051h248v-1491h-211l-835 1079v-1079h-248zM457 1632q38 131 91 194.5t144 63.5q71 0 187 -49q91 -35 122 -35q43 0 67.5 23.5t49.5 79.5l139 -41q-36 -130 -89.5 -193t-143.5 -63q-65 0 -186 47q-91 35 -123 35q-44 0 -69 -23.5t-50 -79.5z " />
<glyph unicode="&#xd2;" horiz-adv-x="1826" d="M135 741v4q0 155 58.5 296.5t159.5 246t248 166.5t314 62q168 0 314 -61t246.5 -165t158.5 -244.5t58 -295.5v-5q0 -155 -58.5 -296.5t-160 -245.5t-248 -166t-314.5 -62t-313.5 61t-246.5 165t-158.5 244.5t-57.5 295.5zM399 745q0 -147 65.5 -269.5t184.5 -195.5 t266 -73t265 72t182.5 193.5t64.5 268.5v4q0 147 -65.5 270t-184.5 196t-266 73t-265 -72t-182.5 -193.5t-64.5 -268.5v-5zM551 1841l225 101l238 -306h-195z" />
<glyph unicode="&#xd3;" horiz-adv-x="1826" d="M135 741v4q0 155 58.5 296.5t159.5 246t248 166.5t314 62q168 0 314 -61t246.5 -165t158.5 -244.5t58 -295.5v-5q0 -155 -58.5 -296.5t-160 -245.5t-248 -166t-314.5 -62t-313.5 61t-246.5 165t-158.5 244.5t-57.5 295.5zM399 745q0 -147 65.5 -269.5t184.5 -195.5 t266 -73t265 72t182.5 193.5t64.5 268.5v4q0 147 -65.5 270t-184.5 196t-266 73t-265 -72t-182.5 -193.5t-64.5 -268.5v-5zM813 1636l236 306l225 -101l-268 -205h-193z" />
<glyph unicode="&#xd4;" horiz-adv-x="1826" d="M135 741v4q0 155 58.5 296.5t159.5 246t248 166.5t314 62q168 0 314 -61t246.5 -165t158.5 -244.5t58 -295.5v-5q0 -155 -58.5 -296.5t-160 -245.5t-248 -166t-314.5 -62t-313.5 61t-246.5 165t-158.5 244.5t-57.5 295.5zM399 745q0 -147 65.5 -269.5t184.5 -195.5 t266 -73t265 72t182.5 193.5t64.5 268.5v4q0 147 -65.5 270t-184.5 196t-266 73t-265 -72t-182.5 -193.5t-64.5 -268.5v-5zM543 1636l254 283h233l254 -283h-209l-164 123l-163 -123h-205z" />
<glyph unicode="&#xd5;" horiz-adv-x="1826" d="M135 741v4q0 155 58.5 296.5t159.5 246t248 166.5t314 62q168 0 314 -61t246.5 -165t158.5 -244.5t58 -295.5v-5q0 -155 -58.5 -296.5t-160 -245.5t-248 -166t-314.5 -62t-313.5 61t-246.5 165t-158.5 244.5t-57.5 295.5zM399 745q0 -147 65.5 -269.5t184.5 -195.5 t266 -73t265 72t182.5 193.5t64.5 268.5v4q0 147 -65.5 270t-184.5 196t-266 73t-265 -72t-182.5 -193.5t-64.5 -268.5v-5zM520 1657q37 131 91 194.5t145 63.5q70 0 186 -49q91 -35 123 -35q44 0 68 23t49 79l139 -41q-35 -129 -89.5 -192.5t-144.5 -63.5q-65 0 -186 47 q-91 35 -123 35q-44 0 -69 -23t-50 -79z" />
<glyph unicode="&#xd6;" horiz-adv-x="1826" d="M135 741v4q0 155 58.5 296.5t159.5 246t248 166.5t314 62q168 0 314 -61t246.5 -165t158.5 -244.5t58 -295.5v-5q0 -155 -58.5 -296.5t-160 -245.5t-248 -166t-314.5 -62t-313.5 61t-246.5 165t-158.5 244.5t-57.5 295.5zM399 745q0 -147 65.5 -269.5t184.5 -195.5 t266 -73t265 72t182.5 193.5t64.5 268.5v4q0 147 -65.5 270t-184.5 196t-266 73t-265 -72t-182.5 -193.5t-64.5 -268.5v-5zM567 1636v232h258v-232h-258zM1001 1636v232h256v-232h-256z" />
<glyph unicode="&#xd7;" horiz-adv-x="1363" d="M176 397l356 351l-356 350l160 157l348 -356l350 356l154 -153l-357 -350l357 -351l-158 -157l-350 356l-350 -356z" />
<glyph unicode="&#xd8;" horiz-adv-x="1826" d="M119 -10l209 237q-93 102 -143 234.5t-50 279.5v4q0 155 58.5 296.5t159.5 246t248 166.5t314 62q246 0 441 -130l104 115h248l-211 -237q93 -104 144 -236t51 -278v-5q0 -155 -58.5 -296.5t-160 -245.5t-248 -166t-314.5 -62q-248 0 -440 127l-104 -112h-248zM395 748 q0 -188 103 -332l700 788q-133 86 -287 86q-148 0 -267 -73t-184 -196t-65 -271v-2zM629 287q125 -86 286 -86q148 0 267.5 73t185.5 196t66 271v2q0 186 -105 332z" />
<glyph unicode="&#xd9;" horiz-adv-x="1630" d="M178 633v858h252v-850q0 -209 102 -320.5t285 -111.5q180 0 280.5 107.5t100.5 314.5v860h252v-848q0 -325 -171 -495.5t-468 -170.5q-295 0 -464 169t-169 487zM453 1817l225 100l237 -305h-194z" />
<glyph unicode="&#xda;" horiz-adv-x="1630" d="M178 633v858h252v-850q0 -209 102 -320.5t285 -111.5q180 0 280.5 107.5t100.5 314.5v860h252v-848q0 -325 -171 -495.5t-468 -170.5q-295 0 -464 169t-169 487zM715 1612l235 305l226 -100l-269 -205h-192z" />
<glyph unicode="&#xdb;" horiz-adv-x="1630" d="M178 633v858h252v-850q0 -209 102 -320.5t285 -111.5q180 0 280.5 107.5t100.5 314.5v860h252v-848q0 -325 -171 -495.5t-468 -170.5q-295 0 -464 169t-169 487zM444 1612l254 282h234l254 -282h-209l-164 123l-164 -123h-205z" />
<glyph unicode="&#xdc;" horiz-adv-x="1630" d="M178 633v858h252v-850q0 -209 102 -320.5t285 -111.5q180 0 280.5 107.5t100.5 314.5v860h252v-848q0 -325 -171 -495.5t-468 -170.5q-295 0 -464 169t-169 487zM469 1612v231h258v-231h-258zM903 1612v231h256v-231h-256z" />
<glyph unicode="&#xdd;" horiz-adv-x="1542" d="M49 1491h297l426 -670l432 670h289l-596 -897v-594h-252v588zM670 1612l235 305l225 -100l-268 -205h-192z" />
<glyph unicode="&#xde;" horiz-adv-x="1449" d="M203 0v1491h252v-236h331q259 0 412.5 -135t153.5 -360v-4q0 -122 -47 -220t-128 -160t-188 -95t-231 -33h-303v-248h-252zM455 475h311q151 0 241.5 77t90.5 198v4q0 131 -89 201.5t-243 70.5h-311v-551z" />
<glyph unicode="&#xdf;" horiz-adv-x="1337" d="M172 0v1069q0 231 136.5 365.5t367.5 134.5q211 0 334 -113t123 -285v-4q0 -238 -242 -368q68 -21 124.5 -52t105 -76t75.5 -109.5t27 -141.5v-4q0 -203 -158 -315.5t-428 -104.5v190q162 5 250 65t88 171v4q0 102 -90.5 165.5t-247.5 82.5v170q250 117 250 301v4 q0 95 -61 152t-162 57q-109 0 -177.5 -77t-68.5 -204v-1077h-246z" />
<glyph unicode="&#xe0;" horiz-adv-x="1263" d="M96 324v4q0 176 126 268t339 92q164 0 307 -47v29q0 123 -73 187.5t-211 64.5q-158 0 -324 -70l-65 192q103 46 200 69.5t221 23.5q246 0 371 -125q119 -116 119 -344v-668h-240v143q-137 -166 -368 -166q-167 0 -284.5 93t-117.5 254zM289 1509l225 103l219 -344h-186z M338 334q0 -82 64 -129t161 -47q133 0 221 68.5t88 176.5v82q-122 45 -264 45q-127 0 -198.5 -51t-71.5 -141v-4z" />
<glyph unicode="&#xe1;" horiz-adv-x="1263" d="M96 324v4q0 176 126 268t339 92q164 0 307 -47v29q0 123 -73 187.5t-211 64.5q-158 0 -324 -70l-65 192q103 46 200 69.5t221 23.5q246 0 371 -125q119 -116 119 -344v-668h-240v143q-137 -166 -368 -166q-167 0 -284.5 93t-117.5 254zM338 334q0 -82 64 -129t161 -47 q133 0 221 68.5t88 176.5v82q-122 45 -264 45q-127 0 -198.5 -51t-71.5 -141v-4zM537 1268l219 344l225 -103l-258 -241h-186z" />
<glyph unicode="&#xe2;" horiz-adv-x="1263" d="M96 324v4q0 176 126 268t339 92q164 0 307 -47v29q0 123 -73 187.5t-211 64.5q-158 0 -324 -70l-65 192q103 46 200 69.5t221 23.5q246 0 371 -125q119 -116 119 -344v-668h-240v143q-137 -166 -368 -166q-167 0 -284.5 93t-117.5 254zM276 1268l244 307h230l245 -307 h-198l-164 141l-164 -141h-193zM338 334q0 -82 64 -129t161 -47q133 0 221 68.5t88 176.5v82q-122 45 -264 45q-127 0 -198.5 -51t-71.5 -141v-4z" />
<glyph unicode="&#xe3;" horiz-adv-x="1263" d="M96 324v4q0 176 126 268t339 92q164 0 307 -47v29q0 123 -73 187.5t-211 64.5q-158 0 -324 -70l-65 192q103 46 200 69.5t221 23.5q246 0 371 -125q119 -116 119 -344v-668h-240v143q-137 -166 -368 -166q-167 0 -284.5 93t-117.5 254zM248 1288q35 134 88 197t145 63 q70 0 174 -45q96 -39 129 -39q44 0 68 23.5t49 81.5l137 -41q-35 -134 -88 -197t-145 -63q-70 0 -174 45q-96 39 -129 39q-44 0 -68 -23.5t-49 -81.5zM338 334q0 -82 64 -129t161 -47q133 0 221 68.5t88 176.5v82q-122 45 -264 45q-127 0 -198.5 -51t-71.5 -141v-4z" />
<glyph unicode="&#xe4;" horiz-adv-x="1263" d="M96 324v4q0 176 126 268t339 92q164 0 307 -47v29q0 123 -73 187.5t-211 64.5q-158 0 -324 -70l-65 192q103 46 200 69.5t221 23.5q246 0 371 -125q119 -116 119 -344v-668h-240v143q-137 -166 -368 -166q-167 0 -284.5 93t-117.5 254zM303 1268v245h254v-245h-254z M338 334q0 -82 64 -129t161 -47q133 0 221 68.5t88 176.5v82q-122 45 -264 45q-127 0 -198.5 -51t-71.5 -141v-4zM713 1268v245h254v-245h-254z" />
<glyph unicode="&#xe5;" horiz-adv-x="1263" d="M96 324v4q0 176 126 268t339 92q164 0 307 -47v29q0 123 -73 187.5t-211 64.5q-158 0 -324 -70l-65 192q103 46 200 69.5t221 23.5q246 0 371 -125q119 -116 119 -344v-668h-240v143q-137 -166 -368 -166q-167 0 -284.5 93t-117.5 254zM338 334q0 -82 64 -129t161 -47 q133 0 221 68.5t88 176.5v82q-122 45 -264 45q-127 0 -198.5 -51t-71.5 -141v-4zM389 1499q0 98 72.5 168t173.5 70t173.5 -70t72.5 -168t-72 -166.5t-174 -68.5t-174 68.5t-72 166.5zM492 1499q0 -59 42 -101t101 -42t101 42t42 101t-42 101t-101 42t-101 -42t-42 -101z " />
<glyph unicode="&#xe6;" horiz-adv-x="2043" d="M96 324v4q0 176 125.5 268t335.5 92q158 0 301 -47v29q0 123 -71.5 187.5t-206.5 64.5q-154 0 -320 -70l-65 192q104 47 198.5 70t218.5 23q292 0 396 -191q69 94 171.5 146.5t227.5 52.5q126 0 228 -48.5t167 -131.5t100 -191t35 -231q0 -20 -4 -70h-831 q20 -139 110.5 -217t219.5 -78q94 0 167.5 33t143.5 102l145 -129q-179 -209 -461 -209q-131 0 -245 51t-191 144q-218 -193 -473 -193q-180 0 -301 93t-121 254zM338 334q0 -79 63.5 -126.5t157.5 -47.5q183 0 342 149q-34 82 -43 178q-127 43 -252 43q-127 0 -197.5 -51 t-70.5 -141v-4zM1098 637h594q-13 135 -89.5 220t-203.5 85q-120 0 -201 -84t-100 -221z" />
<glyph unicode="&#xe7;" horiz-adv-x="1232" d="M111 555v4q0 158 74.5 292t208.5 214t298 80q149 0 256.5 -50.5t192.5 -144.5l-156 -166q-68 71 -136 108.5t-159 37.5q-143 0 -238.5 -107t-95.5 -260v-4q0 -156 98 -262.5t248 -106.5q87 0 157.5 36.5t139.5 105.5l150 -146q-86 -95 -184 -148.5t-232 -60.5l-139 -327 l-217 92l170 252q-193 46 -314.5 202t-121.5 359z" />
<glyph unicode="&#xe8;" horiz-adv-x="1300" d="M111 557v4q0 120 41 227t112 186t173.5 125t219.5 46q104 0 191.5 -31.5t150 -87t106.5 -131.5t65.5 -165t21.5 -187q0 -45 -2 -70h-832q20 -140 110 -217.5t220 -77.5q94 0 167.5 33.5t141.5 101.5l148 -129q-179 -209 -461 -209q-161 0 -291.5 72.5t-206 206 t-75.5 303.5zM307 1509l225 103l220 -344h-187zM354 637h594q-14 135 -90 220t-203 85q-120 0 -201 -84t-100 -221z" />
<glyph unicode="&#xe9;" horiz-adv-x="1300" d="M111 557v4q0 120 41 227t112 186t173.5 125t219.5 46q104 0 191.5 -31.5t150 -87t106.5 -131.5t65.5 -165t21.5 -187q0 -45 -2 -70h-832q20 -140 110 -217.5t220 -77.5q94 0 167.5 33.5t141.5 101.5l148 -129q-179 -209 -461 -209q-161 0 -291.5 72.5t-206 206 t-75.5 303.5zM354 637h594q-14 135 -90 220t-203 85q-120 0 -201 -84t-100 -221zM557 1268l219 344l225 -103l-258 -241h-186z" />
<glyph unicode="&#xea;" horiz-adv-x="1300" d="M111 557v4q0 120 41 227t112 186t173.5 125t219.5 46q104 0 191.5 -31.5t150 -87t106.5 -131.5t65.5 -165t21.5 -187q0 -45 -2 -70h-832q20 -140 110 -217.5t220 -77.5q94 0 167.5 33.5t141.5 101.5l148 -129q-179 -209 -461 -209q-161 0 -291.5 72.5t-206 206 t-75.5 303.5zM295 1268l244 307h229l246 -307h-199l-164 141l-164 -141h-192zM354 637h594q-14 135 -90 220t-203 85q-120 0 -201 -84t-100 -221z" />
<glyph unicode="&#xeb;" horiz-adv-x="1300" d="M111 557v4q0 120 41 227t112 186t173.5 125t219.5 46q104 0 191.5 -31.5t150 -87t106.5 -131.5t65.5 -165t21.5 -187q0 -45 -2 -70h-832q20 -140 110 -217.5t220 -77.5q94 0 167.5 33.5t141.5 101.5l148 -129q-179 -209 -461 -209q-161 0 -291.5 72.5t-206 206 t-75.5 303.5zM322 1268v245h253v-245h-253zM354 637h594q-14 135 -90 220t-203 85q-120 0 -201 -84t-100 -221zM731 1268v245h254v-245h-254z" />
<glyph unicode="&#xec;" horiz-adv-x="620" d="M-37 1509l225 103l220 -344h-187zM186 0v1122h248v-1122h-248z" />
<glyph unicode="&#xed;" horiz-adv-x="620" d="M186 0v1122h248v-1122h-248zM211 1268l219 344l225 -103l-258 -241h-186z" />
<glyph unicode="&#xee;" horiz-adv-x="620" d="M-49 1268l244 307h229l246 -307h-199l-164 141l-164 -141h-192zM186 0v1122h248v-1122h-248z" />
<glyph unicode="&#xef;" horiz-adv-x="620" d="M-23 1268v245h254v-245h-254zM186 0v1122h248v-1122h-248zM387 1268v245h254v-245h-254z" />
<glyph unicode="&#xf0;" horiz-adv-x="1413" d="M111 567v4q0 154 69.5 280.5t187 197.5t255.5 71q95 0 169.5 -29t149.5 -83q-74 128 -235 286l-254 -82l-54 138l183 57q-67 56 -189 147h336l86 -71l242 78l51 -138l-172 -55q364 -368 364 -754v-4q0 -132 -42 -248.5t-118.5 -202t-190 -135t-249.5 -49.5 q-165 0 -300.5 78.5t-212 214t-76.5 299.5zM356 555q0 -152 100.5 -258.5t252.5 -106.5q154 0 250 104t96 259v4q0 151 -100.5 254.5t-256.5 103.5q-155 0 -248.5 -101.5t-93.5 -254.5v-4z" />
<glyph unicode="&#xf1;" horiz-adv-x="1335" d="M172 0v1122h246v-176q139 199 356 199q189 0 296.5 -117t107.5 -315v-713h-248v639q0 134 -65 207.5t-183 73.5q-119 0 -191.5 -76.5t-72.5 -208.5v-635h-246zM287 1288q35 134 88 197t145 63q70 0 174 -45q96 -39 129 -39q44 0 68 23.5t49 81.5l137 -41 q-35 -134 -88 -197t-145 -63q-70 0 -174 45q-96 39 -129 39q-44 0 -68 -23.5t-49 -81.5z" />
<glyph unicode="&#xf2;" horiz-adv-x="1413" d="M111 555v4q0 118 45.5 226t124 187t190.5 126t238 47q168 0 304.5 -78t213 -211.5t76.5 -292.5v-4q0 -118 -45.5 -225.5t-124 -186.5t-190.5 -125.5t-238 -46.5t-237 46t-189 124t-123 185t-45 225zM356 559q0 -153 100.5 -261t252.5 -108q155 0 251.5 106t96.5 259v4 q0 153 -100.5 262t-251.5 109q-155 0 -252 -107t-97 -260v-4zM360 1509l226 103l219 -344h-187z" />
<glyph unicode="&#xf3;" horiz-adv-x="1413" d="M111 555v4q0 118 45.5 226t124 187t190.5 126t238 47q168 0 304.5 -78t213 -211.5t76.5 -292.5v-4q0 -118 -45.5 -225.5t-124 -186.5t-190.5 -125.5t-238 -46.5t-237 46t-189 124t-123 185t-45 225zM356 559q0 -153 100.5 -261t252.5 -108q155 0 251.5 106t96.5 259v4 q0 153 -100.5 262t-251.5 109q-155 0 -252 -107t-97 -260v-4zM608 1268l219 344l226 -103l-258 -241h-187z" />
<glyph unicode="&#xf4;" horiz-adv-x="1413" d="M111 555v4q0 118 45.5 226t124 187t190.5 126t238 47q168 0 304.5 -78t213 -211.5t76.5 -292.5v-4q0 -118 -45.5 -225.5t-124 -186.5t-190.5 -125.5t-238 -46.5t-237 46t-189 124t-123 185t-45 225zM348 1268l244 307h229l246 -307h-199l-163 141l-164 -141h-193z M356 559q0 -153 100.5 -261t252.5 -108q155 0 251.5 106t96.5 259v4q0 153 -100.5 262t-251.5 109q-155 0 -252 -107t-97 -260v-4z" />
<glyph unicode="&#xf5;" horiz-adv-x="1413" d="M111 555v4q0 118 45.5 226t124 187t190.5 126t238 47q168 0 304.5 -78t213 -211.5t76.5 -292.5v-4q0 -118 -45.5 -225.5t-124 -186.5t-190.5 -125.5t-238 -46.5t-237 46t-189 124t-123 185t-45 225zM319 1288q35 134 88.5 197t145.5 63q70 0 174 -45q96 -39 129 -39 q44 0 68 23.5t49 81.5l137 -41q-35 -134 -88 -197t-145 -63q-71 0 -175 45q-96 39 -129 39q-43 0 -67 -23.5t-49 -81.5zM356 559q0 -153 100.5 -261t252.5 -108q155 0 251.5 106t96.5 259v4q0 153 -100.5 262t-251.5 109q-155 0 -252 -107t-97 -260v-4z" />
<glyph unicode="&#xf6;" horiz-adv-x="1413" d="M111 555v4q0 118 45.5 226t124 187t190.5 126t238 47q168 0 304.5 -78t213 -211.5t76.5 -292.5v-4q0 -118 -45.5 -225.5t-124 -186.5t-190.5 -125.5t-238 -46.5t-237 46t-189 124t-123 185t-45 225zM356 559q0 -153 100.5 -261t252.5 -108q155 0 251.5 106t96.5 259v4 q0 153 -100.5 262t-251.5 109q-155 0 -252 -107t-97 -260v-4zM375 1268v245h254v-245h-254zM784 1268v245h254v-245h-254z" />
<glyph unicode="&#xf7;" horiz-adv-x="1363" d="M154 643v213h1058v-213h-1058zM545 176v266h274v-266h-274zM545 1059v264h274v-264h-274z" />
<glyph unicode="&#xf8;" horiz-adv-x="1413" d="M78 -10l170 188q-137 159 -137 377v4q0 118 45.5 226t124 187t190.5 126t238 47q177 0 325 -92l74 82h227l-172 -193q140 -159 140 -379v-4q0 -118 -45.5 -225.5t-124 -186.5t-190.5 -125.5t-238 -46.5q-181 0 -328 91l-72 -76h-227zM350 561q0 -117 58 -209l481 531 q-85 53 -184 53q-158 0 -256.5 -108.5t-98.5 -264.5v-2zM524 233q84 -49 185 -49q158 0 256 107.5t98 263.5v4q0 117 -59 209z" />
<glyph unicode="&#xf9;" horiz-adv-x="1335" d="M158 410v712h248v-639q0 -133 65 -206.5t182 -73.5q119 0 192 76t73 208v635h245v-1122h-245v176q-139 -199 -355 -199q-190 0 -297.5 117t-107.5 316zM313 1509l226 103l219 -344h-187z" />
<glyph unicode="&#xfa;" horiz-adv-x="1335" d="M158 410v712h248v-639q0 -133 65 -206.5t182 -73.5q119 0 192 76t73 208v635h245v-1122h-245v176q-139 -199 -355 -199q-190 0 -297.5 117t-107.5 316zM563 1268l219 344l226 -103l-258 -241h-187z" />
<glyph unicode="&#xfb;" horiz-adv-x="1335" d="M158 410v712h248v-639q0 -133 65 -206.5t182 -73.5q119 0 192 76t73 208v635h245v-1122h-245v176q-139 -199 -355 -199q-190 0 -297.5 117t-107.5 316zM301 1268l244 307h229l246 -307h-199l-164 141l-163 -141h-193z" />
<glyph unicode="&#xfc;" horiz-adv-x="1335" d="M158 410v712h248v-639q0 -133 65 -206.5t182 -73.5q119 0 192 76t73 208v635h245v-1122h-245v176q-139 -199 -355 -199q-190 0 -297.5 117t-107.5 316zM328 1268v245h254v-245h-254zM737 1268v245h254v-245h-254z" />
<glyph unicode="&#xfd;" horiz-adv-x="1286" d="M66 1122h264l327 -846l299 846h258l-448 -1153q-67 -173 -151.5 -245t-219.5 -72q-137 0 -262 67l84 187q78 -45 154 -45q58 0 95.5 31t72.5 108zM547 1268l219 344l225 -103l-258 -241h-186z" />
<glyph unicode="&#xfe;" d="M172 -340v1894h246v-624q149 215 389 215q100 0 193 -39.5t166.5 -111t118 -184t44.5 -247.5v-4q0 -135 -44 -247t-117.5 -184t-166.5 -111.5t-194 -39.5q-234 0 -389 201v-518h-246zM414 559q0 -161 99 -265t237 -104q139 0 234 101.5t95 267.5v4q0 163 -96 266 t-233 103q-138 0 -237 -104t-99 -265v-4z" />
<glyph unicode="&#xff;" horiz-adv-x="1286" d="M66 1122h264l327 -846l299 846h258l-448 -1153q-67 -173 -151.5 -245t-219.5 -72q-137 0 -262 67l84 187q78 -45 154 -45q58 0 95.5 31t72.5 108zM313 1268v245h254v-245h-254zM723 1268v245h254v-245h-254z" />
<glyph unicode="&#x152;" horiz-adv-x="2363" d="M135 741v4q0 156 58.5 293.5t161.5 237t251.5 157.5t321.5 58h1296v-225h-805v-402h709v-225h-709v-414h815v-225h-1306q-173 0 -321.5 57t-251.5 156t-161.5 235.5t-58.5 292.5zM399 745q0 -224 146.5 -371t382.5 -147h239v1037h-239q-237 0 -383 -144.5t-146 -369.5v-5 z" />
<glyph unicode="&#x153;" horiz-adv-x="2232" d="M111 555v4q0 118 46 226t124 187t187.5 126t231.5 47q144 0 262.5 -64.5t192.5 -175.5q71 111 184 175.5t250 64.5q129 0 232.5 -48t169 -131.5t100.5 -191.5t35 -231q0 -20 -4 -70h-832q20 -139 110.5 -217t219.5 -78q94 0 167.5 33t143.5 102l146 -129 q-179 -209 -459 -209q-147 0 -269 64t-196 178q-76 -112 -196.5 -177t-266.5 -65q-158 0 -291.5 78t-210.5 211.5t-77 290.5zM356 559q0 -153 98.5 -261t247.5 -108q150 0 245 106t95 259v4q0 153 -99 262t-247 109q-150 0 -245 -107.5t-95 -259.5v-4zM1288 637h592 q-13 135 -89.5 220t-203.5 85q-120 0 -201 -84t-98 -221z" />
<glyph unicode="&#x178;" horiz-adv-x="1542" d="M49 1491h297l426 -670l432 670h289l-596 -897v-594h-252v588zM426 1612v231h258v-231h-258zM860 1612v231h256v-231h-256z" />
<glyph unicode="&#x2c6;" horiz-adv-x="1081" d="M182 1268l244 307h229l246 -307h-199l-163 141l-164 -141h-193z" />
<glyph unicode="&#x2dc;" horiz-adv-x="1081" d="M145 1288q35 134 88.5 197t145.5 63q70 0 174 -45q96 -39 129 -39q44 0 68 23.5t49 81.5l137 -41q-35 -134 -88.5 -197t-145.5 -63q-70 0 -174 45q-96 39 -129 39q-43 0 -67 -23.5t-49 -81.5z" />
<glyph unicode="&#x2000;" horiz-adv-x="971" />
<glyph unicode="&#x2001;" horiz-adv-x="1942" />
<glyph unicode="&#x2002;" horiz-adv-x="971" />
<glyph unicode="&#x2003;" horiz-adv-x="1942" />
<glyph unicode="&#x2004;" horiz-adv-x="647" />
<glyph unicode="&#x2005;" horiz-adv-x="485" />
<glyph unicode="&#x2006;" horiz-adv-x="323" />
<glyph unicode="&#x2007;" horiz-adv-x="323" />
<glyph unicode="&#x2008;" horiz-adv-x="242" />
<glyph unicode="&#x2009;" horiz-adv-x="388" />
<glyph unicode="&#x200a;" horiz-adv-x="107" />
<glyph unicode="&#x2010;" horiz-adv-x="884" d="M129 528v244h627v-244h-627z" />
<glyph unicode="&#x2011;" horiz-adv-x="884" d="M129 528v244h627v-244h-627z" />
<glyph unicode="&#x2012;" horiz-adv-x="884" d="M129 528v244h627v-244h-627z" />
<glyph unicode="&#x2013;" horiz-adv-x="1140" d="M129 532v236h883v-236h-883z" />
<glyph unicode="&#x2014;" horiz-adv-x="1929" d="M129 532v236h1671v-236h-1671z" />
<glyph unicode="&#x2018;" horiz-adv-x="583" d="M145 913v242q0 168 78.5 249.5t239.5 96.5l26 -104q-190 -40 -178 -199h107v-285h-273z" />
<glyph unicode="&#x2019;" horiz-adv-x="583" d="M94 1008q190 40 178 198h-106v285h272v-242q0 -168 -77.5 -250.5t-239.5 -97.5z" />
<glyph unicode="&#x201a;" horiz-adv-x="583" d="M84 -199q190 40 178 199h-106v285h272v-242q0 -168 -78.5 -250t-238.5 -96z" />
<glyph unicode="&#x201c;" horiz-adv-x="1069" d="M145 913v242q0 168 78.5 249.5t239.5 96.5l26 -104q-190 -40 -178 -199h107v-285h-273zM631 913v242q0 168 78 249.5t239 96.5l27 -104q-191 -41 -176 -199h104v-285h-272z" />
<glyph unicode="&#x201d;" horiz-adv-x="1069" d="M94 1008q190 40 178 198h-106v285h272v-242q0 -168 -77.5 -250.5t-239.5 -97.5zM580 1008q190 40 178 198h-107v285h275v-242q0 -168 -79 -250.5t-241 -97.5z" />
<glyph unicode="&#x201e;" horiz-adv-x="1069" d="M84 -199q190 40 178 199h-106v285h272v-242q0 -168 -78.5 -250t-238.5 -96zM569 -199q191 41 179 199h-107v285h274v-242q0 -168 -78.5 -250t-240.5 -96z" />
<glyph unicode="&#x2022;" horiz-adv-x="1058" d="M231 748v4q0 123 88 210t211 87q121 0 209 -87.5t88 -209.5v-4q0 -123 -87 -210t-210 -87q-124 0 -211.5 87t-87.5 210z" />
<glyph unicode="&#x2026;" horiz-adv-x="1685" d="M156 0v279h266v-279h-266zM711 0v279h266v-279h-266zM1264 0v279h268v-279h-268z" />
<glyph unicode="&#x202f;" horiz-adv-x="388" />
<glyph unicode="&#x2039;" horiz-adv-x="763" d="M102 553v16l367 463l174 -90l-268 -379l268 -381l-174 -92z" />
<glyph unicode="&#x203a;" horiz-adv-x="763" d="M121 180l268 379l-268 381l176 92l365 -463v-16l-365 -463z" />
<glyph unicode="&#x205f;" horiz-adv-x="485" />
<glyph unicode="&#x20ac;" horiz-adv-x="1550" d="M121 483v176h164q-2 27 -2 84v2q0 66 4 99h-166v176h198q65 223 225 360t380 136q181 0 302.5 -73t215.5 -208l-191 -141q-73 103 -148.5 150.5t-184.5 47.5q-116 0 -204.5 -72.5t-135.5 -199.5h471v-176h-508q-4 -31 -4 -96v-3q0 -57 2 -86h510v-176h-476 q45 -134 139.5 -209.5t221.5 -74.5q103 0 178.5 51.5t153.5 157.5l180 -132q-99 -145 -221.5 -223t-292.5 -78q-230 0 -393 138t-226 370h-192z" />
<glyph unicode="&#x2122;" horiz-adv-x="1486" d="M63 1380v111h529v-111h-203v-544h-123v544h-203zM733 836v655h131l201 -315l203 315h127v-655h-119v471l-207 -320h-10l-207 320v-471h-119z" />
<glyph unicode="&#x25fc;" horiz-adv-x="1126" d="M0 0v1126h1126v-1126h-1126z" />
<glyph unicode="&#xfb01;" horiz-adv-x="1419" d="M88 909v207h141v84q0 187 95 279q88 88 249 88q115 0 207 -29v-209q-89 27 -153 27q-152 0 -152 -176v-66h301v-205h-299v-909h-248v909h-141zM975 1303v237h268v-237h-268zM985 0v1122h248v-1122h-248z" />
<glyph unicode="&#xfb02;" horiz-adv-x="1419" d="M88 909v207h141v84q0 187 95 279q88 88 249 88q115 0 207 -29v-209q-89 27 -153 27q-152 0 -152 -176v-66h301v-205h-299v-909h-248v909h-141zM985 0v1554h248v-1554h-248z" />
<glyph unicode="&#xfb03;" horiz-adv-x="2217" d="M88 909v207h141v84q0 187 95 279q88 88 249 88q115 0 207 -29v-209q-89 27 -153 27q-152 0 -152 -176v-66h301v-205h-299v-909h-248v909h-141zM887 909v207h141v84q0 188 94 279q88 88 250 88q115 0 207 -29v-209q-89 27 -154 27q-151 0 -151 -176v-66h301v-205h-299 v-909h-248v909h-141zM1774 1303v237h268v-237h-268zM1784 0v1122h248v-1122h-248z" />
<glyph unicode="&#xfb04;" horiz-adv-x="2217" d="M88 909v207h141v84q0 187 95 279q88 88 249 88q115 0 207 -29v-209q-89 27 -153 27q-152 0 -152 -176v-66h301v-205h-299v-909h-248v909h-141zM887 909v207h141v84q0 188 94 279q88 88 250 88q115 0 207 -29v-209q-89 27 -154 27q-151 0 -151 -176v-66h301v-205h-299 v-909h-248v909h-141zM1784 0v1554h248v-1554h-248z" />
</font>
</defs>
</svg>
