<?xml version="1.0" standalone="no"?>
<!DOCTYPE svg PUBLIC "-//W3C//DTD SVG 1.1//EN" "http://www.w3.org/Graphics/SVG/1.1/DTD/svg11.dtd" >
<svg xmlns="http://www.w3.org/2000/svg">
<metadata></metadata>
<defs>
<font id="gotham_ssmblack" horiz-adv-x="1361" >
<font-face units-per-em="2048" ascent="1638" descent="-410" />
<missing-glyph horiz-adv-x="616" />
<glyph horiz-adv-x="0" />
<glyph horiz-adv-x="682" />
<glyph unicode=" "  horiz-adv-x="616" />
<glyph unicode="&#x09;" horiz-adv-x="616" />
<glyph unicode="&#xa0;" horiz-adv-x="616" />
<glyph unicode="!" horiz-adv-x="706" d="M131 1337v154h444v-154l-120 -848h-203zM152 0v358h403v-358h-403z" />
<glyph unicode="&#x22;" horiz-adv-x="1153" d="M90 743l47 748h418v-10l-262 -738h-203zM629 743l45 748h418v-10l-263 -738h-200z" />
<glyph unicode="#" horiz-adv-x="1517" d="M74 295v328h221l43 254h-193v329h248l49 285h303l-49 -285h279l49 285h303l-49 -285h166v-329h-223l-43 -254h194v-328h-252l-49 -295h-303l49 295h-276l-52 -295h-301l50 295h-164zM584 610h299l47 279h-297z" />
<glyph unicode="$" horiz-adv-x="1425" d="M70 213l186 274q202 -142 385 -174v275q-263 63 -383.5 165.5t-120.5 293.5v4q0 187 132 305t364 135v123h223v-127q233 -28 436 -164l-166 -279q-136 91 -282 127v-264q259 -62 379 -168t120 -293v-6q0 -187 -132.5 -301.5t-358.5 -136.5v-211h-221v213 q-322 36 -561 209zM498 1075q0 -45 31.5 -75t113.5 -54v246q-74 -6 -109.5 -36t-35.5 -77v-4zM842 301q145 15 145 115v4q0 47 -31 76t-114 53v-248z" />
<glyph unicode="%" horiz-adv-x="1912" d="M86 1110v4q0 168 106.5 282.5t276.5 114.5q167 0 273 -114t106 -279v-4q0 -166 -108 -281.5t-275 -115.5q-166 0 -272.5 114t-106.5 279zM248 0l620 803l516 688h281l-625 -809l-512 -682h-280zM340 1114q0 -72 37 -122t92 -50q56 0 90.5 48t34.5 120v4q0 73 -36.5 122.5 t-92.5 49.5q-57 0 -91 -48t-34 -120v-4zM1067 373v4q0 168 106 282.5t275 114.5q168 0 273.5 -114t105.5 -279v-4q0 -166 -107 -281.5t-274 -115.5t-273 114t-106 279zM1319 377q0 -72 37 -122t92 -50q56 0 91.5 48t35.5 120v4q0 72 -37 122t-92 50q-57 0 -92 -48t-35 -120 v-4z" />
<glyph unicode="&#x26;" horiz-adv-x="1503" d="M59 406v6q0 278 299 413q-98 137 -98 289v4q0 167 127 284.5t336 117.5q197 0 317.5 -108t120.5 -273v-4q0 -134 -78 -230.5t-217 -156.5l172 -173q67 98 142 242l266 -137q-98 -181 -197 -313l205 -203l-270 -195l-158 160q-201 -154 -442 -154q-229 0 -377 117 t-148 314zM455 426q0 -69 51 -111.5t131 -42.5q86 0 184 68l-254 258q-112 -63 -112 -168v-4zM598 1102q0 -78 80 -174q85 36 125.5 80.5t40.5 105.5v4q0 57 -33.5 91t-87.5 34q-56 0 -90.5 -38t-34.5 -99v-4z" />
<glyph unicode="'" horiz-adv-x="622" d="M90 743l47 748h424v-10l-262 -738h-209z" />
<glyph unicode="(" horiz-adv-x="964" d="M109 610v2q0 309 154 529.5t460 382.5l164 -244q-210 -147 -304 -303t-94 -367v-2q0 -208 94.5 -364.5t303.5 -300.5l-164 -244q-307 164 -460.5 382.5t-153.5 528.5z" />
<glyph unicode=")" horiz-adv-x="964" d="M78 -57q209 146 303 301.5t94 365.5v2q0 209 -94.5 367t-302.5 301l162 244q152 -81 264 -172.5t192 -203t120 -245.5t40 -293v-2q0 -208 -72.5 -377t-206.5 -297t-337 -235z" />
<glyph unicode="*" horiz-adv-x="923" d="M78 1020l264 96l-264 96l110 189l215 -182l-49 276h215l-49 -276l215 182l111 -189l-264 -96l264 -96l-111 -189l-215 181l49 -277h-215l49 277l-215 -181z" />
<glyph unicode="+" horiz-adv-x="1380" d="M135 578v344h377v374h356v-374h377v-344h-377v-375h-356v375h-377z" />
<glyph unicode="," horiz-adv-x="622" d="M53 -199q108 12 162.5 64t50.5 139h-157v399h405v-327q0 -222 -110 -321t-318 -105z" />
<glyph unicode="-" horiz-adv-x="884" d="M98 492v346h690v-346h-690z" />
<glyph unicode="." horiz-adv-x="622" d="M109 0v401h405v-401h-405z" />
<glyph unicode="/" horiz-adv-x="1153" d="M-68 -272l942 1972h318l-942 -1972h-318z" />
<glyph unicode="0" horiz-adv-x="1570" d="M100 741v4q0 159 49 300t137 246.5t218 167t284 61.5q203 0 360 -104.5t239.5 -279t82.5 -386.5v-5q0 -158 -49 -299.5t-136.5 -246.5t-217.5 -166.5t-283 -61.5q-154 0 -283.5 61t-216.5 165t-135.5 244.5t-48.5 299.5zM500 745q0 -186 79.5 -304.5t208.5 -118.5 q128 0 205.5 117t77.5 302v4q0 184 -80 304t-207 120q-128 0 -206 -116.5t-78 -302.5v-5z" />
<glyph unicode="1" horiz-adv-x="915" d="M33 1376l434 125h285v-1501h-390v1128l-253 -61z" />
<glyph unicode="2" horiz-adv-x="1345" d="M86 0v301l545 422q114 91 160.5 153.5t46.5 133.5q0 74 -47.5 116.5t-126.5 42.5q-76 0 -142 -44.5t-157 -149.5l-269 223q127 165 260.5 241.5t335.5 76.5q242 0 392.5 -130.5t150.5 -341.5v-4q0 -89 -21.5 -160t-71.5 -135.5t-107.5 -116t-153.5 -122.5l-254 -180h622 v-326h-1163z" />
<glyph unicode="3" horiz-adv-x="1339" d="M55 233l254 252q161 -172 357 -172q89 0 141.5 42.5t52.5 113.5v4q0 77 -66 119.5t-188 42.5h-166l-57 213l346 319h-573v324h1063v-285l-361 -317q387 -83 387 -420v-4q0 -221 -158 -357.5t-407 -136.5q-391 0 -625 262z" />
<glyph unicode="4" horiz-adv-x="1484" d="M45 575l782 926h387v-905h191v-299h-191v-297h-380v297h-725zM469 594h365v436z" />
<glyph unicode="5" horiz-adv-x="1357" d="M59 205l230 268q189 -162 360 -162q104 0 164.5 49t60.5 134v4q0 82 -63 130t-166 48q-116 0 -239 -72l-236 135l43 752h981v-330h-664l-14 -233q115 49 232 49q104 0 195 -28.5t162.5 -85t113 -149.5t41.5 -212v-4q0 -243 -167 -385t-438 -142q-186 0 -329.5 60 t-266.5 174z" />
<glyph unicode="6" horiz-adv-x="1425" d="M100 698v4q0 176 43 323.5t126 258.5t215.5 173.5t301.5 62.5q148 0 264 -40.5t226 -123.5l-191 -283q-75 57 -143.5 85t-153.5 28q-62 0 -112 -22.5t-80 -56.5t-51 -79.5t-30.5 -86t-12.5 -81.5h2q137 113 319 113q101 0 191 -31t158.5 -88t108.5 -146.5t40 -199.5v-6 q0 -159 -79 -281t-212.5 -186t-296.5 -64q-282 0 -450 168q-183 183 -183 559zM496 483q0 -85 61 -141.5t160 -56.5q101 0 159 54.5t58 141.5v4q0 86 -60 141.5t-161 55.5q-100 0 -158.5 -54.5t-58.5 -140.5v-4z" />
<glyph unicode="7" horiz-adv-x="1327" d="M115 1157v334h1134v-299l-661 -1192h-438l657 1157h-692z" />
<glyph unicode="8" horiz-adv-x="1357" d="M74 410v4q0 132 63.5 218t188.5 142q-201 110 -201 324v4q0 179 154.5 296.5t400.5 117.5q245 0 399 -117t154 -297v-4q0 -214 -201 -324q123 -60 187.5 -143t64.5 -211v-4q0 -200 -168.5 -320.5t-435.5 -120.5q-174 0 -312 54.5t-216 154t-78 226.5zM455 446 q0 -71 61 -120.5t164 -49.5q102 0 162.5 49.5t60.5 120.5v5q0 76 -62 121.5t-161 45.5t-162 -45.5t-63 -121.5v-5zM489 1053q0 -73 53 -120.5t138 -47.5t136.5 47.5t51.5 120.5v4q0 66 -51.5 113t-136.5 47q-86 0 -138.5 -46.5t-52.5 -113.5v-4z" />
<glyph unicode="9" horiz-adv-x="1425" d="M104 977v4q0 159 76.5 282.5t210.5 190t303 66.5q155 0 260 -41t193 -129q178 -183 178 -555v-4q0 -245 -77.5 -428.5t-232.5 -287.5t-372 -104q-290 0 -514 176l190 279q153 -121 320 -121q63 0 112.5 21.5t79.5 54t51.5 77.5t30.5 83.5t13 79.5h-2q-126 -117 -312 -117 q-225 0 -366.5 128t-141.5 345zM492 997q0 -90 60.5 -146t160.5 -56q101 0 160 56t59 144v4q0 91 -61 149t-162 58t-159 -57t-58 -148v-4z" />
<glyph unicode=":" horiz-adv-x="643" d="M119 0v401h405v-401h-405zM119 750v401h405v-401h-405z" />
<glyph unicode=";" horiz-adv-x="643" d="M63 -203q108 12 162.5 64t50.5 139h-157v401h405v-329q0 -220 -110 -320t-318 -106zM119 750v401h405v-401h-405z" />
<glyph unicode="&#x3c;" horiz-adv-x="1380" d="M145 569v359l1053 428v-361l-702 -245l702 -246v-363z" />
<glyph unicode="=" horiz-adv-x="1380" d="M147 297v340h1086v-340h-1086zM147 862v340h1086v-340h-1086z" />
<glyph unicode="&#x3e;" horiz-adv-x="1380" d="M182 141v361l701 246l-701 245v363l1053 -428v-359z" />
<glyph unicode="?" horiz-adv-x="1169" d="M33 1288q222 225 547 225q237 0 382.5 -120t145.5 -326v-4q0 -97 -31 -172.5t-89.5 -126.5t-130 -83.5t-165.5 -55.5l-24 -136h-250l-53 355l16 16q183 13 262.5 57t79.5 119v4q0 57 -44.5 90t-123.5 33q-154 0 -311 -141zM334 0v358h405v-358h-405z" />
<glyph unicode="@" horiz-adv-x="2078" d="M109 584q0 190 72.5 362.5t197 298.5t300 200.5t372.5 74.5q154 0 296.5 -44.5t254 -123.5t195.5 -182.5t128.5 -228t44.5 -253.5q0 -137 -37 -247t-100 -177.5t-142.5 -103t-168.5 -35.5q-230 0 -328 154q-136 -150 -313 -150q-169 0 -280.5 117t-111.5 307 q0 148 65.5 275t175 200.5t233.5 73.5q183 0 288 -154l25 125l313 -49l-98 -553q-8 -41 -8 -88q0 -56 37.5 -91.5t103.5 -35.5q111 0 183.5 114t72.5 318q0 146 -62.5 282t-170 238.5t-263.5 164t-333 61.5q-182 0 -341.5 -67t-271 -181t-175.5 -270.5t-64 -331.5 q0 -176 63.5 -331.5t175.5 -268.5t273 -178.5t348 -65.5q153 0 275 35t247 108l41 -67q-262 -160 -563 -160q-202 0 -380 73.5t-302.5 198.5t-196 295.5t-71.5 360.5zM815 575q0 -81 46 -127.5t120 -46.5q77 0 137 60q78 78 78 198q0 77 -47 123.5t-117 46.5q-79 0 -141 -59 q-76 -76 -76 -195z" />
<glyph unicode="A" horiz-adv-x="1708" d="M29 0l635 1501h378l635 -1501h-422l-112 281h-588l-113 -281h-413zM676 596h346l-172 434z" />
<glyph unicode="B" horiz-adv-x="1542" d="M150 0v1491h749q271 0 404 -133q98 -98 98 -244v-6q0 -229 -225 -328q70 -25 122 -56t92 -74t60 -101.5t20 -132.5v-4q0 -194 -150 -303t-415 -109h-755zM537 324h331q99 0 152 36t53 105v4q0 65 -52.5 102t-156.5 37h-327v-284zM537 895h268q205 0 205 135v4 q0 65 -50 99t-145 34h-278v-272z" />
<glyph unicode="C" horiz-adv-x="1574" d="M96 741v4q0 214 100.5 391t281 280.5t403.5 103.5q395 0 622 -293l-291 -242q-73 84 -153.5 129t-181.5 45q-162 0 -266.5 -118.5t-104.5 -290.5v-5q0 -176 104.5 -294.5t266.5 -118.5q111 0 189.5 45t156.5 135l290 -219q-119 -155 -271 -238.5t-378 -83.5 q-212 0 -387.5 99.5t-278 276.5t-102.5 394z" />
<glyph unicode="D" horiz-adv-x="1654" d="M150 0v1491h577q191 0 347.5 -55t261.5 -153t162.5 -233.5t57.5 -295.5v-4q0 -160 -57.5 -297.5t-163.5 -238t-264 -157.5t-350 -57h-571zM545 352h186q191 0 305.5 104t114.5 285v4q0 183 -114.5 288.5t-305.5 105.5h-186v-787z" />
<glyph unicode="E" horiz-adv-x="1439" d="M150 0v1491h1183v-338h-792v-244h712v-317h-712v-254h802v-338h-1193z" />
<glyph unicode="F" horiz-adv-x="1400" d="M150 0v1491h1179v-350h-784v-267h706v-333h-706v-541h-395z" />
<glyph unicode="G" horiz-adv-x="1660" d="M96 741v4q0 160 60.5 303t165.5 247t254 164.5t319 60.5q189 0 332.5 -53.5t267.5 -159.5l-235 -285q-88 72 -172.5 107.5t-194.5 35.5q-164 0 -276.5 -122.5t-112.5 -297.5v-4q0 -187 115 -306.5t296 -119.5q154 0 254 68v186h-299v299h676v-665q-276 -232 -645 -232 q-230 0 -413.5 97.5t-287.5 274t-104 398.5z" />
<glyph unicode="H" horiz-adv-x="1636" d="M150 0v1491h395v-565h547v565h395v-1491h-395v573h-547v-573h-395z" />
<glyph unicode="I" horiz-adv-x="716" d="M160 0v1491h397v-1491h-397z" />
<glyph unicode="J" horiz-adv-x="1218" d="M20 221l254 248q60 -71 117 -106t125 -35q83 0 129.5 55t46.5 162v946h395v-952q0 -271 -145 -416q-148 -148 -405 -148q-333 0 -517 246z" />
<glyph unicode="K" horiz-adv-x="1570" d="M150 0v1491h395v-614l530 614h473l-573 -639l594 -852h-475l-394 569l-155 -168v-401h-395z" />
<glyph unicode="L" horiz-adv-x="1331" d="M150 0v1491h395v-1141h727v-350h-1122z" />
<glyph unicode="M" horiz-adv-x="1865" d="M150 0v1491h419l363 -588l364 588h420v-1491h-395v881l-389 -596h-8l-385 592v-877h-389z" />
<glyph unicode="N" horiz-adv-x="1689" d="M150 0v1491h368l631 -813v813h391v-1491h-344l-655 844v-844h-391z" />
<glyph unicode="O" horiz-adv-x="1794" d="M96 741v4q0 158 61 301t167 247.5t256 165.5t319 61q170 0 319 -60.5t254 -163.5t165.5 -245t60.5 -301v-5q0 -158 -61 -301t-167 -247t-255.5 -165t-319.5 -61t-319 60.5t-254 163.5t-165.5 245t-60.5 301zM504 745q0 -112 49 -206t140 -151.5t206 -57.5 q173 0 282 119.5t109 291.5v4q0 112 -49 206.5t-140 152t-206 57.5q-171 0 -281 -120t-110 -291v-5z" />
<glyph unicode="P" horiz-adv-x="1447" d="M150 0v1491h634q280 0 444.5 -139.5t164.5 -382.5v-4q0 -170 -83.5 -293t-225 -182.5t-324.5 -59.5h-215v-430h-395zM545 748h211q111 0 176 55t65 145v4q0 98 -64.5 149.5t-180.5 51.5h-207v-405z" />
<glyph unicode="Q" horiz-adv-x="1794" d="M96 741v4q0 158 61 301t167 247.5t256 165.5t319 61q170 0 319 -60.5t254 -163.5t165.5 -245t60.5 -301v-5q0 -236 -131 -428l153 -129l-209 -233l-165 147q-198 -131 -451 -131q-170 0 -319 60.5t-254 163.5t-165.5 245t-60.5 301zM504 741q0 -112 49 -206.5t140 -152.5 t206 -58q87 0 158 30l-211 183l207 233l213 -190q26 80 26 159v4q0 112 -49.5 207t-141 153t-206.5 58q-113 0 -203.5 -57.5t-139 -152t-48.5 -206.5v-4z" />
<glyph unicode="R" horiz-adv-x="1550" d="M150 0v1491h700q318 0 475 -160q131 -128 131 -344v-6q0 -167 -82 -282.5t-227 -176.5l358 -522h-458l-304 457h-198v-457h-395zM545 772h286q106 0 167 50t61 134v5q0 91 -61.5 138.5t-170.5 47.5h-282v-375z" />
<glyph unicode="S" horiz-adv-x="1400" d="M39 219l223 266q224 -178 475 -178q87 0 134 29t47 82v4q0 52 -53 83.5t-210 69.5q-74 17 -130 32.5t-116 38t-103 47t-83 59t-64 75.5t-38.5 95t-14.5 118v4q0 208 155 340t413 132q352 0 600 -197l-199 -283q-208 148 -411 148q-75 0 -116.5 -29t-41.5 -74v-4 q0 -56 53 -86.5t219 -70.5q106 -23 185 -49.5t148 -65t113 -86.5t68.5 -113.5t24.5 -146.5v-4q0 -224 -162 -352t-430 -128q-196 0 -373.5 62t-312.5 182z" />
<glyph unicode="T" horiz-adv-x="1417" d="M63 1141v350h1291v-350h-447v-1141h-397v1141h-447z" />
<glyph unicode="U" horiz-adv-x="1630" d="M131 651v840h399v-832q0 -162 75.5 -244.5t209.5 -82.5t209.5 79.5t75.5 235.5v844h399v-829q0 -346 -182 -517.5t-506 -171.5q-322 0 -501 170t-179 508z" />
<glyph unicode="V" horiz-adv-x="1630" d="M29 1491h440l350 -965l350 965h433l-605 -1501h-364z" />
<glyph unicode="W" horiz-adv-x="2398" d="M47 1491h420l268 -893l297 897h342l297 -897l268 893h412l-500 -1501h-346l-307 880l-305 -880h-346z" />
<glyph unicode="X" horiz-adv-x="1574" d="M41 0l512 758l-492 733h457l273 -434l278 434h444l-491 -727l514 -764h-457l-295 463l-299 -463h-444z" />
<glyph unicode="Y" horiz-adv-x="1552" d="M10 1491h453l315 -555l322 555h444l-569 -920v-571h-395v563z" />
<glyph unicode="Z" horiz-adv-x="1507" d="M104 0v289l762 866h-737v336h1276v-289l-762 -866h762v-336h-1301z" />
<glyph unicode="[" horiz-adv-x="993" d="M158 -276v1767h725v-270h-375v-1227h375v-270h-725z" />
<glyph unicode="\" horiz-adv-x="1153" d="M-39 1700h318l944 -1972h-318z" />
<glyph unicode="]" horiz-adv-x="993" d="M111 -6h374v1227h-374v270h727v-1767h-727v270z" />
<glyph unicode="^" horiz-adv-x="1081" d="M100 1051l310 438h262l309 -438h-274l-168 215l-168 -215h-271z" />
<glyph unicode="_" horiz-adv-x="1294" d="M4 -94h1286v-246h-1286v246z" />
<glyph unicode="`" horiz-adv-x="1081" d="M207 1524l354 121l223 -390h-272z" />
<glyph unicode="a" horiz-adv-x="1290" d="M66 330v4q0 177 121.5 269.5t330.5 92.5q153 0 279 -45v19q0 192 -234 192q-160 0 -317 -63l-84 278q214 88 463 88q291 0 428 -137q123 -123 123 -366v-662h-381v121q-133 -146 -342 -146q-169 0 -278 94.5t-109 260.5zM438 350q0 -59 42 -94t108 -35q94 0 153.5 53.5 t59.5 139.5v53q-79 35 -168 35q-91 0 -143 -40t-52 -108v-4z" />
<glyph unicode="b" horiz-adv-x="1454" d="M125 0v1554h387v-559q67 84 149.5 131.5t200.5 47.5q102 0 194.5 -41.5t163.5 -116t112.5 -188t41.5 -248.5v-5q0 -137 -41.5 -252t-111.5 -190t-162.5 -116.5t-194.5 -41.5q-120 0 -203 44.5t-149 121.5v-141h-387zM506 573q0 -118 70.5 -195t173.5 -77 q102 0 172.5 76.5t70.5 195.5v5q0 118 -70.5 195t-172.5 77q-103 0 -173.5 -77t-70.5 -195v-5z" />
<glyph unicode="c" horiz-adv-x="1228" d="M76 569v4q0 121 45.5 231t125 192t195 130t248.5 48q318 0 484 -244l-259 -207q-48 61 -100 92t-123 31q-103 0 -170 -78t-67 -190v-5q0 -117 67.5 -194.5t173.5 -77.5q71 0 123.5 29.5t106.5 89.5l254 -195q-85 -122 -205 -187t-297 -65q-170 0 -309 81t-216 217 t-77 298z" />
<glyph unicode="d" horiz-adv-x="1454" d="M80 571v4q0 137 41.5 251.5t111.5 189.5t162.5 116.5t194.5 41.5q211 0 354 -166v546h387v-1554h-387v156q-45 -55 -89 -91.5t-112.5 -63t-150.5 -26.5q-102 0 -194.5 41.5t-163.5 116t-112.5 188.5t-41.5 250zM461 573q0 -119 71.5 -195.5t174.5 -76.5t173 76t70 196v5 q0 118 -70 195t-173 77t-174.5 -76.5t-71.5 -195.5v-5z" />
<glyph unicode="e" horiz-adv-x="1308" d="M76 569v4q0 166 73 303t206.5 217.5t299.5 80.5q143 0 255 -50.5t181 -138.5t104.5 -199.5t35.5 -240.5q0 -28 -4 -82h-776q24 -96 91 -146.5t165 -50.5q74 0 135 28t125 89l215 -180q-184 -230 -492 -230q-270 0 -442 166t-172 430zM446 670h418q-12 99 -67 157t-142 58 q-83 0 -138.5 -58.5t-70.5 -156.5z" />
<glyph unicode="f" horiz-adv-x="868" d="M57 836v307h136v35q0 196 96 295q96 96 295 96q151 0 256 -31v-283q-84 25 -150 25q-117 0 -117 -113v-30h265v-301h-256v-836h-389v836h-136z" />
<glyph unicode="g" horiz-adv-x="1454" d="M80 635v4q0 122 41 224t110 169.5t159.5 104.5t189.5 37q121 0 205 -42t159 -120v139h387v-879q0 -309 -147 -456q-160 -160 -506 -160q-312 0 -561 129l127 262q192 -106 399 -106q305 0 305 288v47q-70 -84 -154.5 -130t-201.5 -46q-105 0 -198.5 37t-163 104.5 t-110 169.5t-40.5 224zM461 633q0 -101 69 -165.5t175 -64.5q107 0 176 65.5t69 166.5v4q0 100 -69.5 165.5t-175.5 65.5t-175 -66t-69 -167v-4z" />
<glyph unicode="h" d="M125 0v1554h387v-563q141 183 342 183q184 0 288.5 -113.5t104.5 -310.5v-750h-389v627q0 97 -45.5 149.5t-124.5 52.5t-127.5 -53t-48.5 -149v-627h-387z" />
<glyph unicode="i" horiz-adv-x="657" d="M127 1260v294h403v-294h-403zM135 0v1151h387v-1151h-387z" />
<glyph unicode="j" horiz-adv-x="659" d="M-41 -68q40 -4 57 -4q59 0 89 32t30 103v1088h387v-1106q0 -207 -101 -300t-300 -93q-64 0 -162 16v264zM127 1260v294h403v-294h-403z" />
<glyph unicode="k" horiz-adv-x="1296" d="M125 0v1554h387v-796l328 393h442l-408 -459l420 -692h-432l-244 410l-106 -123v-287h-387z" />
<glyph unicode="l" horiz-adv-x="657" d="M135 0v1554h387v-1554h-387z" />
<glyph unicode="m" horiz-adv-x="2074" d="M125 0v1151h387v-160q141 183 342 183q115 0 199.5 -47.5t130.5 -137.5q161 185 383 185q184 0 288.5 -110t104.5 -310v-754h-389v629q0 97 -44 148.5t-120 51.5q-77 0 -124.5 -52t-47.5 -148v-629h-387v629q0 97 -44 148.5t-122 51.5q-77 0 -123.5 -52t-46.5 -148v-629 h-387z" />
<glyph unicode="n" d="M125 0v1151h387v-162q146 185 342 185q184 0 288.5 -113.5t104.5 -310.5v-750h-389v627q0 97 -45.5 149.5t-124.5 52.5t-127.5 -53t-48.5 -149v-627h-387z" />
<glyph unicode="o" horiz-adv-x="1417" d="M76 569v4q0 122 48 232t131.5 191.5t202 129.5t253.5 48q134 0 252 -47t200.5 -127.5t130 -190t47.5 -231.5v-5q0 -122 -48 -232t-131 -191t-201.5 -129t-253.5 -48q-134 0 -252 47t-201 127.5t-130.5 190t-47.5 231.5zM455 573q0 -112 72.5 -192t183.5 -80q112 0 182 78 t70 190v4q0 113 -73 193t-183 80q-114 0 -183 -77.5t-69 -190.5v-5z" />
<glyph unicode="p" horiz-adv-x="1454" d="M125 -340v1491h387v-156q67 84 149.5 131.5t200.5 47.5q102 0 194.5 -41.5t163.5 -116t112.5 -188t41.5 -248.5v-5q0 -137 -41.5 -252t-111.5 -190t-162.5 -116.5t-194.5 -41.5q-120 0 -203 44.5t-149 121.5v-481h-387zM506 573q0 -118 70.5 -195t173.5 -77 q102 0 172.5 76.5t70.5 195.5v5q0 118 -70.5 195t-172.5 77q-103 0 -173.5 -77t-70.5 -195v-5z" />
<glyph unicode="q" horiz-adv-x="1454" d="M80 571v4q0 137 41.5 251.5t111.5 189.5t162.5 116.5t194.5 41.5q211 0 354 -166v143h387v-1491h-387v496q-45 -55 -89 -91.5t-112.5 -63t-150.5 -26.5q-102 0 -194.5 41.5t-163.5 116t-112.5 188.5t-41.5 250zM461 573q0 -119 71.5 -195.5t174.5 -76.5t173 76t70 196v5 q0 118 -70 195t-173 77t-174.5 -76.5t-71.5 -195.5v-5z" />
<glyph unicode="r" horiz-adv-x="923" d="M125 0v1151h387v-233q53 126 140 192q80 60 202 60q11 0 23 -1v-407h-31q-162 0 -248 -97t-86 -294v-371h-387z" />
<glyph unicode="s" horiz-adv-x="1105" d="M37 147l149 238q95 -65 196 -99t191 -34q111 0 111 65v5q0 37 -63 64q-31 12 -134 42q-72 19 -124.5 37.5t-106.5 48.5t-87.5 66.5t-55 90t-21.5 120.5v4q0 118 60 204t161.5 129t231.5 43q123 0 245 -35t220 -98l-136 -250q-87 51 -177 80t-156 29q-48 0 -73.5 -17 t-25.5 -44v-5q0 -32 41 -53t139 -52q11 -3 17 -5q71 -20 123.5 -39t106.5 -49.5t88 -66.5t55.5 -88t21.5 -116v-4q0 -185 -126.5 -284t-338.5 -99q-300 0 -532 172z" />
<glyph unicode="t" horiz-adv-x="925" d="M55 836v315h138v291h387v-291h268v-315h-268v-412q0 -60 26 -86.5t82 -26.5q85 0 156 39v-305q-119 -68 -277 -68q-183 0 -278.5 88t-95.5 285v486h-138z" />
<glyph unicode="u" d="M115 399v752h389v-627q0 -98 46 -150t124 -52q79 0 127.5 52.5t48.5 149.5v627h387v-1151h-387v160q-143 -185 -342 -185q-184 0 -288.5 113.5t-104.5 310.5z" />
<glyph unicode="v" horiz-adv-x="1337" d="M33 1151h409l228 -692l231 692h402l-457 -1159h-354z" />
<glyph unicode="w" horiz-adv-x="1849" d="M39 1151h383l158 -604l184 608h321l189 -610l162 606h374l-356 -1159h-336l-194 618l-199 -618h-334z" />
<glyph unicode="x" horiz-adv-x="1269" d="M31 0l391 580l-381 571h416l180 -299l180 299h410l-381 -567l391 -584h-418l-188 311l-191 -311h-409z" />
<glyph unicode="y" horiz-adv-x="1339" d="M37 1151h405l238 -713l223 713h397l-423 -1135q-73 -200 -167 -282t-259 -82q-181 0 -353 96l121 272q99 -57 168 -57q35 0 57.5 11t42.5 40z" />
<glyph unicode="z" horiz-adv-x="1216" d="M84 0v258l545 584h-525v309h1033v-258l-545 -584h545v-309h-1053z" />
<glyph unicode="{" horiz-adv-x="1060" d="M86 479v264h39q130 0 190 46t60 165q0 19 -3 79.5t-3 76.5q0 119 48.5 198t170 134t327.5 82l62 -234q-113 -26 -170 -58t-75.5 -72.5t-18.5 -110.5q0 -17 3 -72.5t3 -79.5q0 -114 -58.5 -183t-175.5 -104q117 -33 175.5 -101.5t58.5 -182.5q0 -23 -3 -78.5t-3 -73.5 q0 -70 18.5 -110.5t75.5 -73t170 -58.5l-62 -233q-206 27 -327.5 82t-170 134t-48.5 198q0 16 3 76t3 79q0 117 -60 164t-190 47h-39z" />
<glyph unicode="|" horiz-adv-x="770" d="M236 -272v1972h299v-1972h-299z" />
<glyph unicode="}" horiz-adv-x="1060" d="M82 -68q113 26 170 58.5t75.5 73t18.5 110.5q0 18 -3 73.5t-3 78.5q0 115 58.5 183t176.5 101q-118 35 -176.5 103.5t-58.5 183.5q0 24 3 79.5t3 72.5q0 70 -18.5 110.5t-75.5 72.5t-170 58l63 234q206 -27 327.5 -82t170.5 -134t49 -198q0 -16 -3 -76.5t-3 -79.5 q0 -119 59 -165t189 -46h39v-264h-39q-129 0 -188.5 -46.5t-59.5 -164.5q0 -19 3 -79t3 -76q0 -119 -49 -198t-170.5 -134t-327.5 -82z" />
<glyph unicode="~" horiz-adv-x="1093" d="M100 524q35 158 96.5 235t168.5 77q81 0 196 -48q11 -4 31 -10.5t30.5 -10t25.5 -7.5t26 -6t20 -2q42 0 65 22.5t46 77.5l190 -53q-37 -160 -98 -236t-166 -76q-71 0 -199 45q-107 39 -131 39q-43 0 -65.5 -22.5t-46.5 -77.5z" />
<glyph unicode="&#xa1;" horiz-adv-x="706" d="M131 0v154l121 847h203l120 -847v-154h-444zM152 1133v358h403v-358h-403z" />
<glyph unicode="&#xa2;" horiz-adv-x="1243" d="M82 754v4q0 165 76 299.5t214.5 214t313.5 82.5h2l27 149h239l-32 -188q168 -59 262 -195l-238 -192q-53 60 -98 84l-100 -545h2q119 19 202 121l234 -182q-176 -238 -473 -246v-2l-31 -170h-242l37 207q-177 64 -286 215.5t-109 343.5zM428 758q0 -88 31.5 -154.5 t91.5 -103.5l100 551h-2q-97 -13 -160 -97.5t-61 -191.5v-4z" />
<glyph unicode="&#xa3;" horiz-adv-x="1378" d="M109 0v240l159 59v262h-159v287h159v121q0 260 144 401q143 146 401 146q303 0 494 -222l-252 -260q-52 63 -103.5 94t-113.5 31q-76 0 -123 -47q-51 -51 -51 -145v-119h464v-287h-464v-244h628v-317h-1183z" />
<glyph unicode="&#xa5;" horiz-adv-x="1515" d="M20 1491h451l289 -504l293 504h442l-451 -682h299v-250h-391v-113h391v-247h-391v-199h-389v199h-391v247h391v113h-391v250h295z" />
<glyph unicode="&#xa7;" horiz-adv-x="1351" d="M104 725v4q0 168 193 236q-98 79 -98 209v4q0 150 125.5 244t355.5 94q154 0 285 -47.5t217 -127.5l-166 -219q-165 127 -342 127q-121 0 -121 -65v-4q0 -30 46.5 -52.5t166.5 -48.5q93 -21 159 -39.5t130.5 -46t104 -58t63.5 -73.5t24 -96v-4q0 -168 -190 -236 q45 -36 71.5 -90.5t26.5 -116.5v-4q0 -151 -125.5 -245.5t-355.5 -94.5q-154 0 -285 47t-219 128l166 219q165 -127 342 -127q121 0 121 65v4q0 32 -47 54t-164 47q-93 21 -160 40t-131.5 46t-104.5 58t-64 74t-24 95zM408 778q0 -35 51.5 -59t163.5 -51q147 -39 211 -39 q51 0 80.5 20.5t29.5 57.5v6q0 35 -51.5 59t-163.5 51q-147 39 -211 39q-49 0 -79.5 -20.5t-30.5 -57.5v-6z" />
<glyph unicode="&#xa8;" horiz-adv-x="1081" d="M150 1255v299h337v-299h-337zM594 1255v299h338v-299h-338z" />
<glyph unicode="&#xa9;" horiz-adv-x="1783" d="M121 741v4q0 104 27.5 203.5t77 184.5t120.5 157t156 122.5t186 79t207 28.5q212 0 389 -104.5t278 -281.5t101 -384v-5q0 -207 -102 -385t-280 -283.5t-390 -105.5q-159 0 -302.5 61.5t-245.5 165.5t-162 246t-60 297zM211 741q0 -140 52 -266t141.5 -218t216.5 -146 t270 -54t270 55t217 147.5t142.5 219t52.5 266.5v5q0 187 -88 343.5t-244 248.5t-346 92q-191 0 -349 -93.5t-246.5 -251t-88.5 -344.5v-4zM475 752v4q0 116 54.5 212.5t154 154t223.5 57.5q219 0 342 -160l-162 -135q-81 94 -182 94q-88 0 -145.5 -64t-57.5 -157v-4 q0 -94 57.5 -158t145.5 -64q59 0 101 24.5t88 74.5l161 -123q-66 -85 -148.5 -130.5t-203.5 -45.5q-185 0 -306.5 121t-121.5 299z" />
<glyph unicode="&#xaa;" horiz-adv-x="847" d="M100 580v157h625v-157h-625zM104 1040v4q0 97 68 148t184 51q85 0 152 -24v8q0 106 -129 106q-87 0 -174 -35l-47 152q117 49 254 49q157 0 237 -74q66 -66 66 -202v-363h-209v68q-70 -80 -187 -80q-94 0 -154.5 50.5t-60.5 141.5zM311 1053q0 -32 22.5 -51t59.5 -19 q51 0 84 29t33 75v31q-59 19 -94 19q-49 0 -77 -21.5t-28 -58.5v-4z" />
<glyph unicode="&#xab;" horiz-adv-x="1368" d="M76 528v86l373 455l253 -127l-249 -371l249 -368l-253 -129zM633 561v21l399 487l254 -127l-252 -371l252 -368l-254 -129z" />
<glyph unicode="&#xad;" horiz-adv-x="884" d="M98 492v346h690v-346h-690z" />
<glyph unicode="&#xae;" horiz-adv-x="800" d="M29 1137v2q0 153 108 262.5t262 109.5q156 0 263.5 -108.5t107.5 -261.5v-2q0 -152 -108.5 -262.5t-262.5 -110.5q-155 0 -262.5 109.5t-107.5 261.5zM72 1137q0 -136 94.5 -233t232.5 -97t234 98t96 234v2q0 138 -95 235t-235 97q-137 0 -232 -98t-95 -236v-2zM233 950 v393h191q78 0 124 -34t46 -101v-2q0 -42 -22.5 -74.5t-59.5 -46.5l94 -135h-137l-76 115h-41v-115h-119zM352 1157h66q55 0 55 43v2q0 18 -14.5 30t-40.5 11h-66v-86z" />
<glyph unicode="&#xaf;" horiz-adv-x="1081" d="M145 1270v237h791v-237h-791z" />
<glyph unicode="&#xb0;" horiz-adv-x="1026" d="M129 1128v5q0 152 114.5 262t268.5 110t269.5 -110t115.5 -262v-5q0 -152 -114.5 -262t-270.5 -110q-154 0 -268.5 110t-114.5 262zM330 1128q0 -76 52.5 -129t129.5 -53t129.5 53t52.5 129v5q0 76 -53 130t-129 54t-129 -54t-53 -130v-5z" />
<glyph unicode="&#xb1;" horiz-adv-x="1380" d="M143 0v293h1094v-293h-1094zM143 801v313l383 -2l-2 363h332l-4 -363l385 2v-313l-385 2l4 -361h-332l2 361z" />
<glyph unicode="&#xb2;" horiz-adv-x="860" d="M100 1569q66 88 144.5 132t193.5 44q139 0 224.5 -71.5t85.5 -186.5q0 -87 -41.5 -149t-135.5 -132l-170 -129h353v-188h-652v180l306 240q61 48 86.5 81.5t25.5 73.5q0 38 -27 60t-69 22q-86 0 -176 -106z" />
<glyph unicode="&#xb3;" horiz-adv-x="860" d="M72 997l123 152q113 -94 219 -94q50 0 83 25.5t33 66.5q0 44 -38 68t-107 24h-100l-31 121l215 178h-338v186h604v-165l-225 -181q108 -13 175 -70.5t67 -160.5q0 -128 -91 -204.5t-239 -76.5q-209 0 -350 131z" />
<glyph unicode="&#xb4;" horiz-adv-x="1081" d="M297 1255l223 390l354 -121l-305 -269h-272z" />
<glyph unicode="&#xb5;" horiz-adv-x="1490" d="M125 -340v1491h387v-637q0 -98 46.5 -150.5t129.5 -52.5q85 0 134.5 52.5t49.5 150.5v637h388v-754q3 -56 31 -80t83 -24q32 0 70 6v-283q-82 -30 -201 -30q-222 0 -295 155q-78 -151 -237 -151q-79 0 -146 37t-102 114h-6q24 -89 34.5 -148t10.5 -134v-199h-377z" />
<glyph unicode="&#xb6;" horiz-adv-x="1282" d="M61 977v4q0 241 167 375.5t448 134.5h457v-1491h-396v473h-47q-185 0 -325 56.5t-222 171.5t-82 276z" />
<glyph unicode="&#xb7;" horiz-adv-x="622" d="M109 465v399h405v-399h-405z" />
<glyph unicode="&#xb8;" horiz-adv-x="1081" d="M246 -238l203 281h256l-150 -412z" />
<glyph unicode="&#xb9;" horiz-adv-x="700" d="M76 1642l274 95h166v-848h-225v627l-160 -52z" />
<glyph unicode="&#xba;" horiz-adv-x="847" d="M82 1169v5q0 137 98.5 232t245.5 95q146 0 242 -93.5t96 -231.5v-5q0 -138 -97.5 -232.5t-244.5 -94.5t-243.5 93.5t-96.5 231.5zM117 580v157h614v-157h-614zM289 1171q0 -62 39 -104.5t98 -42.5t95 41t36 104v5q0 62 -38 104.5t-97 42.5q-60 0 -96.5 -41t-36.5 -104v-5 z" />
<glyph unicode="&#xbb;" horiz-adv-x="1368" d="M80 199l252 370l-252 371l256 129l399 -487v-21l-399 -487zM664 199l251 370l-251 371l256 129l370 -455v-86l-370 -454z" />
<glyph unicode="&#xbc;" horiz-adv-x="1775" d="M76 1407l274 96h166v-848h-225v627l-160 -51zM266 0l543 780l469 711h176l-543 -780l-469 -711h-176zM979 344l375 500h245v-522h105v-166h-105v-160h-210v160h-383zM1167 317h226v304z" />
<glyph unicode="&#xbd;" horiz-adv-x="1775" d="M76 1407l274 96h166v-848h-225v627l-160 -51zM246 0l542 780l469 711h177l-543 -780l-469 -711h-176zM1030 680q66 88 144.5 132t193.5 44q139 0 224 -71.5t85 -186.5q0 -87 -41 -149.5t-135 -131.5l-170 -129h352v-188h-651v180l305 240q62 48 87.5 81.5t25.5 73.5 q0 38 -27 60t-69 22q-86 0 -176 -106z" />
<glyph unicode="&#xbe;" horiz-adv-x="1935" d="M76 764l123 151q113 -94 219 -94q51 0 84 25t33 67q0 44 -38.5 68.5t-107.5 24.5h-100l-31 120l215 179h-338v186h604v-166l-225 -180q108 -13 175 -71t67 -161q0 -128 -91 -204t-239 -76q-209 0 -350 131zM416 0l542 780l469 711h177l-543 -780l-469 -711h-176z M1139 344l374 500h246v-522h105v-166h-105v-160h-211v160h-383zM1327 317h225v304z" />
<glyph unicode="&#xbf;" horiz-adv-x="1169" d="M61 424v4q0 97 31 172.5t89.5 126.5t130 83.5t165.5 55.5l25 135h250l53 -354l-19 -16q-181 -13 -261.5 -57t-80.5 -119v-4q0 -57 44.5 -90t123.5 -33q157 0 314 141l209 -266q-219 -226 -545 -226q-237 0 -383 120.5t-146 326.5zM430 1133v358h406v-358h-406z" />
<glyph unicode="&#xc0;" horiz-adv-x="1708" d="M29 0l635 1501h378l635 -1501h-422l-112 281h-588l-113 -281h-413zM408 1841l364 117l236 -342h-291zM676 596h346l-172 434z" />
<glyph unicode="&#xc1;" horiz-adv-x="1708" d="M29 0l635 1501h378l635 -1501h-422l-112 281h-588l-113 -281h-413zM676 596h346l-172 434zM700 1616l236 342l364 -117l-309 -225h-291z" />
<glyph unicode="&#xc2;" horiz-adv-x="1708" d="M29 0l635 1501h378l635 -1501h-422l-112 281h-588l-113 -281h-413zM416 1610l264 317h348l264 -317h-272l-168 114l-168 -114h-268zM676 596h346l-172 434z" />
<glyph unicode="&#xc3;" horiz-adv-x="1708" d="M29 0l635 1501h378l635 -1501h-422l-112 281h-588l-113 -281h-413zM403 1653q35 157 98 234t169 77q82 0 215 -49q107 -35 133 -35q44 0 68 22.5t47 77.5l188 -53q-35 -158 -97.5 -234.5t-168.5 -76.5q-76 0 -215 47q-102 37 -133 37q-43 0 -67.5 -23t-47.5 -78zM676 596 h346l-172 434z" />
<glyph unicode="&#xc4;" horiz-adv-x="1708" d="M29 0l635 1501h378l635 -1501h-422l-112 281h-588l-113 -281h-413zM449 1616v291h342v-291h-342zM676 596h346l-172 434zM918 1616v291h342v-291h-342z" />
<glyph unicode="&#xc5;" horiz-adv-x="1708" d="M29 0l596 1411q-64 74 -64 166q0 113 85 187.5t208 74.5t208 -74.5t85 -187.5q0 -94 -66 -166l596 -1411h-422l-112 281h-588l-113 -281h-413zM676 596h346l-172 434zM705 1577q0 -57 41.5 -95t107.5 -38t108 38t42 95q0 58 -41.5 96.5t-108.5 38.5q-66 0 -107.5 -38.5 t-41.5 -96.5z" />
<glyph unicode="&#xc6;" horiz-adv-x="2271" d="M4 0l791 1491h1372v-338h-744v-244h664v-317h-664v-254h754v-338h-1141v281h-485l-148 -281h-399zM713 596h323v567h-28z" />
<glyph unicode="&#xc7;" horiz-adv-x="1574" d="M96 741v4q0 214 100.5 391t281 280.5t403.5 103.5q395 0 622 -293l-291 -242q-73 84 -153.5 129t-181.5 45q-162 0 -266.5 -118.5t-104.5 -290.5v-5q0 -176 104.5 -294.5t266.5 -118.5q111 0 189.5 45t156.5 135l290 -219q-110 -142 -245.5 -224t-329.5 -96l-123 -342 l-309 131l168 232q-255 61 -416.5 265.5t-161.5 481.5z" />
<glyph unicode="&#xc8;" horiz-adv-x="1439" d="M150 0v1491h1183v-338h-792v-244h712v-317h-712v-254h802v-338h-1193zM301 1821l365 116l235 -342h-291z" />
<glyph unicode="&#xc9;" horiz-adv-x="1439" d="M150 0v1491h1183v-338h-792v-244h712v-317h-712v-254h802v-338h-1193zM592 1595l235 342l365 -116l-309 -226h-291z" />
<glyph unicode="&#xca;" horiz-adv-x="1439" d="M150 0v1491h1183v-338h-792v-244h712v-317h-712v-254h802v-338h-1193zM307 1595l264 318h349l264 -318h-273l-168 115l-168 -115h-268z" />
<glyph unicode="&#xcb;" horiz-adv-x="1439" d="M150 0v1491h1183v-338h-792v-244h712v-317h-712v-254h802v-338h-1193zM340 1595v291h342v-291h-342zM809 1595v291h342v-291h-342z" />
<glyph unicode="&#xcc;" horiz-adv-x="716" d="M-88 1821l364 116l236 -342h-291zM160 0v1491h397v-1491h-397z" />
<glyph unicode="&#xcd;" horiz-adv-x="716" d="M160 0v1491h397v-1491h-397zM205 1595l235 342l365 -116l-309 -226h-291z" />
<glyph unicode="&#xce;" horiz-adv-x="716" d="M-80 1595l264 318h348l265 -318h-273l-168 115l-168 -115h-268zM160 0v1491h397v-1491h-397z" />
<glyph unicode="&#xcf;" horiz-adv-x="716" d="M-47 1595v291h342v-291h-342zM160 0v1491h397v-1491h-397zM422 1595v291h342v-291h-342z" />
<glyph unicode="&#xd0;" horiz-adv-x="1751" d="M78 616v269h168v606h577q191 0 348 -55t263 -153t163.5 -233.5t57.5 -295.5v-4q0 -160 -58 -297.5t-164.5 -238t-265 -157.5t-350.5 -57h-571v616h-168zM633 342h194q193 0 306.5 107t113.5 292v4q0 187 -113.5 295.5t-306.5 108.5h-194v-268h285v-263h-285v-276z" />
<glyph unicode="&#xd1;" horiz-adv-x="1689" d="M150 0v1491h368l631 -813v813h391v-1491h-344l-655 844v-844h-391zM395 1632q35 157 98 234.5t169 77.5q79 0 215 -50q104 -34 133 -34q43 0 67 22.5t47 77.5l189 -53q-35 -158 -97.5 -235t-168.5 -77q-77 0 -216 47q-102 37 -133 37q-43 0 -67 -22.5t-47 -77.5z" />
<glyph unicode="&#xd2;" horiz-adv-x="1794" d="M96 741v4q0 158 61 301t167 247.5t256 165.5t319 61q170 0 319 -60.5t254 -163.5t165.5 -245t60.5 -301v-5q0 -158 -61 -301t-167 -247t-255.5 -165t-319.5 -61t-319 60.5t-254 163.5t-165.5 245t-60.5 301zM451 1841l364 117l236 -342h-291zM504 745q0 -112 49 -206 t140 -151.5t206 -57.5q173 0 282 119.5t109 291.5v4q0 112 -49 206.5t-140 152t-206 57.5q-171 0 -281 -120t-110 -291v-5z" />
<glyph unicode="&#xd3;" horiz-adv-x="1794" d="M96 741v4q0 158 61 301t167 247.5t256 165.5t319 61q170 0 319 -60.5t254 -163.5t165.5 -245t60.5 -301v-5q0 -158 -61 -301t-167 -247t-255.5 -165t-319.5 -61t-319 60.5t-254 163.5t-165.5 245t-60.5 301zM504 745q0 -112 49 -206t140 -151.5t206 -57.5 q173 0 282 119.5t109 291.5v4q0 112 -49 206.5t-140 152t-206 57.5q-171 0 -281 -120t-110 -291v-5zM743 1616l236 342l364 -117l-309 -225h-291z" />
<glyph unicode="&#xd4;" horiz-adv-x="1794" d="M96 741v4q0 158 61 301t167 247.5t256 165.5t319 61q170 0 319 -60.5t254 -163.5t165.5 -245t60.5 -301v-5q0 -158 -61 -301t-167 -247t-255.5 -165t-319.5 -61t-319 60.5t-254 163.5t-165.5 245t-60.5 301zM459 1616l264 317h348l264 -317h-272l-168 115l-168 -115h-268 zM504 745q0 -112 49 -206t140 -151.5t206 -57.5q173 0 282 119.5t109 291.5v4q0 112 -49 206.5t-140 152t-206 57.5q-171 0 -281 -120t-110 -291v-5z" />
<glyph unicode="&#xd5;" horiz-adv-x="1794" d="M96 741v4q0 158 61 301t167 247.5t256 165.5t319 61q170 0 319 -60.5t254 -163.5t165.5 -245t60.5 -301v-5q0 -158 -61 -301t-167 -247t-255.5 -165t-319.5 -61t-319 60.5t-254 163.5t-165.5 245t-60.5 301zM446 1653q35 157 98 234t169 77q82 0 215 -49q107 -35 133 -35 q44 0 68 22.5t47 77.5l188 -53q-35 -158 -97.5 -234.5t-168.5 -76.5q-76 0 -215 47q-102 37 -133 37q-43 0 -67.5 -23t-47.5 -78zM504 745q0 -112 49 -206t140 -151.5t206 -57.5q173 0 282 119.5t109 291.5v4q0 112 -49 206.5t-140 152t-206 57.5q-171 0 -281 -120 t-110 -291v-5z" />
<glyph unicode="&#xd6;" horiz-adv-x="1794" d="M96 741v4q0 158 61 301t167 247.5t256 165.5t319 61q170 0 319 -60.5t254 -163.5t165.5 -245t60.5 -301v-5q0 -158 -61 -301t-167 -247t-255.5 -165t-319.5 -61t-319 60.5t-254 163.5t-165.5 245t-60.5 301zM492 1616v291h342v-291h-342zM504 745q0 -112 49 -206 t140 -151.5t206 -57.5q173 0 282 119.5t109 291.5v4q0 112 -49 206.5t-140 152t-206 57.5q-171 0 -281 -120t-110 -291v-5zM961 1616v291h342v-291h-342z" />
<glyph unicode="&#xd7;" horiz-adv-x="1380" d="M133 1067l240 238l319 -328l320 328l233 -232l-330 -319l330 -322l-237 -237l-322 327l-319 -327l-232 231l328 322z" />
<glyph unicode="&#xd8;" horiz-adv-x="1794" d="M80 -10l211 239q-195 214 -195 512v4q0 158 61 301t167 247.5t256 165.5t319 61q231 0 420 -111l84 92h311l-211 -241q94 -103 144.5 -233.5t50.5 -276.5v-5q0 -158 -61 -301t-167 -247t-255.5 -165t-319.5 -61q-235 0 -420 109l-82 -90h-313zM496 745q0 -120 55 -219 l526 600q-84 43 -182 43q-175 0 -287 -122.5t-112 -296.5v-5zM717 365q79 -43 182 -43q175 0 287 122.5t112 296.5v4q0 123 -57 220z" />
<glyph unicode="&#xd9;" horiz-adv-x="1630" d="M131 651v840h399v-832q0 -162 75.5 -244.5t209.5 -82.5t209.5 79.5t75.5 235.5v844h399v-829q0 -346 -182 -517.5t-506 -171.5q-322 0 -501 170t-179 508zM369 1821l364 116l236 -342h-291z" />
<glyph unicode="&#xda;" horiz-adv-x="1630" d="M131 651v840h399v-832q0 -162 75.5 -244.5t209.5 -82.5t209.5 79.5t75.5 235.5v844h399v-829q0 -346 -182 -517.5t-506 -171.5q-322 0 -501 170t-179 508zM662 1595l235 342l365 -116l-310 -226h-290z" />
<glyph unicode="&#xdb;" horiz-adv-x="1630" d="M131 651v840h399v-832q0 -162 75.5 -244.5t209.5 -82.5t209.5 79.5t75.5 235.5v844h399v-829q0 -346 -182 -517.5t-506 -171.5q-322 0 -501 170t-179 508zM377 1595l264 318h348l264 -318h-272l-168 115l-168 -115h-268z" />
<glyph unicode="&#xdc;" horiz-adv-x="1630" d="M131 651v840h399v-832q0 -162 75.5 -244.5t209.5 -82.5t209.5 79.5t75.5 235.5v844h399v-829q0 -346 -182 -517.5t-506 -171.5q-322 0 -501 170t-179 508zM410 1595v291h342v-291h-342zM879 1595v291h342v-291h-342z" />
<glyph unicode="&#xdd;" horiz-adv-x="1552" d="M10 1491h453l315 -555l322 555h444l-569 -920v-571h-395v563zM623 1595l235 342l365 -116l-310 -226h-290z" />
<glyph unicode="&#xde;" horiz-adv-x="1464" d="M150 0v1491h395v-213h239q280 0 444.5 -138.5t164.5 -379.5v-4q0 -128 -48 -230t-133 -167.5t-200 -99.5t-252 -34h-215v-225h-395zM545 547h211q111 0 176 55.5t65 145.5v4q0 97 -64.5 148.5t-180.5 51.5h-207v-405z" />
<glyph unicode="&#xdf;" d="M125 0v1030q0 251 148.5 397t418.5 146q239 0 379.5 -124t140.5 -314v-5q0 -234 -215 -348q57 -20 106 -49.5t92.5 -73t68 -105.5t24.5 -136v-4q0 -209 -174 -321t-457 -97v278q119 6 183.5 52t64.5 125v6q0 74 -68 120.5t-180 57.5v215q179 95 179 235v5 q0 72 -42.5 115.5t-109.5 43.5q-78 0 -126 -55.5t-48 -153.5v-1040h-385z" />
<glyph unicode="&#xe0;" horiz-adv-x="1290" d="M66 330v4q0 177 121.5 269.5t330.5 92.5q153 0 279 -45v19q0 192 -234 192q-160 0 -317 -63l-84 278q214 88 463 88q291 0 428 -137q123 -123 123 -366v-662h-381v121q-133 -146 -342 -146q-169 0 -278 94.5t-109 260.5zM223 1530l355 121l223 -389h-273zM438 350 q0 -59 42 -94t108 -35q94 0 153.5 53.5t59.5 139.5v53q-79 35 -168 35q-91 0 -143 -40t-52 -108v-4z" />
<glyph unicode="&#xe1;" horiz-adv-x="1290" d="M66 330v4q0 177 121.5 269.5t330.5 92.5q153 0 279 -45v19q0 192 -234 192q-160 0 -317 -63l-84 278q214 88 463 88q291 0 428 -137q123 -123 123 -366v-662h-381v121q-133 -146 -342 -146q-169 0 -278 94.5t-109 260.5zM438 350q0 -59 42 -94t108 -35q94 0 153.5 53.5 t59.5 139.5v53q-79 35 -168 35q-91 0 -143 -40t-52 -108v-4zM504 1262l223 389l354 -121l-305 -268h-272z" />
<glyph unicode="&#xe2;" horiz-adv-x="1290" d="M66 330v4q0 177 121.5 269.5t330.5 92.5q153 0 279 -45v19q0 192 -234 192q-160 0 -317 -63l-84 278q214 88 463 88q291 0 428 -137q123 -123 123 -366v-662h-381v121q-133 -146 -342 -146q-169 0 -278 94.5t-109 260.5zM219 1262l270 346h324l270 -346h-258l-176 131 l-176 -131h-254zM438 350q0 -59 42 -94t108 -35q94 0 153.5 53.5t59.5 139.5v53q-79 35 -168 35q-91 0 -143 -40t-52 -108v-4z" />
<glyph unicode="&#xe3;" horiz-adv-x="1290" d="M66 330v4q0 177 121.5 269.5t330.5 92.5q153 0 279 -45v19q0 192 -234 192q-160 0 -317 -63l-84 278q214 88 463 88q291 0 428 -137q123 -123 123 -366v-662h-381v121q-133 -146 -342 -146q-169 0 -278 94.5t-109 260.5zM213 1296q35 160 96 236t168 76q73 0 197 -45 q102 -37 133 -37q42 0 65 22.5t46 77.5l188 -53q-35 -159 -96 -235t-168 -76q-73 0 -197 45q-99 36 -133 36q-42 0 -65 -22.5t-46 -77.5zM438 350q0 -59 42 -94t108 -35q94 0 153.5 53.5t59.5 139.5v53q-79 35 -168 35q-91 0 -143 -40t-52 -108v-4z" />
<glyph unicode="&#xe4;" horiz-adv-x="1290" d="M66 330v4q0 177 121.5 269.5t330.5 92.5q153 0 279 -45v19q0 192 -234 192q-160 0 -317 -63l-84 278q214 88 463 88q291 0 428 -137q123 -123 123 -366v-662h-381v121q-133 -146 -342 -146q-169 0 -278 94.5t-109 260.5zM260 1262v299h338v-299h-338zM438 350 q0 -59 42 -94t108 -35q94 0 153.5 53.5t59.5 139.5v53q-79 35 -168 35q-91 0 -143 -40t-52 -108v-4zM705 1262v299h337v-299h-337z" />
<glyph unicode="&#xe5;" horiz-adv-x="1290" d="M66 330v4q0 177 121.5 269.5t330.5 92.5q153 0 279 -45v19q0 192 -234 192q-160 0 -317 -63l-84 278q214 88 463 88q291 0 428 -137q123 -123 123 -366v-662h-381v121q-133 -146 -342 -146q-169 0 -278 94.5t-109 260.5zM375 1528q0 112 80 189t196 77t196.5 -77 t80.5 -189q0 -110 -81 -188t-196 -78t-195.5 78t-80.5 188zM438 350q0 -59 42 -94t108 -35q94 0 153.5 53.5t59.5 139.5v53q-79 35 -168 35q-91 0 -143 -40t-52 -108v-4zM506 1528q0 -60 42.5 -103t102.5 -43t103 43t43 103q0 61 -43 104t-103 43t-102.5 -43t-42.5 -104z " />
<glyph unicode="&#xe6;" horiz-adv-x="2023" d="M66 330v4q0 177 121.5 269.5t330.5 92.5q153 0 279 -45v19q0 192 -234 192q-160 0 -317 -63l-84 278q214 88 463 88q261 0 389 -131q146 140 364 140q139 0 248.5 -50.5t178 -138t104 -200t35.5 -240.5q0 -48 -5 -82h-774q25 -96 90.5 -146.5t163.5 -50.5q74 0 135 28 t127 89l215 -180q-184 -230 -493 -230q-136 0 -251.5 45t-195.5 127q-230 -170 -462 -170q-121 0 -216.5 39.5t-153.5 121t-58 194.5zM438 350q0 -57 44 -91t110 -34q126 0 246 99q-32 79 -39 145q-83 33 -166 33q-91 0 -143 -40t-52 -108v-4zM1159 670h420 q-12 99 -67.5 157t-141.5 58q-84 0 -138.5 -58t-72.5 -157z" />
<glyph unicode="&#xe7;" horiz-adv-x="1228" d="M76 569v4q0 121 45.5 231t125 192t195 130t248.5 48q318 0 484 -244l-259 -207q-48 61 -100 92t-123 31q-103 0 -170 -78t-67 -190v-5q0 -117 67.5 -194.5t173.5 -77.5q71 0 123.5 29.5t106.5 89.5l254 -195q-77 -110 -180.5 -173.5t-249.5 -74.5l-125 -346l-310 131 l172 240q-185 59 -298 214t-113 353z" />
<glyph unicode="&#xe8;" horiz-adv-x="1308" d="M76 569v4q0 166 73 303t206.5 217.5t299.5 80.5q143 0 255 -50.5t181 -138.5t104.5 -199.5t35.5 -240.5q0 -28 -4 -82h-776q24 -96 91 -146.5t165 -50.5q74 0 135 28t125 89l215 -180q-184 -230 -492 -230q-270 0 -442 166t-172 430zM227 1530l355 121l223 -389h-273z M446 670h418q-12 99 -67 157t-142 58q-83 0 -138.5 -58.5t-70.5 -156.5z" />
<glyph unicode="&#xe9;" horiz-adv-x="1308" d="M76 569v4q0 166 73 303t206.5 217.5t299.5 80.5q143 0 255 -50.5t181 -138.5t104.5 -199.5t35.5 -240.5q0 -28 -4 -82h-776q24 -96 91 -146.5t165 -50.5q74 0 135 28t125 89l215 -180q-184 -230 -492 -230q-270 0 -442 166t-172 430zM446 670h418q-12 99 -67 157t-142 58 q-83 0 -138.5 -58.5t-70.5 -156.5zM508 1262l223 389l354 -121l-305 -268h-272z" />
<glyph unicode="&#xea;" horiz-adv-x="1308" d="M76 569v4q0 166 73 303t206.5 217.5t299.5 80.5q143 0 255 -50.5t181 -138.5t104.5 -199.5t35.5 -240.5q0 -28 -4 -82h-776q24 -96 91 -146.5t165 -50.5q74 0 135 28t125 89l215 -180q-184 -230 -492 -230q-270 0 -442 166t-172 430zM225 1262l271 346h323l271 -346h-259 l-176 131l-176 -131h-254zM446 670h418q-12 99 -67 157t-142 58q-83 0 -138.5 -58.5t-70.5 -156.5z" />
<glyph unicode="&#xeb;" horiz-adv-x="1308" d="M76 569v4q0 166 73 303t206.5 217.5t299.5 80.5q143 0 255 -50.5t181 -138.5t104.5 -199.5t35.5 -240.5q0 -28 -4 -82h-776q24 -96 91 -146.5t165 -50.5q74 0 135 28t125 89l215 -180q-184 -230 -492 -230q-270 0 -442 166t-172 430zM266 1262v299h338v-299h-338z M446 670h418q-12 99 -67 157t-142 58q-83 0 -138.5 -58.5t-70.5 -156.5zM711 1262v299h338v-299h-338z" />
<glyph unicode="&#xec;" horiz-adv-x="657" d="M-100 1524l354 121l223 -390h-272zM135 0v1151h387v-1151h-387z" />
<glyph unicode="&#xed;" horiz-adv-x="657" d="M135 0v1151h387v-1151h-387zM180 1255l223 390l355 -121l-305 -269h-273z" />
<glyph unicode="&#xee;" horiz-adv-x="657" d="M-104 1255l270 347h323l271 -347h-258l-176 131l-176 -131h-254zM135 0v1151h387v-1151h-387z" />
<glyph unicode="&#xef;" horiz-adv-x="657" d="M-63 1255v299h337v-299h-337zM135 0v1151h387v-1151h-387zM381 1255v299h338v-299h-338z" />
<glyph unicode="&#xf0;" horiz-adv-x="1419" d="M76 592v4q0 238 140.5 394.5t352.5 156.5q80 0 141 -19t128 -59q-62 94 -164 197l-260 -60l-60 176l152 35q-76 61 -189 137h494q13 -9 36 -28.5t30 -24.5l241 58l58 -175l-140 -32q303 -327 303 -705v-6q0 -189 -76 -340t-221 -239.5t-335 -88.5q-136 0 -253.5 46.5 t-200 128.5t-130 197t-47.5 247zM455 571q0 -112 72.5 -191t183.5 -79q113 0 182.5 77t69.5 189v4q0 112 -72.5 190.5t-183.5 78.5q-114 0 -183 -76.5t-69 -188.5v-4z" />
<glyph unicode="&#xf1;" d="M125 0v1151h387v-162q146 185 342 185q184 0 288.5 -113.5t104.5 -310.5v-750h-389v627q0 97 -45.5 149.5t-124.5 52.5t-127.5 -53t-48.5 -149v-627h-387zM246 1296q35 160 96 236t168 76q73 0 197 -45q102 -37 133 -37q42 0 64 22.5t46 77.5l189 -53 q-35 -159 -96.5 -235t-168.5 -76q-72 0 -196 45q-99 36 -133 36q-42 0 -65 -22.5t-46 -77.5z" />
<glyph unicode="&#xf2;" horiz-adv-x="1417" d="M76 569v4q0 122 48 232t131.5 191.5t202 129.5t253.5 48q134 0 252 -47t200.5 -127.5t130 -190t47.5 -231.5v-5q0 -122 -48 -232t-131 -191t-201.5 -129t-253.5 -48q-134 0 -252 47t-201 127.5t-130.5 190t-47.5 231.5zM279 1530l354 121l223 -389h-272zM455 573 q0 -112 72.5 -192t183.5 -80q112 0 182 78t70 190v4q0 113 -73 193t-183 80q-114 0 -183 -77.5t-69 -190.5v-5z" />
<glyph unicode="&#xf3;" horiz-adv-x="1417" d="M76 569v4q0 122 48 232t131.5 191.5t202 129.5t253.5 48q134 0 252 -47t200.5 -127.5t130 -190t47.5 -231.5v-5q0 -122 -48 -232t-131 -191t-201.5 -129t-253.5 -48q-134 0 -252 47t-201 127.5t-130.5 190t-47.5 231.5zM455 573q0 -112 72.5 -192t183.5 -80q112 0 182 78 t70 190v4q0 113 -73 193t-183 80q-114 0 -183 -77.5t-69 -190.5v-5zM561 1262l223 389l355 -121l-305 -268h-273z" />
<glyph unicode="&#xf4;" horiz-adv-x="1417" d="M76 569v4q0 122 48 232t131.5 191.5t202 129.5t253.5 48q134 0 252 -47t200.5 -127.5t130 -190t47.5 -231.5v-5q0 -122 -48 -232t-131 -191t-201.5 -129t-253.5 -48q-134 0 -252 47t-201 127.5t-130.5 190t-47.5 231.5zM276 1262l271 346h323l271 -346h-258l-176 131 l-177 -131h-254zM455 573q0 -112 72.5 -192t183.5 -80q112 0 182 78t70 190v4q0 113 -73 193t-183 80q-114 0 -183 -77.5t-69 -190.5v-5z" />
<glyph unicode="&#xf5;" horiz-adv-x="1417" d="M76 569v4q0 122 48 232t131.5 191.5t202 129.5t253.5 48q134 0 252 -47t200.5 -127.5t130 -190t47.5 -231.5v-5q0 -122 -48 -232t-131 -191t-201.5 -129t-253.5 -48q-134 0 -252 47t-201 127.5t-130.5 190t-47.5 231.5zM270 1296q35 159 96.5 235.5t168.5 76.5 q72 0 196 -45q102 -37 133 -37q42 0 65 22.5t46 77.5l188 -53q-35 -159 -96 -235t-168 -76q-73 0 -197 45q-99 36 -133 36q-42 0 -64 -22.5t-46 -77.5zM455 573q0 -112 72.5 -192t183.5 -80q112 0 182 78t70 190v4q0 113 -73 193t-183 80q-114 0 -183 -77.5t-69 -190.5v-5z " />
<glyph unicode="&#xf6;" horiz-adv-x="1417" d="M76 569v4q0 122 48 232t131.5 191.5t202 129.5t253.5 48q134 0 252 -47t200.5 -127.5t130 -190t47.5 -231.5v-5q0 -122 -48 -232t-131 -191t-201.5 -129t-253.5 -48q-134 0 -252 47t-201 127.5t-130.5 190t-47.5 231.5zM317 1262v299h338v-299h-338zM455 573 q0 -112 72.5 -192t183.5 -80q112 0 182 78t70 190v4q0 113 -73 193t-183 80q-114 0 -183 -77.5t-69 -190.5v-5zM762 1262v299h338v-299h-338z" />
<glyph unicode="&#xf7;" horiz-adv-x="1380" d="M135 594v313h1110v-313h-1110zM506 115v336h368v-336h-368zM506 1049v335h368v-335h-368z" />
<glyph unicode="&#xf8;" horiz-adv-x="1417" d="M45 -10l174 194q-143 165 -143 385v4q0 122 48 232t131.5 191.5t202 129.5t253.5 48q171 0 317 -78l62 65h282l-176 -198q145 -164 145 -385v-5q0 -122 -48 -232t-131 -191t-201.5 -129t-253.5 -48q-174 0 -320 78l-59 -61h-283zM438 573q0 -61 23 -122l348 389 q-52 20 -102 20q-120 0 -194.5 -81.5t-74.5 -200.5v-5zM608 305q47 -18 103 -18q120 0 193 81.5t73 200.5v4q0 63 -25 121z" />
<glyph unicode="&#xf9;" d="M115 399v752h389v-627q0 -98 46 -150t124 -52q79 0 127.5 52.5t48.5 149.5v627h387v-1151h-387v160q-143 -185 -342 -185q-184 0 -288.5 113.5t-104.5 310.5zM246 1524l354 121l223 -390h-272z" />
<glyph unicode="&#xfa;" d="M115 399v752h389v-627q0 -98 46 -150t124 -52q79 0 127.5 52.5t48.5 149.5v627h387v-1151h-387v160q-143 -185 -342 -185q-184 0 -288.5 113.5t-104.5 310.5zM528 1255l224 390l354 -121l-305 -269h-273z" />
<glyph unicode="&#xfb;" d="M115 399v752h389v-627q0 -98 46 -150t124 -52q79 0 127.5 52.5t48.5 149.5v627h387v-1151h-387v160q-143 -185 -342 -185q-184 0 -288.5 113.5t-104.5 310.5zM244 1255l270 347h324l270 -347h-258l-176 131l-176 -131h-254z" />
<glyph unicode="&#xfc;" d="M115 399v752h389v-627q0 -98 46 -150t124 -52q79 0 127.5 52.5t48.5 149.5v627h387v-1151h-387v160q-143 -185 -342 -185q-184 0 -288.5 113.5t-104.5 310.5zM285 1255v299h338v-299h-338zM729 1255v299h338v-299h-338z" />
<glyph unicode="&#xfd;" horiz-adv-x="1339" d="M37 1151h405l238 -713l223 713h397l-423 -1135q-73 -200 -167 -282t-259 -82q-181 0 -353 96l121 272q99 -57 168 -57q35 0 57.5 11t42.5 40zM526 1255l224 390l354 -121l-305 -269h-273z" />
<glyph unicode="&#xfe;" horiz-adv-x="1454" d="M125 -340v1894h387v-559q67 84 149.5 131.5t200.5 47.5q102 0 194.5 -41.5t163.5 -116t112.5 -188t41.5 -248.5v-5q0 -137 -41.5 -252t-111.5 -190t-162.5 -116.5t-194.5 -41.5q-120 0 -203 44.5t-149 121.5v-481h-387zM506 573q0 -118 70.5 -195t173.5 -77 q102 0 172.5 76.5t70.5 195.5v5q0 118 -70.5 195t-172.5 77q-103 0 -173.5 -77t-70.5 -195v-5z" />
<glyph unicode="&#xff;" horiz-adv-x="1339" d="M37 1151h405l238 -713l223 713h397l-423 -1135q-73 -200 -167 -282t-259 -82q-181 0 -353 96l121 272q99 -57 168 -57q35 0 57.5 11t42.5 40zM283 1255v299h338v-299h-338zM727 1255v299h338v-299h-338z" />
<glyph unicode="&#x152;" horiz-adv-x="2310" d="M96 737v4q0 161 58 298.5t164.5 237.5t265 157t350.5 57h1270v-338h-744v-244h666v-317h-666v-254h754v-338h-1286q-191 0 -348 55t-263 153t-163.5 233.5t-57.5 295.5zM504 745q0 -182 113.5 -290.5t300.5 -108.5h151v799h-151q-187 0 -300.5 -106.5t-113.5 -288.5v-5z " />
<glyph unicode="&#x153;" horiz-adv-x="2183" d="M76 569v4q0 162 82 300t226 219.5t316 81.5q262 0 428 -177q75 84 179 130.5t225 46.5q141 0 252.5 -50.5t179.5 -138.5t103.5 -199.5t35.5 -240.5q0 -55 -2 -82h-776q24 -96 91 -146.5t165 -50.5q73 0 134.5 28t125.5 89l215 -180q-184 -230 -487 -230q-137 0 -251.5 46 t-195.5 131q-80 -84 -191.5 -130.5t-240.5 -46.5q-127 0 -241 47.5t-195.5 127.5t-129.5 190t-48 231zM455 573q0 -112 71.5 -192t178.5 -80q111 0 178 77.5t67 190.5v4q0 112 -71.5 192.5t-178.5 80.5q-110 0 -177.5 -78.5t-67.5 -189.5v-5zM1319 670h420q-12 99 -67.5 157 t-141.5 58q-83 0 -138 -58t-73 -157z" />
<glyph unicode="&#x178;" horiz-adv-x="1552" d="M10 1491h453l315 -555l322 555h444l-569 -920v-571h-395v563zM371 1595v291h342v-291h-342zM840 1595v291h342v-291h-342z" />
<glyph unicode="&#x2c6;" horiz-adv-x="1081" d="M109 1255l270 347h323l271 -347h-258l-176 131l-177 -131h-253z" />
<glyph unicode="&#x2dc;" horiz-adv-x="1081" d="M94 1290q35 160 96 236t168 76q70 0 197 -46q99 -36 133 -36q42 0 65 22.5t46 77.5l188 -53q-35 -160 -96 -236t-168 -76q-73 0 -197 45q-102 37 -133 37q-42 0 -64 -22.5t-46 -77.5z" />
<glyph unicode="&#x2000;" horiz-adv-x="990" />
<glyph unicode="&#x2001;" horiz-adv-x="1980" />
<glyph unicode="&#x2002;" horiz-adv-x="990" />
<glyph unicode="&#x2003;" horiz-adv-x="1980" />
<glyph unicode="&#x2004;" horiz-adv-x="660" />
<glyph unicode="&#x2005;" horiz-adv-x="495" />
<glyph unicode="&#x2006;" horiz-adv-x="330" />
<glyph unicode="&#x2007;" horiz-adv-x="330" />
<glyph unicode="&#x2008;" horiz-adv-x="247" />
<glyph unicode="&#x2009;" horiz-adv-x="396" />
<glyph unicode="&#x200a;" horiz-adv-x="110" />
<glyph unicode="&#x2010;" horiz-adv-x="884" d="M98 492v346h690v-346h-690z" />
<glyph unicode="&#x2011;" horiz-adv-x="884" d="M98 492v346h690v-346h-690z" />
<glyph unicode="&#x2012;" horiz-adv-x="884" d="M98 492v346h690v-346h-690z" />
<glyph unicode="&#x2013;" horiz-adv-x="1140" d="M98 496v338h944v-338h-944z" />
<glyph unicode="&#x2014;" horiz-adv-x="1929" d="M98 496v338h1733v-338h-1733z" />
<glyph unicode="&#x2018;" horiz-adv-x="622" d="M100 748v327q0 222 110 321t318 105l33 -151q-107 -10 -162.5 -62.5t-50.5 -138.5h158v-401h-406z" />
<glyph unicode="&#x2019;" horiz-adv-x="622" d="M61 889q107 10 162.5 62.5t50.5 138.5h-157v401h405v-328q0 -222 -110 -321t-318 -105z" />
<glyph unicode="&#x201a;" horiz-adv-x="622" d="M53 -203q108 12 162.5 64t50.5 139h-157v401h405v-329q0 -220 -110 -320t-318 -106z" />
<glyph unicode="&#x201c;" horiz-adv-x="1177" d="M100 748v327q0 220 108.5 320t315.5 106l33 -151q-107 -10 -160.5 -62t-48.5 -139h154v-401h-402zM662 748v327q0 220 107.5 320t315.5 106l31 -151q-106 -10 -159 -62t-48 -139h152v-401h-399z" />
<glyph unicode="&#x201d;" horiz-adv-x="1177" d="M61 889q107 10 160.5 62t48.5 139h-153v401h401v-328q0 -220 -108.5 -320t-315.5 -106zM623 889q106 10 158.5 62t47.5 139h-151v401h399v-328q0 -220 -108 -320t-316 -106z" />
<glyph unicode="&#x201e;" horiz-adv-x="1177" d="M53 -203q107 12 160.5 63.5t48.5 139.5h-153v401h401v-329q0 -219 -109 -319.5t-315 -106.5zM614 -203q216 24 207 203h-151v401h399v-329q0 -219 -108.5 -319.5t-315.5 -106.5z" />
<glyph unicode="&#x2022;" horiz-adv-x="1081" d="M188 748v4q0 144 104 247t249 103t248.5 -102.5t103.5 -247.5v-4q0 -145 -103.5 -248t-248.5 -103t-249 103t-104 248z" />
<glyph unicode="&#x2026;" horiz-adv-x="1806" d="M109 0v393h397v-393h-397zM705 0v393h397v-393h-397zM1300 0v393h398v-393h-398z" />
<glyph unicode="&#x202f;" horiz-adv-x="396" />
<glyph unicode="&#x2039;" horiz-adv-x="784" d="M76 528v86l373 455l253 -127l-249 -371l249 -368l-253 -129z" />
<glyph unicode="&#x203a;" horiz-adv-x="784" d="M80 199l252 370l-252 369l256 129l371 -453v-86l-371 -454z" />
<glyph unicode="&#x205f;" horiz-adv-x="495" />
<glyph unicode="&#x20ac;" horiz-adv-x="1484" d="M92 473v219h148v53q0 42 2 62h-150v219h184q61 220 227.5 357t409.5 137q322 0 514 -246l-260 -234q-54 68 -114 104t-140 36q-165 0 -241 -158h346v-215h-393q-2 -20 -2 -59v-3q0 -35 2 -53h393v-215h-348q33 -79 98.5 -122.5t155.5 -43.5q78 0 136.5 36.5t121.5 111.5 l250 -226q-97 -128 -223.5 -195t-297.5 -67q-249 0 -416.5 136.5t-224.5 365.5h-178z" />
<glyph unicode="&#x2122;" horiz-adv-x="1495" d="M47 1337v154h567v-154h-194v-501h-178v501h-195zM725 836v655h186l160 -258l160 258h184v-655h-172v395l-170 -266h-8l-170 266v-395h-170z" />
<glyph unicode="&#x25fc;" horiz-adv-x="1146" d="M0 0v1147h1147v-1147h-1147z" />
<glyph unicode="&#xfb01;" horiz-adv-x="1507" d="M57 836v307h136v35q0 196 96 295q96 96 295 96q151 0 256 -31v-283q-84 25 -150 25q-117 0 -117 -113v-30h265v-301h-256v-836h-389v836h-136zM977 1260v294h403v-294h-403zM985 0v1151h387v-1151h-387z" />
<glyph unicode="&#xfb02;" horiz-adv-x="1507" d="M57 836v307h136v35q0 196 96 295q96 96 295 96q151 0 256 -31v-283q-84 25 -150 25q-117 0 -117 -113v-30h265v-301h-256v-836h-389v836h-136zM985 0v1554h387v-1554h-387z" />
<glyph unicode="&#xfb03;" horiz-adv-x="2359" d="M57 836v307h136v35q0 196 96 295q96 96 295 96q151 0 256 -31v-283q-84 25 -150 25q-117 0 -117 -113v-30h265v-301h-256v-836h-389v836h-136zM909 836v307h135v35q0 195 97 295q96 96 295 96q151 0 256 -31v-283q-84 25 -150 25q-117 0 -117 -113v-30h265v-301h-256 v-836h-390v836h-135zM1829 1260v294h403v-294h-403zM1837 0v1151h387v-1151h-387z" />
<glyph unicode="&#xfb04;" horiz-adv-x="2359" d="M57 836v307h136v35q0 196 96 295q96 96 295 96q151 0 256 -31v-283q-84 25 -150 25q-117 0 -117 -113v-30h265v-301h-256v-836h-389v836h-136zM909 836v307h135v35q0 195 97 295q96 96 295 96q151 0 256 -31v-283q-84 25 -150 25q-117 0 -117 -113v-30h265v-301h-256 v-836h-390v836h-135zM1837 0v1554h387v-1554h-387z" />
</font>
</defs>
</svg>
