<?xml version="1.0" standalone="no"?>
<!DOCTYPE svg PUBLIC "-//W3C//DTD SVG 1.1//EN" "http://www.w3.org/Graphics/SVG/1.1/DTD/svg11.dtd" >
<svg xmlns="http://www.w3.org/2000/svg">
<metadata></metadata>
<defs>
<font id="gotham_ssmlight" horiz-adv-x="1703" >
<font-face units-per-em="2048" ascent="1638" descent="-410" />
<missing-glyph horiz-adv-x="659" />
<glyph horiz-adv-x="0" />
<glyph horiz-adv-x="682" />
<glyph unicode=" "  horiz-adv-x="659" />
<glyph unicode="&#x09;" horiz-adv-x="659" />
<glyph unicode="&#xa0;" horiz-adv-x="659" />
<glyph unicode="!" horiz-adv-x="579" d="M205 0v205h170v-205h-170zM209 1358v133h162v-133l-41 -950h-78z" />
<glyph unicode="&#x22;" horiz-adv-x="929" d="M152 930l69 561h170v-10l-162 -551h-77zM553 930l70 561h170v-10l-162 -551h-78z" />
<glyph unicode="#" horiz-adv-x="1511" d="M111 387v125h264l82 475h-262v125h282l66 379h129l-66 -379h422l66 379h129l-66 -379h242v-125h-262l-82 -475h262v-125h-285l-65 -387h-129l65 387h-420l-67 -387h-129l65 387h-241zM502 512h424l82 477h-424z" />
<glyph unicode="$" horiz-adv-x="1370" d="M133 227l84 107q99 -92 201.5 -143t224.5 -66v565q-239 56 -346.5 152t-106.5 258v2q0 162 125.5 272t321.5 117v123h121v-127q118 -12 215 -54t194 -118l-82 -109q-163 135 -333 158v-557q242 -54 351 -151t109 -257v-2q0 -168 -126 -277t-328 -120v-209h-121v211 q-276 26 -504 225zM330 1108q0 -68 24.5 -115t94.5 -89.5t194 -74.5v541q-139 -4 -227 -78.5t-86 -181.5v-2zM752 121q147 6 235 80.5t86 187.5v2q0 69 -26 117t-98 89t-197 71v-547z" />
<glyph unicode="%" horiz-adv-x="1787" d="M125 1122v4q0 157 93.5 269t240.5 112q145 0 238.5 -111.5t93.5 -265.5v-4q0 -101 -41.5 -187.5t-119.5 -140t-175 -53.5q-145 0 -237.5 111.5t-92.5 265.5zM252 1126q0 -117 60.5 -195.5t146.5 -78.5q90 0 147.5 78t57.5 192v4q0 116 -61 195.5t-148 79.5 q-88 0 -145.5 -79.5t-57.5 -191.5v-4zM279 0l569 772l524 719h135l-571 -778l-522 -713h-135zM997 360v5q0 101 41 187.5t118.5 139.5t174.5 53q145 0 238.5 -111t93.5 -265v-4q0 -157 -94.5 -269t-241.5 -112q-145 0 -237.5 110.5t-92.5 265.5zM1124 365q0 -117 60.5 -196 t146.5 -79q90 0 147.5 77.5t57.5 192.5v5q0 116 -61 195t-148 79q-88 0 -145.5 -79t-57.5 -191v-4z" />
<glyph unicode="&#x26;" horiz-adv-x="1503" d="M111 395v4q0 291 370 432q-83 97 -120 172t-37 162v4q0 148 108.5 247.5t276.5 99.5q151 0 252.5 -96t101.5 -234v-4q0 -261 -358 -387l362 -373q95 134 186 346l121 -53q-107 -235 -217 -385l266 -273l-110 -88l-244 254q-213 -243 -496 -243q-200 0 -331 115.5 t-131 299.5zM254 399q0 -127 92.5 -213t235.5 -86q212 0 399 213l-418 430q-155 -55 -232 -144.5t-77 -195.5v-4zM463 1167q0 -67 34.5 -129t125.5 -159q303 99 303 295v4q0 95 -63 158t-158 63q-105 0 -173.5 -66t-68.5 -162v-4z" />
<glyph unicode="'" horiz-adv-x="528" d="M152 930l69 561h172v-10l-164 -551h-77z" />
<glyph unicode="(" horiz-adv-x="942" d="M158 610v2q0 286 152.5 519t437.5 393l59 -92q-508 -319 -508 -822v-2q0 -501 508 -817l-59 -92q-286 162 -438 393t-152 518z" />
<glyph unicode=")" horiz-adv-x="942" d="M133 -209q508 319 508 819v2q0 504 -508 820l60 92q287 -161 439 -393t152 -521v-2q0 -285 -152.5 -517.5t-438.5 -391.5z" />
<glyph unicode="*" horiz-adv-x="935" d="M162 1059l250 117l-250 114l53 90l223 -153l-20 268h102l-22 -268l223 153l53 -90l-250 -114l250 -117l-53 -90l-223 153l22 -268h-102l20 268l-223 -153z" />
<glyph unicode="+" horiz-adv-x="1347" d="M156 684v131h450v447h135v-447h451v-131h-451v-446h-135v446h-450z" />
<glyph unicode="," horiz-adv-x="528" d="M115 -180q75 32 106 74t27 106h-70v205h172v-176q0 -115 -49.5 -178.5t-159.5 -96.5z" />
<glyph unicode="-" horiz-adv-x="888" d="M154 563v148h583v-148h-583z" />
<glyph unicode="." horiz-adv-x="528" d="M178 0v205h172v-205h-172z" />
<glyph unicode="/" horiz-adv-x="1095" d="M-31 -272l996 1972h131l-998 -1972h-129z" />
<glyph unicode="0" horiz-adv-x="1540" d="M145 741v4q0 155 44.5 295t124.5 245.5t199 168t259 62.5q139 0 257.5 -61.5t197.5 -166t123.5 -244t44.5 -294.5v-5q0 -155 -45 -295t-125 -245.5t-199 -167.5t-258 -62q-112 0 -211.5 39.5t-174 111t-128.5 167t-81.5 210t-27.5 238.5zM293 745q0 -125 34 -241t95 -205 t152 -142t198 -53q141 0 250.5 90t166 234t56.5 313v4q0 169 -57.5 314.5t-168 236t-251.5 90.5q-142 0 -252 -89.5t-166.5 -233t-56.5 -313.5v-5z" />
<glyph unicode="1" horiz-adv-x="761" d="M72 1376l354 125h106v-1501h-141v1354l-282 -92z" />
<glyph unicode="2" horiz-adv-x="1288" d="M113 0v111l546 487q179 162 249.5 267t70.5 218q0 134 -91.5 217.5t-223.5 83.5q-128 0 -224.5 -64t-193.5 -200l-105 74q72 107 140 172.5t167.5 105t227.5 39.5q196 0 324 -117.5t128 -297.5v-4q0 -79 -20.5 -146t-69.5 -137t-113.5 -136.5t-170.5 -160.5l-424 -379 h813v-133h-1030z" />
<glyph unicode="3" horiz-adv-x="1323" d="M121 242l106 92q186 -230 449 -230q144 0 244 86.5t100 221.5v4q0 143 -120.5 223t-317.5 80h-90l-31 84l489 557h-751v131h944v-105l-486 -544q104 -7 193.5 -35.5t161 -78.5t112.5 -128.5t41 -177.5v-4q0 -129 -67 -231t-179 -157t-247 -55q-177 0 -316.5 71 t-234.5 196z" />
<glyph unicode="4" horiz-adv-x="1441" d="M106 463l848 1038h127v-1022h236v-121h-236v-358h-139v358h-795zM279 479h663v819z" />
<glyph unicode="5" horiz-adv-x="1316" d="M127 213l96 102q214 -211 434 -211q166 0 271.5 100t105.5 251v4q0 146 -107.5 237.5t-279.5 91.5q-161 0 -323 -88l-101 68l43 723h850v-133h-725l-33 -514q155 74 310 74q221 0 367.5 -126t146.5 -329v-4q0 -214 -148.5 -349t-378.5 -135q-149 0 -285 65.5t-243 172.5z " />
<glyph unicode="6" horiz-adv-x="1394" d="M143 705v4q0 169 43 316.5t120.5 256.5t194.5 171.5t257 62.5q124 0 227.5 -42.5t208.5 -127.5l-86 -111q-88 76 -173.5 113.5t-184.5 37.5q-108 0 -196 -53.5t-145.5 -145.5t-88.5 -215.5t-31 -264.5v-29q161 250 442 250q137 0 254.5 -56t189.5 -161.5t72 -237.5v-4 q0 -140 -70 -253.5t-191 -177t-269 -63.5q-116 0 -216 40t-169 110q-97 96 -143 227.5t-46 352.5zM326 453q0 -150 113 -250.5t284 -100.5q168 0 272.5 104t104.5 257v4q0 146 -107.5 241t-275.5 95q-112 0 -203 -50t-139.5 -128.5t-48.5 -165.5v-6z" />
<glyph unicode="7" horiz-adv-x="1280" d="M156 1358v133h1001v-107l-678 -1384h-160l676 1358h-839z" />
<glyph unicode="8" horiz-adv-x="1361" d="M125 399v4q0 127 86.5 223.5t228.5 145.5q-118 51 -191 136.5t-73 207.5v4q0 112 71 202.5t186.5 139.5t248.5 49t248.5 -49t186.5 -139.5t71 -202.5v-4q0 -122 -74 -207.5t-192 -136.5q144 -52 230.5 -146.5t86.5 -219.5v-5q0 -123 -73.5 -220t-200 -149t-283.5 -52 q-240 0 -398.5 117.5t-158.5 301.5zM270 399q0 -123 112.5 -209t299.5 -86q186 0 299 86t113 209v4q0 130 -119.5 214.5t-292.5 84.5q-174 0 -293 -84.5t-119 -214.5v-4zM319 1110q0 -127 105.5 -208t257.5 -81t256 81t104 208v4q0 118 -103 195t-257 77q-155 0 -259 -77 t-104 -195v-4z" />
<glyph unicode="9" horiz-adv-x="1394" d="M147 1008v6q0 139 66.5 253.5t188.5 181.5t276 67q235 0 387 -152q92 -92 139 -229t47 -351v-4q0 -233 -78.5 -416.5t-218.5 -286t-317 -102.5q-239 0 -455 183l86 110q94 -83 184 -123.5t189 -40.5q141 0 248.5 91.5t162 240.5t54.5 328v43q-157 -258 -440 -258 q-226 0 -372.5 130.5t-146.5 328.5zM295 1014q0 -148 107.5 -244t275.5 -96q87 0 162 30t124 80t77 113.5t28 130.5v4q0 151 -113 254t-286 103q-169 0 -272 -108.5t-103 -262.5v-4z" />
<glyph unicode=":" horiz-adv-x="548" d="M188 0v205h172v-205h-172zM188 889v205h172v-205h-172z" />
<glyph unicode=";" horiz-adv-x="548" d="M125 -180q75 32 106 74t27 106h-70v205h172v-176q0 -116 -49 -179t-159 -96zM188 889v205h172v-205h-172z" />
<glyph unicode="&#x3c;" horiz-adv-x="1347" d="M145 692v117l996 504v-144l-838 -417l838 -420v-144z" />
<glyph unicode="=" horiz-adv-x="1347" d="M184 436v137h979v-137h-979zM184 928v135h979v-135h-979z" />
<glyph unicode="&#x3e;" horiz-adv-x="1347" d="M207 188v142l837 418l-837 421v144l995 -504v-117z" />
<glyph unicode="?" horiz-adv-x="1161" d="M78 1260q99 121 217.5 185t279.5 64q210 0 339.5 -118.5t129.5 -298.5v-5q0 -97 -34.5 -175t-96.5 -130t-141 -84t-174 -45l-20 -245h-91l-30 344l10 12q208 4 320 88.5t112 228.5v4q0 127 -90 212t-240 85q-224 0 -397 -208zM446 0v205h172v-205h-172z" />
<glyph unicode="@" horiz-adv-x="2107" d="M123 584q0 188 73 360t197.5 297.5t298 200t365.5 74.5q153 0 296 -44.5t256 -124t198.5 -184t131.5 -231t46 -258.5q0 -106 -23 -194t-61.5 -147.5t-89.5 -100.5t-106.5 -59.5t-113.5 -18.5q-112 0 -188.5 49.5t-106.5 136.5q-153 -186 -356 -186q-160 0 -269.5 107 t-109.5 276q0 111 43 211t113 169t159 109.5t179 40.5q212 0 313 -182l29 153l125 -18l-82 -467q-19 -108 -19 -141q0 -86 49.5 -132.5t137.5 -46.5q58 0 110.5 26.5t96 78.5t69 139t25.5 197q0 145 -65.5 284.5t-177 247.5t-272 174t-337.5 66q-181 0 -341 -68.5 t-273 -184.5t-178.5 -275t-65.5 -334q0 -176 65 -334t179 -273.5t278 -183t352 -67.5q155 0 279.5 35t251.5 110l34 -55q-266 -160 -565 -160q-200 0 -377.5 73.5t-302.5 198.5t-197.5 296t-72.5 360zM694 547q0 -128 75 -202.5t196 -74.5q132 0 239 107q58 58 91.5 133.5 t33.5 155.5q0 122 -76.5 202t-191.5 80q-138 0 -246 -108q-56 -56 -88.5 -132t-32.5 -161z" />
<glyph unicode="A" d="M98 0l686 1501h136l686 -1501h-156l-180 406h-842l-182 -406h-148zM485 535h727l-362 804z" />
<glyph unicode="B" horiz-adv-x="1558" d="M225 0v1491h627q255 0 389 -131q96 -99 96 -238v-4q0 -247 -245 -350q327 -90 327 -356v-4q0 -189 -145.5 -298.5t-390.5 -109.5h-658zM367 129h518q180 0 285.5 76.5t105.5 208.5v4q0 128 -109 199t-313 71h-487v-559zM367 815h464q162 0 261.5 75t99.5 210v4 q0 118 -91.5 188t-256.5 70h-477v-547z" />
<glyph unicode="C" horiz-adv-x="1601" d="M160 741v4q0 157 56.5 298.5t154.5 245.5t238.5 165.5t299.5 61.5q187 0 321 -60t261 -176l-98 -106q-107 102 -222 157t-264 55q-168 0 -305.5 -84.5t-215 -230t-77.5 -321.5v-5q0 -177 78.5 -324t216.5 -232t305 -85q149 0 263.5 55t232.5 169l94 -92 q-129 -129 -268 -195t-328 -66q-157 0 -295.5 60t-236.5 162.5t-154.5 244t-56.5 299.5z" />
<glyph unicode="D" horiz-adv-x="1685" d="M225 0v1491h510q229 0 410.5 -97.5t281 -266.5t99.5 -377v-5q0 -156 -58.5 -293.5t-161.5 -237t-251 -157t-320 -57.5h-510zM369 131h366q144 0 265.5 47.5t204 129.5t128 193.5t45.5 239.5v4q0 127 -46 239.5t-128 195.5t-203.5 131.5t-265.5 48.5h-366v-1229z" />
<glyph unicode="E" horiz-adv-x="1447" d="M225 0v1491h1071v-131h-927v-543h831v-131h-831v-555h938v-131h-1082z" />
<glyph unicode="F" horiz-adv-x="1417" d="M225 0v1491h1063v-131h-919v-567h823v-131h-823v-662h-144z" />
<glyph unicode="G" horiz-adv-x="1689" d="M160 741v4q0 152 54 292t149.5 246t236 169.5t303.5 63.5q176 0 303.5 -48.5t247.5 -148.5l-92 -109q-98 86 -206 131t-261 45q-125 0 -235 -51t-186.5 -137.5t-120.5 -203t-44 -244.5v-5q0 -185 73 -330t212.5 -229t325.5 -84q127 0 247 44.5t203 113.5v397h-473v129 h610v-585q-113 -100 -266 -163t-328 -63q-172 0 -315 60t-238 164t-147.5 243.5t-52.5 298.5z" />
<glyph unicode="H" horiz-adv-x="1638" d="M225 0v1491h144v-676h901v676h143v-1491h-143v684h-901v-684h-144z" />
<glyph unicode="I" horiz-adv-x="624" d="M240 0v1491h143v-1491h-143z" />
<glyph unicode="J" horiz-adv-x="1193" d="M82 250l108 84q71 -115 152.5 -170t200.5 -55q136 0 220.5 98t84.5 278v1006h145v-1002q0 -252 -137 -389q-123 -120 -317 -120q-300 0 -457 270z" />
<glyph unicode="K" horiz-adv-x="1548" d="M225 0v1491h144v-930l897 930h190l-647 -653l674 -838h-183l-591 735l-340 -344v-391h-144z" />
<glyph unicode="L" horiz-adv-x="1329" d="M225 0v1491h144v-1360h856v-131h-1000z" />
<glyph unicode="M" horiz-adv-x="1869" d="M225 0v1491h142l567 -844l567 844h144v-1491h-144v1247l-565 -825h-8l-563 823v-1245h-140z" />
<glyph unicode="N" d="M225 0v1491h135l979 -1241v1241h140v-1491h-113l-1001 1268v-1268h-140z" />
<glyph unicode="O" horiz-adv-x="1830" d="M160 741v4q0 153 55.5 293.5t153 246t240.5 168.5t309 63q133 0 252 -40t209.5 -111.5t156.5 -167.5t100.5 -210.5t34.5 -236.5v-5q0 -153 -55.5 -293t-153 -245.5t-240.5 -168.5t-309 -63q-133 0 -252 40t-209.5 111.5t-156.5 167.5t-100.5 210.5t-34.5 236.5zM309 745 q0 -175 78 -321.5t218.5 -233t312.5 -86.5q129 0 242.5 50.5t192 136t124 202.5t45.5 248v4q0 175 -78 321.5t-218.5 233t-312.5 86.5t-311.5 -85.5t-216 -230.5t-76.5 -320v-5z" />
<glyph unicode="P" horiz-adv-x="1443" d="M225 0v1491h551q252 0 404.5 -124.5t152.5 -340.5v-4q0 -153 -81.5 -264.5t-212 -165t-291.5 -53.5h-379v-539h-144zM369 670h387q195 0 314.5 95.5t119.5 250.5v4q0 164 -115 252t-309 88h-397v-690z" />
<glyph unicode="Q" horiz-adv-x="1830" d="M160 741v4q0 153 55.5 293.5t153 246t240.5 168.5t309 63q133 0 252 -40t209.5 -111.5t156.5 -167.5t100.5 -210.5t34.5 -236.5v-5q0 -142 -48 -274t-136 -235l203 -173l-99 -108l-202 184q-204 -164 -476 -164q-133 0 -252 40t-209.5 111.5t-156.5 167.5t-100.5 210.5 t-34.5 236.5zM309 745q0 -175 78 -321.5t218.5 -233t312.5 -86.5q211 0 366 123l-283 244l99 111l282 -258q140 180 140 417v4q0 175 -78 321.5t-218.5 233t-312.5 86.5t-311.5 -85.5t-216 -230.5t-76.5 -320v-5z" />
<glyph unicode="R" horiz-adv-x="1560" d="M225 0v1491h635q135 0 244 -39.5t178 -108.5q115 -115 115 -286v-4q0 -179 -114.5 -289.5t-305.5 -142.5l473 -621h-176l-453 596h-452v-596h-144zM369 725h477q181 0 294 86.5t113 235.5v4q0 143 -107 226t-296 83h-481v-635z" />
<glyph unicode="S" horiz-adv-x="1384" d="M129 217l90 107q124 -113 245.5 -165.5t276.5 -52.5q156 0 254.5 77t98.5 198v4q0 77 -32.5 127.5t-121.5 93.5t-250 76q-267 56 -384.5 153t-117.5 273v4q0 172 138 285.5t348 113.5q159 0 280 -43.5t238 -138.5l-86 -110q-196 165 -436 165q-150 0 -244 -75t-94 -185 v-4q0 -78 33 -129.5t125.5 -96t259.5 -79.5q256 -54 371.5 -152.5t115.5 -265.5v-4q0 -185 -141.5 -299t-362.5 -114q-176 0 -323 58t-281 179z" />
<glyph unicode="T" horiz-adv-x="1382" d="M111 1358v133h1161v-133h-508v-1358h-143v1358h-510z" />
<glyph unicode="U" horiz-adv-x="1638" d="M203 623v868h143v-858q0 -251 126 -389t351 -138q220 0 344.5 132.5t124.5 384.5v868h144v-856q0 -317 -167.5 -487.5t-449.5 -170.5q-280 0 -448 169t-168 477z" />
<glyph unicode="V" horiz-adv-x="1617" d="M98 1491h158l555 -1323l557 1323h152l-648 -1501h-127z" />
<glyph unicode="W" horiz-adv-x="2373" d="M111 1491h157l445 -1280l422 1284h114l420 -1284l445 1280h149l-534 -1501h-121l-420 1247l-422 -1247h-119z" />
<glyph unicode="X" horiz-adv-x="1560" d="M113 0l581 760l-561 731h170l479 -635l480 635h165l-559 -731l582 -760h-170l-502 664l-499 -664h-166z" />
<glyph unicode="Y" horiz-adv-x="1546" d="M72 1491h176l526 -770l531 770h168l-629 -899v-592h-144v590z" />
<glyph unicode="Z" horiz-adv-x="1492" d="M154 0v90l989 1272h-955v129h1153v-90l-991 -1272h991v-129h-1187z" />
<glyph unicode="[" horiz-adv-x="948" d="M215 -276v1767h596v-107h-467v-1554h467v-106h-596z" />
<glyph unicode="\" horiz-adv-x="1095" d="M0 1700h131l995 -1972h-129z" />
<glyph unicode="]" horiz-adv-x="948" d="M135 -170h469v1554h-469v107h598v-1767h-598v106z" />
<glyph unicode="^" horiz-adv-x="1085" d="M154 1051l331 446h115l332 -446h-131l-260 340l-260 -340h-127z" />
<glyph unicode="_" horiz-adv-x="1298" d="M6 -223h1286v-117h-1286v117z" />
<glyph unicode="`" horiz-adv-x="1085" d="M330 1493l151 72l195 -297h-111z" />
<glyph unicode="a" horiz-adv-x="1249" d="M115 317v5q0 168 129 261t344 93q184 0 346 -47v43q0 154 -88.5 234.5t-251.5 80.5t-338 -84l-43 115q199 92 393 92q228 0 350 -119q113 -116 113 -315v-676h-135v172q-147 -197 -404 -197q-78 0 -151.5 22.5t-132.5 64t-95 108t-36 147.5zM256 324q0 -105 85.5 -168.5 t207.5 -63.5q161 0 275 89t114 225v114q-180 47 -346 47q-159 0 -247.5 -64t-88.5 -173v-6z" />
<glyph unicode="b" horiz-adv-x="1431" d="M201 0v1554h137v-690q172 256 434 256q79 0 155.5 -24.5t143 -73t117.5 -116t80.5 -159.5t29.5 -196v-4q0 -104 -29.5 -196.5t-80.5 -160t-117.5 -117t-143 -74t-155.5 -24.5q-266 0 -434 246v-221h-137zM332 545q0 -96 35 -180t93 -141t134 -89.5t156 -32.5 q173 0 288 120t115 321v4q0 99 -32.5 184t-87.5 141.5t-128.5 88.5t-154.5 32q-80 0 -156 -32.5t-134 -90t-93 -141.5t-35 -180v-4z" />
<glyph unicode="c" horiz-adv-x="1236" d="M129 543v4q0 152 73.5 283.5t203 210.5t284.5 79q142 0 245 -53t191 -147l-92 -97q-80 82 -160.5 127t-187.5 45q-174 0 -294 -129.5t-120 -314.5v-4q0 -187 123 -317t301 -130q194 0 348 172l91 -84q-91 -103 -197 -158t-250 -55q-155 0 -284 77.5t-202 208t-73 282.5z " />
<glyph unicode="d" horiz-adv-x="1431" d="M133 543v4q0 104 29.5 196.5t80.5 160.5t117.5 117t143 74t155.5 25q268 0 435 -248v682h137v-1554h-137v231q-172 -256 -435 -256q-99 0 -193 39.5t-168.5 110.5t-119.5 180t-45 238zM276 547q0 -197 119 -321t287 -124q80 0 155.5 32.5t133.5 89.5t93.5 141t35.5 180v4 q0 97 -35.5 181t-93.5 141t-133.5 89.5t-155.5 32.5q-173 0 -289.5 -120.5t-116.5 -321.5v-4z" />
<glyph unicode="e" horiz-adv-x="1273" d="M129 545v4q0 157 67.5 287.5t187.5 207t267 76.5q154 0 270.5 -77.5t177 -207.5t60.5 -292q0 -29 -4 -49h-885q17 -183 132.5 -290.5t273.5 -107.5q201 0 358 164l88 -80q-91 -99 -197.5 -152t-252.5 -53q-110 0 -209 41.5t-173 115.5t-117.5 181t-43.5 232zM270 604h746 q-8 108 -50 195.5t-124.5 143.5t-194.5 56q-151 0 -256.5 -111.5t-120.5 -283.5z" />
<glyph unicode="f" horiz-adv-x="798" d="M109 971v123h153v100q0 187 96 283q86 86 234 86q86 0 172 -27v-123q-88 27 -160 27q-104 0 -154.5 -62t-50.5 -190v-94h363v-123h-363v-971h-137v971h-153z" />
<glyph unicode="g" horiz-adv-x="1431" d="M133 598v4q0 115 44.5 214t117.5 164.5t166 102.5t192 37q271 0 441 -233v207h137v-912q0 -242 -139 -381q-145 -145 -410 -145q-272 0 -500 158l70 108q199 -145 432 -145q188 0 299 104.5t111 300.5v142q-174 -242 -441 -242q-99 0 -192.5 37t-166.5 102.5t-117 164 t-44 212.5zM276 600q0 -169 118 -280t282 -111q108 0 204.5 48t158 139.5t61.5 203.5v4q0 114 -61.5 204.5t-157.5 137.5t-205 47q-168 0 -284 -107t-116 -282v-4z" />
<glyph unicode="h" horiz-adv-x="1329" d="M201 0v1554h137v-655q129 221 383 221q199 0 313.5 -122.5t114.5 -321.5v-676h-137v643q0 162 -85.5 256t-238.5 94q-151 0 -250.5 -102t-99.5 -262v-629h-137z" />
<glyph unicode="i" horiz-adv-x="567" d="M203 1354v166h162v-166h-162zM215 0v1094h137v-1094h-137z" />
<glyph unicode="j" horiz-adv-x="567" d="M4 -221q36 -8 84 -8q59 0 93 37.5t34 111.5v1174h137v-1172q0 -135 -66 -202.5t-186 -67.5q-38 0 -96 10v117zM203 1354v166h162v-166h-162z" />
<glyph unicode="k" horiz-adv-x="1222" d="M201 0v1554h137v-1114l629 654h176l-469 -476l483 -618h-168l-409 520l-242 -244v-276h-137z" />
<glyph unicode="l" horiz-adv-x="567" d="M215 0v1554h137v-1554h-137z" />
<glyph unicode="m" horiz-adv-x="2045" d="M201 0v1094h137v-189q62 99 145 157t213 58q129 0 220 -63t139 -164q143 227 389 227q191 0 302.5 -121.5t111.5 -326.5v-672h-138v643q0 166 -79.5 258t-221.5 92q-136 0 -228.5 -97t-92.5 -263v-633h-137v649q0 161 -80 252.5t-219 91.5q-137 0 -230.5 -104t-93.5 -260 v-629h-137z" />
<glyph unicode="n" horiz-adv-x="1329" d="M201 0v1094h137v-195q129 221 383 221q199 0 313.5 -122.5t114.5 -321.5v-676h-137v643q0 162 -85.5 256t-238.5 94q-151 0 -250.5 -102t-99.5 -262v-629h-137z" />
<glyph unicode="o" horiz-adv-x="1390" d="M129 543v4q0 115 43 220t117.5 182.5t181 124t227.5 46.5q120 0 225.5 -45.5t180 -122.5t117.5 -181.5t43 -219.5v-4q0 -153 -73 -283.5t-205 -209.5t-292 -79t-290.5 78t-202.5 207.5t-72 282.5zM272 547q0 -123 55.5 -225.5t153.5 -162t217 -59.5q120 0 217 60 t150 161.5t53 221.5v4q0 187 -122.5 317.5t-301.5 130.5q-183 0 -302.5 -129t-119.5 -315v-4z" />
<glyph unicode="p" horiz-adv-x="1431" d="M201 -340v1434h137v-230q172 256 434 256q79 0 155.5 -24.5t143 -73t117.5 -116t80.5 -159.5t29.5 -196v-4q0 -104 -29.5 -196.5t-80.5 -160t-117.5 -117t-143 -74t-155.5 -24.5q-266 0 -434 246v-561h-137zM332 545q0 -96 35 -180t93 -141t134 -89.5t156 -32.5 q173 0 288 120t115 321v4q0 99 -32.5 184t-87.5 141.5t-128.5 88.5t-154.5 32q-80 0 -156 -32.5t-134 -90t-93 -141.5t-35 -180v-4z" />
<glyph unicode="q" horiz-adv-x="1431" d="M133 543v4q0 104 29.5 196.5t80.5 160.5t117.5 117t143 74t155.5 25q268 0 435 -248v222h137v-1434h-137v571q-172 -256 -435 -256q-99 0 -193 39.5t-168.5 110.5t-119.5 180t-45 238zM276 547q0 -197 119 -321t287 -124q80 0 155.5 32.5t133.5 89.5t93.5 141t35.5 180v4 q0 97 -35.5 181t-93.5 141t-133.5 89.5t-155.5 32.5q-173 0 -289.5 -120.5t-116.5 -321.5v-4z" />
<glyph unicode="r" horiz-adv-x="878" d="M201 0v1094h137v-297q64 145 186 233q115 82 257 82h20v-147h-10q-193 0 -323 -139t-130 -384v-442h-137z" />
<glyph unicode="s" horiz-adv-x="1081" d="M106 139l74 103q187 -142 385 -142q106 0 175 52t69 137v4q0 29 -10 53.5t-31 43.5t-43.5 33.5t-59 28.5t-65 23t-72.5 21q-49 14 -76 22.5t-72 25.5t-70 31.5t-57.5 38.5t-49.5 49.5t-29 61t-12 76.5v4q0 138 102 224.5t264 86.5q98 0 203.5 -33t188.5 -90l-66 -106 q-167 108 -330 108q-103 0 -166 -49t-63 -125v-4q0 -27 10 -50.5t33 -42t45.5 -32.5t61.5 -28.5t67.5 -23.5t75.5 -22q44 -13 74.5 -23t70.5 -26.5t67.5 -33t57 -40.5t47 -50.5t28.5 -61.5t11 -76v-4q0 -148 -109.5 -235.5t-275.5 -87.5q-119 0 -240.5 43t-212.5 116z" />
<glyph unicode="t" horiz-adv-x="876" d="M102 971v123h156v340h137v-340h365v-123h-365v-668q0 -197 199 -197q75 0 160 39v-122q-87 -41 -189 -41q-138 0 -222.5 75t-84.5 230v684h-156z" />
<glyph unicode="u" horiz-adv-x="1329" d="M180 420v674h137v-643q0 -161 86 -256t238 -95q151 0 250.5 102.5t99.5 262.5v629h137v-1094h-137v197q-130 -222 -383 -222q-199 0 -313.5 122.5t-114.5 322.5z" />
<glyph unicode="v" horiz-adv-x="1265" d="M90 1094h156l387 -938l391 938h152l-484 -1102h-119z" />
<glyph unicode="w" horiz-adv-x="1853" d="M106 1094h150l305 -914l311 920h113l311 -920l308 914h143l-391 -1102h-119l-309 895l-312 -895h-118z" />
<glyph unicode="x" horiz-adv-x="1239" d="M98 0l439 557l-420 537h162l342 -443l344 443h157l-422 -533l441 -561h-164l-361 469l-360 -469h-158z" />
<glyph unicode="y" horiz-adv-x="1275" d="M88 1094h154l424 -942l368 942h150l-467 -1131q-69 -168 -154.5 -239.5t-208.5 -71.5q-115 0 -227 53l47 113q84 -41 178 -41q79 0 135 50.5t111 176.5z" />
<glyph unicode="z" horiz-adv-x="1204" d="M131 0v84l756 891h-727v119h919v-84l-755 -891h755v-119h-948z" />
<glyph unicode="{" horiz-adv-x="1046" d="M133 559v105h55q140 0 196 66t56 198v164q0 59 7.5 104.5t26 89.5t51.5 78t83 64.5t122 54t167 41.5l21 -90q-79 -21 -134 -41t-94 -44.5t-61.5 -49t-35 -61t-16.5 -72.5t-4 -91v-160q0 -131 -56 -200.5t-165 -104.5q114 -36 167.5 -103.5t53.5 -199.5v-160 q0 -66 6.5 -107.5t25.5 -81t57.5 -66.5t100 -52.5t155.5 -50.5l-21 -90q-95 18 -167 41.5t-122 54t-83 64.5t-51.5 78t-26 89.5t-7.5 104.5v164q0 132 -56 198t-196 66h-55z" />
<glyph unicode="|" horiz-adv-x="649" d="M266 -272v1972h119v-1972h-119z" />
<glyph unicode="}" horiz-adv-x="1046" d="M129 -211q79 21 133.5 40.5t93.5 44.5t61.5 49t35 60.5t16.5 72.5t4 91v160q0 131 56 200.5t165 102.5q-114 37 -167.5 105t-53.5 200v160q0 55 -4 91t-16.5 72.5t-35 61t-61.5 49t-93.5 44.5t-133.5 41l21 90q95 -18 167 -41.5t121.5 -54t83 -64.5t51.5 -78t25.5 -89.5 t7.5 -104.5v-164q0 -132 56 -198t196 -66h55v-105h-55q-140 0 -196 -66t-56 -198v-164q0 -59 -7.5 -104.5t-25.5 -89.5t-51.5 -78t-83 -64.5t-121.5 -54t-167 -41.5z" />
<glyph unicode="~" horiz-adv-x="1015" d="M174 535q32 116 76 163t117 47q54 0 145 -43q101 -43 133 -43q39 0 62 23t47 84l88 -25q-30 -117 -75 -165t-118 -48q-50 0 -145 45q-101 43 -133 43q-39 0 -62 -23t-47 -83z" />
<glyph unicode="&#xa1;" horiz-adv-x="579" d="M205 1286v205h170v-205h-170zM209 0v133l43 950h78l41 -950v-133h-162z" />
<glyph unicode="&#xa2;" horiz-adv-x="1257" d="M137 752v4q0 153 73.5 284.5t203 210t284.5 78.5h27l35 174h125l-39 -192q154 -38 291 -181l-93 -96q-122 122 -229 154l-170 -875q18 -4 57 -4q195 0 353 172l88 -82q-91 -104 -197.5 -159.5t-249.5 -55.5q-46 0 -69 4l-39 -200h-123l43 227q-164 59 -267.5 206.5 t-103.5 330.5zM281 756q0 -140 70.5 -251t187.5 -161l170 860h-15q-174 0 -293.5 -129t-119.5 -315v-4z" />
<glyph unicode="&#xa3;" horiz-adv-x="1392" d="M156 0v78l180 43v516h-180v129h180v238q0 245 137 382q125 125 328 125q157 0 263.5 -59.5t188.5 -167.5l-110 -86q-47 59 -90 96t-108 62.5t-144 25.5q-137 0 -223 -86q-99 -99 -99 -290v-240h613v-129h-613v-510h774v-127h-1097z" />
<glyph unicode="&#xa5;" horiz-adv-x="1480" d="M72 1491h172l499 -758l502 758h164l-557 -807h401v-115h-444v-198h444v-115h-444v-256h-137v256h-445v115h445v198h-445v115h400z" />
<glyph unicode="&#xa7;" horiz-adv-x="1366" d="M145 766v4q0 95 80.5 159t216.5 85q-80 38 -125 94t-45 125v4q0 124 105 199t280 75q142 0 268 -53.5t218 -146.5l-96 -92q-76 78 -179 124t-219 46q-113 0 -172 -42t-59 -110v-4q0 -65 81 -113t285 -96q240 -59 338.5 -126t98.5 -173v-4q0 -95 -79.5 -159t-215.5 -85 q78 -36 123 -93t45 -126v-4q0 -125 -104 -199.5t-279 -74.5q-143 0 -269.5 53.5t-216.5 146.5l94 92q78 -78 180 -124t218 -46q113 0 172 42.5t59 109.5v4q0 66 -81 113t-285 96q-240 59 -338.5 126t-98.5 173zM283 780q0 -59 69 -104.5t246 -89.5q132 -35 236 -35 q111 0 181 46t70 110v4q0 59 -69.5 104.5t-247.5 89.5q-135 35 -236 35q-109 0 -179 -46t-70 -110v-4z" />
<glyph unicode="&#xa8;" horiz-adv-x="1085" d="M276 1268v188h173v-188h-173zM637 1268v188h172v-188h-172z" />
<glyph unicode="&#xa9;" horiz-adv-x="1787" d="M123 741v4q0 155 60.5 297t163.5 246t247 166t303 62q212 0 389 -103.5t278 -279.5t101 -383v-5q0 -207 -102 -384t-280 -281.5t-390 -104.5q-213 0 -390.5 103.5t-278.5 279.5t-101 383zM190 741q0 -143 54 -272.5t146.5 -224t224 -150t278.5 -55.5q196 0 358.5 95.5 t254 257t91.5 353.5v5q0 191 -91 352t-252 255.5t-357 94.5q-197 0 -360 -95.5t-255 -257.5t-92 -354v-4zM510 754v4q0 166 114.5 285.5t280.5 119.5q98 0 167.5 -33t135.5 -96l-71 -76q-115 107 -234 107q-122 0 -203.5 -89t-81.5 -216v-4q0 -127 84 -217t203 -90 q72 0 127 26.5t113 81.5l69 -70q-70 -68 -141 -102.5t-170 -34.5q-166 0 -279.5 118.5t-113.5 285.5z" />
<glyph unicode="&#xaa;" horiz-adv-x="851" d="M137 618v95h547v-95h-547zM145 1063v4q0 94 72 146.5t191 52.5q82 0 172 -23v10q0 76 -45 116t-125 40q-79 0 -185 -47l-30 80q113 55 223 55q124 0 194 -67q62 -65 62 -177v-368h-94v84q-74 -97 -205 -97q-93 0 -161.5 50.5t-68.5 140.5zM244 1069q0 -53 40.5 -84 t100.5 -31q81 0 139 44.5t58 113.5v53q-77 23 -172 23q-77 0 -121.5 -31.5t-44.5 -83.5v-4z" />
<glyph unicode="&#xab;" horiz-adv-x="1159" d="M115 539v16l348 451l100 -62l-287 -395l287 -399l-100 -60zM571 539v16l347 451l102 -62l-287 -395l287 -399l-102 -60z" />
<glyph unicode="&#xad;" horiz-adv-x="888" d="M154 563v148h583v-148h-583z" />
<glyph unicode="&#xae;" horiz-adv-x="890" d="M76 1137v2q0 153 108 262.5t262 109.5q155 0 263 -108.5t108 -261.5v-2q0 -152 -109 -262.5t-262 -110.5q-155 0 -262.5 109.5t-107.5 261.5zM117 1137q0 -137 94.5 -233.5t234.5 -96.5q137 0 232.5 98t95.5 234v2q0 138 -95 235t-233 97t-233.5 -98t-95.5 -236v-2z M303 958v377h170q62 0 101.5 -30.5t39.5 -87.5v-3q0 -41 -25 -71t-65 -41l105 -144h-84l-90 134h-84v-134h-68zM371 1147h96q38 0 59 17.5t21 47.5v2q0 29 -21.5 46t-58.5 16h-96v-129z" />
<glyph unicode="&#xaf;" horiz-adv-x="1085" d="M219 1317v117h647v-117h-647z" />
<glyph unicode="&#xb0;" horiz-adv-x="989" d="M166 1182v4q0 127 99 222t229 95t229.5 -95t99.5 -222v-4q0 -127 -99.5 -222.5t-229.5 -95.5t-229 95.5t-99 222.5zM283 1182q0 -87 61 -151t150 -64q90 0 151.5 64t61.5 151v4q0 87 -61.5 151t-151.5 64q-89 0 -150 -64t-61 -151v-4z" />
<glyph unicode="&#xb1;" horiz-adv-x="1347" d="M174 0v127h1000v-127h-1000zM174 770v129l432 -2v426h135v-426l433 2v-129h-433v-424h-135v424h-432z" />
<glyph unicode="&#xb2;" horiz-adv-x="860" d="M131 905v84l313 273q90 80 128 133.5t38 113.5q0 66 -47.5 109t-118.5 43q-68 0 -122 -36.5t-105 -111.5l-74 50q58 91 131.5 138.5t176.5 47.5q112 0 186 -66.5t74 -166.5q0 -83 -44 -148.5t-151 -157.5l-250 -213h453v-92h-588z" />
<glyph unicode="&#xb3;" horiz-adv-x="860" d="M117 1036l67 66q104 -129 244 -129q75 0 127.5 45.5t52.5 116.5q0 74 -63.5 116.5t-163.5 42.5h-66l-18 62l274 280h-409v93h534v-80l-266 -273q124 -10 201.5 -70.5t77.5 -170.5t-82.5 -180t-200.5 -70q-192 0 -309 151z" />
<glyph unicode="&#xb4;" horiz-adv-x="1085" d="M410 1268l194 297l152 -72l-236 -225h-110z" />
<glyph unicode="&#xb5;" horiz-adv-x="1435" d="M201 -340v1434h137v-631q0 -153 97.5 -259t242.5 -106t241.5 105.5t96.5 259.5v631h137v-840q6 -150 150 -150q39 0 81 11v-119q-62 -12 -106 -12q-224 0 -254 204q-59 -101 -149 -157t-197 -56q-242 0 -354 228h-2q14 -121 14 -273v-270h-135z" />
<glyph unicode="&#xb6;" horiz-adv-x="1077" d="M117 1032v4q0 209 154.5 332t402.5 123h196v-1491h-145v575h-18q-168 0 -300 52t-211 157t-79 248z" />
<glyph unicode="&#xb7;" horiz-adv-x="528" d="M178 535v204h172v-204h-172z" />
<glyph unicode="&#xb8;" horiz-adv-x="1085" d="M342 -260l193 285h112l-166 -349z" />
<glyph unicode="&#xb9;" horiz-adv-x="700" d="M137 1655l230 88h79v-838h-98v733l-186 -69z" />
<glyph unicode="&#xba;" horiz-adv-x="851" d="M115 1182v4q0 129 90 222t223 93q132 0 219.5 -91t87.5 -220v-4q0 -130 -89 -223t-222 -93q-132 0 -220.5 92t-88.5 220zM119 618v95h614v-95h-614zM219 1186q0 -93 60 -157t149 -64t146 63t57 154v4q0 93 -59 157t-148 64t-147 -63t-58 -154v-4z" />
<glyph unicode="&#xbb;" horiz-adv-x="1159" d="M139 150l287 395l-287 399l101 62l348 -451v-16l-348 -449zM596 150l287 395l-287 399l100 62l346 -451v-16l-346 -449z" />
<glyph unicode="&#xbc;" horiz-adv-x="1775" d="M135 1417l230 88h79v-837h-98v733l-186 -70zM303 0l526 762l488 729h104l-526 -762l-487 -729h-105zM1028 270l412 566h110v-566h115v-84h-115v-190h-92v190h-405zM1133 270h325v443z" />
<glyph unicode="&#xbd;" horiz-adv-x="1775" d="M135 1417l230 88h79v-837h-98v733l-186 -70zM283 0l526 762l487 729h105l-527 -762l-487 -729h-104zM1063 0v84l313 272q90 80 128 134t38 114q0 66 -47.5 109t-118.5 43q-68 0 -122 -36.5t-105 -111.5l-74 49q58 91 131 139t176 48q112 0 186 -67t74 -167 q0 -83 -43.5 -148t-150.5 -157l-250 -213h453v-92h-588z" />
<glyph unicode="&#xbe;" horiz-adv-x="1935" d="M123 799l67 65q102 -129 244 -129q75 0 127.5 45.5t52.5 116.5q0 75 -63.5 117.5t-163.5 42.5h-65l-19 61l275 281h-410v92h534v-80l-266 -272q123 -10 201 -71t78 -171t-82.5 -180t-200.5 -70q-191 0 -309 152zM453 0l526 762l487 729h105l-527 -762l-487 -729h-104z M1188 270l411 566h111v-566h115v-84h-115v-190h-92v190h-406zM1292 270h326v443z" />
<glyph unicode="&#xbf;" horiz-adv-x="1161" d="M117 399v4q0 97 34.5 175t96.5 130.5t141 84.5t174 45l21 245h90l31 -344l-11 -12q-208 -4 -321 -88.5t-113 -228.5v-4q0 -127 91 -212t241 -85q221 0 397 208l94 -86q-99 -121 -217.5 -185t-279.5 -64q-210 0 -339.5 118.5t-129.5 298.5zM543 1286v205h172v-205h-172z " />
<glyph unicode="&#xc0;" d="M98 0l686 1501h136l686 -1501h-156l-180 406h-842l-182 -406h-148zM485 535h727l-362 804zM553 1841l149 70l207 -264h-118z" />
<glyph unicode="&#xc1;" d="M98 0l686 1501h136l686 -1501h-156l-180 406h-842l-182 -406h-148zM485 535h727l-362 804zM795 1647l206 264l150 -70l-238 -194h-118z" />
<glyph unicode="&#xc2;" d="M98 0l686 1501h136l686 -1501h-156l-180 406h-842l-182 -406h-148zM485 535h727l-362 804zM559 1647l227 241h132l227 -241h-137l-158 129l-158 -129h-133z" />
<glyph unicode="&#xc3;" d="M98 0l686 1501h136l686 -1501h-156l-180 406h-842l-182 -406h-148zM485 535h727l-362 804zM522 1653q32 108 77 156.5t112 48.5q51 0 157 -48q91 -34 121 -34q39 0 62 21.5t47 76.5l94 -27q-32 -106 -76.5 -153t-111.5 -47q-50 0 -158 45q-88 37 -121 37q-39 0 -62 -22.5 t-47 -78.5z" />
<glyph unicode="&#xc4;" d="M98 0l686 1501h136l686 -1501h-156l-180 406h-842l-182 -406h-148zM485 535h727l-362 804zM569 1647v178h181v-178h-181zM958 1647v178h179v-178h-179z" />
<glyph unicode="&#xc5;" d="M98 0l645 1417q-57 27 -89.5 74.5t-32.5 107.5q0 89 67.5 149t163.5 60t163.5 -60t67.5 -149q0 -60 -34 -108.5t-91 -75.5l648 -1415h-156l-180 406h-842l-182 -406h-148zM485 535h727l-362 804zM709 1599q0 -56 41 -93.5t102 -37.5q60 0 101.5 38t41.5 93 q0 57 -41.5 95.5t-101.5 38.5q-61 0 -102 -38.5t-41 -95.5z" />
<glyph unicode="&#xc6;" horiz-adv-x="2246" d="M49 0l889 1491h1157v-131h-893v-543h797v-131h-797v-555h903v-131h-1046v406h-619l-239 -406h-152zM514 535h545v829h-53z" />
<glyph unicode="&#xc7;" horiz-adv-x="1601" d="M160 741v4q0 157 56.5 298.5t154.5 245.5t238.5 165.5t299.5 61.5q187 0 321 -60t261 -176l-98 -106q-107 102 -222 157t-264 55q-168 0 -305.5 -84.5t-215 -230t-77.5 -321.5v-5q0 -177 78.5 -324t216.5 -232t305 -85q149 0 263.5 55t232.5 169l94 -92 q-124 -124 -255 -188.5t-308 -70.5l-141 -301l-140 64l162 240q-189 20 -339 125t-234 272t-84 364z" />
<glyph unicode="&#xc8;" horiz-adv-x="1447" d="M225 0v1491h1071v-131h-927v-543h831v-131h-831v-555h938v-131h-1082zM467 1821l149 69l207 -264h-118z" />
<glyph unicode="&#xc9;" horiz-adv-x="1447" d="M225 0v1491h1071v-131h-927v-543h831v-131h-831v-555h938v-131h-1082zM707 1626l206 264l150 -69l-238 -195h-118z" />
<glyph unicode="&#xca;" horiz-adv-x="1447" d="M225 0v1491h1071v-131h-927v-543h831v-131h-831v-555h938v-131h-1082zM471 1626l227 242h131l228 -242h-137l-158 129l-158 -129h-133z" />
<glyph unicode="&#xcb;" horiz-adv-x="1447" d="M225 0v1491h1071v-131h-927v-543h831v-131h-831v-555h938v-131h-1082zM481 1626v178h181v-178h-181zM870 1626v178h179v-178h-179z" />
<glyph unicode="&#xcc;" horiz-adv-x="624" d="M14 1821l150 69l207 -264h-119zM240 0v1491h143v-1491h-143z" />
<glyph unicode="&#xcd;" horiz-adv-x="624" d="M240 0v1491h143v-1491h-143zM254 1626l207 264l149 -69l-237 -195h-119z" />
<glyph unicode="&#xce;" horiz-adv-x="624" d="M18 1626l228 242h131l227 -242h-137l-158 129l-157 -129h-134zM240 0v1491h143v-1491h-143z" />
<glyph unicode="&#xcf;" horiz-adv-x="624" d="M29 1626v178h180v-178h-180zM240 0v1491h143v-1491h-143zM418 1626v178h178v-178h-178z" />
<glyph unicode="&#xd0;" horiz-adv-x="1748" d="M129 690v121h160v680h510q173 0 321 -57t251 -156t161.5 -235.5t58.5 -292.5v-5q0 -156 -58.5 -293.5t-161 -237t-251 -157t-321.5 -57.5h-510v690h-160zM432 131h367q144 0 265.5 47.5t204 129.5t128 193.5t45.5 239.5v4q0 127 -46 239.5t-128 195.5t-203.5 131.5 t-265.5 48.5h-367v-549h469v-121h-469v-559z" />
<glyph unicode="&#xd1;" d="M225 0v1491h135l979 -1241v1241h140v-1491h-113l-1001 1268v-1268h-140zM522 1624q32 108 77 156.5t112 48.5q54 0 157 -47q94 -35 121 -35q39 0 62 21.5t47 76.5l94 -26q-32 -106 -76.5 -153.5t-111.5 -47.5q-50 0 -158 45q-88 37 -121 37q-39 0 -62 -22.5t-47 -78.5z " />
<glyph unicode="&#xd2;" horiz-adv-x="1830" d="M160 741v4q0 153 55.5 293.5t153 246t240.5 168.5t309 63q133 0 252 -40t209.5 -111.5t156.5 -167.5t100.5 -210.5t34.5 -236.5v-5q0 -153 -55.5 -293t-153 -245.5t-240.5 -168.5t-309 -63q-133 0 -252 40t-209.5 111.5t-156.5 167.5t-100.5 210.5t-34.5 236.5zM309 745 q0 -175 78 -321.5t218.5 -233t312.5 -86.5q129 0 242.5 50.5t192 136t124 202.5t45.5 248v4q0 175 -78 321.5t-218.5 233t-312.5 86.5t-311.5 -85.5t-216 -230.5t-76.5 -320v-5zM618 1841l150 70l207 -264h-119z" />
<glyph unicode="&#xd3;" horiz-adv-x="1830" d="M160 741v4q0 153 55.5 293.5t153 246t240.5 168.5t309 63q133 0 252 -40t209.5 -111.5t156.5 -167.5t100.5 -210.5t34.5 -236.5v-5q0 -153 -55.5 -293t-153 -245.5t-240.5 -168.5t-309 -63q-133 0 -252 40t-209.5 111.5t-156.5 167.5t-100.5 210.5t-34.5 236.5zM309 745 q0 -175 78 -321.5t218.5 -233t312.5 -86.5q129 0 242.5 50.5t192 136t124 202.5t45.5 248v4q0 175 -78 321.5t-218.5 233t-312.5 86.5t-311.5 -85.5t-216 -230.5t-76.5 -320v-5zM858 1647l207 264l149 -70l-237 -194h-119z" />
<glyph unicode="&#xd4;" horiz-adv-x="1830" d="M160 741v4q0 153 55.5 293.5t153 246t240.5 168.5t309 63q133 0 252 -40t209.5 -111.5t156.5 -167.5t100.5 -210.5t34.5 -236.5v-5q0 -153 -55.5 -293t-153 -245.5t-240.5 -168.5t-309 -63q-133 0 -252 40t-209.5 111.5t-156.5 167.5t-100.5 210.5t-34.5 236.5zM309 745 q0 -175 78 -321.5t218.5 -233t312.5 -86.5q129 0 242.5 50.5t192 136t124 202.5t45.5 248v4q0 175 -78 321.5t-218.5 233t-312.5 86.5t-311.5 -85.5t-216 -230.5t-76.5 -320v-5zM623 1647l227 241h131l227 -241h-137l-158 129l-157 -129h-133z" />
<glyph unicode="&#xd5;" horiz-adv-x="1830" d="M160 741v4q0 153 55.5 293.5t153 246t240.5 168.5t309 63q133 0 252 -40t209.5 -111.5t156.5 -167.5t100.5 -210.5t34.5 -236.5v-5q0 -153 -55.5 -293t-153 -245.5t-240.5 -168.5t-309 -63q-133 0 -252 40t-209.5 111.5t-156.5 167.5t-100.5 210.5t-34.5 236.5zM309 745 q0 -175 78 -321.5t218.5 -233t312.5 -86.5q129 0 242.5 50.5t192 136t124 202.5t45.5 248v4q0 175 -78 321.5t-218.5 233t-312.5 86.5t-311.5 -85.5t-216 -230.5t-76.5 -320v-5zM586 1653q32 108 76.5 156.5t111.5 48.5q52 0 158 -48q91 -34 121 -34q39 0 61.5 21.5 t46.5 76.5l94 -27q-32 -106 -76.5 -153t-111.5 -47q-50 0 -158 45q-88 37 -121 37q-38 0 -61 -22.5t-47 -78.5z" />
<glyph unicode="&#xd6;" horiz-adv-x="1830" d="M160 741v4q0 153 55.5 293.5t153 246t240.5 168.5t309 63q133 0 252 -40t209.5 -111.5t156.5 -167.5t100.5 -210.5t34.5 -236.5v-5q0 -153 -55.5 -293t-153 -245.5t-240.5 -168.5t-309 -63q-133 0 -252 40t-209.5 111.5t-156.5 167.5t-100.5 210.5t-34.5 236.5zM309 745 q0 -175 78 -321.5t218.5 -233t312.5 -86.5q129 0 242.5 50.5t192 136t124 202.5t45.5 248v4q0 175 -78 321.5t-218.5 233t-312.5 86.5t-311.5 -85.5t-216 -230.5t-76.5 -320v-5zM633 1647v178h180v-178h-180zM1022 1647v178h178v-178h-178z" />
<glyph unicode="&#xd7;" horiz-adv-x="1347" d="M203 371l383 377l-383 376l96 97l377 -383l377 383l92 -93l-383 -376l383 -377l-96 -96l-377 383l-377 -383z" />
<glyph unicode="&#xd8;" horiz-adv-x="1830" d="M141 -10l213 227q-94 104 -144 239.5t-50 284.5v4q0 153 55.5 293.5t153 246t240.5 168.5t309 63q274 0 475 -164l141 149h156l-213 -229q94 -104 144 -239t50 -283v-5q0 -153 -55.5 -293t-153 -245.5t-240.5 -168.5t-309 -63q-276 0 -477 164l-139 -149h-156zM305 748 q0 -241 148 -426l850 925q-165 142 -390 142q-173 0 -313 -85.5t-217.5 -231.5t-77.5 -322v-2zM526 244q168 -145 392 -142q173 0 313 85.5t217.5 231.5t77.5 322v2q0 241 -148 426z" />
<glyph unicode="&#xd9;" horiz-adv-x="1638" d="M203 623v868h143v-858q0 -251 126 -389t351 -138q220 0 344.5 132.5t124.5 384.5v868h144v-856q0 -317 -167.5 -487.5t-449.5 -170.5q-280 0 -448 169t-168 477zM520 1812l150 70l207 -264h-119z" />
<glyph unicode="&#xda;" horiz-adv-x="1638" d="M203 623v868h143v-858q0 -251 126 -389t351 -138q220 0 344.5 132.5t124.5 384.5v868h144v-856q0 -317 -167.5 -487.5t-449.5 -170.5q-280 0 -448 169t-168 477zM762 1618l207 264l149 -70l-237 -194h-119z" />
<glyph unicode="&#xdb;" horiz-adv-x="1638" d="M203 623v868h143v-858q0 -251 126 -389t351 -138q220 0 344.5 132.5t124.5 384.5v868h144v-856q0 -317 -167.5 -487.5t-449.5 -170.5q-280 0 -448 169t-168 477zM526 1618l228 242h131l227 -242h-137l-158 129l-158 -129h-133z" />
<glyph unicode="&#xdc;" horiz-adv-x="1638" d="M203 623v868h143v-858q0 -251 126 -389t351 -138q220 0 344.5 132.5t124.5 384.5v868h144v-856q0 -317 -167.5 -487.5t-449.5 -170.5q-280 0 -448 169t-168 477zM537 1618v178h180v-178h-180zM926 1618v178h178v-178h-178z" />
<glyph unicode="&#xdd;" horiz-adv-x="1546" d="M72 1491h176l526 -770l531 770h168l-629 -899v-592h-144v590zM715 1618l207 264l149 -70l-237 -194h-119z" />
<glyph unicode="&#xde;" horiz-adv-x="1454" d="M225 0v1491h144v-262h407q252 0 404.5 -124.5t152.5 -340.5v-4q0 -116 -47 -209.5t-127.5 -153t-186 -91.5t-224.5 -32h-379v-274h-144zM369 406h387q195 0 314.5 95.5t119.5 252.5v4q0 164 -115 252t-309 88h-397v-692z" />
<glyph unicode="&#xdf;" horiz-adv-x="1341" d="M201 0v1065q0 226 129.5 365t347.5 139q193 0 311.5 -107.5t118.5 -269.5v-6q0 -141 -90 -242.5t-223 -152.5q84 -16 154 -45.5t128.5 -74.5t91.5 -112t33 -149v-4q0 -194 -153.5 -303t-419.5 -107v115q203 5 316.5 79t113.5 213v5q0 131 -113.5 209t-316.5 100v104 q336 115 336 357v6q0 116 -82.5 189t-212.5 73q-146 0 -239 -104t-93 -275v-1067h-137z" />
<glyph unicode="&#xe0;" horiz-adv-x="1249" d="M115 317v5q0 168 129 261t344 93q184 0 346 -47v43q0 154 -88.5 234.5t-251.5 80.5t-338 -84l-43 115q199 92 393 92q228 0 350 -119q113 -116 113 -315v-676h-135v172q-147 -197 -404 -197q-78 0 -151.5 22.5t-132.5 64t-95 108t-36 147.5zM256 324q0 -105 85.5 -168.5 t207.5 -63.5q161 0 275 89t114 225v114q-180 47 -346 47q-159 0 -247.5 -64t-88.5 -173v-6zM336 1493l151 72l195 -297h-111z" />
<glyph unicode="&#xe1;" horiz-adv-x="1249" d="M115 317v5q0 168 129 261t344 93q184 0 346 -47v43q0 154 -88.5 234.5t-251.5 80.5t-338 -84l-43 115q199 92 393 92q228 0 350 -119q113 -116 113 -315v-676h-135v172q-147 -197 -404 -197q-78 0 -151.5 22.5t-132.5 64t-95 108t-36 147.5zM256 324q0 -105 85.5 -168.5 t207.5 -63.5q161 0 275 89t114 225v114q-180 47 -346 47q-159 0 -247.5 -64t-88.5 -173v-6zM569 1268l195 297l151 -72l-235 -225h-111z" />
<glyph unicode="&#xe2;" horiz-adv-x="1249" d="M115 317v5q0 168 129 261t344 93q184 0 346 -47v43q0 154 -88.5 234.5t-251.5 80.5t-338 -84l-43 115q199 92 393 92q228 0 350 -119q113 -116 113 -315v-676h-135v172q-147 -197 -404 -197q-78 0 -151.5 22.5t-132.5 64t-95 108t-36 147.5zM256 324q0 -105 85.5 -168.5 t207.5 -63.5q161 0 275 89t114 225v114q-180 47 -346 47q-159 0 -247.5 -64t-88.5 -173v-6zM346 1268l219 270h119l221 -270h-123l-159 143l-160 -143h-117z" />
<glyph unicode="&#xe3;" horiz-adv-x="1249" d="M115 317v5q0 168 129 261t344 93q184 0 346 -47v43q0 154 -88.5 234.5t-251.5 80.5t-338 -84l-43 115q199 92 393 92q228 0 350 -119q113 -116 113 -315v-676h-135v172q-147 -197 -404 -197q-78 0 -151.5 22.5t-132.5 64t-95 108t-36 147.5zM256 324q0 -105 85.5 -168.5 t207.5 -63.5q161 0 275 89t114 225v114q-180 47 -346 47q-159 0 -247.5 -64t-88.5 -173v-6zM299 1272q30 117 75 165t118 48q46 0 145 -43q101 -43 133 -43q39 0 62 22.5t47 81.5l88 -22q-30 -117 -75 -165t-118 -48q-46 0 -145 43q-101 43 -133 43q-39 0 -62 -23t-47 -84z " />
<glyph unicode="&#xe4;" horiz-adv-x="1249" d="M115 317v5q0 168 129 261t344 93q184 0 346 -47v43q0 154 -88.5 234.5t-251.5 80.5t-338 -84l-43 115q199 92 393 92q228 0 350 -119q113 -116 113 -315v-676h-135v172q-147 -197 -404 -197q-78 0 -151.5 22.5t-132.5 64t-95 108t-36 147.5zM256 324q0 -105 85.5 -168.5 t207.5 -63.5q161 0 275 89t114 225v114q-180 47 -346 47q-159 0 -247.5 -64t-88.5 -173v-6zM358 1268v188h172v-188h-172zM719 1268v188h172v-188h-172z" />
<glyph unicode="&#xe5;" horiz-adv-x="1249" d="M115 317v5q0 168 129 261t344 93q184 0 346 -47v43q0 154 -88.5 234.5t-251.5 80.5t-338 -84l-43 115q199 92 393 92q228 0 350 -119q113 -116 113 -315v-676h-135v172q-147 -197 -404 -197q-78 0 -151.5 22.5t-132.5 64t-95 108t-36 147.5zM256 324q0 -105 85.5 -168.5 t207.5 -63.5q161 0 275 89t114 225v114q-180 47 -346 47q-159 0 -247.5 -64t-88.5 -173v-6zM397 1481q0 91 67 155t161 64t160.5 -64t66.5 -155q0 -89 -66.5 -153t-160.5 -64t-161 64t-67 153zM477 1481q0 -60 44 -104t104 -44t103.5 44t43.5 104q0 61 -43.5 105t-103.5 44 t-104 -44t-44 -105z" />
<glyph unicode="&#xe6;" horiz-adv-x="2052" d="M115 317v5q0 168 127 261t336 93q169 0 331 -47v43q0 154 -84.5 234.5t-242.5 80.5q-88 0 -164 -21.5t-162 -62.5l-43 115q99 47 186 69.5t195 22.5q160 0 264 -63.5t143 -188.5q66 121 180 191.5t251 70.5q153 0 268.5 -77.5t175 -207.5t59.5 -292q0 -29 -2 -49h-884 q15 -183 130 -290.5t273 -107.5q204 0 358 164l91 -80q-91 -99 -198.5 -152t-254.5 -53q-133 0 -248.5 60.5t-189.5 167.5q-210 -228 -484 -228q-107 0 -198.5 37.5t-152 117t-60.5 187.5zM256 324q0 -106 82 -169t203 -63q235 0 413 211q-41 100 -47 219q-193 45 -323 45 q-156 0 -242 -64t-86 -173v-6zM1049 604h745q-8 108 -50 195.5t-124.5 143.5t-194.5 56q-151 0 -256 -111.5t-120 -283.5z" />
<glyph unicode="&#xe7;" horiz-adv-x="1236" d="M129 543v4q0 152 73.5 283.5t203 210.5t284.5 79q142 0 245 -53t191 -147l-92 -97q-80 82 -160.5 127t-187.5 45q-174 0 -294 -129.5t-120 -314.5v-4q0 -187 123 -317t301 -130q194 0 348 172l91 -84q-87 -98 -186.5 -152.5t-231.5 -60.5l-142 -299l-139 64l164 242 q-205 32 -338 191.5t-133 369.5z" />
<glyph unicode="&#xe8;" horiz-adv-x="1273" d="M129 545v4q0 157 67.5 287.5t187.5 207t267 76.5q154 0 270.5 -77.5t177 -207.5t60.5 -292q0 -29 -4 -49h-885q17 -183 132.5 -290.5t273.5 -107.5q201 0 358 164l88 -80q-91 -99 -197.5 -152t-252.5 -53q-110 0 -209 41.5t-173 115.5t-117.5 181t-43.5 232zM270 604h746 q-8 108 -50 195.5t-124.5 143.5t-194.5 56q-151 0 -256.5 -111.5t-120.5 -283.5zM360 1493l152 72l195 -297h-111z" />
<glyph unicode="&#xe9;" horiz-adv-x="1273" d="M129 545v4q0 157 67.5 287.5t187.5 207t267 76.5q154 0 270.5 -77.5t177 -207.5t60.5 -292q0 -29 -4 -49h-885q17 -183 132.5 -290.5t273.5 -107.5q201 0 358 164l88 -80q-91 -99 -197.5 -152t-252.5 -53q-110 0 -209 41.5t-173 115.5t-117.5 181t-43.5 232zM270 604h746 q-8 108 -50 195.5t-124.5 143.5t-194.5 56q-151 0 -256.5 -111.5t-120.5 -283.5zM594 1268l194 297l152 -72l-235 -225h-111z" />
<glyph unicode="&#xea;" horiz-adv-x="1273" d="M129 545v4q0 157 67.5 287.5t187.5 207t267 76.5q154 0 270.5 -77.5t177 -207.5t60.5 -292q0 -29 -4 -49h-885q17 -183 132.5 -290.5t273.5 -107.5q201 0 358 164l88 -80q-91 -99 -197.5 -152t-252.5 -53q-110 0 -209 41.5t-173 115.5t-117.5 181t-43.5 232zM270 604h746 q-8 108 -50 195.5t-124.5 143.5t-194.5 56q-151 0 -256.5 -111.5t-120.5 -283.5zM373 1268l219 270h119l221 -270h-123l-160 143l-160 -143h-116z" />
<glyph unicode="&#xeb;" horiz-adv-x="1273" d="M129 545v4q0 157 67.5 287.5t187.5 207t267 76.5q154 0 270.5 -77.5t177 -207.5t60.5 -292q0 -29 -4 -49h-885q17 -183 132.5 -290.5t273.5 -107.5q201 0 358 164l88 -80q-91 -99 -197.5 -152t-252.5 -53q-110 0 -209 41.5t-173 115.5t-117.5 181t-43.5 232zM270 604h746 q-8 108 -50 195.5t-124.5 143.5t-194.5 56q-151 0 -256.5 -111.5t-120.5 -283.5zM385 1268v188h172v-188h-172zM745 1268v188h173v-188h-173z" />
<glyph unicode="&#xec;" horiz-adv-x="567" d="M-6 1493l151 72l195 -297h-111zM215 0v1094h137v-1094h-137z" />
<glyph unicode="&#xed;" horiz-adv-x="567" d="M215 0v1094h137v-1094h-137zM227 1268l195 297l151 -72l-235 -225h-111z" />
<glyph unicode="&#xee;" horiz-adv-x="567" d="M4 1268l219 270h119l221 -270h-123l-159 143l-160 -143h-117zM215 0v1094h137v-1094h-137z" />
<glyph unicode="&#xef;" horiz-adv-x="567" d="M16 1268v188h172v-188h-172zM215 0v1094h137v-1094h-137zM377 1268v188h172v-188h-172z" />
<glyph unicode="&#xf0;" horiz-adv-x="1390" d="M129 549v4q0 157 74 282.5t192 192t254 66.5q224 0 402 -166q-84 184 -316 403l-241 -108l-48 90l205 92q-50 45 -184 149h203l108 -92l217 99l49 -91l-186 -84q402 -388 402 -784v-4q0 -276 -159 -449.5t-415 -173.5q-154 0 -282 77.5t-201.5 209.5t-73.5 287zM272 541 q0 -119 55 -220t153 -161t216 -60q182 0 301 127.5t119 317.5v4q0 183 -123 304.5t-315 121.5q-181 0 -293.5 -122t-112.5 -308v-4z" />
<glyph unicode="&#xf1;" horiz-adv-x="1329" d="M201 0v1094h137v-195q129 221 383 221q199 0 313.5 -122.5t114.5 -321.5v-676h-137v643q0 162 -85.5 256t-238.5 94q-151 0 -250.5 -102t-99.5 -262v-629h-137zM346 1272q30 117 75 165t118 48q46 0 145 -43q101 -43 133 -43q39 0 62 22.5t47 81.5l88 -22 q-30 -117 -75 -165t-118 -48q-46 0 -145 43q-101 43 -133 43q-39 0 -62 -23t-47 -84z" />
<glyph unicode="&#xf2;" horiz-adv-x="1390" d="M129 543v4q0 115 43 220t117.5 182.5t181 124t227.5 46.5q120 0 225.5 -45.5t180 -122.5t117.5 -181.5t43 -219.5v-4q0 -153 -73 -283.5t-205 -209.5t-292 -79t-290.5 78t-202.5 207.5t-72 282.5zM272 547q0 -123 55.5 -225.5t153.5 -162t217 -59.5q120 0 217 60 t150 161.5t53 221.5v4q0 187 -122.5 317.5t-301.5 130.5q-183 0 -302.5 -129t-119.5 -315v-4zM406 1493l151 72l195 -297h-111z" />
<glyph unicode="&#xf3;" horiz-adv-x="1390" d="M129 543v4q0 115 43 220t117.5 182.5t181 124t227.5 46.5q120 0 225.5 -45.5t180 -122.5t117.5 -181.5t43 -219.5v-4q0 -153 -73 -283.5t-205 -209.5t-292 -79t-290.5 78t-202.5 207.5t-72 282.5zM272 547q0 -123 55.5 -225.5t153.5 -162t217 -59.5q120 0 217 60 t150 161.5t53 221.5v4q0 187 -122.5 317.5t-301.5 130.5q-183 0 -302.5 -129t-119.5 -315v-4zM639 1268l195 297l151 -72l-235 -225h-111z" />
<glyph unicode="&#xf4;" horiz-adv-x="1390" d="M129 543v4q0 115 43 220t117.5 182.5t181 124t227.5 46.5q120 0 225.5 -45.5t180 -122.5t117.5 -181.5t43 -219.5v-4q0 -153 -73 -283.5t-205 -209.5t-292 -79t-290.5 78t-202.5 207.5t-72 282.5zM272 547q0 -123 55.5 -225.5t153.5 -162t217 -59.5q120 0 217 60 t150 161.5t53 221.5v4q0 187 -122.5 317.5t-301.5 130.5q-183 0 -302.5 -129t-119.5 -315v-4zM418 1268l219 270h119l221 -270h-123l-160 143l-159 -143h-117z" />
<glyph unicode="&#xf5;" horiz-adv-x="1390" d="M129 543v4q0 115 43 220t117.5 182.5t181 124t227.5 46.5q120 0 225.5 -45.5t180 -122.5t117.5 -181.5t43 -219.5v-4q0 -153 -73 -283.5t-205 -209.5t-292 -79t-290.5 78t-202.5 207.5t-72 282.5zM272 547q0 -123 55.5 -225.5t153.5 -162t217 -59.5q120 0 217 60 t150 161.5t53 221.5v4q0 187 -122.5 317.5t-301.5 130.5q-183 0 -302.5 -129t-119.5 -315v-4zM369 1272q30 117 74.5 165t117.5 48q47 0 146 -43q101 -43 133 -43q39 0 61.5 22.5t46.5 81.5l88 -22q-30 -117 -74.5 -165t-117.5 -48q-47 0 -146 43q-101 43 -133 43 q-39 0 -61.5 -23t-46.5 -84z" />
<glyph unicode="&#xf6;" horiz-adv-x="1390" d="M129 543v4q0 115 43 220t117.5 182.5t181 124t227.5 46.5q120 0 225.5 -45.5t180 -122.5t117.5 -181.5t43 -219.5v-4q0 -153 -73 -283.5t-205 -209.5t-292 -79t-290.5 78t-202.5 207.5t-72 282.5zM272 547q0 -123 55.5 -225.5t153.5 -162t217 -59.5q120 0 217 60 t150 161.5t53 221.5v4q0 187 -122.5 317.5t-301.5 130.5q-183 0 -302.5 -129t-119.5 -315v-4zM430 1268v188h172v-188h-172zM791 1268v188h172v-188h-172z" />
<glyph unicode="&#xf7;" horiz-adv-x="1347" d="M156 686v127h1036v-127h-1036zM575 229v207h195v-207h-195zM575 1063v207h195v-207h-195z" />
<glyph unicode="&#xf8;" horiz-adv-x="1390" d="M96 -10l170 178q-65 76 -101 173t-36 202v4q0 115 43 220t117.5 182.5t181 124t227.5 46.5q201 0 351 -121l100 109h145l-170 -180q140 -159 140 -377v-4q0 -153 -73 -283.5t-205 -209.5t-292 -79q-199 0 -350 119l-102 -104h-146zM270 549q0 -160 90 -283l601 635 q-117 96 -267 96q-122 0 -220 -60t-151 -162t-53 -224v-2zM430 193q118 -100 268 -97q122 0 220 60.5t151 162.5t53 224v2q0 160 -94 284z" />
<glyph unicode="&#xf9;" horiz-adv-x="1329" d="M180 420v674h137v-643q0 -161 86 -256t238 -95q151 0 250.5 102.5t99.5 262.5v629h137v-1094h-137v197q-130 -222 -383 -222q-199 0 -313.5 122.5t-114.5 322.5zM365 1493l151 72l195 -297h-111z" />
<glyph unicode="&#xfa;" horiz-adv-x="1329" d="M180 420v674h137v-643q0 -161 86 -256t238 -95q151 0 250.5 102.5t99.5 262.5v629h137v-1094h-137v197q-130 -222 -383 -222q-199 0 -313.5 122.5t-114.5 322.5zM598 1268l195 297l151 -72l-235 -225h-111z" />
<glyph unicode="&#xfb;" horiz-adv-x="1329" d="M180 420v674h137v-643q0 -161 86 -256t238 -95q151 0 250.5 102.5t99.5 262.5v629h137v-1094h-137v197q-130 -222 -383 -222q-199 0 -313.5 122.5t-114.5 322.5zM375 1268l219 270h119l221 -270h-123l-160 143l-159 -143h-117z" />
<glyph unicode="&#xfc;" horiz-adv-x="1329" d="M180 420v674h137v-643q0 -161 86 -256t238 -95q151 0 250.5 102.5t99.5 262.5v629h137v-1094h-137v197q-130 -222 -383 -222q-199 0 -313.5 122.5t-114.5 322.5zM387 1268v188h172v-188h-172zM748 1268v188h172v-188h-172z" />
<glyph unicode="&#xfd;" horiz-adv-x="1275" d="M88 1094h154l424 -942l368 942h150l-467 -1131q-69 -168 -154.5 -239.5t-208.5 -71.5q-115 0 -227 53l47 113q84 -41 178 -41q79 0 135 50.5t111 176.5zM590 1268l194 297l152 -72l-236 -225h-110z" />
<glyph unicode="&#xfe;" horiz-adv-x="1431" d="M201 -340v1894h137v-690q172 256 434 256q79 0 155.5 -24.5t143 -73t117.5 -116t80.5 -159.5t29.5 -196v-4q0 -104 -29.5 -196.5t-80.5 -160t-117.5 -117t-143 -74t-155.5 -24.5q-266 0 -434 246v-561h-137zM332 545q0 -96 35 -180t93 -141t134 -89.5t156 -32.5 q173 0 288 120t115 321v4q0 99 -32.5 184t-87.5 141.5t-128.5 88.5t-154.5 32q-80 0 -156 -32.5t-134 -90t-93 -141.5t-35 -180v-4z" />
<glyph unicode="&#xff;" horiz-adv-x="1275" d="M88 1094h154l424 -942l368 942h150l-467 -1131q-69 -168 -154.5 -239.5t-208.5 -71.5q-115 0 -227 53l47 113q84 -41 178 -41q79 0 135 50.5t111 176.5zM379 1268v188h172v-188h-172zM739 1268v188h172v-188h-172z" />
<glyph unicode="&#x152;" horiz-adv-x="2449" d="M160 741v4q0 156 58.5 293.5t161 237.5t251 157.5t321.5 57.5h1346v-131h-893v-543h797v-131h-797v-555h903v-131h-1356q-173 0 -321 57t-251 156t-161.5 235.5t-58.5 292.5zM309 745q0 -127 46 -239.5t128 -195.5t203.5 -131t265.5 -48h310v1229h-310 q-144 0 -265.5 -47.5t-204 -129.5t-128 -193.5t-45.5 -239.5v-5z" />
<glyph unicode="&#x153;" horiz-adv-x="2260" d="M129 543v4q0 114 43.5 219.5t118 183t180 124t223.5 46.5q162 0 292 -85.5t196 -225.5q63 142 184 226.5t274 84.5t269 -77.5t176.5 -207.5t60.5 -292q0 -9 -4 -49h-885q17 -183 131.5 -290.5t272.5 -107.5q204 0 358 164l90 -80q-91 -99 -197 -152t-251 -53 q-156 0 -284.5 84t-194.5 230q-66 -142 -197.5 -228t-296.5 -86q-155 0 -284 77.5t-202 208t-73 282.5zM272 547q0 -187 122.5 -317t301.5 -130q120 0 217 60t150 161.5t53 221.5v4q0 187 -122.5 317.5t-301.5 130.5q-120 0 -217 -60.5t-150 -162t-53 -221.5v-4zM1257 604 h746q-8 108 -50 195.5t-124.5 143.5t-194.5 56q-151 0 -256.5 -111.5t-120.5 -283.5z" />
<glyph unicode="&#x178;" horiz-adv-x="1546" d="M72 1491h176l526 -770l531 770h168l-629 -899v-592h-144v590zM489 1618v178h181v-178h-181zM879 1618v178h178v-178h-178z" />
<glyph unicode="&#x2c6;" horiz-adv-x="1085" d="M264 1268l219 270h119l221 -270h-123l-159 143l-160 -143h-117z" />
<glyph unicode="&#x2dc;" horiz-adv-x="1085" d="M209 1272q30 117 74.5 165t117.5 48q47 0 146 -43q101 -43 133 -43q39 0 61.5 22.5t46.5 81.5l89 -22q-30 -117 -75 -165t-118 -48q-46 0 -145 43q-101 43 -133 43q-39 0 -62 -23t-47 -84z" />
<glyph unicode="&#x2000;" horiz-adv-x="955" />
<glyph unicode="&#x2001;" horiz-adv-x="1911" />
<glyph unicode="&#x2002;" horiz-adv-x="955" />
<glyph unicode="&#x2003;" horiz-adv-x="1911" />
<glyph unicode="&#x2004;" horiz-adv-x="637" />
<glyph unicode="&#x2005;" horiz-adv-x="477" />
<glyph unicode="&#x2006;" horiz-adv-x="318" />
<glyph unicode="&#x2007;" horiz-adv-x="318" />
<glyph unicode="&#x2008;" horiz-adv-x="238" />
<glyph unicode="&#x2009;" horiz-adv-x="382" />
<glyph unicode="&#x200a;" horiz-adv-x="106" />
<glyph unicode="&#x2010;" horiz-adv-x="888" d="M154 563v148h583v-148h-583z" />
<glyph unicode="&#x2011;" horiz-adv-x="888" d="M154 563v148h583v-148h-583z" />
<glyph unicode="&#x2012;" horiz-adv-x="888" d="M154 563v148h583v-148h-583z" />
<glyph unicode="&#x2013;" horiz-adv-x="1144" d="M154 567v140h837v-140h-837z" />
<glyph unicode="&#x2014;" horiz-adv-x="1933" d="M154 567v140h1626v-140h-1626z" />
<glyph unicode="&#x2018;" horiz-adv-x="528" d="M168 1051v178q0 114 49.5 177.5t159.5 94.5l26 -65q-75 -31 -106 -73t-27 -108h70v-204h-172z" />
<glyph unicode="&#x2019;" horiz-adv-x="528" d="M125 1106q76 33 106.5 74t26.5 106h-70v205h172v-176q0 -116 -49 -179t-159 -96z" />
<glyph unicode="&#x201a;" horiz-adv-x="528" d="M115 -180q75 32 106 74t27 106h-70v205h172v-176q0 -115 -49.5 -178.5t-159.5 -96.5z" />
<glyph unicode="&#x201c;" horiz-adv-x="935" d="M168 1051v178q0 114 49.5 177.5t159.5 94.5l26 -65q-75 -31 -106 -73t-27 -108h70v-204h-172zM575 1051v178q0 115 49 178t160 94l27 -65q-76 -31 -107.5 -73.5t-25.5 -107.5h67v-204h-170z" />
<glyph unicode="&#x201d;" horiz-adv-x="935" d="M125 1106q76 33 106.5 74t26.5 106h-70v205h172v-176q0 -116 -49 -179t-159 -96zM532 1106q76 33 107 74t27 106h-70v205h172v-176q0 -116 -49.5 -179t-161.5 -96z" />
<glyph unicode="&#x201e;" horiz-adv-x="935" d="M115 -180q75 32 106 74t27 106h-70v205h172v-176q0 -115 -49.5 -178.5t-159.5 -96.5zM522 -180q75 33 106 74.5t25 105.5h-67v205h172v-176q0 -116 -49.5 -179t-161.5 -96z" />
<glyph unicode="&#x2022;" horiz-adv-x="1030" d="M244 748v4q0 111 81 190.5t191 79.5q108 0 190 -79.5t82 -190.5v-4q0 -112 -79.5 -191.5t-192.5 -79.5t-192.5 79.5t-79.5 191.5z" />
<glyph unicode="&#x2026;" horiz-adv-x="1519" d="M178 0v201h166v-201h-166zM676 0v201h168v-201h-168zM1176 0v201h165v-201h-165z" />
<glyph unicode="&#x202f;" horiz-adv-x="382" />
<glyph unicode="&#x2039;" horiz-adv-x="702" d="M115 539v16l348 451l100 -62l-287 -395l287 -399l-100 -60z" />
<glyph unicode="&#x203a;" horiz-adv-x="702" d="M139 150l287 395l-287 399l101 62l348 -451v-16l-348 -449z" />
<glyph unicode="&#x205f;" horiz-adv-x="477" />
<glyph unicode="&#x20ac;" horiz-adv-x="1554" d="M133 512v121h172q-4 35 -4 110v2q0 72 8 132h-176v118h199q62 230 217.5 376t361.5 145q121 0 220 -40t165 -101t127 -152l-108 -78q-59 84 -113.5 134.5t-128 80t-166.5 29.5q-150 0 -264 -108t-166 -286h574v-118h-598q-11 -79 -11 -129v-3q0 -47 7 -112h602v-121h-580 q48 -187 171 -299t288 -111q125 0 219 66t176 192l102 -71q-96 -149 -215.5 -231.5t-285.5 -82.5q-222 0 -383 147t-217 390h-193z" />
<glyph unicode="&#x2122;" horiz-adv-x="1490" d="M66 1409v82h509v-82h-210v-573h-86v573h-213zM723 836v655h90l244 -373l243 373h89v-655h-84v512l-244 -367h-10l-244 367v-512h-84z" />
<glyph unicode="&#x25fc;" horiz-adv-x="1095" d="M0 0v1096h1096v-1096h-1096z" />
<glyph unicode="&#xfb01;" horiz-adv-x="1345" d="M109 971v123h153v100q0 187 96 283q86 86 234 86q86 0 172 -27v-123q-88 27 -160 27q-104 0 -154.5 -62t-50.5 -190v-94h363v-123h-363v-971h-137v971h-153zM981 1354v166h162v-166h-162zM993 0v1094h137v-1094h-137z" />
<glyph unicode="&#xfb02;" horiz-adv-x="1345" d="M109 971v123h153v100q0 187 96 283q86 86 234 86q86 0 172 -27v-123q-88 27 -160 27q-104 0 -154.5 -62t-50.5 -190v-94h363v-123h-363v-971h-137v971h-153zM993 0v1554h137v-1554h-137z" />
<glyph unicode="&#xfb03;" horiz-adv-x="2121" d="M109 971v123h153v100q0 187 96 283q86 86 234 86q86 0 172 -27v-123q-88 27 -160 27q-104 0 -154.5 -62t-50.5 -190v-94h363v-123h-363v-971h-137v971h-153zM887 971v123h153v100q0 186 97 283q86 86 233 86q86 0 172 -27v-123q-88 27 -160 27q-104 0 -154 -62t-50 -190 v-94h362v-123h-362v-971h-138v971h-153zM1757 1354v166h162v-166h-162zM1769 0v1094h138v-1094h-138z" />
<glyph unicode="&#xfb04;" horiz-adv-x="2121" d="M109 971v123h153v100q0 187 96 283q86 86 234 86q86 0 172 -27v-123q-88 27 -160 27q-104 0 -154.5 -62t-50.5 -190v-94h363v-123h-363v-971h-137v971h-153zM887 971v123h153v100q0 186 97 283q86 86 233 86q86 0 172 -27v-123q-88 27 -160 27q-104 0 -154 -62t-50 -190 v-94h362v-123h-362v-971h-138v971h-153zM1769 0v1554h138v-1554h-138z" />
</font>
</defs>
</svg>
