<?xml version="1.0" standalone="no"?>
<!DOCTYPE svg PUBLIC "-//W3C//DTD SVG 1.1//EN" "http://www.w3.org/Graphics/SVG/1.1/DTD/svg11.dtd" >
<svg xmlns="http://www.w3.org/2000/svg">
<metadata></metadata>
<defs>
<font id="gotham_ssmlight_italic" horiz-adv-x="1822" >
<font-face units-per-em="2048" ascent="1638" descent="-410" />
<missing-glyph horiz-adv-x="663" />
<glyph horiz-adv-x="0" />
<glyph horiz-adv-x="682" />
<glyph unicode=" "  horiz-adv-x="663" />
<glyph unicode="&#x09;" horiz-adv-x="663" />
<glyph unicode="&#xa0;" horiz-adv-x="663" />
<glyph unicode="!" horiz-adv-x="583" d="M59 0l56 205h170l-56 -205h-170zM215 408l213 950l35 133h162l-35 -133l-297 -950h-78z" />
<glyph unicode="&#x22;" horiz-adv-x="935" d="M227 930l195 561h168v-10l-285 -551h-78zM631 930l194 561h168v-10l-284 -551h-78z" />
<glyph unicode="#" horiz-adv-x="1472" d="M80 387l33 125h254l168 475h-271l33 125h281l131 379h129l-131 -379h421l132 379h129l-132 -379h244l-33 -125h-256l-165 -475h270l-33 -125h-280l-136 -387h-129l135 387h-421l-134 -387h-129l134 387h-244zM498 512h420l165 475h-419z" />
<glyph unicode="$" horiz-adv-x="1347" d="M8 262l105 90q151 -178 399 -217l156 574q-202 75 -289.5 157.5t-87.5 214.5q0 116 66.5 210t182.5 147t259 53q28 0 82 -4l34 127h123l-41 -144q208 -42 363 -190l-98 -98q-131 128 -308 166l-147 -541q191 -70 277.5 -158t86.5 -221q0 -187 -153.5 -307.5 t-396.5 -120.5h-33l-58 -209h-122l61 221q-144 23 -262 88t-199 162zM436 1096q0 -86 60.5 -140.5t210.5 -111.5l141 518q-10 0 -31 1t-31 1q-156 0 -253 -76.5t-97 -191.5zM621 127h22q172 0 277.5 81t105.5 206q0 83 -57 141.5t-199 116.5z" />
<glyph unicode="%" horiz-adv-x="1792" d="M150 0l1449 1491h150l-1450 -1491h-149zM207 1044q0 99 38 190.5t105 158.5q117 114 264 114q132 0 215.5 -88t83.5 -219q0 -98 -38 -188.5t-105 -159.5q-118 -115 -266 -115q-130 0 -213.5 88t-83.5 219zM328 1055q0 -97 49 -155t137 -58q90 0 168 78q51 51 81 123 t30 147q0 97 -49.5 155t-137.5 58q-89 0 -168 -76q-51 -53 -80.5 -125t-29.5 -147zM985 291q0 98 38 188.5t105 159.5q118 115 265 115q132 0 215.5 -88.5t83.5 -219.5q0 -98 -38.5 -189.5t-105.5 -158.5q-117 -114 -266 -114q-130 0 -213.5 88t-83.5 219zM1106 301 q0 -97 49 -155t137 -58q89 0 168 76q51 53 81 125.5t30 146.5q0 97 -49.5 155t-137.5 58q-89 0 -167 -78q-51 -51 -81 -123t-30 -147z" />
<glyph unicode="&#x26;" horiz-adv-x="1497" d="M76 356q0 174 128 304t378 196q-97 151 -97 279q0 161 118.5 271t287.5 110q161 0 259.5 -87.5t98.5 -228.5q0 -280 -473 -412l285 -395q130 146 237 338l101 -61q-135 -222 -264 -369l184 -260l-107 -72l-172 242q-126 -119 -250 -175t-282 -56q-188 0 -310 100.5 t-122 275.5zM217 369q0 -122 83 -194.5t224 -72.5q231 0 447 201l-324 459q-217 -55 -323.5 -158.5t-106.5 -234.5zM621 1137q0 -63 21 -121t71 -133q399 106 399 311q0 90 -62 147.5t-165 57.5q-108 0 -186 -77t-78 -185z" />
<glyph unicode="'" horiz-adv-x="532" d="M227 930l195 561h168v-10l-285 -551h-78z" />
<glyph unicode="(" horiz-adv-x="946" d="M211 461q0 201 78 388t235 345q207 204 529 336l49 -105q-280 -120 -465 -301q-283 -286 -283 -659q0 -110 23.5 -208t69 -181.5t97 -151t122.5 -139.5l-82 -84q-373 327 -373 760z" />
<glyph unicode=")" horiz-adv-x="946" d="M-121 -193q281 120 465 304q144 144 213.5 312.5t69.5 344.5q0 110 -23.5 208t-69 182t-96.5 151t-121 141l80 82q373 -324 373 -760q0 -200 -78.5 -387.5t-234.5 -343.5q-205 -205 -529 -338z" />
<glyph unicode="*" horiz-adv-x="940" d="M297 1141l272 49l-211 176l74 74l176 -207l49 264l99 -24l-90 -256l256 92l28 -101l-272 -49l211 -176l-74 -74l-176 207l-49 -264l-101 25l93 256l-256 -93z" />
<glyph unicode="+" horiz-adv-x="1351" d="M195 684l34 131h451l121 447h135l-119 -447h451l-35 -131h-453l-118 -446h-138l121 446h-450z" />
<glyph unicode="," horiz-adv-x="544" d="M-78 -180q162 47 187 180h-70l57 205h170l-47 -176q-35 -126 -97.5 -186t-182.5 -87z" />
<glyph unicode="-" horiz-adv-x="897" d="M160 563l41 148h583l-41 -148h-583z" />
<glyph unicode="." horiz-adv-x="544" d="M39 0l57 205h170l-55 -205h-172z" />
<glyph unicode="/" horiz-adv-x="1099" d="M-250 -272l1514 1972h143l-1513 -1972h-144z" />
<glyph unicode="0" horiz-adv-x="1542" d="M180 543q0 214 82 420.5t223 347.5q205 205 467 205q162 0 279 -73.5t175 -200.5t58 -294q0 -215 -81.5 -421.5t-223.5 -346.5q-202 -205 -467 -205q-161 0 -278 73.5t-175.5 201t-58.5 293.5zM330 541q0 -193 97 -315t275 -122q188 0 345 160q123 122 196.5 307.5 t73.5 378.5q0 125 -41.5 222.5t-127.5 155.5t-206 58q-186 0 -342 -159q-123 -122 -196.5 -307.5t-73.5 -378.5z" />
<glyph unicode="1" horiz-adv-x="768" d="M211 0l360 1341l-307 -92l-4 127l389 125h107l-402 -1501h-143z" />
<glyph unicode="2" horiz-adv-x="1286" d="M-31 0l27 111l854 665q133 104 194.5 187.5t61.5 177.5q0 107 -80.5 174t-218.5 67q-215 0 -416 -208l-96 90q233 247 518 247q195 0 317.5 -100.5t122.5 -261.5q0 -127 -75.5 -231t-237.5 -230l-711 -555h826l-35 -133h-1051z" />
<glyph unicode="3" horiz-adv-x="1314" d="M25 264l114 72q125 -232 410 -232q187 0 309.5 98.5t122.5 250.5q0 132 -106 200t-291 68h-68l-20 78l628 561h-762l37 131h965l-29 -105l-626 -557q118 -7 211 -48.5t151.5 -123.5t58.5 -192q0 -182 -133 -315q-82 -82 -201 -128.5t-253 -46.5q-188 0 -319.5 77 t-198.5 212z" />
<glyph unicode="4" horiz-adv-x="1402" d="M68 465l1120 1036h135l-274 -1022h235l-33 -121h-235l-96 -358h-140l97 358h-789zM258 479h651l217 807z" />
<glyph unicode="5" horiz-adv-x="1306" d="M39 242l113 77q152 -219 405 -219q200 0 327.5 115.5t127.5 273.5q0 140 -96 221t-248 81q-163 0 -322 -86l-86 67l236 719h821l-37 -133h-692l-170 -504q45 24 127.5 42.5t144.5 18.5q215 0 343 -112t128 -303q0 -201 -147 -348q-182 -177 -465 -177q-176 0 -303.5 73 t-206.5 194z" />
<glyph unicode="6" horiz-adv-x="1388" d="M182 522q0 236 81 441t216 340q213 213 486 213q270 0 438 -193l-96 -96q-145 159 -351 159q-207 0 -372 -165q-95 -95 -163 -236.5t-81 -284.5q71 101 186.5 167.5t259.5 66.5q108 0 198 -34.5t150 -94t93 -138t33 -165.5q0 -101 -39 -193.5t-111 -163.5 q-170 -170 -424 -170q-108 0 -201 36t-157 100q-146 146 -146 411zM336 432q0 -142 90 -235q102 -99 266 -99q182 0 307 125q115 115 115 271q0 59 -21.5 114t-63 100t-110 72t-153.5 27q-195 0 -322 -127q-108 -108 -108 -248z" />
<glyph unicode="7" horiz-adv-x="1265" d="M160 0l991 1358h-832l37 133h1002l-31 -107l-1001 -1384h-166z" />
<glyph unicode="8" horiz-adv-x="1396" d="M94 373q0 116 60.5 205.5t158.5 141.5t226 73q-96 37 -158 119.5t-62 193.5q0 170 153 287.5t382 117.5q219 0 359.5 -107.5t140.5 -275.5q0 -149 -107 -251.5t-270 -133.5q107 -41 181.5 -128t74.5 -205q0 -121 -76 -219.5t-211 -154.5t-303 -56q-241 0 -395 113 t-154 280zM240 389q0 -127 112.5 -207t296.5 -80q196 0 317 88t121 226q0 120 -111.5 203t-293.5 83q-199 0 -319.5 -91t-122.5 -222zM461 1094q0 -117 98 -195t252 -78q94 0 171 25.5t125.5 67.5t74.5 94t26 108q0 119 -98.5 194.5t-257.5 75.5q-173 0 -281 -83t-110 -209z " />
<glyph unicode="9" horiz-adv-x="1388" d="M76 182l98 94q79 -84 166.5 -128t198.5 -44q202 0 368 166q96 94 162.5 232t81.5 280q-46 -64 -103.5 -114.5t-150 -88.5t-197.5 -38q-107 0 -197 35t-149.5 95t-92.5 140t-32 170q0 103 41 197.5t115 167.5q170 170 422 170q107 0 199.5 -36t156.5 -100 q148 -145 148 -417q0 -232 -82 -436t-217 -339q-213 -213 -482 -213q-270 0 -454 207zM377 987q-1 -61 20.5 -117t63 -101.5t111 -73t157.5 -27.5q186 0 313 127q53 53 84 123.5t31 144.5q0 137 -92 229q-101 101 -264 101q-182 0 -305 -123q-116 -116 -119 -283z" />
<glyph unicode=":" horiz-adv-x="563" d="M49 0l55 205h172l-55 -205h-172zM287 889l55 205h172l-55 -205h-172z" />
<glyph unicode=";" horiz-adv-x="563" d="M-70 -180q165 47 187 180h-68l55 205h172l-49 -176q-35 -126 -97.5 -186t-182.5 -87zM287 889l55 205h172l-55 -205h-172z" />
<glyph unicode="&#x3c;" horiz-adv-x="1351" d="M184 692l31 117l1131 504l-39 -156l-951 -416l725 -422l-37 -131z" />
<glyph unicode="=" horiz-adv-x="1351" d="M158 436l37 137h974l-39 -137h-972zM291 928l35 135h974l-36 -135h-973z" />
<glyph unicode="&#x3e;" horiz-adv-x="1351" d="M111 188l41 154l948 418l-723 420l37 133l860 -504l-33 -117z" />
<glyph unicode="?" horiz-adv-x="1165" d="M225 1296q213 213 500 213q197 0 315.5 -105.5t118.5 -268.5q0 -102 -43.5 -186t-121 -142.5t-177.5 -96.5t-219 -55l-88 -247h-90l61 344l15 12q235 18 375.5 112.5t140.5 249.5q0 119 -84.5 186.5t-216.5 67.5q-114 0 -218.5 -50t-183.5 -128zM272 0l56 205h170 l-56 -205h-170z" />
<glyph unicode="@" horiz-adv-x="2111" d="M150 494q0 162 53 316.5t149.5 281.5t225 223t288 149.5t328.5 53.5q193 0 352.5 -58.5t265 -160.5t163 -238.5t57.5 -292.5q0 -148 -42 -269t-108.5 -194t-144 -112t-154.5 -39q-112 0 -179 54t-85 150q-168 -208 -387 -208q-144 0 -240 96.5t-96 257.5q0 115 45 221 t117.5 181t167 120t190.5 45q122 0 203.5 -61t116.5 -156l61 197l121 -33l-160 -514q-18 -61 -18 -107q0 -73 42.5 -117t119.5 -44q44 0 91.5 20t94 63.5t83.5 104.5t60 150.5t23 193.5q0 141 -52.5 265t-148 215.5t-240 144.5t-319.5 53q-195 0 -375 -78t-309.5 -207 t-207 -304.5t-77.5 -362.5q0 -343 224.5 -553.5t592.5 -210.5q233 0 441 96l30 -64q-222 -104 -471 -104q-267 0 -470 104.5t-312.5 294t-109.5 437.5zM737 512q0 -114 63.5 -180t164.5 -66q75 0 151 36t134.5 94.5t95 137t36.5 158.5q0 116 -71 189t-189 73 q-103 0 -191.5 -60t-141 -162t-52.5 -220z" />
<glyph unicode="A" horiz-adv-x="1642" d="M-68 0l1090 1501h137l283 -1501h-146l-71 406h-844l-291 -406h-158zM473 535h727l-145 806z" />
<glyph unicode="B" horiz-adv-x="1552" d="M82 0l399 1491h557q212 0 333.5 -91.5t121.5 -250.5q0 -156 -107.5 -260.5t-275.5 -136.5q124 -35 199 -112.5t75 -199.5q0 -195 -168 -317.5t-454 -122.5h-680zM258 129h516q215 0 340 84t125 231q0 118 -100.5 181t-264.5 63h-466zM442 815h441q211 0 337 86.5 t126 228.5q0 113 -84 172.5t-238 59.5h-436z" />
<glyph unicode="C" horiz-adv-x="1593" d="M201 584q0 188 75 363.5t207 307.5q124 122 281.5 191.5t329.5 69.5q197 0 338 -87t217 -233l-123 -72q-76 129 -180.5 195.5t-264.5 66.5q-137 0 -262 -56t-223 -154q-116 -116 -182 -270t-66 -316q0 -221 136 -353.5t350 -132.5q148 0 260 54t221 159l94 -92 q-114 -118 -255.5 -185t-330.5 -67q-128 0 -241.5 42.5t-198 120t-133.5 193.5t-49 255z" />
<glyph unicode="D" horiz-adv-x="1669" d="M82 0l399 1491h350q182 0 332.5 -51t247.5 -148q164 -167 164 -428q0 -342 -234 -579q-137 -135 -334 -210t-427 -75h-498zM260 131h338q192 0 353.5 63t281.5 181q192 195 192 481q0 219 -131 344q-157 160 -473 160h-231z" />
<glyph unicode="E" horiz-adv-x="1411" d="M82 0l399 1491h1061l-37 -131h-915l-148 -543h822l-35 -131h-821l-148 -555h928l-37 -131h-1069z" />
<glyph unicode="F" horiz-adv-x="1423" d="M82 0l399 1491h1063l-35 -131h-919l-154 -567h826l-37 -131h-824l-176 -662h-143z" />
<glyph unicode="G" horiz-adv-x="1697" d="M203 604q0 177 73 345t205 300q125 125 287.5 196t347.5 71q374 0 555 -273l-110 -82q-36 51 -74.5 88.5t-92.5 70t-126.5 49.5t-163.5 17q-148 0 -279.5 -58t-234.5 -161q-111 -111 -174.5 -258t-63.5 -301q0 -234 141.5 -370t370.5 -136q235 0 406 113l127 442h-471 l35 129h610l-187 -657q-246 -156 -528 -156q-137 0 -256.5 44t-207.5 123.5t-138.5 199.5t-50.5 264z" />
<glyph unicode="H" horiz-adv-x="1634" d="M82 0l399 1491h144l-181 -676h891l183 676h141l-399 -1491h-144l184 684h-892l-183 -684h-143z" />
<glyph unicode="I" horiz-adv-x="628" d="M96 0l400 1491h143l-399 -1491h-144z" />
<glyph unicode="J" horiz-adv-x="1200" d="M-10 307l119 60q45 -130 121.5 -194t195.5 -64q152 0 260 108q103 103 160 322l256 952h145l-262 -977q-35 -134 -83 -227.5t-118 -163.5q-69 -69 -162.5 -106t-193.5 -37q-172 0 -281.5 89t-156.5 238z" />
<glyph unicode="K" horiz-adv-x="1550" d="M82 0l399 1491h144l-248 -924l1124 924h207l-813 -660l436 -831h-162l-391 748l-452 -371l-101 -377h-143z" />
<glyph unicode="L" horiz-adv-x="1310" d="M82 0l399 1491h144l-365 -1360h856l-37 -131h-997z" />
<glyph unicode="M" horiz-adv-x="1873" d="M82 0l399 1491h129l340 -844l793 844h155l-401 -1491h-141l334 1247l-785 -825h-10l-340 823l-336 -1245h-137z" />
<glyph unicode="N" horiz-adv-x="1697" d="M82 0l399 1491h133l635 -1251l338 1251h139l-401 -1491h-111l-651 1280l-342 -1280h-139z" />
<glyph unicode="O" d="M207 616q0 179 73 349.5t201 298.5q119 119 270.5 185.5t319.5 66.5q188 0 337 -85.5t230.5 -232t81.5 -326.5t-72.5 -350t-199.5 -297q-118 -118 -271 -185t-321 -67q-187 0 -336 85t-231 231.5t-82 326.5zM356 621q0 -146 61.5 -264t178 -186.5t266.5 -68.5 q135 0 257 54.5t218 150.5q110 110 172 258t62 303q0 146 -61.5 263.5t-178 186t-266.5 68.5q-135 0 -256.5 -54t-218.5 -150q-110 -111 -172 -259t-62 -302z" />
<glyph unicode="P" horiz-adv-x="1441" d="M82 0l399 1491h467q281 0 418 -137q104 -101 104 -273q0 -209 -135 -344q-95 -95 -249 -144.5t-351 -49.5h-364l-146 -543h-143zM406 670h335q337 0 486 149q98 98 98 254q0 114 -72 189q-103 98 -309 98h-354z" />
<glyph unicode="Q" d="M207 616q0 179 73 349.5t201 298.5q119 119 270.5 185.5t319.5 66.5q188 0 337 -85.5t230.5 -232t81.5 -326.5q0 -182 -78 -359.5t-223 -311.5l154 -174l-111 -84l-143 176q-211 -146 -463 -146q-187 0 -336 85t-231 231.5t-82 326.5zM356 621q0 -146 61.5 -264 t178 -186.5t266.5 -68.5q201 0 371 119l-240 277l111 86l227 -283q115 112 177.5 261t62.5 306q0 146 -61.5 263.5t-178 186t-266.5 68.5q-135 0 -256.5 -54t-218.5 -150q-110 -111 -172 -259t-62 -302z" />
<glyph unicode="R" horiz-adv-x="1548" d="M82 0l399 1491h537q277 0 412 -135q96 -96 96 -250q0 -188 -133 -318q-141 -141 -424 -178l317 -610h-166l-305 596h-430l-160 -596h-143zM418 725h424q301 0 444 143q94 94 94 228q0 105 -63 168q-96 96 -305 96h-422z" />
<glyph unicode="S" horiz-adv-x="1382" d="M45 262l111 84q96 -122 216 -181t287 -59q171 0 285.5 86t114.5 216q0 91 -69.5 153t-246.5 131q-225 88 -320 175t-95 223q0 154 110 264q157 157 432 157q164 0 300 -61t225 -164l-107 -92q-171 190 -430 190q-173 0 -278 -83t-105 -197q0 -93 77 -155t265 -134 q206 -77 298.5 -166.5t92.5 -226.5q0 -160 -121 -281q-77 -77 -190.5 -119t-249.5 -42q-200 0 -352 73.5t-250 208.5z" />
<glyph unicode="T" horiz-adv-x="1335" d="M297 1358l35 133h1163l-35 -133h-510l-364 -1358h-144l365 1358h-510z" />
<glyph unicode="U" horiz-adv-x="1636" d="M213 451q0 113 31 231l215 809h143l-227 -858q-21 -75 -21 -168q0 -160 104.5 -259.5t305.5 -99.5q200 0 346 146q136 136 199 377l231 862h143l-237 -889q-75 -277 -236 -438q-184 -187 -458 -187q-259 0 -399 130.5t-140 343.5z" />
<glyph unicode="V" horiz-adv-x="1548" d="M309 1491h152l194 -1321l906 1321h161l-1044 -1501h-127z" />
<glyph unicode="W" horiz-adv-x="2322" d="M326 1491h149l100 -1280l764 1284h115l80 -1284l786 1280h162l-940 -1501h-121l-88 1243l-753 -1243h-121z" />
<glyph unicode="X" horiz-adv-x="1501" d="M-45 0l770 772l-385 719h158l329 -629l625 629h184l-743 -741l397 -750h-155l-344 659l-652 -659h-184z" />
<glyph unicode="Y" horiz-adv-x="1441" d="M274 1491h158l318 -774l735 774h186l-885 -918l-153 -573h-144l162 602z" />
<glyph unicode="Z" horiz-adv-x="1443" d="M-29 0l25 90l1309 1272h-934l37 129h1144l-24 -90l-1309 -1272h975l-35 -129h-1188z" />
<glyph unicode="[" horiz-adv-x="952" d="M39 -276l475 1767h596l-29 -107h-469l-415 -1554h467l-29 -106h-596z" />
<glyph unicode="\" horiz-adv-x="1099" d="M315 1700h121l467 -1972h-121z" />
<glyph unicode="]" horiz-adv-x="952" d="M-129 -276l31 106h467l415 1554h-467l29 107h598l-475 -1767h-598z" />
<glyph unicode="^" horiz-adv-x="1089" d="M272 1051l453 446h113l215 -446h-117l-170 340l-352 -340h-142z" />
<glyph unicode="_" horiz-adv-x="1302" d="M-231 -340l32 117h1289l-33 -117h-1288z" />
<glyph unicode="`" horiz-adv-x="1089" d="M616 1493l154 72l115 -297h-97z" />
<glyph unicode="a" horiz-adv-x="1245" d="M55 281q0 153 107 260q132 135 385 135q192 0 403 -60l6 27q17 70 17 107q0 115 -79 176t-232 61q-155 0 -314 -59l-24 119q176 63 354 63q203 0 315.5 -90.5t112.5 -249.5q0 -63 -23 -147l-165 -623h-134l47 178q-174 -203 -423 -203q-145 0 -249 82t-104 224zM199 297 q0 -94 66.5 -150.5t178.5 -56.5q98 0 192 42t166 121t99 179l23 86q-185 49 -381 49q-174 0 -273 -96q-71 -71 -71 -174z" />
<glyph unicode="b" horiz-adv-x="1423" d="M55 0l418 1554h137l-178 -659q191 225 432 225q189 0 312.5 -129.5t123.5 -333.5q0 -150 -54 -280t-150 -225q-84 -85 -190.5 -132t-221.5 -47q-162 0 -267 81t-153 206l-69 -260h-140zM319 457q0 -153 99.5 -256t255.5 -103q184 0 317 133q78 76 121 184.5t43 227.5 q0 159 -89.5 255.5t-231.5 96.5q-93 0 -183.5 -41t-163.5 -114q-77 -77 -122.5 -177.5t-45.5 -205.5z" />
<glyph unicode="c" horiz-adv-x="1222" d="M117 451q0 134 53 258.5t147 218.5q90 90 205 141t238 51q159 0 267 -73.5t165 -188.5l-113 -70q-35 62 -74.5 105t-105 72.5t-147.5 29.5q-181 0 -326 -145q-77 -77 -121.5 -180.5t-44.5 -214.5q0 -164 101.5 -260.5t242.5 -96.5q175 0 338 150l86 -90 q-195 -183 -430 -183q-94 0 -180.5 32.5t-153.5 92t-107 151t-40 200.5z" />
<glyph unicode="d" horiz-adv-x="1423" d="M123 436q0 148 55 278.5t150 227.5q86 85 191.5 131.5t219.5 46.5q111 0 199 -42.5t139.5 -104t83.5 -142.5l193 723h137l-416 -1554h-137l53 199q-192 -226 -432 -226q-189 0 -312.5 129.5t-123.5 333.5zM268 451q0 -159 90.5 -256t233.5 -97q91 0 181 41.5t163 114.5 q78 78 123 177.5t45 205.5q0 152 -99 255t-255 103q-182 0 -318 -133q-77 -79 -120.5 -186.5t-43.5 -224.5z" />
<glyph unicode="e" horiz-adv-x="1273" d="M117 438q0 136 56 267.5t153 228.5q186 186 426 186q133 0 230 -58.5t143 -152t46 -209.5q0 -113 -34 -200h-877q-2 -18 -2 -58q0 -154 92 -251t244 -97q192 0 362 137l74 -92q-95 -79 -200 -121.5t-244 -42.5q-208 0 -338.5 130t-130.5 333zM281 610h745q8 36 8 86 q0 132 -73.5 217.5t-215.5 85.5q-180 0 -317 -137q-100 -100 -147 -252z" />
<glyph unicode="f" horiz-adv-x="811" d="M119 0l262 971h-156l35 123h154l37 141q40 149 120 227q91 94 244 94q123 0 219 -47l-33 -120q-97 47 -186 47q-174 0 -233 -224l-33 -118h375l-33 -123h-373l-262 -971h-137z" />
<glyph unicode="g" horiz-adv-x="1423" d="M-8 -150l92 99q190 -172 436 -172q205 0 322 117q91 93 141 272l35 123q-94 -97 -198.5 -152t-235.5 -55q-86 0 -166.5 29t-143.5 81.5t-101 133t-38 176.5q0 252 180 432q88 88 202.5 137t234.5 49q71 0 130.5 -16t102 -41.5t78 -63t58 -74t42.5 -81.5l68 250h137 l-252 -947q-33 -120 -75 -198.5t-101 -136.5q-156 -156 -420 -156q-149 0 -288.5 51.5t-239.5 142.5zM281 516q0 -146 99 -228.5t238 -82.5q98 0 190.5 40.5t162.5 112.5q66 64 103.5 145.5t37.5 164.5q0 63 -25 121t-70 103.5t-113.5 73t-149.5 27.5q-93 0 -180 -36 t-152 -103q-141 -141 -141 -338z" />
<glyph unicode="h" horiz-adv-x="1325" d="M55 0l418 1554h137l-174 -649q87 102 180.5 158.5t214.5 56.5q160 0 256.5 -94t96.5 -250q0 -52 -25 -162l-162 -614h-137l166 623q16 62 16 129q0 114 -69 178.5t-191 64.5q-136 0 -258 -107t-166 -270l-163 -618h-140z" />
<glyph unicode="i" horiz-adv-x="573" d="M72 0l293 1094h137l-293 -1094h-137zM424 1354l43 166h162l-43 -166h-162z" />
<glyph unicode="j" horiz-adv-x="571" d="M-238 -326l33 117q58 -16 96 -16q56 0 97.5 37t62.5 112l314 1170h137l-318 -1184q-33 -126 -106 -192t-174 -66q-72 0 -142 22zM424 1354l43 166h162l-43 -166h-162z" />
<glyph unicode="k" horiz-adv-x="1226" d="M55 0l418 1554h137l-295 -1099l787 639h192l-598 -480l314 -614h-158l-270 528l-314 -252l-73 -276h-140z" />
<glyph unicode="l" horiz-adv-x="573" d="M72 0l417 1554h138l-418 -1554h-137z" />
<glyph unicode="m" horiz-adv-x="2050" d="M55 0l293 1094h137l-49 -189q88 105 174.5 160t202.5 55q131 0 210.5 -75t102.5 -183q76 122 190.5 190t260.5 68q148 0 242 -96t94 -248q0 -52 -29 -162l-162 -614h-137l166 623q16 62 16 129q0 113 -64.5 178t-176.5 65q-127 0 -244.5 -108t-159.5 -269l-164 -618h-137 l166 623q17 66 17 129q0 113 -65 178t-177 65q-126 0 -244 -108t-160 -269l-163 -618h-140z" />
<glyph unicode="n" horiz-adv-x="1329" d="M55 0l293 1094h137l-49 -189q87 102 180.5 158.5t214.5 56.5q160 0 256.5 -94t96.5 -250q0 -52 -25 -162l-162 -614h-137l166 623q16 62 16 129q0 114 -69 178.5t-191 64.5q-136 0 -258 -107t-166 -270l-163 -618h-140z" />
<glyph unicode="o" horiz-adv-x="1376" d="M119 463q0 128 52 248.5t144 214.5q92 90 208.5 142t242.5 52q220 0 357 -137.5t137 -351.5q0 -128 -53 -248t-146 -215q-90 -90 -206.5 -141.5t-242.5 -51.5q-221 0 -357 137t-136 351zM262 467q0 -172 99.5 -270.5t261.5 -98.5q181 0 329 148q76 75 120 175t44 206 q0 172 -99 270t-263 98q-90 0 -176 -39t-154 -106q-76 -76 -119 -176.5t-43 -206.5z" />
<glyph unicode="p" horiz-adv-x="1423" d="M-35 -340l383 1434h137l-53 -199q191 225 432 225q189 0 312.5 -129.5t123.5 -333.5q0 -150 -54 -280t-150 -225q-84 -85 -190.5 -132t-221.5 -47q-162 0 -267 81t-153 206l-162 -600h-137zM319 457q0 -153 99.5 -256t255.5 -103q184 0 317 133q78 76 121 184.5t43 227.5 q0 159 -89.5 255.5t-231.5 96.5q-93 0 -183.5 -41t-163.5 -114q-77 -77 -122.5 -177.5t-45.5 -205.5z" />
<glyph unicode="q" horiz-adv-x="1423" d="M123 436q0 148 55 278.5t150 227.5q86 85 191.5 131.5t219.5 46.5q111 0 199 -42.5t139.5 -104t83.5 -142.5l70 263h137l-385 -1434h-137l145 539q-192 -226 -432 -226q-189 0 -312.5 129.5t-123.5 333.5zM268 451q0 -159 90.5 -256t233.5 -97q91 0 181 41.5t163 114.5 q78 78 123 177.5t45 205.5q0 152 -99 255t-255 103q-182 0 -318 -133q-77 -79 -120.5 -186.5t-43.5 -224.5z" />
<glyph unicode="r" horiz-adv-x="874" d="M55 0l293 1094h137l-77 -297q223 316 512 316q14 0 28 -1l-41 -147h-8q-125 0 -241 -60t-209.5 -181.5t-137.5 -285.5l-116 -438h-140z" />
<glyph unicode="s" horiz-adv-x="1081" d="M6 166l92 92q170 -164 391 -164q102 0 180.5 56t78.5 143q0 60 -48 105.5t-172 93.5q-163 61 -236 126.5t-73 172.5q0 138 113.5 232.5t296.5 94.5q113 0 219.5 -42t181.5 -105l-84 -99q-70 57 -156 92t-174 35q-119 0 -188.5 -55t-69.5 -131q0 -60 48 -102.5t184 -96.5 q159 -63 229 -131t70 -168q0 -147 -120.5 -243.5t-293.5 -96.5q-130 0 -253.5 49.5t-215.5 141.5z" />
<glyph unicode="t" horiz-adv-x="874" d="M182 197q0 52 15 110l178 664h-156l33 123h156l90 340h139l-92 -340h358l-33 -123h-358l-176 -660q-12 -54 -12 -86q0 -60 43 -90.5t120 -30.5q67 0 160 35l-35 -127q-77 -30 -166 -30q-119 0 -191.5 55t-72.5 160z" />
<glyph unicode="u" horiz-adv-x="1325" d="M141 317q0 58 27 164l162 613h137l-168 -623q-16 -62 -16 -129q0 -114 70 -179t192 -65q134 0 256 108t166 271l166 617h137l-293 -1094h-137l49 190q-84 -102 -178 -158.5t-217 -56.5q-160 0 -256.5 93.5t-96.5 248.5z" />
<glyph unicode="v" horiz-adv-x="1222" d="M201 1094h145l137 -936l633 936h160l-772 -1102h-119z" />
<glyph unicode="w" horiz-adv-x="1828" d="M219 1094h141l66 -908l555 914h113l67 -914l553 908h148l-688 -1102h-123l-68 895l-551 -895h-117z" />
<glyph unicode="x" horiz-adv-x="1220" d="M-55 0l596 567l-281 527h154l221 -437l446 437h176l-565 -539l293 -555h-151l-234 465l-479 -465h-176z" />
<glyph unicode="y" horiz-adv-x="1241" d="M-160 -272l74 104q83 -59 178 -59q78 0 152 51.5t162 175.5l-209 1094h145l166 -940l618 940h162l-764 -1131q-115 -169 -219 -240t-229 -71q-127 0 -236 76z" />
<glyph unicode="z" horiz-adv-x="1191" d="M-27 0l23 84l973 891h-707l33 119h913l-24 -84l-973 -891h741l-32 -119h-947z" />
<glyph unicode="{" horiz-adv-x="1050" d="M143 559l29 105h57q152 0 230 75q78 78 123 314q22 106 53.5 181.5t91.5 137.5q135 135 434 152l-2 -101q-223 -11 -330 -118q-78 -78 -114 -256q-14 -69 -21 -99.5t-24 -88t-40.5 -98t-54.5 -71.5q-70 -70 -194 -88q151 -43 151 -178q0 -61 -22 -129q-45 -153 -45 -229 q0 -104 58 -173.5t194 -109.5l-41 -86q-180 39 -263 132.5t-83 219.5q0 51 10 99.5t39 144.5q20 78 20 123q0 71 -45 106t-153 35h-58z" />
<glyph unicode="|" horiz-adv-x="653" d="M49 -272l529 1972h118l-530 -1972h-117z" />
<glyph unicode="}" horiz-adv-x="1050" d="M-78 -301l2 100q222 11 330 119q83 83 115 256q1 6 8 37t9 39.5t8.5 37.5t10.5 40t11.5 36.5t13.5 38.5t15 34t18 34.5t20.5 29.5t24.5 29q70 70 197 88q-154 44 -154 179q0 61 22 129q45 153 45 229q0 105 -57.5 174t-193.5 109l41 86q180 -39 263 -132.5t83 -220.5 q0 -50 -9.5 -97.5t-37.5 -145.5q-23 -77 -23 -123q0 -71 45.5 -106t153.5 -35h57l-29 -105h-57q-151 0 -227 -76q-81 -81 -125 -313q-22 -105 -54 -181.5t-92 -138.5q-131 -134 -434 -151z" />
<glyph unicode="~" horiz-adv-x="1019" d="M186 553q54 111 110.5 164t127.5 53q45 0 75 -16.5t72 -55.5q39 -37 59 -50t46 -13q33 0 60.5 29.5t68.5 97.5l94 -39q-54 -111 -110 -164t-127 -53q-45 0 -74.5 17t-73.5 57q-40 37 -59 49t-43 12q-35 0 -63 -29.5t-66 -97.5z" />
<glyph unicode="&#xa1;" horiz-adv-x="583" d="M63 0l37 133l297 950h78l-213 -950l-37 -133h-162zM403 1286l56 205h172l-56 -205h-172z" />
<glyph unicode="&#xa2;" horiz-adv-x="1222" d="M170 653q0 139 52.5 264.5t146.5 219.5q91 91 207.5 140.5t246.5 49.5q9 0 28 -1t28 -1l71 178h123l-80 -200q192 -55 281 -236l-111 -68q-41 72 -93 119.5t-130 69.5l-344 -877q20 -4 66 -4q200 0 364 148l86 -90q-196 -183 -455 -183q-59 0 -100 8l-80 -202h-125 l94 235q-129 56 -202.5 169t-73.5 261zM313 655q0 -107 48.5 -190.5t136.5 -124.5l338 862h-19q-195 0 -340 -145q-77 -76 -120.5 -181t-43.5 -221z" />
<glyph unicode="&#xa3;" horiz-adv-x="1359" d="M4 0l23 78l190 43l139 516h-180l35 129h180l70 266q58 216 172 330q145 145 354 145q275 0 406 -237l-117 -74q-56 89 -125.5 134.5t-171.5 45.5q-142 0 -242 -100q-93 -92 -139 -268l-66 -242h613l-35 -129h-612l-138 -510h777l-35 -127h-1098z" />
<glyph unicode="&#xa5;" horiz-adv-x="1519" d="M162 256l31 115h440l51 198h-438l30 115h390l-349 807h162l318 -764l731 764h180l-784 -807h379l-31 -115h-447l-51 -198h447l-33 -115h-445l-67 -256h-144l70 256h-440z" />
<glyph unicode="&#xa7;" horiz-adv-x="1370" d="M150 158l90 94q68 -67 174 -111.5t225 -44.5q104 0 174 43t70 111q0 61 -65 105.5t-220 99.5q-210 72 -304.5 139t-94.5 170q0 64 34 116.5t90.5 86t127 51.5t147.5 20q-72 35 -110.5 87t-38.5 114q0 124 115 199t284 75q143 0 272 -51t203 -127l-90 -94q-69 66 -175 110 t-224 44q-104 0 -174 -43t-70 -111q0 -60 65.5 -105.5t218.5 -97.5q209 -71 304.5 -139.5t95.5 -171.5q0 -64 -33.5 -116.5t-90 -86t-126.5 -51.5t-147 -20q70 -37 108.5 -88.5t38.5 -110.5q0 -124 -115 -199t-284 -75q-143 0 -272 51t-203 127zM338 780q0 -60 61 -105 t207 -95q130 -43 244 -43q120 0 202.5 51.5t82.5 124.5q0 59 -61 103.5t-208 94.5q-131 45 -243 45q-121 0 -203 -52t-82 -124z" />
<glyph unicode="&#xa8;" horiz-adv-x="1089" d="M449 1268l51 188h172l-51 -188h-172zM811 1268l51 188h172l-51 -188h-172z" />
<glyph unicode="&#xa9;" horiz-adv-x="1792" d="M182 653q0 171 66.5 333.5t187.5 283.5q246 246 594 246q153 0 282 -52t216.5 -143t136.5 -215.5t49 -267.5q0 -172 -66 -334.5t-188 -282.5q-243 -246 -594 -246q-152 0 -281 52t-217 143t-137 215.5t-49 267.5zM254 653q0 -127 42 -238t119 -195t195 -132.5t262 -48.5 q312 0 533 221q115 115 176 263.5t61 316.5q0 126 -41.5 236.5t-118.5 194.5t-194.5 132.5t-261.5 48.5q-310 0 -534 -221q-114 -115 -176 -264t-62 -314zM561 672q0 100 38 192.5t108 163.5q135 135 315 135q104 0 179.5 -45t119.5 -123l-90 -55q-76 125 -211 125 q-136 0 -234 -98q-116 -116 -116 -289q0 -110 63 -169.5t160 -59.5q71 0 125 27t108 77l68 -70q-133 -133 -307 -133q-140 0 -233 87t-93 235z" />
<glyph unicode="&#xaa;" horiz-adv-x="856" d="M133 618l25 95h526l-25 -95h-526zM238 1030q0 103 77 165t199 62q89 0 203 -32l4 14q8 28 8 53q0 117 -160 117q-79 0 -170 -31l-16 84q98 37 205 37q115 0 177 -49.5t62 -138.5q0 -26 -12 -84l-92 -344h-98l28 102q-103 -115 -235 -115q-76 0 -128 44.5t-52 115.5z M340 1042q0 -43 30 -69.5t79 -26.5q77 0 149 55.5t94 131.5l8 26q-110 27 -180 27q-79 0 -129.5 -40.5t-50.5 -103.5z" />
<glyph unicode="&#xab;" horiz-adv-x="1163" d="M109 537l4 16l471 453l88 -76l-400 -404l172 -383l-110 -57zM563 537l4 16l471 453l90 -76l-401 -404l172 -383l-108 -57z" />
<glyph unicode="&#xad;" horiz-adv-x="897" d="M160 563l41 148h583l-41 -148h-583z" />
<glyph unicode="&#xae;" horiz-adv-x="894" d="M238 1094q0 177 120 297t289 120q147 0 238.5 -93t91.5 -232q0 -176 -121 -297q-123 -123 -289 -123q-148 0 -238.5 94t-90.5 234zM281 1098q0 -125 78 -208t212 -83q146 0 250 104q113 116 113 271q0 124 -78.5 207.5t-212.5 83.5q-145 0 -250 -105q-112 -115 -112 -270 zM416 958l100 377h137q77 0 108.5 -32.5t31.5 -75.5q0 -48 -31.5 -84.5t-91.5 -46.5l63 -138h-69l-58 134h-88l-35 -134h-67zM532 1147h84q62 0 89 27q18 18 18 47q0 55 -76 55h-80z" />
<glyph unicode="&#xaf;" horiz-adv-x="1089" d="M418 1317l33 117h665l-33 -117h-665z" />
<glyph unicode="&#xb0;" horiz-adv-x="829" d="M201 1139q0 71 29 138.5t79 117.5q109 106 252 106q124 0 201.5 -77.5t77.5 -198.5q0 -71 -29.5 -138.5t-79.5 -117.5q-110 -107 -252 -107q-124 0 -201 78t-77 199zM309 1147q0 -85 49.5 -134.5t130.5 -49.5q94 0 166 69q78 78 78 185q0 85 -50.5 135.5t-131.5 50.5 q-92 0 -164 -72q-78 -78 -78 -184z" />
<glyph unicode="&#xb1;" horiz-adv-x="1351" d="M33 0l35 127h995l-35 -127h-995zM238 770l34 129l433 -2l112 424h133l-112 -424l432 2l-35 -129h-432l-115 -424h-133l115 424h-432z" />
<glyph unicode="&#xb2;" horiz-adv-x="860" d="M236 905l20 84l457 344q72 54 107.5 99t35.5 100q0 59 -43.5 94t-114.5 35q-115 0 -227 -117l-61 60q131 145 297 145q112 0 179.5 -57.5t67.5 -151.5q0 -72 -43.5 -134t-140.5 -134l-371 -275h447l-25 -92h-585z" />
<glyph unicode="&#xb3;" horiz-adv-x="860" d="M268 1038l74 52q76 -117 213 -117q96 0 159.5 48.5t63.5 125.5q0 72 -52.5 107.5t-147.5 35.5h-39l-25 60l344 286h-407l26 93h539l-23 -80l-348 -285q101 -8 167.5 -60t66.5 -147q0 -116 -95 -194t-225 -78q-105 0 -179.5 41.5t-111.5 111.5z" />
<glyph unicode="&#xb4;" horiz-adv-x="1089" d="M532 1268l277 297l154 -72l-297 -225h-134z" />
<glyph unicode="&#xb5;" horiz-adv-x="1435" d="M-35 -340l383 1434h137l-151 -564q-23 -105 -23 -155q0 -129 74 -203t203 -74q139 0 244.5 88t146.5 242l178 666h137l-211 -793q-16 -66 -16 -98q0 -99 117 -99q42 0 88 11l-33 -119q-43 -12 -96 -12q-98 0 -153 46t-60 128q-135 -183 -350 -183q-130 0 -221 67.5 t-123 190.5h-5q-20 -160 -61 -321l-70 -252h-135z" />
<glyph unicode="&#xb6;" horiz-adv-x="1095" d="M225 942q0 221 140 361q185 188 563 188h192l-399 -1491h-146l146 545q-266 10 -397 141q-99 99 -99 256z" />
<glyph unicode="&#xb7;" horiz-adv-x="544" d="M180 535l58 204h170l-56 -204h-172z" />
<glyph unicode="&#xb8;" horiz-adv-x="1089" d="M154 -260l266 280h112l-256 -344z" />
<glyph unicode="&#xb9;" horiz-adv-x="700" d="M434 1655l252 88h82l-225 -838h-99l195 729l-203 -69z" />
<glyph unicode="&#xba;" horiz-adv-x="858" d="M137 618l25 95h573l-24 -95h-574zM254 1141q0 148 106 254t250 106q126 0 203.5 -77.5t77.5 -198.5q0 -147 -107 -254t-249 -107q-126 0 -203.5 78.5t-77.5 198.5zM356 1147q0 -87 51.5 -140t133.5 -53q96 0 168 72q79 82 79 195q0 86 -51 138t-133 52q-99 0 -168 -72 q-36 -36 -58 -87.5t-22 -104.5z" />
<glyph unicode="&#xbb;" horiz-adv-x="1163" d="M33 160l399 403l-172 385l111 56l225 -449l-4 -18l-471 -453zM487 160l402 403l-174 385l110 56l226 -449l-4 -18l-469 -453z" />
<glyph unicode="&#xbc;" horiz-adv-x="1775" d="M100 0l727 762l684 729h115l-729 -762l-682 -729h-115zM315 1417l254 88h80l-223 -837h-98l192 729l-203 -70zM903 186v90l553 560h119l-152 -566h115l-22 -84h-115l-51 -190h-93l50 190h-404zM1010 270h319l121 445h-2z" />
<glyph unicode="&#xbd;" horiz-adv-x="1775" d="M80 0l727 762l684 729h115l-729 -762l-682 -729h-115zM315 1417l254 88h80l-223 -837h-98l192 729l-203 -70zM872 0l21 84l457 344q72 54 107.5 99t35.5 100q0 59 -43.5 94t-114.5 35q-115 0 -227 -117l-61 59q132 146 296 146q112 0 180 -57.5t68 -151.5 q0 -72 -43.5 -134t-140.5 -134l-371 -275h447l-25 -92h-586z" />
<glyph unicode="&#xbe;" horiz-adv-x="1935" d="M156 801l73 51q76 -117 213 -117q98 0 161 48.5t63 125.5q0 72 -53 108t-148 36h-39l-25 59l347 287h-410l27 92h538l-22 -80l-349 -285q101 -8 167.5 -59.5t66.5 -146.5q0 -117 -94.5 -195t-225.5 -78q-104 0 -177.5 41.5t-112.5 112.5zM250 0l727 762l684 729h115 l-729 -762l-682 -729h-115zM1063 186v90l553 560h119l-152 -566h115l-23 -84h-114l-52 -190h-92l49 190h-403zM1169 270h320l121 445h-2z" />
<glyph unicode="&#xbf;" horiz-adv-x="1165" d="M113 356q0 102 43.5 186t121 142.5t177.5 96.5t219 55l88 247h90l-61 -344l-15 -12q-235 -18 -375.5 -112.5t-140.5 -249.5q0 -119 84.5 -186.5t216.5 -67.5q114 0 218.5 50t183.5 128l81 -94q-209 -213 -497 -213q-197 0 -315.5 105.5t-118.5 268.5zM774 1286l55 205 h170l-55 -205h-170z" />
<glyph unicode="&#xc0;" horiz-adv-x="1642" d="M-68 0l1090 1501h137l283 -1501h-146l-71 406h-844l-291 -406h-158zM473 535h727l-145 806zM868 1841l148 70l137 -264h-100z" />
<glyph unicode="&#xc1;" horiz-adv-x="1642" d="M-68 0l1090 1501h137l283 -1501h-146l-71 406h-844l-291 -406h-158zM473 535h727l-145 806zM1055 1647l278 264l150 -70l-291 -194h-137z" />
<glyph unicode="&#xc2;" horiz-adv-x="1642" d="M-68 0l1090 1501h137l283 -1501h-146l-71 406h-844l-291 -406h-158zM473 535h727l-145 806zM823 1647l293 241h129l164 -241h-127l-123 129l-192 -129h-144z" />
<glyph unicode="&#xc3;" horiz-adv-x="1642" d="M-68 0l1090 1501h137l283 -1501h-146l-71 406h-844l-291 -406h-158zM473 535h727l-145 806zM807 1655q50 107 101 155t118 48q44 0 141 -43q5 -2 26 -10.5t28.5 -11.5t23 -8t26.5 -7t21 -2q39 0 65.5 21.5t59.5 76.5l92 -27q-51 -108 -101.5 -154t-119.5 -46q-9 0 -19 1 t-21.5 4t-19.5 5t-21.5 7.5t-19.5 7.5t-21 8t-19 8q-92 41 -123 41q-38 0 -65 -22t-62 -79z" />
<glyph unicode="&#xc4;" horiz-adv-x="1642" d="M-68 0l1090 1501h137l283 -1501h-146l-71 406h-844l-291 -406h-158zM473 535h727l-145 806zM848 1647l49 178h180l-49 -178h-180zM1237 1647l49 178h178l-49 -178h-178z" />
<glyph unicode="&#xc5;" horiz-adv-x="1642" d="M-68 0l1033 1423q-84 54 -84 152t77.5 165.5t184.5 67.5q90 0 148.5 -52t58.5 -130q0 -76 -48.5 -135.5t-125.5 -83.5l266 -1407h-146l-71 406h-844l-291 -406h-158zM473 535h727l-145 806zM971 1581q0 -52 33.5 -82.5t89.5 -30.5q67 0 116.5 43.5t49.5 106.5 q0 51 -33 83t-92 32q-67 0 -115.5 -44t-48.5 -108z" />
<glyph unicode="&#xc6;" horiz-adv-x="2267" d="M-66 0l1287 1491h1175l-35 -131h-893l-145 -543h797l-35 -131h-797l-149 -555h903l-35 -131h-1046l110 406h-620l-349 -406h-168zM559 535h545l223 829h-55z" />
<glyph unicode="&#xc7;" horiz-adv-x="1593" d="M201 584q0 188 75 363.5t207 307.5q124 122 281.5 191.5t329.5 69.5q197 0 338 -87t217 -233l-123 -72q-76 129 -180.5 195.5t-264.5 66.5q-137 0 -262 -56t-223 -154q-116 -116 -182 -270t-66 -316q0 -221 136 -353.5t350 -132.5q148 0 260 54t221 159l94 -92 q-114 -118 -255.5 -185t-330.5 -67h-10l-221 -297l-123 64l231 244q-221 38 -360 197.5t-139 402.5z" />
<glyph unicode="&#xc8;" horiz-adv-x="1411" d="M82 0l399 1491h1061l-37 -131h-915l-148 -543h822l-35 -131h-821l-148 -555h928l-37 -131h-1069zM772 1821l148 69l137 -264h-101z" />
<glyph unicode="&#xc9;" horiz-adv-x="1411" d="M82 0l399 1491h1061l-37 -131h-915l-148 -543h822l-35 -131h-821l-148 -555h928l-37 -131h-1069zM961 1626l278 264l150 -69l-291 -195h-137z" />
<glyph unicode="&#xca;" horiz-adv-x="1411" d="M82 0l399 1491h1061l-37 -131h-915l-148 -543h822l-35 -131h-821l-148 -555h928l-37 -131h-1069zM729 1626l293 242h129l164 -242h-127l-123 129l-193 -129h-143z" />
<glyph unicode="&#xcb;" horiz-adv-x="1411" d="M82 0l399 1491h1061l-37 -131h-915l-148 -543h822l-35 -131h-821l-148 -555h928l-37 -131h-1069zM752 1626l49 178h180l-49 -178h-180zM1141 1626l49 178h178l-49 -178h-178z" />
<glyph unicode="&#xcc;" horiz-adv-x="628" d="M96 0l400 1491h143l-399 -1491h-144zM340 1821l147 69l138 -264h-101z" />
<glyph unicode="&#xcd;" horiz-adv-x="628" d="M96 0l400 1491h143l-399 -1491h-144zM526 1626l279 264l149 -69l-290 -195h-138z" />
<glyph unicode="&#xce;" horiz-adv-x="628" d="M96 0l400 1491h143l-399 -1491h-144zM295 1626l293 242h129l164 -242h-127l-123 129l-193 -129h-143z" />
<glyph unicode="&#xcf;" horiz-adv-x="628" d="M96 0l400 1491h143l-399 -1491h-144zM319 1626l50 178h180l-49 -178h-181zM709 1626l49 178h178l-49 -178h-178z" />
<glyph unicode="&#xd0;" horiz-adv-x="1728" d="M141 0l185 690h-162l33 121h161l185 680h348q183 0 334 -51t248 -148q163 -166 163 -428q0 -344 -235 -579q-135 -135 -332.5 -210t-429.5 -75h-498zM319 131h338q192 0 354.5 63t282.5 181q193 196 193 481q0 216 -131 344q-160 160 -473 160h-232l-149 -549h467 l-33 -121h-467z" />
<glyph unicode="&#xd1;" horiz-adv-x="1697" d="M82 0l399 1491h133l635 -1251l338 1251h139l-401 -1491h-111l-651 1280l-342 -1280h-139zM813 1626q50 107 101 155t118 48q45 0 142 -43q7 -3 26 -11t28 -11t23.5 -8t25.5 -7t21 -2q39 0 65.5 21.5t59.5 76.5l93 -26q-51 -108 -102 -154.5t-120 -46.5q-9 0 -19 1 t-21.5 4t-19.5 5t-21.5 7.5t-19.5 7.5t-21 8t-19 8q-92 41 -123 41q-38 0 -65 -22t-62 -79z" />
<glyph unicode="&#xd2;" d="M207 616q0 179 73 349.5t201 298.5q119 119 270.5 185.5t319.5 66.5q188 0 337 -85.5t230.5 -232t81.5 -326.5t-72.5 -350t-199.5 -297q-118 -118 -271 -185t-321 -67q-187 0 -336 85t-231 231.5t-82 326.5zM356 621q0 -146 61.5 -264t178 -186.5t266.5 -68.5 q135 0 257 54.5t218 150.5q110 110 172 258t62 303q0 146 -61.5 263.5t-178 186t-266.5 68.5q-135 0 -256.5 -54t-218.5 -150q-110 -111 -172 -259t-62 -302zM915 1841l148 70l137 -264h-100z" />
<glyph unicode="&#xd3;" d="M207 616q0 179 73 349.5t201 298.5q119 119 270.5 185.5t319.5 66.5q188 0 337 -85.5t230.5 -232t81.5 -326.5t-72.5 -350t-199.5 -297q-118 -118 -271 -185t-321 -67q-187 0 -336 85t-231 231.5t-82 326.5zM356 621q0 -146 61.5 -264t178 -186.5t266.5 -68.5 q135 0 257 54.5t218 150.5q110 110 172 258t62 303q0 146 -61.5 263.5t-178 186t-266.5 68.5q-135 0 -256.5 -54t-218.5 -150q-110 -111 -172 -259t-62 -302zM1100 1647l278 264l150 -70l-291 -194h-137z" />
<glyph unicode="&#xd4;" d="M207 616q0 179 73 349.5t201 298.5q119 119 270.5 185.5t319.5 66.5q188 0 337 -85.5t230.5 -232t81.5 -326.5t-72.5 -350t-199.5 -297q-118 -118 -271 -185t-321 -67q-187 0 -336 85t-231 231.5t-82 326.5zM356 621q0 -146 61.5 -264t178 -186.5t266.5 -68.5 q135 0 257 54.5t218 150.5q110 110 172 258t62 303q0 146 -61.5 263.5t-178 186t-266.5 68.5q-135 0 -256.5 -54t-218.5 -150q-110 -111 -172 -259t-62 -302zM870 1647l293 241h129l164 -241h-127l-123 129l-192 -129h-144z" />
<glyph unicode="&#xd5;" d="M207 616q0 179 73 349.5t201 298.5q119 119 270.5 185.5t319.5 66.5q188 0 337 -85.5t230.5 -232t81.5 -326.5t-72.5 -350t-199.5 -297q-118 -118 -271 -185t-321 -67q-187 0 -336 85t-231 231.5t-82 326.5zM356 621q0 -146 61.5 -264t178 -186.5t266.5 -68.5 q135 0 257 54.5t218 150.5q110 110 172 258t62 303q0 146 -61.5 263.5t-178 186t-266.5 68.5q-135 0 -256.5 -54t-218.5 -150q-110 -111 -172 -259t-62 -302zM856 1655q50 107 101 155t118 48q45 0 142 -43q7 -3 26 -11t28 -11t23.5 -8t25.5 -7t21 -2q39 0 65.5 21.5 t59.5 76.5l93 -27q-51 -108 -102 -154t-120 -46q-39 0 -141 41q-92 41 -123 41q-38 0 -65 -22t-62 -79z" />
<glyph unicode="&#xd6;" d="M207 616q0 179 73 349.5t201 298.5q119 119 270.5 185.5t319.5 66.5q188 0 337 -85.5t230.5 -232t81.5 -326.5t-72.5 -350t-199.5 -297q-118 -118 -271 -185t-321 -67q-187 0 -336 85t-231 231.5t-82 326.5zM356 621q0 -146 61.5 -264t178 -186.5t266.5 -68.5 q135 0 257 54.5t218 150.5q110 110 172 258t62 303q0 146 -61.5 263.5t-178 186t-266.5 68.5q-135 0 -256.5 -54t-218.5 -150q-110 -111 -172 -259t-62 -302zM895 1647l49 178h180l-49 -178h-180zM1284 1647l49 178h178l-49 -178h-178z" />
<glyph unicode="&#xd7;" horiz-adv-x="1351" d="M160 379l483 381l-278 375l110 84l275 -379l481 383l74 -103l-484 -379l279 -372l-111 -86l-274 379l-482 -383z" />
<glyph unicode="&#xd8;" d="M-18 -12l323 274q-98 156 -98 354q0 179 73 349.5t201 298.5q119 119 270.5 185.5t319.5 66.5q147 0 271 -53.5t212 -149.5l220 188h172l-324 -276q98 -156 98 -353q0 -180 -72.5 -350t-199.5 -297q-118 -118 -271 -185t-321 -67q-146 0 -269.5 52.5t-211.5 146.5 l-221 -184h-172zM354 618q0 -148 62 -266l1032 875q-143 162 -381 162q-137 0 -259 -54.5t-218 -150.5q-111 -111 -173.5 -260.5t-62.5 -305.5zM479 260q141 -160 383 -160q270 0 477 207q111 111 172.5 259t61.5 304q0 142 -62 263z" />
<glyph unicode="&#xd9;" horiz-adv-x="1636" d="M213 451q0 113 31 231l215 809h143l-227 -858q-21 -75 -21 -168q0 -160 104.5 -259.5t305.5 -99.5q200 0 346 146q136 136 199 377l231 862h143l-237 -889q-75 -277 -236 -438q-184 -187 -458 -187q-259 0 -399 130.5t-140 343.5zM821 1812l148 70l137 -264h-100z" />
<glyph unicode="&#xda;" horiz-adv-x="1636" d="M213 451q0 113 31 231l215 809h143l-227 -858q-21 -75 -21 -168q0 -160 104.5 -259.5t305.5 -99.5q200 0 346 146q136 136 199 377l231 862h143l-237 -889q-75 -277 -236 -438q-184 -187 -458 -187q-259 0 -399 130.5t-140 343.5zM1008 1618l278 264l150 -70l-291 -194 h-137z" />
<glyph unicode="&#xdb;" horiz-adv-x="1636" d="M213 451q0 113 31 231l215 809h143l-227 -858q-21 -75 -21 -168q0 -160 104.5 -259.5t305.5 -99.5q200 0 346 146q136 136 199 377l231 862h143l-237 -889q-75 -277 -236 -438q-184 -187 -458 -187q-259 0 -399 130.5t-140 343.5zM776 1618l293 242h129l164 -242h-127 l-123 129l-192 -129h-144z" />
<glyph unicode="&#xdc;" horiz-adv-x="1636" d="M213 451q0 113 31 231l215 809h143l-227 -858q-21 -75 -21 -168q0 -160 104.5 -259.5t305.5 -99.5q200 0 346 146q136 136 199 377l231 862h143l-237 -889q-75 -277 -236 -438q-184 -187 -458 -187q-259 0 -399 130.5t-140 343.5zM801 1618l49 178h180l-49 -178h-180z M1190 1618l49 178h178l-49 -178h-178z" />
<glyph unicode="&#xdd;" horiz-adv-x="1441" d="M274 1491h158l318 -774l735 774h186l-885 -918l-153 -573h-144l162 602zM901 1618l279 264l149 -70l-291 -194h-137z" />
<glyph unicode="&#xde;" horiz-adv-x="1454" d="M82 0l399 1491h142l-68 -262h322q282 0 419 -137q105 -105 105 -273q0 -210 -137 -344q-95 -95 -248 -144.5t-350 -49.5h-365l-76 -281h-143zM334 408h338q336 0 485 149q98 98 98 254q0 114 -71 188q-104 99 -312 99h-352z" />
<glyph unicode="&#xdf;" horiz-adv-x="1349" d="M57 0l285 1065q61 231 186 356q148 148 359 148q179 0 293 -98.5t114 -251.5q0 -322 -434 -445q70 -19 126 -48t101 -69.5t70 -97.5t25 -125q0 -195 -187 -318.5t-512 -119.5l31 117q135 1 238.5 27.5t165 72t92 102t30.5 121.5q0 218 -364 281l31 112q231 56 338.5 151 t107.5 230q0 105 -74 170.5t-202 65.5q-145 0 -249.5 -108t-156.5 -302l-276 -1036h-138z" />
<glyph unicode="&#xe0;" horiz-adv-x="1245" d="M55 281q0 153 107 260q132 135 385 135q192 0 403 -60l6 27q17 70 17 107q0 115 -79 176t-232 61q-155 0 -314 -59l-24 119q176 63 354 63q203 0 315.5 -90.5t112.5 -249.5q0 -63 -23 -147l-165 -623h-134l47 178q-174 -203 -423 -203q-145 0 -249 82t-104 224zM199 297 q0 -94 66.5 -150.5t178.5 -56.5q98 0 192 42t166 121t99 179l23 86q-185 49 -381 49q-174 0 -273 -96q-71 -71 -71 -174zM535 1493l153 72l115 -297h-96z" />
<glyph unicode="&#xe1;" horiz-adv-x="1245" d="M55 281q0 153 107 260q132 135 385 135q192 0 403 -60l6 27q17 70 17 107q0 115 -79 176t-232 61q-155 0 -314 -59l-24 119q176 63 354 63q203 0 315.5 -90.5t112.5 -249.5q0 -63 -23 -147l-165 -623h-134l47 178q-174 -203 -423 -203q-145 0 -249 82t-104 224zM199 297 q0 -94 66.5 -150.5t178.5 -56.5q98 0 192 42t166 121t99 179l23 86q-185 49 -381 49q-174 0 -273 -96q-71 -71 -71 -174zM702 1268l277 297l154 -72l-297 -225h-134z" />
<glyph unicode="&#xe2;" horiz-adv-x="1245" d="M55 281q0 153 107 260q132 135 385 135q192 0 403 -60l6 27q17 70 17 107q0 115 -79 176t-232 61q-155 0 -314 -59l-24 119q176 63 354 63q203 0 315.5 -90.5t112.5 -249.5q0 -63 -23 -147l-165 -623h-134l47 178q-174 -203 -423 -203q-145 0 -249 82t-104 224zM199 297 q0 -94 66.5 -150.5t178.5 -56.5q98 0 192 42t166 121t99 179l23 86q-185 49 -381 49q-174 0 -273 -96q-71 -71 -71 -174zM489 1268l293 270h119l148 -270h-115l-115 143l-205 -143h-125z" />
<glyph unicode="&#xe3;" horiz-adv-x="1245" d="M55 281q0 153 107 260q132 135 385 135q192 0 403 -60l6 27q17 70 17 107q0 115 -79 176t-232 61q-155 0 -314 -59l-24 119q176 63 354 63q203 0 315.5 -90.5t112.5 -249.5q0 -63 -23 -147l-165 -623h-134l47 178q-174 -203 -423 -203q-145 0 -249 82t-104 224zM199 297 q0 -94 66.5 -150.5t178.5 -56.5q98 0 192 42t166 121t99 179l23 86q-185 49 -381 49q-174 0 -273 -96q-71 -71 -71 -174zM451 1272q52 118 103 165.5t122 47.5q45 0 141 -45q88 -41 121 -41q40 0 67.5 22.5t61.5 81.5l88 -24q-52 -118 -102.5 -164.5t-122.5 -46.5 q-50 0 -142 45q-88 41 -120 41q-40 0 -67.5 -23.5t-59.5 -83.5z" />
<glyph unicode="&#xe4;" horiz-adv-x="1245" d="M55 281q0 153 107 260q132 135 385 135q192 0 403 -60l6 27q17 70 17 107q0 115 -79 176t-232 61q-155 0 -314 -59l-24 119q176 63 354 63q203 0 315.5 -90.5t112.5 -249.5q0 -63 -23 -147l-165 -623h-134l47 178q-174 -203 -423 -203q-145 0 -249 82t-104 224zM199 297 q0 -94 66.5 -150.5t178.5 -56.5q98 0 192 42t166 121t99 179l23 86q-185 49 -381 49q-174 0 -273 -96q-71 -71 -71 -174zM510 1268l51 188h172l-51 -188h-172zM872 1268l52 188h172l-52 -188h-172z" />
<glyph unicode="&#xe5;" horiz-adv-x="1245" d="M55 281q0 153 107 260q132 135 385 135q192 0 403 -60l6 27q17 70 17 107q0 115 -79 176t-232 61q-155 0 -314 -59l-24 119q176 63 354 63q203 0 315.5 -90.5t112.5 -249.5q0 -63 -23 -147l-165 -623h-134l47 178q-174 -203 -423 -203q-145 0 -249 82t-104 224zM199 297 q0 -94 66.5 -150.5t178.5 -56.5q98 0 192 42t166 121t99 179l23 86q-185 49 -381 49q-174 0 -273 -96q-71 -71 -71 -174zM600 1462q0 96 76 167t178 71q96 0 156.5 -56.5t60.5 -142.5q0 -96 -77 -166.5t-179 -70.5q-94 0 -154.5 56.5t-60.5 141.5zM684 1466q0 -57 35.5 -93 t97.5 -36q69 0 119.5 47t50.5 113q0 57 -36.5 93t-98.5 36q-68 0 -118 -47t-50 -113z" />
<glyph unicode="&#xe6;" horiz-adv-x="2074" d="M55 281q0 153 107 260q132 135 385 135q192 0 403 -60l6 27q17 70 17 107q0 115 -79 176t-232 61q-155 0 -314 -59l-24 119q176 63 354 63q166 0 272 -64t135 -180q89 115 211.5 184.5t257.5 69.5q197 0 307.5 -120.5t110.5 -299.5q0 -103 -33 -200h-878q-2 -20 -2 -58 q0 -157 94.5 -252.5t251.5 -95.5q106 0 187.5 34.5t166.5 102.5l74 -92q-198 -164 -428 -164q-159 0 -270.5 68.5t-165.5 189.5q-243 -258 -549 -258q-155 0 -260 81t-105 225zM199 297q0 -94 69 -150.5t187 -56.5q252 0 483 248q-14 79 -4 176q-175 53 -391 53 q-174 0 -273 -96q-71 -71 -71 -174zM1083 610h744q10 30 10 86q0 132 -73.5 217.5t-215.5 85.5q-179 0 -319 -137q-105 -108 -146 -252z" />
<glyph unicode="&#xe7;" horiz-adv-x="1222" d="M117 451q0 134 53 258.5t147 218.5q90 90 205 141t238 51q159 0 267 -73.5t165 -188.5l-113 -70q-35 62 -74.5 105t-105 72.5t-147.5 29.5q-181 0 -326 -145q-77 -77 -121.5 -180.5t-44.5 -214.5q0 -164 101.5 -260.5t242.5 -96.5q175 0 338 150l86 -90 q-195 -183 -430 -183h-4l-221 -299l-123 64l233 248q-159 34 -262.5 156.5t-103.5 306.5z" />
<glyph unicode="&#xe8;" horiz-adv-x="1273" d="M117 438q0 136 56 267.5t153 228.5q186 186 426 186q133 0 230 -58.5t143 -152t46 -209.5q0 -113 -34 -200h-877q-2 -18 -2 -58q0 -154 92 -251t244 -97q192 0 362 137l74 -92q-95 -79 -200 -121.5t-244 -42.5q-208 0 -338.5 130t-130.5 333zM281 610h745q8 36 8 86 q0 132 -73.5 217.5t-215.5 85.5q-180 0 -317 -137q-100 -100 -147 -252zM594 1493l154 72l114 -297h-96z" />
<glyph unicode="&#xe9;" horiz-adv-x="1273" d="M117 438q0 136 56 267.5t153 228.5q186 186 426 186q133 0 230 -58.5t143 -152t46 -209.5q0 -113 -34 -200h-877q-2 -18 -2 -58q0 -154 92 -251t244 -97q192 0 362 137l74 -92q-95 -79 -200 -121.5t-244 -42.5q-208 0 -338.5 130t-130.5 333zM281 610h745q8 36 8 86 q0 132 -73.5 217.5t-215.5 85.5q-180 0 -317 -137q-100 -100 -147 -252zM762 1268l276 297l154 -72l-297 -225h-133z" />
<glyph unicode="&#xea;" horiz-adv-x="1273" d="M117 438q0 136 56 267.5t153 228.5q186 186 426 186q133 0 230 -58.5t143 -152t46 -209.5q0 -113 -34 -200h-877q-2 -18 -2 -58q0 -154 92 -251t244 -97q192 0 362 137l74 -92q-95 -79 -200 -121.5t-244 -42.5q-208 0 -338.5 130t-130.5 333zM281 610h745q8 36 8 86 q0 132 -73.5 217.5t-215.5 85.5q-180 0 -317 -137q-100 -100 -147 -252zM547 1268l293 270h118l148 -270h-115l-114 143l-205 -143h-125z" />
<glyph unicode="&#xeb;" horiz-adv-x="1273" d="M117 438q0 136 56 267.5t153 228.5q186 186 426 186q133 0 230 -58.5t143 -152t46 -209.5q0 -113 -34 -200h-877q-2 -18 -2 -58q0 -154 92 -251t244 -97q192 0 362 137l74 -92q-95 -79 -200 -121.5t-244 -42.5q-208 0 -338.5 130t-130.5 333zM281 610h745q8 36 8 86 q0 132 -73.5 217.5t-215.5 85.5q-180 0 -317 -137q-100 -100 -147 -252zM569 1268l52 188h172l-52 -188h-172zM932 1268l51 188h172l-51 -188h-172z" />
<glyph unicode="&#xec;" horiz-adv-x="573" d="M72 0l293 1094h137l-293 -1094h-137zM238 1493l153 72l115 -297h-96z" />
<glyph unicode="&#xed;" horiz-adv-x="573" d="M72 0l293 1094h137l-293 -1094h-137zM406 1268l276 297l154 -72l-297 -225h-133z" />
<glyph unicode="&#xee;" horiz-adv-x="573" d="M72 0l293 1094h137l-293 -1094h-137zM190 1268l293 270h119l148 -270h-115l-115 143l-205 -143h-125z" />
<glyph unicode="&#xef;" horiz-adv-x="573" d="M72 0l293 1094h137l-293 -1094h-137zM213 1268l51 188h172l-51 -188h-172zM575 1268l52 188h172l-51 -188h-173z" />
<glyph unicode="&#xf0;" horiz-adv-x="1359" d="M117 469q0 130 49 246.5t137 202.5q81 83 187.5 129.5t222.5 46.5q244 0 397 -217q-69 206 -246 458l-295 -123l-45 97l275 114q-47 61 -107 131h174q6 -8 28 -35.5t32 -43.5l235 98l43 -94l-217 -93q264 -394 264 -720q0 -306 -200 -506q-87 -87 -202 -136t-245 -49 q-146 0 -257.5 64.5t-170.5 176.5t-59 253zM260 475q0 -170 95.5 -273.5t260.5 -103.5q190 0 338 148q71 69 111.5 161.5t40.5 194.5q0 161 -106 268t-277 107q-179 0 -313 -131q-71 -71 -110.5 -168.5t-39.5 -202.5z" />
<glyph unicode="&#xf1;" horiz-adv-x="1329" d="M55 0l293 1094h137l-49 -189q87 102 180.5 158.5t214.5 56.5q160 0 256.5 -94t96.5 -250q0 -52 -25 -162l-162 -614h-137l166 623q16 62 16 129q0 114 -69 178.5t-191 64.5q-136 0 -258 -107t-166 -270l-163 -618h-140zM526 1272q52 117 103.5 165t122.5 48q45 0 141 -45 q88 -41 121 -41q40 0 67.5 22.5t61.5 81.5l88 -24q-52 -118 -102.5 -164.5t-122.5 -46.5q-50 0 -142 45q-88 41 -121 41q-40 0 -67.5 -23.5t-59.5 -83.5z" />
<glyph unicode="&#xf2;" horiz-adv-x="1376" d="M119 463q0 128 52 248.5t144 214.5q92 90 208.5 142t242.5 52q220 0 357 -137.5t137 -351.5q0 -128 -53 -248t-146 -215q-90 -90 -206.5 -141.5t-242.5 -51.5q-221 0 -357 137t-136 351zM262 467q0 -172 99.5 -270.5t261.5 -98.5q181 0 329 148q76 75 120 175t44 206 q0 172 -99 270t-263 98q-90 0 -176 -39t-154 -106q-76 -76 -119 -176.5t-43 -206.5zM627 1493l153 72l115 -297h-96z" />
<glyph unicode="&#xf3;" horiz-adv-x="1376" d="M119 463q0 128 52 248.5t144 214.5q92 90 208.5 142t242.5 52q220 0 357 -137.5t137 -351.5q0 -128 -53 -248t-146 -215q-90 -90 -206.5 -141.5t-242.5 -51.5q-221 0 -357 137t-136 351zM262 467q0 -172 99.5 -270.5t261.5 -98.5q181 0 329 148q76 75 120 175t44 206 q0 172 -99 270t-263 98q-90 0 -176 -39t-154 -106q-76 -76 -119 -176.5t-43 -206.5zM793 1268l276 297l154 -72l-297 -225h-133z" />
<glyph unicode="&#xf4;" horiz-adv-x="1376" d="M119 463q0 128 52 248.5t144 214.5q92 90 208.5 142t242.5 52q220 0 357 -137.5t137 -351.5q0 -128 -53 -248t-146 -215q-90 -90 -206.5 -141.5t-242.5 -51.5q-221 0 -357 137t-136 351zM262 467q0 -172 99.5 -270.5t261.5 -98.5q181 0 329 148q76 75 120 175t44 206 q0 172 -99 270t-263 98q-90 0 -176 -39t-154 -106q-76 -76 -119 -176.5t-43 -206.5zM580 1268l292 270h119l148 -270h-115l-115 143l-204 -143h-125z" />
<glyph unicode="&#xf5;" horiz-adv-x="1376" d="M119 463q0 128 52 248.5t144 214.5q92 90 208.5 142t242.5 52q220 0 357 -137.5t137 -351.5q0 -128 -53 -248t-146 -215q-90 -90 -206.5 -141.5t-242.5 -51.5q-221 0 -357 137t-136 351zM262 467q0 -172 99.5 -270.5t261.5 -98.5q181 0 329 148q76 75 120 175t44 206 q0 172 -99 270t-263 98q-90 0 -176 -39t-154 -106q-76 -76 -119 -176.5t-43 -206.5zM545 1272q52 118 103 165.5t122 47.5q45 0 141 -45q88 -41 121 -41q40 0 67.5 22.5t61.5 81.5l88 -24q-52 -118 -102.5 -164.5t-122.5 -46.5q-49 0 -141 45q-88 41 -121 41 q-40 0 -67.5 -23.5t-59.5 -83.5z" />
<glyph unicode="&#xf6;" horiz-adv-x="1376" d="M119 463q0 128 52 248.5t144 214.5q92 90 208.5 142t242.5 52q220 0 357 -137.5t137 -351.5q0 -128 -53 -248t-146 -215q-90 -90 -206.5 -141.5t-242.5 -51.5q-221 0 -357 137t-136 351zM262 467q0 -172 99.5 -270.5t261.5 -98.5q181 0 329 148q76 75 120 175t44 206 q0 172 -99 270t-263 98q-90 0 -176 -39t-154 -106q-76 -76 -119 -176.5t-43 -206.5zM602 1268l51 188h172l-51 -188h-172zM965 1268l51 188h172l-51 -188h-172z" />
<glyph unicode="&#xf7;" horiz-adv-x="1351" d="M195 686l34 127h1039l-35 -127h-1038zM494 229l55 207h196l-57 -207h-194zM717 1063l55 207h195l-56 -207h-194z" />
<glyph unicode="&#xf8;" horiz-adv-x="1376" d="M-68 -12l254 211q-67 118 -67 264q0 128 52 248.5t144 214.5q92 90 208.5 142t242.5 52q223 0 360 -143l156 129h164l-256 -213q70 -115 70 -262q0 -128 -53 -248t-146 -215q-90 -90 -206.5 -141.5t-242.5 -51.5q-226 0 -362 142l-154 -129h-164zM260 467q0 -102 35 -180 l729 606q-94 102 -268 102q-92 0 -178 -38.5t-154 -106.5q-76 -76 -120 -176.5t-44 -206.5zM352 201q95 -103 269 -103q93 0 179 39t154 107q76 76 119 176.5t43 206.5q0 102 -35 180z" />
<glyph unicode="&#xf9;" horiz-adv-x="1325" d="M141 317q0 58 27 164l162 613h137l-168 -623q-16 -62 -16 -129q0 -114 70 -179t192 -65q134 0 256 108t166 271l166 617h137l-293 -1094h-137l49 190q-84 -102 -178 -158.5t-217 -56.5q-160 0 -256.5 93.5t-96.5 248.5zM590 1493l153 72l115 -297h-96z" />
<glyph unicode="&#xfa;" horiz-adv-x="1325" d="M141 317q0 58 27 164l162 613h137l-168 -623q-16 -62 -16 -129q0 -114 70 -179t192 -65q134 0 256 108t166 271l166 617h137l-293 -1094h-137l49 190q-84 -102 -178 -158.5t-217 -56.5q-160 0 -256.5 93.5t-96.5 248.5zM760 1268l276 297l154 -72l-297 -225h-133z" />
<glyph unicode="&#xfb;" horiz-adv-x="1325" d="M141 317q0 58 27 164l162 613h137l-168 -623q-16 -62 -16 -129q0 -114 70 -179t192 -65q134 0 256 108t166 271l166 617h137l-293 -1094h-137l49 190q-84 -102 -178 -158.5t-217 -56.5q-160 0 -256.5 93.5t-96.5 248.5zM545 1268l293 270h118l148 -270h-115l-115 143 l-204 -143h-125z" />
<glyph unicode="&#xfc;" horiz-adv-x="1325" d="M141 317q0 58 27 164l162 613h137l-168 -623q-16 -62 -16 -129q0 -114 70 -179t192 -65q134 0 256 108t166 271l166 617h137l-293 -1094h-137l49 190q-84 -102 -178 -158.5t-217 -56.5q-160 0 -256.5 93.5t-96.5 248.5zM565 1268l51 188h172l-51 -188h-172zM928 1268 l51 188h172l-51 -188h-172z" />
<glyph unicode="&#xfd;" horiz-adv-x="1241" d="M-160 -272l74 104q83 -59 178 -59q78 0 152 51.5t162 175.5l-209 1094h145l166 -940l618 940h162l-764 -1131q-115 -169 -219 -240t-229 -71q-127 0 -236 76zM686 1268l277 297l153 -72l-297 -225h-133z" />
<glyph unicode="&#xfe;" horiz-adv-x="1423" d="M-35 -340l508 1894h137l-178 -659q191 225 432 225q189 0 312.5 -129.5t123.5 -333.5q0 -150 -54 -280t-150 -225q-84 -85 -190.5 -132t-221.5 -47q-162 0 -267 81t-153 206l-162 -600h-137zM319 457q0 -153 99.5 -256t255.5 -103q184 0 317 133q78 76 121 184.5 t43 227.5q0 159 -89.5 255.5t-231.5 96.5q-93 0 -183.5 -41t-163.5 -114q-77 -77 -122.5 -177.5t-45.5 -205.5z" />
<glyph unicode="&#xff;" horiz-adv-x="1241" d="M-160 -272l74 104q83 -59 178 -59q78 0 152 51.5t162 175.5l-209 1094h145l166 -940l618 940h162l-764 -1131q-115 -169 -219 -240t-229 -71q-127 0 -236 76zM492 1268l51 188h172l-51 -188h-172zM854 1268l51 188h172l-51 -188h-172z" />
<glyph unicode="&#x152;" horiz-adv-x="2426" d="M201 627q0 346 233 579q135 135 332.5 210t429.5 75h1360l-35 -131h-891l-145 -543h794l-34 -131h-795l-150 -555h902l-35 -131h-1223q-183 0 -333 51t-249 150q-161 161 -161 426zM348 635q0 -213 131 -344q160 -160 473 -160h205l330 1229h-309q-192 0 -354.5 -63 t-282.5 -181q-193 -196 -193 -481z" />
<glyph unicode="&#x153;" horiz-adv-x="2250" d="M119 463q0 128 52 248.5t144 214.5q92 90 208.5 142t242.5 52q175 0 291 -92t155 -237q82 145 212 237t305 92q133 0 229.5 -58.5t142 -152t45.5 -209.5q0 -118 -32 -200h-879q-2 -20 -2 -58q0 -157 94.5 -252.5t251.5 -95.5q106 0 187.5 34.5t166.5 102.5l74 -92 q-198 -164 -428 -164q-169 0 -288 85t-158 227q-86 -139 -220.5 -225.5t-304.5 -86.5q-217 0 -353 137t-136 351zM262 467q0 -172 99.5 -270.5t261.5 -98.5q181 0 329 148q76 75 120 175t44 206q0 172 -99 270t-263 98q-90 0 -176 -39t-154 -106q-76 -76 -119 -176.5 t-43 -206.5zM1257 610h746q8 36 8 86q0 132 -73.5 217.5t-215.5 85.5q-179 0 -319 -137q-105 -108 -146 -252z" />
<glyph unicode="&#x178;" horiz-adv-x="1441" d="M274 1491h158l318 -774l735 774h186l-885 -918l-153 -573h-144l162 602zM692 1618l49 178h181l-50 -178h-180zM1081 1618l49 178h179l-49 -178h-179z" />
<glyph unicode="&#x2c6;" horiz-adv-x="1089" d="M461 1268l293 270h118l148 -270h-115l-114 143l-205 -143h-125z" />
<glyph unicode="&#x2dc;" horiz-adv-x="1089" d="M410 1272q52 118 103 165.5t122 47.5q45 0 141 -45q88 -41 121 -41q39 0 67 22.5t62 81.5l88 -24q-52 -118 -102.5 -164.5t-122.5 -46.5q-49 0 -141 45q-88 41 -121 41q-40 0 -67.5 -23.5t-59.5 -83.5z" />
<glyph unicode="&#x2000;" horiz-adv-x="955" />
<glyph unicode="&#x2001;" horiz-adv-x="1911" />
<glyph unicode="&#x2002;" horiz-adv-x="955" />
<glyph unicode="&#x2003;" horiz-adv-x="1911" />
<glyph unicode="&#x2004;" horiz-adv-x="637" />
<glyph unicode="&#x2005;" horiz-adv-x="477" />
<glyph unicode="&#x2006;" horiz-adv-x="318" />
<glyph unicode="&#x2007;" horiz-adv-x="318" />
<glyph unicode="&#x2008;" horiz-adv-x="238" />
<glyph unicode="&#x2009;" horiz-adv-x="382" />
<glyph unicode="&#x200a;" horiz-adv-x="106" />
<glyph unicode="&#x2010;" horiz-adv-x="897" d="M160 563l41 148h583l-41 -148h-583z" />
<glyph unicode="&#x2011;" horiz-adv-x="897" d="M160 563l41 148h583l-41 -148h-583z" />
<glyph unicode="&#x2012;" horiz-adv-x="897" d="M160 563l41 148h583l-41 -148h-583z" />
<glyph unicode="&#x2013;" horiz-adv-x="1150" d="M160 567l39 140h837l-37 -140h-839z" />
<glyph unicode="&#x2014;" horiz-adv-x="1937" d="M160 567l39 140h1626l-37 -140h-1628z" />
<glyph unicode="&#x2018;" horiz-adv-x="544" d="M307 1051l49 178q33 124 96.5 183.5t184.5 86.5l16 -63q-165 -46 -186 -181h68l-56 -204h-172z" />
<glyph unicode="&#x2019;" horiz-adv-x="544" d="M256 1106q162 46 186 180h-69l55 205h172l-47 -176q-35 -126 -98 -186t-183 -87z" />
<glyph unicode="&#x201a;" horiz-adv-x="544" d="M-78 -180q162 47 187 180h-70l57 205h170l-47 -176q-35 -126 -97.5 -186t-182.5 -87z" />
<glyph unicode="&#x201c;" horiz-adv-x="952" d="M307 1051l47 178q33 124 96.5 183.5t184.5 86.5l16 -63q-162 -46 -186 -181h67l-55 -204h-170zM713 1051l49 178q33 124 96.5 183.5t183.5 86.5l17 -63q-166 -47 -187 -181h68l-55 -204h-172z" />
<glyph unicode="&#x201d;" horiz-adv-x="952" d="M254 1106q165 47 186 180h-67l55 205h170l-47 -176q-35 -126 -98 -186t-183 -87zM662 1106q162 46 186 180h-70l56 205h172l-48 -176q-35 -126 -97.5 -186t-182.5 -87z" />
<glyph unicode="&#x201e;" horiz-adv-x="954" d="M-78 -180q162 47 187 180h-70l57 205h170l-47 -176q-35 -126 -97.5 -186t-182.5 -87zM332 -180q161 46 186 180h-69l55 205h172l-49 -176q-35 -126 -98 -186t-183 -87z" />
<glyph unicode="&#x2022;" horiz-adv-x="1034" d="M285 700q0 68 27 132t73 110q92 92 211 92q101 0 164 -63.5t63 -169.5q0 -70 -27 -133.5t-73 -108.5q-91 -94 -213 -94q-100 0 -162.5 64t-62.5 171z" />
<glyph unicode="&#x2026;" horiz-adv-x="1540" d="M39 0l55 203h170l-55 -203h-170zM539 0l55 203h170l-55 -203h-170zM1036 0l56 203h170l-56 -203h-170z" />
<glyph unicode="&#x202f;" horiz-adv-x="382" />
<glyph unicode="&#x2039;" horiz-adv-x="706" d="M109 537l4 16l471 453l88 -76l-400 -404l172 -383l-110 -57z" />
<glyph unicode="&#x203a;" horiz-adv-x="706" d="M33 162l399 403l-172 385l111 56l225 -451l-4 -16l-471 -453z" />
<glyph unicode="&#x205f;" horiz-adv-x="477" />
<glyph unicode="&#x20ac;" horiz-adv-x="1492" d="M86 512l33 121h168q9 126 43 244h-148l33 118h154q80 193 204 312q206 209 490 209q184 0 304 -92.5t173 -247.5l-123 -54q-56 131 -142.5 197.5t-230.5 66.5q-201 0 -362 -161q-102 -99 -160 -230h611l-33 -118h-621q-39 -122 -45 -244h602l-32 -121h-570 q12 -187 112 -297.5t269 -110.5q125 0 222 50t188 149l96 -82q-103 -118 -225 -182t-283 -64q-224 0 -368.5 144t-157.5 393h-201z" />
<glyph unicode="&#x2122;" horiz-adv-x="1497" d="M285 1409l24 82h510l-24 -82h-211l-162 -573h-86l162 573h-213zM780 836l187 655h80l145 -373l342 373h98l-186 -655h-84l145 512l-340 -367h-12l-143 367l-148 -512h-84z" />
<glyph unicode="&#x25fc;" horiz-adv-x="1095" d="M0 0v1096h1096v-1096h-1096z" />
<glyph unicode="&#xfb01;" horiz-adv-x="1359" d="M119 0l262 971h-156l35 123h154l37 141q40 149 120 227q91 94 244 94q123 0 219 -47l-33 -120q-97 47 -186 47q-174 0 -233 -224l-33 -118h375l-33 -123h-373l-262 -971h-137zM858 0l293 1094h137l-293 -1094h-137zM1210 1354l43 166h162l-43 -166h-162z" />
<glyph unicode="&#xfb02;" horiz-adv-x="1359" d="M119 0l262 971h-156l35 123h154l37 141q40 149 120 227q91 94 244 94q123 0 219 -47l-33 -120q-97 47 -186 47q-174 0 -233 -224l-33 -118h375l-33 -123h-373l-262 -971h-137zM858 0l418 1554h137l-418 -1554h-137z" />
<glyph unicode="&#xfb03;" horiz-adv-x="2146" d="M119 0l262 971h-156l35 123h154l37 141q40 149 120 227q91 94 244 94q123 0 219 -47l-33 -120q-97 47 -186 47q-174 0 -233 -224l-33 -118h375l-33 -123h-373l-262 -971h-137zM905 0l262 971h-155l35 123h153l37 141q39 148 121 227q91 94 244 94q123 0 219 -47l-33 -120 q-97 47 -186 47q-175 0 -234 -224l-33 -118h375l-33 -123h-372l-263 -971h-137zM1645 0l292 1094h138l-293 -1094h-137zM1997 1354l43 166h162l-43 -166h-162z" />
<glyph unicode="&#xfb04;" horiz-adv-x="2146" d="M119 0l262 971h-156l35 123h154l37 141q40 149 120 227q91 94 244 94q123 0 219 -47l-33 -120q-97 47 -186 47q-174 0 -233 -224l-33 -118h375l-33 -123h-373l-262 -971h-137zM905 0l262 971h-155l35 123h153l37 141q39 148 121 227q91 94 244 94q123 0 219 -47l-33 -120 q-97 47 -186 47q-175 0 -234 -224l-33 -118h375l-33 -123h-372l-263 -971h-137zM1645 0l417 1554h138l-418 -1554h-137z" />
</font>
</defs>
</svg>
