<?xml version="1.0" standalone="no"?>
<!DOCTYPE svg PUBLIC "-//W3C//DTD SVG 1.1//EN" "http://www.w3.org/Graphics/SVG/1.1/DTD/svg11.dtd" >
<svg xmlns="http://www.w3.org/2000/svg">
<metadata></metadata>
<defs>
<font id="gotham_narrow_ssmbook" horiz-adv-x="1193" >
<font-face units-per-em="2048" ascent="1638" descent="-410" />
<missing-glyph horiz-adv-x="528" />
<glyph horiz-adv-x="0" />
<glyph horiz-adv-x="682" />
<glyph unicode=" "  horiz-adv-x="528" />
<glyph unicode="&#x09;" horiz-adv-x="528" />
<glyph unicode="&#xa0;" horiz-adv-x="528" />
<glyph unicode="!" horiz-adv-x="581" d="M184 0v238h213v-238h-213zM184 1384v107h215v-107l-59 -952h-98z" />
<glyph unicode="&#x22;" horiz-adv-x="884" d="M137 899l43 592h209v-12l-158 -580h-94zM524 899l41 592h207v-12l-158 -580h-90z" />
<glyph unicode="#" horiz-adv-x="1320" d="M92 369v161h215l64 437h-211v161h233l53 363h156l-53 -363h332l51 363h155l-53 -363h193v-161h-215l-64 -437h211v-161h-233l-54 -369h-155l53 369h-330l-53 -369h-156l54 369h-193zM461 528h334l65 443h-336z" />
<glyph unicode="$" horiz-adv-x="1202" d="M98 199l109 139q163 -157 338 -178v520q-209 73 -300 169t-91 253v2q0 158 106.5 264t280.5 123v131h139v-131q197 -20 362 -160l-100 -137q-135 113 -266 135v-500q213 -73 306 -173.5t93 -254.5v-4q0 -163 -108.5 -270.5t-286.5 -126.5v-211h-139v211q-257 22 -443 199 zM334 1114q0 -84 45.5 -139t165.5 -103v459q-98 -12 -155.5 -72t-55.5 -143v-2zM676 158q103 13 162 76.5t57 156.5v2q0 85 -48 141.5t-171 104.5v-481z" />
<glyph unicode="%" horiz-adv-x="1617" d="M111 1120v13q0 160 86 267t221 107q134 0 220.5 -106t86.5 -264v-13q0 -160 -87 -267t-224 -107q-133 0 -218 105.5t-85 264.5zM250 0l512 776l455 715h151l-510 -778l-457 -713h-151zM254 1124q0 -109 46.5 -177t117.5 -68q72 0 117 68t45 175v8q0 109 -47.5 177.5 t-118.5 68.5q-72 0 -116 -67.5t-44 -173.5v-11zM895 354v13q0 160 87 267t222 107t220 -106t85 -264v-13q0 -160 -86.5 -267t-222.5 -107q-134 0 -219.5 106t-85.5 264zM1038 360q0 -109 47 -177t119 -68t117 67.5t45 173.5v11q0 108 -47.5 176.5t-118.5 68.5 q-72 0 -117 -68.5t-45 -174.5v-9z" />
<glyph unicode="&#x26;" horiz-adv-x="1337" d="M94 387v6q0 279 314 438q-75 101 -108.5 177.5t-33.5 158.5v7q0 142 102.5 242t264.5 100q149 0 244.5 -95.5t95.5 -232.5v-8q0 -131 -79.5 -226t-229.5 -168l278 -335q77 136 137 307l150 -60q-84 -226 -176 -374l217 -252l-140 -99l-186 215q-185 -208 -422 -208 q-186 0 -307 114t-121 293zM281 395q0 -111 72.5 -183.5t185.5 -72.5q161 0 303 168l-336 404q-114 -55 -169.5 -136t-55.5 -174v-6zM440 1167q0 -62 27.5 -121t99.5 -149q236 105 236 277v4q0 79 -49.5 132.5t-126.5 53.5q-82 0 -134.5 -55t-52.5 -138v-4z" />
<glyph unicode="'" horiz-adv-x="499" d="M137 899l43 592h211v-12l-160 -580h-94z" />
<glyph unicode="(" horiz-adv-x="847" d="M139 612v2q0 303 137.5 534.5t397.5 373.5l71 -119q-423 -279 -423 -791v-2q0 -510 423 -786l-71 -119q-260 144 -397.5 374t-137.5 533z" />
<glyph unicode=")" horiz-adv-x="847" d="M102 -176q424 280 424 788v2q0 512 -424 789l72 119q260 -144 397.5 -374.5t137.5 -535.5v-2q0 -301 -138 -532t-397 -373z" />
<glyph unicode="*" horiz-adv-x="856" d="M127 1067l231 107l-231 106l61 106l203 -149l-22 258h118l-24 -258l203 149l63 -106l-231 -106l231 -107l-63 -106l-203 149l24 -258h-118l22 258l-203 -149z" />
<glyph unicode="+" d="M133 666v168h379v378h172v-378h377v-168h-377v-379h-172v379h-379z" />
<glyph unicode="," horiz-adv-x="522" d="M92 -190q84 26 119 72t29 118h-86v238h215v-203q0 -136 -61 -208.5t-191 -100.5z" />
<glyph unicode="-" horiz-adv-x="829" d="M135 551v184h561v-184h-561z" />
<glyph unicode="." horiz-adv-x="522" d="M154 0v238h215v-238h-215z" />
<glyph unicode="/" horiz-adv-x="972" d="M-20 -254l825 1935h160l-824 -1935h-161z" />
<glyph unicode="0" horiz-adv-x="1349" d="M127 735v19q0 223 67 396t192 269.5t290 96.5t289.5 -96t191 -268.5t66.5 -395.5v-19q0 -223 -67 -396t-192 -269.5t-290 -96.5t-290 96t-191 268t-66 396zM319 739q0 -264 98.5 -429t258.5 -165q106 0 187 74t125 208t44 308v17q0 264 -99 429t-259 165 q-161 0 -258 -162.5t-97 -427.5v-17z" />
<glyph unicode="1" horiz-adv-x="727" d="M70 1384l319 117h135v-1501h-182v1305l-242 -82z" />
<glyph unicode="2" horiz-adv-x="1148" d="M106 0v145l474 523q135 142 188 234t53 190q0 113 -71.5 180t-180.5 67q-94 0 -170 -49t-155 -155l-125 110q90 132 201.5 199t265.5 67q188 0 308 -112t120 -291v-6q0 -139 -66.5 -251t-236.5 -288l-351 -391h664v-172h-918z" />
<glyph unicode="3" horiz-adv-x="1153" d="M90 180l119 131q144 -164 342 -164q122 0 203.5 78t81.5 203v6q0 132 -102.5 202.5t-274.5 70.5h-64l-26 116l399 496h-610v172h846v-143l-406 -496q87 -11 161 -40t134 -77.5t94.5 -124t34.5 -170.5v-8q0 -201 -134 -329t-335 -128q-280 0 -463 205z" />
<glyph unicode="4" horiz-adv-x="1269" d="M88 475l719 1026h164v-1005h196v-158h-196v-338h-176v338h-676zM297 496h498v716z" />
<glyph unicode="5" horiz-adv-x="1163" d="M106 162l109 139q164 -151 336 -151q134 0 219.5 87.5t85.5 225.5v4q0 136 -86.5 215.5t-222.5 79.5q-123 0 -248 -66l-117 78l39 717h760v-172h-600l-27 -438q115 47 228 47q96 0 178.5 -29t145.5 -84.5t99.5 -143t36.5 -196.5v-6q0 -221 -137.5 -357.5t-353.5 -136.5 q-128 0 -242 50.5t-203 136.5z" />
<glyph unicode="6" horiz-adv-x="1239" d="M127 686v16q0 375 149.5 594.5t409.5 219.5q107 0 192.5 -33.5t174.5 -102.5l-95 -149q-136 112 -278 112q-116 0 -200 -78.5t-125 -210t-42 -300.5h2q125 184 349 184q122 0 223 -52t164 -158.5t63 -248.5v-4q0 -217 -138 -358.5t-341 -141.5t-334 131 q-87 87 -130.5 221.5t-43.5 358.5zM334 467q0 -141 83 -233.5t218 -92.5q132 0 212.5 93t80.5 233v4q0 139 -82 223t-213 84q-130 0 -214.5 -86.5t-84.5 -220.5v-4z" />
<glyph unicode="7" horiz-adv-x="1132" d="M133 1319v172h887v-141l-574 -1350h-202l573 1319h-684z" />
<glyph unicode="8" horiz-adv-x="1200" d="M106 397v9q0 130 71 222t194 144q-100 51 -159.5 135.5t-59.5 202.5v8q0 172 129.5 282.5t318.5 110.5q123 0 225 -49t163 -139.5t61 -204.5v-8q0 -118 -60 -202.5t-160 -135.5q122 -52 193.5 -144t71.5 -220v-9q0 -188 -139.5 -303.5t-354.5 -115.5q-141 0 -253 51.5 t-176.5 147t-64.5 218.5zM293 408q0 -117 84 -194t223 -77q140 0 224.5 77t84.5 194v4q0 120 -88.5 197t-220.5 77t-219.5 -77t-87.5 -197v-4zM332 1102q0 -113 76.5 -187.5t191.5 -74.5t191.5 74.5t76.5 187.5v4q0 108 -76 178t-192 70t-192 -70t-76 -178v-4z" />
<glyph unicode="9" horiz-adv-x="1236" d="M125 1001v7q0 144 61 260t170.5 182t245.5 66q202 0 336 -134q84 -84 128 -220.5t44 -356.5v-17q0 -378 -151.5 -595.5t-407.5 -217.5q-206 0 -387 150l94 147q150 -125 297 -125q115 0 200 78.5t126.5 207.5t42.5 290h-2q-58 -88 -146 -137t-198 -49q-197 0 -325 125.5 t-128 338.5zM311 1010q0 -141 81.5 -227.5t211.5 -86.5q132 0 215.5 90t83.5 226v6q0 145 -83 238.5t-220 93.5q-132 0 -210.5 -96t-78.5 -240v-4z" />
<glyph unicode=":" horiz-adv-x="544" d="M164 0v238h215v-238h-215zM164 877v237h215v-237h-215z" />
<glyph unicode=";" horiz-adv-x="544" d="M102 -190q84 26 119 72t29 118h-86v238h215v-203q0 -136 -60.5 -208.5t-191.5 -100.5zM164 877v237h215v-237h-215z" />
<glyph unicode="&#x3c;" d="M135 670v161l881 449v-188l-690 -340l690 -342v-191z" />
<glyph unicode="=" d="M154 434v174h888v-174h-888zM154 891v174h888v-174h-888z" />
<glyph unicode="&#x3e;" d="M180 219v189l690 340l-690 342v190l881 -449v-161z" />
<glyph unicode="?" horiz-adv-x="1032" d="M61 1309q184 198 431 198q198 0 319 -113.5t121 -293.5v-4q0 -92 -30 -166t-84 -125t-122 -84t-151 -51l-21 -238h-121l-28 352l10 13q176 15 269.5 90t93.5 200v7q0 107 -73 175t-192 68q-172 0 -311 -153zM356 0v238h215v-238h-215z" />
<glyph unicode="@" horiz-adv-x="1898" d="M115 545q0 154 41.5 300t119.5 266.5t183 212t238.5 142t279.5 50.5q170 0 320.5 -64.5t256 -172.5t167 -252.5t61.5 -301.5q0 -259 -111 -417t-272 -158q-106 0 -173.5 50t-90.5 132q-138 -182 -314 -182q-137 0 -229 97.5t-92 258.5q0 153 62.5 285t164.5 208t215 76 q99 0 164.5 -48.5t99.5 -125.5l27 143l156 -22l-93 -514q-14 -71 -14 -125q0 -70 39 -110t109 -40q112 0 194 139t82 355q0 138 -55 267t-149.5 228t-232.5 158.5t-294 59.5q-168 0 -315 -73.5t-248.5 -196.5t-160 -286t-58.5 -339q-1 -172 55.5 -320.5t156.5 -253.5 t241.5 -165t305.5 -60q135 0 244.5 31t220.5 96l35 -57q-235 -144 -502 -144q-176 0 -331 66t-265.5 181t-174.5 277.5t-64 348.5zM662 528q0 -114 53.5 -176.5t146.5 -62.5q97 0 176 82q56 54 91.5 140.5t35.5 178.5q0 105 -56 172.5t-146 67.5q-101 0 -179 -78 q-54 -56 -88 -145.5t-34 -178.5z" />
<glyph unicode="A" horiz-adv-x="1468" d="M80 0l563 1501h182l564 -1501h-199l-137 381h-645l-138 -381h-190zM469 547h522l-260 708z" />
<glyph unicode="B" horiz-adv-x="1351" d="M190 0v1491h512q246 0 373 -127q99 -104 99 -248v-4q0 -243 -236 -344q299 -90 299 -356v-9q0 -190 -141.5 -296.5t-380.5 -106.5h-525zM375 168h346q153 0 241.5 66.5t88.5 185.5v2q0 119 -88.5 183.5t-255.5 64.5h-332v-502zM375 834h303q142 0 225.5 65t83.5 186v5 q0 108 -78 170.5t-217 62.5h-317v-489z" />
<glyph unicode="C" horiz-adv-x="1343" d="M133 737v15q0 222 85.5 395.5t235.5 268.5t337 95q147 0 255 -48t203 -138l-114 -145q-162 159 -351 159q-197 0 -327.5 -164.5t-130.5 -422.5v-9q0 -262 131 -426.5t329 -164.5q103 0 188 41.5t171 125.5l112 -133q-104 -101 -217 -153.5t-262 -52.5q-186 0 -332.5 93 t-229.5 266t-83 398z" />
<glyph unicode="D" horiz-adv-x="1456" d="M190 0v1491h431q208 0 367.5 -92.5t247 -259.5t87.5 -383v-19q0 -216 -87.5 -383.5t-247.5 -260.5t-367 -93h-431zM377 170h241q232 0 373.5 155t141.5 412v15q0 256 -141.5 412.5t-373.5 156.5h-241v-1151z" />
<glyph unicode="E" horiz-adv-x="1239" d="M190 0v1491h920v-170h-733v-483h653v-172h-653v-496h743v-170h-930z" />
<glyph unicode="F" horiz-adv-x="1206" d="M190 0v1491h912v-172h-725v-504h647v-172h-647v-643h-187z" />
<glyph unicode="G" horiz-adv-x="1456" d="M133 735v17q0 215 85 388t238.5 272t346.5 99q143 0 251 -39.5t208 -121.5l-113 -148q-73 66 -156 101.5t-194 35.5q-203 0 -338 -165.5t-135 -419.5v-13q0 -270 133.5 -430.5t353.5 -160.5q176 0 305 96v393h-356v166h534v-649q-223 -176 -491 -176q-201 0 -353.5 94.5 t-235.5 265.5t-83 395z" />
<glyph unicode="H" horiz-adv-x="1431" d="M190 0v1491h187v-655h678v655h188v-1491h-188v664h-678v-664h-187z" />
<glyph unicode="I" horiz-adv-x="593" d="M203 0v1491h188v-1491h-188z" />
<glyph unicode="J" horiz-adv-x="1024" d="M59 186l125 123q56 -79 114.5 -116t139.5 -37q103 0 165.5 73t62.5 211v1051h186v-1053q0 -227 -119 -346q-110 -110 -293 -110q-126 0 -222 54.5t-159 149.5z" />
<glyph unicode="K" horiz-adv-x="1351" d="M190 0v1491h187v-821l667 821h228l-535 -649l563 -842h-223l-469 692l-231 -270v-422h-187z" />
<glyph unicode="L" horiz-adv-x="1140" d="M190 0v1491h187v-1319h674v-172h-861z" />
<glyph unicode="M" horiz-adv-x="1632" d="M190 0v1491h193l434 -764l432 764h195v-1491h-184v1157l-441 -764h-8l-440 764v-1157h-181z" />
<glyph unicode="N" horiz-adv-x="1480" d="M190 0v1491h175l743 -1118v1118h182v-1491h-157l-760 1149v-1149h-183z" />
<glyph unicode="O" horiz-adv-x="1560" d="M133 735v19q0 218 81.5 391.5t230 272t337.5 98.5t336.5 -98t228 -271t80.5 -391v-19q0 -217 -81 -390.5t-229.5 -272.5t-336.5 -99q-189 0 -337 98t-229 271t-81 391zM326 739q0 -259 129 -424t327 -165t325.5 163.5t127.5 423.5v15q0 259 -128.5 424t-326.5 165 q-199 0 -326.5 -163.5t-127.5 -423.5v-15z" />
<glyph unicode="P" horiz-adv-x="1265" d="M190 0v1491h457q241 0 385 -128.5t144 -350.5v-4q0 -155 -73.5 -268t-195 -169t-276.5 -57h-254v-514h-187zM377 682h256q163 0 258.5 86.5t95.5 232.5v5q0 152 -93 233.5t-257 81.5h-260v-639z" />
<glyph unicode="Q" horiz-adv-x="1562" d="M133 735v19q0 218 81.5 391.5t230 272t337.5 98.5t336.5 -98t228 -271t80.5 -391v-19q0 -291 -147 -499l172 -154l-119 -127l-168 158q-165 -140 -385 -140q-189 0 -337 98t-229 271t-81 391zM326 737q0 -261 129.5 -425.5t328.5 -164.5q146 0 252 86l-231 213l119 127 l221 -213q90 155 90 375v19q0 258 -128.5 422.5t-326.5 164.5q-199 0 -326.5 -162.5t-127.5 -422.5v-19z" />
<glyph unicode="R" horiz-adv-x="1357" d="M190 0v1491h519q257 0 393 -139q119 -119 119 -314v-6q0 -169 -91.5 -279t-246.5 -151l383 -602h-219l-359 563h-311v-563h-187zM377 731h303q169 0 261.5 79.5t92.5 215.5v4q0 140 -89.5 215.5t-250.5 75.5h-317v-590z" />
<glyph unicode="S" horiz-adv-x="1200" d="M88 190l115 142q97 -89 195.5 -135.5t215.5 -46.5q124 0 202.5 65.5t78.5 165.5v4q0 91 -66.5 153t-253.5 128q-233 87 -330.5 183.5t-97.5 256.5v4q0 174 128 287.5t327 113.5q258 0 455 -170l-111 -145q-164 145 -350 145q-118 0 -190 -61t-72 -154v-4q0 -63 27 -108 t100 -89t209 -94q223 -83 316 -181.5t93 -252.5v-4q0 -183 -131.5 -298t-335.5 -115q-295 0 -524 210z" />
<glyph unicode="T" d="M92 1319v172h1010v-172h-412v-1319h-186v1319h-412z" />
<glyph unicode="U" horiz-adv-x="1425" d="M172 561v930h186v-928q0 -199 94.5 -306t262.5 -107q166 0 260 104t94 303v934h186v-924q0 -284 -147 -437t-397 -153q-247 0 -393 152t-146 432z" />
<glyph unicode="V" horiz-adv-x="1396" d="M80 1491h203l417 -1225l420 1225h197l-533 -1501h-172z" />
<glyph unicode="W" horiz-adv-x="2070" d="M92 1491h199l334 -1184l333 1188h160l336 -1188l334 1184h192l-442 -1501h-168l-334 1157l-336 -1157h-165z" />
<glyph unicode="X" horiz-adv-x="1351" d="M90 0l475 764l-452 727h213l350 -588l354 588h209l-453 -727l476 -764h-215l-375 623l-373 -623h-209z" />
<glyph unicode="Y" horiz-adv-x="1331" d="M53 1491h215l400 -703l399 703h209l-516 -889v-602h-189v600z" />
<glyph unicode="Z" horiz-adv-x="1284" d="M131 0v131l787 1192h-758v168h997v-131l-788 -1192h788v-168h-1026z" />
<glyph unicode="[" horiz-adv-x="864" d="M199 -276v1767h540v-139h-370v-1489h370v-139h-540z" />
<glyph unicode="\" horiz-adv-x="972" d="M8 1681h160l825 -1935h-159z" />
<glyph unicode="]" horiz-adv-x="864" d="M125 -137h369v1489h-369v139h541v-1767h-541v139z" />
<glyph unicode="^" horiz-adv-x="1019" d="M166 1067l274 420h140l274 -420h-147l-199 293l-199 -293h-143z" />
<glyph unicode="_" horiz-adv-x="1216" d="M12 -193h1192v-145h-1192v145z" />
<glyph unicode="`" horiz-adv-x="1097" d="M338 1481l174 84l190 -310h-135z" />
<glyph unicode="a" horiz-adv-x="1110" d="M96 322v10q0 170 111.5 264t296.5 94q141 0 278 -45v60q0 127 -71 194.5t-199 67.5q-141 0 -281 -72l-55 145q173 88 356 88q211 0 318 -110q108 -102 108 -307v-711h-178v154q-119 -177 -329 -177q-95 0 -174.5 39.5t-130 119.5t-50.5 186zM274 332q0 -96 63 -153.5 t159 -57.5q122 0 205 74.5t83 187.5v133q-118 41 -252 41q-122 0 -190 -59t-68 -160v-6z" />
<glyph unicode="b" horiz-adv-x="1253" d="M168 0v1538h178v-627q138 226 352 226q86 0 164.5 -37t141 -106t100 -179t37.5 -246v-22q0 -135 -37.5 -245.5t-100 -180t-141 -107t-164.5 -37.5q-213 0 -352 218v-195h-178zM342 547q0 -182 93 -295t222 -113t214 110t85 298v18q0 187 -86 298.5t-213 111.5 q-129 0 -222 -113t-93 -295v-20z" />
<glyph unicode="c" horiz-adv-x="1050" d="M111 545v18q0 250 142.5 412t356.5 162q203 0 355 -152l-105 -133q-116 121 -250 121t-225.5 -116t-91.5 -296v-10q0 -184 92.5 -298t230.5 -114q134 3 250 125l103 -121q-154 -168 -363 -168q-215 0 -355 159.5t-140 410.5z" />
<glyph unicode="d" horiz-adv-x="1253" d="M115 545v24q0 135 37 244.5t99 179t141 107t165 37.5q214 0 350 -217v618h180v-1538h-180v203q-134 -226 -350 -226q-86 0 -165 37t-141 106.5t-99 179.5t-37 245zM299 551q0 -188 86 -300t213 -112q129 0 222 114t93 294v22q0 180 -93 293t-222 113q-130 0 -214.5 -109 t-84.5 -299v-16z" />
<glyph unicode="e" horiz-adv-x="1132" d="M111 547v14q0 252 133 414t334 162q209 0 329.5 -161t120.5 -419q0 -45 -2 -70h-735q13 -165 105 -259.5t222 -94.5q82 0 148.5 32t130.5 93l98 -113q-163 -170 -387 -170q-103 0 -193.5 40.5t-158 113t-106.5 181t-39 237.5zM291 621h557q-8 159 -79.5 260.5 t-193.5 101.5q-116 0 -194 -99t-90 -263z" />
<glyph unicode="f" horiz-adv-x="718" d="M88 958v154h133v98q0 174 84 258q81 78 221 78q82 0 154 -20v-158q-75 21 -123 21q-158 0 -158 -193v-84h279v-154h-279v-958h-178v958h-133z" />
<glyph unicode="g" horiz-adv-x="1253" d="M115 604v8q0 123 36.5 224t97.5 166t139 100t163 35q218 0 356 -211v188h180v-956q0 -227 -122 -355q-127 -127 -381 -127q-226 0 -424 115l67 143q161 -104 353 -104q156 0 241.5 81.5t85.5 240.5v145q-140 -219 -356 -219q-86 0 -164 35t-139 100t-97 166t-36 225z M299 606q0 -166 85.5 -267t211.5 -101q128 0 222.5 102t94.5 264v6q0 164 -94 265.5t-223 101.5q-128 0 -212.5 -99.5t-84.5 -267.5v-4z" />
<glyph unicode="h" horiz-adv-x="1181" d="M168 0v1538h178v-598q117 197 324 197q166 0 262 -108t96 -292v-737h-182v684q0 139 -62 215t-176 76q-115 0 -188.5 -81.5t-73.5 -215.5v-678h-178z" />
<glyph unicode="i" horiz-adv-x="540" d="M172 1325v197h197v-197h-197zM178 0v1114h182v-1114h-182z" />
<glyph unicode="j" horiz-adv-x="544" d="M-4 -170q60 -6 63 -6q125 0 125 149v1141h181v-1155q0 -138 -69.5 -212.5t-201.5 -74.5q-26 0 -98 13v145zM174 1325v197h199v-197h-199z" />
<glyph unicode="k" horiz-adv-x="1091" d="M168 0v1538h178v-995l461 571h215l-385 -463l399 -651h-211l-311 510l-168 -199v-311h-178z" />
<glyph unicode="l" horiz-adv-x="540" d="M178 0v1538h182v-1538h-182z" />
<glyph unicode="m" horiz-adv-x="1806" d="M168 0v1114h178v-172q118 195 309 195q106 0 184 -52.5t119 -144.5q130 197 336 197q162 0 257.5 -106t95.5 -296v-735h-179v684q0 141 -60 216t-167 75q-106 0 -175 -79.5t-69 -215.5v-680h-180v686q0 140 -59 214.5t-166 74.5q-105 0 -175.5 -83t-70.5 -214v-678h-178z " />
<glyph unicode="n" horiz-adv-x="1181" d="M168 0v1114h178v-174q117 197 324 197q166 0 262 -108t96 -292v-737h-182v684q0 139 -62 215t-176 76q-115 0 -188.5 -81.5t-73.5 -215.5v-678h-178z" />
<glyph unicode="o" horiz-adv-x="1222" d="M111 549v14q0 161 64.5 292.5t179.5 206.5t257 75q217 0 358.5 -162.5t141.5 -409.5v-14q0 -161 -64.5 -293t-179.5 -207.5t-258 -75.5q-142 0 -256.5 74.5t-178.5 206t-64 293.5zM293 553q0 -178 91 -297t228 -119q140 0 230 118t90 296v10q0 178 -92.5 297t-229.5 119 q-139 0 -228 -118t-89 -296v-10z" />
<glyph unicode="p" horiz-adv-x="1253" d="M168 -319v1433h178v-203q138 226 352 226q86 0 164.5 -37t141 -106t100 -179t37.5 -246v-22q0 -135 -37.5 -245.5t-100 -180t-141 -107t-164.5 -37.5q-213 0 -352 218v-514h-178zM342 547q0 -182 93 -295t222 -113t214 110t85 298v18q0 187 -86 298.5t-213 111.5 q-129 0 -222 -113t-93 -295v-20z" />
<glyph unicode="q" horiz-adv-x="1253" d="M115 545v24q0 135 37 244.5t99 179t141 107t165 37.5q214 0 350 -217v194h180v-1433h-180v522q-134 -226 -350 -226q-86 0 -165 37t-141 106.5t-99 179.5t-37 245zM299 551q0 -188 86 -300t213 -112q129 0 222 114t93 294v22q0 180 -93 293t-222 113q-130 0 -214.5 -109 t-84.5 -299v-16z" />
<glyph unicode="r" horiz-adv-x="786" d="M168 0v1114h178v-235q52 120 148 189q87 63 200 63q12 0 23 -1v-194h-10q-159 0 -260 -108t-101 -308v-520h-178z" />
<glyph unicode="s" horiz-adv-x="948" d="M70 137l90 131q156 -135 321 -135q86 0 138.5 44t52.5 114v4q0 63 -55 104.5t-181 94.5q-61 26 -100.5 45.5t-84 49t-69.5 60t-42 74t-17 94.5v4q0 141 99 226.5t253 85.5q94 0 186.5 -32.5t167.5 -88.5l-81 -133q-146 100 -277 100q-79 0 -128.5 -39.5t-49.5 -99.5v-6 q0 -25 12 -47.5t29.5 -39.5t52.5 -37t64.5 -34t80.5 -37q62 -28 102.5 -49.5t84 -52t68.5 -62t41 -74t16 -92.5v-2q0 -151 -104.5 -239t-264.5 -88q-104 0 -210 40.5t-195 116.5z" />
<glyph unicode="t" horiz-adv-x="778" d="M84 958v156h131v320h182v-320h277v-156h-277v-663q0 -79 38 -113.5t110 -34.5q60 0 129 29v-151q-77 -41 -176 -41q-131 0 -207 66t-76 212v696h-131z" />
<glyph unicode="u" horiz-adv-x="1181" d="M154 379v735h180v-684q0 -139 62.5 -214t176.5 -75t187.5 81t73.5 214v678h180v-1114h-180v174q-116 -197 -322 -197q-167 0 -262.5 108.5t-95.5 293.5z" />
<glyph unicode="v" horiz-adv-x="1126" d="M78 1114h192l293 -885l297 885h189l-404 -1122h-164z" />
<glyph unicode="w" horiz-adv-x="1638" d="M88 1114h188l230 -844l237 848h154l240 -850l231 846h182l-327 -1122h-164l-240 831l-241 -831h-162z" />
<glyph unicode="x" horiz-adv-x="1099" d="M82 0l362 569l-348 545h199l256 -414l258 414h192l-348 -543l365 -571h-199l-272 440l-271 -440h-194z" />
<glyph unicode="y" horiz-adv-x="1130" d="M76 1114h192l312 -885l284 885h187l-389 -1132q-59 -169 -135.5 -239.5t-194.5 -70.5q-105 0 -207 54l53 145q67 -41 141 -41q58 0 98.5 38t76.5 132z" />
<glyph unicode="z" horiz-adv-x="1036" d="M109 0v119l596 844h-572v151h799v-119l-598 -843h596v-152h-821z" />
<glyph unicode="{" horiz-adv-x="935" d="M111 543v139h49q124 0 178.5 58.5t54.5 172.5q0 34 -11 114t-11 114q0 77 20 135.5t67 108.5t132.5 85t210.5 54l24 -123q-117 -25 -179 -61.5t-83.5 -86t-21.5 -133.5q0 -37 12 -111.5t12 -111.5q0 -227 -221 -285q221 -60 221 -284q0 -37 -12 -112t-12 -112 q0 -63 11 -104t42.5 -75.5t86.5 -58t144 -42.5l-24 -123q-100 16 -175 42t-123.5 59.5t-78 78.5t-41.5 94t-12 111q0 33 11 112.5t11 112.5q0 113 -54.5 172.5t-178.5 59.5h-49z" />
<glyph unicode="|" horiz-adv-x="643" d="M248 -254v1935h147v-1935h-147z" />
<glyph unicode="}" horiz-adv-x="935" d="M109 -176q89 19 145 42.5t87.5 58t42.5 75.5t11 104q0 37 -13 112t-13 112q0 225 223 284q-223 60 -223 285q0 37 13 111.5t13 111.5q0 84 -21.5 133.5t-84 86t-180.5 61.5l26 123q125 -19 210.5 -54t132.5 -85t67 -108.5t20 -135.5q0 -34 -12 -114t-12 -114 q0 -114 54.5 -172.5t180.5 -58.5h47v-139h-47q-125 0 -180 -59.5t-55 -172.5q0 -33 12 -112.5t12 -112.5q0 -62 -12 -111t-41.5 -94t-78 -78.5t-123.5 -59.5t-175 -42z" />
<glyph unicode="~" horiz-adv-x="954" d="M147 543q28 115 73.5 168t117.5 53q64 0 149 -47q77 -43 115 -43q37 0 59.5 23.5t43.5 80.5l104 -30q-29 -116 -76 -170t-117 -54q-57 0 -149 47q-74 43 -117 43q-35 0 -55 -22.5t-41 -79.5z" />
<glyph unicode="&#xa1;" horiz-adv-x="581" d="M184 0v106l58 953h98l59 -953v-106h-215zM184 1253v238h213v-238h-213z" />
<glyph unicode="&#xa2;" horiz-adv-x="1085" d="M119 743v17q0 247 138.5 407.5t350.5 165.5l23 170h141l-27 -184q133 -34 240 -141l-104 -131q-84 80 -162 106l-113 -815h17q141 0 266 125l100 -119q-160 -170 -377 -170h-20l-27 -186h-141l31 213q-152 53 -244 198t-92 344zM301 750q0 -136 48.5 -234t133.5 -143 l109 794q-129 -11 -210 -121t-81 -288v-8z" />
<glyph unicode="&#xa3;" horiz-adv-x="1204" d="M131 629v162h156v239q0 247 123 367q114 114 299 114q245 0 389 -196l-133 -119q-51 69 -111 105t-143 36q-98 0 -162 -61q-76 -76 -76 -248v-237h475v-162h-475v-465h623v-164h-963v111l154 47v471h-156z" />
<glyph unicode="&#xa5;" horiz-adv-x="1288" d="M57 1491h213l375 -696l381 696h205l-451 -784h314v-142h-361v-178h361v-141h-361v-246h-178v246h-360v141h360v178h-360v142h311z" />
<glyph unicode="&#xa7;" horiz-adv-x="1216" d="M121 758v4q0 92 66.5 158t183.5 92q-133 85 -133 211v4q0 129 99.5 206.5t266.5 77.5q118 0 223.5 -41t184.5 -116l-101 -121q-136 125 -309 125q-88 0 -136 -35.5t-48 -91.5v-4q0 -56 62 -97.5t227 -93.5q214 -64 301.5 -130.5t87.5 -172.5v-4q0 -92 -66.5 -158 t-185.5 -92q135 -83 135 -211v-4q0 -129 -99.5 -206.5t-265.5 -77.5q-239 0 -409 157l100 121q139 -125 309 -125q89 0 138 35.5t49 91.5v4q0 56 -63 97.5t-228 93.5q-213 64 -301 131t-88 172zM291 778q0 -53 56 -94.5t190 -83.5q121 -37 190 -37q84 0 141.5 42t57.5 102v6 q0 54 -56 95t-192 83q-121 37 -186 37q-86 0 -143.5 -42t-57.5 -102v-6z" />
<glyph unicode="&#xa8;" horiz-adv-x="1097" d="M283 1260v202h192v-202h-192zM623 1260v202h192v-202h-192z" />
<glyph unicode="&#xa9;" horiz-adv-x="1603" d="M111 731v27q0 155 53.5 294.5t145 241.5t220 162t273.5 60q194 0 352.5 -101t248 -274t89.5 -381v-25q0 -155 -53.5 -295.5t-145 -242.5t-220 -162t-273.5 -60q-194 0 -352.5 101t-248 274t-89.5 381zM182 731q0 -189 79 -346t221.5 -248.5t318.5 -91.5t319 92.5t222 250 t79 347.5v25q0 189 -78.5 345.5t-221 248.5t-318.5 92t-319 -92t-222.5 -249.5t-79.5 -346.5v-27zM465 748v10q0 181 101 296t253 115q79 0 137.5 -26t112.5 -76l-74 -92q-87 80 -178 80q-97 0 -161 -82t-64 -213v-12q0 -132 64.5 -213.5t162.5 -81.5q55 0 95 20t87 64 l72 -84q-110 -113 -258 -113q-152 0 -251 113.5t-99 294.5z" />
<glyph unicode="&#xaa;" horiz-adv-x="774" d="M125 629v96h504v-96h-504zM131 1053v8q0 95 62 147t165 52q65 0 144 -23v23q0 65 -37.5 99t-104.5 34q-73 0 -153 -39l-35 94q103 49 203 49q117 0 180 -63q57 -57 57 -172v-388h-110v76q-67 -86 -174 -86q-81 0 -139 51t-58 138zM244 1059q0 -47 31 -75t79 -28 q63 0 106.5 37.5t43.5 96.5v63q-61 23 -129 23q-61 0 -96 -29.5t-35 -79.5v-8z" />
<glyph unicode="&#xab;" horiz-adv-x="1124" d="M104 545v18l332 457l129 -72l-258 -391l258 -395l-129 -72zM543 545v18l331 457l130 -72l-259 -391l259 -395l-130 -72z" />
<glyph unicode="&#xad;" horiz-adv-x="829" d="M135 551v184h561v-184h-561z" />
<glyph unicode="&#xae;" horiz-adv-x="823" d="M72 1133v14q0 155 98 262t242 107q145 0 242.5 -107t97.5 -262v-12q0 -155 -98 -263t-242 -108q-145 0 -242.5 107t-97.5 262zM115 1133q0 -138 84.5 -233t212.5 -95t212.5 96t84.5 234v12q0 138 -84.5 233t-212.5 95q-127 0 -212 -95.5t-85 -232.5v-14zM281 952v389h145 q65 0 104 -31.5t39 -90.5v-2q0 -84 -80 -115l93 -150h-86l-80 135h-64v-135h-71zM352 1149h68q35 0 54.5 17t19.5 46v2q0 30 -19.5 46.5t-54.5 15.5h-68v-127z" />
<glyph unicode="&#xaf;" horiz-adv-x="1097" d="M250 1284v139h598v-139h-598z" />
<glyph unicode="&#xb0;" horiz-adv-x="884" d="M139 1165v9q0 139 90 234t213 95q125 0 215.5 -95t90.5 -234v-9q0 -139 -90.5 -235t-215.5 -96q-123 0 -213 96t-90 235zM264 1167q0 -92 51 -153.5t127 -61.5q78 0 129.5 61.5t51.5 153.5v7q0 91 -51.5 151.5t-129.5 60.5q-76 0 -127 -60.5t-51 -151.5v-7z" />
<glyph unicode="&#xb1;" d="M145 39v160h904v-160h-904zM145 750v165h369v365h170l-2 -365h369v-165h-369l2 -367h-170v367h-369z" />
<glyph unicode="&#xb2;" horiz-adv-x="778" d="M117 928v100l274 272q73 70 103 115.5t30 95.5q0 56 -38.5 89.5t-96.5 33.5q-55 0 -99.5 -30t-90.5 -86l-78 71q60 78 124 117t154 39q109 0 178.5 -62.5t69.5 -160.5q0 -75 -34.5 -134t-120.5 -141l-216 -209h377v-110h-536z" />
<glyph unicode="&#xb3;" horiz-adv-x="778" d="M98 1032l72 86q88 -98 207 -98q62 0 105.5 38t43.5 99q0 66 -53.5 101.5t-146.5 37.5h-56l-14 74l231 248h-348v111h498v-95l-234 -245q110 -13 177 -70.5t67 -159.5q0 -109 -77.5 -179.5t-194.5 -70.5q-161 0 -277 123z" />
<glyph unicode="&#xb4;" horiz-adv-x="1097" d="M391 1255l193 310l172 -84l-230 -226h-135z" />
<glyph unicode="&#xb5;" horiz-adv-x="1269" d="M168 -319v1433h178v-680q0 -131 71 -212t181 -81q113 0 183.5 81.5t70.5 211.5v680h180v-848q3 -65 32 -94t87 -29q33 0 68 7v-148q-50 -16 -117 -16q-189 0 -230 170q-94 -174 -266 -174q-92 0 -165 47.5t-115 140.5h-2q20 -140 20 -258v-231h-176z" />
<glyph unicode="&#xb6;" horiz-adv-x="1030" d="M96 1016v4q0 220 146.5 345.5t384.5 125.5h221v-1491h-189v541h-18q-241 2 -393 127.5t-152 347.5z" />
<glyph unicode="&#xb7;" horiz-adv-x="528" d="M156 524v240h215v-240h-215z" />
<glyph unicode="&#xb8;" horiz-adv-x="1097" d="M342 -238l178 269h133l-141 -338z" />
<glyph unicode="&#xb9;" horiz-adv-x="636" d="M111 1649l213 88h96v-809h-121v682l-164 -68z" />
<glyph unicode="&#xba;" horiz-adv-x="774" d="M111 1176v10q0 134 78.5 224.5t197.5 90.5q121 0 199 -89t78 -222v-12q0 -134 -79 -225t-200 -91q-119 0 -196.5 90t-77.5 224zM119 629v96h536v-96h-536zM227 1178q0 -89 45 -150t115 -61q72 0 116 60t44 149v10q0 89 -45.5 149t-116.5 60t-114.5 -59.5t-43.5 -147.5 v-10z" />
<glyph unicode="&#xbb;" horiz-adv-x="1124" d="M119 162l262 391l-262 393l129 74l334 -457v-18l-334 -455zM557 162l262 391l-262 393l129 74l334 -457v-18l-334 -455z" />
<glyph unicode="&#xbc;" horiz-adv-x="1611" d="M127 1411l213 90h96v-811h-121v682l-163 -67zM281 0l464 768l424 723h117l-465 -768l-422 -723h-118zM901 274l354 535h136v-539h100v-98h-100v-176h-111v176h-362zM1016 268h264v398h-2z" />
<glyph unicode="&#xbd;" horiz-adv-x="1611" d="M127 1411l213 90h96v-811h-121v682l-163 -67zM250 0l465 768l424 723h116l-464 -768l-422 -723h-119zM940 0v100l274 273q74 70 104 115.5t30 95.5q0 56 -39 89.5t-97 33.5q-55 0 -99.5 -30t-90.5 -87l-78 72q60 78 124.5 116.5t154.5 38.5q109 0 178 -62.5t69 -160.5 q0 -75 -34.5 -134t-120.5 -141l-215 -208h377v-111h-537z" />
<glyph unicode="&#xbe;" horiz-adv-x="1751" d="M115 795l71 86q94 -101 207 -101q62 0 106 39.5t44 102.5q0 65 -54.5 101t-146.5 36h-55l-15 76l232 245h-348v111h497v-92l-233 -248q110 -13 177 -70t67 -159q0 -109 -78 -178.5t-195 -69.5q-162 0 -276 121zM414 0l465 768l424 723h116l-465 -768l-422 -723h-118z M1047 274l354 535h135v-539h100v-98h-100v-176h-111v176h-362zM1161 268h264v398h-2z" />
<glyph unicode="&#xbf;" horiz-adv-x="1032" d="M98 391v4q0 92 30.5 166t84.5 125t122 84t150 51l23 238h121l30 -352l-10 -13q-177 -15 -269.5 -90.5t-92.5 -200.5v-6q0 -107 71.5 -175t190.5 -68q172 0 311 153l111 -125q-90 -95 -193.5 -146.5t-236.5 -51.5q-198 0 -320.5 113.5t-122.5 293.5zM461 1253v238h213 v-238h-213z" />
<glyph unicode="&#xc0;" horiz-adv-x="1468" d="M80 0l563 1501h182l564 -1501h-199l-137 381h-645l-138 -381h-190zM432 1812l174 80l201 -272h-143zM469 547h522l-260 708z" />
<glyph unicode="&#xc1;" horiz-adv-x="1468" d="M80 0l563 1501h182l564 -1501h-199l-137 381h-645l-138 -381h-190zM469 547h522l-260 708zM657 1620l201 272l174 -80l-231 -192h-144z" />
<glyph unicode="&#xc2;" horiz-adv-x="1468" d="M80 0l563 1501h182l564 -1501h-199l-137 381h-645l-138 -381h-190zM432 1618l215 252h168l215 -252h-160l-141 123l-143 -123h-154zM469 547h522l-260 708z" />
<glyph unicode="&#xc3;" horiz-adv-x="1468" d="M80 0l563 1501h182l564 -1501h-199l-137 381h-645l-138 -381h-190zM408 1638q30 109 74.5 161t113.5 52q64 0 156 -45q85 -34 110 -34q34 0 54.5 21t41.5 71l111 -31q-30 -109 -74 -160t-114 -51q-59 0 -154 43q-80 37 -113 37q-34 0 -54.5 -21t-41.5 -73zM469 547h522 l-260 708z" />
<glyph unicode="&#xc4;" horiz-adv-x="1468" d="M80 0l563 1501h182l564 -1501h-199l-137 381h-645l-138 -381h-190zM451 1624v197h200v-197h-200zM469 547h522l-260 708zM815 1624v197h199v-197h-199z" />
<glyph unicode="&#xc5;" horiz-adv-x="1468" d="M80 0l530 1417q-45 27 -71.5 70t-26.5 96q0 87 64.5 145t156.5 58t156.5 -58t64.5 -145q0 -53 -26.5 -96t-71.5 -70l533 -1417h-199l-137 381h-645l-138 -381h-190zM469 547h522l-260 708zM606 1583q0 -50 36.5 -83.5t90.5 -33.5t90.5 33.5t36.5 83.5q0 51 -36.5 86 t-90.5 35t-90.5 -35t-36.5 -86z" />
<glyph unicode="&#xc6;" horiz-adv-x="1925" d="M41 0l725 1491h1030v-170h-704v-483h626v-172h-626v-496h712v-170h-901v381h-487l-185 -381h-190zM496 547h407v774h-39z" />
<glyph unicode="&#xc7;" horiz-adv-x="1343" d="M133 737v15q0 222 85.5 395.5t235.5 268.5t337 95q147 0 255 -48t203 -138l-114 -145q-162 159 -351 159q-197 0 -327.5 -164.5t-130.5 -422.5v-9q0 -262 131 -426.5t329 -164.5q103 0 188 41.5t171 125.5l112 -133q-98 -96 -205 -148t-247 -58l-119 -287l-170 69 l150 228q-239 39 -386 240.5t-147 506.5z" />
<glyph unicode="&#xc8;" horiz-adv-x="1239" d="M190 0v1491h920v-170h-733v-483h653v-172h-653v-496h743v-170h-930zM354 1798l174 80l201 -272h-143z" />
<glyph unicode="&#xc9;" horiz-adv-x="1239" d="M190 0v1491h920v-170h-733v-483h653v-172h-653v-496h743v-170h-930zM575 1606l201 272l174 -80l-231 -192h-144z" />
<glyph unicode="&#xca;" horiz-adv-x="1239" d="M190 0v1491h920v-170h-733v-483h653v-172h-653v-496h743v-170h-930zM354 1608l215 252h168l215 -252h-159l-142 123l-143 -123h-154z" />
<glyph unicode="&#xcb;" horiz-adv-x="1239" d="M190 0v1491h920v-170h-733v-483h653v-172h-653v-496h743v-170h-930zM371 1610v196h200v-196h-200zM735 1610v196h199v-196h-199z" />
<glyph unicode="&#xcc;" horiz-adv-x="593" d="M-2 1798l174 80l201 -272h-144zM203 0v1491h188v-1491h-188z" />
<glyph unicode="&#xcd;" horiz-adv-x="593" d="M203 0v1491h188v-1491h-188zM223 1606l201 272l174 -80l-231 -192h-144z" />
<glyph unicode="&#xce;" horiz-adv-x="593" d="M0 1608l215 252h168l215 -252h-160l-141 123l-143 -123h-154zM203 0v1491h188v-1491h-188z" />
<glyph unicode="&#xcf;" horiz-adv-x="593" d="M16 1610v196h201v-196h-201zM203 0v1491h188v-1491h-188zM381 1610v196h199v-196h-199z" />
<glyph unicode="&#xd0;" horiz-adv-x="1507" d="M96 666v168h144v657h430q313 0 508.5 -204t195.5 -531v-19q0 -327 -195.5 -532t-508.5 -205h-430v666h-144zM426 170h244q232 0 371 154.5t139 412.5v15q0 257 -140 413t-370 156h-244v-487h342v-168h-342v-496z" />
<glyph unicode="&#xd1;" horiz-adv-x="1480" d="M190 0v1491h175l743 -1118v1118h182v-1491h-157l-760 1149v-1149h-183zM414 1618q30 109 74.5 161t113.5 52q64 0 156 -45q87 -35 110 -35q34 0 55 21t42 71l110 -31q-30 -109 -74 -159.5t-114 -50.5q-59 0 -154 43q-77 36 -112 36q-34 0 -55 -21.5t-42 -72.5z" />
<glyph unicode="&#xd2;" horiz-adv-x="1560" d="M133 735v19q0 218 81.5 391.5t230 272t337.5 98.5t336.5 -98t228 -271t80.5 -391v-19q0 -217 -81 -390.5t-229.5 -272.5t-336.5 -99q-189 0 -337 98t-229 271t-81 391zM326 739q0 -259 129 -424t327 -165t325.5 163.5t127.5 423.5v15q0 259 -128.5 424t-326.5 165 q-199 0 -326.5 -163.5t-127.5 -423.5v-15zM479 1812l174 80l201 -272h-143z" />
<glyph unicode="&#xd3;" horiz-adv-x="1560" d="M133 735v19q0 218 81.5 391.5t230 272t337.5 98.5t336.5 -98t228 -271t80.5 -391v-19q0 -217 -81 -390.5t-229.5 -272.5t-336.5 -99q-189 0 -337 98t-229 271t-81 391zM326 739q0 -259 129 -424t327 -165t325.5 163.5t127.5 423.5v15q0 259 -128.5 424t-326.5 165 q-199 0 -326.5 -163.5t-127.5 -423.5v-15zM705 1620l200 272l174 -80l-231 -192h-143z" />
<glyph unicode="&#xd4;" horiz-adv-x="1560" d="M133 735v19q0 218 81.5 391.5t230 272t337.5 98.5t336.5 -98t228 -271t80.5 -391v-19q0 -217 -81 -390.5t-229.5 -272.5t-336.5 -99q-189 0 -337 98t-229 271t-81 391zM326 739q0 -259 129 -424t327 -165t325.5 163.5t127.5 423.5v15q0 259 -128.5 424t-326.5 165 q-199 0 -326.5 -163.5t-127.5 -423.5v-15zM479 1622l215 252h168l215 -252h-159l-142 123l-143 -123h-154z" />
<glyph unicode="&#xd5;" horiz-adv-x="1560" d="M133 735v19q0 218 81.5 391.5t230 272t337.5 98.5t336.5 -98t228 -271t80.5 -391v-19q0 -217 -81 -390.5t-229.5 -272.5t-336.5 -99q-189 0 -337 98t-229 271t-81 391zM326 739q0 -259 129 -424t327 -165t325.5 163.5t127.5 423.5v15q0 259 -128.5 424t-326.5 165 q-199 0 -326.5 -163.5t-127.5 -423.5v-15zM455 1638q30 109 74.5 161t113.5 52q64 0 156 -45q85 -34 110 -34q34 0 55 21t42 71l110 -31q-30 -109 -74 -160t-114 -51q-59 0 -154 43q-80 37 -112 37q-34 0 -55 -21.5t-42 -72.5z" />
<glyph unicode="&#xd6;" horiz-adv-x="1560" d="M133 735v19q0 218 81.5 391.5t230 272t337.5 98.5t336.5 -98t228 -271t80.5 -391v-19q0 -217 -81 -390.5t-229.5 -272.5t-336.5 -99q-189 0 -337 98t-229 271t-81 391zM326 739q0 -259 129 -424t327 -165t325.5 163.5t127.5 423.5v15q0 259 -128.5 424t-326.5 165 q-199 0 -326.5 -163.5t-127.5 -423.5v-15zM498 1624v197h200v-197h-200zM862 1624v197h199v-197h-199z" />
<glyph unicode="&#xd7;" d="M166 426l321 322l-321 323l121 117l313 -324l311 324l119 -113l-321 -323l321 -324l-123 -117l-309 324l-313 -324z" />
<glyph unicode="&#xd8;" horiz-adv-x="1560" d="M123 -12l170 227q-160 209 -160 520v17q0 218 81.5 392t230.5 273t337 99q221 0 385 -136l97 123h176l-172 -227q159 -211 159 -520v-17q0 -218 -81.5 -392t-230 -273t-337.5 -99q-217 0 -383 134l-96 -121h-176zM324 741q0 -213 88 -370l651 862q-121 115 -285 115 q-199 0 -326.5 -164.5t-127.5 -427.5v-15zM500 256q119 -113 282 -113q201 0 329 164.5t128 427.5v15q0 215 -90 370z" />
<glyph unicode="&#xd9;" horiz-adv-x="1425" d="M172 561v930h186v-928q0 -199 94.5 -306t262.5 -107q166 0 260 104t94 303v934h186v-924q0 -284 -147 -437t-397 -153q-247 0 -393 152t-146 432zM412 1792l174 80l200 -273h-143z" />
<glyph unicode="&#xda;" horiz-adv-x="1425" d="M172 561v930h186v-928q0 -199 94.5 -306t262.5 -107q166 0 260 104t94 303v934h186v-924q0 -284 -147 -437t-397 -153q-247 0 -393 152t-146 432zM637 1599l201 273l174 -80l-232 -193h-143z" />
<glyph unicode="&#xdb;" horiz-adv-x="1425" d="M172 561v930h186v-928q0 -199 94.5 -306t262.5 -107q166 0 260 104t94 303v934h186v-924q0 -284 -147 -437t-397 -153q-247 0 -393 152t-146 432zM412 1602l215 251h168l215 -251h-160l-141 122l-144 -122h-153z" />
<glyph unicode="&#xdc;" horiz-adv-x="1425" d="M172 561v930h186v-928q0 -199 94.5 -306t262.5 -107q166 0 260 104t94 303v934h186v-924q0 -284 -147 -437t-397 -153q-247 0 -393 152t-146 432zM428 1604v196h201v-196h-201zM793 1604v196h198v-196h-198z" />
<glyph unicode="&#xdd;" horiz-adv-x="1331" d="M53 1491h215l400 -703l399 703h209l-516 -889v-602h-189v600zM590 1599l201 273l174 -80l-232 -193h-143z" />
<glyph unicode="&#xde;" horiz-adv-x="1273" d="M190 0v1491h189v-246h268q241 0 385 -128.5t144 -350.5v-4q0 -155 -73 -268.5t-195 -169.5t-277 -56h-254v-268h-187zM377 436h256q163 0 258.5 87t95.5 233v4q0 152 -93 233.5t-257 81.5h-260v-639z" />
<glyph unicode="&#xdf;" horiz-adv-x="1185" d="M168 0v1077q0 216 117 344.5t317 128.5q180 0 288.5 -105.5t108.5 -266.5v-7q0 -135 -71.5 -229t-184.5 -147q147 -42 238.5 -135.5t91.5 -241.5v-10q0 -194 -137.5 -303.5t-378.5 -108.5v145q161 8 248.5 77.5t87.5 193.5v4q0 119 -88 190.5t-248 93.5v131 q123 48 191.5 132t68.5 194v4q0 105 -61.5 168.5t-159.5 63.5q-113 0 -181.5 -84t-68.5 -226v-1083h-178z" />
<glyph unicode="&#xe0;" horiz-adv-x="1110" d="M96 322v10q0 170 111.5 264t296.5 94q141 0 278 -45v60q0 127 -71 194.5t-199 67.5q-141 0 -281 -72l-55 145q173 88 356 88q211 0 318 -110q108 -102 108 -307v-711h-178v154q-119 -177 -329 -177q-95 0 -174.5 39.5t-130 119.5t-50.5 186zM264 1481l174 84l191 -310 h-135zM274 332q0 -96 63 -153.5t159 -57.5q122 0 205 74.5t83 187.5v133q-118 41 -252 41q-122 0 -190 -59t-68 -160v-6z" />
<glyph unicode="&#xe1;" horiz-adv-x="1110" d="M96 322v10q0 170 111.5 264t296.5 94q141 0 278 -45v60q0 127 -71 194.5t-199 67.5q-141 0 -281 -72l-55 145q173 88 356 88q211 0 318 -110q108 -102 108 -307v-711h-178v154q-119 -177 -329 -177q-95 0 -174.5 39.5t-130 119.5t-50.5 186zM274 332q0 -96 63 -153.5 t159 -57.5q122 0 205 74.5t83 187.5v133q-118 41 -252 41q-122 0 -190 -59t-68 -160v-6zM479 1255l193 310l172 -84l-230 -226h-135z" />
<glyph unicode="&#xe2;" horiz-adv-x="1110" d="M96 322v10q0 170 111.5 264t296.5 94q141 0 278 -45v60q0 127 -71 194.5t-199 67.5q-141 0 -281 -72l-55 145q173 88 356 88q211 0 318 -110q108 -102 108 -307v-711h-178v154q-119 -177 -329 -177q-95 0 -174.5 39.5t-130 119.5t-50.5 186zM270 1255l207 285h156 l207 -285h-144l-143 146l-143 -146h-140zM274 332q0 -96 63 -153.5t159 -57.5q122 0 205 74.5t83 187.5v133q-118 41 -252 41q-122 0 -190 -59t-68 -160v-6z" />
<glyph unicode="&#xe3;" horiz-adv-x="1110" d="M96 322v10q0 170 111.5 264t296.5 94q141 0 278 -45v60q0 127 -71 194.5t-199 67.5q-141 0 -281 -72l-55 145q173 88 356 88q211 0 318 -110q108 -102 108 -307v-711h-178v154q-119 -177 -329 -177q-95 0 -174.5 39.5t-130 119.5t-50.5 186zM233 1270q31 118 74.5 169.5 t114.5 51.5q57 0 145 -45q80 -41 115 -41q34 0 54.5 22t39.5 78l109 -30q-31 -117 -74.5 -169.5t-114.5 -52.5q-53 0 -145 47q-80 41 -115 41q-34 0 -54.5 -22t-39.5 -78zM274 332q0 -96 63 -153.5t159 -57.5q122 0 205 74.5t83 187.5v133q-118 41 -252 41q-122 0 -190 -59 t-68 -160v-6z" />
<glyph unicode="&#xe4;" horiz-adv-x="1110" d="M96 322v10q0 170 111.5 264t296.5 94q141 0 278 -45v60q0 127 -71 194.5t-199 67.5q-141 0 -281 -72l-55 145q173 88 356 88q211 0 318 -110q108 -102 108 -307v-711h-178v154q-119 -177 -329 -177q-95 0 -174.5 39.5t-130 119.5t-50.5 186zM274 332q0 -96 63 -153.5 t159 -57.5q122 0 205 74.5t83 187.5v133q-118 41 -252 41q-122 0 -190 -59t-68 -160v-6zM289 1260v202h192v-202h-192zM629 1260v202h192v-202h-192z" />
<glyph unicode="&#xe5;" horiz-adv-x="1110" d="M96 322v10q0 170 111.5 264t296.5 94q141 0 278 -45v60q0 127 -71 194.5t-199 67.5q-141 0 -281 -72l-55 145q173 88 356 88q211 0 318 -110q108 -102 108 -307v-711h-178v154q-119 -177 -329 -177q-95 0 -174.5 39.5t-130 119.5t-50.5 186zM274 332q0 -96 63 -153.5 t159 -57.5q122 0 205 74.5t83 187.5v133q-118 41 -252 41q-122 0 -190 -59t-68 -160v-6zM338 1462q0 88 64 149.5t153 61.5t153 -61.5t64 -149.5q0 -89 -63.5 -151t-153.5 -62t-153.5 62t-63.5 151zM426 1462q0 -57 37.5 -95t91.5 -38t91.5 38t37.5 95q0 54 -37.5 93.5 t-91.5 39.5t-91.5 -39.5t-37.5 -93.5z" />
<glyph unicode="&#xe6;" horiz-adv-x="1787" d="M96 324v8q0 170 110 264t294 94q137 0 270 -45v60q0 128 -69 195t-197 67q-127 0 -275 -72l-53 149q175 84 348 84q277 0 357 -202q59 100 150 155.5t202 55.5q138 0 240.5 -75.5t155 -206t52.5 -298.5q0 -45 -2 -70h-733q13 -167 104 -260.5t222 -93.5q85 0 151 32 t127 93l101 -113q-84 -84 -175.5 -127t-211.5 -43q-123 0 -226.5 59t-169.5 165q-172 -222 -405 -222q-156 0 -261.5 94.5t-105.5 252.5zM274 332q0 -95 62.5 -153t157.5 -58q92 0 172.5 53t140.5 143q-32 97 -35 199q-125 41 -244 41q-120 0 -187 -58.5t-67 -158.5v-8z M946 621h557q-8 159 -79.5 260.5t-194.5 101.5q-116 0 -194.5 -98.5t-88.5 -263.5z" />
<glyph unicode="&#xe7;" horiz-adv-x="1050" d="M111 545v18q0 250 142.5 412t356.5 162q203 0 355 -152l-105 -133q-116 121 -250 121t-225.5 -116t-91.5 -296v-10q0 -184 92.5 -298t230.5 -114q134 3 250 125l103 -121q-144 -158 -336 -166l-119 -284l-170 69l150 226q-172 40 -277.5 190.5t-105.5 366.5z" />
<glyph unicode="&#xe8;" horiz-adv-x="1132" d="M111 547v14q0 252 133 414t334 162q209 0 329.5 -161t120.5 -419q0 -45 -2 -70h-735q13 -165 105 -259.5t222 -94.5q82 0 148.5 32t130.5 93l98 -113q-163 -170 -387 -170q-103 0 -193.5 40.5t-158 113t-106.5 181t-39 237.5zM285 1481l174 84l190 -310h-135zM291 621 h557q-8 159 -79.5 260.5t-193.5 101.5q-116 0 -194 -99t-90 -263z" />
<glyph unicode="&#xe9;" horiz-adv-x="1132" d="M111 547v14q0 252 133 414t334 162q209 0 329.5 -161t120.5 -419q0 -45 -2 -70h-735q13 -165 105 -259.5t222 -94.5q82 0 148.5 32t130.5 93l98 -113q-163 -170 -387 -170q-103 0 -193.5 40.5t-158 113t-106.5 181t-39 237.5zM291 621h557q-8 159 -79.5 260.5 t-193.5 101.5q-116 0 -194 -99t-90 -263zM500 1255l192 310l172 -84l-229 -226h-135z" />
<glyph unicode="&#xea;" horiz-adv-x="1132" d="M111 547v14q0 252 133 414t334 162q209 0 329.5 -161t120.5 -419q0 -45 -2 -70h-735q13 -165 105 -259.5t222 -94.5q82 0 148.5 32t130.5 93l98 -113q-163 -170 -387 -170q-103 0 -193.5 40.5t-158 113t-106.5 181t-39 237.5zM289 1255l207 285h155l207 -285h-143 l-144 146l-143 -146h-139zM291 621h557q-8 159 -79.5 260.5t-193.5 101.5q-116 0 -194 -99t-90 -263z" />
<glyph unicode="&#xeb;" horiz-adv-x="1132" d="M111 547v14q0 252 133 414t334 162q209 0 329.5 -161t120.5 -419q0 -45 -2 -70h-735q13 -165 105 -259.5t222 -94.5q82 0 148.5 32t130.5 93l98 -113q-163 -170 -387 -170q-103 0 -193.5 40.5t-158 113t-106.5 181t-39 237.5zM291 621h557q-8 159 -79.5 260.5 t-193.5 101.5q-116 0 -194 -99t-90 -263zM307 1260v202h193v-202h-193zM647 1260v202h193v-202h-193z" />
<glyph unicode="&#xec;" horiz-adv-x="540" d="M-20 1481l174 84l190 -310h-135zM178 0v1114h182v-1114h-182z" />
<glyph unicode="&#xed;" horiz-adv-x="540" d="M178 0v1114h182v-1114h-182zM199 1255l192 310l172 -84l-229 -226h-135z" />
<glyph unicode="&#xee;" horiz-adv-x="540" d="M-14 1255l207 285h155l207 -285h-143l-144 146l-143 -146h-139zM178 0v1114h182v-1114h-182z" />
<glyph unicode="&#xef;" horiz-adv-x="540" d="M4 1260v202h193v-202h-193zM178 0v1114h182v-1114h-182zM344 1260v202h193v-202h-193z" />
<glyph unicode="&#xf0;" horiz-adv-x="1222" d="M111 553v16q0 120 37 224t98.5 174t142 109.5t166.5 39.5q161 0 293 -125q-70 148 -221 312l-217 -89l-52 109l179 72q-43 41 -162 143h239l80 -78l203 84l49 -110l-164 -68q328 -368 328 -754v-16q0 -280 -139.5 -450.5t-366.5 -170.5q-210 0 -351.5 164.5t-141.5 413.5 zM293 549q0 -175 90.5 -293.5t226.5 -118.5q139 0 228.5 116t89.5 296v12q0 179 -92.5 291.5t-235.5 112.5q-137 0 -222 -113.5t-85 -292.5v-10z" />
<glyph unicode="&#xf1;" horiz-adv-x="1181" d="M168 0v1114h178v-174q117 197 324 197q166 0 262 -108t96 -292v-737h-182v684q0 139 -62 215t-176 76q-115 0 -188.5 -81.5t-73.5 -215.5v-678h-178zM276 1270q31 118 74.5 169.5t114.5 51.5q57 0 145 -45q80 -41 115 -41q34 0 54.5 22t39.5 78l109 -30 q-31 -117 -74.5 -169.5t-114.5 -52.5q-53 0 -145 47q-80 41 -115 41q-34 0 -54.5 -22t-39.5 -78z" />
<glyph unicode="&#xf2;" horiz-adv-x="1222" d="M111 549v14q0 161 64.5 292.5t179.5 206.5t257 75q217 0 358.5 -162.5t141.5 -409.5v-14q0 -161 -64.5 -293t-179.5 -207.5t-258 -75.5q-142 0 -256.5 74.5t-178.5 206t-64 293.5zM293 553q0 -178 91 -297t228 -119q140 0 230 118t90 296v10q0 178 -92.5 297t-229.5 119 q-139 0 -228 -118t-89 -296v-10zM322 1481l174 84l190 -310h-135z" />
<glyph unicode="&#xf3;" horiz-adv-x="1222" d="M111 549v14q0 161 64.5 292.5t179.5 206.5t257 75q217 0 358.5 -162.5t141.5 -409.5v-14q0 -161 -64.5 -293t-179.5 -207.5t-258 -75.5q-142 0 -256.5 74.5t-178.5 206t-64 293.5zM293 553q0 -178 91 -297t228 -119q140 0 230 118t90 296v10q0 178 -92.5 297t-229.5 119 q-139 0 -228 -118t-89 -296v-10zM537 1255l192 310l172 -84l-229 -226h-135z" />
<glyph unicode="&#xf4;" horiz-adv-x="1222" d="M111 549v14q0 161 64.5 292.5t179.5 206.5t257 75q217 0 358.5 -162.5t141.5 -409.5v-14q0 -161 -64.5 -293t-179.5 -207.5t-258 -75.5q-142 0 -256.5 74.5t-178.5 206t-64 293.5zM293 553q0 -178 91 -297t228 -119q140 0 230 118t90 296v10q0 178 -92.5 297t-229.5 119 q-139 0 -228 -118t-89 -296v-10zM326 1255l206 285h156l207 -285h-143l-144 146l-143 -146h-139z" />
<glyph unicode="&#xf5;" horiz-adv-x="1222" d="M111 549v14q0 161 64.5 292.5t179.5 206.5t257 75q217 0 358.5 -162.5t141.5 -409.5v-14q0 -161 -64.5 -293t-179.5 -207.5t-258 -75.5q-142 0 -256.5 74.5t-178.5 206t-64 293.5zM293 553q0 -178 91 -297t228 -119q140 0 230 118t90 296v10q0 178 -92.5 297t-229.5 119 q-139 0 -228 -118t-89 -296v-10zM293 1270q31 118 74 169.5t114 51.5q58 0 146 -45q80 -41 114 -41q35 0 55.5 22.5t39.5 77.5l108 -30q-32 -117 -75 -169.5t-113 -52.5q-54 0 -146 47q-80 41 -114 41q-35 0 -55.5 -22.5t-39.5 -77.5z" />
<glyph unicode="&#xf6;" horiz-adv-x="1222" d="M111 549v14q0 161 64.5 292.5t179.5 206.5t257 75q217 0 358.5 -162.5t141.5 -409.5v-14q0 -161 -64.5 -293t-179.5 -207.5t-258 -75.5q-142 0 -256.5 74.5t-178.5 206t-64 293.5zM293 553q0 -178 91 -297t228 -119q140 0 230 118t90 296v10q0 178 -92.5 297t-229.5 119 q-139 0 -228 -118t-89 -296v-10zM344 1260v202h193v-202h-193zM684 1260v202h193v-202h-193z" />
<glyph unicode="&#xf7;" d="M135 668v163h926v-163h-926zM492 248v221h213v-221h-213zM492 1030v221h213v-221h-213z" />
<glyph unicode="&#xf8;" horiz-adv-x="1222" d="M88 -12l141 180q-118 155 -118 381v14q0 162 65.5 293.5t180 206t255.5 74.5q159 0 289 -99l72 88h164l-144 -180q119 -161 119 -381v-14q0 -162 -65 -294t-180.5 -207t-256.5 -75q-162 0 -288 99l-72 -86h-162zM289 553q0 -139 53 -242l463 592q-84 78 -195 78 q-143 0 -232 -118.5t-89 -299.5v-10zM418 209q82 -76 194 -76q143 0 233.5 119t90.5 299v8q0 137 -55 244z" />
<glyph unicode="&#xf9;" horiz-adv-x="1181" d="M154 379v735h180v-684q0 -139 62.5 -214t176.5 -75t187.5 81t73.5 214v678h180v-1114h-180v174q-116 -197 -322 -197q-167 0 -262.5 108.5t-95.5 293.5zM293 1479l174 84l190 -310h-135z" />
<glyph unicode="&#xfa;" horiz-adv-x="1181" d="M154 379v735h180v-684q0 -139 62.5 -214t176.5 -75t187.5 81t73.5 214v678h180v-1114h-180v174q-116 -197 -322 -197q-167 0 -262.5 108.5t-95.5 293.5zM508 1253l192 310l172 -84l-229 -226h-135z" />
<glyph unicode="&#xfb;" horiz-adv-x="1181" d="M154 379v735h180v-684q0 -139 62.5 -214t176.5 -75t187.5 81t73.5 214v678h180v-1114h-180v174q-116 -197 -322 -197q-167 0 -262.5 108.5t-95.5 293.5zM297 1253l207 285h155l207 -285h-143l-143 146l-144 -146h-139z" />
<glyph unicode="&#xfc;" horiz-adv-x="1181" d="M154 379v735h180v-684q0 -139 62.5 -214t176.5 -75t187.5 81t73.5 214v678h180v-1114h-180v174q-116 -197 -322 -197q-167 0 -262.5 108.5t-95.5 293.5zM315 1257v203h193v-203h-193zM655 1257v203h193v-203h-193z" />
<glyph unicode="&#xfd;" horiz-adv-x="1130" d="M76 1114h192l312 -885l284 885h187l-389 -1132q-59 -169 -135.5 -239.5t-194.5 -70.5q-105 0 -207 54l53 145q67 -41 141 -41q58 0 98.5 38t76.5 132zM494 1253l192 310l172 -84l-229 -226h-135z" />
<glyph unicode="&#xfe;" horiz-adv-x="1253" d="M168 -319v1857h178v-627q138 226 350 226q68 0 132.5 -23t121.5 -70.5t99.5 -114t67 -159.5t24.5 -201v-22q0 -134 -37.5 -244t-100 -180t-142 -108t-165.5 -38q-211 0 -350 218v-514h-178zM342 547q0 -181 92.5 -294.5t220.5 -113.5q130 0 215.5 111t85.5 297v18 q0 184 -87 297t-214 113q-128 0 -220.5 -113.5t-92.5 -294.5v-20z" />
<glyph unicode="&#xff;" horiz-adv-x="1130" d="M76 1114h192l312 -885l284 885h187l-389 -1132q-59 -169 -135.5 -239.5t-194.5 -70.5q-105 0 -207 54l53 145q67 -41 141 -41q58 0 98.5 38t76.5 132zM301 1257v203h193v-203h-193zM641 1257v203h193v-203h-193z" />
<glyph unicode="&#x152;" horiz-adv-x="2058" d="M133 735v19q0 216 88 383.5t248 260.5t367 93h1093v-170h-706v-483h628v-172h-628v-496h714v-170h-1101q-313 0 -508 204t-195 531zM326 739q0 -257 140 -413t370 -156h200v1151h-198q-232 0 -372 -154.5t-140 -412.5v-15z" />
<glyph unicode="&#x153;" horiz-adv-x="1947" d="M111 549v14q0 162 65.5 293.5t179.5 206t254 74.5q130 0 235 -69.5t165 -188.5q59 121 159.5 189.5t223.5 68.5q139 0 242 -75.5t155.5 -206t52.5 -298.5q0 -45 -2 -70h-733q15 -167 105.5 -260.5t220.5 -93.5q156 0 278 125l100 -113q-84 -84 -175.5 -127t-211.5 -43 q-133 0 -243 70.5t-172 194.5q-59 -122 -166.5 -193.5t-239.5 -71.5q-208 0 -350.5 164t-142.5 410zM293 553q0 -179 90.5 -297.5t226.5 -118.5q138 0 227 118t89 296v10q0 179 -91 297.5t-227 118.5q-138 0 -226.5 -118.5t-88.5 -295.5v-10zM1106 621h559q-8 159 -80 260.5 t-194 101.5q-116 0 -194 -98.5t-91 -263.5z" />
<glyph unicode="&#x178;" horiz-adv-x="1331" d="M53 1491h215l400 -703l399 703h209l-516 -889v-602h-189v600zM383 1604v196h201v-196h-201zM748 1604v196h198v-196h-198z" />
<glyph unicode="&#x2c6;" horiz-adv-x="1097" d="M264 1255l207 285h156l207 -285h-144l-143 146l-144 -146h-139z" />
<glyph unicode="&#x2dc;" horiz-adv-x="1097" d="M223 1270q31 118 74.5 169.5t114.5 51.5q57 0 145 -45q80 -41 115 -41q34 0 54.5 22t39.5 78l108 -30q-32 -117 -75 -169.5t-113 -52.5q-53 0 -145 47q-80 41 -115 41q-34 0 -54.5 -22t-39.5 -78z" />
<glyph unicode="&#x2000;" horiz-adv-x="946" />
<glyph unicode="&#x2001;" horiz-adv-x="1892" />
<glyph unicode="&#x2002;" horiz-adv-x="946" />
<glyph unicode="&#x2003;" horiz-adv-x="1892" />
<glyph unicode="&#x2004;" horiz-adv-x="630" />
<glyph unicode="&#x2005;" horiz-adv-x="473" />
<glyph unicode="&#x2006;" horiz-adv-x="315" />
<glyph unicode="&#x2007;" horiz-adv-x="315" />
<glyph unicode="&#x2008;" horiz-adv-x="236" />
<glyph unicode="&#x2009;" horiz-adv-x="378" />
<glyph unicode="&#x200a;" horiz-adv-x="105" />
<glyph unicode="&#x2010;" horiz-adv-x="829" d="M135 551v184h561v-184h-561z" />
<glyph unicode="&#x2011;" horiz-adv-x="829" d="M135 551v184h561v-184h-561z" />
<glyph unicode="&#x2012;" horiz-adv-x="829" d="M135 551v184h561v-184h-561z" />
<glyph unicode="&#x2013;" horiz-adv-x="1089" d="M135 555v176h819v-176h-819z" />
<glyph unicode="&#x2014;" horiz-adv-x="1763" d="M135 555v176h1495v-176h-1495z" />
<glyph unicode="&#x2018;" horiz-adv-x="524" d="M145 987v205q0 136 60 208.5t190 100.5l27 -84q-84 -26 -120 -72.5t-30 -117.5h88v-240h-215z" />
<glyph unicode="&#x2019;" horiz-adv-x="524" d="M100 1061q85 26 120.5 73t29.5 119h-86v238h215v-203q0 -136 -61 -209t-191 -100z" />
<glyph unicode="&#x201a;" horiz-adv-x="530" d="M94 -190q86 26 122 72t30 118h-88v238h217v-203q0 -136 -61.5 -208.5t-192.5 -100.5z" />
<glyph unicode="&#x201c;" horiz-adv-x="935" d="M145 987v205q0 136 60 208.5t190 100.5l27 -84q-84 -26 -120 -72.5t-30 -117.5h88v-240h-215zM557 987v205q0 136 60 208.5t190 100.5l27 -84q-84 -26 -120 -72.5t-30 -117.5h88v-240h-215z" />
<glyph unicode="&#x201d;" horiz-adv-x="935" d="M100 1061q85 26 120.5 73t29.5 119h-86v238h215v-203q0 -136 -61 -209t-191 -100zM512 1061q85 26 120.5 73t29.5 119h-89v238h215v-203q0 -136 -60 -209t-189 -100z" />
<glyph unicode="&#x201e;" horiz-adv-x="944" d="M94 -190q86 26 122 72t30 118h-88v238h217v-203q0 -136 -61.5 -208.5t-192.5 -100.5zM508 -190q85 26 121 72.5t30 117.5h-88v238h215v-203q0 -136 -60 -208.5t-191 -100.5z" />
<glyph unicode="&#x2022;" horiz-adv-x="960" d="M221 745v13q0 118 75.5 195t184.5 77q107 0 182.5 -77t75.5 -195v-13q0 -118 -75.5 -196t-182.5 -78q-110 0 -185 77.5t-75 196.5z" />
<glyph unicode="&#x2026;" horiz-adv-x="1509" d="M156 0v236h211v-236h-211zM649 0v236h211v-236h-211zM1143 0v236h211v-236h-211z" />
<glyph unicode="&#x202f;" horiz-adv-x="378" />
<glyph unicode="&#x2039;" horiz-adv-x="686" d="M104 545v18l332 457l129 -72l-258 -391l258 -395l-129 -72z" />
<glyph unicode="&#x203a;" horiz-adv-x="686" d="M119 162l262 391l-262 393l129 74l334 -457v-18l-334 -455z" />
<glyph unicode="&#x205f;" horiz-adv-x="473" />
<glyph unicode="&#x20ac;" horiz-adv-x="1339" d="M106 504v139h154q-2 31 -2 92v15q0 73 4 110h-156v139h179q53 231 194 373t338 141q140 0 238 -57t180 -166l-127 -112q-64 83 -131 124t-162 41q-121 0 -211.5 -92.5t-130.5 -251.5h453v-139h-477q-5 -88 -5 -108v-11q0 -59 5 -98h477v-139h-457q40 -168 135 -263 t223 -94q90 0 158.5 46t130.5 133l123 -111q-84 -114 -184 -176t-234 -62q-207 0 -349.5 141t-192.5 386h-173z" />
<glyph unicode="&#x2122;" horiz-adv-x="1318" d="M59 1397v94h451v-94h-174v-566h-100v566h-177zM635 831v660h110l183 -326l182 326h109v-660h-99v490l-188 -338h-10l-189 338v-490h-98z" />
<glyph unicode="&#x25fc;" horiz-adv-x="1116" d="M0 0v1116h1116v-1116h-1116z" />
<glyph unicode="&#xfb01;" horiz-adv-x="1226" d="M88 958v154h133v98q0 174 84 258q81 78 221 78q82 0 154 -20v-158q-75 21 -123 21q-158 0 -158 -193v-84h279v-154h-279v-958h-178v958h-133zM858 1325v197h197v-197h-197zM864 0v1114h183v-1114h-183z" />
<glyph unicode="&#xfb02;" horiz-adv-x="1226" d="M88 958v154h133v98q0 174 84 258q81 78 221 78q82 0 154 -20v-158q-75 21 -123 21q-158 0 -158 -193v-84h279v-154h-279v-958h-178v958h-133zM864 0v1538h183v-1538h-183z" />
<glyph unicode="&#xfb03;" horiz-adv-x="1912" d="M88 958v154h133v98q0 174 84 258q81 78 221 78q82 0 154 -20v-158q-75 21 -123 21q-158 0 -158 -193v-84h279v-154h-279v-958h-178v958h-133zM774 958v154h133v98q0 174 84 258q81 78 221 78q82 0 154 -20v-158q-75 21 -123 21q-158 0 -158 -193v-84h279v-154h-279v-958 h-178v958h-133zM1544 1325v197h197v-197h-197zM1550 0v1114h183v-1114h-183z" />
<glyph unicode="&#xfb04;" horiz-adv-x="1912" d="M88 958v154h133v98q0 174 84 258q81 78 221 78q82 0 154 -20v-158q-75 21 -123 21q-158 0 -158 -193v-84h279v-154h-279v-958h-178v958h-133zM774 958v154h133v98q0 174 84 258q81 78 221 78q82 0 154 -20v-158q-75 21 -123 21q-158 0 -158 -193v-84h279v-154h-279v-958 h-178v958h-133zM1550 0v1538h183v-1538h-183z" />
</font>
</defs>
</svg>
