<?xml version="1.0" standalone="no"?>
<!DOCTYPE svg PUBLIC "-//W3C//DTD SVG 1.1//EN" "http://www.w3.org/Graphics/SVG/1.1/DTD/svg11.dtd" >
<svg xmlns="http://www.w3.org/2000/svg">
<metadata></metadata>
<defs>
<font id="gotham_narrow_ssmbold_italic" horiz-adv-x="1523" >
<font-face units-per-em="2048" ascent="1638" descent="-410" />
<missing-glyph horiz-adv-x="516" />
<glyph horiz-adv-x="0" />
<glyph horiz-adv-x="682" />
<glyph unicode=" "  horiz-adv-x="516" />
<glyph unicode="&#x09;" horiz-adv-x="516" />
<glyph unicode="&#xa0;" horiz-adv-x="516" />
<glyph unicode="!" horiz-adv-x="681" d="M35 0l84 330h327l-81 -330h-330zM240 500l135 942l8 49h360l-10 -49l-325 -942h-168z" />
<glyph unicode="&#x22;" horiz-adv-x="1030" d="M217 827l148 664h340l-332 -664h-156zM676 827l147 664h340l-332 -664h-155z" />
<glyph unicode="#" horiz-adv-x="1316" d="M31 322l65 258h162l98 335h-166l68 259h176l98 317h263l-97 -317h254l97 317h262l-97 -317h152l-66 -259h-163l-103 -335h170l-65 -258h-181l-98 -322h-262l96 322h-252l-98 -322h-262l98 322h-149zM520 580h254l100 335h-253z" />
<glyph unicode="$" horiz-adv-x="1208" d="M-6 248l223 192q104 -118 219 -159l96 358q-70 38 -119.5 73.5t-91 83t-62.5 107.5t-21 133q0 202 144 329.5t378 127.5l39 127h205l-43 -158q175 -54 290 -176l-207 -207q-73 70 -161 115l-92 -334q292 -158 292 -391q0 -212 -149 -341.5t-379 -131.5l-59 -205h-205 l65 229q-227 58 -362 228zM555 1081q0 -72 70 -127l73 275q-66 -9 -105.5 -51.5t-37.5 -96.5zM623 264q66 14 106 59.5t39 108.5q0 64 -68 115z" />
<glyph unicode="%" horiz-adv-x="1677" d="M125 0l692 793l592 698h225l-690 -793l-592 -698h-227zM186 1075q0 93 34 181.5t93 146.5q102 102 242 102q134 0 214.5 -85t80.5 -234q0 -92 -34.5 -180t-94.5 -150q-102 -102 -244 -102q-132 0 -211.5 85.5t-79.5 235.5zM381 1079q0 -70 29.5 -108.5t78.5 -38.5 q44 0 89 35q33 36 53 95.5t20 121.5q0 69 -29 108t-77 39q-47 0 -86 -39q-36 -34 -57 -93.5t-21 -119.5zM911 305q0 93 33.5 181t93.5 149q105 102 244 102q132 0 211.5 -85.5t79.5 -235.5q0 -93 -34 -181.5t-93 -146.5q-102 -102 -244 -102q-132 0 -211.5 85t-79.5 234z M1108 307q0 -69 29 -108t77 -39q44 0 89 39q33 35 53 94t20 119q0 70 -29 108.5t-77 38.5q-43 0 -88 -35q-34 -37 -54 -96t-20 -121z" />
<glyph unicode="&#x26;" horiz-adv-x="1335" d="M55 365q0 313 369 471q-74 154 -74 282q0 165 116 280t310 115q164 0 267.5 -99t103.5 -238q0 -138 -86 -241.5t-281 -180.5l148 -238q79 106 139 221l197 -129q-102 -177 -205 -299l125 -194l-232 -140l-92 146q-178 -139 -379 -139q-193 0 -309.5 105t-116.5 278z M346 391q0 -66 43 -110.5t125 -44.5q107 0 225 86l-200 325q-100 -57 -146.5 -119t-46.5 -137zM616 1114q0 -75 56 -182q111 48 159 97.5t48 119.5q0 54 -30.5 90.5t-92.5 36.5q-60 0 -100 -47.5t-40 -114.5z" />
<glyph unicode="'" horiz-adv-x="565" d="M217 827l148 664h340l-332 -664h-156z" />
<glyph unicode="(" horiz-adv-x="854" d="M100 436q0 230 87.5 435t244.5 362q170 173 428 283l111 -224q-170 -84 -293 -207q-272 -275 -272 -649q0 -154 57.5 -288t173.5 -265l-195 -180q-170 154 -256 332.5t-86 400.5z" />
<glyph unicode=")" horiz-adv-x="854" d="M-100 -70q175 88 293 209q274 271 274 647q0 154 -58.5 288t-175.5 265l195 183q170 -156 256 -334t86 -402q0 -230 -87.5 -434.5t-244.5 -361.5q-177 -177 -428 -281z" />
<glyph unicode="*" horiz-adv-x="851" d="M217 1141l240 39l-193 149l117 121l149 -195l29 250l160 -41l-88 -233l221 100l47 -162l-240 -39l195 -151l-121 -119l-147 193l-29 -250l-160 43l88 231l-221 -98z" />
<glyph unicode="+" horiz-adv-x="1214" d="M143 610l72 279h330l80 328h282l-82 -328h330l-72 -279h-329l-78 -327h-283l80 327h-330z" />
<glyph unicode="," horiz-adv-x="651" d="M-113 -205q124 13 186.5 63.5t76.5 141.5h-130l84 330h330l-69 -279q-48 -198 -158.5 -288.5t-296.5 -98.5z" />
<glyph unicode="-" horiz-adv-x="823" d="M94 514l76 289h598l-74 -289h-600z" />
<glyph unicode="." horiz-adv-x="651" d="M20 0l84 330h330l-82 -330h-332z" />
<glyph unicode="/" horiz-adv-x="1003" d="M-236 -254l1235 1935h285l-1237 -1935h-283z" />
<glyph unicode="0" horiz-adv-x="1370" d="M123 551q0 209 75 430t208 354q175 178 423 178q224 0 361 -152.5t137 -422.5q0 -208 -75.5 -428.5t-209.5 -353.5q-176 -179 -424 -179q-224 0 -359.5 152.5t-135.5 421.5zM438 551q0 -153 54 -224t149 -71q92 0 166 74q91 93 147 274t56 336q0 152 -54 223.5t-147 71.5 q-92 0 -166 -74q-93 -93 -149 -274t-56 -336z" />
<glyph unicode="1" horiz-adv-x="864" d="M188 0l281 1165l-227 -57l2 270l403 121h215l-366 -1499h-308z" />
<glyph unicode="2" horiz-adv-x="1173" d="M-47 0l67 250l619 522q114 94 163.5 166.5t49.5 146.5q0 71 -42 109.5t-112 38.5q-69 0 -135 -38.5t-155 -121.5l-187 201q204 237 494 237q208 0 332 -109t124 -278q0 -105 -34.5 -190.5t-102.5 -161.5t-186 -170l-395 -334h540l-71 -268h-969z" />
<glyph unicode="3" horiz-adv-x="1132" d="M-35 203l225 203q58 -74 122 -113t147 -39q98 0 162.5 66.5t64.5 158.5q0 96 -66.5 143.5t-183.5 47.5h-78v196l377 359h-471l72 266h876l-61 -234l-430 -383q129 -43 202.5 -135.5t73.5 -232.5q0 -103 -38.5 -201t-114.5 -172q-70 -70 -174 -113t-232 -43 q-148 0 -271 60t-202 166z" />
<glyph unicode="4" horiz-adv-x="1243" d="M41 553l887 948h299l-223 -932h163l-63 -252h-162l-76 -317h-293l74 317h-586zM367 569h344l129 525z" />
<glyph unicode="5" horiz-adv-x="1159" d="M-14 203l209 211q137 -154 280 -154q114 0 188 77t74 185q0 81 -57 132t-162 51q-80 0 -156 -31l-157 127l207 690h790l-72 -272h-512l-73 -269q52 8 104 8q180 0 293 -107t113 -296q0 -114 -42 -219.5t-122 -185.5q-178 -170 -434 -170q-146 0 -269.5 60.5t-201.5 162.5 z" />
<glyph unicode="6" horiz-adv-x="1218" d="M115 487q0 129 29.5 276t100.5 305t171 259q186 186 440 186q112 0 213.5 -39.5t181.5 -109.5l-174 -234q-121 105 -241 105q-126 0 -215 -92q-102 -102 -154 -281q44 45 123 74t158 29q165 0 275 -100t110 -287q0 -124 -48.5 -241.5t-132.5 -201.5q-75 -73 -171 -115.5 t-201 -42.5q-100 0 -184.5 30t-139.5 85q-141 138 -141 395zM403 428q0 -89 52 -141q49 -49 127 -49q88 0 153 65q42 42 64 105.5t22 126.5q0 87 -47 134.5t-127 47.5q-92 0 -158 -66q-41 -41 -63.5 -100t-22.5 -123z" />
<glyph unicode="7" horiz-adv-x="1153" d="M6 0l823 1223h-577l70 268h925l-63 -238l-824 -1253h-354z" />
<glyph unicode="8" horiz-adv-x="1239" d="M68 385q-1 91 26.5 165t76.5 123t104.5 80.5t121.5 51.5q-147 104 -147 274q0 79 32 155t92 138.5t155.5 100.5t211.5 38q198 0 322.5 -105.5t124.5 -275.5q0 -291 -285 -391q97 -53 145 -125t48 -178q0 -88 -37 -169.5t-104 -145.5t-171 -102.5t-229 -38.5 q-131 0 -240.5 48t-177.5 142t-69 215zM367 418q-1 -84 56 -136.5t146 -52.5q95 0 159.5 62.5t66.5 154.5q1 86 -54.5 136.5t-148.5 50.5t-158 -63t-67 -152zM532 1057q-2 -73 43 -122.5t127 -49.5q81 0 139 60.5t60 144.5q2 72 -42 119.5t-132 47.5q-80 0 -136.5 -59.5 t-58.5 -140.5z" />
<glyph unicode="9" horiz-adv-x="1218" d="M29 139l178 236q136 -119 266 -119q124 0 213 92q101 105 145 258q-113 -96 -274 -96q-79 0 -146.5 23.5t-121.5 70t-85 124t-32 177.5q0 132 46.5 251t131.5 202q158 155 375 155q213 0 328 -118q139 -136 139 -420q0 -121 -30.5 -262t-103 -295.5t-173.5 -255.5 q-185 -185 -430 -185q-238 0 -426 162zM483 946q3 -97 49.5 -141.5t124.5 -44.5q94 0 160 63q39 39 60.5 101t21.5 131q0 101 -51 149q-46 49 -123 49q-92 0 -154 -65q-43 -41 -66.5 -108.5t-21.5 -133.5z" />
<glyph unicode=":" horiz-adv-x="653" d="M23 0l83 330h330l-84 -330h-329zM219 819l86 330h328l-82 -330h-332z" />
<glyph unicode=";" horiz-adv-x="653" d="M-113 -205q124 13 186.5 63.5t76.5 141.5h-127l83 330h330l-71 -279q-49 -199 -158.5 -289t-296.5 -98zM219 819l86 330h328l-82 -330h-332z" />
<glyph unicode="&#x3c;" horiz-adv-x="1214" d="M156 608l73 283l983 397l-79 -301l-660 -250l539 -248l-68 -276z" />
<glyph unicode="=" horiz-adv-x="1214" d="M113 367l71 274h889l-72 -274h-888zM238 858l69 277h891l-74 -277h-886z" />
<glyph unicode="&#x3e;" horiz-adv-x="1214" d="M80 211l82 301l655 250l-536 248l69 276l789 -395l-74 -283z" />
<glyph unicode="?" horiz-adv-x="1042" d="M154 0l82 330h329l-84 -330h-327zM217 1341q193 166 440 166q196 0 311 -104t115 -262q0 -181 -121.5 -299.5t-363.5 -163.5l-59 -178h-207l41 358l14 12q183 21 279 81.5t96 148.5q0 59 -36.5 93t-100.5 34q-114 0 -252 -109z" />
<glyph unicode="@" horiz-adv-x="1898" d="M113 444q0 206 73.5 402t198.5 344.5t304 239t378 90.5q170 0 313 -55t237.5 -149t147 -218t52.5 -262q0 -156 -39 -288t-105 -221t-153.5 -138.5t-184.5 -49.5t-165.5 48t-92.5 124q-149 -174 -311 -174q-125 0 -206 86.5t-81 237.5q0 162 71 307.5t186.5 232 t240.5 86.5q88 0 140.5 -36.5t88.5 -110.5l37 125l223 -61l-155 -512q-31 -100 -31 -146q0 -55 32 -84t85 -29q59 0 119.5 48t108.5 127.5t78 193t30 234.5q0 123 -46 232t-130 191.5t-211.5 130.5t-280.5 48q-147 0 -283.5 -55t-241.5 -151t-183.5 -221t-120 -271.5 t-41.5 -295.5q0 -155 52.5 -283.5t144.5 -214t217.5 -132.5t271.5 -47q205 0 403 98l33 -72q-220 -106 -436 -106q-220 0 -393.5 91t-274 264t-100.5 402zM733 508q0 -80 34.5 -124t100.5 -44q97 0 185 114.5t88 260.5q0 74 -35.5 120t-101.5 46q-64 0 -127.5 -54.5 t-103.5 -141.5t-40 -177z" />
<glyph unicode="A" horiz-adv-x="1437" d="M-92 0l897 1501h301l162 -1501h-318l-26 340h-494l-190 -340h-332zM604 614h289l-29 510z" />
<glyph unicode="B" horiz-adv-x="1337" d="M29 0l362 1491h461q235 0 354 -100t119 -258q0 -152 -85 -247.5t-224 -129.5q196 -94 196 -299q0 -215 -166.5 -336t-445.5 -121h-571zM399 272h246q121 0 190.5 54.5t69.5 150.5q0 67 -46.5 106.5t-139.5 39.5h-240zM547 881h207q125 0 193.5 50.5t68.5 147.5 q0 63 -47.5 101.5t-143.5 38.5h-204z" />
<glyph unicode="C" horiz-adv-x="1316" d="M133 594q0 192 71 382.5t197 319.5q221 215 504 215q310 0 496 -251l-242 -205q-65 88 -127 130t-147 42q-131 0 -246 -115q-83 -85 -135.5 -223t-52.5 -285q0 -153 77 -246.5t207 -93.5q124 0 262 113l174 -217q-190 -180 -436 -180q-272 0 -437 165.5t-165 448.5z" />
<glyph unicode="D" horiz-adv-x="1447" d="M29 0l362 1491h371q319 0 485 -162q154 -154 154 -440q0 -172 -67 -348t-197 -305q-119 -119 -280 -177.5t-382 -58.5h-446zM410 281h104q251 0 393 145q84 84 128 209t44 244q0 165 -82 247q-84 84 -260 84h-108z" />
<glyph unicode="E" horiz-adv-x="1241" d="M29 0l362 1491h944l-71 -277h-635l-74 -327h557l-70 -273h-559l-77 -338h649l-74 -276h-952z" />
<glyph unicode="F" horiz-adv-x="1220" d="M29 0l362 1491h959l-74 -283h-647l-76 -340h569l-73 -280h-568l-143 -588h-309z" />
<glyph unicode="G" horiz-adv-x="1443" d="M129 590q0 194 71.5 378.5t200.5 311.5q231 231 557 231q302 0 498 -196l-221 -219q-140 133 -301 133q-168 0 -301 -133q-84 -84 -134 -220t-50 -278q0 -155 88 -246.5t221 -91.5q87 0 174 35l67 289h-258l72 268h553l-195 -764q-195 -108 -434 -108q-91 0 -178 23 t-165.5 72t-137 119.5t-93 172.5t-34.5 223z" />
<glyph unicode="H" horiz-adv-x="1425" d="M29 0l362 1491h311l-143 -598h469l143 598h310l-363 -1491h-311l147 606h-469l-147 -606h-309z" />
<glyph unicode="I" horiz-adv-x="675" d="M43 0l365 1491h309l-363 -1491h-311z" />
<glyph unicode="J" horiz-adv-x="1052" d="M-59 203l219 203q55 -73 100.5 -105.5t95.5 -32.5q70 0 121 51q62 65 105 250l219 922h317l-237 -993q-35 -152 -74.5 -237t-104.5 -148q-128 -131 -335 -131q-274 0 -426 221z" />
<glyph unicode="K" horiz-adv-x="1357" d="M29 0l362 1491h311l-155 -653l590 653h397l-623 -633l289 -858h-338l-188 635l-242 -242l-94 -393h-309z" />
<glyph unicode="L" horiz-adv-x="1161" d="M29 0l362 1491h311l-290 -1208h598l-74 -283h-907z" />
<glyph unicode="M" horiz-adv-x="1630" d="M29 0l362 1491h330l153 -637l451 637h361l-363 -1491h-313l233 991l-487 -655h-8l-177 649l-235 -985h-307z" />
<glyph unicode="N" horiz-adv-x="1472" d="M29 0l362 1491h289l317 -956l228 956h303l-363 -1491h-268l-332 989l-231 -989h-305z" />
<glyph unicode="O" d="M129 580q0 194 73.5 394.5t203.5 330.5q211 208 512 208q169 0 296.5 -76t195 -212.5t67.5 -313.5q0 -194 -73.5 -393.5t-205.5 -331.5q-211 -211 -510 -211q-255 0 -407 167.5t-152 437.5zM446 602q0 -160 73 -250t208 -90q128 0 238 107q87 88 139.5 239t52.5 281 q0 160 -71.5 250t-206.5 90q-131 0 -238 -107q-87 -89 -141 -240t-54 -280z" />
<glyph unicode="P" horiz-adv-x="1288" d="M29 0l362 1491h369q152 0 254.5 -31.5t177.5 -105.5q113 -113 113 -310q0 -243 -158 -401q-90 -89 -223 -137.5t-291 -48.5h-187l-108 -457h-309zM516 725h133q160 0 252 92q80 77 80 205q0 81 -49 133q-32 32 -75 43.5t-112 11.5h-116z" />
<glyph unicode="Q" d="M129 580q0 194 73.5 394.5t203.5 330.5q211 208 512 208q169 0 296.5 -76t195 -212.5t67.5 -313.5q0 -178 -62.5 -363t-175.5 -319l104 -149l-258 -168l-77 135q-144 -72 -320 -72q-255 0 -407 167.5t-152 437.5zM446 602q0 -161 71 -250.5t210 -89.5q65 0 131 29 l-160 233l256 170l109 -188q44 90 69 193t25 190q0 161 -70.5 250.5t-207.5 89.5q-133 0 -238 -105q-87 -88 -141 -240t-54 -282z" />
<glyph unicode="R" horiz-adv-x="1368" d="M29 0l362 1491h428q293 0 430 -137q115 -118 115 -303q0 -231 -139 -373q-31 -33 -57 -55t-86.5 -54.5t-135.5 -52.5l211 -516h-348l-186 481h-170l-115 -481h-309zM524 754h183q175 0 264 86q69 72 69 186q0 83 -49 129q-55 55 -192 55h-168z" />
<glyph unicode="S" horiz-adv-x="1187" d="M-8 250l231 201q88 -100 167 -149.5t163 -49.5q73 0 119.5 41.5t46.5 103.5q0 50 -41.5 99t-155.5 131q-144 106 -215 202.5t-71 214.5q0 189 126 318q149 149 373 149q282 0 488 -221l-213 -213q-77 82 -143.5 122t-141.5 40t-117.5 -41.5t-42.5 -97.5q0 -52 39.5 -99.5 t155.5 -130.5q94 -66 153 -123.5t97.5 -134t38.5 -163.5q0 -192 -134 -326q-70 -68 -169.5 -105.5t-206.5 -37.5q-169 0 -310 70.5t-237 199.5z" />
<glyph unicode="T" horiz-adv-x="1148" d="M195 1204l75 287h1055l-76 -287h-370l-291 -1204h-309l288 1204h-372z" />
<glyph unicode="U" horiz-adv-x="1435" d="M150 424q0 94 36 229l201 838h309l-209 -862q-22 -93 -22 -162q0 -96 53.5 -150.5t145.5 -54.5q114 0 184 70q82 82 123 246l219 913h309l-231 -956q-70 -274 -201 -402q-156 -156 -436 -156q-221 0 -351 116.5t-130 330.5z" />
<glyph unicode="V" horiz-adv-x="1366" d="M266 1491h330l47 -1047l547 1047h344l-864 -1501h-275z" />
<glyph unicode="W" horiz-adv-x="2091" d="M274 1491h320l-2 -1020l518 1024h268l45 -1024l478 1020h350l-793 -1501h-289l-43 979l-508 -979h-286z" />
<glyph unicode="X" horiz-adv-x="1306" d="M-88 0l614 780l-241 711h346l119 -477l329 477h389l-594 -748l254 -743h-346l-135 514l-350 -514h-385z" />
<glyph unicode="Y" horiz-adv-x="1216" d="M207 1491h342l119 -610l409 610h369l-690 -913l-144 -578h-309l146 602z" />
<glyph unicode="Z" horiz-adv-x="1282" d="M-23 0l62 236l876 985h-628l71 270h1031l-62 -236l-878 -985h657l-70 -270h-1059z" />
<glyph unicode="[" horiz-adv-x="907" d="M-6 -276l430 1767h594l-62 -240h-299l-315 -1290h307l-63 -237h-592z" />
<glyph unicode="\" horiz-adv-x="1003" d="M248 1681h252l334 -1935h-252z" />
<glyph unicode="]" horiz-adv-x="907" d="M-96 -276l59 237h301l316 1290h-308l64 240h592l-430 -1767h-594z" />
<glyph unicode="^" horiz-adv-x="972" d="M195 1075l358 406h209l158 -406h-197l-98 215l-195 -215h-235z" />
<glyph unicode="_" horiz-adv-x="1218" d="M-205 -340l60 234h1187l-59 -234h-1188z" />
<glyph unicode="`" horiz-adv-x="1101" d="M539 1503l262 117l147 -365h-209z" />
<glyph unicode="a" horiz-adv-x="1126" d="M20 283q0 182 117 299q120 123 330 123q122 0 256 -52l4 21q14 65 14 106q0 119 -170 119q-117 0 -249 -61l-68 243q169 78 371 78t308.5 -81.5t106.5 -229.5q0 -86 -32 -221l-150 -627h-297l29 123q-122 -141 -281 -141q-134 0 -211.5 84t-77.5 217zM324 313 q0 -56 31.5 -90.5t86.5 -34.5q81 0 140.5 65.5t81.5 156.5l18 77q-89 33 -158 33q-91 0 -143 -55q-57 -54 -57 -152z" />
<glyph unicode="b" horiz-adv-x="1271" d="M0 0l371 1538h307l-121 -510q69 71 134.5 106t144.5 35q148 0 249 -122.5t101 -339.5q0 -165 -57 -317.5t-158 -256.5q-154 -151 -342 -151q-191 0 -291 176l-35 -158h-303zM403 467q0 -105 50 -167t129 -62q87 0 153 69q63 63 100 163t37 212q0 108 -45.5 169.5 t-130.5 61.5q-86 0 -157 -71q-63 -63 -99.5 -166.5t-36.5 -208.5z" />
<glyph unicode="c" horiz-adv-x="1030" d="M88 459q0 155 55.5 298.5t153.5 241.5q173 166 387 166q98 0 173 -26.5t123 -68.5t91 -107l-223 -179q-39 63 -78 93t-92 30q-81 0 -150 -69q-63 -63 -101 -168t-38 -205q0 -109 45.5 -168t118.5 -59q49 0 88.5 20.5t97.5 67.5l152 -195q-75 -72 -159 -111.5t-193 -39.5 q-206 0 -328.5 129t-122.5 350z" />
<glyph unicode="d" horiz-adv-x="1271" d="M86 444q0 164 57 318t158 256q72 72 161 111.5t181 39.5q191 0 291 -176l127 545h307l-377 -1538h-305l31 121q-71 -70 -136.5 -104.5t-144.5 -34.5q-148 0 -249 122.5t-101 339.5zM399 469q0 -108 45.5 -169.5t130.5 -61.5q87 0 158 71q63 63 99 166t36 209t-49.5 167.5 t-128.5 61.5q-87 0 -153 -69q-64 -64 -101 -164t-37 -211z" />
<glyph unicode="e" horiz-adv-x="1159" d="M88 475q0 149 56.5 290t156.5 241q166 163 385 163q183 0 294.5 -118.5t111.5 -307.5q0 -133 -56 -278h-665v-10q5 -110 55 -171t141 -61q61 0 111 20t113 64l129 -205q-159 -122 -367 -122q-220 0 -342.5 132.5t-122.5 362.5zM397 657h402q12 47 12 101q0 74 -38 120 t-109 46q-85 0 -160 -72q-70 -70 -107 -195z" />
<glyph unicode="f" horiz-adv-x="798" d="M47 0l215 887h-121l68 262h119l10 45q45 181 127 260q106 100 295 100q94 0 180 -24l-66 -252q-46 16 -104 16q-56 0 -85.5 -26.5t-43.5 -79.5l-10 -39h213l-70 -262h-205l-215 -887h-307z" />
<glyph unicode="g" horiz-adv-x="1265" d="M-47 -170l147 211q172 -125 344 -125q115 0 189 74q59 62 88 178l18 70q-79 -80 -149.5 -116t-153.5 -36q-148 0 -247 100.5t-99 282.5q0 149 58.5 297.5t160.5 251.5q154 151 330 151q198 0 281 -192l41 172h305l-232 -959q-33 -143 -73.5 -229t-104.5 -151 q-137 -134 -391 -134q-134 0 -269.5 40t-242.5 114zM403 516q0 -92 39.5 -140t116.5 -48q90 0 166 73q48 48 82.5 133t34.5 183q0 92 -44.5 145t-119.5 53q-86 0 -152 -69q-57 -55 -90 -150.5t-33 -179.5z" />
<glyph unicode="h" horiz-adv-x="1191" d="M0 0l371 1538h307l-119 -500q135 131 272 131q127 0 203 -78.5t76 -216.5q0 -70 -37 -229l-155 -645h-306l158 647q18 80 18 125q0 119 -118 119q-74 0 -125.5 -57t-71.5 -148l-168 -686h-305z" />
<glyph unicode="i" horiz-adv-x="610" d="M12 0l281 1149h305l-281 -1149h-305zM313 1270l74 280h318l-74 -280h-318z" />
<glyph unicode="j" horiz-adv-x="614" d="M-242 -301l64 231q30 -10 65 -10q60 0 95.5 33.5t52.5 105.5l264 1090h303l-274 -1133q-45 -186 -142 -264t-252 -78q-96 0 -176 25zM317 1270l72 280h318l-72 -280h-318z" />
<glyph unicode="k" horiz-adv-x="1122" d="M0 0l375 1538h307l-184 -776l350 387h387l-465 -434l193 -715h-336l-113 502l-117 -123l-92 -379h-305z" />
<glyph unicode="l" horiz-adv-x="610" d="M12 0l377 1538h303l-375 -1538h-305z" />
<glyph unicode="m" horiz-adv-x="1798" d="M0 0l281 1149h305l-27 -111q67 63 129 97t141 34q91 0 156.5 -48t95.5 -140q154 188 351 188q133 0 209.5 -76t76.5 -204q0 -106 -37 -244l-155 -645h-305l157 651q19 84 19 125q0 115 -117 115q-71 0 -123.5 -54.5t-73.5 -142.5l-170 -694h-303l158 649q18 80 18 125 q0 117 -116 117q-74 0 -125 -56t-72 -149l-168 -686h-305z" />
<glyph unicode="n" horiz-adv-x="1183" d="M0 0l281 1149h305l-27 -111q135 131 272 131q127 0 203 -78.5t76 -216.5q0 -70 -37 -229l-155 -645h-306l158 647q18 80 18 125q0 119 -118 119q-74 0 -125.5 -57t-71.5 -148l-168 -686h-305z" />
<glyph unicode="o" horiz-adv-x="1228" d="M90 473q0 152 55 294t154 241q164 161 377 161q214 0 339.5 -136.5t125.5 -358.5q0 -152 -55.5 -294.5t-153.5 -240.5q-159 -162 -377 -162q-214 0 -339.5 136.5t-125.5 359.5zM387 481q0 -119 48 -181t132 -62q80 0 146 63q61 63 97 167t36 196q0 119 -48.5 181 t-133.5 62q-81 0 -144 -63q-62 -61 -97.5 -164.5t-35.5 -198.5z" />
<glyph unicode="p" horiz-adv-x="1271" d="M-78 -319l359 1468h305l-29 -121q69 71 134.5 106t144.5 35q148 0 249 -122.5t101 -339.5q0 -165 -57 -317.5t-158 -256.5q-154 -151 -342 -151q-191 0 -291 176l-113 -477h-303zM403 467q0 -105 50 -167t129 -62q87 0 153 69q63 63 100 163t37 212q0 108 -45.5 169.5 t-130.5 61.5q-86 0 -157 -71q-63 -63 -99.5 -166.5t-36.5 -208.5z" />
<glyph unicode="q" horiz-adv-x="1271" d="M86 444q0 164 57 317t158 255q74 74 163 113.5t181 39.5q189 0 289 -176l33 156h307l-359 -1468h-305l107 440q-71 -70 -136.5 -104.5t-144.5 -34.5q-148 0 -249 122.5t-101 339.5zM399 469q0 -108 45.5 -169.5t130.5 -61.5q87 0 158 71q63 63 99 166t36 209t-49.5 167.5 t-128.5 61.5q-87 0 -153 -69q-64 -64 -101 -164t-37 -211z" />
<glyph unicode="r" horiz-adv-x="811" d="M0 0l281 1149h305l-47 -186q71 110 155 162q70 44 163 44q18 0 36 -2l-84 -315h-16q-143 0 -233 -80t-134 -262l-121 -510h-305z" />
<glyph unicode="s" horiz-adv-x="946" d="M-43 188l178 185q146 -162 279 -162q51 0 82.5 27.5t31.5 68.5q0 42 -31.5 74t-129.5 100q-117 82 -170.5 155t-53.5 171q0 71 28 136t79 114.5t128 78.5t169 29q219 0 397 -174l-162 -196q-78 74 -135 106.5t-115 32.5q-42 0 -71 -25.5t-29 -64.5t31.5 -70.5 t128.5 -99.5q125 -82 176 -161t51 -175q0 -151 -116 -254.5t-295 -103.5q-259 0 -451 208z" />
<glyph unicode="t" horiz-adv-x="796" d="M106 205q0 42 23 147l131 535h-125l68 262h121l69 285h305l-67 -285h209l-68 -262h-205l-131 -531q-6 -30 -6 -49q0 -24 17.5 -38.5t50.5 -14.5q64 0 135 33l-66 -258q-84 -43 -211 -43q-119 0 -184.5 59.5t-65.5 159.5z" />
<glyph unicode="u" horiz-adv-x="1191" d="M84 274q0 71 37 230l155 645h306l-158 -647q-18 -76 -18 -125q0 -119 118 -119q73 0 125.5 57t71.5 148l168 686h305l-281 -1149h-305l27 111q-133 -129 -273 -129q-128 0 -203 77t-75 215z" />
<glyph unicode="v" horiz-adv-x="1142" d="M188 1149h312l18 -772l381 772h324l-660 -1157h-276z" />
<glyph unicode="w" horiz-adv-x="1634" d="M197 1149h307l-27 -717l344 719h266l9 -721l315 719h299l-584 -1157h-276l-10 719l-355 -719h-274z" />
<glyph unicode="x" horiz-adv-x="1107" d="M-80 0l479 600l-194 549h319l86 -328l215 328h357l-461 -578l201 -571h-322l-92 352l-234 -352h-354z" />
<glyph unicode="y" horiz-adv-x="1134" d="M-35 -227l146 202q56 -47 104 -47q49 0 82 62l-90 1159h311l10 -787l359 787h325l-614 -1167q-86 -165 -173 -236.5t-210 -71.5q-72 0 -137.5 26.5t-112.5 72.5z" />
<glyph unicode="z" horiz-adv-x="1030" d="M-39 0l53 217l617 686h-447l64 246h819l-53 -217l-621 -684h467l-63 -248h-836z" />
<glyph unicode="{" horiz-adv-x="937" d="M86 498l59 229h58q150 0 211 61q70 76 67 252q0 242 117 357q130 127 410 127l24 -205q-89 -9 -141 -26.5t-84 -49.5q-42 -39 -55 -100.5t-11 -184.5q0 -188 -82 -270q-79 -81 -235 -100q87 -17 133.5 -69t46.5 -126q0 -71 -53 -194q-53 -108 -53 -156q0 -51 36 -81 t144 -68l-94 -193q-201 39 -284 107t-83 188q0 71 55 201q54 130 54 184q0 117 -187 117h-53z" />
<glyph unicode="|" horiz-adv-x="729" d="M41 -254l475 1935h240l-477 -1935h-238z" />
<glyph unicode="}" horiz-adv-x="937" d="M-76 -94q89 9 142 26.5t86 49.5q41 39 53 99.5t10 184.5q0 189 82 271q79 81 235 100q-87 17 -133.5 68.5t-46.5 125.5q0 73 56 195q51 113 51 156q0 51 -36 81t-144 68l94 193q201 -39 284.5 -107t83.5 -188q0 -66 -57 -201q-53 -127 -53 -184q0 -117 186 -117h55 l-61 -229h-57q-149 0 -211 -62q-71 -77 -68 -252q0 -241 -115 -356q-133 -127 -411 -127z" />
<glyph unicode="~" horiz-adv-x="1007" d="M115 553q51 123 126.5 194.5t164.5 71.5q87 0 151 -55q39 -30 60 -40.5t42 -10.5q78 0 134 116l157 -77q-52 -122 -127 -194.5t-164 -72.5q-47 0 -80.5 14t-70.5 42q-41 31 -61 42t-41 11q-73 0 -134 -119z" />
<glyph unicode="&#xa1;" horiz-adv-x="681" d="M18 0l11 49l325 942h168l-135 -942l-10 -49h-359zM315 1161l82 330h328l-82 -330h-328z" />
<glyph unicode="&#xa2;" horiz-adv-x="1105" d="M139 662q0 151 51 290t144 232q159 164 403 164h27l53 153h205l-68 -198q114 -54 193 -177l-215 -159q-42 53 -76 75l-199 -622q85 8 187 76l141 -199q-168 -139 -369 -139h-36l-60 -170h-203l74 215q-120 56 -186 174t-66 285zM438 670q0 -124 58 -189l186 600 q-66 -14 -121 -69q-58 -58 -90.5 -154.5t-32.5 -187.5z" />
<glyph unicode="&#xa3;" horiz-adv-x="1210" d="M-16 0l53 201l151 53l80 334h-147l65 252h142l55 231q51 204 158 311q129 129 344 129q131 0 234 -61.5t165 -163.5l-242 -176q-72 117 -176 117q-66 0 -112 -49q-53 -53 -76 -158l-41 -180h389l-65 -252h-386l-73 -320h536l-69 -268h-985z" />
<glyph unicode="&#xa5;" horiz-adv-x="1314" d="M98 211l56 215h319l33 137h-322l58 215h245l-202 713h329l117 -561l383 561h363l-553 -713h254l-56 -215h-319l-37 -137h326l-58 -215h-319l-51 -211h-295l51 211h-322z" />
<glyph unicode="&#xa7;" horiz-adv-x="1206" d="M96 158l178 182q127 -127 265 -127q60 0 92.5 23t32.5 59q0 37 -33.5 59.5t-145.5 65.5q-69 26 -111.5 44t-93 46.5t-78 57t-46.5 69.5t-19 90q0 61 24 111.5t65 83t85.5 52.5t94.5 30q-68 78 -68 188q0 135 114.5 228t309.5 93q275 0 436 -174l-178 -182 q-127 127 -264 127q-61 0 -94 -23.5t-33 -58.5q0 -37 34 -59.5t146 -65.5q69 -26 111.5 -44t92.5 -46.5t77.5 -57t46 -69.5t18.5 -90q0 -51 -16.5 -94t-43 -73t-62 -53.5t-71.5 -37t-75 -20.5q67 -77 67 -187q0 -135 -113.5 -228t-308.5 -93q-139 0 -250.5 46t-185.5 128z M424 780q0 -40 28.5 -64.5t92.5 -53.5q137 -54 200 -54q49 0 86 29.5t37 79.5q0 41 -28.5 66t-91.5 53q-132 53 -201 53q-48 0 -85.5 -29.5t-37.5 -79.5z" />
<glyph unicode="&#xa8;" horiz-adv-x="1101" d="M381 1262l70 268h284l-69 -268h-285zM784 1262l70 268h285l-70 -268h-285z" />
<glyph unicode="&#xa9;" horiz-adv-x="1603" d="M147 621q0 190 68 370.5t195 306.5q215 218 514 218q185 0 325.5 -86.5t213.5 -232.5t73 -327q0 -188 -68 -369t-194 -308q-218 -218 -516 -218q-139 0 -255 50.5t-193.5 137.5t-120 205t-42.5 253zM231 627q0 -117 35 -220t100.5 -181.5t166.5 -123.5t225 -45 q265 0 450 185q118 118 180 286t62 340q1 116 -34 218t-100.5 180t-167 123t-226.5 45q-264 0 -449 -185q-119 -117 -179.5 -283t-62.5 -339zM473 668q0 109 41.5 215.5t114.5 177.5q121 121 280 121q176 0 275 -154l-137 -106q-38 49 -71 72.5t-81 23.5q-77 0 -139 -62 q-43 -43 -72 -122t-29 -158q0 -88 39.5 -139.5t108.5 -51.5q74 0 164 74l94 -123q-119 -110 -273 -110q-141 0 -228 93.5t-87 248.5z" />
<glyph unicode="&#xaa;" horiz-adv-x="776" d="M125 610l35 129h512l-33 -129h-514zM221 1014q0 104 68.5 169.5t173.5 65.5q63 0 147 -30l8 24q7 25 7 43q0 32 -22.5 50t-67.5 18q-69 0 -148 -31l-43 135q108 41 217 41t167 -49t58 -135q0 -41 -14 -107l-84 -346h-164l15 62q-71 -74 -154 -74q-73 0 -118.5 46 t-45.5 118zM389 1034q-1 -32 18 -50.5t52 -18.5q43 0 77 36t46 89l8 34q-44 19 -92 19q-52 0 -80.5 -32t-28.5 -77z" />
<glyph unicode="&#xab;" horiz-adv-x="1275" d="M106 543l5 16l485 488l152 -150l-324 -373l141 -356l-223 -96zM618 543l5 16l487 488l152 -150l-326 -373l143 -356l-225 -96z" />
<glyph unicode="&#xad;" horiz-adv-x="823" d="M94 514l76 289h598l-74 -289h-600z" />
<glyph unicode="&#xae;" horiz-adv-x="757" d="M174 1075q0 93 33.5 182t95.5 150q106 109 258 109q136 0 216.5 -88.5t80.5 -221.5q0 -95 -32.5 -183.5t-96.5 -152.5q-106 -106 -256 -106q-136 0 -217.5 89t-81.5 222zM215 1077q0 -116 70 -195t192 -79q125 0 219 94q59 58 91 140.5t32 164.5q0 116 -70 195.5 t-192 79.5q-126 0 -219 -93q-60 -60 -91.5 -142t-31.5 -165zM326 946l98 402h121q160 0 160 -125q0 -96 -103 -138l49 -139h-106l-43 123h-45l-27 -123h-104zM479 1153h41q47 0 68 21q14 14 14 38q0 48 -59 48h-39z" />
<glyph unicode="&#xaf;" horiz-adv-x="1101" d="M381 1257l55 209h670l-53 -209h-672z" />
<glyph unicode="&#xb0;" horiz-adv-x="897" d="M205 1096q0 179 127 309q100 100 248 100q137 0 217 -85.5t80 -225.5q0 -182 -127 -309q-103 -103 -246 -103q-137 0 -218 87.5t-81 226.5zM367 1104q0 -77 38.5 -123.5t104.5 -46.5q70 0 127 53q37 37 57.5 90t20.5 109q0 76 -38 122t-106 46q-74 0 -125 -51 q-38 -38 -58.5 -91t-20.5 -108z" />
<glyph unicode="&#xb1;" horiz-adv-x="1214" d="M14 63l68 254h928l-66 -254h-930zM197 788l65 265l330 -2l78 317h270l-80 -317l332 2l-68 -265l-331 3l-74 -320h-273l80 320z" />
<glyph unicode="&#xb2;" horiz-adv-x="778" d="M186 922l39 147l373 289q56 47 78 78.5t22 64.5t-25 54.5t-67 21.5q-81 0 -182 -90l-107 123q131 131 295 131q124 0 197.5 -62.5t73.5 -162.5q0 -76 -37.5 -136.5t-157.5 -146.5l-217 -156h320l-41 -155h-564z" />
<glyph unicode="&#xb3;" horiz-adv-x="778" d="M203 1026l110 123q5 -4 19.5 -15.5t20 -15.5t19 -13.5t21.5 -13.5t22.5 -10t26 -9t27.5 -5t33 -2q58 0 95.5 35.5t37.5 77.5q0 44 -43.5 69.5t-122.5 26.5h-45v110l238 183h-287l39 159h522l-33 -133l-270 -202q184 -37 184 -201q0 -123 -88 -204t-231 -81 q-186 0 -295 121z" />
<glyph unicode="&#xb4;" horiz-adv-x="1101" d="M469 1255l313 365l250 -117l-315 -248h-248z" />
<glyph unicode="&#xb5;" horiz-adv-x="1294" d="M-74 -322l357 1461h288l-155 -645q-17 -79 -17 -117q0 -66 37.5 -103.5t106.5 -37.5q159 0 211 202l168 701h290l-190 -783q-8 -50 -8 -63q0 -33 20.5 -47.5t65.5 -14.5q9 0 59 5l-57 -226q-68 -22 -146 -22q-81 0 -133 36t-71 101q-94 -139 -234 -139q-171 0 -225 176 h-4q3 -136 -37 -312l-41 -172h-285z" />
<glyph unicode="&#xb6;" horiz-adv-x="1191" d="M174 905q0 241 162 406q180 180 536 180h375l-364 -1491h-305l106 457q-271 6 -393 131q-117 117 -117 317z" />
<glyph unicode="&#xb7;" horiz-adv-x="653" d="M131 494l84 329h332l-84 -329h-332z" />
<glyph unicode="&#xb8;" horiz-adv-x="1101" d="M150 -231l231 251h221l-223 -358z" />
<glyph unicode="&#xb9;" horiz-adv-x="636" d="M338 1628l262 103h133l-198 -809h-175l148 612l-158 -61z" />
<glyph unicode="&#xba;" horiz-adv-x="800" d="M129 610l33 129h520l-35 -129h-518zM225 1118q0 82 30.5 160t88.5 133q87 90 207 90q121 0 191.5 -74t70.5 -196q0 -82 -31 -160.5t-88 -134.5q-88 -88 -209 -88t-190.5 73t-69.5 197zM389 1120q0 -56 27.5 -92.5t75.5 -36.5q40 0 83 37q34 34 53 90.5t19 110.5 q0 57 -26.5 93t-75.5 36q-45 0 -84 -39q-33 -33 -52.5 -89.5t-19.5 -109.5z" />
<glyph unicode="&#xbb;" horiz-adv-x="1275" d="M8 221l324 373l-142 356l226 97l233 -472l-4 -16l-485 -487zM520 221l326 373l-144 356l224 97l237 -472l-4 -16l-485 -487z" />
<glyph unicode="&#xbc;" horiz-adv-x="1611" d="M63 0l662 780l584 711h178l-664 -780l-583 -711h-177zM260 1393l262 104h131l-194 -811h-176l147 614l-158 -63zM748 166l36 162l465 485h187l-123 -510h98l-37 -137h-98l-41 -166h-162l41 166h-366zM938 301h213l70 303h-4z" />
<glyph unicode="&#xbd;" horiz-adv-x="1611" d="M33 0l661 780l584 711h178l-663 -780l-584 -711h-176zM260 1393l262 104h131l-194 -811h-176l147 614l-158 -63zM739 0l39 147l373 289q56 46 78 78.5t22 65.5t-25 54t-67 21q-81 0 -182 -90l-107 123q131 131 295 131q124 0 197.5 -62.5t73.5 -162.5q0 -76 -37.5 -136.5 t-157.5 -146.5l-217 -155h319l-40 -156h-564z" />
<glyph unicode="&#xbe;" horiz-adv-x="1751" d="M115 791l110 124q39 -32 54.5 -43.5t54 -26t82.5 -14.5q58 0 95.5 35t37.5 76q0 46 -43.5 72t-122.5 26h-47v109l237 182h-286l41 160h524l-35 -131l-272 -203q184 -40 184 -203q0 -123 -88 -203.5t-231 -80.5q-182 0 -295 121zM201 0l661 780l584 711h178l-663 -780 l-584 -711h-176zM891 166l37 162l465 485h186l-123 -510h98l-36 -137h-99l-41 -166h-161l40 166h-366zM1081 301h213l70 303h-4z" />
<glyph unicode="&#xbf;" horiz-adv-x="1042" d="M41 350q0 181 122 299.5t365 163.5l60 178h205l-41 -358l-13 -12q-184 -21 -279 -81.5t-95 -148.5q0 -59 36 -93t101 -34q115 0 250 109l155 -223q-190 -166 -438 -166q-196 0 -312 104t-116 262zM559 1161l84 330h328l-82 -330h-330z" />
<glyph unicode="&#xc0;" horiz-adv-x="1437" d="M-92 0l897 1501h301l162 -1501h-318l-26 340h-494l-190 -340h-332zM604 614h289l-29 510zM643 1817l268 112l170 -319h-211z" />
<glyph unicode="&#xc1;" horiz-adv-x="1437" d="M-92 0l897 1501h301l162 -1501h-318l-26 340h-494l-190 -340h-332zM604 614h289l-29 510zM850 1610l315 319l254 -112l-317 -207h-252z" />
<glyph unicode="&#xc2;" horiz-adv-x="1437" d="M-92 0l897 1501h301l162 -1501h-318l-26 340h-494l-190 -340h-332zM571 1604l324 301h291l174 -301h-225l-123 116l-185 -116h-256zM604 614h289l-29 510z" />
<glyph unicode="&#xc3;" horiz-adv-x="1437" d="M-92 0l897 1501h301l162 -1501h-318l-26 340h-494l-190 -340h-332zM586 1655q59 134 120.5 200t157.5 66q34 0 68.5 -7.5t55.5 -15.5t59 -24q64 -37 106 -37q41 0 68.5 23t58.5 73l164 -57q-30 -66 -55.5 -110t-59 -81t-74.5 -55t-92 -18q-76 0 -182 45q-67 37 -107 37 q-41 0 -68 -23t-58 -74zM604 614h289l-29 510z" />
<glyph unicode="&#xc4;" horiz-adv-x="1437" d="M-92 0l897 1501h301l162 -1501h-318l-26 340h-494l-190 -340h-332zM604 614h289l-29 510zM637 1616l63 254h287l-65 -254h-285zM1047 1616l65 254h287l-66 -254h-286z" />
<glyph unicode="&#xc5;" horiz-adv-x="1437" d="M-92 0l856 1436q-37 49 -37 110q0 100 70.5 171t195.5 71q95 0 161.5 -58t66.5 -137q0 -127 -103 -198l150 -1395h-318l-26 340h-494l-190 -340h-332zM604 614h289l-29 510zM850 1556q0 -43 30.5 -70.5t80.5 -27.5q63 0 100 38t37 83q0 47 -31.5 75.5t-79.5 28.5 q-63 0 -100 -39.5t-37 -87.5z" />
<glyph unicode="&#xc6;" horiz-adv-x="1927" d="M-119 0l1026 1491h1125l-74 -277h-600l-74 -327h524l-71 -273h-523l-79 -338h612l-72 -276h-917l82 340h-406l-221 -340h-332zM641 614h268l144 609h-31z" />
<glyph unicode="&#xc7;" horiz-adv-x="1316" d="M133 594q0 192 71 382.5t197 319.5q221 215 504 215q310 0 496 -251l-242 -205q-65 88 -127 130t-147 42q-131 0 -246 -115q-83 -85 -135.5 -223t-52.5 -285q0 -153 77 -246.5t207 -93.5q124 0 262 113l174 -217q-190 -180 -436 -180h-33l-196 -318l-230 107l228 247 q-174 61 -272.5 211t-98.5 367z" />
<glyph unicode="&#xc8;" horiz-adv-x="1241" d="M29 0l362 1491h944l-71 -277h-635l-74 -327h557l-70 -273h-559l-77 -338h649l-74 -276h-952zM545 1800l268 113l170 -320h-211z" />
<glyph unicode="&#xc9;" horiz-adv-x="1241" d="M29 0l362 1491h944l-71 -277h-635l-74 -327h557l-70 -273h-559l-77 -338h649l-74 -276h-952zM752 1593l315 320l254 -113l-317 -207h-252z" />
<glyph unicode="&#xca;" horiz-adv-x="1241" d="M29 0l362 1491h944l-71 -277h-635l-74 -327h557l-70 -273h-559l-77 -338h649l-74 -276h-952zM479 1597l324 301h291l174 -301h-226l-122 117l-185 -117h-256z" />
<glyph unicode="&#xcb;" horiz-adv-x="1241" d="M29 0l362 1491h944l-71 -277h-635l-74 -327h557l-70 -273h-559l-77 -338h649l-74 -276h-952zM539 1599l63 254h287l-66 -254h-284zM948 1599l66 254h286l-65 -254h-287z" />
<glyph unicode="&#xcc;" horiz-adv-x="675" d="M43 0l365 1491h309l-363 -1491h-311zM246 1800l268 113l170 -320h-211z" />
<glyph unicode="&#xcd;" horiz-adv-x="675" d="M43 0l365 1491h309l-363 -1491h-311zM455 1593l315 320l254 -113l-317 -207h-252z" />
<glyph unicode="&#xce;" horiz-adv-x="675" d="M43 0l365 1491h309l-363 -1491h-311zM180 1597l324 301h291l174 -301h-226l-122 117l-185 -117h-256z" />
<glyph unicode="&#xcf;" horiz-adv-x="675" d="M43 0l365 1491h309l-363 -1491h-311zM242 1599l63 254h287l-66 -254h-284zM651 1599l66 254h287l-66 -254h-287z" />
<glyph unicode="&#xd0;" horiz-adv-x="1476" d="M41 612l72 275h161l148 604h366q319 0 488 -162q151 -151 151 -440q0 -171 -66.5 -347.5t-195.5 -305.5q-119 -119 -280 -177.5t-383 -58.5h-445l150 612h-166zM438 281h103q251 0 393 145q85 85 129.5 209.5t44.5 243.5q0 166 -84 247q-81 84 -260 84h-107l-77 -323h225 l-74 -275h-215z" />
<glyph unicode="&#xd1;" horiz-adv-x="1472" d="M29 0l362 1491h289l317 -956l228 956h303l-363 -1491h-268l-332 989l-231 -989h-305zM586 1638q59 135 120.5 201t157.5 66q34 0 68.5 -7.5t55.5 -15.5t59 -24q64 -37 106 -37q41 0 68.5 23t58.5 73l164 -57q-61 -135 -122.5 -200t-158.5 -65q-76 0 -182 45 q-67 37 -107 37q-41 0 -68 -22.5t-58 -73.5z" />
<glyph unicode="&#xd2;" d="M129 580q0 194 73.5 394.5t203.5 330.5q211 208 512 208q169 0 296.5 -76t195 -212.5t67.5 -313.5q0 -194 -73.5 -393.5t-205.5 -331.5q-211 -211 -510 -211q-255 0 -407 167.5t-152 437.5zM446 602q0 -160 73 -250t208 -90q128 0 238 107q87 88 139.5 239t52.5 281 q0 160 -71.5 250t-206.5 90q-131 0 -238 -107q-87 -89 -141 -240t-54 -280zM659 1817l269 112l170 -319h-211z" />
<glyph unicode="&#xd3;" d="M129 580q0 194 73.5 394.5t203.5 330.5q211 208 512 208q169 0 296.5 -76t195 -212.5t67.5 -313.5q0 -194 -73.5 -393.5t-205.5 -331.5q-211 -211 -510 -211q-255 0 -407 167.5t-152 437.5zM446 602q0 -160 73 -250t208 -90q128 0 238 107q87 88 139.5 239t52.5 281 q0 160 -71.5 250t-206.5 90q-131 0 -238 -107q-87 -89 -141 -240t-54 -280zM852 1610l315 319l254 -112l-317 -207h-252z" />
<glyph unicode="&#xd4;" d="M129 580q0 194 73.5 394.5t203.5 330.5q211 208 512 208q169 0 296.5 -76t195 -212.5t67.5 -313.5q0 -194 -73.5 -393.5t-205.5 -331.5q-211 -211 -510 -211q-255 0 -407 167.5t-152 437.5zM446 602q0 -160 73 -250t208 -90q128 0 238 107q87 88 139.5 239t52.5 281 q0 160 -71.5 250t-206.5 90q-131 0 -238 -107q-87 -89 -141 -240t-54 -280zM594 1614l324 301h290l174 -301h-225l-123 117l-184 -117h-256z" />
<glyph unicode="&#xd5;" d="M129 580q0 194 73.5 394.5t203.5 330.5q211 208 512 208q169 0 296.5 -76t195 -212.5t67.5 -313.5q0 -194 -73.5 -393.5t-205.5 -331.5q-211 -211 -510 -211q-255 0 -407 167.5t-152 437.5zM446 602q0 -160 73 -250t208 -90q128 0 238 107q87 88 139.5 239t52.5 281 q0 160 -71.5 250t-206.5 90q-131 0 -238 -107q-87 -89 -141 -240t-54 -280zM604 1655q59 134 121 200t158 66q34 0 68 -7.5t54.5 -15t59.5 -24.5q64 -37 106 -37q41 0 68.5 23t58.5 73l164 -57q-61 -135 -122 -199.5t-158 -64.5q-77 0 -183 45q-67 37 -106 37 q-41 0 -68.5 -23t-58.5 -74z" />
<glyph unicode="&#xd6;" d="M129 580q0 194 73.5 394.5t203.5 330.5q211 208 512 208q169 0 296.5 -76t195 -212.5t67.5 -313.5q0 -194 -73.5 -393.5t-205.5 -331.5q-211 -211 -510 -211q-255 0 -407 167.5t-152 437.5zM446 602q0 -160 73 -250t208 -90q128 0 238 107q87 88 139.5 239t52.5 281 q0 160 -71.5 250t-206.5 90q-131 0 -238 -107q-87 -89 -141 -240t-54 -280zM655 1616l64 254h287l-66 -254h-285zM1065 1616l65 254h287l-65 -254h-287z" />
<glyph unicode="&#xd7;" horiz-adv-x="1214" d="M119 483l350 281l-205 276l230 183l194 -285l348 287l158 -209l-350 -279l205 -274l-230 -184l-196 280l-344 -285z" />
<glyph unicode="&#xd8;" d="M-51 -10l254 264q-74 139 -74 326q0 194 73.5 394.5t203.5 330.5q211 208 512 208q210 0 354 -116l98 106h287l-256 -268q76 -140 76 -324q0 -194 -73.5 -393.5t-205.5 -331.5q-211 -211 -510 -211q-212 0 -356 119l-96 -104h-287zM436 596q0 -52 6 -98l621 688 q-72 57 -182 57q-136 0 -246 -110q-87 -89 -143 -243.5t-56 -293.5zM543 305q69 -57 182 -57q134 0 246 112q87 87 142.5 242t55.5 295q0 57 -8 98z" />
<glyph unicode="&#xd9;" horiz-adv-x="1435" d="M150 424q0 94 36 229l201 838h309l-209 -862q-22 -93 -22 -162q0 -96 53.5 -150.5t145.5 -54.5q114 0 184 70q82 82 123 246l219 913h309l-231 -956q-70 -274 -201 -402q-156 -156 -436 -156q-221 0 -351 116.5t-130 330.5zM612 1800l269 113l170 -320h-211z" />
<glyph unicode="&#xda;" horiz-adv-x="1435" d="M150 424q0 94 36 229l201 838h309l-209 -862q-22 -93 -22 -162q0 -96 53.5 -150.5t145.5 -54.5q114 0 184 70q82 82 123 246l219 913h309l-231 -956q-70 -274 -201 -402q-156 -156 -436 -156q-221 0 -351 116.5t-130 330.5zM821 1593l316 320l254 -113l-318 -207h-252z " />
<glyph unicode="&#xdb;" horiz-adv-x="1435" d="M150 424q0 94 36 229l201 838h309l-209 -862q-22 -93 -22 -162q0 -96 53.5 -150.5t145.5 -54.5q114 0 184 70q82 82 123 246l219 913h309l-231 -956q-70 -274 -201 -402q-156 -156 -436 -156q-221 0 -351 116.5t-130 330.5zM547 1597l323 301h291l174 -301h-225l-123 117 l-184 -117h-256z" />
<glyph unicode="&#xdc;" horiz-adv-x="1435" d="M150 424q0 94 36 229l201 838h309l-209 -862q-22 -93 -22 -162q0 -96 53.5 -150.5t145.5 -54.5q114 0 184 70q82 82 123 246l219 913h309l-231 -956q-70 -274 -201 -402q-156 -156 -436 -156q-221 0 -351 116.5t-130 330.5zM608 1599l64 254h286l-65 -254h-285z M1018 1599l65 254h287l-65 -254h-287z" />
<glyph unicode="&#xdd;" horiz-adv-x="1216" d="M207 1491h342l119 -610l409 610h369l-690 -913l-144 -578h-309l146 602zM696 1593l316 320l254 -113l-318 -207h-252z" />
<glyph unicode="&#xde;" horiz-adv-x="1304" d="M29 0l362 1491h311l-53 -219h60q155 0 256 -31t174 -106q114 -111 114 -308q0 -244 -159 -403q-89 -89 -221.5 -137.5t-290.5 -48.5h-187l-57 -238h-309zM465 510h131q163 0 254 88q78 78 78 207q0 81 -47 131q-33 33 -76.5 46t-110.5 13h-116z" />
<glyph unicode="&#xdf;" horiz-adv-x="1198" d="M0 0l268 1104q51 207 164 323q60 58 145 90.5t185 32.5q192 0 302 -106t110 -273q0 -148 -78 -264t-217 -162q84 -44 135 -117.5t51 -172.5q0 -101 -41 -190t-119 -156t-204.5 -98.5t-284.5 -14.5l63 235q143 -7 221 61.5t78 176.5q0 71 -48 121.5t-152 68.5l51 197 q124 27 191 105.5t67 179.5q0 73 -38.5 112t-94.5 39q-72 0 -117 -50t-70 -155l-264 -1087h-303z" />
<glyph unicode="&#xe0;" horiz-adv-x="1126" d="M20 283q0 182 117 299q120 123 330 123q122 0 256 -52l4 21q14 65 14 106q0 119 -170 119q-117 0 -249 -61l-68 243q169 78 371 78t308.5 -81.5t106.5 -229.5q0 -86 -32 -221l-150 -627h-297l29 123q-122 -141 -281 -141q-134 0 -211.5 84t-77.5 217zM324 313 q0 -56 31.5 -90.5t86.5 -34.5q81 0 140.5 65.5t81.5 156.5l18 77q-89 33 -158 33q-91 0 -143 -55q-57 -54 -57 -152zM403 1505l263 117l147 -365h-209z" />
<glyph unicode="&#xe1;" horiz-adv-x="1126" d="M20 283q0 182 117 299q120 123 330 123q122 0 256 -52l4 21q14 65 14 106q0 119 -170 119q-117 0 -249 -61l-68 243q169 78 371 78t308.5 -81.5t106.5 -229.5q0 -86 -32 -221l-150 -627h-297l29 123q-122 -141 -281 -141q-134 0 -211.5 84t-77.5 217zM324 313 q0 -56 31.5 -90.5t86.5 -34.5q81 0 140.5 65.5t81.5 156.5l18 77q-89 33 -158 33q-91 0 -143 -55q-57 -54 -57 -152zM596 1257l313 365l250 -117l-315 -248h-248z" />
<glyph unicode="&#xe2;" horiz-adv-x="1126" d="M20 283q0 182 117 299q120 123 330 123q122 0 256 -52l4 21q14 65 14 106q0 119 -170 119q-117 0 -249 -61l-68 243q169 78 371 78t308.5 -81.5t106.5 -229.5q0 -86 -32 -221l-150 -627h-297l29 123q-122 -141 -281 -141q-134 0 -211.5 84t-77.5 217zM324 313 q0 -56 31.5 -90.5t86.5 -34.5q81 0 140.5 65.5t81.5 156.5l18 77q-89 33 -158 33q-91 0 -143 -55q-57 -54 -57 -152zM330 1260l317 329h289l154 -329h-220l-114 145l-183 -145h-243z" />
<glyph unicode="&#xe3;" horiz-adv-x="1126" d="M20 283q0 182 117 299q120 123 330 123q122 0 256 -52l4 21q14 65 14 106q0 119 -170 119q-117 0 -249 -61l-68 243q169 78 371 78t308.5 -81.5t106.5 -229.5q0 -86 -32 -221l-150 -627h-297l29 123q-122 -141 -281 -141q-134 0 -211.5 84t-77.5 217zM324 313 q0 -56 31.5 -90.5t86.5 -34.5q81 0 140.5 65.5t81.5 156.5l18 77q-89 33 -158 33q-91 0 -143 -55q-57 -54 -57 -152zM336 1298q57 137 118.5 205t157.5 68q70 0 170 -49q59 -39 101 -39q38 0 65 24.5t56 75.5l163 -55q-60 -137 -120.5 -204t-155.5 -67q-79 0 -170 50 q-64 39 -98 39q-40 0 -68 -25.5t-55 -77.5z" />
<glyph unicode="&#xe4;" horiz-adv-x="1126" d="M20 283q0 182 117 299q120 123 330 123q122 0 256 -52l4 21q14 65 14 106q0 119 -170 119q-117 0 -249 -61l-68 243q169 78 371 78t308.5 -81.5t106.5 -229.5q0 -86 -32 -221l-150 -627h-297l29 123q-122 -141 -281 -141q-134 0 -211.5 84t-77.5 217zM324 313 q0 -56 31.5 -90.5t86.5 -34.5q81 0 140.5 65.5t81.5 156.5l18 77q-89 33 -158 33q-91 0 -143 -55q-57 -54 -57 -152zM379 1264l70 268h284l-69 -268h-285zM782 1264l70 268h285l-70 -268h-285z" />
<glyph unicode="&#xe5;" horiz-adv-x="1126" d="M20 283q0 182 117 299q120 123 330 123q122 0 256 -52l4 21q14 65 14 106q0 119 -170 119q-117 0 -249 -61l-68 243q169 78 371 78t308.5 -81.5t106.5 -229.5q0 -86 -32 -221l-150 -627h-297l29 123q-122 -141 -281 -141q-134 0 -211.5 84t-77.5 217zM324 313 q0 -56 31.5 -90.5t86.5 -34.5q81 0 140.5 65.5t81.5 156.5l18 77q-89 33 -158 33q-91 0 -143 -55q-57 -54 -57 -152zM545 1456q0 104 71.5 183t180.5 79q94 0 152.5 -58t58.5 -144q0 -106 -70 -183.5t-180 -77.5q-95 0 -154 57.5t-59 143.5zM659 1466q0 -51 30 -81.5 t75 -30.5q58 0 93.5 46.5t35.5 104.5q0 50 -28 80.5t-72 30.5q-58 0 -96 -47t-38 -103z" />
<glyph unicode="&#xe6;" horiz-adv-x="1755" d="M20 283q0 182 117 299q120 123 330 123q122 0 256 -52l4 21q14 69 14 106q0 119 -170 119q-117 0 -249 -61l-68 243q169 78 373 78q238 0 321 -153q156 163 352 163q170 0 279 -119.5t109 -306.5q0 -131 -54 -278h-667v-6q3 -111 53.5 -173.5t142.5 -62.5q61 0 110.5 20 t112.5 64l130 -205q-159 -122 -367 -122q-274 0 -379 219q-169 -217 -428 -217q-160 0 -241 81t-81 220zM324 313q0 -58 34.5 -91.5t102.5 -33.5q62 0 135 45.5t125 114.5q-6 59 -6 123q-37 20 -90 34.5t-95 14.5q-97 0 -149 -55q-57 -54 -57 -152zM993 657h402 q12 47 12 101q0 74 -38 120t-109 46q-85 0 -160 -72q-67 -70 -107 -195z" />
<glyph unicode="&#xe7;" horiz-adv-x="1030" d="M88 459q0 155 55.5 298.5t153.5 241.5q173 166 387 166q98 0 173 -26.5t123 -68.5t91 -107l-223 -179q-39 63 -78 93t-92 30q-81 0 -150 -69q-63 -63 -101 -168t-38 -205q0 -109 45.5 -168t118.5 -59q49 0 88.5 20.5t97.5 67.5l152 -195q-150 -143 -336 -151h-6 l-197 -318l-229 107l225 245q-124 50 -192 165t-68 280z" />
<glyph unicode="&#xe8;" horiz-adv-x="1159" d="M88 475q0 149 56.5 290t156.5 241q166 163 385 163q183 0 294.5 -118.5t111.5 -307.5q0 -133 -56 -278h-665v-10q5 -110 55 -171t141 -61q61 0 111 20t113 64l129 -205q-159 -122 -367 -122q-220 0 -342.5 132.5t-122.5 362.5zM397 657h402q12 47 12 101q0 74 -38 120 t-109 46q-85 0 -160 -72q-70 -70 -107 -195zM438 1505l262 117l148 -365h-209z" />
<glyph unicode="&#xe9;" horiz-adv-x="1159" d="M88 475q0 149 56.5 290t156.5 241q166 163 385 163q183 0 294.5 -118.5t111.5 -307.5q0 -133 -56 -278h-665v-10q5 -110 55 -171t141 -61q61 0 111 20t113 64l129 -205q-159 -122 -367 -122q-220 0 -342.5 132.5t-122.5 362.5zM397 657h402q12 47 12 101q0 74 -38 120 t-109 46q-85 0 -160 -72q-70 -70 -107 -195zM629 1257l313 365l250 -117l-315 -248h-248z" />
<glyph unicode="&#xea;" horiz-adv-x="1159" d="M88 475q0 149 56.5 290t156.5 241q166 163 385 163q183 0 294.5 -118.5t111.5 -307.5q0 -133 -56 -278h-665v-10q5 -110 55 -171t141 -61q61 0 111 20t113 64l129 -205q-159 -122 -367 -122q-220 0 -342.5 132.5t-122.5 362.5zM365 1260l317 329h289l153 -329h-219 l-114 145l-183 -145h-243zM397 657h402q12 47 12 101q0 74 -38 120t-109 46q-85 0 -160 -72q-70 -70 -107 -195z" />
<glyph unicode="&#xeb;" horiz-adv-x="1159" d="M88 475q0 149 56.5 290t156.5 241q166 163 385 163q183 0 294.5 -118.5t111.5 -307.5q0 -133 -56 -278h-665v-10q5 -110 55 -171t141 -61q61 0 111 20t113 64l129 -205q-159 -122 -367 -122q-220 0 -342.5 132.5t-122.5 362.5zM397 657h402q12 47 12 101q0 74 -38 120 t-109 46q-85 0 -160 -72q-70 -70 -107 -195zM412 1264l69 268h285l-70 -268h-284zM815 1264l70 268h284l-69 -268h-285z" />
<glyph unicode="&#xec;" horiz-adv-x="610" d="M12 0l279 1149h307l-281 -1149h-305zM156 1503l262 117l147 -365h-209z" />
<glyph unicode="&#xed;" horiz-adv-x="610" d="M12 0l279 1149h307l-281 -1149h-305zM350 1255l314 365l249 -117l-315 -248h-248z" />
<glyph unicode="&#xee;" horiz-adv-x="610" d="M12 0l279 1149h307l-281 -1149h-305zM84 1257l317 330h289l154 -330h-219l-115 146l-182 -146h-244z" />
<glyph unicode="&#xef;" horiz-adv-x="610" d="M12 0l279 1149h307l-281 -1149h-305zM131 1262l70 268h284l-69 -268h-285zM535 1262l69 268h285l-70 -268h-284z" />
<glyph unicode="&#xf0;" horiz-adv-x="1241" d="M92 455q0 163 55.5 311.5t149.5 241.5q140 143 324 143q69 0 120 -23t103 -79q-34 102 -115 217l-233 -60l-47 156l169 43q-75 86 -122 133h368l47 -59l230 59l47 -154l-180 -47q143 -240 143 -522q0 -205 -66 -386.5t-178 -293.5q-74 -74 -171.5 -116t-205.5 -42 q-199 0 -318.5 125.5t-119.5 352.5zM385 463q0 -108 43.5 -169t124.5 -61q80 0 149 66q61 64 99.5 172.5t38.5 214.5q0 108 -44.5 167.5t-121.5 59.5q-87 0 -158 -71q-59 -59 -95 -165t-36 -214z" />
<glyph unicode="&#xf1;" horiz-adv-x="1183" d="M0 0l281 1149h305l-27 -111q135 131 272 131q127 0 203 -78.5t76 -216.5q0 -70 -37 -229l-155 -645h-306l158 647q18 80 18 125q0 119 -118 119q-74 0 -125.5 -57t-71.5 -148l-168 -686h-305zM356 1298q57 137 119 205t158 68q70 0 170 -49q59 -39 100 -39q38 0 65 24.5 t56 75.5l164 -55q-29 -66 -54.5 -110.5t-58.5 -83.5t-73.5 -58t-90.5 -19q-79 0 -170 50q-64 39 -98 39q-40 0 -68 -25.5t-55 -77.5z" />
<glyph unicode="&#xf2;" horiz-adv-x="1228" d="M90 473q0 152 55 294t154 241q164 161 377 161q214 0 339.5 -136.5t125.5 -358.5q0 -152 -55.5 -294.5t-153.5 -240.5q-159 -162 -377 -162q-214 0 -339.5 136.5t-125.5 359.5zM387 481q0 -119 48 -181t132 -62q80 0 146 63q61 63 97 167t36 196q0 119 -48.5 181 t-133.5 62q-81 0 -144 -63q-62 -61 -97.5 -164.5t-35.5 -198.5zM461 1505l262 117l147 -365h-208z" />
<glyph unicode="&#xf3;" horiz-adv-x="1228" d="M90 473q0 152 55 294t154 241q164 161 377 161q214 0 339.5 -136.5t125.5 -358.5q0 -152 -55.5 -294.5t-153.5 -240.5q-159 -162 -377 -162q-214 0 -339.5 136.5t-125.5 359.5zM387 481q0 -119 48 -181t132 -62q80 0 146 63q61 63 97 167t36 196q0 119 -48.5 181 t-133.5 62q-81 0 -144 -63q-62 -61 -97.5 -164.5t-35.5 -198.5zM633 1257l313 365l250 -117l-315 -248h-248z" />
<glyph unicode="&#xf4;" horiz-adv-x="1228" d="M90 473q0 152 55 294t154 241q164 161 377 161q214 0 339.5 -136.5t125.5 -358.5q0 -152 -55.5 -294.5t-153.5 -240.5q-159 -162 -377 -162q-214 0 -339.5 136.5t-125.5 359.5zM385 1260l317 329h289l154 -329h-219l-115 145l-182 -145h-244zM387 481q0 -119 48 -181 t132 -62q80 0 146 63q61 63 97 167t36 196q0 119 -48.5 181t-133.5 62q-81 0 -144 -63q-62 -61 -97.5 -164.5t-35.5 -198.5z" />
<glyph unicode="&#xf5;" horiz-adv-x="1228" d="M90 473q0 152 55 294t154 241q164 161 377 161q214 0 339.5 -136.5t125.5 -358.5q0 -152 -55.5 -294.5t-153.5 -240.5q-159 -162 -377 -162q-214 0 -339.5 136.5t-125.5 359.5zM387 481q0 -119 48 -181t132 -62q80 0 146 63q61 63 97 167t36 196q0 119 -48.5 181 t-133.5 62q-81 0 -144 -63q-62 -61 -97.5 -164.5t-35.5 -198.5zM391 1298q57 137 119 205t158 68q70 0 170 -49q59 -39 100 -39q38 0 65 24.5t56 75.5l164 -55q-29 -66 -54.5 -110.5t-58.5 -83.5t-73.5 -58t-90.5 -19q-79 0 -170 50q-64 39 -98 39q-40 0 -68 -25.5 t-55 -77.5z" />
<glyph unicode="&#xf6;" horiz-adv-x="1228" d="M90 473q0 152 55 294t154 241q164 161 377 161q214 0 339.5 -136.5t125.5 -358.5q0 -152 -55.5 -294.5t-153.5 -240.5q-159 -162 -377 -162q-214 0 -339.5 136.5t-125.5 359.5zM387 481q0 -119 48 -181t132 -62q80 0 146 63q61 63 97 167t36 196q0 119 -48.5 181 t-133.5 62q-81 0 -144 -63q-62 -61 -97.5 -164.5t-35.5 -198.5zM432 1264l70 268h284l-69 -268h-285zM836 1264l69 268h285l-70 -268h-284z" />
<glyph unicode="&#xf7;" horiz-adv-x="1214" d="M145 621l68 258h942l-70 -258h-940zM358 195l74 286h305l-73 -286h-306zM563 1018l74 289h305l-74 -289h-305z" />
<glyph unicode="&#xf8;" horiz-adv-x="1228" d="M-72 -12l219 223q-57 114 -57 262q0 152 55 294t154 241q164 161 377 161q172 0 293 -94l75 80h259l-220 -221q58 -116 58 -260q0 -152 -55.5 -294.5t-153.5 -240.5q-159 -162 -377 -162q-171 0 -291 93l-78 -82h-258zM377 481q0 -33 2 -47l399 451q-44 35 -106 35 q-84 0 -160 -72q-64 -63 -99.5 -166.5t-35.5 -200.5zM455 260q42 -33 104 -33q90 0 162 72q63 63 98 165.5t35 199.5q0 7 -1 22.5t-1 22.5z" />
<glyph unicode="&#xf9;" horiz-adv-x="1191" d="M84 274q0 71 37 230l155 645h306l-158 -647q-18 -76 -18 -125q0 -119 118 -119q73 0 125.5 57t71.5 148l168 686h305l-281 -1149h-305l27 111q-133 -129 -273 -129q-128 0 -203 77t-75 215zM444 1501l263 117l147 -365h-209z" />
<glyph unicode="&#xfa;" horiz-adv-x="1191" d="M84 274q0 71 37 230l155 645h306l-158 -647q-18 -76 -18 -125q0 -119 118 -119q73 0 125.5 57t71.5 148l168 686h305l-281 -1149h-305l27 111q-133 -129 -273 -129q-128 0 -203 77t-75 215zM635 1253l313 365l250 -117l-315 -248h-248z" />
<glyph unicode="&#xfb;" horiz-adv-x="1191" d="M84 274q0 71 37 230l155 645h306l-158 -647q-18 -76 -18 -125q0 -119 118 -119q73 0 125.5 57t71.5 148l168 686h305l-281 -1149h-305l27 111q-133 -129 -273 -129q-128 0 -203 77t-75 215zM369 1255l317 330h289l153 -330h-219l-114 146l-183 -146h-243z" />
<glyph unicode="&#xfc;" horiz-adv-x="1191" d="M84 274q0 71 37 230l155 645h306l-158 -647q-18 -76 -18 -125q0 -119 118 -119q73 0 125.5 57t71.5 148l168 686h305l-281 -1149h-305l27 111q-133 -129 -273 -129q-128 0 -203 77t-75 215zM414 1260l69 268h285l-70 -268h-284zM817 1260l70 268h284l-69 -268h-285z" />
<glyph unicode="&#xfd;" horiz-adv-x="1134" d="M-35 -227l146 202q56 -47 104 -47q49 0 82 62l-90 1159h311l10 -787l359 787h325l-614 -1167q-86 -165 -173 -236.5t-210 -71.5q-72 0 -137.5 26.5t-112.5 72.5zM598 1253l313 365l250 -117l-315 -248h-248z" />
<glyph unicode="&#xfe;" horiz-adv-x="1271" d="M-78 -319l451 1857h307l-123 -510q69 71 134.5 106t144.5 35q148 0 249 -122.5t101 -339.5q0 -165 -57 -317.5t-158 -256.5q-154 -151 -342 -151q-191 0 -291 176l-113 -477h-303zM403 467q0 -105 50 -167t129 -62q87 0 153 69q63 63 100 163t37 212q0 108 -45.5 169.5 t-130.5 61.5q-86 0 -157 -71q-63 -63 -99.5 -166.5t-36.5 -208.5z" />
<glyph unicode="&#xff;" horiz-adv-x="1134" d="M-35 -227l146 202q56 -47 104 -47q49 0 82 62l-90 1159h311l10 -787l359 787h325l-614 -1167q-86 -165 -173 -236.5t-210 -71.5q-72 0 -137.5 26.5t-112.5 72.5zM383 1260l70 268h284l-69 -268h-285zM786 1260l70 268h285l-70 -268h-285z" />
<glyph unicode="&#x152;" horiz-adv-x="1941" d="M133 602q0 171 66.5 347.5t195.5 305.5q119 119 280 177.5t382 58.5h989l-72 -277h-602l-74 -327h525l-72 -273h-524l-78 -338h614l-73 -276h-918q-179 0 -295.5 44t-200.5 128q-69 69 -106 181t-37 249zM453 612q0 -165 82 -247q84 -84 260 -84h47l219 929h-43 q-248 0 -393 -145q-83 -85 -127.5 -210t-44.5 -243z" />
<glyph unicode="&#x153;" horiz-adv-x="1910" d="M90 473q0 151 55.5 293t153.5 242q164 161 377 161q257 0 368 -211q73 96 177 153.5t227 57.5q179 0 288 -118.5t109 -307.5q0 -129 -55 -278h-666v-8q3 -110 54 -172t143 -62q61 0 110.5 20t110.5 64l129 -205q-156 -122 -358 -122q-270 0 -379 198q-70 -90 -169 -145.5 t-208 -55.5q-216 0 -341.5 136.5t-125.5 359.5zM387 481q0 -119 48 -181t132 -62q80 0 146 63q61 63 97 167t36 196q0 119 -48.5 181t-133.5 62q-81 0 -144 -63q-62 -61 -97.5 -164.5t-35.5 -198.5zM1151 657h399q15 46 15 101q0 73 -38.5 119.5t-109.5 46.5q-88 0 -160 -72 q-69 -69 -106 -195z" />
<glyph unicode="&#x178;" horiz-adv-x="1216" d="M207 1491h342l119 -610l409 610h369l-690 -913l-144 -578h-309l146 602zM483 1599l64 254h287l-66 -254h-285zM893 1599l65 254h287l-65 -254h-287z" />
<glyph unicode="&#x2c6;" horiz-adv-x="1101" d="M338 1257l317 330h289l154 -330h-219l-115 146l-182 -146h-244z" />
<glyph unicode="&#x2dc;" horiz-adv-x="1101" d="M338 1296q57 137 118.5 205t157.5 68q70 0 170 -49q59 -39 101 -39q38 0 65 24.5t56 75.5l163 -55q-60 -137 -120.5 -204t-155.5 -67q-79 0 -170 50q-62 38 -98 38q-40 0 -68 -25t-55 -77z" />
<glyph unicode="&#x2000;" horiz-adv-x="966" />
<glyph unicode="&#x2001;" horiz-adv-x="1933" />
<glyph unicode="&#x2002;" horiz-adv-x="966" />
<glyph unicode="&#x2003;" horiz-adv-x="1933" />
<glyph unicode="&#x2004;" horiz-adv-x="644" />
<glyph unicode="&#x2005;" horiz-adv-x="483" />
<glyph unicode="&#x2006;" horiz-adv-x="322" />
<glyph unicode="&#x2007;" horiz-adv-x="322" />
<glyph unicode="&#x2008;" horiz-adv-x="241" />
<glyph unicode="&#x2009;" horiz-adv-x="386" />
<glyph unicode="&#x200a;" horiz-adv-x="107" />
<glyph unicode="&#x2010;" horiz-adv-x="823" d="M94 514l76 289h598l-74 -289h-600z" />
<glyph unicode="&#x2011;" horiz-adv-x="823" d="M94 514l76 289h598l-74 -289h-600z" />
<glyph unicode="&#x2012;" horiz-adv-x="823" d="M94 514l76 289h598l-74 -289h-600z" />
<glyph unicode="&#x2013;" horiz-adv-x="1081" d="M94 516l74 285h860l-72 -285h-862z" />
<glyph unicode="&#x2014;" horiz-adv-x="1746" d="M94 516l74 285h1524l-74 -285h-1524z" />
<glyph unicode="&#x2018;" horiz-adv-x="651" d="M186 838l72 278q50 198 159.5 287.5t295.5 97.5l22 -131q-124 -13 -185.5 -62.5t-76.5 -140.5h127l-82 -329h-332z" />
<glyph unicode="&#x2019;" horiz-adv-x="651" d="M158 958q124 12 186 62t76 141h-127l82 330h332l-72 -279q-50 -197 -158.5 -286.5t-294.5 -98.5z" />
<glyph unicode="&#x201a;" horiz-adv-x="651" d="M-113 -205q124 13 186.5 63.5t76.5 141.5h-130l84 330h330l-69 -279q-48 -198 -158.5 -288.5t-296.5 -98.5z" />
<glyph unicode="&#x201c;" horiz-adv-x="1150" d="M190 836l70 278q50 197 160 287t295 98l22 -131q-124 -13 -185 -62.5t-75 -140.5h127l-84 -329h-330zM688 836l72 278q50 198 158.5 287.5t293.5 97.5l25 -131q-124 -13 -185.5 -62.5t-76.5 -140.5h127l-82 -329h-332z" />
<glyph unicode="&#x201d;" horiz-adv-x="1150" d="M160 958q124 12 186 62t76 141h-127l84 330h330l-70 -279q-50 -197 -160 -286.5t-297 -98.5zM659 958q123 12 185.5 61.5t77.5 141.5h-127l82 330h331l-71 -279q-50 -197 -159 -286.5t-296 -98.5z" />
<glyph unicode="&#x201e;" horiz-adv-x="1148" d="M-113 -205q124 13 186.5 63.5t76.5 141.5h-130l84 330h330l-69 -279q-48 -198 -158.5 -288.5t-296.5 -98.5zM385 -205q124 13 186 63.5t76 141.5h-129l86 330h328l-68 -279q-50 -198 -160 -288.5t-296 -98.5z" />
<glyph unicode="&#x2022;" horiz-adv-x="993" d="M272 670q0 87 32 167.5t89 137.5q88 88 203 88q103 0 163 -61.5t60 -165.5q0 -87 -33 -168t-90 -138q-86 -86 -202 -86q-105 0 -163.5 61t-58.5 165z" />
<glyph unicode="&#x2026;" horiz-adv-x="1730" d="M20 0l82 324h324l-82 -324h-324zM567 0l80 324h324l-82 -324h-322zM1110 0l82 324h324l-82 -324h-324z" />
<glyph unicode="&#x202f;" horiz-adv-x="386" />
<glyph unicode="&#x2039;" horiz-adv-x="761" d="M106 543l5 16l485 488l152 -150l-324 -373l141 -356l-223 -96z" />
<glyph unicode="&#x203a;" horiz-adv-x="761" d="M8 221l324 373l-142 356l224 97l235 -472l-4 -16l-485 -487z" />
<glyph unicode="&#x205f;" horiz-adv-x="483" />
<glyph unicode="&#x20ac;" horiz-adv-x="1355" d="M53 471l53 201h146q9 74 27 155h-138l49 199h142q70 187 192 309q89 89 194.5 132.5t244.5 43.5q160 0 276 -77t176 -207l-260 -148q-46 80 -96 117t-121 37q-104 0 -176 -72q-62 -62 -92 -135h346l-51 -199h-359q-21 -68 -35 -155h357l-51 -201h-316q10 -105 64 -159 t137 -54q61 0 110 25t111 84l205 -189q-173 -198 -436 -198q-222 0 -356.5 130.5t-153.5 360.5h-189z" />
<glyph unicode="&#x2122;" horiz-adv-x="1331" d="M225 1364l35 127h469l-33 -127h-166l-124 -533h-140l125 533h-166zM690 831l160 660h147l68 -268l195 268h157l-157 -660h-134l105 453l-211 -291h-12l-78 291l-105 -453h-135z" />
<glyph unicode="&#x25fc;" horiz-adv-x="1146" d="M0 0v1147h1147v-1147h-1147z" />
<glyph unicode="&#xfb01;" horiz-adv-x="1374" d="M47 0l215 887h-121l68 262h119l10 45q45 181 127 260q106 100 295 100q94 0 180 -24l-66 -252q-46 16 -104 16q-56 0 -85.5 -26.5t-43.5 -79.5l-10 -39h213l-70 -262h-205l-215 -887h-307zM774 0l281 1149h305l-281 -1149h-305zM1075 1270l74 280h317l-73 -280h-318z" />
<glyph unicode="&#xfb02;" horiz-adv-x="1374" d="M47 0l215 887h-121l68 262h119l10 45q45 181 127 260q106 100 295 100q94 0 180 -24l-66 -252q-46 16 -104 16q-56 0 -85.5 -26.5t-43.5 -79.5l-10 -39h213l-70 -262h-205l-215 -887h-307zM774 0l377 1538h303l-375 -1538h-305z" />
<glyph unicode="&#xfb03;" horiz-adv-x="2138" d="M47 0l215 887h-121l68 262h119l10 45q45 181 127 260q106 100 295 100q94 0 180 -24l-66 -252q-46 16 -104 16q-56 0 -85.5 -26.5t-43.5 -79.5l-10 -39h213l-70 -262h-205l-215 -887h-307zM811 0l215 887h-121l68 262h119l10 45q45 181 127 260q106 100 295 100 q94 0 180 -24l-66 -252q-46 16 -104 16q-56 0 -85.5 -26.5t-43.5 -79.5l-10 -39h213l-70 -262h-205l-215 -887h-307zM1542 0l281 1149h305l-281 -1149h-305zM1843 1270l74 280h317l-73 -280h-318z" />
<glyph unicode="&#xfb04;" horiz-adv-x="2138" d="M47 0l215 887h-121l68 262h119l10 45q45 181 127 260q106 100 295 100q94 0 180 -24l-66 -252q-46 16 -104 16q-56 0 -85.5 -26.5t-43.5 -79.5l-10 -39h213l-70 -262h-205l-215 -887h-307zM811 0l215 887h-121l68 262h119l10 45q45 181 127 260q106 100 295 100 q94 0 180 -24l-66 -252q-46 16 -104 16q-56 0 -85.5 -26.5t-43.5 -79.5l-10 -39h213l-70 -262h-205l-215 -887h-307zM1542 0l377 1538h303l-375 -1538h-305z" />
</font>
</defs>
</svg>
