<?xml version="1.0" standalone="no"?>
<!DOCTYPE svg PUBLIC "-//W3C//DTD SVG 1.1//EN" "http://www.w3.org/Graphics/SVG/1.1/DTD/svg11.dtd" >
<svg xmlns="http://www.w3.org/2000/svg">
<metadata></metadata>
<defs>
<font id="gotham_narrow_ssmMdIt" horiz-adv-x="1531" >
<font-face units-per-em="2048" ascent="1638" descent="-410" />
<missing-glyph horiz-adv-x="524" />
<glyph horiz-adv-x="0" />
<glyph horiz-adv-x="682" />
<glyph unicode=" "  horiz-adv-x="524" />
<glyph unicode="&#x09;" horiz-adv-x="524" />
<glyph unicode="&#xa0;" horiz-adv-x="524" />
<glyph unicode="!" horiz-adv-x="634" d="M45 0l70 283h270l-72 -283h-268zM227 467l156 944l18 80h285l-18 -80l-308 -944h-133z" />
<glyph unicode="&#x22;" horiz-adv-x="956" d="M217 868l154 623h274l-4 -12l-299 -611h-125zM639 868l154 623h272l-2 -12l-301 -611h-123z" />
<glyph unicode="#" horiz-adv-x="1308" d="M45 344l51 209h185l116 389h-190l53 209h199l104 340h211l-102 -340h291l104 340h209l-102 -340h174l-52 -209h-186l-119 -389h195l-53 -209h-201l-107 -344h-211l107 344h-293l-104 -344h-209l102 344h-172zM492 553h292l117 389h-293z" />
<glyph unicode="$" horiz-adv-x="1196" d="M-4 244l178 155q118 -135 262 -176l115 443q-101 53 -165 106t-101 124.5t-37 160.5q0 190 139.5 313t360.5 123h18l35 127h172l-41 -152q178 -50 303 -178l-168 -166q-94 91 -199 131l-110 -413q149 -78 226 -172.5t77 -216.5q0 -203 -145 -330t-371 -127h-6l-58 -205 h-172l62 223q-114 26 -210.5 85.5t-164.5 144.5zM500 1090q0 -50 26 -92t95 -85l96 369q-99 -3 -159 -59t-58 -133zM590 209q99 7 160 68.5t59 148.5q0 49 -26.5 88.5t-90.5 79.5z" />
<glyph unicode="%" horiz-adv-x="1644" d="M127 0l686 786l602 705h191l-684 -786l-603 -705h-192zM190 1067q0 97 35.5 187.5t98.5 150.5q100 100 235 100q128 0 206.5 -84.5t78.5 -228.5q0 -95 -35.5 -184.5t-97.5 -151.5q-102 -102 -238 -102q-127 0 -205 85t-78 228zM356 1073q0 -81 34 -124.5t93 -43.5t107 45 q39 41 62.5 106.5t23.5 133.5q0 78 -34 123t-91 45q-56 0 -107 -47q-40 -39 -64 -105t-24 -133zM891 299q0 95 34.5 184.5t94.5 151.5q110 102 240 102q127 0 203.5 -84.5t76.5 -228.5q0 -97 -34.5 -187.5t-94.5 -150.5q-103 -100 -237 -100q-128 0 -205.5 84t-77.5 229z M1057 301q0 -78 34 -123t93 -45q51 0 106 47q38 39 61 105t23 133q0 81 -33.5 124.5t-91.5 43.5t-106 -45q-39 -41 -62.5 -106.5t-23.5 -133.5z" />
<glyph unicode="&#x26;" horiz-adv-x="1331" d="M61 356q0 330 398 488q-80 163 -80 286q0 160 111 271.5t290 111.5q159 0 257 -93.5t98 -229.5q0 -139 -90 -242t-297 -178l182 -299q94 126 160 256l161 -102q-113 -198 -215 -324l138 -213l-187 -113l-106 170q-95 -81 -193 -122t-215 -41q-185 0 -298.5 102 t-113.5 272zM295 379q0 -84 53.5 -139.5t149.5 -55.5q137 0 284 125l-231 379q-256 -113 -256 -309zM594 1128q0 -92 63 -213q138 52 199.5 113.5t61.5 142.5q0 65 -39.5 107.5t-112.5 42.5q-74 0 -123 -57t-49 -136z" />
<glyph unicode="'" horiz-adv-x="530" d="M217 868l154 623h274l-4 -12l-299 -611h-125z" />
<glyph unicode="(" horiz-adv-x="845" d="M125 434q0 232 87 437.5t247 365.5q179 179 428 283l86 -177q-195 -95 -320 -223q-142 -142 -213 -317t-71 -367q0 -172 62.5 -313.5t184.5 -276.5l-153 -143q-164 153 -251 330.5t-87 400.5z" />
<glyph unicode=")" horiz-adv-x="845" d="M-106 -117q194 96 321 223q140 143 211.5 318.5t71.5 366.5q0 172 -62.5 313.5t-183.5 275.5l151 144q164 -153 251 -330.5t87 -400.5q0 -232 -86.5 -437.5t-244.5 -365.5q-180 -177 -430 -281z" />
<glyph unicode="*" horiz-adv-x="851" d="M236 1141l243 45l-196 155l100 103l158 -195l32 252l136 -33l-86 -239l227 96l39 -135l-244 -45l197 -156l-103 -102l-153 194l-35 -254l-135 35l86 240l-228 -98z" />
<glyph unicode="+" horiz-adv-x="1202" d="M154 639l57 221h350l86 350h227l-88 -350h351l-56 -221h-352l-84 -350h-227l86 350h-350z" />
<glyph unicode="," horiz-adv-x="598" d="M-100 -195q110 18 164.5 65.5t66.5 129.5h-104l69 283h271l-60 -240q-42 -171 -133 -250t-252 -94z" />
<glyph unicode="-" horiz-adv-x="821" d="M113 532l61 234h574l-60 -234h-575z" />
<glyph unicode="." horiz-adv-x="598" d="M27 0l69 283h271l-70 -283h-270z" />
<glyph unicode="/" horiz-adv-x="985" d="M-227 -254l1257 1935h230l-1260 -1935h-227z" />
<glyph unicode="0" horiz-adv-x="1355" d="M135 532q0 215 78 443.5t213 363.5q171 174 405 174q219 0 347.5 -148.5t128.5 -408.5q0 -214 -78 -441.5t-213 -362.5q-175 -175 -408 -175q-217 0 -345 148t-128 407zM387 532q0 -164 62.5 -247.5t175.5 -83.5q110 0 200 90q102 102 165 298t63 369q0 163 -63 247.5 t-173 84.5q-111 0 -201 -90q-102 -102 -165.5 -298.5t-63.5 -369.5z" />
<glyph unicode="1" horiz-adv-x="800" d="M186 0l299 1229l-241 -68l2 219l377 119h176l-367 -1499h-246z" />
<glyph unicode="2" horiz-adv-x="1157" d="M-39 0l51 197l656 571q119 104 171 182.5t52 161.5t-51.5 129.5t-141.5 46.5q-79 0 -151.5 -41t-157.5 -125l-151 160q202 229 475 229q197 0 315.5 -104t118.5 -268q0 -144 -72 -255t-239 -251l-474 -416h603l-58 -217h-946z" />
<glyph unicode="3" horiz-adv-x="1132" d="M-18 205l180 157q123 -163 299 -163q120 0 199 79t79 193t-80.5 167.5t-209.5 53.5h-64l-4 154l440 430h-536l57 215h862l-47 -184l-477 -449q141 -36 225 -129.5t84 -239.5q0 -99 -37.5 -192.5t-109.5 -165.5q-69 -69 -171.5 -111.5t-226.5 -42.5q-148 0 -266.5 60 t-195.5 168z" />
<glyph unicode="4" horiz-adv-x="1234" d="M49 520l916 981h237l-233 -969h178l-53 -202h-174l-80 -330h-234l80 330h-620zM313 532h422l156 631z" />
<glyph unicode="5" horiz-adv-x="1153" d="M-2 199l170 168q140 -164 305 -164q137 0 224 93t87 222q0 102 -66 160.5t-181 58.5q-100 0 -193 -43l-129 101l209 696h760l-58 -219h-540l-101 -352q79 22 144 22q183 0 296 -106.5t113 -294.5q0 -112 -41 -216.5t-118 -179.5q-168 -168 -420 -168q-145 0 -264.5 61 t-196.5 161z" />
<glyph unicode="6" horiz-adv-x="1216" d="M129 485q0 133 31.5 283.5t102.5 306.5t169 256q182 182 428 182q222 0 385 -153l-143 -184q-118 114 -260 114q-138 0 -244 -106q-62 -62 -110.5 -159.5t-73.5 -209.5q51 61 135.5 99t177.5 38q173 0 283 -104.5t110 -288.5q0 -120 -46.5 -234.5t-127.5 -193.5 q-151 -154 -364 -154q-202 0 -314 115q-139 136 -139 393zM365 422q0 -113 63 -176q63 -60 158 -60q108 0 186 78q49 49 73.5 120t24.5 144q0 104 -57.5 164t-159.5 60q-113 0 -190 -80q-46 -47 -72 -114t-26 -136z" />
<glyph unicode="7" horiz-adv-x="1134" d="M49 0l842 1274h-623l56 217h901l-51 -188l-844 -1303h-281z" />
<glyph unicode="8" horiz-adv-x="1226" d="M74 375q-1 171 97.5 278t252.5 148q-162 99 -162 282q0 81 33 157t93 136.5t153.5 97.5t203.5 37q194 0 316.5 -104t122.5 -272q0 -151 -83 -251.5t-220 -142.5q202 -102 202 -313q0 -88 -37.5 -168.5t-104.5 -143t-168.5 -99.5t-221.5 -37q-132 0 -240 48.5t-172 139.5 t-65 207zM313 401q-1 -99 69 -160t181 -61q120 0 198.5 74.5t80.5 183.5q0 100 -68.5 160.5t-183.5 60.5q-119 0 -198 -76.5t-79 -181.5zM489 1065q0 -87 56.5 -145t154.5 -58q109 0 179.5 72.5t72.5 171.5q2 88 -55.5 144.5t-161.5 56.5q-105 0 -174.5 -72t-71.5 -170z" />
<glyph unicode="9" horiz-adv-x="1216" d="M41 143l145 185q134 -127 281 -127q136 0 242 106q62 62 110 156t70 196q-129 -139 -314 -139q-112 0 -199 45t-139 137t-53 220q0 128 46 243t128 197q151 151 367 151q199 0 315 -116q138 -138 138 -410q0 -203 -81 -442t-227 -385q-180 -183 -419 -183 q-232 0 -410 166zM434 952q1 -111 58.5 -169t158.5 -58q115 0 193 78q45 45 70.5 114.5t25.5 145.5q0 119 -63 182q-60 60 -156 60q-109 0 -184 -78q-50 -48 -77.5 -123.5t-25.5 -151.5z" />
<glyph unicode=":" horiz-adv-x="604" d="M29 0l73 283h269l-70 -283h-272zM236 850l71 283h271l-72 -283h-270z" />
<glyph unicode=";" horiz-adv-x="604" d="M-96 -195q110 18 164.5 65.5t66.5 129.5h-106l73 283h269l-60 -240q-42 -171 -133 -250t-252 -94zM236 850l71 283h271l-72 -283h-270z" />
<glyph unicode="&#x3c;" horiz-adv-x="1202" d="M162 639l57 221l975 416l-64 -248l-708 -289l567 -290l-55 -224z" />
<glyph unicode="=" horiz-adv-x="1202" d="M123 403l57 224h877l-58 -224h-876zM242 874l57 222h877l-60 -222h-874z" />
<glyph unicode="&#x3e;" horiz-adv-x="1202" d="M90 223l66 248l708 291l-567 289l55 223l772 -414l-57 -221z" />
<glyph unicode="?" horiz-adv-x="1036" d="M180 0l70 283h270l-71 -283h-269zM219 1339q193 168 432 168q189 0 301.5 -102.5t112.5 -259.5q0 -183 -128.5 -303.5t-363.5 -163.5l-67 -211h-164l47 356l14 13q194 23 300 97t106 183q0 78 -49.5 122t-132.5 44q-138 0 -281 -119z" />
<glyph unicode="@" horiz-adv-x="1898" d="M121 444q0 205 73.5 400.5t199 344t304.5 239t377 90.5q171 0 312.5 -55t234.5 -149.5t144 -219.5t51 -267q0 -150 -38.5 -279.5t-103 -216.5t-148 -136.5t-173.5 -49.5q-99 0 -163.5 51.5t-82.5 133.5q-153 -189 -326 -189q-125 0 -204.5 86t-79.5 236q0 119 41.5 233.5 t109 198.5t157.5 136t183 52q173 0 244 -172l45 150l182 -51l-155 -516q-27 -89 -27 -138q0 -59 32.5 -91t90.5 -32q59 0 119 46.5t108 124t78.5 189.5t30.5 234q0 127 -45 238.5t-128 195.5t-210 132.5t-281 48.5q-147 0 -283.5 -55t-242.5 -151.5t-185.5 -222t-122 -272.5 t-42.5 -297q0 -158 52.5 -288t145.5 -217t220 -134t276 -47q203 0 403 99l33 -68q-220 -106 -436 -106q-167 0 -308.5 53t-244 149.5t-160 240.5t-57.5 318zM707 498q0 -90 40 -139.5t113 -49.5q53 0 110 35t101.5 90.5t73.5 131.5t29 153q0 85 -44 138.5t-122 53.5 q-74 0 -144.5 -61t-113.5 -157t-43 -195z" />
<glyph unicode="A" horiz-adv-x="1433" d="M-78 0l912 1501h241l178 -1501h-252l-34 362h-568l-213 -362h-264zM539 582h401l-55 618z" />
<glyph unicode="B" horiz-adv-x="1337" d="M43 0l365 1491h452q221 0 338 -96.5t117 -253.5q0 -156 -92.5 -254t-239.5 -133q219 -87 219 -301q0 -213 -166 -333t-440 -120h-553zM340 219h291q152 0 238.5 65t86.5 183q0 84 -62 132t-177 48h-277zM494 856h245q153 0 240.5 65t87.5 181q0 80 -58.5 125t-170.5 45 h-248z" />
<glyph unicode="C" horiz-adv-x="1323" d="M147 580q0 196 73.5 390.5t203.5 325.5q215 215 498 215q306 0 477 -251l-195 -158q-64 92 -134 137t-167 45q-158 0 -291 -133q-95 -95 -153 -248.5t-58 -314.5q0 -172 88.5 -276.5t235.5 -104.5q150 0 301 129l141 -172q-200 -187 -442 -187q-258 0 -418 163t-160 440z " />
<glyph unicode="D" horiz-adv-x="1443" d="M43 0l365 1491h340q319 0 483 -164q153 -150 153 -438q0 -174 -65.5 -348.5t-194.5 -300.5q-237 -240 -653 -240h-428zM344 223h160q272 0 440 168q90 90 138 225t48 265q0 186 -98 284q-103 103 -305 103h-131z" />
<glyph unicode="E" horiz-adv-x="1230" d="M43 0l365 1491h925l-57 -221h-680l-96 -410h602l-58 -219h-602l-98 -420h692l-59 -221h-934z" />
<glyph unicode="F" horiz-adv-x="1216" d="M43 0l365 1491h931l-57 -225h-686l-100 -426h610l-59 -224h-607l-149 -616h-248z" />
<glyph unicode="G" horiz-adv-x="1447" d="M145 584q0 196 73.5 381.5t205.5 316.5q229 229 545 229q302 0 481 -202l-176 -170q-67 70 -144 108.5t-182 38.5q-194 0 -342 -151q-94 -95 -149.5 -243t-55.5 -300q0 -179 98.5 -284t254.5 -105q123 0 223 51l84 356h-305l57 217h541l-187 -733q-200 -117 -430 -117 q-117 0 -222.5 39.5t-188.5 113.5t-132 191.5t-49 262.5z" />
<glyph unicode="H" horiz-adv-x="1425" d="M43 0l365 1491h247l-153 -627h571l150 627h247l-364 -1491h-246l154 635h-570l-153 -635h-248z" />
<glyph unicode="I" horiz-adv-x="638" d="M57 0l365 1491h248l-365 -1491h-248z" />
<glyph unicode="J" horiz-adv-x="1036" d="M-45 217l182 152q47 -83 98.5 -120.5t116.5 -37.5q87 0 148 61q66 66 112 252l230 967h254l-246 -1024q-34 -138 -72.5 -219t-99.5 -142q-121 -124 -320 -124q-271 0 -403 235z" />
<glyph unicode="K" horiz-adv-x="1349" d="M43 0l365 1491h247l-180 -741l719 741h319l-655 -643l322 -848h-271l-239 672l-285 -277l-94 -395h-248z" />
<glyph unicode="L" horiz-adv-x="1144" d="M43 0l365 1491h247l-307 -1266h637l-59 -225h-883z" />
<glyph unicode="M" horiz-adv-x="1630" d="M43 0l365 1491h256l194 -711l533 711h286l-364 -1491h-250l260 1083l-557 -718h-8l-211 714l-260 -1079h-244z" />
<glyph unicode="N" horiz-adv-x="1472" d="M43 0l365 1491h229l385 -1061l254 1061h244l-365 -1491h-211l-397 1094l-260 -1094h-244z" />
<glyph unicode="O" d="M147 573q0 198 74.5 400.5t206.5 333.5q206 206 496 206q251 0 400 -165t149 -433q0 -196 -75.5 -398t-207.5 -333q-206 -209 -494 -209q-251 0 -400 165.5t-149 432.5zM399 590q0 -178 85.5 -281.5t238.5 -103.5q159 0 281 125q98 98 156.5 261t58.5 310 q0 178 -85.5 281.5t-236.5 103.5q-159 0 -283 -127q-97 -96 -156 -259.5t-59 -309.5z" />
<glyph unicode="P" horiz-adv-x="1277" d="M43 0l365 1491h364q144 0 244.5 -31t169.5 -102q110 -107 110 -297q0 -239 -153 -389q-90 -88 -223 -136.5t-297 -48.5h-215l-117 -487h-248zM463 702h172q209 0 315 109q90 90 90 236q0 93 -57 153q-39 37 -91 52.5t-130 15.5h-166z" />
<glyph unicode="Q" d="M147 573q0 198 74.5 400.5t206.5 333.5q206 206 496 206q251 0 400 -165t149 -433q0 -184 -67 -375.5t-187 -324.5l114 -156l-200 -135l-93 144q-158 -93 -344 -93q-251 0 -400 165.5t-149 432.5zM399 590q0 -179 84.5 -282t239.5 -103q101 0 192 51l-176 242l203 139 l137 -217q65 103 102.5 234t37.5 247q0 179 -84 282t-238 103q-161 0 -283 -125q-97 -97 -156 -261t-59 -310z" />
<glyph unicode="R" horiz-adv-x="1359" d="M43 0l365 1491h423q280 0 410 -133q109 -112 109 -287q0 -220 -138 -358q-117 -117 -305 -162l230 -551h-277l-211 522h-235l-123 -522h-248zM473 739h227q209 0 312 103q82 82 82 213q0 89 -56 145q-65 68 -223 68h-217z" />
<glyph unicode="S" horiz-adv-x="1187" d="M8 248l185 160q89 -105 175.5 -157t186.5 -52q97 0 161 55.5t64 138.5q0 62 -46.5 117t-172.5 141q-158 108 -230.5 203t-72.5 213q0 175 121 299q142 145 362 145q281 0 476 -219l-173 -170q-76 84 -151 127t-160 43q-98 0 -156.5 -55t-58.5 -129q0 -63 46.5 -117.5 t176.5 -140.5q152 -102 225.5 -199t73.5 -221q0 -183 -129 -309q-65 -67 -162 -104t-204 -37q-169 0 -306.5 70.5t-230.5 197.5z" />
<glyph unicode="T" horiz-adv-x="1144" d="M221 1264l62 227h1030l-60 -227h-393l-305 -1264h-246l303 1264h-391z" />
<glyph unicode="U" horiz-adv-x="1429" d="M160 414q0 88 33 227l204 850h246l-211 -881q-22 -90 -22 -166q0 -110 65.5 -174.5t183.5 -64.5q134 0 220 86q95 95 141 280l221 920h246l-230 -956q-68 -265 -202 -402q-156 -156 -422 -156q-220 0 -346.5 115.5t-126.5 321.5z" />
<glyph unicode="V" horiz-adv-x="1359" d="M276 1491h263l79 -1143l627 1143h277l-881 -1501h-219z" />
<glyph unicode="W" horiz-adv-x="2068" d="M287 1491h254l18 -1112l576 1116h211l47 -1116l551 1112h278l-803 -1501h-227l-47 1077l-565 -1077h-226z" />
<glyph unicode="X" horiz-adv-x="1302" d="M-72 0l633 778l-264 713h274l166 -528l402 528h309l-610 -741l278 -750h-274l-185 567l-424 -567h-305z" />
<glyph unicode="Y" horiz-adv-x="1228" d="M225 1491h271l168 -664l487 664h297l-715 -907l-143 -584h-248l147 606z" />
<glyph unicode="Z" horiz-adv-x="1265" d="M-20 0l45 182l966 1094h-686l55 215h1010l-47 -182l-967 -1094h717l-55 -215h-1038z" />
<glyph unicode="[" horiz-adv-x="886" d="M10 -276l430 1767h564l-48 -191h-331l-340 -1388h336l-50 -188h-561z" />
<glyph unicode="\" horiz-adv-x="985" d="M266 1681h201l342 -1935h-201z" />
<glyph unicode="]" horiz-adv-x="886" d="M-100 -276l49 188h330l339 1388h-335l49 191h561l-430 -1767h-563z" />
<glyph unicode="^" horiz-adv-x="972" d="M223 1075l365 408h170l166 -408h-166l-111 246l-227 -246h-197z" />
<glyph unicode="_" horiz-adv-x="1218" d="M-205 -340l47 188h1190l-47 -188h-1190z" />
<glyph unicode="`" horiz-adv-x="1101" d="M563 1493l215 100l140 -338h-166z" />
<glyph unicode="a" horiz-adv-x="1116" d="M31 281q0 180 114 294q121 121 332 121q139 0 283 -53l6 27q14 72 14 114q0 152 -202 152q-122 0 -256 -59l-56 196q167 72 350 72q193 0 297.5 -81.5t104.5 -227.5q0 -79 -31 -203l-151 -633h-236l35 139q-136 -159 -309 -159q-132 0 -213.5 83t-81.5 218zM272 305 q0 -70 41 -112.5t111 -42.5q99 0 175.5 76t102.5 184l23 94q-111 39 -211 39q-110 0 -176 -66q-66 -69 -66 -172z" />
<glyph unicode="b" horiz-adv-x="1259" d="M16 0l373 1538h244l-133 -551q74 81 148 123.5t163 42.5q153 0 253.5 -120.5t100.5 -332.5q0 -164 -56.5 -316t-158.5 -255q-150 -147 -338 -147q-216 0 -311 208l-43 -190h-242zM362 453q0 -121 60.5 -194t157.5 -73q107 0 186 82q69 69 110.5 180.5t41.5 231.5 q0 124 -55 196t-152 72q-109 0 -197 -88q-71 -71 -111.5 -181.5t-40.5 -225.5z" />
<glyph unicode="c" horiz-adv-x="1032" d="M92 446q0 154 56.5 298.5t154.5 242.5q171 164 379 164q136 0 224.5 -53.5t150.5 -149.5l-180 -139q-42 66 -88.5 100.5t-112.5 34.5q-101 0 -189 -88q-69 -68 -111 -181.5t-42 -221.5q0 -127 58 -197t147 -70q59 0 107.5 24.5t105.5 74.5l125 -158q-154 -147 -349 -147 t-315.5 125t-120.5 341z" />
<glyph unicode="d" horiz-adv-x="1259" d="M94 434q0 163 57.5 316.5t157.5 255.5q71 71 158.5 109t179.5 38q111 0 189 -56.5t122 -152.5l142 594h243l-376 -1538h-242l37 145q-74 -79 -149 -121t-164 -42q-154 0 -254.5 120.5t-100.5 331.5zM344 455q0 -126 54 -197.5t153 -71.5q106 0 197 88q69 69 110 181.5 t41 224.5q0 122 -60.5 195t-156.5 73q-103 0 -188 -82q-69 -71 -109.5 -181t-40.5 -230z" />
<glyph unicode="e" horiz-adv-x="1142" d="M94 457q0 150 57 293.5t156 242.5q160 160 373 160q178 0 282.5 -115t104.5 -299q0 -120 -47 -260h-698v-22q0 -131 61.5 -206t169.5 -75q69 0 126 23t122 71l104 -164q-159 -126 -362 -126q-209 0 -329 128.5t-120 348.5zM346 639h483q13 51 13 111q0 92 -45.5 148 t-132.5 56q-106 0 -193 -84q-81 -81 -125 -231z" />
<glyph unicode="f" horiz-adv-x="770" d="M68 0l225 924h-129l55 209h125l18 75q41 172 123 248q98 94 265 94q105 0 180 -30l-53 -201q-58 22 -121 22t-99.5 -35t-54.5 -106l-18 -67h247l-55 -209h-241l-224 -924h-243z" />
<glyph unicode="g" horiz-adv-x="1255" d="M-33 -170l123 170q82 -62 174 -95.5t180 -33.5q133 0 215 82q63 63 101 201l24 98q-78 -85 -157 -127.5t-172 -42.5q-150 0 -251.5 103.5t-101.5 287.5q0 144 55.5 287t153.5 241q152 152 336 152q216 0 303 -217l47 197h242l-233 -969q-32 -131 -71 -212.5t-99 -141.5 q-134 -134 -381 -134q-126 0 -256 40.5t-232 113.5zM350 506q0 -110 53 -168.5t144 -58.5q115 0 205 90q55 57 93 147t38 193q0 107 -57 173t-152 66q-108 0 -189 -84q-62 -62 -98.5 -162.5t-36.5 -195.5z" />
<glyph unicode="h" horiz-adv-x="1183" d="M16 0l373 1538h244l-131 -541q137 156 301 156q130 0 207 -79.5t77 -217.5q0 -83 -32 -211l-154 -645h-244l158 649q21 83 21 133q0 73 -40 112.5t-114 39.5q-90 0 -160.5 -72t-97.5 -184l-166 -678h-242z" />
<glyph unicode="i" horiz-adv-x="577" d="M29 0l278 1133h242l-277 -1133h-243zM338 1298l63 240h256l-63 -240h-256z" />
<glyph unicode="j" horiz-adv-x="581" d="M-233 -303l51 188q46 -12 73 -12q115 0 150 147l270 1113h242l-279 -1147q-40 -164 -127 -238t-223 -74q-86 0 -157 23zM342 1298l61 240h256l-61 -240h-256z" />
<glyph unicode="k" horiz-adv-x="1101" d="M16 0l377 1538h242l-211 -876l463 471h307l-481 -447l215 -686h-266l-150 516l-168 -164l-86 -352h-242z" />
<glyph unicode="l" horiz-adv-x="577" d="M29 0l377 1538h241l-375 -1538h-243z" />
<glyph unicode="m" horiz-adv-x="1800" d="M16 0l279 1133h240l-33 -136q68 75 137 115.5t156 40.5q98 0 165.5 -54t94.5 -149q71 96 163.5 149.5t200.5 53.5q131 0 209 -78.5t78 -208.5q0 -83 -31 -221l-157 -645h-242l158 653q18 68 18 133q0 72 -38 110t-107 38q-86 0 -156.5 -70t-95.5 -178l-166 -686h-242 l158 651q18 80 18 133q0 72 -39 111t-108 39q-88 0 -156.5 -71.5t-95.5 -184.5l-166 -678h-242z" />
<glyph unicode="n" horiz-adv-x="1179" d="M16 0l279 1133h240l-33 -136q137 156 301 156q130 0 207 -79.5t77 -217.5q0 -83 -32 -211l-154 -645h-244l158 649q21 83 21 133q0 73 -40 112.5t-114 39.5q-90 0 -160.5 -72t-97.5 -184l-166 -678h-242z" />
<glyph unicode="o" horiz-adv-x="1218" d="M96 459q0 153 55 294t154 240q160 160 373 160q204 0 325 -132t121 -349q0 -152 -56 -294t-153 -241q-163 -160 -374 -160q-204 0 -324.5 133t-120.5 349zM332 465q0 -134 59.5 -206.5t161.5 -72.5t186 84q68 68 108 179t40 215q0 135 -59 207.5t-160 72.5 q-106 0 -187 -84q-68 -67 -108.5 -178.5t-40.5 -216.5z" />
<glyph unicode="p" horiz-adv-x="1259" d="M-61 -319l356 1452h240l-35 -146q74 81 148 123.5t163 42.5q153 0 253.5 -120.5t100.5 -332.5q0 -164 -56.5 -316t-158.5 -255q-150 -147 -338 -147q-216 0 -311 208l-121 -509h-241zM362 453q0 -121 60.5 -194t157.5 -73q107 0 186 82q69 69 110.5 180.5t41.5 231.5 q0 124 -55 196t-152 72q-109 0 -197 -88q-71 -71 -111.5 -181.5t-40.5 -225.5z" />
<glyph unicode="q" horiz-adv-x="1259" d="M94 434q0 162 57 315t158 255q149 149 340 149q110 0 187.5 -56.5t121.5 -152.5l43 189h244l-354 -1452h-242l113 464q-74 -79 -149 -121t-164 -42q-154 0 -254.5 120.5t-100.5 331.5zM344 455q0 -126 54 -197.5t153 -71.5q106 0 197 88q69 69 110 181.5t41 224.5 q0 122 -60.5 195t-156.5 73q-103 0 -188 -82q-69 -71 -109.5 -181t-40.5 -230z" />
<glyph unicode="r" horiz-adv-x="796" d="M16 0l279 1133h240l-52 -209q79 118 173 178q80 51 183 50q17 0 35 -1l-69 -252h-12q-151 0 -256.5 -93t-153.5 -286l-125 -520h-242z" />
<glyph unicode="s" horiz-adv-x="942" d="M-27 184l146 150q150 -166 293 -166q66 0 110.5 37.5t44.5 93.5q0 47 -36.5 86.5t-137.5 103.5q-123 80 -178 152.5t-55 169.5q0 141 106.5 240.5t280.5 99.5q111 0 210 -48t173 -124l-135 -158q-76 74 -137.5 108t-122.5 34q-62 0 -103 -35.5t-41 -87.5q0 -46 35.5 -84 t140.5 -105q128 -81 181 -157.5t53 -169.5q0 -146 -113 -245t-282 -99q-251 0 -433 204z" />
<glyph unicode="t" horiz-adv-x="784" d="M123 195q0 45 20 135l146 594h-129l53 209h125l74 301h243l-73 -301h239l-53 -209h-238l-145 -596q-8 -40 -8 -58q0 -32 25 -50.5t69 -18.5q71 0 133 30l-51 -208q-75 -37 -188 -37t-177.5 55.5t-64.5 153.5z" />
<glyph unicode="u" horiz-adv-x="1183" d="M96 279q0 61 33 208l156 646h241l-157 -650q-19 -84 -19 -133q0 -72 40.5 -111.5t113.5 -39.5q91 0 162 72.5t96 183.5l164 678h241l-274 -1133h-242l33 135q-144 -155 -301 -155q-131 0 -209 80t-78 219z" />
<glyph unicode="v" horiz-adv-x="1120" d="M193 1133h247l47 -834l443 834h258l-666 -1141h-217z" />
<glyph unicode="w" horiz-adv-x="1628" d="M203 1133h243l-4 -789l398 791h209l20 -793l377 791h240l-592 -1141h-220l-22 784l-399 -784h-217z" />
<glyph unicode="x" horiz-adv-x="1095" d="M-66 0l492 590l-205 543h252l121 -367l274 367h285l-471 -564l213 -569h-254l-127 395l-297 -395h-283z" />
<glyph unicode="y" horiz-adv-x="1120" d="M-63 -238l116 166q62 -49 119 -49q39 0 72 26.5t71 88.5l-112 1139h246l51 -844l424 844h260l-633 -1153q-91 -165 -178 -235.5t-203 -70.5q-132 0 -233 88z" />
<glyph unicode="z" horiz-adv-x="1024" d="M-33 0l41 170l692 766h-497l49 197h801l-41 -168l-697 -766h523l-52 -199h-819z" />
<glyph unicode="{" horiz-adv-x="931" d="M98 520l47 185h54q152 0 217 65q80 83 80 272q4 241 118 353q126 126 400 129l16 -166q-178 -14 -248 -84q-44 -43 -58.5 -107t-16.5 -182q-3 -59 -8.5 -102t-27 -99.5t-57.5 -93.5q-80 -78 -221 -96q85 -20 127.5 -69.5t42.5 -121.5q0 -70 -49 -182q-53 -125 -53 -182 q0 -65 42 -105.5t156 -76.5l-73 -156q-188 39 -269 112t-81 191q0 69 57 219q49 113 49 172q0 125 -192 125h-52z" />
<glyph unicode="|" horiz-adv-x="690" d="M47 -254l475 1935h193l-477 -1935h-191z" />
<glyph unicode="}" horiz-adv-x="931" d="M-76 -133q178 14 248 84q44 43 59 107.5t17 181.5q2 43 5.5 75t12.5 75t28.5 80t47.5 65q78 78 221 96q-172 40 -172 190q0 71 49 183q54 127 54 182q0 65 -42.5 105.5t-156.5 76.5l74 156q189 -39 270.5 -112.5t81.5 -190.5q0 -73 -59 -220q-50 -123 -50 -172 q0 -124 193 -124h51l-47 -185h-53q-149 0 -217 -65q-80 -83 -80 -273q-4 -242 -119 -352q-126 -126 -399 -129z" />
<glyph unicode="~" horiz-adv-x="976" d="M133 553q107 244 262 244q46 0 78 -14.5t68 -45.5q39 -33 58 -44t40 -11q65 0 125 119l133 -62q-102 -243 -262 -243q-44 0 -75.5 14t-67.5 45q-39 32 -58.5 43.5t-40.5 11.5q-37 0 -66.5 -30t-60.5 -88z" />
<glyph unicode="&#xa1;" horiz-adv-x="634" d="M35 0l18 80l307 946h134l-156 -946l-19 -80h-284zM336 1208l72 283h268l-70 -283h-270z" />
<glyph unicode="&#xa2;" horiz-adv-x="1089" d="M145 647q0 153 52.5 296t146.5 235q158 161 391 161q5 0 14.5 -1t14.5 -1l55 164h172l-67 -196q128 -54 209 -183l-172 -127q-60 78 -113 105l-238 -725h4q118 0 238 90l115 -160q-164 -141 -367 -141q-35 0 -51 2l-62 -178h-170l76 217q-117 55 -182.5 169t-65.5 273z M383 655q0 -162 92 -235l225 706q-95 -8 -176 -86q-66 -66 -103.5 -174t-37.5 -211z" />
<glyph unicode="&#xa3;" horiz-adv-x="1198" d="M-10 0l41 156l157 47l99 409h-152l51 203h148l61 254q52 207 158 313q124 127 330 127q130 0 228 -60t155 -157l-193 -139q-78 129 -205 129q-86 0 -145 -59q-64 -67 -92 -195l-51 -213h432l-54 -203h-428l-94 -397h580l-55 -215h-971z" />
<glyph unicode="&#xa5;" horiz-adv-x="1308" d="M113 231l45 177h336l38 159h-337l47 176h274l-229 748h262l164 -633l471 633h291l-601 -748h279l-45 -176h-338l-41 -159h342l-47 -177h-338l-55 -231h-236l56 231h-338z" />
<glyph unicode="&#xa7;" horiz-adv-x="1206" d="M109 152l141 149q138 -131 293 -131q72 0 113.5 29.5t41.5 74.5q0 46 -41 78t-159 80q-88 35 -143.5 62.5t-106.5 64.5t-74.5 81.5t-23.5 100.5q0 62 27 113.5t72 84t97 52.5t109 27q-93 83 -93 192q0 128 109.5 215.5t290.5 87.5q131 0 241.5 -45.5t184.5 -124.5 l-144 -149q-138 131 -290 131q-72 0 -115 -29.5t-43 -74.5q0 -46 42 -77.5t161 -80.5q88 -35 143.5 -62.5t106.5 -64.5t74.5 -81.5t23.5 -100.5q0 -63 -27 -114t-72 -83.5t-97.5 -52.5t-110.5 -27q92 -80 92 -192q0 -129 -108 -216t-289 -87q-131 0 -241.5 45.5 t-184.5 124.5zM381 780q0 -47 34 -78.5t109 -66.5q136 -53 217 -53q72 0 123 36.5t51 96.5q0 47 -34.5 78.5t-110.5 66.5q-138 55 -217 55q-71 0 -121.5 -37.5t-50.5 -97.5z" />
<glyph unicode="&#xa8;" horiz-adv-x="1101" d="M416 1262l59 235h238l-60 -235h-237zM786 1262l62 235h237l-59 -235h-240z" />
<glyph unicode="&#xa9;" horiz-adv-x="1603" d="M150 621q0 189 68 370t194 307q218 218 516 218q185 0 325 -86.5t212.5 -232.5t72.5 -327q0 -189 -67.5 -369.5t-194.5 -307.5q-215 -218 -514 -218q-185 0 -325.5 86.5t-213.5 232.5t-73 327zM227 625q0 -118 36 -222t102 -182.5t168.5 -124t228.5 -45.5q268 0 455 187 q118 118 179.5 287t61.5 343q1 118 -34 221t-101 181.5t-169 124t-230 45.5q-266 0 -453 -187q-119 -118 -180.5 -285.5t-63.5 -342.5zM487 662q0 110 42 217t116 180q117 117 270 117q167 0 263 -146l-117 -90q-34 48 -70 72t-86 24q-85 0 -153 -65q-50 -50 -80.5 -132.5 t-30.5 -168.5q0 -94 43.5 -148.5t116.5 -54.5q81 0 172 78l80 -105q-117 -108 -262 -108q-134 0 -219 89.5t-85 240.5z" />
<glyph unicode="&#xaa;" horiz-adv-x="776" d="M131 621l27 112h499l-28 -112h-498zM223 1018q0 101 69 167t175 66q70 0 158 -30l6 22q8 32 8 51q0 38 -27 59t-80 21q-70 0 -149 -31l-35 115q100 41 207 41q106 0 163.5 -48t57.5 -132q0 -42 -14 -102l-86 -349h-137l18 72q-77 -84 -170 -84q-71 0 -117.5 44.5 t-46.5 117.5zM367 1034q-1 -37 19.5 -57.5t57.5 -20.5q51 0 95 42t59 102l8 39q-58 20 -114 20q-59 0 -92 -36.5t-33 -88.5z" />
<glyph unicode="&#xab;" horiz-adv-x="1196" d="M104 541l5 16l466 475l127 -121l-340 -385l150 -370l-178 -78zM578 541l4 16l467 475l127 -121l-340 -385l149 -370l-182 -78z" />
<glyph unicode="&#xad;" horiz-adv-x="821" d="M113 532l61 234h574l-60 -234h-575z" />
<glyph unicode="&#xae;" horiz-adv-x="788" d="M190 1075q0 92 33.5 181t95.5 151q109 109 259 109q137 0 218 -88.5t81 -221.5q0 -94 -34 -183t-98 -153q-106 -106 -253 -106q-137 0 -219.5 89t-82.5 222zM233 1077q0 -116 70 -195t193 -79q125 0 219 94q58 58 89.5 141t31.5 164q0 116 -70.5 195.5t-192.5 79.5 q-126 0 -219 -93q-58 -60 -89.5 -142.5t-31.5 -164.5zM350 950l96 396h115q154 0 154 -121q0 -101 -105 -133l52 -142h-91l-47 127h-55l-31 -127h-88zM487 1151h48q52 0 75 23q17 17 17 43q0 51 -68 51h-43z" />
<glyph unicode="&#xaf;" horiz-adv-x="1101" d="M403 1270l48 174h634l-43 -174h-639z" />
<glyph unicode="&#xb0;" horiz-adv-x="849" d="M203 1104q0 89 33 167.5t90 133.5q97 100 237 100q127 0 203 -81.5t76 -213.5q0 -181 -123 -301q-97 -100 -236 -100q-127 0 -203.5 82t-76.5 213zM342 1112q0 -78 40.5 -125t109.5 -47q74 0 131 57q37 37 58 91.5t21 113.5q0 79 -39.5 125.5t-109.5 46.5q-72 0 -129 -53 q-38 -40 -60 -95.5t-22 -113.5z" />
<glyph unicode="&#xb1;" horiz-adv-x="1202" d="M20 63l54 207h909l-51 -207h-912zM197 774l55 213l346 -2l82 340h217l-84 -340l348 2l-53 -213l-348 2l-80 -338h-219l84 338z" />
<glyph unicode="&#xb2;" horiz-adv-x="778" d="M195 924l30 123l383 303q62 53 87.5 88.5t25.5 74.5q0 40 -30.5 65.5t-80.5 25.5q-84 0 -188 -93l-88 101q129 129 282 129q117 0 187.5 -60.5t70.5 -156.5q0 -72 -38 -133t-148 -142l-254 -194h344l-33 -131h-550z" />
<glyph unicode="&#xb3;" horiz-adv-x="778" d="M213 1034l96 99q33 -31 52.5 -47t58 -32t82.5 -16q68 0 110.5 40t42.5 93q0 55 -45.5 84t-130.5 31h-39l-6 90l264 217h-315l33 133h512l-27 -112l-289 -230q93 -15 144 -66.5t51 -133.5q0 -120 -86 -198.5t-221 -78.5q-184 0 -287 127z" />
<glyph unicode="&#xb4;" horiz-adv-x="1101" d="M496 1255l290 338l209 -100l-299 -238h-200z" />
<glyph unicode="&#xb5;" horiz-adv-x="1282" d="M-59 -322l354 1448h229l-151 -634q-19 -78 -19 -130q0 -85 46.5 -131.5t129.5 -46.5q96 0 161.5 60.5t94.5 177.5l170 704h232l-193 -794q-12 -58 -12 -78q0 -70 92 -70q31 0 66 6l-47 -184q-58 -20 -125 -20q-83 0 -134.5 38t-66.5 107q-100 -147 -256 -147 q-91 0 -156.5 48.5t-93.5 147.5h-2q-6 -149 -43 -307l-49 -195h-227z" />
<glyph unicode="&#xb6;" horiz-adv-x="1122" d="M182 920q0 235 158 393q178 178 526 178h301l-364 -1491h-244l115 487q-258 10 -379 131q-113 113 -113 302z" />
<glyph unicode="&#xb7;" horiz-adv-x="600" d="M143 508l70 285h272l-71 -285h-271z" />
<glyph unicode="&#xb8;" horiz-adv-x="1101" d="M166 -233l231 253h181l-222 -342z" />
<glyph unicode="&#xb9;" horiz-adv-x="636" d="M352 1634l252 97h113l-197 -807h-147l157 643l-168 -66z" />
<glyph unicode="&#xba;" horiz-adv-x="792" d="M133 621l29 112h514l-31 -112h-512zM231 1118q0 81 30.5 159t86.5 134q90 90 209 90q116 0 184 -72.5t68 -193.5q0 -82 -30 -160t-87 -133q-85 -88 -209 -88q-115 0 -183.5 72t-68.5 192zM371 1120q0 -63 32.5 -104t88.5 -41q55 0 100 45q37 35 57.5 94.5t20.5 118.5 q0 63 -32.5 104t-86.5 41t-102 -45q-35 -36 -56.5 -96.5t-21.5 -116.5z" />
<glyph unicode="&#xbb;" horiz-adv-x="1196" d="M14 197l342 385l-151 370l182 78l225 -463l-4 -16l-467 -475zM487 197l340 385l-149 370l180 78l227 -463l-4 -16l-467 -475z" />
<glyph unicode="&#xbc;" horiz-adv-x="1611" d="M74 0l655 774l592 717h152l-658 -774l-590 -717h-151zM272 1399l250 100h113l-197 -811h-145l153 645l-167 -65zM760 170l26 133l476 508h159l-127 -524h99l-31 -117h-100l-41 -172h-136l43 172h-368zM922 285h237l82 348h-4z" />
<glyph unicode="&#xbd;" horiz-adv-x="1611" d="M43 0l655 774l592 717h152l-658 -774l-589 -717h-152zM272 1399l250 100h113l-197 -811h-145l153 645l-167 -65zM745 0l31 123l383 303q62 52 87.5 88.5t25.5 75.5q0 40 -30 65t-81 25q-85 0 -188 -92l-88 100q129 129 282 129q117 0 187.5 -60.5t70.5 -156.5 q0 -72 -38 -132.5t-148 -141.5l-254 -195h344l-33 -131h-551z" />
<glyph unicode="&#xbe;" horiz-adv-x="1751" d="M125 799l96 100q30 -30 51.5 -47t60 -32t83.5 -15q67 0 109 40t42 93q0 54 -45.5 83.5t-130.5 29.5h-39l-6 90l264 217h-315l35 133h510l-29 -111l-289 -229q95 -18 146 -69t51 -134q0 -119 -86.5 -197.5t-220.5 -78.5q-181 0 -287 127zM211 0l655 774l592 717h152 l-658 -774l-590 -717h-151zM903 170l27 133l475 508h160l-127 -524h98l-31 -117h-100l-41 -172h-135l43 172h-369zM1065 285h238l81 348h-4z" />
<glyph unicode="&#xbf;" horiz-adv-x="1036" d="M57 346q0 183 129 303.5t363 163.5l69 213h162l-47 -358l-14 -13q-194 -23 -300 -97t-106 -183q0 -78 51 -122t132 -44q136 0 282 119l125 -176q-190 -168 -432 -168q-189 0 -301.5 102.5t-112.5 259.5zM604 1208l70 283h270l-72 -283h-268z" />
<glyph unicode="&#xc0;" horiz-adv-x="1433" d="M-78 0l912 1501h241l178 -1501h-252l-34 362h-568l-213 -362h-264zM539 582h401l-55 618zM676 1817l223 94l160 -295h-170z" />
<glyph unicode="&#xc1;" horiz-adv-x="1433" d="M-78 0l912 1501h241l178 -1501h-252l-34 362h-568l-213 -362h-264zM539 582h401l-55 618zM874 1616l291 295l213 -94l-299 -201h-205z" />
<glyph unicode="&#xc2;" horiz-adv-x="1433" d="M-78 0l912 1501h241l178 -1501h-252l-34 362h-568l-213 -362h-264zM539 582h401l-55 618zM621 1614l303 276h229l166 -276h-186l-121 121l-181 -121h-210z" />
<glyph unicode="&#xc3;" horiz-adv-x="1433" d="M-78 0l912 1501h241l178 -1501h-252l-34 362h-568l-213 -362h-264zM539 582h401l-55 618zM623 1651q54 120 110.5 177.5t140.5 57.5q65 0 164 -45q66 -37 107 -37q38 0 64.5 22.5t56.5 71.5l135 -47q-54 -119 -110 -176t-140 -57q-65 0 -164 43q-70 39 -106 39 q-39 0 -65 -22t-58 -72z" />
<glyph unicode="&#xc4;" horiz-adv-x="1433" d="M-78 0l912 1501h241l178 -1501h-252l-34 362h-568l-213 -362h-264zM539 582h401l-55 618zM674 1622l57 223h242l-58 -223h-241zM1059 1622l57 223h242l-58 -223h-241z" />
<glyph unicode="&#xc5;" horiz-adv-x="1433" d="M-78 0l869 1430q-52 55 -52 124q0 97 69.5 164.5t186.5 67.5q91 0 152 -54.5t61 -132.5q0 -64 -31.5 -118t-89.5 -84l166 -1397h-252l-34 362h-568l-213 -362h-264zM539 582h401l-55 618zM848 1563q0 -45 30 -73t80 -28q63 0 102.5 38t39.5 87q0 47 -31 77t-80 30 q-63 0 -102 -40t-39 -91z" />
<glyph unicode="&#xc6;" horiz-adv-x="1933" d="M-100 0l1054 1491h1080l-58 -221h-651l-94 -410h573l-57 -219h-573l-101 -420h664l-58 -221h-905l86 362h-444l-248 -362h-268zM580 582h335l166 694h-34z" />
<glyph unicode="&#xc7;" horiz-adv-x="1323" d="M147 580q0 196 73.5 390.5t203.5 325.5q215 215 498 215q306 0 477 -251l-195 -158q-64 92 -134 137t-167 45q-158 0 -291 -133q-95 -95 -153 -248.5t-58 -314.5q0 -172 88.5 -276.5t235.5 -104.5q150 0 301 129l141 -172q-200 -187 -442 -187h-31l-192 -299l-191 89 l217 239q-177 55 -279 205t-102 369z" />
<glyph unicode="&#xc8;" horiz-adv-x="1230" d="M43 0l365 1491h925l-57 -221h-680l-96 -410h602l-58 -219h-602l-98 -420h692l-59 -221h-934zM582 1800l223 94l160 -295h-170z" />
<glyph unicode="&#xc9;" horiz-adv-x="1230" d="M43 0l365 1491h925l-57 -221h-680l-96 -410h602l-58 -219h-602l-98 -420h692l-59 -221h-934zM776 1599l291 295l213 -94l-299 -201h-205z" />
<glyph unicode="&#xca;" horiz-adv-x="1230" d="M43 0l365 1491h925l-57 -221h-680l-96 -410h602l-58 -219h-602l-98 -420h692l-59 -221h-934zM528 1604l303 276h230l166 -276h-187l-120 120l-181 -120h-211z" />
<glyph unicode="&#xcb;" horiz-adv-x="1230" d="M43 0l365 1491h925l-57 -221h-680l-96 -410h602l-58 -219h-602l-98 -420h692l-59 -221h-934zM575 1606l58 223h241l-57 -223h-242zM961 1606l57 223h242l-58 -223h-241z" />
<glyph unicode="&#xcc;" horiz-adv-x="638" d="M57 0l365 1491h248l-365 -1491h-248zM264 1800l223 94l160 -295h-170z" />
<glyph unicode="&#xcd;" horiz-adv-x="638" d="M57 0l365 1491h248l-365 -1491h-248zM463 1599l291 295l213 -94l-299 -201h-205z" />
<glyph unicode="&#xce;" horiz-adv-x="638" d="M57 0l365 1491h248l-365 -1491h-248zM211 1604l303 276h229l166 -276h-186l-121 120l-180 -120h-211z" />
<glyph unicode="&#xcf;" horiz-adv-x="638" d="M57 0l365 1491h248l-365 -1491h-248zM260 1606l57 223h242l-57 -223h-242zM645 1606l57 223h242l-57 -223h-242z" />
<glyph unicode="&#xd0;" horiz-adv-x="1478" d="M74 639l57 221h158l153 631h338q319 0 486 -164q151 -151 151 -438q0 -173 -65 -348t-191 -301q-240 -240 -657 -240h-426l155 639h-159zM381 223h156q272 0 440 168q91 91 139.5 226t48.5 264q0 189 -100 284q-100 103 -303 103h-131l-96 -408h276l-57 -221h-273z" />
<glyph unicode="&#xd1;" horiz-adv-x="1472" d="M43 0l365 1491h229l385 -1061l254 1061h244l-365 -1491h-211l-397 1094l-260 -1094h-244zM625 1630q54 120 111 178t141 58q64 0 163 -45q66 -37 107 -37q38 0 64.5 22.5t56.5 71.5l135 -47q-54 -120 -110 -177t-140 -57q-65 0 -164 43q-70 39 -106 39q-39 0 -65 -22 t-58 -72z" />
<glyph unicode="&#xd2;" d="M147 573q0 198 74.5 400.5t206.5 333.5q206 206 496 206q251 0 400 -165t149 -433q0 -196 -75.5 -398t-207.5 -333q-206 -209 -494 -209q-251 0 -400 165.5t-149 432.5zM399 590q0 -178 85.5 -281.5t238.5 -103.5q159 0 281 125q98 98 156.5 261t58.5 310 q0 178 -85.5 281.5t-236.5 103.5q-159 0 -283 -127q-97 -96 -156 -259.5t-59 -309.5zM696 1817l224 94l159 -295h-170z" />
<glyph unicode="&#xd3;" d="M147 573q0 198 74.5 400.5t206.5 333.5q206 206 496 206q251 0 400 -165t149 -433q0 -196 -75.5 -398t-207.5 -333q-206 -209 -494 -209q-251 0 -400 165.5t-149 432.5zM399 590q0 -178 85.5 -281.5t238.5 -103.5q159 0 281 125q98 98 156.5 261t58.5 310 q0 178 -85.5 281.5t-236.5 103.5q-159 0 -283 -127q-97 -96 -156 -259.5t-59 -309.5zM885 1616l291 295l213 -94l-299 -201h-205z" />
<glyph unicode="&#xd4;" d="M147 573q0 198 74.5 400.5t206.5 333.5q206 206 496 206q251 0 400 -165t149 -433q0 -196 -75.5 -398t-207.5 -333q-206 -209 -494 -209q-251 0 -400 165.5t-149 432.5zM399 590q0 -178 85.5 -281.5t238.5 -103.5q159 0 281 125q98 98 156.5 261t58.5 310 q0 178 -85.5 281.5t-236.5 103.5q-159 0 -283 -127q-97 -96 -156 -259.5t-59 -309.5zM645 1620l303 276h230l165 -276h-186l-121 121l-180 -121h-211z" />
<glyph unicode="&#xd5;" d="M147 573q0 198 74.5 400.5t206.5 333.5q206 206 496 206q251 0 400 -165t149 -433q0 -196 -75.5 -398t-207.5 -333q-206 -209 -494 -209q-251 0 -400 165.5t-149 432.5zM399 590q0 -178 85.5 -281.5t238.5 -103.5q159 0 281 125q98 98 156.5 261t58.5 310 q0 178 -85.5 281.5t-236.5 103.5q-159 0 -283 -127q-97 -96 -156 -259.5t-59 -309.5zM645 1651q54 119 111 177t141 58q65 0 164 -45q66 -37 106 -37q38 0 64.5 22.5t56.5 71.5l135 -47q-54 -120 -109.5 -176.5t-139.5 -56.5q-65 0 -164 43q-70 39 -107 39q-39 0 -65 -22 t-58 -72z" />
<glyph unicode="&#xd6;" d="M147 573q0 198 74.5 400.5t206.5 333.5q206 206 496 206q251 0 400 -165t149 -433q0 -196 -75.5 -398t-207.5 -333q-206 -209 -494 -209q-251 0 -400 165.5t-149 432.5zM399 590q0 -178 85.5 -281.5t238.5 -103.5q159 0 281 125q98 98 156.5 261t58.5 310 q0 178 -85.5 281.5t-236.5 103.5q-159 0 -283 -127q-97 -96 -156 -259.5t-59 -309.5zM694 1622l58 223h241l-57 -223h-242zM1079 1622l58 223h241l-57 -223h-242z" />
<glyph unicode="&#xd7;" horiz-adv-x="1202" d="M129 463l371 299l-217 295l184 143l209 -299l368 303l127 -168l-370 -297l217 -293l-182 -145l-211 297l-367 -301z" />
<glyph unicode="&#xd8;" d="M-37 -12l256 262q-72 141 -72 323q0 198 74.5 400.5t206.5 333.5q206 206 496 206q222 0 372 -137l123 127h238l-258 -264q74 -145 74 -324q0 -196 -75.5 -398t-207.5 -333q-206 -209 -494 -209q-227 0 -374 138l-121 -125h-238zM391 586q0 -75 17 -148l718 770 q-85 88 -229 88q-161 0 -287 -129q-98 -98 -158.5 -263t-60.5 -318zM494 281q86 -86 227 -86q161 0 287 129q98 98 158.5 263t60.5 318q0 77 -19 148z" />
<glyph unicode="&#xd9;" horiz-adv-x="1429" d="M160 414q0 88 33 227l204 850h246l-211 -881q-22 -90 -22 -166q0 -110 65.5 -174.5t183.5 -64.5q134 0 220 86q95 95 141 280l221 920h246l-230 -956q-68 -265 -202 -402q-156 -156 -422 -156q-220 0 -346.5 115.5t-126.5 321.5zM641 1796l223 94l160 -295h-170z" />
<glyph unicode="&#xda;" horiz-adv-x="1429" d="M160 414q0 88 33 227l204 850h246l-211 -881q-22 -90 -22 -166q0 -110 65.5 -174.5t183.5 -64.5q134 0 220 86q95 95 141 280l221 920h246l-230 -956q-68 -265 -202 -402q-156 -156 -422 -156q-220 0 -346.5 115.5t-126.5 321.5zM842 1595l291 295l213 -94l-299 -201 h-205z" />
<glyph unicode="&#xdb;" horiz-adv-x="1429" d="M160 414q0 88 33 227l204 850h246l-211 -881q-22 -90 -22 -166q0 -110 65.5 -174.5t183.5 -64.5q134 0 220 86q95 95 141 280l221 920h246l-230 -956q-68 -265 -202 -402q-156 -156 -422 -156q-220 0 -346.5 115.5t-126.5 321.5zM592 1599l303 277h229l166 -277h-186 l-121 121l-180 -121h-211z" />
<glyph unicode="&#xdc;" horiz-adv-x="1429" d="M160 414q0 88 33 227l204 850h246l-211 -881q-22 -90 -22 -166q0 -110 65.5 -174.5t183.5 -64.5q134 0 220 86q95 95 141 280l221 920h246l-230 -956q-68 -265 -202 -402q-156 -156 -422 -156q-220 0 -346.5 115.5t-126.5 321.5zM639 1602l57 223h242l-57 -223h-242z M1024 1602l57 223h242l-57 -223h-242z" />
<glyph unicode="&#xdd;" horiz-adv-x="1228" d="M225 1491h271l168 -664l487 664h297l-715 -907l-143 -584h-248l147 606zM727 1595l291 295l213 -94l-299 -201h-205z" />
<glyph unicode="&#xde;" horiz-adv-x="1290" d="M43 0l365 1491h245l-57 -234h121q145 0 243.5 -31t169.5 -102q111 -105 111 -297q0 -235 -154 -389q-87 -88 -221 -136t-299 -48h-217l-59 -254h-248zM406 471h172q207 0 317 107q88 88 88 235q0 96 -55 154q-69 69 -223 69h-164z" />
<glyph unicode="&#xdf;" horiz-adv-x="1189" d="M16 0l269 1102q51 211 166 323q122 125 317 125q180 0 286.5 -101t106.5 -261q0 -153 -88.5 -268.5t-241.5 -165.5q101 -45 161.5 -122t60.5 -186q0 -98 -41 -184t-118.5 -150.5t-202.5 -96.5t-279 -19l51 190q175 -6 266.5 72t91.5 199q0 86 -59.5 144t-181.5 79l41 164 q151 33 230 119.5t79 201.5q0 83 -47.5 130.5t-122.5 47.5q-174 0 -240 -262l-262 -1081h-242z" />
<glyph unicode="&#xe0;" horiz-adv-x="1116" d="M31 281q0 180 114 294q121 121 332 121q139 0 283 -53l6 27q14 72 14 114q0 152 -202 152q-122 0 -256 -59l-56 196q167 72 350 72q193 0 297.5 -81.5t104.5 -227.5q0 -79 -31 -203l-151 -633h-236l35 139q-136 -159 -309 -159q-132 0 -213.5 83t-81.5 218zM272 305 q0 -70 41 -112.5t111 -42.5q99 0 175.5 76t102.5 184l23 94q-111 39 -211 39q-110 0 -176 -66q-66 -69 -66 -172zM422 1495l215 100l139 -338h-166z" />
<glyph unicode="&#xe1;" horiz-adv-x="1116" d="M31 281q0 180 114 294q121 121 332 121q139 0 283 -53l6 27q14 72 14 114q0 152 -202 152q-122 0 -256 -59l-56 196q167 72 350 72q193 0 297.5 -81.5t104.5 -227.5q0 -79 -31 -203l-151 -633h-236l35 139q-136 -159 -309 -159q-132 0 -213.5 83t-81.5 218zM272 305 q0 -70 41 -112.5t111 -42.5q99 0 175.5 76t102.5 184l23 94q-111 39 -211 39q-110 0 -176 -66q-66 -69 -66 -172zM604 1257l291 338l209 -100l-299 -238h-201z" />
<glyph unicode="&#xe2;" horiz-adv-x="1116" d="M31 281q0 180 114 294q121 121 332 121q139 0 283 -53l6 27q14 72 14 114q0 152 -202 152q-122 0 -256 -59l-56 196q167 72 350 72q193 0 297.5 -81.5t104.5 -227.5q0 -79 -31 -203l-151 -633h-236l35 139q-136 -159 -309 -159q-132 0 -213.5 83t-81.5 218zM272 305 q0 -70 41 -112.5t111 -42.5q99 0 175.5 76t102.5 184l23 94q-111 39 -211 39q-110 0 -176 -66q-66 -69 -66 -172zM367 1260l297 307h225l145 -307h-180l-109 147l-182 -147h-196z" />
<glyph unicode="&#xe3;" horiz-adv-x="1116" d="M31 281q0 180 114 294q121 121 332 121q139 0 283 -53l6 27q14 72 14 114q0 152 -202 152q-122 0 -256 -59l-56 196q167 72 350 72q193 0 297.5 -81.5t104.5 -227.5q0 -79 -31 -203l-151 -633h-236l35 139q-136 -159 -309 -159q-132 0 -213.5 83t-81.5 218zM272 305 q0 -70 41 -112.5t111 -42.5q99 0 175.5 76t102.5 184l23 94q-111 39 -211 39q-110 0 -176 -66q-66 -69 -66 -172zM360 1288q53 126 109.5 186t140.5 60q65 0 154 -49q62 -41 100 -41q37 0 63 24t56 78l133 -45q-54 -126 -109 -185t-139 -59q-66 0 -153 50q-67 41 -103 41 t-62 -24.5t-54 -78.5z" />
<glyph unicode="&#xe4;" horiz-adv-x="1116" d="M31 281q0 180 114 294q121 121 332 121q139 0 283 -53l6 27q14 72 14 114q0 152 -202 152q-122 0 -256 -59l-56 196q167 72 350 72q193 0 297.5 -81.5t104.5 -227.5q0 -79 -31 -203l-151 -633h-236l35 139q-136 -159 -309 -159q-132 0 -213.5 83t-81.5 218zM272 305 q0 -70 41 -112.5t111 -42.5q99 0 175.5 76t102.5 184l23 94q-111 39 -211 39q-110 0 -176 -66q-66 -69 -66 -172zM408 1264l59 235h238l-60 -235h-237zM778 1264l62 235h237l-59 -235h-240z" />
<glyph unicode="&#xe5;" horiz-adv-x="1116" d="M31 281q0 180 114 294q121 121 332 121q139 0 283 -53l6 27q14 72 14 114q0 152 -202 152q-122 0 -256 -59l-56 196q167 72 350 72q193 0 297.5 -81.5t104.5 -227.5q0 -79 -31 -203l-151 -633h-236l35 139q-136 -159 -309 -159q-132 0 -213.5 83t-81.5 218zM272 305 q0 -70 41 -112.5t111 -42.5q99 0 175.5 76t102.5 184l23 94q-111 39 -211 39q-110 0 -176 -66q-66 -69 -66 -172zM539 1450q0 98 70 173t173 75q91 0 148 -57t57 -140q0 -99 -69.5 -172.5t-174.5 -73.5q-91 0 -147.5 55.5t-56.5 139.5zM639 1456q0 -50 31 -81.5t80 -31.5 q59 0 98 46t39 104q0 51 -30 83t-79 32q-59 0 -99 -46.5t-40 -105.5z" />
<glyph unicode="&#xe6;" horiz-adv-x="1771" d="M31 281q0 180 114 294q121 121 332 121q139 0 283 -53l6 27q14 69 14 114q0 152 -202 152q-122 0 -256 -59l-56 196q167 72 350 72q129 0 214.5 -46.5t119.5 -133.5q159 188 371 188q169 0 272 -115.5t103 -298.5q0 -120 -47 -260h-701v-22q0 -131 62 -206t172 -75 q69 0 125 23t123 71l104 -164q-159 -126 -360 -126q-134 0 -231.5 58t-147.5 175q-182 -233 -443 -233q-153 0 -237 81t-84 220zM272 305q0 -71 43 -113t123 -42q81 0 165 54t149 142q-9 71 -2 146q-47 21 -111.5 36t-120.5 15q-114 0 -180 -66q-66 -69 -66 -172zM975 639 h483q12 47 12 111q0 92 -45.5 148t-134.5 56q-106 0 -190 -84q-81 -81 -125 -231z" />
<glyph unicode="&#xe7;" horiz-adv-x="1032" d="M92 446q0 154 56.5 298.5t154.5 242.5q171 164 379 164q136 0 224.5 -53.5t150.5 -149.5l-180 -139q-42 66 -88.5 100.5t-112.5 34.5q-101 0 -189 -88q-69 -68 -111 -181.5t-42 -221.5q0 -127 58 -197t147 -70q59 0 107.5 24.5t105.5 74.5l125 -158q-149 -142 -334 -147 h-8l-195 -302l-190 89l217 237q-127 45 -201 160t-74 282z" />
<glyph unicode="&#xe8;" horiz-adv-x="1142" d="M94 457q0 150 57 293.5t156 242.5q160 160 373 160q178 0 282.5 -115t104.5 -299q0 -120 -47 -260h-698v-22q0 -131 61.5 -206t169.5 -75q69 0 126 23t122 71l104 -164q-159 -126 -362 -126q-209 0 -329 128.5t-120 348.5zM346 639h483q13 51 13 111q0 92 -45.5 148 t-132.5 56q-106 0 -193 -84q-81 -81 -125 -231zM461 1495l215 100l139 -338h-166z" />
<glyph unicode="&#xe9;" horiz-adv-x="1142" d="M94 457q0 150 57 293.5t156 242.5q160 160 373 160q178 0 282.5 -115t104.5 -299q0 -120 -47 -260h-698v-22q0 -131 61.5 -206t169.5 -75q69 0 126 23t122 71l104 -164q-159 -126 -362 -126q-209 0 -329 128.5t-120 348.5zM346 639h483q13 51 13 111q0 92 -45.5 148 t-132.5 56q-106 0 -193 -84q-81 -81 -125 -231zM641 1257l291 338l209 -100l-299 -238h-201z" />
<glyph unicode="&#xea;" horiz-adv-x="1142" d="M94 457q0 150 57 293.5t156 242.5q160 160 373 160q178 0 282.5 -115t104.5 -299q0 -120 -47 -260h-698v-22q0 -131 61.5 -206t169.5 -75q69 0 126 23t122 71l104 -164q-159 -126 -362 -126q-209 0 -329 128.5t-120 348.5zM346 639h483q13 51 13 111q0 92 -45.5 148 t-132.5 56q-106 0 -193 -84q-81 -81 -125 -231zM403 1260l297 307h226l145 -307h-180l-109 147l-182 -147h-197z" />
<glyph unicode="&#xeb;" horiz-adv-x="1142" d="M94 457q0 150 57 293.5t156 242.5q160 160 373 160q178 0 282.5 -115t104.5 -299q0 -120 -47 -260h-698v-22q0 -131 61.5 -206t169.5 -75q69 0 126 23t122 71l104 -164q-159 -126 -362 -126q-209 0 -329 128.5t-120 348.5zM346 639h483q13 51 13 111q0 92 -45.5 148 t-132.5 56q-106 0 -193 -84q-81 -81 -125 -231zM444 1264l60 235h237l-59 -235h-238zM815 1264l62 235h237l-59 -235h-240z" />
<glyph unicode="&#xec;" horiz-adv-x="577" d="M29 0l276 1133h244l-277 -1133h-243zM172 1493l215 100l139 -338h-166z" />
<glyph unicode="&#xed;" horiz-adv-x="577" d="M29 0l276 1133h244l-277 -1133h-243zM356 1255l291 338l209 -100l-299 -238h-201z" />
<glyph unicode="&#xee;" horiz-adv-x="577" d="M29 0l276 1133h244l-277 -1133h-243zM117 1257l297 308h225l145 -308h-180l-108 148l-183 -148h-196z" />
<glyph unicode="&#xef;" horiz-adv-x="577" d="M29 0l276 1133h244l-277 -1133h-243zM158 1262l59 235h238l-60 -235h-237zM528 1262l62 235h237l-59 -235h-240z" />
<glyph unicode="&#xf0;" horiz-adv-x="1220" d="M96 446q0 159 55.5 306t147.5 239q143 146 330 146q80 0 141 -32.5t115 -100.5q-41 127 -146 280l-237 -74l-43 131l194 60q-56 71 -116 137h292q42 -54 52 -68l223 68l43 -129l-186 -57q167 -277 167 -570q0 -198 -63 -369t-170 -278q-73 -75 -169 -116.5t-202 -41.5 q-194 0 -311 125t-117 344zM332 453q0 -126 55.5 -197.5t155.5 -71.5q105 0 190 82q65 68 106.5 182.5t41.5 227.5q0 124 -58 196t-157 72q-108 0 -191 -86q-64 -64 -103.5 -176.5t-39.5 -228.5z" />
<glyph unicode="&#xf1;" horiz-adv-x="1179" d="M16 0l279 1133h240l-33 -136q137 156 301 156q130 0 207 -79.5t77 -217.5q0 -83 -32 -211l-154 -645h-244l158 649q21 83 21 133q0 73 -40 112.5t-114 39.5q-90 0 -160.5 -72t-97.5 -184l-166 -678h-242zM395 1288q53 126 109.5 186t140.5 60q65 0 154 -49 q62 -41 100 -41q37 0 63 24t56 78l133 -45q-54 -126 -109 -185t-139 -59q-66 0 -153 50q-67 41 -103 41t-62.5 -25t-54.5 -78z" />
<glyph unicode="&#xf2;" horiz-adv-x="1218" d="M96 459q0 153 55 294t154 240q160 160 373 160q204 0 325 -132t121 -349q0 -152 -56 -294t-153 -241q-163 -160 -374 -160q-204 0 -324.5 133t-120.5 349zM332 465q0 -134 59.5 -206.5t161.5 -72.5t186 84q68 68 108 179t40 215q0 135 -59 207.5t-160 72.5 q-106 0 -187 -84q-68 -67 -108.5 -178.5t-40.5 -216.5zM485 1495l215 100l140 -338h-166z" />
<glyph unicode="&#xf3;" horiz-adv-x="1218" d="M96 459q0 153 55 294t154 240q160 160 373 160q204 0 325 -132t121 -349q0 -152 -56 -294t-153 -241q-163 -160 -374 -160q-204 0 -324.5 133t-120.5 349zM332 465q0 -134 59.5 -206.5t161.5 -72.5t186 84q68 68 108 179t40 215q0 135 -59 207.5t-160 72.5 q-106 0 -187 -84q-68 -67 -108.5 -178.5t-40.5 -216.5zM653 1257l291 338l209 -100l-299 -238h-201z" />
<glyph unicode="&#xf4;" horiz-adv-x="1218" d="M96 459q0 153 55 294t154 240q160 160 373 160q204 0 325 -132t121 -349q0 -152 -56 -294t-153 -241q-163 -160 -374 -160q-204 0 -324.5 133t-120.5 349zM332 465q0 -134 59.5 -206.5t161.5 -72.5t186 84q68 68 108 179t40 215q0 135 -59 207.5t-160 72.5 q-106 0 -187 -84q-68 -67 -108.5 -178.5t-40.5 -216.5zM428 1260l297 307h225l146 -307h-181l-108 147l-182 -147h-197z" />
<glyph unicode="&#xf5;" horiz-adv-x="1218" d="M96 459q0 153 55 294t154 240q160 160 373 160q204 0 325 -132t121 -349q0 -152 -56 -294t-153 -241q-163 -160 -374 -160q-204 0 -324.5 133t-120.5 349zM332 465q0 -134 59.5 -206.5t161.5 -72.5t186 84q68 68 108 179t40 215q0 135 -59 207.5t-160 72.5 q-106 0 -187 -84q-68 -67 -108.5 -178.5t-40.5 -216.5zM422 1288q53 126 109.5 186t140.5 60q64 0 153 -49q62 -41 101 -41q37 0 62 23.5t56 78.5l134 -45q-54 -126 -109 -185t-139 -59q-67 0 -154 50q-67 41 -102 41q-36 0 -62.5 -25t-54.5 -78z" />
<glyph unicode="&#xf6;" horiz-adv-x="1218" d="M96 459q0 153 55 294t154 240q160 160 373 160q204 0 325 -132t121 -349q0 -152 -56 -294t-153 -241q-163 -160 -374 -160q-204 0 -324.5 133t-120.5 349zM332 465q0 -134 59.5 -206.5t161.5 -72.5t186 84q68 68 108 179t40 215q0 135 -59 207.5t-160 72.5 q-106 0 -187 -84q-68 -67 -108.5 -178.5t-40.5 -216.5zM467 1264l59 235h238l-59 -235h-238zM838 1264l61 235h238l-60 -235h-239z" />
<glyph unicode="&#xf7;" horiz-adv-x="1202" d="M156 645l53 209h930l-58 -209h-925zM387 225l64 252h258l-64 -252h-258zM584 1022l63 252h260l-65 -252h-258z" />
<glyph unicode="&#xf8;" horiz-adv-x="1218" d="M-63 -12l215 215q-56 109 -56 256q0 153 55 294t154 240q160 160 373 160q182 0 295 -104l92 92h217l-215 -213q57 -111 57 -256q0 -152 -56 -294t-153 -241q-163 -160 -374 -160q-181 0 -295 105l-92 -94h-217zM326 465q0 -54 8 -90l483 522q-55 55 -145 55 q-109 0 -197 -88q-70 -70 -109.5 -180.5t-39.5 -218.5zM399 233q55 -55 148 -55q108 0 196 88q70 70 110 180.5t40 217.5q0 32 -8 90z" />
<glyph unicode="&#xf9;" horiz-adv-x="1183" d="M96 279q0 61 33 208l156 646h241l-157 -650q-19 -84 -19 -133q0 -72 40.5 -111.5t113.5 -39.5q91 0 162 72.5t96 183.5l164 678h241l-274 -1133h-242l33 135q-144 -155 -301 -155q-131 0 -209 80t-78 219zM467 1491l215 100l139 -338h-166z" />
<glyph unicode="&#xfa;" horiz-adv-x="1183" d="M96 279q0 61 33 208l156 646h241l-157 -650q-19 -84 -19 -133q0 -72 40.5 -111.5t113.5 -39.5q91 0 162 72.5t96 183.5l164 678h241l-274 -1133h-242l33 135q-144 -155 -301 -155q-131 0 -209 80t-78 219zM647 1253l291 338l209 -100l-299 -238h-201z" />
<glyph unicode="&#xfb;" horiz-adv-x="1183" d="M96 279q0 61 33 208l156 646h241l-157 -650q-19 -84 -19 -133q0 -72 40.5 -111.5t113.5 -39.5q91 0 162 72.5t96 183.5l164 678h241l-274 -1133h-242l33 135q-144 -155 -301 -155q-131 0 -209 80t-78 219zM410 1255l297 308h225l145 -308h-180l-109 148l-182 -148h-196z " />
<glyph unicode="&#xfc;" horiz-adv-x="1183" d="M96 279q0 61 33 208l156 646h241l-157 -650q-19 -84 -19 -133q0 -72 40.5 -111.5t113.5 -39.5q91 0 162 72.5t96 183.5l164 678h241l-274 -1133h-242l33 135q-144 -155 -301 -155q-131 0 -209 80t-78 219zM446 1260l60 235h237l-59 -235h-238zM817 1260l62 235h237 l-59 -235h-240z" />
<glyph unicode="&#xfd;" horiz-adv-x="1120" d="M-63 -238l116 166q62 -49 119 -49q39 0 72 26.5t71 88.5l-112 1139h246l51 -844l424 844h260l-633 -1153q-91 -165 -178 -235.5t-203 -70.5q-132 0 -233 88zM602 1253l291 338l209 -100l-299 -238h-201z" />
<glyph unicode="&#xfe;" horiz-adv-x="1259" d="M-61 -319l452 1857h244l-135 -551q74 81 148 123.5t163 42.5q153 0 253.5 -120.5t100.5 -332.5q0 -164 -56.5 -316t-158.5 -255q-150 -147 -338 -147q-216 0 -311 208l-121 -509h-241zM362 453q0 -121 60.5 -194t157.5 -73q107 0 186 82q69 69 110.5 180.5t41.5 231.5 q0 124 -55 196t-152 72q-109 0 -197 -88q-71 -71 -111.5 -181.5t-40.5 -225.5z" />
<glyph unicode="&#xff;" horiz-adv-x="1120" d="M-63 -238l116 166q62 -49 119 -49q39 0 72 26.5t71 88.5l-112 1139h246l51 -844l424 844h260l-633 -1153q-91 -165 -178 -235.5t-203 -70.5q-132 0 -233 88zM406 1260l59 235h237l-59 -235h-237zM776 1260l62 235h237l-59 -235h-240z" />
<glyph unicode="&#x152;" horiz-adv-x="1992" d="M147 602q0 172 66.5 347.5t194.5 301.5q240 240 653 240h1032l-57 -221h-652l-94 -410h572l-56 -219h-573l-100 -420h663l-59 -221h-951q-319 0 -491 172q-71 71 -109.5 182t-38.5 248zM403 610q0 -184 97 -284q106 -103 305 -103h80l252 1045h-107q-272 0 -440 -168 q-91 -91 -139 -225.5t-48 -264.5z" />
<glyph unicode="&#x153;" horiz-adv-x="1923" d="M96 459q0 152 55.5 293t153.5 241q160 160 373 160q134 0 229 -64t140 -180q74 109 180 176.5t237 67.5q175 0 279 -115t104 -299q0 -120 -47 -260h-698v-22q0 -131 60.5 -206t170.5 -75q70 0 126.5 23t123.5 71l100 -166q-155 -124 -354 -124q-142 0 -240 61t-143 172 q-73 -105 -178 -170.5t-227 -65.5q-202 0 -323.5 133.5t-121.5 348.5zM332 465q0 -134 59.5 -206.5t161.5 -72.5t186 84q68 68 108 179t40 215q0 135 -59 207.5t-160 72.5q-106 0 -187 -84q-68 -67 -108.5 -178.5t-40.5 -216.5zM1126 639h484q12 47 12 111q0 92 -45.5 148 t-134.5 56q-104 0 -191 -84q-81 -81 -125 -231z" />
<glyph unicode="&#x178;" horiz-adv-x="1228" d="M225 1491h271l168 -664l487 664h297l-715 -907l-143 -584h-248l147 606zM526 1602l58 223h241l-57 -223h-242zM911 1602l58 223h241l-57 -223h-242z" />
<glyph unicode="&#x2c6;" horiz-adv-x="1101" d="M387 1257l297 308h225l146 -308h-181l-108 148l-182 -148h-197z" />
<glyph unicode="&#x2dc;" horiz-adv-x="1101" d="M373 1286q53 126 109.5 186t140.5 60q64 0 153 -49q62 -41 101 -41q37 0 62 23.5t56 78.5l133 -45q-54 -126 -108.5 -185t-138.5 -59q-67 0 -154 50q-67 41 -102 41q-36 0 -62.5 -25t-54.5 -78z" />
<glyph unicode="&#x2000;" horiz-adv-x="955" />
<glyph unicode="&#x2001;" horiz-adv-x="1911" />
<glyph unicode="&#x2002;" horiz-adv-x="955" />
<glyph unicode="&#x2003;" horiz-adv-x="1911" />
<glyph unicode="&#x2004;" horiz-adv-x="637" />
<glyph unicode="&#x2005;" horiz-adv-x="477" />
<glyph unicode="&#x2006;" horiz-adv-x="318" />
<glyph unicode="&#x2007;" horiz-adv-x="318" />
<glyph unicode="&#x2008;" horiz-adv-x="238" />
<glyph unicode="&#x2009;" horiz-adv-x="382" />
<glyph unicode="&#x200a;" horiz-adv-x="106" />
<glyph unicode="&#x2010;" horiz-adv-x="821" d="M113 532l61 234h574l-60 -234h-575z" />
<glyph unicode="&#x2011;" horiz-adv-x="821" d="M113 532l61 234h574l-60 -234h-575z" />
<glyph unicode="&#x2012;" horiz-adv-x="821" d="M113 532l61 234h574l-60 -234h-575z" />
<glyph unicode="&#x2013;" horiz-adv-x="1081" d="M113 535l59 229h836l-58 -229h-837z" />
<glyph unicode="&#x2014;" horiz-adv-x="1744" d="M113 535l59 229h1499l-59 -229h-1499z" />
<glyph unicode="&#x2018;" horiz-adv-x="598" d="M221 918l60 239q43 170 134 248.5t251 93.5l22 -106q-111 -18 -164 -64t-67 -129h106l-71 -282h-271z" />
<glyph unicode="&#x2019;" horiz-adv-x="598" d="M186 1014q109 19 163.5 65t66.5 129h-105l70 283h270l-59 -240q-43 -170 -134 -248.5t-251 -93.5z" />
<glyph unicode="&#x201a;" horiz-adv-x="598" d="M-100 -195q110 18 164.5 65.5t66.5 129.5h-104l69 283h271l-60 -240q-42 -171 -133 -250t-252 -94z" />
<glyph unicode="&#x201c;" horiz-adv-x="1050" d="M223 915l60 242q42 170 133.5 248.5t251.5 93.5l20 -108q-109 -19 -163 -65t-66 -128h106l-71 -283h-271zM676 915l59 242q43 170 134 248.5t251 93.5l23 -108q-111 -18 -164.5 -64t-67.5 -129h105l-70 -283h-270z" />
<glyph unicode="&#x201d;" horiz-adv-x="1050" d="M186 1014q109 19 163.5 65t68.5 129h-107l72 283h270l-59 -240q-43 -170 -134.5 -248.5t-252.5 -93.5zM639 1014q111 18 164 64.5t67 129.5h-104l70 283h270l-59 -240q-43 -170 -134 -248.5t-251 -93.5z" />
<glyph unicode="&#x201e;" horiz-adv-x="1050" d="M-100 -195q110 18 164.5 65.5t66.5 129.5h-104l69 283h271l-60 -240q-42 -171 -133 -250t-252 -94zM354 -195q108 18 163 66t67 129h-105l72 283h270l-59 -240q-43 -171 -135 -250t-252 -94z" />
<glyph unicode="&#x2022;" horiz-adv-x="974" d="M270 680q0 82 30 156t83 127q84 84 197 84q98 0 156.5 -60.5t58.5 -161.5q0 -82 -30 -156.5t-83 -127.5q-87 -84 -197 -84q-99 0 -157 60.5t-58 162.5z" />
<glyph unicode="&#x2026;" horiz-adv-x="1613" d="M27 0l69 279h266l-71 -279h-264zM539 0l67 279h268l-71 -279h-264zM1049 0l69 279h268l-69 -279h-268z" />
<glyph unicode="&#x202f;" horiz-adv-x="382" />
<glyph unicode="&#x2039;" horiz-adv-x="722" d="M104 541l5 16l466 475l127 -121l-340 -385l150 -370l-178 -78z" />
<glyph unicode="&#x203a;" horiz-adv-x="722" d="M14 197l342 385l-151 370l180 80l227 -465l-4 -16l-467 -473z" />
<glyph unicode="&#x205f;" horiz-adv-x="477" />
<glyph unicode="&#x20ac;" horiz-adv-x="1333" d="M61 487l43 170h148q12 95 33 189h-135l40 166h142q70 198 200 325q174 174 426 174q155 0 267 -75.5t170 -202.5l-207 -117q-48 87 -107 129.5t-145 42.5q-127 0 -217 -90q-72 -72 -119 -186h410l-43 -166h-422q-23 -77 -37 -189h414l-41 -170h-381q9 -136 74 -210 t171 -74q74 0 133 29.5t126 95.5l161 -152q-180 -196 -428 -196q-215 0 -346.5 135.5t-144.5 371.5h-185z" />
<glyph unicode="&#x2122;" horiz-adv-x="1325" d="M238 1382l30 109h459l-31 -109h-170l-133 -551h-119l134 551h-170zM688 831l162 660h125l82 -301l227 301h135l-159 -660h-115l112 478l-237 -318h-12l-90 318l-115 -478h-115z" />
<glyph unicode="&#x25fc;" horiz-adv-x="1136" d="M0 0v1137h1137v-1137h-1137z" />
<glyph unicode="&#xfb01;" horiz-adv-x="1312" d="M68 0l225 924h-129l55 209h125l18 75q41 172 123 248q98 94 265 94q105 0 180 -30l-53 -201q-58 22 -121 22t-99.5 -35t-54.5 -106l-18 -67h247l-55 -209h-241l-224 -924h-243zM762 0l278 1133h242l-276 -1133h-244zM1071 1298l64 240h256l-64 -240h-256z" />
<glyph unicode="&#xfb02;" horiz-adv-x="1312" d="M68 0l225 924h-129l55 209h125l18 75q41 172 123 248q98 94 265 94q105 0 180 -30l-53 -201q-58 22 -121 22t-99.5 -35t-54.5 -106l-18 -67h247l-55 -209h-241l-224 -924h-243zM762 0l377 1538h241l-374 -1538h-244z" />
<glyph unicode="&#xfb03;" horiz-adv-x="2045" d="M68 0l225 924h-129l55 209h125l18 75q41 172 123 248q98 94 265 94q105 0 180 -30l-53 -201q-58 22 -121 22t-99.5 -35t-54.5 -106l-18 -67h247l-55 -209h-241l-224 -924h-243zM803 0l225 924h-129l55 209h125l19 75q41 172 123 248q98 94 264 94q105 0 180 -30l-53 -201 q-58 22 -121 22t-99.5 -35t-54.5 -106l-18 -67h248l-56 -209h-241l-223 -924h-244zM1497 0l279 1133h241l-276 -1133h-244zM1806 1298l64 240h256l-64 -240h-256z" />
<glyph unicode="&#xfb04;" horiz-adv-x="2045" d="M68 0l225 924h-129l55 209h125l18 75q41 172 123 248q98 94 265 94q105 0 180 -30l-53 -201q-58 22 -121 22t-99.5 -35t-54.5 -106l-18 -67h247l-55 -209h-241l-224 -924h-243zM803 0l225 924h-129l55 209h125l19 75q41 172 123 248q98 94 264 94q105 0 180 -30l-53 -201 q-58 22 -121 22t-99.5 -35t-54.5 -106l-18 -67h248l-56 -209h-241l-223 -924h-244zM1497 0l377 1538h242l-375 -1538h-244z" />
</font>
</defs>
</svg>
